<svg xmlns="http://www.w3.org/2000/svg" xmlns:xlink="http://www.w3.org/1999/xlink" xmlns:lucid="lucid" width="1288.01" height="1162.06"><g transform="translate(-20.000000000000036 -137.94090909091756)" lucid:page-tab-id="0_0"><path d="M729 206h61v109.88H623.97V180H724zm-105.03 0H729" stroke="#000" fill="#fff"/><use xlink:href="#a" transform="matrix(1,0,0,1,635.9704545454547,214) translate(0 50.6)"/><path d="M108.55 378.74v660.13h22.85L85.7 1080 40 1038.87h22.85V378.74z" stroke="#fff" fill="#666"/><use xlink:href="#b" transform="matrix(-1.8369701987210297e-16,-1,1,-1.8369701987210297e-16,40,1080) translate(303.9322551907969 50.31792929292928)"/><path d="M1222 1079.94V418.4h-22l44-39.6 44 39.6h-22v661.54z" stroke="#fff" fill="#666"/><use xlink:href="#c" transform="matrix(-1.8369701987210297e-16,-1,1,-1.8369701987210297e-16,1200,1079.941442311192) translate(309.2659638047138 45.702929292929284)"/><path d="M220 380h940v140H220zM220 520h940v420H220zM160 379.37h60v700h-60z" stroke="#000" fill="#e5e5e5" fill-opacity=".71"/><use xlink:href="#d" transform="matrix(-1.8369701987210297e-16,-1,1,-1.8369701987210297e-16,160,1079.3691593299675) translate(177.0629510381595 33.69292929292928)"/><use xlink:href="#e" transform="matrix(-1.8369701987210297e-16,-1,1,-1.8369701987210297e-16,160,1079.3691593299675) translate(260.0128247755332 33.69292929292928)"/><use xlink:href="#f" transform="matrix(-1.8369701987210297e-16,-1,1,-1.8369701987210297e-16,160,1079.3691593299675) translate(329.9814976150393 33.69292929292928)"/><use xlink:href="#g" transform="matrix(-1.8369701987210297e-16,-1,1,-1.8369701987210297e-16,160,1079.3691593299675) translate(433.506574775533 33.69292929292928)"/><path d="M220 940h940v140H220z" stroke="#000" fill="#e5e5e5" fill-opacity=".71"/><path d="M306.03 400h360v100h-360z" stroke="#000" fill="#fff"/><path d="M306.03 438h360" stroke="#000" fill="none"/><use xlink:href="#h" transform="matrix(1,0,0,1,314.0295454545453,400) translate(97.15 22.6)"/><use xlink:href="#i" transform="matrix(1,0,0,1,318.0295454545453,445.6) translate(0 27.1)"/><use xlink:href="#j" transform="matrix(1,0,0,1,318.0295454545453,445.6) translate(199.7 27.1)"/><path d="M760 400h360v100H760z" stroke="#000" fill="#fff"/><path d="M760 438h360" stroke="#000" fill="none"/><use xlink:href="#k" transform="matrix(1,0,0,1,768,400) translate(115.07499999999999 22.6)"/><use xlink:href="#l" transform="matrix(1,0,0,1,772,445.6) translate(0 27.1)"/><use xlink:href="#m" transform="matrix(1,0,0,1,772,445.6) translate(165.8 27.1)"/><path d="M260 780h220v100H260z" stroke="#000" fill="#fff"/><path d="M260 818h220" stroke="#000" fill="none"/><use xlink:href="#n" transform="matrix(1,0,0,1,268,780) translate(72.07499999999999 22.6)"/><path d="M500 780h220v100H500z" stroke="#000" fill="#fff"/><path d="M500 818h220" stroke="#000" fill="none"/><use xlink:href="#o" transform="matrix(1,0,0,1,508,780) translate(72.07499999999999 22.6)"/><path d="M306.03 560h360v80h-360z" stroke="#000" fill="#fff"/><path d="M306.03 598h360" stroke="#000" fill="none"/><use xlink:href="#p" transform="matrix(1,0,0,1,314.0295454545453,560) translate(107.225 22.6)"/><path d="M120 350h257.5v200H120z" stroke="#000" stroke-opacity="0" fill="#fff" fill-opacity="0"/><use xlink:href="#q" transform="matrix(-1.8369701987210297e-16,-1,1,-1.8369701987210297e-16,120.00000000000006,550) translate(56.07999999999999 131.30625)"/><path d="M370 779v-69h116.03v-39.13" stroke="#000" fill="none"/><path d="M370.5 779.5h-1v-.5h1z"/><path d="M486.03 641.2l14.85 14.86-14.85 15.15-14.85-15.14z" stroke="#000"/><path d="M610 779v-69H486.03v-39.13" stroke="#000" fill="none"/><path d="M610.5 779.5h-1v-.5h1z"/><path d="M486.03 641.2l14.85 14.86-14.85 15.15-14.85-15.14z" stroke="#000"/><path d="M486.03 501v42.12" stroke="#000" fill="none"/><path d="M486.53 501h-1v-.5h1z"/><path d="M486.03 557.88l-4.64-14.26h9.26z" stroke="#000"/><path d="M300 960h360v100H300z" stroke="#000" fill="#fff"/><path d="M300 998h360" stroke="#000" fill="none"/><use xlink:href="#r" transform="matrix(1,0,0,1,308,960) translate(81.64999999999999 22.6)"/><path d="M120 580h257.5v200H120z" stroke="#000" stroke-opacity="0" fill="#fff" fill-opacity="0"/><use xlink:href="#s" transform="matrix(-1.8369701987210297e-16,-1,1,-1.8369701987210297e-16,120.00000000000006,780) translate(69.08 131.30625)"/><path d="M120 910h257.5v200H120z" stroke="#000" stroke-opacity="0" fill="#fff" fill-opacity="0"/><use xlink:href="#t" transform="matrix(-1.8369701987210297e-16,-1,1,-1.8369701987210297e-16,120,1110) translate(47.07999999999999 131.30625)"/><path d="M667.03 600H830v410H676.88" stroke="#000" fill="none"/><path d="M667.04 600.5h-.5v-1h.5z"/><path d="M662.12 1010l14.26-4.64v9.28z" stroke="#000"/><path d="M790 1268c0 6.63-49.25 12-110 12s-110-5.37-110-12v-96c0-6.63 49.25-12 110-12s110 5.37 110 12z" stroke="#000" fill="#fff"/><path d="M790 1172c0 6.63-49.25 12-110 12s-110-5.37-110-12" stroke="#000" fill="none"/><use xlink:href="#u" transform="matrix(1,0,0,1,570,1189) translate(70.08 48.525)"/><path d="M480 1061v159h73.12" stroke="#000" fill="none"/><path d="M480.5 1061h-1v-.5h1z"/><path d="M567.88 1220l-14.26 4.64v-9.28z" stroke="#000"/><path d="M940 501v719H806.88" stroke="#000" fill="none"/><path d="M940.5 501h-1v-.5h1z"/><path d="M792.12 1220l14.26-4.64v9.28z" stroke="#000"/><path d="M707 316.88v41.06H486.02v25.18" stroke="#000" fill="none"/><path d="M707.5 316.9h-1v-.52h1z"/><path d="M486.03 397.88l-4.64-14.26h9.26z" stroke="#000"/><path d="M707 316.88v41.06h233v25.18" stroke="#000" fill="none"/><path d="M707.5 316.9h-1v-.52h1z"/><path d="M940 397.88l-4.64-14.26h9.28z" stroke="#000"/><path d="M419.75 177.7c0 10.9-8.84 19.74-19.75 19.74-10.9 0-19.75-8.84-19.75-19.75 0-10.92 8.84-19.76 19.75-19.76 10.9 0 19.75 8.84 19.75 19.75z" stroke="#000" fill="#fff"/><path d="M360 157.94h80v158h-80z" fill="none"/><path d="M400 197.44v55.3l40 63.2m-40-63.2l-40 63.2m0-98.75h80" stroke="#000" fill="none"/><g><use xlink:href="#v" transform="matrix(1,0,0,1,280,315.94090909091756) translate(100.025 14.6)"/></g><path d="M401 247.94h206.1M401 247.94h-3.5" stroke="#000" fill="none"/><path d="M621.85 247.94l-14.26 4.64v-9.27z" stroke="#000"/><defs><path d="M67-125c0 54 23 88 75 88 28 0 53-7 68-21v-34h-60v-39h108v91C232-14 192 4 140 4 58 4 20-42 15-125 8-236 126-280 215-234c19 10 29 26 37 47l-47 15c-11-23-29-39-63-39-53 1-75 33-75 86" id="w"/><path d="M238-95c0 69-44 99-111 99C63 4 22-25 22-93v-155h51v151c-1 38 19 59 55 60 90 1 49-130 58-211h52v153" id="x"/><path d="M24 0v-248h52V0H24" id="y"/><g id="a"><use transform="matrix(0.05,0,0,0.05,0,0)" xlink:href="#w"/><use transform="matrix(0.05,0,0,0.05,14,0)" xlink:href="#x"/><use transform="matrix(0.05,0,0,0.05,26.950000000000003,0)" xlink:href="#y"/></g><path fill="#fff" d="M190-63c-7 42-38 67-86 67-59 0-84-38-90-98-12-110 154-137 174-36l-49 2c-2-19-15-32-35-32-30 0-35 28-38 64-6 74 65 87 74 30" id="z"/><path fill="#fff" d="M110-194c64 0 96 36 96 99 0 64-35 99-97 99-61 0-95-36-95-99 0-62 34-99 96-99zm-1 164c35 0 45-28 45-65 0-40-10-65-43-65-34 0-45 26-45 65 0 36 10 65 43 65" id="A"/><path fill="#fff" d="M220-157c-53 9-28 100-34 157h-49v-107c1-27-5-49-29-50C55-147 81-57 75 0H25l-1-190h47c2 12-1 28 3 38 10-53 101-56 108 0 13-22 24-43 59-42 82 1 51 116 57 194h-49v-107c-1-25-5-48-29-50" id="B"/><path fill="#fff" d="M133-34C117-15 103 5 69 4 32 3 11-16 11-54c-1-60 55-63 116-61 1-26-3-47-28-47-18 1-26 9-28 27l-52-2c7-38 36-58 82-57s74 22 75 68l1 82c-1 14 12 18 25 15v27c-30 8-71 5-69-32zm-48 3c29 0 43-24 42-57-32 0-66-3-65 30 0 17 8 27 23 27" id="C"/><path fill="#fff" d="M135-194c87-1 58 113 63 194h-50c-7-57 23-157-34-157-59 0-34 97-39 157H25l-1-190h47c2 12-1 28 3 38 12-26 28-41 61-42" id="D"/><path fill="#fff" d="M88-194c31-1 46 15 58 34l-1-101h50l1 261h-48c-2-10 0-23-3-31C134-8 116 4 84 4 32 4 16-41 15-95c0-56 19-97 73-99zm17 164c33 0 40-30 41-66 1-37-9-64-41-64s-38 30-39 65c0 43 13 65 39 65" id="E"/><g id="b"><use transform="matrix(0.06490600448933778,0,0,0.06490600448933778,0,0)" xlink:href="#z"/><use transform="matrix(0.06490600448933778,0,0,0.06490600448933778,12.981200897867556,0)" xlink:href="#A"/><use transform="matrix(0.06490600448933778,0,0,0.06490600448933778,27.19561588103253,0)" xlink:href="#B"/><use transform="matrix(0.06490600448933778,0,0,0.06490600448933778,47.96553731762062,0)" xlink:href="#B"/><use transform="matrix(0.06490600448933778,0,0,0.06490600448933778,68.73545875420871,0)" xlink:href="#C"/><use transform="matrix(0.06490600448933778,0,0,0.06490600448933778,81.71665965207626,0)" xlink:href="#D"/><use transform="matrix(0.06490600448933778,0,0,0.06490600448933778,95.93107463524123,0)" xlink:href="#E"/></g><path fill="#fff" d="M84 4C32 4 15-41 15-95c0-55 18-99 73-99 29 0 47 12 58 34l2-30h48l-1 265h-49V-32C136-9 114 4 84 4zm21-34c32 0 41-29 41-66 0-36-9-64-40-64-33 0-39 30-40 65 0 43 13 65 39 65" id="F"/><path fill="#fff" d="M85 4C-2 5 27-109 22-190h50c7 57-23 150 33 157 60-5 35-97 40-157h50l1 190h-47c-2-12 1-28-3-38-12 25-28 42-61 42" id="G"/><path fill="#fff" d="M185-48c-13 30-37 53-82 52C43 2 14-33 14-96s30-98 90-98c62 0 83 45 84 108H66c0 31 8 55 39 56 18 0 30-7 34-22zm-45-69c5-46-57-63-70-21-2 6-4 13-4 21h74" id="H"/><path fill="#fff" d="M135-150c-39-12-60 13-60 57V0H25l-1-190h47c2 13-1 29 3 40 6-28 27-53 61-41v41" id="I"/><path fill="#fff" d="M123 10C108 53 80 86 19 72V37c35 8 53-11 59-39L3-190h52l48 148c12-52 28-100 44-148h51" id="J"/><g id="c"><use transform="matrix(0.06490600448933778,0,0,0.06490600448933778,0,0)" xlink:href="#F"/><use transform="matrix(0.06490600448933778,0,0,0.06490600448933778,14.214414983164975,0)" xlink:href="#G"/><use transform="matrix(0.06490600448933778,0,0,0.06490600448933778,28.42882996632995,0)" xlink:href="#H"/><use transform="matrix(0.06490600448933778,0,0,0.06490600448933778,41.41003086419751,0)" xlink:href="#I"/><use transform="matrix(0.06490600448933778,0,0,0.06490600448933778,50.4968714927048,0)" xlink:href="#J"/></g><path d="M85-194c31 0 48 13 60 33l-1-100h32l1 261h-30c-2-10 0-23-3-31C134-8 116 4 85 4 32 4 16-35 15-94c0-66 23-100 70-100zm9 24c-40 0-46 34-46 75 0 40 6 74 45 74 42 0 51-32 51-76 0-42-9-74-50-73" id="K"/><path d="M100-194c62-1 85 37 85 99 1 63-27 99-86 99S16-35 15-95c0-66 28-99 85-99zM99-20c44 1 53-31 53-75 0-43-8-75-51-75s-53 32-53 75 10 74 51 75" id="L"/><path d="M210-169c-67 3-38 105-44 169h-31v-121c0-29-5-50-35-48C34-165 62-65 56 0H25l-1-190h30c1 10-1 24 2 32 10-44 99-50 107 0 11-21 27-35 58-36 85-2 47 119 55 194h-31v-121c0-29-5-49-35-48" id="M"/><path d="M141-36C126-15 110 5 73 4 37 3 15-17 15-53c-1-64 63-63 125-63 3-35-9-54-41-54-24 1-41 7-42 31l-33-3c5-37 33-52 76-52 45 0 72 20 72 64v82c-1 20 7 32 28 27v20c-31 9-61-2-59-35zM48-53c0 20 12 33 32 33 41-3 63-29 60-74-43 2-92-5-92 41" id="N"/><path d="M24-231v-30h32v30H24zM24 0v-190h32V0H24" id="O"/><path d="M117-194c89-4 53 116 60 194h-32v-121c0-31-8-49-39-48C34-167 62-67 57 0H25l-1-190h30c1 10-1 24 2 32 11-22 29-35 61-36" id="P"/><g id="d"><use transform="matrix(0.06490600448933778,0,0,0.06490600448933778,0,0)" xlink:href="#K"/><use transform="matrix(0.06490600448933778,0,0,0.06490600448933778,12.981200897867556,0)" xlink:href="#L"/><use transform="matrix(0.06490600448933778,0,0,0.06490600448933778,25.96240179573511,0)" xlink:href="#M"/><use transform="matrix(0.06490600448933778,0,0,0.06490600448933778,45.36929713804711,0)" xlink:href="#N"/><use transform="matrix(0.06490600448933778,0,0,0.06490600448933778,58.35049803591467,0)" xlink:href="#O"/><use transform="matrix(0.06490600448933778,0,0,0.06490600448933778,63.47807239057235,0)" xlink:href="#P"/></g><path d="M114-163C36-179 61-72 57 0H25l-1-190h30c1 12-1 29 2 39 6-27 23-49 58-41v29" id="Q"/><path d="M108 0H70L1-190h34L89-25l56-165h34" id="R"/><path d="M100-194c63 0 86 42 84 106H49c0 40 14 67 53 68 26 1 43-12 49-29l28 8c-11 28-37 45-77 45C44 4 14-33 15-96c1-61 26-98 85-98zm52 81c6-60-76-77-97-28-3 7-6 17-6 28h103" id="S"/><g id="e"><use transform="matrix(0.06490600448933778,0,0,0.06490600448933778,0,0)" xlink:href="#K"/><use transform="matrix(0.06490600448933778,0,0,0.06490600448933778,12.981200897867556,0)" xlink:href="#Q"/><use transform="matrix(0.06490600448933778,0,0,0.06490600448933778,20.70501543209875,0)" xlink:href="#O"/><use transform="matrix(0.06490600448933778,0,0,0.06490600448933778,25.832589786756436,0)" xlink:href="#R"/><use transform="matrix(0.06490600448933778,0,0,0.06490600448933778,37.51567059483724,0)" xlink:href="#S"/><use transform="matrix(0.06490600448933778,0,0,0.06490600448933778,50.4968714927048,0)" xlink:href="#P"/></g><path d="M135-143c-3-34-86-38-87 0 15 53 115 12 119 90S17 21 10-45l28-5c4 36 97 45 98 0-10-56-113-15-118-90-4-57 82-63 122-42 12 7 21 19 24 35" id="T"/><path d="M115-194c55 1 70 41 70 98S169 2 115 4C84 4 66-9 55-30l1 105H24l-1-265h31l2 30c10-21 28-34 59-34zm-8 174c40 0 45-34 45-75s-6-73-45-74c-42 0-51 32-51 76 0 43 10 73 51 73" id="U"/><path d="M24 0v-261h32V0H24" id="V"/><path d="M101-234c-31-9-42 10-38 44h38v23H63V0H32v-167H5v-23h27c-7-52 17-82 69-68v24" id="W"/><g id="f"><use transform="matrix(0.06490600448933778,0,0,0.06490600448933778,0,0)" xlink:href="#T"/><use transform="matrix(0.06490600448933778,0,0,0.06490600448933778,11.6830808080808,0)" xlink:href="#O"/><use transform="matrix(0.06490600448933778,0,0,0.06490600448933778,16.810655162738485,0)" xlink:href="#M"/><use transform="matrix(0.06490600448933778,0,0,0.06490600448933778,36.21755050505048,0)" xlink:href="#U"/><use transform="matrix(0.06490600448933778,0,0,0.06490600448933778,49.198751402918035,0)" xlink:href="#V"/><use transform="matrix(0.06490600448933778,0,0,0.06490600448933778,54.32632575757572,0)" xlink:href="#O"/><use transform="matrix(0.06490600448933778,0,0,0.06490600448933778,59.4539001122334,0)" xlink:href="#W"/><use transform="matrix(0.06490600448933778,0,0,0.06490600448933778,65.94450056116717,0)" xlink:href="#O"/><use transform="matrix(0.06490600448933778,0,0,0.06490600448933778,71.07207491582486,0)" xlink:href="#S"/><use transform="matrix(0.06490600448933778,0,0,0.06490600448933778,84.05327581369241,0)" xlink:href="#K"/></g><path d="M59-47c-2 24 18 29 38 22v24C64 9 27 4 27-40v-127H5v-23h24l9-43h21v43h35v23H59v120" id="X"/><g id="g"><use transform="matrix(0.06490600448933778,0,0,0.06490600448933778,0,0)" xlink:href="#X"/><use transform="matrix(0.06490600448933778,0,0,0.06490600448933778,6.490600448933778,0)" xlink:href="#S"/><use transform="matrix(0.06490600448933778,0,0,0.06490600448933778,19.471801346801335,0)" xlink:href="#M"/><use transform="matrix(0.06490600448933778,0,0,0.06490600448933778,38.87869668911333,0)" xlink:href="#U"/><use transform="matrix(0.06490600448933778,0,0,0.06490600448933778,51.85989758698089,0)" xlink:href="#V"/><use transform="matrix(0.06490600448933778,0,0,0.06490600448933778,56.987471941638574,0)" xlink:href="#N"/><use transform="matrix(0.06490600448933778,0,0,0.06490600448933778,69.96867283950613,0)" xlink:href="#X"/><use transform="matrix(0.06490600448933778,0,0,0.06490600448933778,76.4592732884399,0)" xlink:href="#S"/></g><path d="M67-125c0 53 21 87 73 88 37 1 54-22 65-47l45 17C233-25 199 4 140 4 58 4 20-42 15-125 8-235 124-281 211-232c18 10 29 29 36 50l-46 12c-8-25-30-41-62-41-52 0-71 34-72 86" id="Y"/><path d="M110-194c64 0 96 36 96 99 0 64-35 99-97 99-61 0-95-36-95-99 0-62 34-99 96-99zm-1 164c35 0 45-28 45-65 0-40-10-65-43-65-34 0-45 26-45 65 0 36 10 65 43 65" id="Z"/><path d="M220-157c-53 9-28 100-34 157h-49v-107c1-27-5-49-29-50C55-147 81-57 75 0H25l-1-190h47c2 12-1 28 3 38 10-53 101-56 108 0 13-22 24-43 59-42 82 1 51 116 57 194h-49v-107c-1-25-5-48-29-50" id="aa"/><path d="M133-34C117-15 103 5 69 4 32 3 11-16 11-54c-1-60 55-63 116-61 1-26-3-47-28-47-18 1-26 9-28 27l-52-2c7-38 36-58 82-57s74 22 75 68l1 82c-1 14 12 18 25 15v27c-30 8-71 5-69-32zm-48 3c29 0 43-24 42-57-32 0-66-3-65 30 0 17 8 27 23 27" id="ab"/><path d="M135-194c87-1 58 113 63 194h-50c-7-57 23-157-34-157-59 0-34 97-39 157H25l-1-190h47c2 12-1 28 3 38 12-26 28-41 61-42" id="ac"/><path d="M88-194c31-1 46 15 58 34l-1-101h50l1 261h-48c-2-10 0-23-3-31C134-8 116 4 84 4 32 4 16-41 15-95c0-56 19-97 73-99zm17 164c33 0 40-30 41-66 1-37-9-64-41-64s-38 30-39 65c0 43 13 65 39 65" id="ad"/><path d="M76-208v77h127v40H76V0H24v-248h183v40H76" id="ae"/><path d="M190-63c-7 42-38 67-86 67-59 0-84-38-90-98-12-110 154-137 174-36l-49 2c-2-19-15-32-35-32-30 0-35 28-38 64-6 74 65 87 74 30" id="af"/><path d="M185-48c-13 30-37 53-82 52C43 2 14-33 14-96s30-98 90-98c62 0 83 45 84 108H66c0 31 8 55 39 56 18 0 30-7 34-22zm-45-69c5-46-57-63-70-21-2 6-4 13-4 21h74" id="ag"/><g id="h"><use transform="matrix(0.05,0,0,0.05,0,0)" xlink:href="#Y"/><use transform="matrix(0.05,0,0,0.05,12.950000000000001,0)" xlink:href="#Z"/><use transform="matrix(0.05,0,0,0.05,23.900000000000002,0)" xlink:href="#aa"/><use transform="matrix(0.05,0,0,0.05,39.900000000000006,0)" xlink:href="#aa"/><use transform="matrix(0.05,0,0,0.05,55.900000000000006,0)" xlink:href="#ab"/><use transform="matrix(0.05,0,0,0.05,65.9,0)" xlink:href="#ac"/><use transform="matrix(0.05,0,0,0.05,76.85000000000001,0)" xlink:href="#ad"/><use transform="matrix(0.05,0,0,0.05,87.80000000000001,0)" xlink:href="#ae"/><use transform="matrix(0.05,0,0,0.05,98.75000000000001,0)" xlink:href="#ab"/><use transform="matrix(0.05,0,0,0.05,108.75,0)" xlink:href="#af"/><use transform="matrix(0.05,0,0,0.05,118.75,0)" xlink:href="#ab"/><use transform="matrix(0.05,0,0,0.05,128.75,0)" xlink:href="#ad"/><use transform="matrix(0.05,0,0,0.05,139.7,0)" xlink:href="#ag"/></g><path d="M185-189c-5-48-123-54-124 2 14 75 158 14 163 119 3 78-121 87-175 55-17-10-28-26-33-46l33-7c5 56 141 63 141-1 0-78-155-14-162-118-5-82 145-84 179-34 5 7 8 16 11 25" id="ah"/><path d="M106-169C34-169 62-67 57 0H25v-261h32l-1 103c12-21 28-36 61-36 89 0 53 116 60 194h-32v-121c2-32-8-49-39-48" id="ai"/><path d="M177-190C167-65 218 103 67 71c-23-6-38-20-44-43l32-5c15 47 100 32 89-28v-30C133-14 115 1 83 1 29 1 15-40 15-95c0-56 16-97 71-98 29-1 48 16 59 35 1-10 0-23 2-32h30zM94-22c36 0 50-32 50-73 0-42-14-75-50-75-39 0-46 34-46 75s6 73 46 73" id="aj"/><path d="M87 75C49 33 22-17 22-94c0-76 28-126 65-167h31c-38 41-64 92-64 168S80 34 118 75H87" id="ak"/><path d="M212-179c-10-28-35-45-73-45-59 0-87 40-87 99 0 60 29 101 89 101 43 0 62-24 78-52l27 14C228-24 195 4 139 4 59 4 22-46 18-125c-6-104 99-153 187-111 19 9 31 26 39 46" id="al"/><g id="i"><use transform="matrix(0.05,0,0,0.05,0,0)" xlink:href="#K"/><use transform="matrix(0.05,0,0,0.05,10,0)" xlink:href="#L"/><use transform="matrix(0.05,0,0,0.05,20,0)" xlink:href="#ah"/><use transform="matrix(0.05,0,0,0.05,32,0)" xlink:href="#L"/><use transform="matrix(0.05,0,0,0.05,42,0)" xlink:href="#M"/><use transform="matrix(0.05,0,0,0.05,56.95,0)" xlink:href="#S"/><use transform="matrix(0.05,0,0,0.05,66.95,0)" xlink:href="#X"/><use transform="matrix(0.05,0,0,0.05,71.95,0)" xlink:href="#ai"/><use transform="matrix(0.05,0,0,0.05,81.95,0)" xlink:href="#O"/><use transform="matrix(0.05,0,0,0.05,85.9,0)" xlink:href="#P"/><use transform="matrix(0.05,0,0,0.05,95.9,0)" xlink:href="#aj"/><use transform="matrix(0.05,0,0,0.05,105.9,0)" xlink:href="#ak"/><use transform="matrix(0.05,0,0,0.05,111.85000000000001,0)" xlink:href="#al"/><use transform="matrix(0.05,0,0,0.05,124.80000000000001,0)" xlink:href="#L"/><use transform="matrix(0.05,0,0,0.05,134.8,0)" xlink:href="#M"/><use transform="matrix(0.05,0,0,0.05,149.75,0)" xlink:href="#M"/><use transform="matrix(0.05,0,0,0.05,164.7,0)" xlink:href="#N"/><use transform="matrix(0.05,0,0,0.05,174.7,0)" xlink:href="#P"/><use transform="matrix(0.05,0,0,0.05,184.7,0)" xlink:href="#K"/></g><path d="M96-169c-40 0-48 33-48 73s9 75 48 75c24 0 41-14 43-38l32 2c-6 37-31 61-74 61-59 0-76-41-82-99-10-93 101-131 147-64 4 7 5 14 7 22l-32 3c-4-21-16-35-41-35" id="am"/><path d="M33-261c38 41 65 92 65 168S71 34 33 75H2C39 34 66-17 66-93S39-220 2-261h31" id="an"/><g id="j"><use transform="matrix(0.05,0,0,0.05,0,0)" xlink:href="#am"/><use transform="matrix(0.05,0,0,0.05,9,0)" xlink:href="#L"/><use transform="matrix(0.05,0,0,0.05,19,0)" xlink:href="#M"/><use transform="matrix(0.05,0,0,0.05,33.95,0)" xlink:href="#M"/><use transform="matrix(0.05,0,0,0.05,48.900000000000006,0)" xlink:href="#N"/><use transform="matrix(0.05,0,0,0.05,58.900000000000006,0)" xlink:href="#P"/><use transform="matrix(0.05,0,0,0.05,68.9,0)" xlink:href="#K"/><use transform="matrix(0.05,0,0,0.05,78.9,0)" xlink:href="#an"/></g><path d="M140-251c80 0 125 45 125 126 0 70-33 111-92 124 6 28 34 38 68 31l-1 36C177 83 129 55 120 2 51-6 15-50 15-125c0-81 44-126 125-126zm-1 214c52 0 73-35 73-88 0-50-21-86-72-86-52 0-73 35-73 86s22 88 72 88" id="ao"/><path d="M85 4C-2 5 27-109 22-190h50c7 57-23 150 33 157 60-5 35-97 40-157h50l1 190h-47c-2-12 1-28-3-38-12 25-28 42-61 42" id="ap"/><path d="M135-150c-39-12-60 13-60 57V0H25l-1-190h47c2 13-1 29 3 40 6-28 27-53 61-41v41" id="aq"/><path d="M123 10C108 53 80 86 19 72V37c35 8 53-11 59-39L3-190h52l48 148c12-52 28-100 44-148h51" id="ar"/><g id="k"><use transform="matrix(0.05,0,0,0.05,0,0)" xlink:href="#ao"/><use transform="matrix(0.05,0,0,0.05,14,0)" xlink:href="#ap"/><use transform="matrix(0.05,0,0,0.05,24.950000000000003,0)" xlink:href="#ag"/><use transform="matrix(0.05,0,0,0.05,34.95,0)" xlink:href="#aq"/><use transform="matrix(0.05,0,0,0.05,41.95,0)" xlink:href="#ar"/><use transform="matrix(0.05,0,0,0.05,51.95,0)" xlink:href="#ae"/><use transform="matrix(0.05,0,0,0.05,62.900000000000006,0)" xlink:href="#ab"/><use transform="matrix(0.05,0,0,0.05,72.9,0)" xlink:href="#af"/><use transform="matrix(0.05,0,0,0.05,82.9,0)" xlink:href="#ab"/><use transform="matrix(0.05,0,0,0.05,92.9,0)" xlink:href="#ad"/><use transform="matrix(0.05,0,0,0.05,103.85000000000001,0)" xlink:href="#ag"/></g><path d="M140-251c81 0 123 46 123 126C263-53 228-8 163 1c7 30 30 48 69 40v23c-55 16-95-15-103-61C56-3 17-48 17-125c0-80 42-126 123-126zm0 227c63 0 89-41 89-101s-29-99-89-99c-61 0-89 39-89 99S79-25 140-24" id="as"/><path d="M84 4C-5 8 30-112 23-190h32v120c0 31 7 50 39 49 72-2 45-101 50-169h31l1 190h-30c-1-10 1-25-2-33-11 22-28 36-60 37" id="at"/><path d="M179-190L93 31C79 59 56 82 12 73V49c39 6 53-20 64-50L1-190h34L92-34l54-156h33" id="au"/><g id="l"><use transform="matrix(0.05,0,0,0.05,0,0)" xlink:href="#K"/><use transform="matrix(0.05,0,0,0.05,10,0)" xlink:href="#L"/><use transform="matrix(0.05,0,0,0.05,20,0)" xlink:href="#ah"/><use transform="matrix(0.05,0,0,0.05,32,0)" xlink:href="#L"/><use transform="matrix(0.05,0,0,0.05,42,0)" xlink:href="#M"/><use transform="matrix(0.05,0,0,0.05,56.95,0)" xlink:href="#S"/><use transform="matrix(0.05,0,0,0.05,66.95,0)" xlink:href="#X"/><use transform="matrix(0.05,0,0,0.05,71.95,0)" xlink:href="#ai"/><use transform="matrix(0.05,0,0,0.05,81.95,0)" xlink:href="#O"/><use transform="matrix(0.05,0,0,0.05,85.9,0)" xlink:href="#P"/><use transform="matrix(0.05,0,0,0.05,95.9,0)" xlink:href="#aj"/><use transform="matrix(0.05,0,0,0.05,105.9,0)" xlink:href="#ak"/><use transform="matrix(0.05,0,0,0.05,111.85000000000001,0)" xlink:href="#as"/><use transform="matrix(0.05,0,0,0.05,125.85000000000001,0)" xlink:href="#at"/><use transform="matrix(0.05,0,0,0.05,135.85000000000002,0)" xlink:href="#S"/><use transform="matrix(0.05,0,0,0.05,145.85000000000002,0)" xlink:href="#Q"/><use transform="matrix(0.05,0,0,0.05,151.8,0)" xlink:href="#au"/></g><path d="M145-31C134-9 116 4 85 4 32 4 16-35 15-94c0-59 17-99 70-100 32-1 48 14 60 33 0-11-1-24 2-32h30l-1 268h-32zM93-21c41 0 51-33 51-76s-8-73-50-73c-40 0-46 35-46 75s5 74 45 74" id="av"/><g id="m"><use transform="matrix(0.05,0,0,0.05,0,0)" xlink:href="#av"/><use transform="matrix(0.05,0,0,0.05,10,0)" xlink:href="#at"/><use transform="matrix(0.05,0,0,0.05,20,0)" xlink:href="#S"/><use transform="matrix(0.05,0,0,0.05,30,0)" xlink:href="#Q"/><use transform="matrix(0.05,0,0,0.05,35.95,0)" xlink:href="#au"/><use transform="matrix(0.05,0,0,0.05,44.95,0)" xlink:href="#an"/></g><path d="M24 0v-248h195v40H76v63h132v40H76v65h150V0H24" id="aw"/><path d="M115-3C79 11 28 4 28-45v-112H4v-33h27l15-45h31v45h36v33H77v99c-1 23 16 31 38 25v30" id="ax"/><path d="M25-224v-37h50v37H25zM25 0v-190h50V0H25" id="ay"/><path d="M23 0v-37h61v-169l-59 37v-38l62-41h46v211h57V0H23" id="az"/><g id="n"><use transform="matrix(0.05,0,0,0.05,0,0)" xlink:href="#aw"/><use transform="matrix(0.05,0,0,0.05,12,0)" xlink:href="#ac"/><use transform="matrix(0.05,0,0,0.05,22.950000000000003,0)" xlink:href="#ax"/><use transform="matrix(0.05,0,0,0.05,28.900000000000002,0)" xlink:href="#ay"/><use transform="matrix(0.05,0,0,0.05,33.900000000000006,0)" xlink:href="#ax"/><use transform="matrix(0.05,0,0,0.05,39.85000000000001,0)" xlink:href="#ar"/><use transform="matrix(0.05,0,0,0.05,49.85000000000001,0)" xlink:href="#az"/></g><path d="M182-182c0 78-84 86-111 141h115V0H12c-6-101 99-100 120-180 1-22-12-31-33-32-23 0-32 14-35 34l-49-3c5-45 32-70 84-70 51 0 83 22 83 69" id="aA"/><g id="o"><use transform="matrix(0.05,0,0,0.05,0,0)" xlink:href="#aw"/><use transform="matrix(0.05,0,0,0.05,12,0)" xlink:href="#ac"/><use transform="matrix(0.05,0,0,0.05,22.950000000000003,0)" xlink:href="#ax"/><use transform="matrix(0.05,0,0,0.05,28.900000000000002,0)" xlink:href="#ay"/><use transform="matrix(0.05,0,0,0.05,33.900000000000006,0)" xlink:href="#ax"/><use transform="matrix(0.05,0,0,0.05,39.85000000000001,0)" xlink:href="#ar"/><use transform="matrix(0.05,0,0,0.05,49.85000000000001,0)" xlink:href="#aA"/></g><path d="M199 0l-22-63H83L61 0H9l90-248h61L250 0h-51zm-33-102l-36-108c-10 38-24 72-36 108h72" id="aB"/><path d="M195-6C206 82 75 100 31 46c-4-6-6-13-8-21l49-6c3 16 16 24 34 25 40 0 42-37 40-79-11 22-30 35-61 35-53 0-70-43-70-97 0-56 18-96 73-97 30 0 46 14 59 34l2-30h47zm-90-29c32 0 41-27 41-63 0-35-9-62-40-62-32 0-39 29-40 63 0 36 9 62 39 62" id="aC"/><path d="M240-174c0 40-23 61-54 70L253 0h-59l-57-94H76V0H24v-248c93 4 217-23 216 74zM76-134c48-2 112 12 112-38 0-48-66-32-112-35v73" id="aD"/><g id="p"><use transform="matrix(0.05,0,0,0.05,0,0)" xlink:href="#aB"/><use transform="matrix(0.05,0,0,0.05,12.950000000000001,0)" xlink:href="#aC"/><use transform="matrix(0.05,0,0,0.05,23.900000000000002,0)" xlink:href="#aC"/><use transform="matrix(0.05,0,0,0.05,34.85,0)" xlink:href="#aq"/><use transform="matrix(0.05,0,0,0.05,41.85,0)" xlink:href="#ag"/><use transform="matrix(0.05,0,0,0.05,51.85,0)" xlink:href="#aC"/><use transform="matrix(0.05,0,0,0.05,62.800000000000004,0)" xlink:href="#ab"/><use transform="matrix(0.05,0,0,0.05,72.80000000000001,0)" xlink:href="#ax"/><use transform="matrix(0.05,0,0,0.05,78.75000000000001,0)" xlink:href="#ag"/><use transform="matrix(0.05,0,0,0.05,88.75000000000001,0)" xlink:href="#aD"/><use transform="matrix(0.05,0,0,0.05,101.70000000000002,0)" xlink:href="#Z"/><use transform="matrix(0.05,0,0,0.05,112.65000000000003,0)" xlink:href="#Z"/><use transform="matrix(0.05,0,0,0.05,123.60000000000002,0)" xlink:href="#ax"/></g><path d="M205 0l-28-72H64L36 0H1l101-248h38L239 0h-34zm-38-99l-47-123c-12 45-31 82-46 123h93" id="aE"/><g id="q"><use transform="matrix(0.05,0,0,0.05,0,0)" xlink:href="#aE"/><use transform="matrix(0.05,0,0,0.05,12,0)" xlink:href="#U"/><use transform="matrix(0.05,0,0,0.05,22,0)" xlink:href="#U"/><use transform="matrix(0.05,0,0,0.05,32,0)" xlink:href="#V"/><use transform="matrix(0.05,0,0,0.05,35.95,0)" xlink:href="#O"/><use transform="matrix(0.05,0,0,0.05,39.900000000000006,0)" xlink:href="#am"/><use transform="matrix(0.05,0,0,0.05,48.900000000000006,0)" xlink:href="#N"/><use transform="matrix(0.05,0,0,0.05,58.900000000000006,0)" xlink:href="#O"/><use transform="matrix(0.05,0,0,0.05,62.85,0)" xlink:href="#X"/><use transform="matrix(0.05,0,0,0.05,67.85000000000001,0)" xlink:href="#L"/><use transform="matrix(0.05,0,0,0.05,77.85000000000001,0)" xlink:href="#P"/></g><path d="M121-226c-27-7-43 5-38 36h38v33H83V0H34v-157H6v-33h28c-9-59 32-81 87-68v32" id="aF"/><path d="M137-138c1-29-70-34-71-4 15 46 118 7 119 86 1 83-164 76-172 9l43-7c4 19 20 25 44 25 33 8 57-30 24-41C81-84 22-81 20-136c-2-80 154-74 161-7" id="aG"/><path d="M169-182c-1-43-94-46-97-3 18 66 151 10 154 114 3 95-165 93-204 36-6-8-10-19-12-30l50-8c3 46 112 56 116 5-17-69-150-10-154-114-4-87 153-88 188-35 5 8 8 18 10 28" id="aH"/><path d="M128 0H69L1-190h53L99-40l48-150h52" id="aI"/><g id="r"><use transform="matrix(0.05,0,0,0.05,0,0)" xlink:href="#y"/><use transform="matrix(0.05,0,0,0.05,5,0)" xlink:href="#ac"/><use transform="matrix(0.05,0,0,0.05,15.950000000000001,0)" xlink:href="#aF"/><use transform="matrix(0.05,0,0,0.05,21.900000000000002,0)" xlink:href="#aq"/><use transform="matrix(0.05,0,0,0.05,28.900000000000002,0)" xlink:href="#ab"/><use transform="matrix(0.05,0,0,0.05,38.900000000000006,0)" xlink:href="#aG"/><use transform="matrix(0.05,0,0,0.05,48.900000000000006,0)" xlink:href="#ax"/><use transform="matrix(0.05,0,0,0.05,54.85,0)" xlink:href="#aq"/><use transform="matrix(0.05,0,0,0.05,61.85,0)" xlink:href="#ap"/><use transform="matrix(0.05,0,0,0.05,72.80000000000001,0)" xlink:href="#af"/><use transform="matrix(0.05,0,0,0.05,82.80000000000001,0)" xlink:href="#ax"/><use transform="matrix(0.05,0,0,0.05,88.75000000000001,0)" xlink:href="#ap"/><use transform="matrix(0.05,0,0,0.05,99.70000000000002,0)" xlink:href="#aq"/><use transform="matrix(0.05,0,0,0.05,106.7,0)" xlink:href="#ag"/><use transform="matrix(0.05,0,0,0.05,116.7,0)" xlink:href="#aH"/><use transform="matrix(0.05,0,0,0.05,128.70000000000002,0)" xlink:href="#ag"/><use transform="matrix(0.05,0,0,0.05,138.70000000000002,0)" xlink:href="#aq"/><use transform="matrix(0.05,0,0,0.05,145.70000000000002,0)" xlink:href="#aI"/><use transform="matrix(0.05,0,0,0.05,155.70000000000002,0)" xlink:href="#ay"/><use transform="matrix(0.05,0,0,0.05,160.70000000000002,0)" xlink:href="#af"/><use transform="matrix(0.05,0,0,0.05,170.70000000000002,0)" xlink:href="#ag"/></g><path d="M30-248c118-7 216 8 213 122C240-48 200 0 122 0H30v-248zM63-27c89 8 146-16 146-99s-60-101-146-95v194" id="aJ"/><g id="s"><use transform="matrix(0.05,0,0,0.05,0,0)" xlink:href="#aJ"/><use transform="matrix(0.05,0,0,0.05,12.950000000000001,0)" xlink:href="#L"/><use transform="matrix(0.05,0,0,0.05,22.950000000000003,0)" xlink:href="#M"/><use transform="matrix(0.05,0,0,0.05,37.900000000000006,0)" xlink:href="#N"/><use transform="matrix(0.05,0,0,0.05,47.900000000000006,0)" xlink:href="#O"/><use transform="matrix(0.05,0,0,0.05,51.85,0)" xlink:href="#P"/></g><path d="M33 0v-248h34V0H33" id="aK"/><g id="t"><use transform="matrix(0.05,0,0,0.05,0,0)" xlink:href="#aK"/><use transform="matrix(0.05,0,0,0.05,5,0)" xlink:href="#P"/><use transform="matrix(0.05,0,0,0.05,15,0)" xlink:href="#W"/><use transform="matrix(0.05,0,0,0.05,20,0)" xlink:href="#Q"/><use transform="matrix(0.05,0,0,0.05,25.950000000000003,0)" xlink:href="#N"/><use transform="matrix(0.05,0,0,0.05,35.95,0)" xlink:href="#T"/><use transform="matrix(0.05,0,0,0.05,44.95,0)" xlink:href="#X"/><use transform="matrix(0.05,0,0,0.05,49.95,0)" xlink:href="#Q"/><use transform="matrix(0.05,0,0,0.05,55.900000000000006,0)" xlink:href="#at"/><use transform="matrix(0.05,0,0,0.05,65.9,0)" xlink:href="#am"/><use transform="matrix(0.05,0,0,0.05,74.9,0)" xlink:href="#X"/><use transform="matrix(0.05,0,0,0.05,79.9,0)" xlink:href="#at"/><use transform="matrix(0.05,0,0,0.05,89.9,0)" xlink:href="#Q"/><use transform="matrix(0.05,0,0,0.05,95.85000000000001,0)" xlink:href="#S"/></g><path d="M24-248c120-7 223 5 221 122C244-46 201 0 124 0H24v-248zM76-40c74 7 117-18 117-86 0-67-45-88-117-82v168" id="aL"/><path d="M135-194c52 0 70 43 70 98 0 56-19 99-73 100-30 1-46-15-58-35L72 0H24l1-261h50v104c11-23 29-37 60-37zM114-30c31 0 40-27 40-66 0-37-7-63-39-63s-41 28-41 65c0 36 8 64 40 64" id="aM"/><g id="u"><use transform="matrix(0.05,0,0,0.05,0,0)" xlink:href="#aL"/><use transform="matrix(0.05,0,0,0.05,12.950000000000001,0)" xlink:href="#ab"/><use transform="matrix(0.05,0,0,0.05,22.950000000000003,0)" xlink:href="#ax"/><use transform="matrix(0.05,0,0,0.05,28.900000000000002,0)" xlink:href="#ab"/><use transform="matrix(0.05,0,0,0.05,38.900000000000006,0)" xlink:href="#aM"/><use transform="matrix(0.05,0,0,0.05,49.85000000000001,0)" xlink:href="#ab"/><use transform="matrix(0.05,0,0,0.05,59.85,0)" xlink:href="#aG"/><use transform="matrix(0.05,0,0,0.05,69.85000000000001,0)" xlink:href="#ag"/></g><g id="v"><use transform="matrix(0.05,0,0,0.05,0,0)" xlink:href="#x"/><use transform="matrix(0.05,0,0,0.05,12.950000000000001,0)" xlink:href="#aG"/><use transform="matrix(0.05,0,0,0.05,22.950000000000003,0)" xlink:href="#ag"/><use transform="matrix(0.05,0,0,0.05,32.95,0)" xlink:href="#aq"/></g></defs></g></svg>