<svg xmlns="http://www.w3.org/2000/svg" xmlns:xlink="http://www.w3.org/1999/xlink" xmlns:lucid="lucid" width="880" height="482.84"><g transform="translate(-100 -17.156140170154686)" lucid:page-tab-id="0_0"><path d="M649 63h311v417H120V37.16h504zm-529 0h529" stroke="#000" fill="#fff"/><use xlink:href="#a" transform="matrix(1,0,0,1,128,37.156140170154686) translate(0 16.6)"/><path d="M160 78.03h200v55.88H160z" stroke="#000" fill="#c1e4f7" fill-opacity=".44"/><use xlink:href="#b" transform="matrix(1,0,0,1,168,86.02695080057225) translate(12.150000000000006 23.6)"/><path d="M160 156.95h280v55.9H160z" stroke="#000" fill="#c1e4f7" fill-opacity=".44"/><use xlink:href="#c" transform="matrix(1,0,0,1,168,164.95438449119524) translate(5.375000000000014 23.6)"/><path d="M160 235.88h200v55.88H160z" stroke="#000" fill="#c1e4f7" fill-opacity=".44"/><use xlink:href="#d" transform="matrix(1,0,0,1,168,243.88181818181823) translate(6.625 23.6)"/><path d="M762 104h178v345.62H460V78.02h288zm-302 0h302" stroke="#000" fill="#fff"/><use xlink:href="#e" transform="matrix(1,0,0,1,468,78.02695080057225) translate(0 16.6)"/><path d="M480 120h200v55.88H480z" stroke="#000" fill="#c1e4f7" fill-opacity=".44"/><use xlink:href="#f" transform="matrix(1,0,0,1,488,128) translate(67.075 23.6)"/><path d="M480 200h200v55.88H480z" stroke="#000" fill="#c1e4f7" fill-opacity=".44"/><use xlink:href="#g" transform="matrix(1,0,0,1,488,208) translate(13.674999999999997 23.6)"/><path d="M480 280.47h200v55.88H480z" stroke="#000" fill="#c1e4f7" fill-opacity=".44"/><use xlink:href="#h" transform="matrix(1,0,0,1,488,288.4675379647807) translate(37.12499999999999 23.6)"/><path d="M480 360.94h200v55.88H480z" stroke="#000" fill="#c1e4f7" fill-opacity=".44"/><use xlink:href="#i" transform="matrix(1,0,0,1,488,368.93507592956144) translate(27.174999999999997 23.6)"/><path d="M700 280.47h200v55.88H700z" stroke="#000" fill="#c1e4f7" fill-opacity=".44"/><use xlink:href="#j" transform="matrix(1,0,0,1,708,288.4675379647807) translate(24.14999999999999 23.6)"/><path d="M700 120h200v55.88H700z" stroke="#000" fill="#c7e8ac" fill-opacity=".62"/><use xlink:href="#k" transform="matrix(1,0,0,1,708,128) translate(37.099999999999994 23.6)"/><path d="M700 200h200v55.88H700z" stroke="#000" fill="#c1e4f7" fill-opacity=".44"/><use xlink:href="#l" transform="matrix(1,0,0,1,708,208) translate(55.55 23.6)"/><path d="M700 360.94h200v55.88H700z" stroke="#000" fill="#c1e4f7" fill-opacity=".44"/><use xlink:href="#m" transform="matrix(1,0,0,1,708,368.93507592956144) translate(41.575 23.6)"/><defs><path d="M141-36C126-15 110 5 73 4 37 3 15-17 15-53c-1-64 63-63 125-63 3-35-9-54-41-54-24 1-41 7-42 31l-33-3c5-37 33-52 76-52 45 0 72 20 72 64v82c-1 20 7 32 28 27v20c-31 9-61-2-59-35zM48-53c0 20 12 33 32 33 41-3 63-29 60-74-43 2-92-5-92 41" id="n"/><path d="M114-163C36-179 61-72 57 0H25l-1-190h30c1 12-1 29 2 39 6-27 23-49 58-41v29" id="o"/><path d="M59-47c-2 24 18 29 38 22v24C64 9 27 4 27-40v-127H5v-23h24l9-43h21v43h35v23H59v120" id="p"/><path d="M24-231v-30h32v30H24zM24 0v-190h32V0H24" id="q"/><path d="M96-169c-40 0-48 33-48 73s9 75 48 75c24 0 41-14 43-38l32 2c-6 37-31 61-74 61-59 0-76-41-82-99-10-93 101-131 147-64 4 7 5 14 7 22l-32 3c-4-21-16-35-41-35" id="r"/><path d="M24 0v-261h32V0H24" id="s"/><path d="M100-194c63 0 86 42 84 106H49c0 40 14 67 53 68 26 1 43-12 49-29l28 8c-11 28-37 45-77 45C44 4 14-33 15-96c1-61 26-98 85-98zm52 81c6-60-76-77-97-28-3 7-6 17-6 28h103" id="t"/><g id="a"><use transform="matrix(0.05,0,0,0.05,0,0)" xlink:href="#n"/><use transform="matrix(0.05,0,0,0.05,10,0)" xlink:href="#o"/><use transform="matrix(0.05,0,0,0.05,15.949999999999998,0)" xlink:href="#p"/><use transform="matrix(0.05,0,0,0.05,20.95,0)" xlink:href="#q"/><use transform="matrix(0.05,0,0,0.05,24.9,0)" xlink:href="#r"/><use transform="matrix(0.05,0,0,0.05,33.9,0)" xlink:href="#s"/><use transform="matrix(0.05,0,0,0.05,37.85,0)" xlink:href="#t"/></g><path d="M205 0l-28-72H64L36 0H1l101-248h38L239 0h-34zm-38-99l-47-123c-12 45-31 82-46 123h93" id="u"/><path d="M212-179c-10-28-35-45-73-45-59 0-87 40-87 99 0 60 29 101 89 101 43 0 62-24 78-52l27 14C228-24 195 4 139 4 59 4 22-46 18-125c-6-104 99-153 187-111 19 9 31 26 39 46" id="v"/><path d="M84 4C-5 8 30-112 23-190h32v120c0 31 7 50 39 49 72-2 45-101 50-169h31l1 190h-30c-1-10 1-25-2-33-11 22-28 36-60 37" id="w"/><path d="M85-194c31 0 48 13 60 33l-1-100h32l1 261h-30c-2-10 0-23-3-31C134-8 116 4 85 4 32 4 16-35 15-94c0-66 23-100 70-100zm9 24c-40 0-46 34-46 75 0 40 6 74 45 74 42 0 51-32 51-76 0-42-9-74-50-73" id="x"/><path d="M30 0v-248h187v28H63v79h144v27H63v87h162V0H30" id="y"/><path d="M117-194c89-4 53 116 60 194h-32v-121c0-31-8-49-39-48C34-167 62-67 57 0H25l-1-190h30c1 10-1 24 2 32 11-22 29-35 61-36" id="z"/><path d="M115-194c55 1 70 41 70 98S169 2 115 4C84 4 66-9 55-30l1 105H24l-1-265h31l2 30c10-21 28-34 59-34zm-8 174c40 0 45-34 45-75s-6-73-45-74c-42 0-51 32-51 76 0 43 10 73 51 73" id="A"/><path d="M100-194c62-1 85 37 85 99 1 63-27 99-86 99S16-35 15-95c0-66 28-99 85-99zM99-20c44 1 53-31 53-75 0-43-8-75-51-75s-53 32-53 75 10 74 51 75" id="B"/><g id="b"><use transform="matrix(0.05,0,0,0.05,0,0)" xlink:href="#u"/><use transform="matrix(0.05,0,0,0.05,12,0)" xlink:href="#o"/><use transform="matrix(0.05,0,0,0.05,17.95,0)" xlink:href="#p"/><use transform="matrix(0.05,0,0,0.05,22.95,0)" xlink:href="#q"/><use transform="matrix(0.05,0,0,0.05,26.899999999999995,0)" xlink:href="#r"/><use transform="matrix(0.05,0,0,0.05,35.9,0)" xlink:href="#s"/><use transform="matrix(0.05,0,0,0.05,39.85,0)" xlink:href="#t"/><use transform="matrix(0.05,0,0,0.05,49.85,0)" xlink:href="#v"/><use transform="matrix(0.05,0,0,0.05,62.800000000000004,0)" xlink:href="#o"/><use transform="matrix(0.05,0,0,0.05,68.75,0)" xlink:href="#w"/><use transform="matrix(0.05,0,0,0.05,78.75,0)" xlink:href="#x"/><use transform="matrix(0.05,0,0,0.05,88.75,0)" xlink:href="#y"/><use transform="matrix(0.05,0,0,0.05,100.75,0)" xlink:href="#z"/><use transform="matrix(0.05,0,0,0.05,110.75,0)" xlink:href="#x"/><use transform="matrix(0.05,0,0,0.05,120.75,0)" xlink:href="#A"/><use transform="matrix(0.05,0,0,0.05,130.75,0)" xlink:href="#B"/><use transform="matrix(0.05,0,0,0.05,140.75,0)" xlink:href="#q"/><use transform="matrix(0.05,0,0,0.05,144.7,0)" xlink:href="#z"/><use transform="matrix(0.05,0,0,0.05,154.7,0)" xlink:href="#p"/></g><path d="M137 0h-34L2-248h35l83 218 83-218h36" id="C"/><g id="c"><use transform="matrix(0.05,0,0,0.05,0,0)" xlink:href="#u"/><use transform="matrix(0.05,0,0,0.05,12,0)" xlink:href="#o"/><use transform="matrix(0.05,0,0,0.05,17.95,0)" xlink:href="#p"/><use transform="matrix(0.05,0,0,0.05,22.95,0)" xlink:href="#q"/><use transform="matrix(0.05,0,0,0.05,26.899999999999995,0)" xlink:href="#r"/><use transform="matrix(0.05,0,0,0.05,35.9,0)" xlink:href="#s"/><use transform="matrix(0.05,0,0,0.05,39.85,0)" xlink:href="#t"/><use transform="matrix(0.05,0,0,0.05,49.85,0)" xlink:href="#v"/><use transform="matrix(0.05,0,0,0.05,62.800000000000004,0)" xlink:href="#B"/><use transform="matrix(0.05,0,0,0.05,72.80000000000001,0)" xlink:href="#z"/><use transform="matrix(0.05,0,0,0.05,82.80000000000001,0)" xlink:href="#p"/><use transform="matrix(0.05,0,0,0.05,87.80000000000001,0)" xlink:href="#t"/><use transform="matrix(0.05,0,0,0.05,97.80000000000001,0)" xlink:href="#z"/><use transform="matrix(0.05,0,0,0.05,107.80000000000001,0)" xlink:href="#p"/><use transform="matrix(0.05,0,0,0.05,112.80000000000001,0)" xlink:href="#C"/><use transform="matrix(0.05,0,0,0.05,123.45,0)" xlink:href="#n"/><use transform="matrix(0.05,0,0,0.05,133.45000000000002,0)" xlink:href="#s"/><use transform="matrix(0.05,0,0,0.05,137.4,0)" xlink:href="#q"/><use transform="matrix(0.05,0,0,0.05,141.35,0)" xlink:href="#x"/><use transform="matrix(0.05,0,0,0.05,151.35,0)" xlink:href="#n"/><use transform="matrix(0.05,0,0,0.05,161.35,0)" xlink:href="#p"/><use transform="matrix(0.05,0,0,0.05,166.35,0)" xlink:href="#B"/><use transform="matrix(0.05,0,0,0.05,176.35,0)" xlink:href="#o"/><use transform="matrix(0.05,0,0,0.05,182.29999999999998,0)" xlink:href="#y"/><use transform="matrix(0.05,0,0,0.05,194.29999999999998,0)" xlink:href="#z"/><use transform="matrix(0.05,0,0,0.05,204.29999999999998,0)" xlink:href="#x"/><use transform="matrix(0.05,0,0,0.05,214.29999999999995,0)" xlink:href="#A"/><use transform="matrix(0.05,0,0,0.05,224.29999999999995,0)" xlink:href="#B"/><use transform="matrix(0.05,0,0,0.05,234.29999999999995,0)" xlink:href="#q"/><use transform="matrix(0.05,0,0,0.05,238.24999999999997,0)" xlink:href="#z"/><use transform="matrix(0.05,0,0,0.05,248.24999999999997,0)" xlink:href="#p"/></g><g id="d"><use transform="matrix(0.05,0,0,0.05,0,0)" xlink:href="#u"/><use transform="matrix(0.05,0,0,0.05,12,0)" xlink:href="#o"/><use transform="matrix(0.05,0,0,0.05,17.95,0)" xlink:href="#p"/><use transform="matrix(0.05,0,0,0.05,22.95,0)" xlink:href="#q"/><use transform="matrix(0.05,0,0,0.05,26.899999999999995,0)" xlink:href="#r"/><use transform="matrix(0.05,0,0,0.05,35.9,0)" xlink:href="#s"/><use transform="matrix(0.05,0,0,0.05,39.85,0)" xlink:href="#t"/><use transform="matrix(0.05,0,0,0.05,49.85,0)" xlink:href="#u"/><use transform="matrix(0.05,0,0,0.05,61.85,0)" xlink:href="#r"/><use transform="matrix(0.05,0,0,0.05,70.85,0)" xlink:href="#p"/><use transform="matrix(0.05,0,0,0.05,75.85,0)" xlink:href="#q"/><use transform="matrix(0.05,0,0,0.05,79.8,0)" xlink:href="#B"/><use transform="matrix(0.05,0,0,0.05,89.8,0)" xlink:href="#z"/><use transform="matrix(0.05,0,0,0.05,99.8,0)" xlink:href="#y"/><use transform="matrix(0.05,0,0,0.05,111.80000000000001,0)" xlink:href="#z"/><use transform="matrix(0.05,0,0,0.05,121.80000000000001,0)" xlink:href="#x"/><use transform="matrix(0.05,0,0,0.05,131.8,0)" xlink:href="#A"/><use transform="matrix(0.05,0,0,0.05,141.8,0)" xlink:href="#B"/><use transform="matrix(0.05,0,0,0.05,151.8,0)" xlink:href="#q"/><use transform="matrix(0.05,0,0,0.05,155.75,0)" xlink:href="#z"/><use transform="matrix(0.05,0,0,0.05,165.75,0)" xlink:href="#p"/></g><path d="M210-169c-67 3-38 105-44 169h-31v-121c0-29-5-50-35-48C34-165 62-65 56 0H25l-1-190h30c1 10-1 24 2 32 10-44 99-50 107 0 11-21 27-35 58-36 85-2 47 119 55 194h-31v-121c0-29-5-49-35-48" id="D"/><g id="e"><use transform="matrix(0.05,0,0,0.05,0,0)" xlink:href="#x"/><use transform="matrix(0.05,0,0,0.05,10,0)" xlink:href="#B"/><use transform="matrix(0.05,0,0,0.05,20,0)" xlink:href="#D"/><use transform="matrix(0.05,0,0,0.05,34.95,0)" xlink:href="#n"/><use transform="matrix(0.05,0,0,0.05,44.95,0)" xlink:href="#q"/><use transform="matrix(0.05,0,0,0.05,48.900000000000006,0)" xlink:href="#z"/></g><g id="f"><use transform="matrix(0.05,0,0,0.05,0,0)" xlink:href="#u"/><use transform="matrix(0.05,0,0,0.05,12,0)" xlink:href="#o"/><use transform="matrix(0.05,0,0,0.05,17.95,0)" xlink:href="#p"/><use transform="matrix(0.05,0,0,0.05,22.95,0)" xlink:href="#q"/><use transform="matrix(0.05,0,0,0.05,26.899999999999995,0)" xlink:href="#r"/><use transform="matrix(0.05,0,0,0.05,35.9,0)" xlink:href="#s"/><use transform="matrix(0.05,0,0,0.05,39.85,0)" xlink:href="#t"/></g><path d="M101-234c-31-9-42 10-38 44h38v23H63V0H32v-167H5v-23h27c-7-52 17-82 69-68v24" id="E"/><path d="M177-190C167-65 218 103 67 71c-23-6-38-20-44-43l32-5c15 47 100 32 89-28v-30C133-14 115 1 83 1 29 1 15-40 15-95c0-56 16-97 71-98 29-1 48 16 59 35 1-10 0-23 2-32h30zM94-22c36 0 50-32 50-73 0-42-14-75-50-75-39 0-46 34-46 75s6 73 46 73" id="F"/><g id="g"><use transform="matrix(0.05,0,0,0.05,0,0)" xlink:href="#u"/><use transform="matrix(0.05,0,0,0.05,12,0)" xlink:href="#o"/><use transform="matrix(0.05,0,0,0.05,17.95,0)" xlink:href="#p"/><use transform="matrix(0.05,0,0,0.05,22.95,0)" xlink:href="#q"/><use transform="matrix(0.05,0,0,0.05,26.899999999999995,0)" xlink:href="#r"/><use transform="matrix(0.05,0,0,0.05,35.9,0)" xlink:href="#s"/><use transform="matrix(0.05,0,0,0.05,39.85,0)" xlink:href="#t"/><use transform="matrix(0.05,0,0,0.05,49.85,0)" xlink:href="#v"/><use transform="matrix(0.05,0,0,0.05,62.800000000000004,0)" xlink:href="#B"/><use transform="matrix(0.05,0,0,0.05,72.80000000000001,0)" xlink:href="#z"/><use transform="matrix(0.05,0,0,0.05,82.80000000000001,0)" xlink:href="#E"/><use transform="matrix(0.05,0,0,0.05,87.80000000000001,0)" xlink:href="#q"/><use transform="matrix(0.05,0,0,0.05,91.75000000000001,0)" xlink:href="#F"/><use transform="matrix(0.05,0,0,0.05,101.75000000000001,0)" xlink:href="#w"/><use transform="matrix(0.05,0,0,0.05,111.75,0)" xlink:href="#o"/><use transform="matrix(0.05,0,0,0.05,117.7,0)" xlink:href="#n"/><use transform="matrix(0.05,0,0,0.05,127.7,0)" xlink:href="#p"/><use transform="matrix(0.05,0,0,0.05,132.70000000000002,0)" xlink:href="#q"/><use transform="matrix(0.05,0,0,0.05,136.65,0)" xlink:href="#B"/><use transform="matrix(0.05,0,0,0.05,146.65,0)" xlink:href="#z"/></g><path d="M63-220v92h138v28H63V0H30v-248h175v28H63" id="G"/><path d="M179-190L93 31C79 59 56 82 12 73V49c39 6 53-20 64-50L1-190h34L92-34l54-156h33" id="H"/><g id="h"><use transform="matrix(0.05,0,0,0.05,0,0)" xlink:href="#u"/><use transform="matrix(0.05,0,0,0.05,12,0)" xlink:href="#o"/><use transform="matrix(0.05,0,0,0.05,17.95,0)" xlink:href="#p"/><use transform="matrix(0.05,0,0,0.05,22.95,0)" xlink:href="#q"/><use transform="matrix(0.05,0,0,0.05,26.899999999999995,0)" xlink:href="#r"/><use transform="matrix(0.05,0,0,0.05,35.9,0)" xlink:href="#s"/><use transform="matrix(0.05,0,0,0.05,39.85,0)" xlink:href="#t"/><use transform="matrix(0.05,0,0,0.05,49.85,0)" xlink:href="#G"/><use transform="matrix(0.05,0,0,0.05,60.800000000000004,0)" xlink:href="#n"/><use transform="matrix(0.05,0,0,0.05,70.80000000000001,0)" xlink:href="#r"/><use transform="matrix(0.05,0,0,0.05,79.80000000000001,0)" xlink:href="#p"/><use transform="matrix(0.05,0,0,0.05,84.80000000000001,0)" xlink:href="#B"/><use transform="matrix(0.05,0,0,0.05,94.80000000000001,0)" xlink:href="#o"/><use transform="matrix(0.05,0,0,0.05,100.75000000000001,0)" xlink:href="#H"/></g><path d="M30-248c87 1 191-15 191 75 0 78-77 80-158 76V0H30v-248zm33 125c57 0 124 11 124-50 0-59-68-47-124-48v98" id="I"/><path d="M108 0H70L1-190h34L89-25l56-165h34" id="J"/><path d="M206 0h-36l-40-164L89 0H53L-1-190h32L70-26l43-164h34l41 164 42-164h31" id="K"/><g id="i"><use transform="matrix(0.05,0,0,0.05,0,0)" xlink:href="#u"/><use transform="matrix(0.05,0,0,0.05,12,0)" xlink:href="#o"/><use transform="matrix(0.05,0,0,0.05,17.95,0)" xlink:href="#p"/><use transform="matrix(0.05,0,0,0.05,22.95,0)" xlink:href="#q"/><use transform="matrix(0.05,0,0,0.05,26.899999999999995,0)" xlink:href="#r"/><use transform="matrix(0.05,0,0,0.05,35.9,0)" xlink:href="#s"/><use transform="matrix(0.05,0,0,0.05,39.85,0)" xlink:href="#t"/><use transform="matrix(0.05,0,0,0.05,49.85,0)" xlink:href="#I"/><use transform="matrix(0.05,0,0,0.05,61.85,0)" xlink:href="#o"/><use transform="matrix(0.05,0,0,0.05,67.8,0)" xlink:href="#t"/><use transform="matrix(0.05,0,0,0.05,77.8,0)" xlink:href="#J"/><use transform="matrix(0.05,0,0,0.05,86.8,0)" xlink:href="#q"/><use transform="matrix(0.05,0,0,0.05,90.75,0)" xlink:href="#t"/><use transform="matrix(0.05,0,0,0.05,100.75,0)" xlink:href="#K"/><use transform="matrix(0.05,0,0,0.05,113.7,0)" xlink:href="#t"/><use transform="matrix(0.05,0,0,0.05,123.7,0)" xlink:href="#o"/></g><path d="M233-177c-1 41-23 64-60 70L243 0h-38l-65-103H63V0H30v-248c88 3 205-21 203 71zM63-129c60-2 137 13 137-47 0-61-80-42-137-45v92" id="L"/><path d="M135-143c-3-34-86-38-87 0 15 53 115 12 119 90S17 21 10-45l28-5c4 36 97 45 98 0-10-56-113-15-118-90-4-57 82-63 122-42 12 7 21 19 24 35" id="M"/><g id="j"><use transform="matrix(0.05,0,0,0.05,0,0)" xlink:href="#u"/><use transform="matrix(0.05,0,0,0.05,12,0)" xlink:href="#o"/><use transform="matrix(0.05,0,0,0.05,17.95,0)" xlink:href="#p"/><use transform="matrix(0.05,0,0,0.05,22.95,0)" xlink:href="#q"/><use transform="matrix(0.05,0,0,0.05,26.899999999999995,0)" xlink:href="#r"/><use transform="matrix(0.05,0,0,0.05,35.9,0)" xlink:href="#s"/><use transform="matrix(0.05,0,0,0.05,39.85,0)" xlink:href="#t"/><use transform="matrix(0.05,0,0,0.05,49.85,0)" xlink:href="#L"/><use transform="matrix(0.05,0,0,0.05,62.800000000000004,0)" xlink:href="#t"/><use transform="matrix(0.05,0,0,0.05,72.80000000000001,0)" xlink:href="#A"/><use transform="matrix(0.05,0,0,0.05,82.80000000000001,0)" xlink:href="#B"/><use transform="matrix(0.05,0,0,0.05,92.80000000000001,0)" xlink:href="#M"/><use transform="matrix(0.05,0,0,0.05,101.80000000000001,0)" xlink:href="#q"/><use transform="matrix(0.05,0,0,0.05,105.75,0)" xlink:href="#p"/><use transform="matrix(0.05,0,0,0.05,110.75,0)" xlink:href="#B"/><use transform="matrix(0.05,0,0,0.05,120.75,0)" xlink:href="#o"/><use transform="matrix(0.05,0,0,0.05,126.7,0)" xlink:href="#H"/></g><g id="k"><use transform="matrix(0.05,0,0,0.05,0,0)" xlink:href="#u"/><use transform="matrix(0.05,0,0,0.05,12,0)" xlink:href="#o"/><use transform="matrix(0.05,0,0,0.05,17.95,0)" xlink:href="#p"/><use transform="matrix(0.05,0,0,0.05,22.95,0)" xlink:href="#q"/><use transform="matrix(0.05,0,0,0.05,26.899999999999995,0)" xlink:href="#r"/><use transform="matrix(0.05,0,0,0.05,35.9,0)" xlink:href="#s"/><use transform="matrix(0.05,0,0,0.05,39.85,0)" xlink:href="#t"/><use transform="matrix(0.05,0,0,0.05,49.85,0)" xlink:href="#G"/><use transform="matrix(0.05,0,0,0.05,60.800000000000004,0)" xlink:href="#n"/><use transform="matrix(0.05,0,0,0.05,70.80000000000001,0)" xlink:href="#r"/><use transform="matrix(0.05,0,0,0.05,79.80000000000001,0)" xlink:href="#n"/><use transform="matrix(0.05,0,0,0.05,89.80000000000001,0)" xlink:href="#x"/><use transform="matrix(0.05,0,0,0.05,99.80000000000001,0)" xlink:href="#t"/></g><g id="l"><use transform="matrix(0.05,0,0,0.05,0,0)" xlink:href="#v"/><use transform="matrix(0.05,0,0,0.05,12.950000000000001,0)" xlink:href="#n"/><use transform="matrix(0.05,0,0,0.05,22.950000000000003,0)" xlink:href="#p"/><use transform="matrix(0.05,0,0,0.05,27.950000000000003,0)" xlink:href="#t"/><use transform="matrix(0.05,0,0,0.05,37.95,0)" xlink:href="#F"/><use transform="matrix(0.05,0,0,0.05,47.95,0)" xlink:href="#B"/><use transform="matrix(0.05,0,0,0.05,57.95,0)" xlink:href="#o"/><use transform="matrix(0.05,0,0,0.05,63.900000000000006,0)" xlink:href="#H"/></g><path d="M185-189c-5-48-123-54-124 2 14 75 158 14 163 119 3 78-121 87-175 55-17-10-28-26-33-46l33-7c5 56 141 63 141-1 0-78-155-14-162-118-5-82 145-84 179-34 5 7 8 16 11 25" id="N"/><g id="m"><use transform="matrix(0.05,0,0,0.05,0,0)" xlink:href="#u"/><use transform="matrix(0.05,0,0,0.05,12,0)" xlink:href="#o"/><use transform="matrix(0.05,0,0,0.05,17.95,0)" xlink:href="#p"/><use transform="matrix(0.05,0,0,0.05,22.95,0)" xlink:href="#q"/><use transform="matrix(0.05,0,0,0.05,26.899999999999995,0)" xlink:href="#r"/><use transform="matrix(0.05,0,0,0.05,35.9,0)" xlink:href="#s"/><use transform="matrix(0.05,0,0,0.05,39.85,0)" xlink:href="#t"/><use transform="matrix(0.05,0,0,0.05,49.85,0)" xlink:href="#N"/><use transform="matrix(0.05,0,0,0.05,61.85,0)" xlink:href="#p"/><use transform="matrix(0.05,0,0,0.05,66.85,0)" xlink:href="#n"/><use transform="matrix(0.05,0,0,0.05,76.85,0)" xlink:href="#p"/><use transform="matrix(0.05,0,0,0.05,81.85,0)" xlink:href="#w"/><use transform="matrix(0.05,0,0,0.05,91.85,0)" xlink:href="#M"/></g></defs></g></svg>