<svg xmlns="http://www.w3.org/2000/svg" xmlns:xlink="http://www.w3.org/1999/xlink" xmlns:lucid="lucid" width="580" height="482.84"><g transform="translate(-100 -17.156140170154686)" lucid:page-tab-id="0_0"><path d="M460 63h200v417H120V37.16h324zm-340 0h340" stroke="#000" fill="#fff"/><use xlink:href="#a" transform="matrix(1,0,0,1,128,37.156140170154686) translate(0 16.6)"/><path d="M442 110h178v342.87H140V84.12h288zm-302 0h302" stroke="#000" fill="#fff"/><use xlink:href="#b" transform="matrix(1,0,0,1,148,84.11818181818178) translate(0 16.6)"/><path d="M170 135.24h330v55.88H170z" stroke="#000" fill="#c1e4f7" fill-opacity=".44"/><use xlink:href="#c" transform="matrix(1,0,0,1,177.99999999999997,143.24219679771122) translate(44.72500000000001 23.6)"/><path d="M170 215.7h330v55.9H170z" stroke="#000" fill="#c1e4f7" fill-opacity=".44"/><use xlink:href="#d" transform="matrix(1,0,0,1,177.99999999999997,223.70973476249193) translate(18.75 23.6)"/><path d="M170 296.18h200v55.88H170z" stroke="#000" fill="#c1e4f7" fill-opacity=".44"/><use xlink:href="#e" transform="matrix(1,0,0,1,178,304.1772727272727) translate(7.324999999999989 23.6)"/><path d="M170 376.64h330v55.9H170z" stroke="#000" fill="#c1e4f7" fill-opacity=".44"/><use xlink:href="#f" transform="matrix(1,0,0,1,177.99999999999997,384.6448106920534) translate(25.100000000000023 23.6)"/><defs><path d="M24-231v-30h32v30H24zM24 0v-190h32V0H24" id="g"/><path d="M117-194c89-4 53 116 60 194h-32v-121c0-31-8-49-39-48C34-167 62-67 57 0H25l-1-190h30c1 10-1 24 2 32 11-22 29-35 61-36" id="h"/><path d="M101-234c-31-9-42 10-38 44h38v23H63V0H32v-167H5v-23h27c-7-52 17-82 69-68v24" id="i"/><path d="M114-163C36-179 61-72 57 0H25l-1-190h30c1 12-1 29 2 39 6-27 23-49 58-41v29" id="j"/><path d="M141-36C126-15 110 5 73 4 37 3 15-17 15-53c-1-64 63-63 125-63 3-35-9-54-41-54-24 1-41 7-42 31l-33-3c5-37 33-52 76-52 45 0 72 20 72 64v82c-1 20 7 32 28 27v20c-31 9-61-2-59-35zM48-53c0 20 12 33 32 33 41-3 63-29 60-74-43 2-92-5-92 41" id="k"/><path d="M135-143c-3-34-86-38-87 0 15 53 115 12 119 90S17 21 10-45l28-5c4 36 97 45 98 0-10-56-113-15-118-90-4-57 82-63 122-42 12 7 21 19 24 35" id="l"/><path d="M59-47c-2 24 18 29 38 22v24C64 9 27 4 27-40v-127H5v-23h24l9-43h21v43h35v23H59v120" id="m"/><path d="M84 4C-5 8 30-112 23-190h32v120c0 31 7 50 39 49 72-2 45-101 50-169h31l1 190h-30c-1-10 1-25-2-33-11 22-28 36-60 37" id="n"/><path d="M96-169c-40 0-48 33-48 73s9 75 48 75c24 0 41-14 43-38l32 2c-6 37-31 61-74 61-59 0-76-41-82-99-10-93 101-131 147-64 4 7 5 14 7 22l-32 3c-4-21-16-35-41-35" id="o"/><path d="M100-194c63 0 86 42 84 106H49c0 40 14 67 53 68 26 1 43-12 49-29l28 8c-11 28-37 45-77 45C44 4 14-33 15-96c1-61 26-98 85-98zm52 81c6-60-76-77-97-28-3 7-6 17-6 28h103" id="p"/><g id="a"><use transform="matrix(0.05,0,0,0.05,0,0)" xlink:href="#g"/><use transform="matrix(0.05,0,0,0.05,3.95,0)" xlink:href="#h"/><use transform="matrix(0.05,0,0,0.05,13.949999999999998,0)" xlink:href="#i"/><use transform="matrix(0.05,0,0,0.05,18.95,0)" xlink:href="#j"/><use transform="matrix(0.05,0,0,0.05,24.9,0)" xlink:href="#k"/><use transform="matrix(0.05,0,0,0.05,34.9,0)" xlink:href="#l"/><use transform="matrix(0.05,0,0,0.05,43.9,0)" xlink:href="#m"/><use transform="matrix(0.05,0,0,0.05,48.9,0)" xlink:href="#j"/><use transform="matrix(0.05,0,0,0.05,54.85,0)" xlink:href="#n"/><use transform="matrix(0.05,0,0,0.05,64.85,0)" xlink:href="#o"/><use transform="matrix(0.05,0,0,0.05,73.85,0)" xlink:href="#m"/><use transform="matrix(0.05,0,0,0.05,78.85,0)" xlink:href="#n"/><use transform="matrix(0.05,0,0,0.05,88.85,0)" xlink:href="#j"/><use transform="matrix(0.05,0,0,0.05,94.8,0)" xlink:href="#p"/></g><path d="M177-190C167-65 218 103 67 71c-23-6-38-20-44-43l32-5c15 47 100 32 89-28v-30C133-14 115 1 83 1 29 1 15-40 15-95c0-56 16-97 71-98 29-1 48 16 59 35 1-10 0-23 2-32h30zM94-22c36 0 50-32 50-73 0-42-14-75-50-75-39 0-46 34-46 75s6 73 46 73" id="q"/><path d="M100-194c62-1 85 37 85 99 1 63-27 99-86 99S16-35 15-95c0-66 28-99 85-99zM99-20c44 1 53-31 53-75 0-43-8-75-51-75s-53 32-53 75 10 74 51 75" id="r"/><path d="M179-190L93 31C79 59 56 82 12 73V49c39 6 53-20 64-50L1-190h34L92-34l54-156h33" id="s"/><g id="b"><use transform="matrix(0.05,0,0,0.05,0,0)" xlink:href="#o"/><use transform="matrix(0.05,0,0,0.05,9,0)" xlink:href="#k"/><use transform="matrix(0.05,0,0,0.05,19,0)" xlink:href="#m"/><use transform="matrix(0.05,0,0,0.05,24,0)" xlink:href="#p"/><use transform="matrix(0.05,0,0,0.05,34,0)" xlink:href="#q"/><use transform="matrix(0.05,0,0,0.05,44,0)" xlink:href="#r"/><use transform="matrix(0.05,0,0,0.05,54,0)" xlink:href="#j"/><use transform="matrix(0.05,0,0,0.05,59.95,0)" xlink:href="#s"/></g><path d="M212-179c-10-28-35-45-73-45-59 0-87 40-87 99 0 60 29 101 89 101 43 0 62-24 78-52l27 14C228-24 195 4 139 4 59 4 22-46 18-125c-6-104 99-153 187-111 19 9 31 26 39 46" id="t"/><path d="M24 0v-261h32V0H24" id="u"/><g id="c"><use transform="matrix(0.05,0,0,0.05,0,0)" xlink:href="#t"/><use transform="matrix(0.05,0,0,0.05,12.950000000000001,0)" xlink:href="#k"/><use transform="matrix(0.05,0,0,0.05,22.950000000000003,0)" xlink:href="#m"/><use transform="matrix(0.05,0,0,0.05,27.950000000000003,0)" xlink:href="#p"/><use transform="matrix(0.05,0,0,0.05,37.95,0)" xlink:href="#q"/><use transform="matrix(0.05,0,0,0.05,47.95,0)" xlink:href="#r"/><use transform="matrix(0.05,0,0,0.05,57.95,0)" xlink:href="#j"/><use transform="matrix(0.05,0,0,0.05,63.900000000000006,0)" xlink:href="#s"/><use transform="matrix(0.05,0,0,0.05,72.9,0)" xlink:href="#t"/><use transform="matrix(0.05,0,0,0.05,85.85000000000001,0)" xlink:href="#u"/><use transform="matrix(0.05,0,0,0.05,89.80000000000001,0)" xlink:href="#g"/><use transform="matrix(0.05,0,0,0.05,93.75000000000001,0)" xlink:href="#p"/><use transform="matrix(0.05,0,0,0.05,103.75,0)" xlink:href="#h"/><use transform="matrix(0.05,0,0,0.05,113.75,0)" xlink:href="#m"/><use transform="matrix(0.05,0,0,0.05,118.75,0)" xlink:href="#t"/><use transform="matrix(0.05,0,0,0.05,131.70000000000002,0)" xlink:href="#r"/><use transform="matrix(0.05,0,0,0.05,141.70000000000002,0)" xlink:href="#h"/><use transform="matrix(0.05,0,0,0.05,151.70000000000002,0)" xlink:href="#i"/><use transform="matrix(0.05,0,0,0.05,156.70000000000002,0)" xlink:href="#g"/><use transform="matrix(0.05,0,0,0.05,160.65,0)" xlink:href="#q"/><use transform="matrix(0.05,0,0,0.05,170.65,0)" xlink:href="#n"/><use transform="matrix(0.05,0,0,0.05,180.65,0)" xlink:href="#j"/><use transform="matrix(0.05,0,0,0.05,186.6,0)" xlink:href="#k"/><use transform="matrix(0.05,0,0,0.05,196.6,0)" xlink:href="#m"/><use transform="matrix(0.05,0,0,0.05,201.6,0)" xlink:href="#g"/><use transform="matrix(0.05,0,0,0.05,205.54999999999995,0)" xlink:href="#r"/><use transform="matrix(0.05,0,0,0.05,215.54999999999995,0)" xlink:href="#h"/></g><path d="M106-169C34-169 62-67 57 0H25v-261h32l-1 103c12-21 28-36 61-36 89 0 53 116 60 194h-32v-121c2-32-8-49-39-48" id="v"/><g id="d"><use transform="matrix(0.05,0,0,0.05,0,0)" xlink:href="#t"/><use transform="matrix(0.05,0,0,0.05,12.950000000000001,0)" xlink:href="#k"/><use transform="matrix(0.05,0,0,0.05,22.950000000000003,0)" xlink:href="#m"/><use transform="matrix(0.05,0,0,0.05,27.950000000000003,0)" xlink:href="#p"/><use transform="matrix(0.05,0,0,0.05,37.95,0)" xlink:href="#q"/><use transform="matrix(0.05,0,0,0.05,47.95,0)" xlink:href="#r"/><use transform="matrix(0.05,0,0,0.05,57.95,0)" xlink:href="#j"/><use transform="matrix(0.05,0,0,0.05,63.900000000000006,0)" xlink:href="#s"/><use transform="matrix(0.05,0,0,0.05,72.9,0)" xlink:href="#t"/><use transform="matrix(0.05,0,0,0.05,85.85000000000001,0)" xlink:href="#u"/><use transform="matrix(0.05,0,0,0.05,89.80000000000001,0)" xlink:href="#g"/><use transform="matrix(0.05,0,0,0.05,93.75000000000001,0)" xlink:href="#p"/><use transform="matrix(0.05,0,0,0.05,103.75,0)" xlink:href="#h"/><use transform="matrix(0.05,0,0,0.05,113.75,0)" xlink:href="#m"/><use transform="matrix(0.05,0,0,0.05,118.75,0)" xlink:href="#t"/><use transform="matrix(0.05,0,0,0.05,131.70000000000002,0)" xlink:href="#k"/><use transform="matrix(0.05,0,0,0.05,141.70000000000002,0)" xlink:href="#o"/><use transform="matrix(0.05,0,0,0.05,150.70000000000002,0)" xlink:href="#v"/><use transform="matrix(0.05,0,0,0.05,160.70000000000002,0)" xlink:href="#p"/><use transform="matrix(0.05,0,0,0.05,170.70000000000002,0)" xlink:href="#t"/><use transform="matrix(0.05,0,0,0.05,183.65,0)" xlink:href="#r"/><use transform="matrix(0.05,0,0,0.05,193.65,0)" xlink:href="#h"/><use transform="matrix(0.05,0,0,0.05,203.65,0)" xlink:href="#i"/><use transform="matrix(0.05,0,0,0.05,208.65,0)" xlink:href="#g"/><use transform="matrix(0.05,0,0,0.05,212.60000000000002,0)" xlink:href="#q"/><use transform="matrix(0.05,0,0,0.05,222.60000000000002,0)" xlink:href="#n"/><use transform="matrix(0.05,0,0,0.05,232.60000000000002,0)" xlink:href="#j"/><use transform="matrix(0.05,0,0,0.05,238.54999999999995,0)" xlink:href="#k"/><use transform="matrix(0.05,0,0,0.05,248.54999999999995,0)" xlink:href="#m"/><use transform="matrix(0.05,0,0,0.05,253.54999999999995,0)" xlink:href="#g"/><use transform="matrix(0.05,0,0,0.05,257.5,0)" xlink:href="#r"/><use transform="matrix(0.05,0,0,0.05,267.5,0)" xlink:href="#h"/></g><path d="M30-248c118-7 216 8 213 122C240-48 200 0 122 0H30v-248zM63-27c89 8 146-16 146-99s-60-101-146-95v194" id="w"/><path d="M266 0h-40l-56-210L115 0H75L2-248h35L96-30l15-64 43-154h32l59 218 59-218h35" id="x"/><path d="M115-194c55 1 70 41 70 98S169 2 115 4C84 4 66-9 55-30l1 105H24l-1-265h31l2 30c10-21 28-34 59-34zm-8 174c40 0 45-34 45-75s-6-73-45-74c-42 0-51 32-51 76 0 43 10 73 51 73" id="y"/><g id="e"><use transform="matrix(0.05,0,0,0.05,0,0)" xlink:href="#t"/><use transform="matrix(0.05,0,0,0.05,12.950000000000001,0)" xlink:href="#k"/><use transform="matrix(0.05,0,0,0.05,22.950000000000003,0)" xlink:href="#m"/><use transform="matrix(0.05,0,0,0.05,27.950000000000003,0)" xlink:href="#p"/><use transform="matrix(0.05,0,0,0.05,37.95,0)" xlink:href="#q"/><use transform="matrix(0.05,0,0,0.05,47.95,0)" xlink:href="#r"/><use transform="matrix(0.05,0,0,0.05,57.95,0)" xlink:href="#j"/><use transform="matrix(0.05,0,0,0.05,63.900000000000006,0)" xlink:href="#s"/><use transform="matrix(0.05,0,0,0.05,72.9,0)" xlink:href="#w"/><use transform="matrix(0.05,0,0,0.05,85.85000000000001,0)" xlink:href="#m"/><use transform="matrix(0.05,0,0,0.05,90.85000000000001,0)" xlink:href="#r"/><use transform="matrix(0.05,0,0,0.05,100.85000000000001,0)" xlink:href="#x"/><use transform="matrix(0.05,0,0,0.05,117.45,0)" xlink:href="#j"/><use transform="matrix(0.05,0,0,0.05,123.40000000000003,0)" xlink:href="#k"/><use transform="matrix(0.05,0,0,0.05,133.40000000000003,0)" xlink:href="#y"/><use transform="matrix(0.05,0,0,0.05,143.40000000000003,0)" xlink:href="#y"/><use transform="matrix(0.05,0,0,0.05,153.40000000000003,0)" xlink:href="#p"/><use transform="matrix(0.05,0,0,0.05,163.40000000000003,0)" xlink:href="#j"/></g><path d="M127-220V0H93v-220H8v-28h204v28h-85" id="z"/><path d="M233-177c-1 41-23 64-60 70L243 0h-38l-65-103H63V0H30v-248c88 3 205-21 203 71zM63-129c60-2 137 13 137-47 0-61-80-42-137-45v92" id="A"/><path d="M210-169c-67 3-38 105-44 169h-31v-121c0-29-5-50-35-48C34-165 62-65 56 0H25l-1-190h30c1 10-1 24 2 32 10-44 99-50 107 0 11-21 27-35 58-36 85-2 47 119 55 194h-31v-121c0-29-5-49-35-48" id="B"/><g id="f"><use transform="matrix(0.05,0,0,0.05,0,0)" xlink:href="#t"/><use transform="matrix(0.05,0,0,0.05,12.950000000000001,0)" xlink:href="#k"/><use transform="matrix(0.05,0,0,0.05,22.950000000000003,0)" xlink:href="#m"/><use transform="matrix(0.05,0,0,0.05,27.950000000000003,0)" xlink:href="#p"/><use transform="matrix(0.05,0,0,0.05,37.95,0)" xlink:href="#q"/><use transform="matrix(0.05,0,0,0.05,47.95,0)" xlink:href="#r"/><use transform="matrix(0.05,0,0,0.05,57.95,0)" xlink:href="#j"/><use transform="matrix(0.05,0,0,0.05,63.900000000000006,0)" xlink:href="#s"/><use transform="matrix(0.05,0,0,0.05,72.9,0)" xlink:href="#z"/><use transform="matrix(0.05,0,0,0.05,83.2,0)" xlink:href="#j"/><use transform="matrix(0.05,0,0,0.05,89.15,0)" xlink:href="#p"/><use transform="matrix(0.05,0,0,0.05,99.15,0)" xlink:href="#p"/><use transform="matrix(0.05,0,0,0.05,109.15,0)" xlink:href="#A"/><use transform="matrix(0.05,0,0,0.05,122.10000000000001,0)" xlink:href="#p"/><use transform="matrix(0.05,0,0,0.05,132.10000000000002,0)" xlink:href="#l"/><use transform="matrix(0.05,0,0,0.05,141.10000000000002,0)" xlink:href="#m"/><use transform="matrix(0.05,0,0,0.05,146.10000000000002,0)" xlink:href="#z"/><use transform="matrix(0.05,0,0,0.05,155.05,0)" xlink:href="#p"/><use transform="matrix(0.05,0,0,0.05,165.05,0)" xlink:href="#B"/><use transform="matrix(0.05,0,0,0.05,180,0)" xlink:href="#y"/><use transform="matrix(0.05,0,0,0.05,190,0)" xlink:href="#u"/><use transform="matrix(0.05,0,0,0.05,193.95,0)" xlink:href="#k"/><use transform="matrix(0.05,0,0,0.05,203.95,0)" xlink:href="#m"/><use transform="matrix(0.05,0,0,0.05,208.94999999999996,0)" xlink:href="#p"/><use transform="matrix(0.05,0,0,0.05,218.94999999999996,0)" xlink:href="#t"/><use transform="matrix(0.05,0,0,0.05,231.89999999999998,0)" xlink:href="#u"/><use transform="matrix(0.05,0,0,0.05,235.84999999999997,0)" xlink:href="#g"/><use transform="matrix(0.05,0,0,0.05,239.79999999999995,0)" xlink:href="#p"/><use transform="matrix(0.05,0,0,0.05,249.79999999999995,0)" xlink:href="#h"/><use transform="matrix(0.05,0,0,0.05,259.79999999999995,0)" xlink:href="#m"/></g></defs></g></svg>