<svg xmlns="http://www.w3.org/2000/svg" xmlns:xlink="http://www.w3.org/1999/xlink" xmlns:lucid="lucid" width="2060" height="780"><g transform="translate(320 -140)" lucid:page-tab-id="0_0"><path d="M540 806a6 6 0 0 1 6-6h328a6 6 0 0 1 6 6v88a6 6 0 0 1-6 6H546a6 6 0 0 1-6-6z" fill="#fff"/><path d="M555.03 800.07H565m4.98 0h9.97m4.98 0h9.97m4.98 0h9.97m5 0h9.95m5-.02h9.96m4.98 0h9.97m5 0h9.96m4.98 0h9.97m5 0h9.96m5 0h9.95m5-.02h9.97m4.98 0h9.97m4.98 0h9.97m4.98 0h9.97m5 0h9.95m5 0h9.96m4.98-.02h9.98m4.98 0h9.97m4.98 0h9.98m4.98 0h9.97m5 0H874l.94.07.9.22.88.35.8.5.72.6.6.72.5.8.37.88.23.9V810m0 4.94v9.9m.02 4.93v9.88m0 4.94l.02 9.87m0 4.94v9.9m0 4.94l.02 9.88m0 4.94V894l-.07.94-.22.9-.35.88-.5.8-.6.72-.72.6-.8.5-.88.37-.9.23h-5m-4.98 0H855m-4.98 0h-9.97m-4.98 0h-9.97m-4.98 0h-9.97m-5 0h-9.95m-5 .02h-9.96m-4.98 0h-9.97m-5 0h-9.96m-4.98 0h-9.97m-5 0h-9.96m-5 0h-9.95m-5 .02h-9.97m-4.98 0h-9.97m-4.98 0h-9.97m-4.98 0h-9.97m-5 0h-9.95m-5 0h-9.96m-4.98.02h-9.98m-4.98 0h-9.97m-4.98 0h-9.98m-4.98 0h-9.97m-5 0H546l-.94-.07-.9-.22-.88-.35-.8-.5-.72-.6-.6-.72-.5-.8-.37-.88-.23-.9V890m0-4.94v-9.9m-.02-4.93v-9.88m0-4.94l-.02-9.87m0-4.94v-9.9m0-4.94l-.02-9.88m0-4.94V806l.07-.94.22-.9.35-.88.5-.8.6-.72.72-.6.8-.5.88-.37.9-.23h5" stroke="#3a414a" fill="none"/><use xlink:href="#a" transform="matrix(1,0,0,1,545,805) translate(0 30.05859375)"/><use xlink:href="#b" transform="matrix(1,0,0,1,545,805) translate(24.00390625 30.05859375)"/><use xlink:href="#c" transform="matrix(1,0,0,1,545,805) translate(108.017578125 30.05859375)"/><use xlink:href="#d" transform="matrix(1,0,0,1,545,805) translate(0 50.05859375)"/><use xlink:href="#e" transform="matrix(1,0,0,1,545,805) translate(0 70.05859375)"/><use xlink:href="#f" transform="matrix(1,0,0,1,545,805) translate(24.00390625 70.05859375)"/><use xlink:href="#g" transform="matrix(1,0,0,1,545,805) translate(108.017578125 70.05859375)"/><path d="M-300 466a6 6 0 0 1 6-6H34a6 6 0 0 1 6 6v108a6 6 0 0 1-6 6h-328a6 6 0 0 1-6-6z" stroke="#000" stroke-opacity="0" fill="#1071e5"/><use xlink:href="#h" transform="matrix(1,0,0,1,-288,472) translate(79.08024691358025 53.77777777777778)"/><use xlink:href="#i" transform="matrix(1,0,0,1,-288,472) translate(160.43827160493828 53.77777777777778)"/><path d="M120 466a6 6 0 0 1 6-6h328a6 6 0 0 1 6 6v108a6 6 0 0 1-6 6H126a6 6 0 0 1-6-6z" stroke="#000" stroke-opacity="0" fill="#008573"/><use xlink:href="#j" transform="matrix(1,0,0,1,132,472) translate(103.15432098765432 53.77777777777778)"/><path d="M540 166a6 6 0 0 1 6-6h328a6 6 0 0 1 6 6v408a6 6 0 0 1-6 6H546a6 6 0 0 1-6-6z" stroke="#000" stroke-opacity="0" fill="#f2f3f5"/><use xlink:href="#k" transform="matrix(1,0,0,1,552,172) translate(79.40432098765433 19.555555555555557)"/><use xlink:href="#l" transform="matrix(1,0,0,1,552,172) translate(152.60185185185185 19.555555555555557)"/><path d="M560 236a6 6 0 0 1 6-6h288a6 6 0 0 1 6 6v58a6 6 0 0 1-6 6H566a6 6 0 0 1-6-6z" stroke="#000" stroke-opacity="0" fill="#4c535d"/><use xlink:href="#m" transform="matrix(1,0,0,1,572,242) translate(80.65432098765433 26.40277777777778)"/><use xlink:href="#n" transform="matrix(1,0,0,1,572,242) translate(158.30864197530863 26.40277777777778)"/><path d="M560 329.33a6 6 0 0 1 6-6h288a6 6 0 0 1 6 6v58a6 6 0 0 1-6 6H566a6 6 0 0 1-6-6z" stroke="#000" stroke-opacity="0" fill="#4c535d"/><use xlink:href="#m" transform="matrix(1,0,0,1,572,335.3333333333333) translate(80.65432098765433 26.40277777777778)"/><use xlink:href="#o" transform="matrix(1,0,0,1,572,335.3333333333333) translate(158.30864197530863 26.40277777777778)"/><path d="M560 469.68a6 6 0 0 1 6-6h288a6 6 0 0 1 6 6v58a6 6 0 0 1-6 6H566a6 6 0 0 1-6-6z" stroke="#000" stroke-opacity="0" fill="#4c535d"/><use xlink:href="#m" transform="matrix(1,0,0,1,572,475.67647058823525) translate(80.65432098765433 26.40277777777778)"/><use xlink:href="#p" transform="matrix(1,0,0,1,572,475.67647058823525) translate(158.30864197530863 26.40277777777778)"/><path d="M590 399.33a6 6 0 0 1 6-6h228a6 6 0 0 1 6 6v58a6 6 0 0 1-6 6H596a6 6 0 0 1-6-6z" stroke="#000" stroke-opacity="0" fill="#f2f3f5"/><use xlink:href="#q" transform="matrix(1,0,0,1,595,398.3333333333333) translate(100.18518518518519 35.944444444444436)"/><path d="M540 666a6 6 0 0 1 6-6h328a6 6 0 0 1 6 6v108a6 6 0 0 1-6 6H546a6 6 0 0 1-6-6z" stroke="#000" stroke-opacity="0" fill="#6f7681"/><use xlink:href="#r" transform="matrix(1,0,0,1,552,672) translate(101.9506172839506 53.77777777777778)"/><path d="M960 466a6 6 0 0 1 6-6h328a6 6 0 0 1 6 6v108a6 6 0 0 1-6 6H966a6 6 0 0 1-6-6z" stroke="#000" stroke-opacity="0" fill="#008573"/><use xlink:href="#s" transform="matrix(1,0,0,1,972,472) translate(97.01234567901234 53.77777777777778)"/><path d="M1380 466a6 6 0 0 1 6-6h328a6 6 0 0 1 6 6v108a6 6 0 0 1-6 6h-328a6 6 0 0 1-6-6z" stroke="#000" stroke-opacity="0" fill="#1071e5"/><use xlink:href="#t" transform="matrix(1,0,0,1,1392,472) translate(76.24074074074075 53.77777777777778)"/><use xlink:href="#u" transform="matrix(1,0,0,1,1392,472) translate(148.46296296296296 53.77777777777778)"/><path d="M120 606a6 6 0 0 1 6-6h328a6 6 0 0 1 6 6v128a6 6 0 0 1-6 6H126a6 6 0 0 1-6-6z" fill="#fff"/><path d="M135.03 600.07H145m4.98 0h9.97m4.98 0h9.97m4.98 0h9.97m5 0h9.95m5-.02h9.96m4.98 0h9.97m5 0h9.96m4.98 0h9.97m5 0h9.96m5 0h9.95m5-.02h9.97m4.98 0h9.97m4.98 0h9.97m4.98 0h9.97m5 0h9.95m5 0h9.96m4.98-.02h9.98m4.98 0h9.97m4.98 0h9.98m4.98 0h9.97m5 0H454l.94.07.9.22.88.35.8.5.72.6.6.72.5.8.37.88.23.9v4.8m0 4.76v9.56m0 4.78l.02 9.55m0 4.77v9.55m0 4.77v9.54m0 4.78l.02 9.55m0 4.77v9.56m0 4.77l.02 9.55m0 4.78v9.55m0 4.77V734l-.07.94-.22.9-.35.88-.5.8-.6.72-.72.6-.8.5-.88.37-.9.23h-5m-4.98 0H435m-4.98 0h-9.97m-4.98 0h-9.97m-4.98 0h-9.97m-5 0h-9.95m-5 .02h-9.96m-4.98 0h-9.97m-5 0h-9.96m-4.98 0h-9.97m-5 0h-9.96m-5 0h-9.95m-5 .02h-9.97m-4.98 0h-9.97m-4.98 0h-9.97m-4.98 0h-9.97m-5 0h-9.95m-5 0h-9.96m-4.98.02h-9.98m-4.98 0h-9.97m-4.98 0h-9.98m-4.98 0h-9.97m-5 0H126l-.94-.07-.9-.22-.88-.35-.8-.5-.72-.6-.6-.72-.5-.8-.37-.88-.23-.9v-4.8m0-4.76v-9.56m0-4.78l-.02-9.55m0-4.77v-9.55m0-4.77v-9.54m0-4.78l-.02-9.55m0-4.77v-9.56m0-4.77l-.02-9.55m0-4.78v-9.55m0-4.77V606l.07-.94.22-.9.35-.88.5-.8.6-.72.72-.6.8-.5.88-.37.9-.23h5" stroke="#3a414a" fill="none"/><use xlink:href="#a" transform="matrix(1,0,0,1,125,605) translate(0 32.24609375)"/><use xlink:href="#v" transform="matrix(1,0,0,1,125,605) translate(24.00390625 32.24609375)"/><use xlink:href="#w" transform="matrix(1,0,0,1,125,605) translate(96.015625 32.24609375)"/><use xlink:href="#d" transform="matrix(1,0,0,1,125,605) translate(0 52.24609375)"/><use xlink:href="#e" transform="matrix(1,0,0,1,125,605) translate(0 72.24609375)"/><use xlink:href="#x" transform="matrix(1,0,0,1,125,605) translate(24.00390625 72.24609375)"/><use xlink:href="#y" transform="matrix(1,0,0,1,125,605) translate(72.01171875 72.24609375)"/><use xlink:href="#z" transform="matrix(1,0,0,1,125,605) translate(144.0234375 72.24609375)"/><use xlink:href="#d" transform="matrix(1,0,0,1,125,605) translate(0 92.24609375)"/><use xlink:href="#e" transform="matrix(1,0,0,1,125,605) translate(0 112.24609375)"/><use xlink:href="#A" transform="matrix(1,0,0,1,125,605) translate(24.00390625 112.24609375)"/><use xlink:href="#B" transform="matrix(1,0,0,1,125,605) translate(84.013671875 112.24609375)"/><path d="M960 606a6 6 0 0 1 6-6h328a6 6 0 0 1 6 6v173a6 6 0 0 1-6 6H966a6 6 0 0 1-6-6z" fill="#fff"/><path d="M975.03 600.07H985m4.98 0h9.97m4.98 0h9.97m4.98 0h9.97m5 0h9.95m5-.02h9.96m4.98 0h9.97m5 0h9.96m4.98 0h9.97m5 0h9.96m5 0h9.95m5-.02h9.97m4.98 0h9.97m4.98 0h9.97m4.98 0h9.97m5 0h9.95m5 0h9.96m4.98-.02h9.98m4.98 0h9.97m4.98 0h9.98m4.98 0h9.97m5 0h4.97l.94.07.9.22.88.35.8.5.72.6.6.72.5.8.37.88.23.9v4.84m0 4.82v9.67m0 4.82v9.66m0 4.83l.02 9.68m0 4.83v9.67m0 4.83v9.67m0 4.83l.02 9.66m0 4.83v9.66m0 4.83v9.65m0 4.83v9.67m.02 4.83v9.66m0 4.83v9.67m0 4.83V779l-.07.94-.22.9-.35.88-.5.8-.6.72-.72.6-.8.5-.88.37-.9.23h-5m-4.98 0H1275m-4.98 0h-9.97m-4.98 0h-9.97m-4.98 0h-9.97m-5 0h-9.95m-5 .02h-9.96m-4.98 0h-9.97m-5 0h-9.96m-4.98 0h-9.97m-5 0h-9.96m-5 0h-9.95m-5 .02h-9.97m-4.98 0h-9.97m-4.98 0h-9.97m-4.98 0h-9.97m-5 0h-9.95m-5 0h-9.96m-4.98.02h-9.98m-4.98 0h-9.97m-4.98 0h-9.98m-4.98 0h-9.97m-5 0H966l-.94-.07-.9-.22-.88-.35-.8-.5-.72-.6-.6-.72-.5-.8-.37-.88-.23-.9v-4.84m0-4.82v-9.67m0-4.82v-9.66m0-4.83l-.02-9.68m0-4.83v-9.67m0-4.83v-9.67m0-4.83l-.02-9.66m0-4.83v-9.66m0-4.83v-9.65m0-4.83v-9.67m-.02-4.83v-9.66m0-4.83v-9.67m0-4.83V606l.07-.94.22-.9.35-.88.5-.8.6-.72.72-.6.8-.5.88-.37.9-.23h5" stroke="#3a414a" fill="none"/><g><use xlink:href="#a" transform="matrix(1,0,0,1,965,605) translate(0 32.40234375)"/><use xlink:href="#C" transform="matrix(1,0,0,1,965,605) translate(24.00390625 32.40234375)"/><use xlink:href="#D" transform="matrix(1,0,0,1,965,605) translate(132.021484375 32.40234375)"/><use xlink:href="#d" transform="matrix(1,0,0,1,965,605) translate(0 52.40234375)"/><use xlink:href="#e" transform="matrix(1,0,0,1,965,605) translate(0 72.40234375)"/><use xlink:href="#E" transform="matrix(1,0,0,1,965,605) translate(24.00390625 72.40234375)"/><use xlink:href="#F" transform="matrix(1,0,0,1,965,605) translate(132.021484375 72.40234375)"/><use xlink:href="#d" transform="matrix(1,0,0,1,965,605) translate(0 92.40234375)"/><use xlink:href="#e" transform="matrix(1,0,0,1,965,605) translate(0 112.40234375)"/><use xlink:href="#G" transform="matrix(1,0,0,1,965,605) translate(24.00390625 112.40234375)"/><use xlink:href="#H" transform="matrix(1,0,0,1,965,605) translate(60.009765625 112.40234375)"/><use xlink:href="#I" transform="matrix(1,0,0,1,965,605) translate(132.021484375 112.40234375)"/><use xlink:href="#d" transform="matrix(1,0,0,1,965,605) translate(0 132.40234375)"/><use xlink:href="#e" transform="matrix(1,0,0,1,965,605) translate(0 152.40234375)"/><use xlink:href="#G" transform="matrix(1,0,0,1,965,605) translate(24.00390625 152.40234375)"/><use xlink:href="#J" transform="matrix(1,0,0,1,965,605) translate(60.009765625 152.40234375)"/><use xlink:href="#K" transform="matrix(1,0,0,1,965,605) translate(120.01953125 152.40234375)"/></g><path d="M900 166a6 6 0 0 1 6-6h568a6 6 0 0 1 6 6v208a6 6 0 0 1-6 6H906a6 6 0 0 1-6-6z" fill="#fff"/><path d="M915.04 160.07h9.98m5 0H940m5 0h9.97m5 0h9.97m5 0h9.97m5 0h9.98m5 0h9.98m5 0h9.97m5 0h9.97m5 0l9.97-.02m5 0h9.97m5 0h9.98m5 0h9.97m4.98 0h9.98m5 0h9.97m5 0h9.98m5 0h9.98m5 0h9.97m5 0h9.97m5 0l9.97-.02m4.98 0h10m4.98 0h9.98m5 0h9.97m5 0h9.98m5 0h9.97m5 0h9.98m5 0h9.97m5 0h9.97m5 0h9.97m5 0l9.97-.02m5 0h10m4.98 0h9.98m5 0h9.97m5 0h9.97m5 0h9.97m5 0h9.98m5 0h9.97m5 0h4.98l.94.07.9.22.88.35.8.5.72.6.6.72.5.8.37.88.23.9v5m0 4.96v9.96m0 4.98v9.94m0 4.98v9.95m.02 4.98v9.95m0 4.98v9.96m0 4.97v9.95m0 4.98v9.95m.02 4.98v9.95m0 4.97v9.95m0 4.98v9.95m0 4.97l.02 9.95m0 4.98v9.95m0 4.97v9.95m0 4.98V374l-.07.94-.22.9-.35.88-.5.8-.6.72-.72.6-.8.5-.88.37-.9.23h-5m-5 0H1455m-5 0H1440m-5 0h-9.97m-5 0h-9.97m-5 0h-9.97m-5 0h-9.98m-5 0h-9.98m-5 0h-9.97m-5 0h-9.97m-5 0l-9.97.02m-5 0h-9.97m-5 0h-9.98m-5 0h-9.97m-4.98 0h-9.98m-5 0h-9.97m-5 0h-9.98m-5 0h-9.98m-5 0h-9.97m-5 0h-9.97m-5 0l-9.97.02m-4.98 0h-10m-4.98 0h-9.98m-5 0h-9.97m-5 0h-9.98m-5 0h-9.97m-5 0h-9.98m-5 0h-9.97m-5 0h-9.97m-5 0h-9.97m-5 0l-9.97.02m-5 0h-10m-4.98 0h-9.98m-5 0h-9.97m-5 0h-9.97m-5 0h-9.97m-5 0h-9.98m-5 0H916m-5 0H906l-.94-.07-.9-.22-.88-.35-.8-.5-.72-.6-.6-.72-.5-.8-.37-.88-.23-.9v-5m0-4.96v-9.96m0-4.98v-9.94m0-4.98v-9.95m-.02-4.98v-9.95m0-4.98v-9.96m0-4.97v-9.95m0-4.98v-9.95m-.02-4.98v-9.95m0-4.97v-9.95m0-4.98v-9.95m0-4.97l-.02-9.95m0-4.98v-9.95m0-4.97v-9.95m0-4.98V166l.07-.94.22-.9.35-.88.5-.8.6-.72.72-.6.8-.5.88-.37.9-.23h5" stroke="#3a414a" fill="none"/><g><use xlink:href="#a" transform="matrix(1,0,0,1,905,165) translate(0 29.12109375)"/><use xlink:href="#L" transform="matrix(1,0,0,1,905,165) translate(24.00390625 29.12109375)"/><use xlink:href="#d" transform="matrix(1,0,0,1,905,165) translate(0 49.12109375)"/><use xlink:href="#e" transform="matrix(1,0,0,1,905,165) translate(0 69.12109375)"/><use xlink:href="#M" transform="matrix(1,0,0,1,905,165) translate(24.00390625 69.12109375)"/><use xlink:href="#d" transform="matrix(1,0,0,1,905,165) translate(0 89.12109375)"/><use xlink:href="#e" transform="matrix(1,0,0,1,905,165) translate(0 109.12109375)"/><use xlink:href="#N" transform="matrix(1,0,0,1,905,165) translate(24.00390625 109.12109375)"/><use xlink:href="#d" transform="matrix(1,0,0,1,905,165) translate(0 129.12109375)"/><use xlink:href="#e" transform="matrix(1,0,0,1,905,165) translate(0 149.12109375)"/><use xlink:href="#O" transform="matrix(1,0,0,1,905,165) translate(24.00390625 149.12109375)"/><use xlink:href="#P" transform="matrix(1,0,0,1,905,165) translate(144.0234375 149.12109375)"/><use xlink:href="#Q" transform="matrix(1,0,0,1,905,165) translate(228.037109375 149.12109375)"/><use xlink:href="#R" transform="matrix(1,0,0,1,905,165) translate(252.041015625 149.12109375)"/><use xlink:href="#S" transform="matrix(1,0,0,1,905,165) translate(456.07421875 149.12109375)"/><use xlink:href="#d" transform="matrix(1,0,0,1,905,165) translate(0 169.12109375)"/><use xlink:href="#e" transform="matrix(1,0,0,1,905,165) translate(0 189.12109375)"/><use xlink:href="#T" transform="matrix(1,0,0,1,905,165) translate(24.00390625 189.12109375)"/><use xlink:href="#U" transform="matrix(1,0,0,1,905,165) translate(132.021484375 189.12109375)"/><use xlink:href="#V" transform="matrix(1,0,0,1,905,165) translate(228.037109375 189.12109375)"/></g><path d="M40.46 520h5.27m5.26 0h10.53m5.26 0H77.3m5.27 0H93.1m5.27 0h5.25" stroke="#3a414a" fill="none"/><path d="M40.48 520.5h-.52v-1h.52z" stroke="#3a414a" stroke-width=".05" fill="#3a414a"/><path d="M118.42 520l-14.27 4.64v-9.28z" stroke="#3a414a" fill="#3a414a"/><path d="M460.46 520h4.37m4.37 0h8.74m4.37 0h8.75m4.37 0H499.85l.03-.02.02-.02.03-.02.02-.03.02-.02V519.8l.02-.03v-.04l.02-.02.02-.03.02-.03.02-.02.03-.02h.04l.03-.02h3.9m3.93 0h7.82m3.92 0h3.9" stroke="#3a414a" fill="none"/><path d="M460.48 520.5h-.52v-1h.52z" stroke="#3a414a" stroke-width=".05" fill="#3a414a"/><path d="M538.45 519.56l-14.27 4.64v-9.28z" stroke="#3a414a" fill="#3a414a"/><path d="M710 596.35v5.25m0 5.26v10.5m0 5.27v10.5m0 5.27v5.25" stroke="#3a414a" fill="none"/><path d="M710 581.58l4.64 14.27h-9.28zM710 658.42l-4.64-14.27h9.28z" stroke="#3a414a" fill="#3a414a"/><path d="M943.65 520h-3.9m-3.9 0h-7.8m-3.9 0H920.16l-.04-.02-.03-.02-.02-.02-.02-.03-.02-.02-.02-.03v-.09l-.02-.04v-.02l-.03-.03-.02-.03-.03-.02-.03-.02h-.04l-.03-.02h-4.37m-4.37 0h-8.76m-4.37 0h-8.74m-4.37 0h-4.37" stroke="#3a414a" fill="none"/><path d="M958.42 520l-14.27 4.64v-9.28z" stroke="#3a414a" fill="#3a414a"/><path d="M880.5 520.06h-.5v-1h.5z" stroke="#3a414a" stroke-width=".05" fill="#3a414a"/><path d="M1300.46 520h5.27m5.26 0h10.53m5.26 0h10.52m5.27 0h10.52m5.27 0h5.25" stroke="#3a414a" fill="none"/><path d="M1300.48 520.5h-.52v-1h.52z" stroke="#3a414a" stroke-width=".05" fill="#3a414a"/><path d="M1378.42 520l-14.27 4.64v-9.28z" stroke="#3a414a" fill="#3a414a"/><defs><path fill="#3a414a" d="M726-569v408H500v-408H101v-224h399v-408h226v408h402v224H726" id="W"/><use transform="matrix(0.009765625,0,0,0.009765625,0,0)" xlink:href="#W" id="a"/><path fill="#3a414a" d="M794-190h353V0H118v-190h395v-1104H223v-190h571v1294" id="X"/><path fill="#3a414a" d="M1113-274C1038-96 884 20 626 20c-352 0-526-209-526-566 0-358 185-556 530-556 358 0 496 251 499 615H395c5 180 68 319 245 319 102 0 186-45 208-129zM857-663c-6-177-128-307-315-247-94 30-141 121-145 247h460" id="Y"/><path fill="#3a414a" d="M775-193C708-75 621 20 439 20 226 20 106-93 106-306c0-251 170-341 417-346l223-4c4-143-12-264-148-264-103 0-141 58-150 153l-293-14c37-219 194-321 455-321 263 0 418 130 417 390v392c1 84 5 161 89 160 21 0 42-2 62-6v152c-57 15-108 27-180 26-145 0-202-73-217-205h-6zm-256 17c168 0 234-139 227-325-166 4-347-25-347 173 0 94 33 152 120 152" id="Z"/><path fill="#3a414a" d="M802-909c-3-189-2-383-2-575h281v1248c-1 83 4 168 8 236H817c-9-50-14-117-15-176h-4C735-49 651 20 482 20 191 20 97-238 97-539c0-243 66-432 221-519 50-28 108-42 175-42 162 2 253 78 309 191zm-70 658c91-113 93-462 2-584-46-61-145-100-224-53-96 56-119 190-120 349 0 123 17 214 52 275 46 82 130 115 222 74 25-12 46-33 68-61" id="aa"/><path fill="#3a414a" d="M875-1102c70 0 148 7 206 17v237c-110-17-267-37-359 15-123 69-192 207-192 395V0H250c-10-367 32-789-52-1082h271c19 69 36 149 46 228h4c52-151 151-250 356-248" id="ab"/><g id="b"><use transform="matrix(0.009765625,0,0,0.009765625,0,0)" xlink:href="#X"/><use transform="matrix(0.009765625,0,0,0.009765625,12.001953125,0)" xlink:href="#Y"/><use transform="matrix(0.009765625,0,0,0.009765625,24.00390625,0)" xlink:href="#Z"/><use transform="matrix(0.009765625,0,0,0.009765625,36.005859375,0)" xlink:href="#aa"/><use transform="matrix(0.009765625,0,0,0.009765625,48.0078125,0)" xlink:href="#Y"/><use transform="matrix(0.009765625,0,0,0.009765625,60.009765625,0)" xlink:href="#ab"/></g><path fill="#3a414a" d="M844-1321c-130 0-195 53-191 182v57h443v190H653V0H373v-892H117v-190h256v-83c5-247 162-348 422-349 120-1 232 13 327 28v184c-84-10-183-19-278-19" id="ac"/><path fill="#3a414a" d="M616-1102c361 0 521 202 521 560 0 354-171 562-527 562C259 20 92-192 92-542c0-351 169-560 524-560zm-9 930c200-2 236-165 236-370 0-199-27-367-223-367-195 0-233 146-233 367 0 129 18 223 55 282s92 88 165 88" id="ad"/><path fill="#3a414a" d="M1028 0H784c-56-191-119-378-170-573C562-377 495-191 437 0H194L11-1082h228c32 239 67 472 95 714 4 40 7 80 7 119 53-195 119-378 177-568h193c56 190 120 371 169 568-1-79 11-158 21-226l91-607h226" id="ae"/><g id="c"><use transform="matrix(0.009765625,0,0,0.009765625,0,0)" xlink:href="#ac"/><use transform="matrix(0.009765625,0,0,0.009765625,12.001953125,0)" xlink:href="#ad"/><use transform="matrix(0.009765625,0,0,0.009765625,24.00390625,0)" xlink:href="#X"/><use transform="matrix(0.009765625,0,0,0.009765625,36.005859375,0)" xlink:href="#X"/><use transform="matrix(0.009765625,0,0,0.009765625,48.0078125,0)" xlink:href="#ad"/><use transform="matrix(0.009765625,0,0,0.009765625,60.009765625,0)" xlink:href="#ae"/><use transform="matrix(0.009765625,0,0,0.009765625,72.01171875,0)" xlink:href="#Y"/><use transform="matrix(0.009765625,0,0,0.009765625,84.013671875,0)" xlink:href="#ab"/></g><use transform="matrix(0.009765625,0,0,0.009765625,0,0)" xlink:href="#W" id="e"/><path fill="#3a414a" d="M429-1484c1 190-1 388 0 572 54-116 155-191 317-191 300 0 386 257 386 563 0 241-73 429-226 518-49 28-106 42-169 42-162 0-251-81-306-196h-4c-1 59-5 127-15 176H140c4-67 9-153 8-236v-1248h281zm66 648c-93 114-92 466 1 585 35 45 77 79 142 79 64 0 112-31 148-92 69-115 68-440-2-561-39-68-131-111-221-70-25 11-46 32-68 59" id="af"/><path fill="#3a414a" d="M864 0L575-490l-121 84V0H173v-1484h281v850l386-448h302L762-660 1171 0H864" id="ag"/><g id="f"><use transform="matrix(0.009765625,0,0,0.009765625,0,0)" xlink:href="#af"/><use transform="matrix(0.009765625,0,0,0.009765625,12.001953125,0)" xlink:href="#ab"/><use transform="matrix(0.009765625,0,0,0.009765625,24.00390625,0)" xlink:href="#ad"/><use transform="matrix(0.009765625,0,0,0.009765625,36.005859375,0)" xlink:href="#ag"/><use transform="matrix(0.009765625,0,0,0.009765625,48.0078125,0)" xlink:href="#Y"/><use transform="matrix(0.009765625,0,0,0.009765625,60.009765625,0)" xlink:href="#ab"/></g><path fill="#3a414a" d="M934-1102c199 0 220 177 220 381V0H926c-2-260 10-533-4-785-4-72-14-138-83-138-34 0-61 27-81 81s-29 134-29 241V0H501c-2-260 9-533-5-785-4-72-13-138-82-138-46 0-65 47-80 93-21 67-30 155-30 248V0H75c-3-360 6-732-6-1082h209c6 50 3 123 8 175 36-100 83-195 216-195 135 0 166 79 196 196 42-105 93-196 236-196" id="ah"/><path fill="#3a414a" d="M768-1103c247 0 336 167 336 416V0H824v-619c-3-164-24-273-171-273-164 0-229 142-229 312V0H143c-4-359 9-736-8-1082h268c7 63 12 146 13 215h4c67-145 160-236 348-236" id="ai"/><path fill="#3a414a" d="M1108-33c-3 314-178 467-492 467-243 0-400-94-447-291l281-33c17 79 82 141 174 141 176 0 212-155 205-347-2-40 5-80 0-115C773-85 665-12 501-12c-288 0-377-242-377-538 0-242 65-426 223-510 50-26 108-39 175-39 160 0 253 78 307 191h5c1-58 5-125 14-174h266c-12 335-3 703-6 1049zM811-384c25-82 27-259 1-342-30-99-77-180-190-180-172 0-205 171-205 356 0 116 18 202 54 258 48 76 129 107 221 70 62-25 96-86 119-162" id="aj"/><path fill="#3a414a" d="M711 13c-250 0-386-99-385-349l2-556H161v-190h181l88-282h176v282h385v190H606v530c-10 130 45 186 174 184 91-2 176-11 255-27v186C933-1 833 13 711 13" id="ak"/><g id="g"><use transform="matrix(0.009765625,0,0,0.009765625,0,0)" xlink:href="#ah"/><use transform="matrix(0.009765625,0,0,0.009765625,12.001953125,0)" xlink:href="#Z"/><use transform="matrix(0.009765625,0,0,0.009765625,24.00390625,0)" xlink:href="#ai"/><use transform="matrix(0.009765625,0,0,0.009765625,36.005859375,0)" xlink:href="#Z"/><use transform="matrix(0.009765625,0,0,0.009765625,48.0078125,0)" xlink:href="#aj"/><use transform="matrix(0.009765625,0,0,0.009765625,60.009765625,0)" xlink:href="#Y"/><use transform="matrix(0.009765625,0,0,0.009765625,72.01171875,0)" xlink:href="#ah"/><use transform="matrix(0.009765625,0,0,0.009765625,84.013671875,0)" xlink:href="#Y"/><use transform="matrix(0.009765625,0,0,0.009765625,96.015625,0)" xlink:href="#ai"/><use transform="matrix(0.009765625,0,0,0.009765625,108.017578125,0)" xlink:href="#ak"/></g><path fill="#fff" d="M169-182c-1-43-94-46-97-3 18 66 151 10 154 114 3 95-165 93-204 36-6-8-10-19-12-30l50-8c3 46 112 56 116 5-17-69-150-10-154-114-4-87 153-88 188-35 5 8 8 18 10 28" id="al"/><path fill="#fff" d="M110-194c64 0 96 36 96 99 0 64-35 99-97 99-61 0-95-36-95-99 0-62 34-99 96-99zm-1 164c35 0 45-28 45-65 0-40-10-65-43-65-34 0-45 26-45 65 0 36 10 65 43 65" id="am"/><path fill="#fff" d="M85 4C-2 5 27-109 22-190h50c7 57-23 150 33 157 60-5 35-97 40-157h50l1 190h-47c-2-12 1-28-3-38-12 25-28 42-61 42" id="an"/><path fill="#fff" d="M135-150c-39-12-60 13-60 57V0H25l-1-190h47c2 13-1 29 3 40 6-28 27-53 61-41v41" id="ao"/><path fill="#fff" d="M190-63c-7 42-38 67-86 67-59 0-84-38-90-98-12-110 154-137 174-36l-49 2c-2-19-15-32-35-32-30 0-35 28-38 64-6 74 65 87 74 30" id="ap"/><path fill="#fff" d="M185-48c-13 30-37 53-82 52C43 2 14-33 14-96s30-98 90-98c62 0 83 45 84 108H66c0 31 8 55 39 56 18 0 30-7 34-22zm-45-69c5-46-57-63-70-21-2 6-4 13-4 21h74" id="aq"/><g id="h"><use transform="matrix(0.06172839506172839,0,0,0.06172839506172839,0,0)" xlink:href="#al"/><use transform="matrix(0.06172839506172839,0,0,0.06172839506172839,14.814814814814813,0)" xlink:href="#am"/><use transform="matrix(0.06172839506172839,0,0,0.06172839506172839,28.33333333333333,0)" xlink:href="#an"/><use transform="matrix(0.06172839506172839,0,0,0.06172839506172839,41.85185185185185,0)" xlink:href="#ao"/><use transform="matrix(0.06172839506172839,0,0,0.06172839506172839,50.49382716049382,0)" xlink:href="#ap"/><use transform="matrix(0.06172839506172839,0,0,0.06172839506172839,62.8395061728395,0)" xlink:href="#aq"/></g><path fill="#fff" d="M137-138c1-29-70-34-71-4 15 46 118 7 119 86 1 83-164 76-172 9l43-7c4 19 20 25 44 25 33 8 57-30 24-41C81-84 22-81 20-136c-2-80 154-74 161-7" id="ar"/><path fill="#fff" d="M123 10C108 53 80 86 19 72V37c35 8 53-11 59-39L3-190h52l48 148c12-52 28-100 44-148h51" id="as"/><path fill="#fff" d="M115-3C79 11 28 4 28-45v-112H4v-33h27l15-45h31v45h36v33H77v99c-1 23 16 31 38 25v30" id="at"/><path fill="#fff" d="M220-157c-53 9-28 100-34 157h-49v-107c1-27-5-49-29-50C55-147 81-57 75 0H25l-1-190h47c2 12-1 28 3 38 10-53 101-56 108 0 13-22 24-43 59-42 82 1 51 116 57 194h-49v-107c-1-25-5-48-29-50" id="au"/><g id="i"><use transform="matrix(0.06172839506172839,0,0,0.06172839506172839,0,0)" xlink:href="#ar"/><use transform="matrix(0.06172839506172839,0,0,0.06172839506172839,12.345679012345679,0)" xlink:href="#as"/><use transform="matrix(0.06172839506172839,0,0,0.06172839506172839,24.691358024691358,0)" xlink:href="#ar"/><use transform="matrix(0.06172839506172839,0,0,0.06172839506172839,37.03703703703704,0)" xlink:href="#at"/><use transform="matrix(0.06172839506172839,0,0,0.06172839506172839,44.382716049382715,0)" xlink:href="#aq"/><use transform="matrix(0.06172839506172839,0,0,0.06172839506172839,56.72839506172839,0)" xlink:href="#au"/></g><path fill="#fff" d="M24-248c93 1 206-16 204 79-1 75-69 88-152 82V0H24v-248zm52 121c47 0 100 7 100-41 0-47-54-39-100-39v80" id="av"/><path fill="#fff" d="M88-194c31-1 46 15 58 34l-1-101h50l1 261h-48c-2-10 0-23-3-31C134-8 116 4 84 4 32 4 16-41 15-95c0-56 19-97 73-99zm17 164c33 0 40-30 41-66 1-37-9-64-41-64s-38 30-39 65c0 43 13 65 39 65" id="aw"/><g id="j"><use transform="matrix(0.06172839506172839,0,0,0.06172839506172839,0,0)" xlink:href="#av"/><use transform="matrix(0.06172839506172839,0,0,0.06172839506172839,14.814814814814813,0)" xlink:href="#ao"/><use transform="matrix(0.06172839506172839,0,0,0.06172839506172839,23.456790123456788,0)" xlink:href="#am"/><use transform="matrix(0.06172839506172839,0,0,0.06172839506172839,36.9753086419753,0)" xlink:href="#aw"/><use transform="matrix(0.06172839506172839,0,0,0.06172839506172839,50.49382716049382,0)" xlink:href="#an"/><use transform="matrix(0.06172839506172839,0,0,0.06172839506172839,64.01234567901234,0)" xlink:href="#ap"/><use transform="matrix(0.06172839506172839,0,0,0.06172839506172839,76.35802469135803,0)" xlink:href="#aq"/><use transform="matrix(0.06172839506172839,0,0,0.06172839506172839,88.70370370370371,0)" xlink:href="#ao"/><use transform="matrix(0.06172839506172839,0,0,0.06172839506172839,97.34567901234568,0)" xlink:href="#ar"/></g><path fill="#3a414a" d="M195 0l-88-114-31 24V0H24v-248h52v113l112-113h60L142-143 257 0h-62" id="ax"/><path fill="#3a414a" d="M133-34C117-15 103 5 69 4 32 3 11-16 11-54c-1-60 55-63 116-61 1-26-3-47-28-47-18 1-26 9-28 27l-52-2c7-38 36-58 82-57s74 22 75 68l1 82c-1 14 12 18 25 15v27c-30 8-71 5-69-32zm-48 3c29 0 43-24 42-57-32 0-66-3-65 30 0 17 8 27 23 27" id="ay"/><path fill="#3a414a" d="M121-226c-27-7-43 5-38 36h38v33H83V0H34v-157H6v-33h28c-9-59 32-81 87-68v32" id="az"/><path fill="#3a414a" d="M147 0L96-86 75-71V0H25v-261h50v150l67-79h53l-66 74L201 0h-54" id="aA"/><g id="k"><use transform="matrix(0.06790123456790123,0,0,0.06790123456790123,0,0)" xlink:href="#ax"/><use transform="matrix(0.06790123456790123,0,0,0.06790123456790123,17.586419753086417,0)" xlink:href="#ay"/><use transform="matrix(0.06790123456790123,0,0,0.06790123456790123,31.166666666666664,0)" xlink:href="#az"/><use transform="matrix(0.06790123456790123,0,0,0.06790123456790123,39.24691358024691,0)" xlink:href="#aA"/><use transform="matrix(0.06790123456790123,0,0,0.06790123456790123,52.82716049382716,0)" xlink:href="#ay"/></g><path fill="#3a414a" d="M67-125c0 53 21 87 73 88 37 1 54-22 65-47l45 17C233-25 199 4 140 4 58 4 20-42 15-125 8-235 124-281 211-232c18 10 29 29 36 50l-46 12c-8-25-30-41-62-41-52 0-71 34-72 86" id="aB"/><path fill="#3a414a" d="M25 0v-261h50V0H25" id="aC"/><path fill="#3a414a" d="M85 4C-2 5 27-109 22-190h50c7 57-23 150 33 157 60-5 35-97 40-157h50l1 190h-47c-2-12 1-28-3-38-12 25-28 42-61 42" id="aD"/><path fill="#3a414a" d="M137-138c1-29-70-34-71-4 15 46 118 7 119 86 1 83-164 76-172 9l43-7c4 19 20 25 44 25 33 8 57-30 24-41C81-84 22-81 20-136c-2-80 154-74 161-7" id="aE"/><path fill="#3a414a" d="M115-3C79 11 28 4 28-45v-112H4v-33h27l15-45h31v45h36v33H77v99c-1 23 16 31 38 25v30" id="aF"/><path fill="#3a414a" d="M185-48c-13 30-37 53-82 52C43 2 14-33 14-96s30-98 90-98c62 0 83 45 84 108H66c0 31 8 55 39 56 18 0 30-7 34-22zm-45-69c5-46-57-63-70-21-2 6-4 13-4 21h74" id="aG"/><path fill="#3a414a" d="M135-150c-39-12-60 13-60 57V0H25l-1-190h47c2 13-1 29 3 40 6-28 27-53 61-41v41" id="aH"/><g id="l"><use transform="matrix(0.06790123456790123,0,0,0.06790123456790123,0,0)" xlink:href="#aB"/><use transform="matrix(0.06790123456790123,0,0,0.06790123456790123,17.586419753086417,0)" xlink:href="#aC"/><use transform="matrix(0.06790123456790123,0,0,0.06790123456790123,24.37654320987654,0)" xlink:href="#aD"/><use transform="matrix(0.06790123456790123,0,0,0.06790123456790123,39.24691358024691,0)" xlink:href="#aE"/><use transform="matrix(0.06790123456790123,0,0,0.06790123456790123,52.82716049382716,0)" xlink:href="#aF"/><use transform="matrix(0.06790123456790123,0,0,0.06790123456790123,60.907407407407405,0)" xlink:href="#aG"/><use transform="matrix(0.06790123456790123,0,0,0.06790123456790123,74.48765432098764,0)" xlink:href="#aH"/></g><path fill="#fff" d="M182-130c37 4 62 22 62 59C244 23 116-4 24 0v-248c84 5 203-23 205 63 0 31-19 50-47 55zM76-148c40-3 101 13 101-30 0-44-60-28-101-31v61zm0 110c48-3 116 14 116-37 0-48-69-32-116-35v72" id="aI"/><path fill="#fff" d="M147 0L96-86 75-71V0H25v-261h50v150l67-79h53l-66 74L201 0h-54" id="aJ"/><g id="m"><use transform="matrix(0.06172839506172839,0,0,0.06172839506172839,0,0)" xlink:href="#aI"/><use transform="matrix(0.06172839506172839,0,0,0.06172839506172839,15.987654320987653,0)" xlink:href="#ao"/><use transform="matrix(0.06172839506172839,0,0,0.06172839506172839,24.629629629629626,0)" xlink:href="#am"/><use transform="matrix(0.06172839506172839,0,0,0.06172839506172839,38.148148148148145,0)" xlink:href="#aJ"/><use transform="matrix(0.06172839506172839,0,0,0.06172839506172839,50.49382716049382,0)" xlink:href="#aq"/><use transform="matrix(0.06172839506172839,0,0,0.06172839506172839,62.8395061728395,0)" xlink:href="#ao"/></g><path fill="#fff" d="M23 0v-37h61v-169l-59 37v-38l62-41h46v211h57V0H23" id="aK"/><path fill="#fff" d="M101-251c68 0 84 54 84 127C185-50 166 4 99 4S15-52 14-124c-1-75 17-127 87-127zm-1 216c37-5 36-46 36-89s4-89-36-89c-39 0-36 45-36 89 0 43-3 85 36 89" id="aL"/><g id="n"><use transform="matrix(0.06172839506172839,0,0,0.06172839506172839,0,0)" xlink:href="#aK"/><use transform="matrix(0.06172839506172839,0,0,0.06172839506172839,12.345679012345679,0)" xlink:href="#aL"/><use transform="matrix(0.06172839506172839,0,0,0.06172839506172839,24.691358024691358,0)" xlink:href="#aK"/></g><path fill="#fff" d="M182-182c0 78-84 86-111 141h115V0H12c-6-101 99-100 120-180 1-22-12-31-33-32-23 0-32 14-35 34l-49-3c5-45 32-70 84-70 51 0 83 22 83 69" id="aM"/><g id="o"><use transform="matrix(0.06172839506172839,0,0,0.06172839506172839,0,0)" xlink:href="#aK"/><use transform="matrix(0.06172839506172839,0,0,0.06172839506172839,12.345679012345679,0)" xlink:href="#aL"/><use transform="matrix(0.06172839506172839,0,0,0.06172839506172839,24.691358024691358,0)" xlink:href="#aM"/></g><path fill="#fff" d="M99-251c69 0 84 53 88 123 5 99-61 162-144 118-15-8-21-25-26-45l46-6c4 31 50 33 63 7 7-15 12-36 12-60-9 18-29 28-54 28-48 0-72-32-72-82 0-55 31-83 87-83zm-1 128c24 0 37-16 37-39 0-27-10-51-37-51-25 0-35 19-35 45 0 25 10 45 35 45" id="aN"/><g id="p"><use transform="matrix(0.06172839506172839,0,0,0.06172839506172839,0,0)" xlink:href="#aK"/><use transform="matrix(0.06172839506172839,0,0,0.06172839506172839,12.345679012345679,0)" xlink:href="#aL"/><use transform="matrix(0.06172839506172839,0,0,0.06172839506172839,24.691358024691358,0)" xlink:href="#aN"/></g><path fill="#3a414a" d="M24 0v-54h51V0H24" id="aO"/><g id="q"><use transform="matrix(0.0987654320987654,0,0,0.0987654320987654,0,0)" xlink:href="#aO"/><use transform="matrix(0.0987654320987654,0,0,0.0987654320987654,9.876543209876539,0)" xlink:href="#aO"/><use transform="matrix(0.0987654320987654,0,0,0.0987654320987654,19.753086419753078,0)" xlink:href="#aO"/></g><path fill="#fff" d="M210 0H11v-37l134-170H24v-41h178v36L68-41h142V0" id="aP"/><path fill="#fff" d="M135-194c53 0 70 44 70 98 0 56-19 98-73 100-31 1-45-17-59-34 3 33 2 69 2 105H25l-1-265h48c2 10 0 23 3 31 11-24 29-35 60-35zM114-30c33 0 39-31 40-66 0-38-9-64-40-64-56 0-55 130 0 130" id="aQ"/><g id="r"><use transform="matrix(0.06172839506172839,0,0,0.06172839506172839,0,0)" xlink:href="#aP"/><use transform="matrix(0.06172839506172839,0,0,0.06172839506172839,13.518518518518517,0)" xlink:href="#am"/><use transform="matrix(0.06172839506172839,0,0,0.06172839506172839,27.037037037037035,0)" xlink:href="#am"/><use transform="matrix(0.06172839506172839,0,0,0.06172839506172839,40.55555555555555,0)" xlink:href="#aJ"/><use transform="matrix(0.06172839506172839,0,0,0.06172839506172839,52.90123456790123,0)" xlink:href="#aq"/><use transform="matrix(0.06172839506172839,0,0,0.06172839506172839,65.24691358024691,0)" xlink:href="#aq"/><use transform="matrix(0.06172839506172839,0,0,0.06172839506172839,77.5925925925926,0)" xlink:href="#aQ"/><use transform="matrix(0.06172839506172839,0,0,0.06172839506172839,91.11111111111111,0)" xlink:href="#aq"/><use transform="matrix(0.06172839506172839,0,0,0.06172839506172839,103.4567901234568,0)" xlink:href="#ao"/></g><path fill="#fff" d="M67-125c0 53 21 87 73 88 37 1 54-22 65-47l45 17C233-25 199 4 140 4 58 4 20-42 15-125 8-235 124-281 211-232c18 10 29 29 36 50l-46 12c-8-25-30-41-62-41-52 0-71 34-72 86" id="aR"/><path fill="#fff" d="M135-194c87-1 58 113 63 194h-50c-7-57 23-157-34-157-59 0-34 97-39 157H25l-1-190h47c2 12-1 28 3 38 12-26 28-41 61-42" id="aS"/><g id="s"><use transform="matrix(0.06172839506172839,0,0,0.06172839506172839,0,0)" xlink:href="#aR"/><use transform="matrix(0.06172839506172839,0,0,0.06172839506172839,15.987654320987653,0)" xlink:href="#am"/><use transform="matrix(0.06172839506172839,0,0,0.06172839506172839,29.50617283950617,0)" xlink:href="#aS"/><use transform="matrix(0.06172839506172839,0,0,0.06172839506172839,43.02469135802469,0)" xlink:href="#ar"/><use transform="matrix(0.06172839506172839,0,0,0.06172839506172839,55.37037037037037,0)" xlink:href="#an"/><use transform="matrix(0.06172839506172839,0,0,0.06172839506172839,68.88888888888889,0)" xlink:href="#au"/><use transform="matrix(0.06172839506172839,0,0,0.06172839506172839,88.64197530864197,0)" xlink:href="#aq"/><use transform="matrix(0.06172839506172839,0,0,0.06172839506172839,100.98765432098766,0)" xlink:href="#ao"/><use transform="matrix(0.06172839506172839,0,0,0.06172839506172839,109.62962962962963,0)" xlink:href="#ar"/></g><path fill="#fff" d="M136-208V0H84v-208H4v-40h212v40h-80" id="aT"/><path fill="#fff" d="M133-34C117-15 103 5 69 4 32 3 11-16 11-54c-1-60 55-63 116-61 1-26-3-47-28-47-18 1-26 9-28 27l-52-2c7-38 36-58 82-57s74 22 75 68l1 82c-1 14 12 18 25 15v27c-30 8-71 5-69-32zm-48 3c29 0 43-24 42-57-32 0-66-3-65 30 0 17 8 27 23 27" id="aU"/><path fill="#fff" d="M195-6C206 82 75 100 31 46c-4-6-6-13-8-21l49-6c3 16 16 24 34 25 40 0 42-37 40-79-11 22-30 35-61 35-53 0-70-43-70-97 0-56 18-96 73-97 30 0 46 14 59 34l2-30h47zm-90-29c32 0 41-27 41-63 0-35-9-62-40-62-32 0-39 29-40 63 0 36 9 62 39 62" id="aV"/><g id="t"><use transform="matrix(0.06172839506172839,0,0,0.06172839506172839,0,0)" xlink:href="#aT"/><use transform="matrix(0.06172839506172839,0,0,0.06172839506172839,11.851851851851851,0)" xlink:href="#aU"/><use transform="matrix(0.06172839506172839,0,0,0.06172839506172839,24.19753086419753,0)" xlink:href="#ao"/><use transform="matrix(0.06172839506172839,0,0,0.06172839506172839,32.839506172839506,0)" xlink:href="#aV"/><use transform="matrix(0.06172839506172839,0,0,0.06172839506172839,46.358024691358025,0)" xlink:href="#aq"/><use transform="matrix(0.06172839506172839,0,0,0.06172839506172839,58.7037037037037,0)" xlink:href="#at"/></g><g id="u"><use transform="matrix(0.06172839506172839,0,0,0.06172839506172839,0,0)" xlink:href="#al"/><use transform="matrix(0.06172839506172839,0,0,0.06172839506172839,14.814814814814813,0)" xlink:href="#as"/><use transform="matrix(0.06172839506172839,0,0,0.06172839506172839,27.160493827160494,0)" xlink:href="#ar"/><use transform="matrix(0.06172839506172839,0,0,0.06172839506172839,39.50617283950617,0)" xlink:href="#at"/><use transform="matrix(0.06172839506172839,0,0,0.06172839506172839,46.85185185185185,0)" xlink:href="#aq"/><use transform="matrix(0.06172839506172839,0,0,0.06172839506172839,59.197530864197525,0)" xlink:href="#au"/><use transform="matrix(0.06172839506172839,0,0,0.06172839506172839,78.9506172839506,0)" xlink:href="#ar"/></g><path fill="#3a414a" d="M471 20c-247 0-336-169-336-415v-687h281v607c4 148 31 285 172 285 152 0 207-150 207-312v-580h281c4 359-9 736 8 1082H816c-7-63-11-146-12-215h-5C736-76 644 20 471 20" id="aW"/><g id="v"><use transform="matrix(0.009765625,0,0,0.009765625,0,0)" xlink:href="#ab"/><use transform="matrix(0.009765625,0,0,0.009765625,12.001953125,0)" xlink:href="#ad"/><use transform="matrix(0.009765625,0,0,0.009765625,24.00390625,0)" xlink:href="#aW"/><use transform="matrix(0.009765625,0,0,0.009765625,36.005859375,0)" xlink:href="#ai"/><use transform="matrix(0.009765625,0,0,0.009765625,48.0078125,0)" xlink:href="#aa"/></g><path fill="#3a414a" d="M794-190h353V0H118v-190h395v-702H223v-190h571v892zM513-1277v-207h281v207H513" id="aX"/><g id="w"><use transform="matrix(0.009765625,0,0,0.009765625,0,0)" xlink:href="#ab"/><use transform="matrix(0.009765625,0,0,0.009765625,12.001953125,0)" xlink:href="#ad"/><use transform="matrix(0.009765625,0,0,0.009765625,24.00390625,0)" xlink:href="#af"/><use transform="matrix(0.009765625,0,0,0.009765625,36.005859375,0)" xlink:href="#aX"/><use transform="matrix(0.009765625,0,0,0.009765625,48.0078125,0)" xlink:href="#ai"/></g><path fill="#3a414a" d="M143 212c82 12 185 12 233-31 50-45 83-117 110-192L38-1082h297c100 284 211 557 291 861 72-305 176-578 270-861h294L742 57c-80 192-156 368-417 368-60 0-131-4-182-13V212" id="aY"/><g id="x"><use transform="matrix(0.009765625,0,0,0.009765625,0,0)" xlink:href="#ag"/><use transform="matrix(0.009765625,0,0,0.009765625,12.001953125,0)" xlink:href="#Y"/><use transform="matrix(0.009765625,0,0,0.009765625,24.00390625,0)" xlink:href="#aY"/></g><path fill="#3a414a" d="M622-916c-112 2-200 14-200 111 0 90 89 101 168 121 234 58 514 77 514 368C1104-4 751 54 434 5 267-21 161-112 121-270l247-37c24 111 113 145 252 141 114-3 226-12 226-124 0-101-103-113-192-134-225-54-490-76-490-351 0-247 201-328 458-328 245 0 413 88 457 292l-249 26c-16-98-92-133-208-131" id="aZ"/><g id="y"><use transform="matrix(0.009765625,0,0,0.009765625,0,0)" xlink:href="#af"/><use transform="matrix(0.009765625,0,0,0.009765625,12.001953125,0)" xlink:href="#Z"/><use transform="matrix(0.009765625,0,0,0.009765625,24.00390625,0)" xlink:href="#aZ"/><use transform="matrix(0.009765625,0,0,0.009765625,36.005859375,0)" xlink:href="#Y"/><use transform="matrix(0.009765625,0,0,0.009765625,48.0078125,0)" xlink:href="#aa"/></g><g id="z"><use transform="matrix(0.009765625,0,0,0.009765625,0,0)" xlink:href="#ad"/><use transform="matrix(0.009765625,0,0,0.009765625,12.001953125,0)" xlink:href="#ab"/><use transform="matrix(0.009765625,0,0,0.009765625,24.00390625,0)" xlink:href="#aa"/><use transform="matrix(0.009765625,0,0,0.009765625,36.005859375,0)" xlink:href="#Y"/><use transform="matrix(0.009765625,0,0,0.009765625,48.0078125,0)" xlink:href="#ab"/><use transform="matrix(0.009765625,0,0,0.009765625,60.009765625,0)" xlink:href="#aX"/><use transform="matrix(0.009765625,0,0,0.009765625,72.01171875,0)" xlink:href="#ai"/><use transform="matrix(0.009765625,0,0,0.009765625,84.013671875,0)" xlink:href="#aj"/></g><path fill="#3a414a" d="M1109-360C1066-122 902 20 624 20c-347 0-514-209-514-555 0-353 168-567 518-567 270 0 425 136 473 361l-283 14c-16-106-75-183-196-182-75 0-130 31-165 93s-52 152-52 270c0 249 74 374 221 374 120 0 188-82 201-201" id="ba"/><g id="A"><use transform="matrix(0.009765625,0,0,0.009765625,0,0)" xlink:href="#Z"/><use transform="matrix(0.009765625,0,0,0.009765625,12.001953125,0)" xlink:href="#ba"/><use transform="matrix(0.009765625,0,0,0.009765625,24.00390625,0)" xlink:href="#ag"/><use transform="matrix(0.009765625,0,0,0.009765625,36.005859375,0)" xlink:href="#aZ"/></g><g id="B"><use transform="matrix(0.009765625,0,0,0.009765625,0,0)" xlink:href="#aZ"/><use transform="matrix(0.009765625,0,0,0.009765625,12.001953125,0)" xlink:href="#ak"/><use transform="matrix(0.009765625,0,0,0.009765625,24.00390625,0)" xlink:href="#ab"/><use transform="matrix(0.009765625,0,0,0.009765625,36.005859375,0)" xlink:href="#Z"/><use transform="matrix(0.009765625,0,0,0.009765625,48.0078125,0)" xlink:href="#ak"/><use transform="matrix(0.009765625,0,0,0.009765625,60.009765625,0)" xlink:href="#Y"/><use transform="matrix(0.009765625,0,0,0.009765625,72.01171875,0)" xlink:href="#aj"/><use transform="matrix(0.009765625,0,0,0.009765625,84.013671875,0)" xlink:href="#aX"/><use transform="matrix(0.009765625,0,0,0.009765625,96.015625,0)" xlink:href="#Y"/><use transform="matrix(0.009765625,0,0,0.009765625,108.017578125,0)" xlink:href="#aZ"/></g><g id="C"><use transform="matrix(0.009765625,0,0,0.009765625,0,0)" xlink:href="#ba"/><use transform="matrix(0.009765625,0,0,0.009765625,12.001953125,0)" xlink:href="#ad"/><use transform="matrix(0.009765625,0,0,0.009765625,24.00390625,0)" xlink:href="#ai"/><use transform="matrix(0.009765625,0,0,0.009765625,36.005859375,0)" xlink:href="#aZ"/><use transform="matrix(0.009765625,0,0,0.009765625,48.0078125,0)" xlink:href="#aW"/><use transform="matrix(0.009765625,0,0,0.009765625,60.009765625,0)" xlink:href="#ah"/><use transform="matrix(0.009765625,0,0,0.009765625,72.01171875,0)" xlink:href="#Y"/><use transform="matrix(0.009765625,0,0,0.009765625,84.013671875,0)" xlink:href="#ab"/></g><g id="D"><use transform="matrix(0.009765625,0,0,0.009765625,0,0)" xlink:href="#ad"/><use transform="matrix(0.009765625,0,0,0.009765625,12.001953125,0)" xlink:href="#ac"/><use transform="matrix(0.009765625,0,0,0.009765625,24.00390625,0)" xlink:href="#ac"/><use transform="matrix(0.009765625,0,0,0.009765625,36.005859375,0)" xlink:href="#aZ"/><use transform="matrix(0.009765625,0,0,0.009765625,48.0078125,0)" xlink:href="#Y"/><use transform="matrix(0.009765625,0,0,0.009765625,60.009765625,0)" xlink:href="#ak"/><use transform="matrix(0.009765625,0,0,0.009765625,72.01171875,0)" xlink:href="#aZ"/></g><g id="E"><use transform="matrix(0.009765625,0,0,0.009765625,0,0)" xlink:href="#ba"/><use transform="matrix(0.009765625,0,0,0.009765625,12.001953125,0)" xlink:href="#ad"/><use transform="matrix(0.009765625,0,0,0.009765625,24.00390625,0)" xlink:href="#ai"/><use transform="matrix(0.009765625,0,0,0.009765625,36.005859375,0)" xlink:href="#aZ"/><use transform="matrix(0.009765625,0,0,0.009765625,48.0078125,0)" xlink:href="#aW"/><use transform="matrix(0.009765625,0,0,0.009765625,60.009765625,0)" xlink:href="#ah"/><use transform="matrix(0.009765625,0,0,0.009765625,72.01171875,0)" xlink:href="#Y"/><use transform="matrix(0.009765625,0,0,0.009765625,84.013671875,0)" xlink:href="#ab"/></g><path fill="#3a414a" d="M427-171c3 195 2 397 2 596H148V-846c1-83-4-168-8-236h272c10 49 14 118 15 176h4c59-114 151-197 316-197 291 0 385 259 385 560 0 243-65 433-220 521-50 28-109 42-176 42-162-2-253-78-309-191zm69-661c-91 113-92 463-1 586 46 62 145 101 225 54 96-57 118-191 119-351 0-123-18-215-53-276-46-82-128-115-220-74-25 12-48 33-70 61" id="bb"/><g id="F"><use transform="matrix(0.009765625,0,0,0.009765625,0,0)" xlink:href="#aj"/><use transform="matrix(0.009765625,0,0,0.009765625,12.001953125,0)" xlink:href="#ab"/><use transform="matrix(0.009765625,0,0,0.009765625,24.00390625,0)" xlink:href="#ad"/><use transform="matrix(0.009765625,0,0,0.009765625,36.005859375,0)" xlink:href="#aW"/><use transform="matrix(0.009765625,0,0,0.009765625,48.0078125,0)" xlink:href="#bb"/><use transform="matrix(0.009765625,0,0,0.009765625,60.009765625,0)" xlink:href="#aZ"/></g><g id="G"><use transform="matrix(0.009765625,0,0,0.009765625,0,0)" xlink:href="#Z"/><use transform="matrix(0.009765625,0,0,0.009765625,12.001953125,0)" xlink:href="#ak"/></g><g id="H"><use transform="matrix(0.009765625,0,0,0.009765625,0,0)" xlink:href="#X"/><use transform="matrix(0.009765625,0,0,0.009765625,12.001953125,0)" xlink:href="#Y"/><use transform="matrix(0.009765625,0,0,0.009765625,24.00390625,0)" xlink:href="#Z"/><use transform="matrix(0.009765625,0,0,0.009765625,36.005859375,0)" xlink:href="#aZ"/><use transform="matrix(0.009765625,0,0,0.009765625,48.0078125,0)" xlink:href="#ak"/></g><g id="I"><use transform="matrix(0.009765625,0,0,0.009765625,0,0)" xlink:href="#ad"/><use transform="matrix(0.009765625,0,0,0.009765625,12.001953125,0)" xlink:href="#ai"/><use transform="matrix(0.009765625,0,0,0.009765625,24.00390625,0)" xlink:href="#ba"/><use transform="matrix(0.009765625,0,0,0.009765625,36.005859375,0)" xlink:href="#Y"/></g><g id="J"><use transform="matrix(0.009765625,0,0,0.009765625,0,0)" xlink:href="#ah"/><use transform="matrix(0.009765625,0,0,0.009765625,12.001953125,0)" xlink:href="#ad"/><use transform="matrix(0.009765625,0,0,0.009765625,24.00390625,0)" xlink:href="#aZ"/><use transform="matrix(0.009765625,0,0,0.009765625,36.005859375,0)" xlink:href="#ak"/></g><g id="K"><use transform="matrix(0.009765625,0,0,0.009765625,0,0)" xlink:href="#ad"/><use transform="matrix(0.009765625,0,0,0.009765625,12.001953125,0)" xlink:href="#ai"/><use transform="matrix(0.009765625,0,0,0.009765625,24.00390625,0)" xlink:href="#ba"/><use transform="matrix(0.009765625,0,0,0.009765625,36.005859375,0)" xlink:href="#Y"/></g><g id="L"><use transform="matrix(0.009765625,0,0,0.009765625,0,0)" xlink:href="#ak"/><use transform="matrix(0.009765625,0,0,0.009765625,12.001953125,0)" xlink:href="#ad"/><use transform="matrix(0.009765625,0,0,0.009765625,24.00390625,0)" xlink:href="#bb"/><use transform="matrix(0.009765625,0,0,0.009765625,36.005859375,0)" xlink:href="#aX"/><use transform="matrix(0.009765625,0,0,0.009765625,48.0078125,0)" xlink:href="#ba"/><use transform="matrix(0.009765625,0,0,0.009765625,60.009765625,0)" xlink:href="#aZ"/></g><g id="M"><use transform="matrix(0.009765625,0,0,0.009765625,0,0)" xlink:href="#bb"/><use transform="matrix(0.009765625,0,0,0.009765625,12.001953125,0)" xlink:href="#Z"/><use transform="matrix(0.009765625,0,0,0.009765625,24.00390625,0)" xlink:href="#ab"/><use transform="matrix(0.009765625,0,0,0.009765625,36.005859375,0)" xlink:href="#ak"/><use transform="matrix(0.009765625,0,0,0.009765625,48.0078125,0)" xlink:href="#aX"/><use transform="matrix(0.009765625,0,0,0.009765625,60.009765625,0)" xlink:href="#ak"/><use transform="matrix(0.009765625,0,0,0.009765625,72.01171875,0)" xlink:href="#aX"/><use transform="matrix(0.009765625,0,0,0.009765625,84.013671875,0)" xlink:href="#ad"/><use transform="matrix(0.009765625,0,0,0.009765625,96.015625,0)" xlink:href="#ai"/><use transform="matrix(0.009765625,0,0,0.009765625,108.017578125,0)" xlink:href="#aZ"/></g><g id="N"><use transform="matrix(0.009765625,0,0,0.009765625,0,0)" xlink:href="#ab"/><use transform="matrix(0.009765625,0,0,0.009765625,12.001953125,0)" xlink:href="#Y"/><use transform="matrix(0.009765625,0,0,0.009765625,24.00390625,0)" xlink:href="#bb"/><use transform="matrix(0.009765625,0,0,0.009765625,36.005859375,0)" xlink:href="#X"/><use transform="matrix(0.009765625,0,0,0.009765625,48.0078125,0)" xlink:href="#aX"/><use transform="matrix(0.009765625,0,0,0.009765625,60.009765625,0)" xlink:href="#ba"/><use transform="matrix(0.009765625,0,0,0.009765625,72.01171875,0)" xlink:href="#Z"/><use transform="matrix(0.009765625,0,0,0.009765625,84.013671875,0)" xlink:href="#ak"/><use transform="matrix(0.009765625,0,0,0.009765625,96.015625,0)" xlink:href="#aX"/><use transform="matrix(0.009765625,0,0,0.009765625,108.017578125,0)" xlink:href="#ad"/><use transform="matrix(0.009765625,0,0,0.009765625,120.01953125,0)" xlink:href="#ai"/><use transform="matrix(0.009765625,0,0,0.009765625,132.021484375,0)" xlink:href="#aZ"/></g><g id="O"><use transform="matrix(0.009765625,0,0,0.009765625,0,0)" xlink:href="#bb"/><use transform="matrix(0.009765625,0,0,0.009765625,12.001953125,0)" xlink:href="#Z"/><use transform="matrix(0.009765625,0,0,0.009765625,24.00390625,0)" xlink:href="#ab"/><use transform="matrix(0.009765625,0,0,0.009765625,36.005859375,0)" xlink:href="#ak"/><use transform="matrix(0.009765625,0,0,0.009765625,48.0078125,0)" xlink:href="#aX"/><use transform="matrix(0.009765625,0,0,0.009765625,60.009765625,0)" xlink:href="#ak"/><use transform="matrix(0.009765625,0,0,0.009765625,72.01171875,0)" xlink:href="#aX"/><use transform="matrix(0.009765625,0,0,0.009765625,84.013671875,0)" xlink:href="#ad"/><use transform="matrix(0.009765625,0,0,0.009765625,96.015625,0)" xlink:href="#ai"/></g><g id="P"><use transform="matrix(0.009765625,0,0,0.009765625,0,0)" xlink:href="#X"/><use transform="matrix(0.009765625,0,0,0.009765625,12.001953125,0)" xlink:href="#Y"/><use transform="matrix(0.009765625,0,0,0.009765625,24.00390625,0)" xlink:href="#Z"/><use transform="matrix(0.009765625,0,0,0.009765625,36.005859375,0)" xlink:href="#aa"/><use transform="matrix(0.009765625,0,0,0.009765625,48.0078125,0)" xlink:href="#Y"/><use transform="matrix(0.009765625,0,0,0.009765625,60.009765625,0)" xlink:href="#ab"/></g><path fill="#3a414a" d="M959-262c59 58 164 96 262 56v196c-22 13-62 21-95 21-136-2-224-53-300-115C735-36 625 19 467 19 193 19 24-102 24-369c0-221 148-330 302-410-35-71-71-170-71-267 0-214 138-311 361-311 198 0 337 89 337 284 0 164-121 237-231 303-43 26-88 47-134 68 64 112 131 207 214 302 50-98 85-203 108-324l204 27c-29 159-84 311-155 435zM267-373c0 134 74 207 210 210 82 2 151-41 194-76-98-109-188-228-262-360-74 46-142 109-142 226zm347-822c-133 0-177 123-136 245 11 32 22 62 37 91 79-39 165-72 206-145 48-85 0-191-107-191" id="bc"/><use transform="matrix(0.009765625,0,0,0.009765625,0,0)" xlink:href="#bc" id="Q"/><path fill="#3a414a" d="M324-409v-244h580v244H324" id="bd"/><g id="R"><use transform="matrix(0.009765625,0,0,0.009765625,0,0)" xlink:href="#aX"/><use transform="matrix(0.009765625,0,0,0.009765625,12.001953125,0)" xlink:href="#ai"/><use transform="matrix(0.009765625,0,0,0.009765625,24.00390625,0)" xlink:href="#bd"/><use transform="matrix(0.009765625,0,0,0.009765625,36.005859375,0)" xlink:href="#aZ"/><use transform="matrix(0.009765625,0,0,0.009765625,48.0078125,0)" xlink:href="#aY"/><use transform="matrix(0.009765625,0,0,0.009765625,60.009765625,0)" xlink:href="#ai"/><use transform="matrix(0.009765625,0,0,0.009765625,72.01171875,0)" xlink:href="#ba"/><use transform="matrix(0.009765625,0,0,0.009765625,84.013671875,0)" xlink:href="#bd"/><use transform="matrix(0.009765625,0,0,0.009765625,96.015625,0)" xlink:href="#ab"/><use transform="matrix(0.009765625,0,0,0.009765625,108.017578125,0)" xlink:href="#Y"/><use transform="matrix(0.009765625,0,0,0.009765625,120.01953125,0)" xlink:href="#bb"/><use transform="matrix(0.009765625,0,0,0.009765625,132.021484375,0)" xlink:href="#X"/><use transform="matrix(0.009765625,0,0,0.009765625,144.0234375,0)" xlink:href="#aX"/><use transform="matrix(0.009765625,0,0,0.009765625,156.025390625,0)" xlink:href="#ba"/><use transform="matrix(0.009765625,0,0,0.009765625,168.02734375,0)" xlink:href="#Z"/><use transform="matrix(0.009765625,0,0,0.009765625,180.029296875,0)" xlink:href="#aZ"/></g><path fill="#3a414a" d="M621-530c0 421 127 700 301 955H641C466 173 344-110 344-531s122-702 297-953h281c-174 254-301 534-301 954" id="be"/><path fill="#3a414a" d="M157-1349h916v228H762v893h311V0H157v-228h311v-893H157v-228" id="bf"/><path fill="#3a414a" d="M609-1161c-125 0-218 36-218 153 0 149 166 161 290 196 235 67 484 129 484 421 0 300-239 408-554 411C302 23 93-114 38-367l285-37c32 128 131 205 296 203 143-2 259-31 259-173 0-164-197-172-333-212-218-64-441-131-441-405 0-276 231-379 511-379 299 0 463 114 513 363l-286 29c-28-115-96-183-233-183" id="bg"/><path fill="#3a414a" d="M1157-949c0 209-118 316-279 368L1227 0H895L605-515H432V0H137v-1349h494c317-2 526 111 526 400zM608-744c158 1 248-51 252-193 5-207-223-184-428-183v376h176" id="bh"/><path fill="#3a414a" d="M885-531c0 421-122 704-297 956H307c174-255 301-534 301-955 0-420-127-700-301-954h281c175 251 297 532 297 953" id="bi"/><g id="S"><use transform="matrix(0.009765625,0,0,0.009765625,0,0)" xlink:href="#be"/><use transform="matrix(0.009765625,0,0,0.009765625,12.001953125,0)" xlink:href="#bf"/><use transform="matrix(0.009765625,0,0,0.009765625,24.00390625,0)" xlink:href="#bg"/><use transform="matrix(0.009765625,0,0,0.009765625,36.005859375,0)" xlink:href="#bh"/><use transform="matrix(0.009765625,0,0,0.009765625,48.0078125,0)" xlink:href="#bi"/></g><g id="T"><use transform="matrix(0.009765625,0,0,0.009765625,0,0)" xlink:href="#aX"/><use transform="matrix(0.009765625,0,0,0.009765625,12.001953125,0)" xlink:href="#ai"/><use transform="matrix(0.009765625,0,0,0.009765625,24.00390625,0)" xlink:href="#ak"/><use transform="matrix(0.009765625,0,0,0.009765625,36.005859375,0)" xlink:href="#Y"/><use transform="matrix(0.009765625,0,0,0.009765625,48.0078125,0)" xlink:href="#ab"/><use transform="matrix(0.009765625,0,0,0.009765625,60.009765625,0)" xlink:href="#ai"/><use transform="matrix(0.009765625,0,0,0.009765625,72.01171875,0)" xlink:href="#Z"/><use transform="matrix(0.009765625,0,0,0.009765625,84.013671875,0)" xlink:href="#X"/></g><g id="U"><use transform="matrix(0.009765625,0,0,0.009765625,0,0)" xlink:href="#ad"/><use transform="matrix(0.009765625,0,0,0.009765625,12.001953125,0)" xlink:href="#ac"/><use transform="matrix(0.009765625,0,0,0.009765625,24.00390625,0)" xlink:href="#ac"/><use transform="matrix(0.009765625,0,0,0.009765625,36.005859375,0)" xlink:href="#aZ"/><use transform="matrix(0.009765625,0,0,0.009765625,48.0078125,0)" xlink:href="#Y"/><use transform="matrix(0.009765625,0,0,0.009765625,60.009765625,0)" xlink:href="#ak"/><use transform="matrix(0.009765625,0,0,0.009765625,72.01171875,0)" xlink:href="#aZ"/></g><g id="V"><use transform="matrix(0.009765625,0,0,0.009765625,0,0)" xlink:href="#ak"/><use transform="matrix(0.009765625,0,0,0.009765625,12.001953125,0)" xlink:href="#ad"/><use transform="matrix(0.009765625,0,0,0.009765625,24.00390625,0)" xlink:href="#bb"/><use transform="matrix(0.009765625,0,0,0.009765625,36.005859375,0)" xlink:href="#aX"/><use transform="matrix(0.009765625,0,0,0.009765625,48.0078125,0)" xlink:href="#aZ"/></g></defs></g></svg>