<svg xmlns="http://www.w3.org/2000/svg" xmlns:xlink="http://www.w3.org/1999/xlink" xmlns:lucid="lucid" width="2260" height="901"><g transform="translate(-40 1)" lucid:page-tab-id="0_0"><path d="M816 306h439c2.76 0 5 2.24 5 5v564c0 2.76-2.24 5-5 5H65c-2.76 0-5-2.24-5-5V285c0-2.76 2.24-5 5-5h710c2.76 0 6.8 1.3 9.05 2.93zm-756 0h756" stroke="#000" stroke-width="2" fill="#e5e5e5"/><use xlink:href="#a" transform="matrix(1,0,0,1,68,280) translate(0 21.333333333333336)"/><path d="M842 440h483c2.76 0 5-2.24 5-5V125c0-2.76 2.24-5 5-5h342.18" stroke="#000" stroke-width="2" fill="none"/><path d="M842.03 441H841v-2h1.03z"/><path d="M1659.82 130.18l17.22-10.18-17.22-10.18M842 440h483c2.76 0 5 2.24 5 5v112.38c0 2.76 2.24 5 5 5h342.18" stroke="#000" stroke-width="2" fill="none"/><path d="M842.03 441H841v-2h1.03z"/><path d="M1659.82 572.56l17.22-10.18-17.22-10.18" stroke="#000" stroke-width="2" fill="none"/><path d="M480 325c0-2.76 2.24-5 5-5h350c2.76 0 5 2.24 5 5v230c0 2.76-2.24 5-5 5H485c-2.76 0-5-2.24-5-5z" stroke="#000" stroke-width="2" fill="#fff"/><path d="M480 355h360m-360 67h360" stroke="#000" stroke-width="2" fill="none"/><use xlink:href="#b" transform="matrix(1,0,0,1,488,320) translate(0 20.61111111111111)"/><use xlink:href="#c" transform="matrix(1,0,0,1,492,362.6666666666667) translate(0 19.777777777777775)"/><use xlink:href="#d" transform="matrix(1,0,0,1,492,362.6666666666667) translate(93.1604938271605 19.777777777777775)"/><use xlink:href="#e" transform="matrix(1,0,0,1,492,362.6666666666667) translate(0 38.44444444444444)"/><use xlink:href="#f" transform="matrix(1,0,0,1,492,362.6666666666667) translate(118.22222222222221 38.44444444444444)"/><use xlink:href="#g" transform="matrix(1,0,0,1,492,429.9890710382514) translate(0 27.277777777777768)"/><use xlink:href="#h" transform="matrix(1,0,0,1,492,429.9890710382514) translate(0 45.94444444444444)"/><use xlink:href="#i" transform="matrix(1,0,0,1,492,429.9890710382514) translate(0 64.61111111111111)"/><use xlink:href="#j" transform="matrix(1,0,0,1,492,429.9890710382514) translate(0 83.27777777777779)"/><use xlink:href="#k" transform="matrix(1,0,0,1,492,429.9890710382514) translate(0 101.94444444444444)"/><path d="M80 705c0-2.76 2.24-5 5-5h250c2.76 0 5 2.24 5 5v150c0 2.76-2.24 5-5 5H85c-2.76 0-5-2.24-5-5z" stroke="#000" stroke-width="2" fill="#fff"/><path d="M80 735h260M80 775h260" stroke="#000" stroke-width="2" fill="none"/><use xlink:href="#l" transform="matrix(1,0,0,1,88,700) translate(0 20.61111111111111)"/><use xlink:href="#m" transform="matrix(1,0,0,1,92,783.4) translate(0 18.944444444444443)"/><use xlink:href="#n" transform="matrix(1,0,0,1,92,783.4) translate(62.91358024691358 18.944444444444443)"/><use xlink:href="#o" transform="matrix(1,0,0,1,92,783.4) translate(0 37.611111111111114)"/><use xlink:href="#p" transform="matrix(1,0,0,1,92,783.4) translate(8.641975308641976 37.611111111111114)"/><use xlink:href="#q" transform="matrix(1,0,0,1,92,783.4) translate(21.604938271604944 37.611111111111114)"/><use xlink:href="#r" transform="matrix(1,0,0,1,92,783.4) translate(0 56.277777777777786)"/><path d="M380 705c0-2.76 2.24-5 5-5h250c2.76 0 5 2.24 5 5v150c0 2.76-2.24 5-5 5H385c-2.76 0-5-2.24-5-5z" stroke="#000" stroke-width="2" fill="#fff"/><path d="M380 735h260m-260 40h260" stroke="#000" stroke-width="2" fill="none"/><use xlink:href="#s" transform="matrix(1,0,0,1,388,700) translate(0 20.61111111111111)"/><use xlink:href="#m" transform="matrix(1,0,0,1,392,783.4) translate(0 18.944444444444443)"/><use xlink:href="#n" transform="matrix(1,0,0,1,392,783.4) translate(62.91358024691358 18.944444444444443)"/><use xlink:href="#o" transform="matrix(1,0,0,1,392,783.4) translate(0 37.611111111111114)"/><use xlink:href="#p" transform="matrix(1,0,0,1,392,783.4) translate(8.641975308641976 37.611111111111114)"/><use xlink:href="#q" transform="matrix(1,0,0,1,392,783.4) translate(21.604938271604944 37.611111111111114)"/><use xlink:href="#r" transform="matrix(1,0,0,1,392,783.4) translate(0 56.277777777777786)"/><path d="M980 705c0-2.76 2.24-5 5-5h250c2.76 0 5 2.24 5 5v150c0 2.76-2.24 5-5 5H985c-2.76 0-5-2.24-5-5z" stroke="#000" stroke-width="2" fill="#fff"/><path d="M980 735h260m-260 40h260" stroke="#000" stroke-width="2" fill="none"/><use xlink:href="#t" transform="matrix(1,0,0,1,988,700) translate(0 20.61111111111111)"/><use xlink:href="#m" transform="matrix(1,0,0,1,992,783.4) translate(0 18.944444444444443)"/><use xlink:href="#n" transform="matrix(1,0,0,1,992,783.4) translate(62.91358024691358 18.944444444444443)"/><use xlink:href="#o" transform="matrix(1,0,0,1,992,783.4) translate(0 37.611111111111114)"/><use xlink:href="#p" transform="matrix(1,0,0,1,992,783.4) translate(8.641975308641976 37.611111111111114)"/><use xlink:href="#q" transform="matrix(1,0,0,1,992,783.4) translate(21.604938271604944 37.611111111111114)"/><use xlink:href="#r" transform="matrix(1,0,0,1,992,783.4) translate(0 56.277777777777786)"/><path d="M680 705c0-2.76 2.24-5 5-5h250c2.76 0 5 2.24 5 5v150c0 2.76-2.24 5-5 5H685c-2.76 0-5-2.24-5-5z" stroke="#000" stroke-width="2" fill="#fff"/><path d="M680 735h260m-260 40h260" stroke="#000" stroke-width="2" fill="none"/><use xlink:href="#u" transform="matrix(1,0,0,1,688,700) translate(0 20.61111111111111)"/><use xlink:href="#m" transform="matrix(1,0,0,1,692,783.4) translate(0 18.944444444444443)"/><use xlink:href="#n" transform="matrix(1,0,0,1,692,783.4) translate(62.91358024691358 18.944444444444443)"/><use xlink:href="#o" transform="matrix(1,0,0,1,692,783.4) translate(0 37.611111111111114)"/><use xlink:href="#p" transform="matrix(1,0,0,1,692,783.4) translate(8.641975308641976 37.611111111111114)"/><use xlink:href="#q" transform="matrix(1,0,0,1,692,783.4) translate(21.604938271604944 37.611111111111114)"/><use xlink:href="#r" transform="matrix(1,0,0,1,692,783.4) translate(0 56.277777777777786)"/><path d="M210 698v-63c0-2.76 2.24-5 5-5h440c2.76 0 5-2.24 5-5v-45.5" stroke="#000" stroke-width="2" fill="none"/><path d="M211 699h-2v-1.03h2z"/><path d="M660 564.24l4.64 14.26h-9.28z" stroke="#000" stroke-width="2"/><path d="M510 698v-63c0-2.76 2.24-5 5-5h140c2.76 0 5-2.24 5-5v-45.5" stroke="#000" stroke-width="2" fill="none"/><path d="M511 699h-2v-1.03h2z"/><path d="M660 564.24l4.64 14.26h-9.28z" stroke="#000" stroke-width="2"/><path d="M810 698v-63c0-2.76-2.24-5-5-5H665c-2.76 0-5-2.24-5-5v-45.5" stroke="#000" stroke-width="2" fill="none"/><path d="M811 699h-2v-1.03h2z"/><path d="M660 564.24l4.64 14.26h-9.28z" stroke="#000" stroke-width="2"/><path d="M1110 698v-63c0-2.76-2.24-5-5-5H665c-2.76 0-5-2.24-5-5v-45.5" stroke="#000" stroke-width="2" fill="none"/><path d="M1111 699h-2v-1.03h2z"/><path d="M660 564.24l4.64 14.26h-9.28z" stroke="#000" stroke-width="2"/><path d="M1969 486h306c2.76 0 5 2.24 5 5v384c0 2.76-2.24 5-5 5h-830c-2.76 0-5-2.24-5-5V465c0-2.76 2.24-5 5-5h494c2.76 0 6.55 1.6 8.47 3.6zm-529 0h529" stroke="#000" stroke-width="2" fill="#e5e5e5"/><use xlink:href="#v" transform="matrix(1,0,0,1,1448,460) translate(0 21.333333333333336)"/><use xlink:href="#w" transform="matrix(1,0,0,1,1448,460) translate(180.3703703703704 21.333333333333336)"/><use xlink:href="#x" transform="matrix(1,0,0,1,1448,460) translate(264.66666666666674 21.333333333333336)"/><path d="M1680 505c0-2.76 2.24-5 5-5h350c2.76 0 5 2.24 5 5v114.76c0 2.76-2.24 5-5 5h-350c-2.76 0-5-2.24-5-5z" stroke="#000" stroke-width="2" fill="#fff"/><path d="M1680 559h360" stroke="#000" stroke-width="2" fill="none"/><use xlink:href="#y" transform="matrix(1,0,0,1,1688,500) translate(113.57499999999999 22.799999999999997)"/><use xlink:href="#z" transform="matrix(1,0,0,1,1688,500) translate(106.1 44.4)"/><use xlink:href="#A" transform="matrix(1,0,0,1,1692,567.2) translate(0 28.11111111111111)"/><path d="M1460 705c0-2.76 2.24-5 5-5h350c2.76 0 5 2.24 5 5v150c0 2.76-2.24 5-5 5h-350c-2.76 0-5-2.24-5-5z" stroke="#000" stroke-width="2" fill="#fff"/><path d="M1460 735h360m-360 40h360" stroke="#000" stroke-width="2" fill="none"/><use xlink:href="#B" transform="matrix(1,0,0,1,1468,700) translate(0 20.61111111111111)"/><use xlink:href="#C" transform="matrix(1,0,0,1,1472,783.4) translate(0 18.944444444444443)"/><use xlink:href="#n" transform="matrix(1,0,0,1,1472,783.4) translate(30.117283950617285 18.944444444444443)"/><use xlink:href="#o" transform="matrix(1,0,0,1,1472,783.4) translate(0 37.611111111111114)"/><use xlink:href="#p" transform="matrix(1,0,0,1,1472,783.4) translate(8.641975308641976 37.611111111111114)"/><use xlink:href="#q" transform="matrix(1,0,0,1,1472,783.4) translate(21.604938271604944 37.611111111111114)"/><use xlink:href="#r" transform="matrix(1,0,0,1,1472,783.4) translate(0 56.277777777777786)"/><path d="M1900 705c0-2.76 2.24-5 5-5h350c2.76 0 5 2.24 5 5v150c0 2.76-2.24 5-5 5h-350c-2.76 0-5-2.24-5-5z" stroke="#000" stroke-width="2" fill="#fff"/><path d="M1900 735h360m-360 40h360" stroke="#000" stroke-width="2" fill="none"/><g><use xlink:href="#D" transform="matrix(1,0,0,1,1908,700) translate(0 20.61111111111111)"/></g><g><use xlink:href="#C" transform="matrix(1,0,0,1,1912,783.4) translate(0 18.944444444444443)"/><use xlink:href="#n" transform="matrix(1,0,0,1,1912,783.4) translate(30.117283950617285 18.944444444444443)"/><use xlink:href="#o" transform="matrix(1,0,0,1,1912,783.4) translate(0 37.611111111111114)"/><use xlink:href="#p" transform="matrix(1,0,0,1,1912,783.4) translate(8.641975308641976 37.611111111111114)"/><use xlink:href="#q" transform="matrix(1,0,0,1,1912,783.4) translate(21.604938271604944 37.611111111111114)"/><use xlink:href="#r" transform="matrix(1,0,0,1,1912,783.4) translate(0 56.277777777777786)"/></g><path d="M1640 698v-30.62c0-2.76 2.24-5 5-5h210c2.76 0 5-2.24 5-5v-13.12" stroke="#000" stroke-width="2" fill="none"/><path d="M1641 699h-2v-1.03h2z"/><path d="M1860 629l4.64 14.26h-9.28z" stroke="#000" stroke-width="2"/><path d="M2080 698v-30.62c0-2.76-2.24-5-5-5h-210c-2.76 0-5-2.24-5-5v-13.12" stroke="#000" stroke-width="2" fill="none"/><path d="M2081 699h-2v-1.03h2z"/><path d="M1860 629l4.64 14.26h-9.28z" stroke="#000" stroke-width="2"/><path d="M1969 46h306c2.76 0 5 2.24 5 5v364c0 2.76-2.24 5-5 5h-830c-2.76 0-5-2.24-5-5V25c0-2.76 2.24-5 5-5h494c2.76 0 6.55 1.6 8.47 3.6zm-529 0h529" stroke="#000" stroke-width="2" fill="#e5e5e5"/><g><use xlink:href="#v" transform="matrix(1,0,0,1,1448,20) translate(0 21.333333333333336)"/><use xlink:href="#E" transform="matrix(1,0,0,1,1448,20) translate(180.3703703703704 21.333333333333336)"/><use xlink:href="#x" transform="matrix(1,0,0,1,1448,20) translate(218.81481481481487 21.333333333333336)"/></g><path d="M1680 65c0-2.76 2.24-5 5-5h350c2.76 0 5 2.24 5 5v110c0 2.76-2.24 5-5 5h-350c-2.76 0-5-2.24-5-5z" stroke="#000" stroke-width="2" fill="#fff"/><path d="M1680 119h360" stroke="#000" stroke-width="2" fill="none"/><g><use xlink:href="#y" transform="matrix(1,0,0,1,1688,60) translate(113.57499999999999 22.799999999999997)"/><use xlink:href="#F" transform="matrix(1,0,0,1,1688,60) translate(120.6 44.4)"/></g><g><use xlink:href="#A" transform="matrix(1,0,0,1,1692,127.2) translate(0 25.61111111111111)"/></g><path d="M1460 265c0-2.76 2.24-5 5-5h350c2.76 0 5 2.24 5 5v134.76c0 2.76-2.24 5-5 5h-350c-2.76 0-5-2.24-5-5z" stroke="#000" stroke-width="2" fill="#fff"/><path d="M1460 295h360m-360 37h360" stroke="#000" stroke-width="2" fill="none"/><g><use xlink:href="#G" transform="matrix(1,0,0,1,1468,260) translate(0 20.61111111111111)"/></g><g><use xlink:href="#C" transform="matrix(1,0,0,1,1472,339.52063492063496) translate(0 13.444444444444443)"/><use xlink:href="#n" transform="matrix(1,0,0,1,1472,339.52063492063496) translate(30.117283950617285 13.444444444444443)"/><use xlink:href="#o" transform="matrix(1,0,0,1,1472,339.52063492063496) translate(0 32.111111111111114)"/><use xlink:href="#p" transform="matrix(1,0,0,1,1472,339.52063492063496) translate(8.641975308641976 32.111111111111114)"/><use xlink:href="#q" transform="matrix(1,0,0,1,1472,339.52063492063496) translate(21.604938271604944 32.111111111111114)"/><use xlink:href="#r" transform="matrix(1,0,0,1,1472,339.52063492063496) translate(0 50.777777777777786)"/></g><path d="M1900 265c0-2.76 2.24-5 5-5h350c2.76 0 5 2.24 5 5v134.76c0 2.76-2.24 5-5 5h-350c-2.76 0-5-2.24-5-5z" stroke="#000" stroke-width="2" fill="#fff"/><path d="M1900 295h360m-360 39h360" stroke="#000" stroke-width="2" fill="none"/><g><use xlink:href="#H" transform="matrix(1,0,0,1,1908,260) translate(0 20.61111111111111)"/></g><g><use xlink:href="#C" transform="matrix(1,0,0,1,1912,341.5593650793651) translate(0 12.444444444444446)"/><use xlink:href="#n" transform="matrix(1,0,0,1,1912,341.5593650793651) translate(30.117283950617285 12.444444444444446)"/><use xlink:href="#o" transform="matrix(1,0,0,1,1912,341.5593650793651) translate(0 31.111111111111118)"/><use xlink:href="#p" transform="matrix(1,0,0,1,1912,341.5593650793651) translate(8.641975308641976 31.111111111111118)"/><use xlink:href="#I" transform="matrix(1,0,0,1,1912,341.5593650793651) translate(21.604938271604944 31.111111111111118)"/><use xlink:href="#J" transform="matrix(1,0,0,1,1912,341.5593650793651) translate(43.20987654320989 31.111111111111118)"/><use xlink:href="#r" transform="matrix(1,0,0,1,1912,341.5593650793651) translate(0 49.777777777777786)"/></g><path d="M1640 258v-33c0-2.76 2.24-5 5-5h210c2.76 0 5-2.24 5-5v-15.5" stroke="#000" stroke-width="2" fill="none"/><path d="M1641 259h-2v-1.03h2z"/><path d="M1860 184.24l4.64 14.26h-9.28z" stroke="#000" stroke-width="2"/><path d="M2080 258v-33c0-2.76-2.24-5-5-5h-210c-2.76 0-5-2.24-5-5v-15.5" stroke="#000" stroke-width="2" fill="none"/><path d="M2081 259h-2v-1.03h2z"/><path d="M1860 184.24l4.64 14.26h-9.28z" stroke="#000" stroke-width="2"/><defs><path fill="#666" d="M67-125c0 53 21 87 73 88 37 1 54-22 65-47l45 17C233-25 199 4 140 4 58 4 20-42 15-125 8-235 124-281 211-232c18 10 29 29 36 50l-46 12c-8-25-30-41-62-41-52 0-71 34-72 86" id="K"/><path fill="#666" d="M25 0v-261h50V0H25" id="L"/><path fill="#666" d="M25-224v-37h50v37H25zM25 0v-190h50V0H25" id="M"/><path fill="#666" d="M185-48c-13 30-37 53-82 52C43 2 14-33 14-96s30-98 90-98c62 0 83 45 84 108H66c0 31 8 55 39 56 18 0 30-7 34-22zm-45-69c5-46-57-63-70-21-2 6-4 13-4 21h74" id="N"/><path fill="#666" d="M135-194c87-1 58 113 63 194h-50c-7-57 23-157-34-157-59 0-34 97-39 157H25l-1-190h47c2 12-1 28 3 38 12-26 28-41 61-42" id="O"/><path fill="#666" d="M115-3C79 11 28 4 28-45v-112H4v-33h27l15-45h31v45h36v33H77v99c-1 23 16 31 38 25v30" id="P"/><g id="a"><use transform="matrix(0.07407407407407408,0,0,0.07407407407407408,0,0)" xlink:href="#K"/><use transform="matrix(0.07407407407407408,0,0,0.07407407407407408,19.185185185185187,0)" xlink:href="#L"/><use transform="matrix(0.07407407407407408,0,0,0.07407407407407408,26.592592592592595,0)" xlink:href="#M"/><use transform="matrix(0.07407407407407408,0,0,0.07407407407407408,34,0)" xlink:href="#N"/><use transform="matrix(0.07407407407407408,0,0,0.07407407407407408,48.81481481481481,0)" xlink:href="#O"/><use transform="matrix(0.07407407407407408,0,0,0.07407407407407408,65.03703703703704,0)" xlink:href="#P"/></g><path fill="#666" d="M24-248c120-7 223 5 221 122C244-46 201 0 124 0H24v-248zM76-40c74 7 117-18 117-86 0-67-45-88-117-82v168" id="Q"/><path fill="#666" d="M85 4C-2 5 27-109 22-190h50c7 57-23 150 33 157 60-5 35-97 40-157h50l1 190h-47c-2-12 1-28-3-38-12 25-28 42-61 42" id="R"/><path fill="#666" d="M190-63c-7 42-38 67-86 67-59 0-84-38-90-98-12-110 154-137 174-36l-49 2c-2-19-15-32-35-32-30 0-35 28-38 64-6 74 65 87 74 30" id="S"/><path fill="#666" d="M147 0L96-86 75-71V0H25v-261h50v150l67-79h53l-66 74L201 0h-54" id="T"/><g id="b"><use transform="matrix(0.04320987654320988,0,0,0.04320987654320988,0,0)" xlink:href="#Q"/><use transform="matrix(0.04320987654320988,0,0,0.04320987654320988,11.19135802469136,0)" xlink:href="#R"/><use transform="matrix(0.04320987654320988,0,0,0.04320987654320988,20.654320987654323,0)" xlink:href="#S"/><use transform="matrix(0.04320987654320988,0,0,0.04320987654320988,29.296296296296298,0)" xlink:href="#T"/></g><path fill="#666" d="M76-208v77h127v40H76V0H24v-248h183v40H76" id="U"/><path fill="#666" d="M123 10C108 53 80 86 19 72V37c35 8 53-11 59-39L3-190h52l48 148c12-52 28-100 44-148h51" id="V"/><path fill="#666" d="M182-130c37 4 62 22 62 59C244 23 116-4 24 0v-248c84 5 203-23 205 63 0 31-19 50-47 55zM76-148c40-3 101 13 101-30 0-44-60-28-101-31v61zm0 110c48-3 116 14 116-37 0-48-69-32-116-35v72" id="W"/><path fill="#666" d="M114-157C55-157 80-60 75 0H25v-261h50l-1 109c12-26 28-41 61-42 86-1 58 113 63 194h-50c-7-57 23-157-34-157" id="X"/><path fill="#666" d="M133-34C117-15 103 5 69 4 32 3 11-16 11-54c-1-60 55-63 116-61 1-26-3-47-28-47-18 1-26 9-28 27l-52-2c7-38 36-58 82-57s74 22 75 68l1 82c-1 14 12 18 25 15v27c-30 8-71 5-69-32zm-48 3c29 0 43-24 42-57-32 0-66-3-65 30 0 17 8 27 23 27" id="Y"/><path fill="#666" d="M128 0H69L1-190h53L99-40l48-150h52" id="Z"/><path fill="#666" d="M110-194c64 0 96 36 96 99 0 64-35 99-97 99-61 0-95-36-95-99 0-62 34-99 96-99zm-1 164c35 0 45-28 45-65 0-40-10-65-43-65-34 0-45 26-45 65 0 36 10 65 43 65" id="aa"/><path fill="#666" d="M135-150c-39-12-60 13-60 57V0H25l-1-190h47c2 13-1 29 3 40 6-28 27-53 61-41v41" id="ab"/><g id="c"><use transform="matrix(0.04320987654320988,0,0,0.04320987654320988,0,0)" xlink:href="#U"/><use transform="matrix(0.04320987654320988,0,0,0.04320987654320988,9.462962962962964,0)" xlink:href="#L"/><use transform="matrix(0.04320987654320988,0,0,0.04320987654320988,13.783950617283953,0)" xlink:href="#V"/><use transform="matrix(0.04320987654320988,0,0,0.04320987654320988,22.425925925925934,0)" xlink:href="#W"/><use transform="matrix(0.04320987654320988,0,0,0.04320987654320988,33.61728395061729,0)" xlink:href="#N"/><use transform="matrix(0.04320987654320988,0,0,0.04320987654320988,42.25925925925927,0)" xlink:href="#X"/><use transform="matrix(0.04320987654320988,0,0,0.04320987654320988,51.72222222222223,0)" xlink:href="#Y"/><use transform="matrix(0.04320987654320988,0,0,0.04320987654320988,60.3641975308642,0)" xlink:href="#Z"/><use transform="matrix(0.04320987654320988,0,0,0.04320987654320988,69.00617283950618,0)" xlink:href="#M"/><use transform="matrix(0.04320987654320988,0,0,0.04320987654320988,73.32716049382717,0)" xlink:href="#aa"/><use transform="matrix(0.04320987654320988,0,0,0.04320987654320988,82.79012345679013,0)" xlink:href="#ab"/></g><path fill="#666" d="M121-226c-27-7-43 5-38 36h38v33H83V0H34v-157H6v-33h28c-9-59 32-81 87-68v32" id="ac"/><g id="d"><use transform="matrix(0.04320987654320988,0,0,0.04320987654320988,0,0)" xlink:href="#ac"/><use transform="matrix(0.04320987654320988,0,0,0.04320987654320988,5.1419753086419755,0)" xlink:href="#L"/><use transform="matrix(0.04320987654320988,0,0,0.04320987654320988,9.462962962962964,0)" xlink:href="#V"/><use transform="matrix(0.04320987654320988,0,0,0.04320987654320988,18.10493827160494,0)" xlink:href="#W"/><use transform="matrix(0.04320987654320988,0,0,0.04320987654320988,29.296296296296298,0)" xlink:href="#N"/><use transform="matrix(0.04320987654320988,0,0,0.04320987654320988,37.93827160493827,0)" xlink:href="#X"/><use transform="matrix(0.04320987654320988,0,0,0.04320987654320988,47.40123456790123,0)" xlink:href="#Y"/><use transform="matrix(0.04320987654320988,0,0,0.04320987654320988,56.04320987654321,0)" xlink:href="#Z"/><use transform="matrix(0.04320987654320988,0,0,0.04320987654320988,64.68518518518519,0)" xlink:href="#M"/><use transform="matrix(0.04320987654320988,0,0,0.04320987654320988,69.00617283950618,0)" xlink:href="#aa"/><use transform="matrix(0.04320987654320988,0,0,0.04320987654320988,78.46913580246914,0)" xlink:href="#ab"/></g><path fill="#666" d="M140-251c80 0 125 45 125 126 0 70-33 111-92 124 6 28 34 38 68 31l-1 36C177 83 129 55 120 2 51-6 15-50 15-125c0-81 44-126 125-126zm-1 214c52 0 73-35 73-88 0-50-21-86-72-86-52 0-73 35-73 86s22 88 72 88" id="ad"/><g id="e"><use transform="matrix(0.04320987654320988,0,0,0.04320987654320988,0,0)" xlink:href="#ad"/><use transform="matrix(0.04320987654320988,0,0,0.04320987654320988,12.098765432098766,0)" xlink:href="#R"/><use transform="matrix(0.04320987654320988,0,0,0.04320987654320988,21.561728395061728,0)" xlink:href="#Y"/><use transform="matrix(0.04320987654320988,0,0,0.04320987654320988,30.203703703703702,0)" xlink:href="#S"/><use transform="matrix(0.04320987654320988,0,0,0.04320987654320988,38.84567901234568,0)" xlink:href="#T"/><use transform="matrix(0.04320987654320988,0,0,0.04320987654320988,47.48765432098765,0)" xlink:href="#W"/><use transform="matrix(0.04320987654320988,0,0,0.04320987654320988,58.679012345679006,0)" xlink:href="#N"/><use transform="matrix(0.04320987654320988,0,0,0.04320987654320988,67.32098765432099,0)" xlink:href="#X"/><use transform="matrix(0.04320987654320988,0,0,0.04320987654320988,76.78395061728395,0)" xlink:href="#Y"/><use transform="matrix(0.04320987654320988,0,0,0.04320987654320988,85.42592592592592,0)" xlink:href="#Z"/><use transform="matrix(0.04320987654320988,0,0,0.04320987654320988,94.0679012345679,0)" xlink:href="#M"/><use transform="matrix(0.04320987654320988,0,0,0.04320987654320988,98.38888888888889,0)" xlink:href="#aa"/><use transform="matrix(0.04320987654320988,0,0,0.04320987654320988,107.85185185185185,0)" xlink:href="#ab"/></g><path fill="#666" d="M84 4C32 4 15-41 15-95c0-55 18-99 73-99 29 0 47 12 58 34l2-30h48l-1 265h-49V-32C136-9 114 4 84 4zm21-34c32 0 41-29 41-66 0-36-9-64-40-64-33 0-39 30-40 65 0 43 13 65 39 65" id="ae"/><g id="f"><use transform="matrix(0.04320987654320988,0,0,0.04320987654320988,0,0)" xlink:href="#ae"/><use transform="matrix(0.04320987654320988,0,0,0.04320987654320988,9.462962962962964,0)" xlink:href="#R"/><use transform="matrix(0.04320987654320988,0,0,0.04320987654320988,18.925925925925927,0)" xlink:href="#Y"/><use transform="matrix(0.04320987654320988,0,0,0.04320987654320988,27.567901234567906,0)" xlink:href="#S"/><use transform="matrix(0.04320987654320988,0,0,0.04320987654320988,36.20987654320988,0)" xlink:href="#T"/><use transform="matrix(0.04320987654320988,0,0,0.04320987654320988,44.851851851851855,0)" xlink:href="#W"/><use transform="matrix(0.04320987654320988,0,0,0.04320987654320988,56.043209876543216,0)" xlink:href="#N"/><use transform="matrix(0.04320987654320988,0,0,0.04320987654320988,64.68518518518519,0)" xlink:href="#X"/><use transform="matrix(0.04320987654320988,0,0,0.04320987654320988,74.14814814814815,0)" xlink:href="#Y"/><use transform="matrix(0.04320987654320988,0,0,0.04320987654320988,82.79012345679013,0)" xlink:href="#Z"/><use transform="matrix(0.04320987654320988,0,0,0.04320987654320988,91.4320987654321,0)" xlink:href="#M"/><use transform="matrix(0.04320987654320988,0,0,0.04320987654320988,95.7530864197531,0)" xlink:href="#aa"/></g><path fill="#666" d="M135-143c-3-34-86-38-87 0 15 53 115 12 119 90S17 21 10-45l28-5c4 36 97 45 98 0-10-56-113-15-118-90-4-57 82-63 122-42 12 7 21 19 24 35" id="af"/><path fill="#666" d="M206 0h-36l-40-164L89 0H53L-1-190h32L70-26l43-164h34l41 164 42-164h31" id="ag"/><path fill="#666" d="M24-231v-30h32v30H24zM24 0v-190h32V0H24" id="ah"/><path fill="#666" d="M210-169c-67 3-38 105-44 169h-31v-121c0-29-5-50-35-48C34-165 62-65 56 0H25l-1-190h30c1 10-1 24 2 32 10-44 99-50 107 0 11-21 27-35 58-36 85-2 47 119 55 194h-31v-121c0-29-5-49-35-48" id="ai"/><path fill="#666" d="M87 75C49 33 22-17 22-94c0-76 28-126 65-167h31c-38 41-64 92-64 168S80 34 118 75H87" id="aj"/><path fill="#666" d="M33-261c38 41 65 92 65 168S71 34 33 75H2C39 34 66-17 66-93S39-220 2-261h31" id="ak"/><g id="g"><use transform="matrix(0.04320987654320988,0,0,0.04320987654320988,0,0)" xlink:href="#af"/><use transform="matrix(0.04320987654320988,0,0,0.04320987654320988,7.777777777777779,0)" xlink:href="#ag"/><use transform="matrix(0.04320987654320988,0,0,0.04320987654320988,18.96913580246914,0)" xlink:href="#ah"/><use transform="matrix(0.04320987654320988,0,0,0.04320987654320988,22.382716049382722,0)" xlink:href="#ai"/><use transform="matrix(0.04320987654320988,0,0,0.04320987654320988,35.302469135802475,0)" xlink:href="#aj"/><use transform="matrix(0.04320987654320988,0,0,0.04320987654320988,40.44444444444445,0)" xlink:href="#ak"/></g><path fill="#666" d="M115-194c55 1 70 41 70 98S169 2 115 4C84 4 66-9 55-30l1 105H24l-1-265h31l2 30c10-21 28-34 59-34zm-8 174c40 0 45-34 45-75s-6-73-45-74c-42 0-51 32-51 76 0 43 10 73 51 73" id="al"/><path fill="#666" d="M100-194c63 0 86 42 84 106H49c0 40 14 67 53 68 26 1 43-12 49-29l28 8c-11 28-37 45-77 45C44 4 14-33 15-96c1-61 26-98 85-98zm52 81c6-60-76-77-97-28-3 7-6 17-6 28h103" id="am"/><path fill="#666" d="M114-163C36-179 61-72 57 0H25l-1-190h30c1 12-1 29 2 39 6-27 23-49 58-41v29" id="an"/><path fill="#666" d="M101-234c-31-9-42 10-38 44h38v23H63V0H32v-167H5v-23h27c-7-52 17-82 69-68v24" id="ao"/><path fill="#666" d="M100-194c62-1 85 37 85 99 1 63-27 99-86 99S16-35 15-95c0-66 28-99 85-99zM99-20c44 1 53-31 53-75 0-43-8-75-51-75s-53 32-53 75 10 74 51 75" id="ap"/><path fill="#666" d="M140-251c81 0 123 46 123 126C263-53 228-8 163 1c7 30 30 48 69 40v23c-55 16-95-15-103-61C56-3 17-48 17-125c0-80 42-126 123-126zm0 227c63 0 89-41 89-101s-29-99-89-99c-61 0-89 39-89 99S79-25 140-24" id="aq"/><path fill="#666" d="M84 4C-5 8 30-112 23-190h32v120c0 31 7 50 39 49 72-2 45-101 50-169h31l1 190h-30c-1-10 1-25-2-33-11 22-28 36-60 37" id="ar"/><path fill="#666" d="M141-36C126-15 110 5 73 4 37 3 15-17 15-53c-1-64 63-63 125-63 3-35-9-54-41-54-24 1-41 7-42 31l-33-3c5-37 33-52 76-52 45 0 72 20 72 64v82c-1 20 7 32 28 27v20c-31 9-61-2-59-35zM48-53c0 20 12 33 32 33 41-3 63-29 60-74-43 2-92-5-92 41" id="as"/><path fill="#666" d="M96-169c-40 0-48 33-48 73s9 75 48 75c24 0 41-14 43-38l32 2c-6 37-31 61-74 61-59 0-76-41-82-99-10-93 101-131 147-64 4 7 5 14 7 22l-32 3c-4-21-16-35-41-35" id="at"/><path fill="#666" d="M143 0L79-87 56-68V0H24v-261h32v163l83-92h37l-77 82L181 0h-38" id="au"/><g id="h"><use transform="matrix(0.04320987654320988,0,0,0.04320987654320988,0,0)" xlink:href="#al"/><use transform="matrix(0.04320987654320988,0,0,0.04320987654320988,8.641975308641976,0)" xlink:href="#am"/><use transform="matrix(0.04320987654320988,0,0,0.04320987654320988,17.283950617283953,0)" xlink:href="#an"/><use transform="matrix(0.04320987654320988,0,0,0.04320987654320988,22.425925925925927,0)" xlink:href="#ao"/><use transform="matrix(0.04320987654320988,0,0,0.04320987654320988,26.746913580246915,0)" xlink:href="#ap"/><use transform="matrix(0.04320987654320988,0,0,0.04320987654320988,35.38888888888889,0)" xlink:href="#an"/><use transform="matrix(0.04320987654320988,0,0,0.04320987654320988,40.53086419753087,0)" xlink:href="#ai"/><use transform="matrix(0.04320987654320988,0,0,0.04320987654320988,53.45061728395062,0)" xlink:href="#aq"/><use transform="matrix(0.04320987654320988,0,0,0.04320987654320988,65.5493827160494,0)" xlink:href="#ar"/><use transform="matrix(0.04320987654320988,0,0,0.04320987654320988,74.19135802469137,0)" xlink:href="#as"/><use transform="matrix(0.04320987654320988,0,0,0.04320987654320988,82.83333333333334,0)" xlink:href="#at"/><use transform="matrix(0.04320987654320988,0,0,0.04320987654320988,90.61111111111111,0)" xlink:href="#au"/><use transform="matrix(0.04320987654320988,0,0,0.04320987654320988,98.38888888888889,0)" xlink:href="#aj"/><use transform="matrix(0.04320987654320988,0,0,0.04320987654320988,103.53086419753086,0)" xlink:href="#ak"/></g><path fill="#666" d="M63-220v92h138v28H63V0H30v-248h175v28H63" id="av"/><path fill="#666" d="M24 0v-261h32V0H24" id="aw"/><path fill="#666" d="M179-190L93 31C79 59 56 82 12 73V49c39 6 53-20 64-50L1-190h34L92-34l54-156h33" id="ax"/><g id="i"><use transform="matrix(0.04320987654320988,0,0,0.04320987654320988,0,0)" xlink:href="#al"/><use transform="matrix(0.04320987654320988,0,0,0.04320987654320988,8.641975308641976,0)" xlink:href="#am"/><use transform="matrix(0.04320987654320988,0,0,0.04320987654320988,17.283950617283953,0)" xlink:href="#an"/><use transform="matrix(0.04320987654320988,0,0,0.04320987654320988,22.425925925925927,0)" xlink:href="#ao"/><use transform="matrix(0.04320987654320988,0,0,0.04320987654320988,26.746913580246915,0)" xlink:href="#ap"/><use transform="matrix(0.04320987654320988,0,0,0.04320987654320988,35.38888888888889,0)" xlink:href="#an"/><use transform="matrix(0.04320987654320988,0,0,0.04320987654320988,40.53086419753087,0)" xlink:href="#ai"/><use transform="matrix(0.04320987654320988,0,0,0.04320987654320988,53.45061728395062,0)" xlink:href="#av"/><use transform="matrix(0.04320987654320988,0,0,0.04320987654320988,62.91358024691359,0)" xlink:href="#aw"/><use transform="matrix(0.04320987654320988,0,0,0.04320987654320988,66.32716049382717,0)" xlink:href="#ax"/><use transform="matrix(0.04320987654320988,0,0,0.04320987654320988,74.10493827160494,0)" xlink:href="#aj"/><use transform="matrix(0.04320987654320988,0,0,0.04320987654320988,79.24691358024691,0)" xlink:href="#ak"/></g><path fill="#666" d="M59-47c-2 24 18 29 38 22v24C64 9 27 4 27-40v-127H5v-23h24l9-43h21v43h35v23H59v120" id="ay"/><path fill="#666" d="M160-131c35 5 61 23 61 61C221 17 115-2 30 0v-248c76 3 177-17 177 60 0 33-19 50-47 57zm-97-11c50-1 110 9 110-42 0-47-63-36-110-37v79zm0 115c55-2 124 14 124-45 0-56-70-42-124-44v89" id="az"/><path fill="#666" d="M106-169C34-169 62-67 57 0H25v-261h32l-1 103c12-21 28-36 61-36 89 0 53 116 60 194h-32v-121c2-32-8-49-39-48" id="aA"/><path fill="#666" d="M108 0H70L1-190h34L89-25l56-165h34" id="aB"/><g id="j"><use transform="matrix(0.04320987654320988,0,0,0.04320987654320988,0,0)" xlink:href="#af"/><use transform="matrix(0.04320987654320988,0,0,0.04320987654320988,7.777777777777779,0)" xlink:href="#am"/><use transform="matrix(0.04320987654320988,0,0,0.04320987654320988,16.419753086419753,0)" xlink:href="#ay"/><use transform="matrix(0.04320987654320988,0,0,0.04320987654320988,20.74074074074074,0)" xlink:href="#av"/><use transform="matrix(0.04320987654320988,0,0,0.04320987654320988,30.203703703703702,0)" xlink:href="#aw"/><use transform="matrix(0.04320987654320988,0,0,0.04320987654320988,33.617283950617285,0)" xlink:href="#ax"/><use transform="matrix(0.04320987654320988,0,0,0.04320987654320988,41.39506172839506,0)" xlink:href="#az"/><use transform="matrix(0.04320987654320988,0,0,0.04320987654320988,51.76543209876544,0)" xlink:href="#am"/><use transform="matrix(0.04320987654320988,0,0,0.04320987654320988,60.40740740740741,0)" xlink:href="#aA"/><use transform="matrix(0.04320987654320988,0,0,0.04320987654320988,69.0493827160494,0)" xlink:href="#as"/><use transform="matrix(0.04320987654320988,0,0,0.04320987654320988,77.69135802469137,0)" xlink:href="#aB"/><use transform="matrix(0.04320987654320988,0,0,0.04320987654320988,85.46913580246914,0)" xlink:href="#ah"/><use transform="matrix(0.04320987654320988,0,0,0.04320987654320988,88.88271604938272,0)" xlink:href="#ap"/><use transform="matrix(0.04320987654320988,0,0,0.04320987654320988,97.5246913580247,0)" xlink:href="#an"/><use transform="matrix(0.04320987654320988,0,0,0.04320987654320988,102.66666666666667,0)" xlink:href="#aj"/><use transform="matrix(0.04320987654320988,0,0,0.04320987654320988,107.80864197530866,0)" xlink:href="#av"/><use transform="matrix(0.04320987654320988,0,0,0.04320987654320988,117.27160493827162,0)" xlink:href="#aw"/><use transform="matrix(0.04320987654320988,0,0,0.04320987654320988,120.6851851851852,0)" xlink:href="#ax"/><use transform="matrix(0.04320987654320988,0,0,0.04320987654320988,128.46296296296296,0)" xlink:href="#az"/><use transform="matrix(0.04320987654320988,0,0,0.04320987654320988,138.83333333333334,0)" xlink:href="#am"/><use transform="matrix(0.04320987654320988,0,0,0.04320987654320988,147.47530864197532,0)" xlink:href="#aA"/><use transform="matrix(0.04320987654320988,0,0,0.04320987654320988,156.1172839506173,0)" xlink:href="#as"/><use transform="matrix(0.04320987654320988,0,0,0.04320987654320988,164.75925925925927,0)" xlink:href="#aB"/><use transform="matrix(0.04320987654320988,0,0,0.04320987654320988,172.53703703703704,0)" xlink:href="#ah"/><use transform="matrix(0.04320987654320988,0,0,0.04320987654320988,175.9506172839506,0)" xlink:href="#ap"/><use transform="matrix(0.04320987654320988,0,0,0.04320987654320988,184.59259259259258,0)" xlink:href="#an"/><use transform="matrix(0.04320987654320988,0,0,0.04320987654320988,189.73456790123456,0)" xlink:href="#ak"/></g><g id="k"><use transform="matrix(0.04320987654320988,0,0,0.04320987654320988,0,0)" xlink:href="#af"/><use transform="matrix(0.04320987654320988,0,0,0.04320987654320988,7.777777777777779,0)" xlink:href="#am"/><use transform="matrix(0.04320987654320988,0,0,0.04320987654320988,16.419753086419753,0)" xlink:href="#ay"/><use transform="matrix(0.04320987654320988,0,0,0.04320987654320988,20.74074074074074,0)" xlink:href="#aq"/><use transform="matrix(0.04320987654320988,0,0,0.04320987654320988,32.839506172839506,0)" xlink:href="#ar"/><use transform="matrix(0.04320987654320988,0,0,0.04320987654320988,41.48148148148148,0)" xlink:href="#as"/><use transform="matrix(0.04320987654320988,0,0,0.04320987654320988,50.123456790123456,0)" xlink:href="#at"/><use transform="matrix(0.04320987654320988,0,0,0.04320987654320988,57.901234567901234,0)" xlink:href="#au"/><use transform="matrix(0.04320987654320988,0,0,0.04320987654320988,65.67901234567901,0)" xlink:href="#az"/><use transform="matrix(0.04320987654320988,0,0,0.04320987654320988,76.04938271604938,0)" xlink:href="#am"/><use transform="matrix(0.04320987654320988,0,0,0.04320987654320988,84.69135802469135,0)" xlink:href="#aA"/><use transform="matrix(0.04320987654320988,0,0,0.04320987654320988,93.33333333333333,0)" xlink:href="#as"/><use transform="matrix(0.04320987654320988,0,0,0.04320987654320988,101.9753086419753,0)" xlink:href="#aB"/><use transform="matrix(0.04320987654320988,0,0,0.04320987654320988,109.7530864197531,0)" xlink:href="#ah"/><use transform="matrix(0.04320987654320988,0,0,0.04320987654320988,113.16666666666669,0)" xlink:href="#ap"/><use transform="matrix(0.04320987654320988,0,0,0.04320987654320988,121.80864197530866,0)" xlink:href="#an"/><use transform="matrix(0.04320987654320988,0,0,0.04320987654320988,126.9506172839506,0)" xlink:href="#aj"/><use transform="matrix(0.04320987654320988,0,0,0.04320987654320988,132.0925925925926,0)" xlink:href="#aq"/><use transform="matrix(0.04320987654320988,0,0,0.04320987654320988,144.19135802469137,0)" xlink:href="#ar"/><use transform="matrix(0.04320987654320988,0,0,0.04320987654320988,152.83333333333334,0)" xlink:href="#as"/><use transform="matrix(0.04320987654320988,0,0,0.04320987654320988,161.47530864197532,0)" xlink:href="#at"/><use transform="matrix(0.04320987654320988,0,0,0.04320987654320988,169.2530864197531,0)" xlink:href="#au"/><use transform="matrix(0.04320987654320988,0,0,0.04320987654320988,177.03086419753083,0)" xlink:href="#az"/><use transform="matrix(0.04320987654320988,0,0,0.04320987654320988,187.40123456790124,0)" xlink:href="#am"/><use transform="matrix(0.04320987654320988,0,0,0.04320987654320988,196.04320987654324,0)" xlink:href="#aA"/><use transform="matrix(0.04320987654320988,0,0,0.04320987654320988,204.68518518518522,0)" xlink:href="#as"/><use transform="matrix(0.04320987654320988,0,0,0.04320987654320988,213.3271604938272,0)" xlink:href="#aB"/><use transform="matrix(0.04320987654320988,0,0,0.04320987654320988,221.1049382716049,0)" xlink:href="#ah"/><use transform="matrix(0.04320987654320988,0,0,0.04320987654320988,224.5185185185185,0)" xlink:href="#ap"/><use transform="matrix(0.04320987654320988,0,0,0.04320987654320988,233.16049382716048,0)" xlink:href="#an"/><use transform="matrix(0.04320987654320988,0,0,0.04320987654320988,238.30246913580245,0)" xlink:href="#ak"/></g><path fill="#666" d="M230 0l2-204L168 0h-37L68-204 70 0H24v-248h70l56 185 57-185h69V0h-46" id="aC"/><path fill="#666" d="M88-194c31-1 46 15 58 34l-1-101h50l1 261h-48c-2-10 0-23-3-31C134-8 116 4 84 4 32 4 16-41 15-95c0-56 19-97 73-99zm17 164c33 0 40-30 41-66 1-37-9-64-41-64s-38 30-39 65c0 43 13 65 39 65" id="aD"/><g id="l"><use transform="matrix(0.04320987654320988,0,0,0.04320987654320988,0,0)" xlink:href="#aC"/><use transform="matrix(0.04320987654320988,0,0,0.04320987654320988,12.919753086419755,0)" xlink:href="#Y"/><use transform="matrix(0.04320987654320988,0,0,0.04320987654320988,21.56172839506173,0)" xlink:href="#L"/><use transform="matrix(0.04320987654320988,0,0,0.04320987654320988,25.88271604938272,0)" xlink:href="#L"/><use transform="matrix(0.04320987654320988,0,0,0.04320987654320988,30.203703703703706,0)" xlink:href="#Y"/><use transform="matrix(0.04320987654320988,0,0,0.04320987654320988,38.845679012345684,0)" xlink:href="#ab"/><use transform="matrix(0.04320987654320988,0,0,0.04320987654320988,44.89506172839506,0)" xlink:href="#aD"/><use transform="matrix(0.04320987654320988,0,0,0.04320987654320988,54.35802469135802,0)" xlink:href="#Q"/><use transform="matrix(0.04320987654320988,0,0,0.04320987654320988,65.54938271604938,0)" xlink:href="#R"/><use transform="matrix(0.04320987654320988,0,0,0.04320987654320988,75.01234567901234,0)" xlink:href="#S"/><use transform="matrix(0.04320987654320988,0,0,0.04320987654320988,83.65432098765432,0)" xlink:href="#T"/></g><path fill="#666" d="M85-194c31 0 48 13 60 33l-1-100h32l1 261h-30c-2-10 0-23-3-31C134-8 116 4 85 4 32 4 16-35 15-94c0-66 23-100 70-100zm9 24c-40 0-46 34-46 75 0 40 6 74 45 74 42 0 51-32 51-76 0-42-9-74-50-73" id="aE"/><g id="m"><use transform="matrix(0.04320987654320988,0,0,0.04320987654320988,0,0)" xlink:href="#aE"/><use transform="matrix(0.04320987654320988,0,0,0.04320987654320988,8.641975308641976,0)" xlink:href="#ah"/><use transform="matrix(0.04320987654320988,0,0,0.04320987654320988,12.055555555555557,0)" xlink:href="#af"/><use transform="matrix(0.04320987654320988,0,0,0.04320987654320988,19.833333333333336,0)" xlink:href="#al"/><use transform="matrix(0.04320987654320988,0,0,0.04320987654320988,28.47530864197531,0)" xlink:href="#aw"/><use transform="matrix(0.04320987654320988,0,0,0.04320987654320988,31.888888888888893,0)" xlink:href="#as"/><use transform="matrix(0.04320987654320988,0,0,0.04320987654320988,40.53086419753087,0)" xlink:href="#ax"/><use transform="matrix(0.04320987654320988,0,0,0.04320987654320988,48.308641975308646,0)" xlink:href="#aj"/><use transform="matrix(0.04320987654320988,0,0,0.04320987654320988,53.45061728395062,0)" xlink:href="#ak"/></g><path fill="#666" d="M39-94c74 12-11 154 75 146v23c-44 4-70-10-70-52C44-23 55-84 6-82v-22c81 4-7-162 84-157h24v23c-82-15-2 131-75 144" id="aF"/><use transform="matrix(0.04320987654320988,0,0,0.04320987654320988,0,0)" xlink:href="#aF" id="n"/><path fill="#666" d="M0 4l72-265h28L28 4H0" id="aG"/><g id="p"><use transform="matrix(0.04320987654320988,0,0,0.04320987654320988,0,0)" xlink:href="#aG"/><use transform="matrix(0.04320987654320988,0,0,0.04320987654320988,4.320987654320988,0)" xlink:href="#aG"/></g><path fill="#666" d="M117-194c89-4 53 116 60 194h-32v-121c0-31-8-49-39-48C34-167 62-67 57 0H25l-1-190h30c1 10-1 24 2 32 11-22 29-35 61-36" id="aH"/><g id="q"><use transform="matrix(0.04320987654320988,0,0,0.04320987654320988,0,0)" xlink:href="#ah"/><use transform="matrix(0.04320987654320988,0,0,0.04320987654320988,3.4135802469135808,0)" xlink:href="#ai"/><use transform="matrix(0.04320987654320988,0,0,0.04320987654320988,16.333333333333336,0)" xlink:href="#al"/><use transform="matrix(0.04320987654320988,0,0,0.04320987654320988,24.97530864197531,0)" xlink:href="#aw"/><use transform="matrix(0.04320987654320988,0,0,0.04320987654320988,28.388888888888893,0)" xlink:href="#am"/><use transform="matrix(0.04320987654320988,0,0,0.04320987654320988,37.03086419753087,0)" xlink:href="#ai"/><use transform="matrix(0.04320987654320988,0,0,0.04320987654320988,49.95061728395062,0)" xlink:href="#am"/><use transform="matrix(0.04320987654320988,0,0,0.04320987654320988,58.592592592592595,0)" xlink:href="#aH"/><use transform="matrix(0.04320987654320988,0,0,0.04320987654320988,67.23456790123457,0)" xlink:href="#ay"/><use transform="matrix(0.04320987654320988,0,0,0.04320987654320988,71.55555555555556,0)" xlink:href="#as"/><use transform="matrix(0.04320987654320988,0,0,0.04320987654320988,80.19753086419753,0)" xlink:href="#ay"/><use transform="matrix(0.04320987654320988,0,0,0.04320987654320988,84.51851851851852,0)" xlink:href="#ah"/><use transform="matrix(0.04320987654320988,0,0,0.04320987654320988,87.9320987654321,0)" xlink:href="#ap"/><use transform="matrix(0.04320987654320988,0,0,0.04320987654320988,96.57407407407409,0)" xlink:href="#aH"/></g><path fill="#666" d="M76-40C78 24 84 88 6 75V52C86 64 9-79 80-94c-40-6-34-59-34-106 1-29-11-41-40-38v-23c44-4 70 10 70 52 0 47-12 108 38 105v22c-26 1-39 14-38 42" id="aI"/><use transform="matrix(0.04320987654320988,0,0,0.04320987654320988,0,0)" xlink:href="#aI" id="r"/><path fill="#666" d="M240-174c0 40-23 61-54 70L253 0h-59l-57-94H76V0H24v-248c93 4 217-23 216 74zM76-134c48-2 112 12 112-38 0-48-66-32-112-35v73" id="aJ"/><g id="s"><use transform="matrix(0.04320987654320988,0,0,0.04320987654320988,0,0)" xlink:href="#aJ"/><use transform="matrix(0.04320987654320988,0,0,0.04320987654320988,11.19135802469136,0)" xlink:href="#N"/><use transform="matrix(0.04320987654320988,0,0,0.04320987654320988,19.833333333333336,0)" xlink:href="#aD"/><use transform="matrix(0.04320987654320988,0,0,0.04320987654320988,29.296296296296298,0)" xlink:href="#X"/><use transform="matrix(0.04320987654320988,0,0,0.04320987654320988,38.75925925925926,0)" xlink:href="#N"/><use transform="matrix(0.04320987654320988,0,0,0.04320987654320988,47.40123456790123,0)" xlink:href="#Y"/><use transform="matrix(0.04320987654320988,0,0,0.04320987654320988,56.04320987654321,0)" xlink:href="#aD"/><use transform="matrix(0.04320987654320988,0,0,0.04320987654320988,65.50617283950618,0)" xlink:href="#Q"/><use transform="matrix(0.04320987654320988,0,0,0.04320987654320988,76.69753086419753,0)" xlink:href="#R"/><use transform="matrix(0.04320987654320988,0,0,0.04320987654320988,86.1604938271605,0)" xlink:href="#S"/><use transform="matrix(0.04320987654320988,0,0,0.04320987654320988,94.80246913580245,0)" xlink:href="#T"/></g><path fill="#666" d="M135-194c52 0 70 43 70 98 0 56-19 99-73 100-30 1-46-15-58-35L72 0H24l1-261h50v104c11-23 29-37 60-37zM114-30c31 0 40-27 40-66 0-37-7-63-39-63s-41 28-41 65c0 36 8 64 40 64" id="aK"/><g id="t"><use transform="matrix(0.04320987654320988,0,0,0.04320987654320988,0,0)" xlink:href="#aJ"/><use transform="matrix(0.04320987654320988,0,0,0.04320987654320988,11.19135802469136,0)" xlink:href="#R"/><use transform="matrix(0.04320987654320988,0,0,0.04320987654320988,20.654320987654323,0)" xlink:href="#aK"/><use transform="matrix(0.04320987654320988,0,0,0.04320987654320988,30.11728395061729,0)" xlink:href="#aK"/><use transform="matrix(0.04320987654320988,0,0,0.04320987654320988,39.58024691358025,0)" xlink:href="#N"/><use transform="matrix(0.04320987654320988,0,0,0.04320987654320988,48.222222222222214,0)" xlink:href="#ab"/><use transform="matrix(0.04320987654320988,0,0,0.04320987654320988,54.27160493827161,0)" xlink:href="#Q"/><use transform="matrix(0.04320987654320988,0,0,0.04320987654320988,65.46296296296296,0)" xlink:href="#R"/><use transform="matrix(0.04320987654320988,0,0,0.04320987654320988,74.92592592592592,0)" xlink:href="#S"/><use transform="matrix(0.04320987654320988,0,0,0.04320987654320988,83.5679012345679,0)" xlink:href="#T"/></g><g id="u"><use transform="matrix(0.04320987654320988,0,0,0.04320987654320988,0,0)" xlink:href="#Q"/><use transform="matrix(0.04320987654320988,0,0,0.04320987654320988,11.19135802469136,0)" xlink:href="#N"/><use transform="matrix(0.04320987654320988,0,0,0.04320987654320988,19.833333333333336,0)" xlink:href="#S"/><use transform="matrix(0.04320987654320988,0,0,0.04320987654320988,28.47530864197531,0)" xlink:href="#aa"/><use transform="matrix(0.04320987654320988,0,0,0.04320987654320988,37.93827160493827,0)" xlink:href="#V"/><use transform="matrix(0.04320987654320988,0,0,0.04320987654320988,46.58024691358024,0)" xlink:href="#Q"/><use transform="matrix(0.04320987654320988,0,0,0.04320987654320988,57.77160493827161,0)" xlink:href="#R"/><use transform="matrix(0.04320987654320988,0,0,0.04320987654320988,67.23456790123457,0)" xlink:href="#S"/><use transform="matrix(0.04320987654320988,0,0,0.04320987654320988,75.87654320987654,0)" xlink:href="#T"/></g><path fill="#666" d="M24 0v-248h195v40H76v63h132v40H76v65h150V0H24" id="aL"/><path fill="#666" d="M135-194c53 0 70 44 70 98 0 56-19 98-73 100-31 1-45-17-59-34 3 33 2 69 2 105H25l-1-265h48c2 10 0 23 3 31 11-24 29-35 60-35zM114-30c33 0 39-31 40-66 0-38-9-64-40-64-56 0-55 130 0 130" id="aM"/><path fill="#666" d="M137-138c1-29-70-34-71-4 15 46 118 7 119 86 1 83-164 76-172 9l43-7c4 19 20 25 44 25 33 8 57-30 24-41C81-84 22-81 20-136c-2-80 154-74 161-7" id="aN"/><g id="v"><use transform="matrix(0.07407407407407408,0,0,0.07407407407407408,0,0)" xlink:href="#aL"/><use transform="matrix(0.07407407407407408,0,0,0.07407407407407408,17.77777777777778,0)" xlink:href="#O"/><use transform="matrix(0.07407407407407408,0,0,0.07407407407407408,34,0)" xlink:href="#S"/><use transform="matrix(0.07407407407407408,0,0,0.07407407407407408,48.81481481481481,0)" xlink:href="#Y"/><use transform="matrix(0.07407407407407408,0,0,0.07407407407407408,63.629629629629626,0)" xlink:href="#aM"/><use transform="matrix(0.07407407407407408,0,0,0.07407407407407408,79.85185185185186,0)" xlink:href="#aN"/><use transform="matrix(0.07407407407407408,0,0,0.07407407407407408,94.66666666666669,0)" xlink:href="#R"/><use transform="matrix(0.07407407407407408,0,0,0.07407407407407408,110.88888888888891,0)" xlink:href="#L"/><use transform="matrix(0.07407407407407408,0,0,0.07407407407407408,118.29629629629632,0)" xlink:href="#Y"/><use transform="matrix(0.07407407407407408,0,0,0.07407407407407408,133.11111111111114,0)" xlink:href="#P"/><use transform="matrix(0.07407407407407408,0,0,0.07407407407407408,141.92592592592595,0)" xlink:href="#N"/><use transform="matrix(0.07407407407407408,0,0,0.07407407407407408,156.74074074074076,0)" xlink:href="#aD"/></g><g id="w"><use transform="matrix(0.07407407407407408,0,0,0.07407407407407408,0,0)" xlink:href="#ae"/><use transform="matrix(0.07407407407407408,0,0,0.07407407407407408,16.222222222222225,0)" xlink:href="#R"/><use transform="matrix(0.07407407407407408,0,0,0.07407407407407408,32.44444444444445,0)" xlink:href="#Y"/><use transform="matrix(0.07407407407407408,0,0,0.07407407407407408,47.25925925925927,0)" xlink:href="#S"/><use transform="matrix(0.07407407407407408,0,0,0.07407407407407408,62.07407407407408,0)" xlink:href="#T"/></g><g id="x"><use transform="matrix(0.07407407407407408,0,0,0.07407407407407408,0,0)" xlink:href="#aK"/><use transform="matrix(0.07407407407407408,0,0,0.07407407407407408,16.222222222222225,0)" xlink:href="#N"/><use transform="matrix(0.07407407407407408,0,0,0.07407407407407408,31.03703703703704,0)" xlink:href="#X"/><use transform="matrix(0.07407407407407408,0,0,0.07407407407407408,47.25925925925927,0)" xlink:href="#Y"/><use transform="matrix(0.07407407407407408,0,0,0.07407407407407408,62.07407407407408,0)" xlink:href="#Z"/><use transform="matrix(0.07407407407407408,0,0,0.07407407407407408,76.8888888888889,0)" xlink:href="#M"/><use transform="matrix(0.07407407407407408,0,0,0.07407407407407408,84.2962962962963,0)" xlink:href="#aa"/><use transform="matrix(0.07407407407407408,0,0,0.07407407407407408,100.51851851851853,0)" xlink:href="#ab"/></g><path d="M15-91v-56l181-69v40L49-119l147 57v40" id="aO"/><path d="M25-224v-37h50v37H25zM25 0v-190h50V0H25" id="aP"/><path d="M135-194c87-1 58 113 63 194h-50c-7-57 23-157-34-157-59 0-34 97-39 157H25l-1-190h47c2 12-1 28 3 38 12-26 28-41 61-42" id="aQ"/><path d="M115-3C79 11 28 4 28-45v-112H4v-33h27l15-45h31v45h36v33H77v99c-1 23 16 31 38 25v30" id="aR"/><path d="M185-48c-13 30-37 53-82 52C43 2 14-33 14-96s30-98 90-98c62 0 83 45 84 108H66c0 31 8 55 39 56 18 0 30-7 34-22zm-45-69c5-46-57-63-70-21-2 6-4 13-4 21h74" id="aS"/><path d="M135-150c-39-12-60 13-60 57V0H25l-1-190h47c2 13-1 29 3 40 6-28 27-53 61-41v41" id="aT"/><path d="M121-226c-27-7-43 5-38 36h38v33H83V0H34v-157H6v-33h28c-9-59 32-81 87-68v32" id="aU"/><path d="M133-34C117-15 103 5 69 4 32 3 11-16 11-54c-1-60 55-63 116-61 1-26-3-47-28-47-18 1-26 9-28 27l-52-2c7-38 36-58 82-57s74 22 75 68l1 82c-1 14 12 18 25 15v27c-30 8-71 5-69-32zm-48 3c29 0 43-24 42-57-32 0-66-3-65 30 0 17 8 27 23 27" id="aV"/><path d="M190-63c-7 42-38 67-86 67-59 0-84-38-90-98-12-110 154-137 174-36l-49 2c-2-19-15-32-35-32-30 0-35 28-38 64-6 74 65 87 74 30" id="aW"/><path d="M15-22v-40l146-57-146-57v-40l181 69v56" id="aX"/><g id="y"><use transform="matrix(0.05,0,0,0.05,0,0)" xlink:href="#aO"/><use transform="matrix(0.05,0,0,0.05,10.5,0)" xlink:href="#aO"/><use transform="matrix(0.05,0,0,0.05,21,0)" xlink:href="#aP"/><use transform="matrix(0.05,0,0,0.05,26,0)" xlink:href="#aQ"/><use transform="matrix(0.05,0,0,0.05,36.95,0)" xlink:href="#aR"/><use transform="matrix(0.05,0,0,0.05,42.900000000000006,0)" xlink:href="#aS"/><use transform="matrix(0.05,0,0,0.05,52.900000000000006,0)" xlink:href="#aT"/><use transform="matrix(0.05,0,0,0.05,59.900000000000006,0)" xlink:href="#aU"/><use transform="matrix(0.05,0,0,0.05,65.85000000000001,0)" xlink:href="#aV"/><use transform="matrix(0.05,0,0,0.05,75.85000000000001,0)" xlink:href="#aW"/><use transform="matrix(0.05,0,0,0.05,85.85000000000001,0)" xlink:href="#aS"/><use transform="matrix(0.05,0,0,0.05,95.85000000000001,0)" xlink:href="#aX"/><use transform="matrix(0.05,0,0,0.05,106.35000000000001,0)" xlink:href="#aX"/></g><path d="M140-251c80 0 125 45 125 126 0 70-33 111-92 124 6 28 34 38 68 31l-1 36C177 83 129 55 120 2 51-6 15-50 15-125c0-81 44-126 125-126zm-1 214c52 0 73-35 73-88 0-50-21-86-72-86-52 0-73 35-73 86s22 88 72 88" id="aY"/><path d="M85 4C-2 5 27-109 22-190h50c7 57-23 150 33 157 60-5 35-97 40-157h50l1 190h-47c-2-12 1-28-3-38-12 25-28 42-61 42" id="aZ"/><path d="M147 0L96-86 75-71V0H25v-261h50v150l67-79h53l-66 74L201 0h-54" id="ba"/><path d="M182-130c37 4 62 22 62 59C244 23 116-4 24 0v-248c84 5 203-23 205 63 0 31-19 50-47 55zM76-148c40-3 101 13 101-30 0-44-60-28-101-31v61zm0 110c48-3 116 14 116-37 0-48-69-32-116-35v72" id="bb"/><path d="M114-157C55-157 80-60 75 0H25v-261h50l-1 109c12-26 28-41 61-42 86-1 58 113 63 194h-50c-7-57 23-157-34-157" id="bc"/><path d="M128 0H69L1-190h53L99-40l48-150h52" id="bd"/><path d="M110-194c64 0 96 36 96 99 0 64-35 99-97 99-61 0-95-36-95-99 0-62 34-99 96-99zm-1 164c35 0 45-28 45-65 0-40-10-65-43-65-34 0-45 26-45 65 0 36 10 65 43 65" id="be"/><g id="z"><use transform="matrix(0.05,0,0,0.05,0,0)" xlink:href="#aY"/><use transform="matrix(0.05,0,0,0.05,14,0)" xlink:href="#aZ"/><use transform="matrix(0.05,0,0,0.05,24.950000000000003,0)" xlink:href="#aV"/><use transform="matrix(0.05,0,0,0.05,34.95,0)" xlink:href="#aW"/><use transform="matrix(0.05,0,0,0.05,44.95,0)" xlink:href="#ba"/><use transform="matrix(0.05,0,0,0.05,54.95,0)" xlink:href="#bb"/><use transform="matrix(0.05,0,0,0.05,67.9,0)" xlink:href="#aS"/><use transform="matrix(0.05,0,0,0.05,77.9,0)" xlink:href="#bc"/><use transform="matrix(0.05,0,0,0.05,88.85000000000001,0)" xlink:href="#aV"/><use transform="matrix(0.05,0,0,0.05,98.85000000000001,0)" xlink:href="#bd"/><use transform="matrix(0.05,0,0,0.05,108.85000000000001,0)" xlink:href="#aP"/><use transform="matrix(0.05,0,0,0.05,113.85000000000001,0)" xlink:href="#be"/><use transform="matrix(0.05,0,0,0.05,124.80000000000001,0)" xlink:href="#aT"/></g><g id="A"><use transform="matrix(0.04320987654320988,0,0,0.04320987654320988,0,0)" xlink:href="#ao"/><use transform="matrix(0.04320987654320988,0,0,0.04320987654320988,4.320987654320988,0)" xlink:href="#aw"/><use transform="matrix(0.04320987654320988,0,0,0.04320987654320988,7.734567901234569,0)" xlink:href="#ax"/><use transform="matrix(0.04320987654320988,0,0,0.04320987654320988,15.512345679012347,0)" xlink:href="#aj"/><use transform="matrix(0.04320987654320988,0,0,0.04320987654320988,20.654320987654323,0)" xlink:href="#ak"/></g><g id="B"><use transform="matrix(0.04320987654320988,0,0,0.04320987654320988,0,0)" xlink:href="#ad"/><use transform="matrix(0.04320987654320988,0,0,0.04320987654320988,12.098765432098766,0)" xlink:href="#R"/><use transform="matrix(0.04320987654320988,0,0,0.04320987654320988,21.561728395061728,0)" xlink:href="#Y"/><use transform="matrix(0.04320987654320988,0,0,0.04320987654320988,30.203703703703702,0)" xlink:href="#S"/><use transform="matrix(0.04320987654320988,0,0,0.04320987654320988,38.84567901234568,0)" xlink:href="#T"/></g><g id="C"><use transform="matrix(0.04320987654320988,0,0,0.04320987654320988,0,0)" xlink:href="#ao"/><use transform="matrix(0.04320987654320988,0,0,0.04320987654320988,4.320987654320988,0)" xlink:href="#aw"/><use transform="matrix(0.04320987654320988,0,0,0.04320987654320988,7.734567901234569,0)" xlink:href="#ax"/><use transform="matrix(0.04320987654320988,0,0,0.04320987654320988,15.512345679012347,0)" xlink:href="#aj"/><use transform="matrix(0.04320987654320988,0,0,0.04320987654320988,20.654320987654323,0)" xlink:href="#ak"/></g><path fill="#666" d="M169-182c-1-43-94-46-97-3 18 66 151 10 154 114 3 95-165 93-204 36-6-8-10-19-12-30l50-8c3 46 112 56 116 5-17-69-150-10-154-114-4-87 153-88 188-35 5 8 8 18 10 28" id="bf"/><g id="D"><use transform="matrix(0.04320987654320988,0,0,0.04320987654320988,0,0)" xlink:href="#bf"/><use transform="matrix(0.04320987654320988,0,0,0.04320987654320988,10.370370370370372,0)" xlink:href="#ae"/><use transform="matrix(0.04320987654320988,0,0,0.04320987654320988,19.833333333333336,0)" xlink:href="#R"/><use transform="matrix(0.04320987654320988,0,0,0.04320987654320988,29.296296296296298,0)" xlink:href="#N"/><use transform="matrix(0.04320987654320988,0,0,0.04320987654320988,37.93827160493827,0)" xlink:href="#Y"/><use transform="matrix(0.04320987654320988,0,0,0.04320987654320988,46.58024691358024,0)" xlink:href="#T"/></g><g id="E"><use transform="matrix(0.07407407407407408,0,0,0.07407407407407408,0,0)" xlink:href="#ac"/><use transform="matrix(0.07407407407407408,0,0,0.07407407407407408,8.814814814814817,0)" xlink:href="#L"/><use transform="matrix(0.07407407407407408,0,0,0.07407407407407408,16.222222222222225,0)" xlink:href="#V"/></g><path d="M76-208v77h127v40H76V0H24v-248h183v40H76" id="bg"/><path d="M25 0v-261h50V0H25" id="bh"/><path d="M123 10C108 53 80 86 19 72V37c35 8 53-11 59-39L3-190h52l48 148c12-52 28-100 44-148h51" id="bi"/><g id="F"><use transform="matrix(0.05,0,0,0.05,0,0)" xlink:href="#bg"/><use transform="matrix(0.05,0,0,0.05,10.950000000000001,0)" xlink:href="#bh"/><use transform="matrix(0.05,0,0,0.05,15.950000000000001,0)" xlink:href="#bi"/><use transform="matrix(0.05,0,0,0.05,25.950000000000003,0)" xlink:href="#bb"/><use transform="matrix(0.05,0,0,0.05,38.900000000000006,0)" xlink:href="#aS"/><use transform="matrix(0.05,0,0,0.05,48.900000000000006,0)" xlink:href="#bc"/><use transform="matrix(0.05,0,0,0.05,59.85,0)" xlink:href="#aV"/><use transform="matrix(0.05,0,0,0.05,69.85000000000001,0)" xlink:href="#bd"/><use transform="matrix(0.05,0,0,0.05,79.85000000000001,0)" xlink:href="#aP"/><use transform="matrix(0.05,0,0,0.05,84.85000000000001,0)" xlink:href="#be"/><use transform="matrix(0.05,0,0,0.05,95.80000000000001,0)" xlink:href="#aT"/></g><path fill="#666" d="M275 0h-61l-44-196L126 0H64L0-248h53L97-49l45-199h58l43 199 44-199h52" id="bj"/><path fill="#666" d="M195-6C206 82 75 100 31 46c-4-6-6-13-8-21l49-6c3 16 16 24 34 25 40 0 42-37 40-79-11 22-30 35-61 35-53 0-70-43-70-97 0-56 18-96 73-97 30 0 46 14 59 34l2-30h47zm-90-29c32 0 41-27 41-63 0-35-9-62-40-62-32 0-39 29-40 63 0 36 9 62 39 62" id="bk"/><g id="G"><use transform="matrix(0.04320987654320988,0,0,0.04320987654320988,0,0)" xlink:href="#U"/><use transform="matrix(0.04320987654320988,0,0,0.04320987654320988,9.462962962962964,0)" xlink:href="#L"/><use transform="matrix(0.04320987654320988,0,0,0.04320987654320988,13.783950617283953,0)" xlink:href="#V"/><use transform="matrix(0.04320987654320988,0,0,0.04320987654320988,22.425925925925934,0)" xlink:href="#bj"/><use transform="matrix(0.04320987654320988,0,0,0.04320987654320988,36.94444444444445,0)" xlink:href="#M"/><use transform="matrix(0.04320987654320988,0,0,0.04320987654320988,41.26543209876544,0)" xlink:href="#P"/><use transform="matrix(0.04320987654320988,0,0,0.04320987654320988,46.40740740740741,0)" xlink:href="#X"/><use transform="matrix(0.04320987654320988,0,0,0.04320987654320988,55.870370370370374,0)" xlink:href="#bj"/><use transform="matrix(0.04320987654320988,0,0,0.04320987654320988,70.3888888888889,0)" xlink:href="#M"/><use transform="matrix(0.04320987654320988,0,0,0.04320987654320988,74.70987654320989,0)" xlink:href="#O"/><use transform="matrix(0.04320987654320988,0,0,0.04320987654320988,84.17283950617285,0)" xlink:href="#bk"/><use transform="matrix(0.04320987654320988,0,0,0.04320987654320988,93.63580246913581,0)" xlink:href="#aN"/></g><path fill="#666" d="M175 0L67-191c6 58 2 128 3 191H24v-248h59L193-55c-6-58-2-129-3-193h46V0h-61" id="bl"/><g id="H"><use transform="matrix(0.04320987654320988,0,0,0.04320987654320988,0,0)" xlink:href="#U"/><use transform="matrix(0.04320987654320988,0,0,0.04320987654320988,9.462962962962964,0)" xlink:href="#L"/><use transform="matrix(0.04320987654320988,0,0,0.04320987654320988,13.783950617283953,0)" xlink:href="#V"/><use transform="matrix(0.04320987654320988,0,0,0.04320987654320988,22.425925925925934,0)" xlink:href="#bl"/><use transform="matrix(0.04320987654320988,0,0,0.04320987654320988,33.61728395061729,0)" xlink:href="#aa"/><use transform="matrix(0.04320987654320988,0,0,0.04320987654320988,43.080246913580254,0)" xlink:href="#bj"/><use transform="matrix(0.04320987654320988,0,0,0.04320987654320988,57.16666666666667,0)" xlink:href="#Y"/><use transform="matrix(0.04320987654320988,0,0,0.04320987654320988,65.80864197530865,0)" xlink:href="#V"/></g><g id="I"><use transform="matrix(0.04320987654320988,0,0,0.04320987654320988,0,0)" xlink:href="#aE"/><use transform="matrix(0.04320987654320988,0,0,0.04320987654320988,8.641975308641976,0)" xlink:href="#ap"/></g><path fill="#666" d="M177-190C167-65 218 103 67 71c-23-6-38-20-44-43l32-5c15 47 100 32 89-28v-30C133-14 115 1 83 1 29 1 15-40 15-95c0-56 16-97 71-98 29-1 48 16 59 35 1-10 0-23 2-32h30zM94-22c36 0 50-32 50-73 0-42-14-75-50-75-39 0-46 34-46 75s6 73 46 73" id="bm"/><g id="J"><use transform="matrix(0.04320987654320988,0,0,0.04320987654320988,0,0)" xlink:href="#aH"/><use transform="matrix(0.04320987654320988,0,0,0.04320987654320988,8.641975308641976,0)" xlink:href="#ap"/><use transform="matrix(0.04320987654320988,0,0,0.04320987654320988,17.283950617283953,0)" xlink:href="#ay"/><use transform="matrix(0.04320987654320988,0,0,0.04320987654320988,21.60493827160494,0)" xlink:href="#aA"/><use transform="matrix(0.04320987654320988,0,0,0.04320987654320988,30.24691358024692,0)" xlink:href="#ah"/><use transform="matrix(0.04320987654320988,0,0,0.04320987654320988,33.6604938271605,0)" xlink:href="#aH"/><use transform="matrix(0.04320987654320988,0,0,0.04320987654320988,42.302469135802475,0)" xlink:href="#bm"/></g></defs></g></svg>