<svg xmlns="http://www.w3.org/2000/svg" xmlns:xlink="http://www.w3.org/1999/xlink" xmlns:lucid="lucid" width="1320" height="1340"><g transform="translate(-20 120)" lucid:page-tab-id="0_0"><path d="M0-1261.77h1850.6V1430H0z" fill="#fff"/><path d="M280 98c0-4.42 3.58-8 8-8h144c4.42 0 8 3.58 8 8v104c0 4.42-3.58 8-8 8H288c-4.42 0-8-3.58-8-8z" stroke="#fff" stroke-width="4" fill="#e5e5e5"/><path d="M296 90v120M424 90v120" stroke="#fff" stroke-width="4" fill="none"/><use xlink:href="#a" transform="matrix(1,0,0,1,300,90) translate(3.5246913580246826 53.77777777777777)"/><use xlink:href="#b" transform="matrix(1,0,0,1,300,90) translate(69.89506172839506 53.77777777777777)"/><use xlink:href="#c" transform="matrix(1,0,0,1,300,90) translate(26.404320987654316 72.44444444444444)"/><path d="M280 248c0-4.42 3.58-8 8-8h144c4.42 0 8 3.58 8 8v104c0 4.42-3.58 8-8 8H288c-4.42 0-8-3.58-8-8z" stroke="#fff" stroke-width="4" fill="#e5e5e5"/><use xlink:href="#d" transform="matrix(1,0,0,1,288,248) translate(21.613468714927073 35.64368686868688)"/><use xlink:href="#e" transform="matrix(1,0,0,1,288,248) translate(12.61749649270486 55.27126262626262)"/><use xlink:href="#f" transform="matrix(1,0,0,1,288,248) translate(82.40443251964085 55.27126262626262)"/><use xlink:href="#g" transform="matrix(1,0,0,1,288,248) translate(36.60675575196411 74.89883838383838)"/><path d="M360 212v24.04" stroke="#000" stroke-width="2" fill="none"/><path d="M361 212h-2v-2h2zM371.04 219.33L360 238l-11.04-18.67 1.72-1.02 9.32 15.77 9.32-15.76z"/><path d="M220 48c0-4.42 3.58-8 8-8h264c4.42 0 8 3.58 8 8v344c0 4.42-3.58 8-8 8H228c-4.42 0-8-3.58-8-8z" stroke="#000" stroke-width="4" fill="none"/><use xlink:href="#h" transform="matrix(1,0,0,1,228,48) translate(86.58202335858589 16.823636363636354)"/><path d="M40 468c0-4.42 3.58-8 8-8h264c4.42 0 8 3.58 8 8v484c0 4.42-3.58 8-8 8H48c-4.42 0-8-3.58-8-8z" stroke="#000" stroke-width="4" fill="none"/><use xlink:href="#i" transform="matrix(1,0,0,1,48,468) translate(50.306057449495 16.823636363636354)"/><use xlink:href="#j" transform="matrix(1,0,0,1,48,468) translate(122.68274305555556 16.823636363636354)"/><path d="M100 508c0-4.42 3.58-8 8-8h144c4.42 0 8 3.58 8 8v104c0 4.42-3.58 8-8 8H108c-4.42 0-8-3.58-8-8z" stroke="#fff" stroke-width="4" fill="#e5e5e5"/><path d="M116 500v120m128-120v120" stroke="#fff" stroke-width="4" fill="none"/><use xlink:href="#k" transform="matrix(1,0,0,1,120,500) translate(35.391975308641975 53.77777777777777)"/><use xlink:href="#l" transform="matrix(1,0,0,1,120,500) translate(26.339506172839506 72.44444444444444)"/><path d="M100 663c0-4.4 3.58-8 8-8h144c4.42 0 8 3.6 8 8v104c0 4.42-3.58 8-8 8H108c-4.42 0-8-3.58-8-8z" stroke="#fff" stroke-width="4" fill="#e5e5e5"/><use xlink:href="#m" transform="matrix(1,0,0,1,108,663.0045454545452) translate(2.985445426487132 45.45747474747475)"/><use xlink:href="#n" transform="matrix(1,0,0,1,108,663.0045454545452) translate(58.41517326038159 45.45747474747475)"/><use xlink:href="#o" transform="matrix(1,0,0,1,108,663.0045454545452) translate(1.8495903479237228 65.0850505050505)"/><use xlink:href="#p" transform="matrix(1,0,0,1,108,663.0045454545452) translate(58.14256804152638 65.0850505050505)"/><use xlink:href="#q" transform="matrix(1,0,0,1,108,663.0045454545452) translate(97.71575897867562 65.0850505050505)"/><path d="M180 622v29.04" stroke="#000" stroke-width="2" fill="none"/><path d="M181 622h-2v-2h2zM191.04 634.33L180 653l-11.04-18.67 1.72-1 9.32 15.75 9.32-15.76z"/><path d="M180 808v-29.03" stroke="#000" stroke-width="2" fill="none"/><path d="M181 810h-2v-2h2zM191.04 795.67l-1.72 1.02-9.32-15.77-9.32 15.76-1.72-1.03L180 777z"/><path d="M100 818c0-4.4 3.58-8 8-8h144c4.42 0 8 3.6 8 8v104c0 4.43-3.58 8-8 8H108c-4.42 0-8-3.57-8-8z" stroke="#fff" stroke-width="4" fill="#e5e5e5"/><use xlink:href="#d" transform="matrix(1,0,0,1,108,818.0090909090904) translate(21.613468714927073 45.45747474747475)"/><use xlink:href="#r" transform="matrix(1,0,0,1,108,818.0090909090904) translate(26.33862584175087 65.0850505050505)"/><use xlink:href="#s" transform="matrix(1,0,0,1,108,818.0090909090904) translate(82.63160353535352 65.0850505050505)"/><path d="M400 468c0-4.42 3.58-8 8-8h264c4.42 0 8 3.58 8 8v484c0 4.42-3.58 8-8 8H408c-4.42 0-8-3.58-8-8z" stroke="#000" stroke-width="4" fill="none"/><use xlink:href="#t" transform="matrix(1,0,0,1,408,468) translate(62.018345959596004 16.823636363636354)"/><use xlink:href="#j" transform="matrix(1,0,0,1,408,468) translate(110.97045454545457 16.823636363636354)"/><path d="M460 508c0-4.42 3.58-8 8-8h144c4.42 0 8 3.58 8 8v104c0 4.42-3.58 8-8 8H468c-4.42 0-8-3.58-8-8z" stroke="#fff" stroke-width="4" fill="#e5e5e5"/><path d="M476 500v120m128-120v120" stroke="#fff" stroke-width="4" fill="none"/><use xlink:href="#u" transform="matrix(1,0,0,1,480,500) translate(8.23456790123457 63.111111111111114)"/><use xlink:href="#l" transform="matrix(1,0,0,1,480,500) translate(44.44444444444445 63.111111111111114)"/><path d="M460 663c0-4.4 3.58-8 8-8h144c4.42 0 8 3.6 8 8v104c0 4.42-3.58 8-8 8H468c-4.42 0-8-3.58-8-8z" stroke="#fff" stroke-width="4" fill="#e5e5e5"/><use xlink:href="#m" transform="matrix(1,0,0,1,468,663.0045454545452) translate(2.985445426487132 45.45747474747475)"/><use xlink:href="#n" transform="matrix(1,0,0,1,468,663.0045454545452) translate(58.41517326038159 45.45747474747475)"/><use xlink:href="#v" transform="matrix(1,0,0,1,468,663.0045454545452) translate(10.959148078002286 65.0850505050505)"/><use xlink:href="#p" transform="matrix(1,0,0,1,468,663.0045454545452) translate(49.03301031144783 65.0850505050505)"/><use xlink:href="#q" transform="matrix(1,0,0,1,468,663.0045454545452) translate(88.60620124859707 65.0850505050505)"/><path d="M540 622v29.04" stroke="#000" stroke-width="2" fill="none"/><path d="M541 622h-2v-2h2zM551.04 634.33L540 653l-11.04-18.67 1.72-1 9.32 15.75 9.32-15.76z"/><path d="M540 808v-29.03" stroke="#000" stroke-width="2" fill="none"/><path d="M541 810h-2v-2h2zM551.04 795.67l-1.72 1.02-9.32-15.77-9.32 15.76-1.72-1.03L540 777z"/><path d="M460 818c0-4.4 3.58-8 8-8h144c4.42 0 8 3.6 8 8v104c0 4.43-3.58 8-8 8H468c-4.42 0-8-3.57-8-8z" stroke="#fff" stroke-width="4" fill="#e5e5e5"/><use xlink:href="#d" transform="matrix(1,0,0,1,468,818.0090909090904) translate(21.613468714927073 45.45747474747475)"/><use xlink:href="#w" transform="matrix(1,0,0,1,468,818.0090909090904) translate(35.44818357182943 65.0850505050505)"/><use xlink:href="#s" transform="matrix(1,0,0,1,468,818.0090909090904) translate(73.52204580527498 65.0850505050505)"/><path d="M262 560h40v303.33h-38.04" stroke="#000" stroke-width="2" fill="none"/><path d="M262 561h-2v-2h2zM281.7 854l-15.77 9.33 15.76 9.32-1.03 1.72L262 863.33l18.67-11.04z"/><path d="M622 560h40v310h-38.04" stroke="#000" stroke-width="2" fill="none"/><path d="M622 561h-2v-2h2zM641.7 860.68L625.92 870l15.76 9.32-1.03 1.72L622 870l18.67-11.04z"/><path d="M40 1028c0-4.42 3.58-8 8-8h264c4.42 0 8 3.58 8 8v164c0 4.42-3.58 8-8 8H48c-4.42 0-8-3.58-8-8z" stroke="#000" stroke-width="4" fill="none"/><use xlink:href="#x" transform="matrix(1,0,0,1,48,1028) translate(85.18005366161618 16.823636363636354)"/><use xlink:href="#y" transform="matrix(1,0,0,1,48,1028) translate(133.78166982323233 16.823636363636354)"/><path d="M100 1068c0-4.42 3.58-8 8-8h144c4.42 0 8 3.58 8 8v104c0 4.42-3.58 8-8 8H108c-4.42 0-8-3.58-8-8z" stroke="#fff" stroke-width="4" fill="#e5e5e5"/><use xlink:href="#d" transform="matrix(1,0,0,1,108,1068) translate(21.613468714927073 45.45747474747475)"/><use xlink:href="#r" transform="matrix(1,0,0,1,108,1068) translate(26.33862584175087 65.0850505050505)"/><use xlink:href="#s" transform="matrix(1,0,0,1,108,1068) translate(82.63160353535352 65.0850505050505)"/><path d="M400 1028c0-4.42 3.58-8 8-8h264c4.42 0 8 3.58 8 8v164c0 4.42-3.58 8-8 8H408c-4.42 0-8-3.58-8-8z" stroke="#000" stroke-width="4" fill="none"/><use xlink:href="#z" transform="matrix(1,0,0,1,408,1028) translate(85.58896148989902 16.823636363636354)"/><use xlink:href="#y" transform="matrix(1,0,0,1,408,1028) translate(133.37276199494949 16.823636363636354)"/><path d="M460 1068c0-4.42 3.58-8 8-8h144c4.42 0 8 3.58 8 8v104c0 4.42-3.58 8-8 8H468c-4.42 0-8-3.58-8-8z" stroke="#fff" stroke-width="4" fill="#e5e5e5"/><use xlink:href="#d" transform="matrix(1,0,0,1,468,1068) translate(21.613468714927073 45.45747474747475)"/><use xlink:href="#r" transform="matrix(1,0,0,1,468,1068) translate(26.33862584175087 65.0850505050505)"/><use xlink:href="#s" transform="matrix(1,0,0,1,468,1068) translate(82.63160353535352 65.0850505050505)"/><path d="M180 1058V950.25" stroke="#000" stroke-width="2" fill="none"/><path d="M181 1060h-2v-2h2zM184.64 949.5h-9.28l4.64-14.25z"/><path d="M186 950.5h-12l6-18.5zm-9.26-2h6.52L180 938.5z"/><path d="M540 1058V950.25" stroke="#000" stroke-width="2" fill="none"/><path d="M541 1060h-2v-2h2zM544.64 949.5h-9.28l4.64-14.25z"/><path d="M546 950.5h-12l6-18.5zm-9.26-2h6.52L540 938.5z"/><path d="M180 498v-68h180v-49.76" stroke="#000" stroke-width="2" fill="none"/><path d="M181 500h-2v-2h2zM364.64 379.5h-9.28l4.64-14.26z"/><path d="M366 380.5h-12l6-18.5zm-9.26-2h6.52L360 368.47z"/><path d="M540 498v-68H360v-49.76" stroke="#000" stroke-width="2" fill="none"/><path d="M541 500h-2v-2h2zM364.64 379.5h-9.28l4.64-14.26z"/><path d="M366 380.5h-12l6-18.5zm-9.26-2h6.52L360 368.47z"/><path d="M580-92c0-4.42 3.58-8 8-8h724c4.42 0 8 3.58 8 8v484c0 4.42-3.58 8-8 8H588c-4.42 0-8-3.58-8-8z" stroke="#000" stroke-width="4" fill="none"/><use xlink:href="#A" transform="matrix(1,0,0,1,588,-92) translate(317.66270833333334 16.823636363636354)"/><path d="M640 98c0-4.42 3.58-8 8-8h144c4.42 0 8 3.58 8 8v104c0 4.42-3.58 8-8 8H648c-4.42 0-8-3.58-8-8z" stroke="#fff" stroke-width="4" fill="#e5e5e5"/><use xlink:href="#d" transform="matrix(1,0,0,1,648,98) translate(21.613468714927073 35.64368686868688)"/><use xlink:href="#e" transform="matrix(1,0,0,1,648,98) translate(12.61749649270486 55.27126262626262)"/><use xlink:href="#f" transform="matrix(1,0,0,1,648,98) translate(82.40443251964085 55.27126262626262)"/><use xlink:href="#B" transform="matrix(1,0,0,1,648,98) translate(34.335045594837275 74.89883838383838)"/><path d="M640 248c0-4.42 3.58-8 8-8h144c4.42 0 8 3.58 8 8v104c0 4.42-3.58 8-8 8H648c-4.42 0-8-3.58-8-8z" stroke="#fff" stroke-width="4" fill="#e5e5e5"/><use xlink:href="#m" transform="matrix(1,0,0,1,648,248) translate(2.985445426487132 35.64368686868688)"/><use xlink:href="#C" transform="matrix(1,0,0,1,648,248) translate(58.41517326038159 35.64368686868688)"/><use xlink:href="#e" transform="matrix(1,0,0,1,648,248) translate(12.61749649270486 55.27126262626262)"/><use xlink:href="#f" transform="matrix(1,0,0,1,648,248) translate(82.40443251964085 55.27126262626262)"/><use xlink:href="#D" transform="matrix(1,0,0,1,648,248) translate(35.22101255611675 74.89883838383838)"/><path d="M640-52c0-4.42 3.58-8 8-8h144c4.42 0 8 3.58 8 8V52c0 4.42-3.58 8-8 8H648c-4.42 0-8-3.58-8-8z" stroke="#fff" stroke-width="4" fill="#e5e5e5"/><use xlink:href="#m" transform="matrix(1,0,0,1,648,-52) translate(2.985445426487132 35.64368686868688)"/><use xlink:href="#C" transform="matrix(1,0,0,1,648,-52) translate(58.41517326038159 35.64368686868688)"/><use xlink:href="#e" transform="matrix(1,0,0,1,648,-52) translate(12.61749649270486 55.27126262626262)"/><use xlink:href="#f" transform="matrix(1,0,0,1,648,-52) translate(82.40443251964085 55.27126262626262)"/><use xlink:href="#E" transform="matrix(1,0,0,1,648,-52) translate(41.58180099607185 74.89883838383838)"/><path d="M442 150h98V0h96.04" stroke="#000" stroke-width="2" fill="none"/><path d="M442 151h-2v-2h2zM638 0l-18.67 11.04-1.02-1.72L634.08 0 618.3-9.32l1.03-1.72z"/><path d="M442 150h194.04" stroke="#000" stroke-width="2" fill="none"/><path d="M442 151h-2v-2h2zM638 150l-18.67 11.04-1.02-1.72 15.77-9.32-15.76-9.32 1.03-1.72z"/><path d="M442 150h98v150h96.04" stroke="#000" stroke-width="2" fill="none"/><path d="M442 151h-2v-2h2zM638 300l-18.67 11.04-1.02-1.72 15.77-9.32-15.76-9.32 1.03-1.72z"/><path d="M880 98c0-4.42 3.58-8 8-8h144c4.42 0 8 3.58 8 8v104c0 4.42-3.58 8-8 8H888c-4.42 0-8-3.58-8-8z" stroke="#fff" stroke-width="4" fill="#e5e5e5"/><path d="M896 90v120m128-120v120" stroke="#fff" stroke-width="4" fill="none"/><use xlink:href="#a" transform="matrix(1,0,0,1,900,90) translate(3.5246913580246826 53.77777777777777)"/><use xlink:href="#b" transform="matrix(1,0,0,1,900,90) translate(69.89506172839506 53.77777777777777)"/><use xlink:href="#F" transform="matrix(1,0,0,1,900,90) translate(25.04320987654321 72.44444444444444)"/><path d="M880 248c0-4.42 3.58-8 8-8h144c4.42 0 8 3.58 8 8v104c0 4.42-3.58 8-8 8H888c-4.42 0-8-3.58-8-8z" stroke="#fff" stroke-width="4" fill="#e5e5e5"/><use xlink:href="#d" transform="matrix(1,0,0,1,888,248) translate(21.613468714927073 35.64368686868688)"/><use xlink:href="#e" transform="matrix(1,0,0,1,888,248) translate(19.864251893939425 55.27126262626262)"/><use xlink:href="#G" transform="matrix(1,0,0,1,888,248) translate(89.65118792087542 55.27126262626262)"/><use xlink:href="#H" transform="matrix(1,0,0,1,888,248) translate(39.764432870370385 74.89883838383838)"/><path d="M1140 208c0-4.42 3.58-8 8-8h144c4.42 0 8 3.58 8 8v104c0 4.42-3.58 8-8 8h-144c-4.42 0-8-3.58-8-8z" stroke="#fff" stroke-width="4" fill="#e5e5e5"/><path d="M1156 200v120m128-120v120" stroke="#fff" stroke-width="4" fill="none"/><use xlink:href="#a" transform="matrix(1,0,0,1,1160,200) translate(1.364197530864189 63.111111111111114)"/><use xlink:href="#I" transform="matrix(1,0,0,1,1160,200) translate(67.73456790123457 63.111111111111114)"/><path d="M803.96 0H840v117.56h38" stroke="#000" stroke-width="2" fill="none"/><path d="M821.7-9.32L805.92 0l15.76 9.32-1.03 1.72L802 0l18.67-11.04zM880 118.56h-2v-2h2z"/><path d="M878 150h-57.76" stroke="#000" stroke-width="2" fill="none"/><path d="M880 151h-2v-2h2zM819.5 154.64L805.24 150l14.26-4.64z"/><path d="M820.5 156l-18.5-6 18.5-6zm-12.03-6l10.03 3.26v-6.52z"/><path d="M878 180.23h-38V300h-36.04" stroke="#000" stroke-width="2" fill="none"/><path d="M880 181.23h-2v-2h2zM821.7 290.68L805.92 300l15.76 9.32-1.03 1.72L802 300l18.67-11.04z"/><path d="M960 212v24.04" stroke="#000" stroke-width="2" fill="none"/><path d="M961 212h-2v-2h2zM971.04 219.33L960 238l-11.04-18.67 1.72-1.02 9.32 15.77 9.32-15.76z"/><path d="M1042 150h178v46.04" stroke="#000" stroke-width="2" fill="none"/><path d="M1042 151h-2v-2h2zM1231.04 179.33L1220 198l-11.04-18.67 1.72-1.02 9.32 15.77 9.32-15.76z"/><path d="M840 508c0-4.42 3.58-8 8-8h444c4.42 0 8 3.58 8 8v189c0 4.4-3.58 8-8 8H848c-4.42 0-8-3.6-8-8z" stroke="#000" stroke-width="4" fill="none"/><g><use xlink:href="#J" transform="matrix(1,0,0,1,848,508) translate(177.04934659090912 16.823636363636354)"/></g><path d="M880 550.5c0-4.42 3.58-8 8-8h144c4.42 0 8 3.58 8 8v104c0 4.42-3.58 8-8 8H888c-4.42 0-8-3.58-8-8z" stroke="#fff" stroke-width="4" fill="#e5e5e5"/><path d="M896 542.5v120m128-120v120" stroke="#fff" stroke-width="4" fill="none"/><g><use xlink:href="#a" transform="matrix(1,0,0,1,900,542.4977272727274) translate(10.416666666666657 53.77777777777777)"/><use xlink:href="#K" transform="matrix(1,0,0,1,900,542.4977272727274) translate(76.78703703703704 53.77777777777777)"/><use xlink:href="#L" transform="matrix(1,0,0,1,900,542.4977272727274) translate(33.68518518518518 72.44444444444444)"/></g><path d="M1100 550.5c0-4.42 3.58-8 8-8h144c4.42 0 8 3.58 8 8v104c0 4.42-3.58 8-8 8h-144c-4.42 0-8-3.58-8-8z" stroke="#fff" stroke-width="4" fill="#e5e5e5"/><path d="M1116 542.5v120m128-120v120" stroke="#fff" stroke-width="4" fill="none"/><g><use xlink:href="#M" transform="matrix(1,0,0,1,1120,542.4977272727274) translate(28.975308641975307 53.77777777777777)"/><use xlink:href="#N" transform="matrix(1,0,0,1,1120,542.4977272727274) translate(26.75 72.44444444444444)"/></g><path d="M960 540.5V380.24" stroke="#000" stroke-width="2" fill="none"/><path d="M961 542.5h-2v-2h2zM964.64 379.5h-9.28l4.64-14.26z"/><path d="M966 380.5h-12l6-18.5zm-9.26-2h6.52L960 368.47z"/><path d="M1220 323.96v107.3H960V540.5" stroke="#000" stroke-width="2" fill="none"/><path d="M1231.04 340.67l-1.72 1.02-9.32-15.77-9.32 15.76-1.72-1.03L1220 322zM961 542.5h-2v-2h2z"/><path d="M1042 602.5h54.04" stroke="#000" stroke-width="2" fill="none"/><path d="M1042 603.5h-2v-2h2zM1098 602.5l-18.67 11.04-1.02-1.72 15.77-9.32-15.76-9.32 1.03-1.72z"/><path d="M442 331.46h194.04" stroke="#000" stroke-width="2" fill="none"/><path d="M442 332.46h-2v-2h2zM638 331.46l-18.67 11.05-1.02-1.7 15.77-9.34-15.76-9.32 1.03-1.72z"/><path d="M840 848c0-4.42 3.58-8 8-8h137.63c4.4 0 10.53 2.53 13.65 5.66l15.06 15.06c3.13 3.12 5.66 9.24 5.66 13.65v89.5c0 4.42-3.58 8-8 8H848c-4.42 0-8-3.58-8-8z" stroke="#fff" stroke-width="4" fill="#e5e5e5"/><path d="M995.57 847.76c-1.08-4.3.6-5.23 3.7-2.1l15.07 15.06c3.13 3.12 2.2 4.8-2.1 3.7l-5.58-1.38c-4.3-1.07-8.63-5.4-9.7-9.7z" stroke="#fff" stroke-width="4" fill="#a0a0a0"/><g><use xlink:href="#O" transform="matrix(1,0,0,1,840,840) translate(5.01 49.56944444444444)"/><use xlink:href="#P" transform="matrix(1,0,0,1,840,840) translate(26.528518518518517 49.56944444444444)"/><use xlink:href="#Q" transform="matrix(1,0,0,1,840,840) translate(127.59641975308645 49.56944444444444)"/><use xlink:href="#R" transform="matrix(1,0,0,1,840,840) translate(5.01 68.23611111111111)"/><use xlink:href="#S" transform="matrix(1,0,0,1,840,840) translate(55.95444444444444 68.23611111111111)"/><use xlink:href="#T" transform="matrix(1,0,0,1,840,840) translate(5.01 86.90277777777779)"/></g><path d="M840 1008c0-4.42 3.58-8 8-8h137.63c4.4 0 10.53 2.53 13.65 5.66l15.06 15.06c3.13 3.12 5.66 9.24 5.66 13.65v89.5c0 4.42-3.58 8-8 8H848c-4.42 0-8-3.58-8-8z" stroke="#fff" stroke-width="4" fill="#e5e5e5"/><path d="M995.57 1007.76c-1.08-4.3.6-5.23 3.7-2.1l15.07 15.06c3.13 3.12 2.2 4.8-2.1 3.7l-5.58-1.38c-4.3-1.07-8.63-5.4-9.7-9.7z" stroke="#fff" stroke-width="4" fill="#a0a0a0"/><g><use xlink:href="#O" transform="matrix(1,0,0,1,840,1000) translate(9.01 17.454444444444448)"/><use xlink:href="#U" transform="matrix(1,0,0,1,840,1000) translate(30.528518518518517 17.454444444444448)"/><use xlink:href="#V" transform="matrix(1,0,0,1,840,1000) translate(5.01 36.12111111111112)"/><use xlink:href="#Q" transform="matrix(1,0,0,1,840,1000) translate(86.15814814814816 36.12111111111112)"/><use xlink:href="#W" transform="matrix(1,0,0,1,840,1000) translate(5.01 54.78777777777779)"/><use xlink:href="#X" transform="matrix(1,0,0,1,840,1000) translate(68.8741975308642 54.78777777777779)"/><use xlink:href="#Y" transform="matrix(1,0,0,1,840,1000) translate(100.76308641975308 54.78777777777779)"/><use xlink:href="#Z" transform="matrix(1,0,0,1,840,1000) translate(134.46679012345678 54.78777777777779)"/><use xlink:href="#aa" transform="matrix(1,0,0,1,840,1000) translate(5.01 73.45444444444446)"/><use xlink:href="#ab" transform="matrix(1,0,0,1,840,1000) translate(31.756913580246916 73.45444444444446)"/><use xlink:href="#ac" transform="matrix(1,0,0,1,840,1000) translate(5.01 92.12111111111112)"/><use xlink:href="#ad" transform="matrix(1,0,0,1,840,1000) translate(105.90506172839507 92.12111111111112)"/><use xlink:href="#ae" transform="matrix(1,0,0,1,840,1000) translate(5.01 110.78777777777779)"/></g><defs><path d="M63-220v92h138v28H63V0H30v-248h175v28H63" id="af"/><path d="M24-231v-30h32v30H24zM24 0v-190h32V0H24" id="ag"/><path d="M117-194c89-4 53 116 60 194h-32v-121c0-31-8-49-39-48C34-167 62-67 57 0H25l-1-190h30c1 10-1 24 2 32 11-22 29-35 61-36" id="ah"/><path d="M141-36C126-15 110 5 73 4 37 3 15-17 15-53c-1-64 63-63 125-63 3-35-9-54-41-54-24 1-41 7-42 31l-33-3c5-37 33-52 76-52 45 0 72 20 72 64v82c-1 20 7 32 28 27v20c-31 9-61-2-59-35zM48-53c0 20 12 33 32 33 41-3 63-29 60-74-43 2-92-5-92 41" id="ai"/><path d="M96-169c-40 0-48 33-48 73s9 75 48 75c24 0 41-14 43-38l32 2c-6 37-31 61-74 61-59 0-76-41-82-99-10-93 101-131 147-64 4 7 5 14 7 22l-32 3c-4-21-16-35-41-35" id="aj"/><path d="M24 0v-261h32V0H24" id="ak"/><g id="a"><use transform="matrix(0.04320987654320988,0,0,0.04320987654320988,0,0)" xlink:href="#af"/><use transform="matrix(0.04320987654320988,0,0,0.04320987654320988,9.462962962962964,0)" xlink:href="#ag"/><use transform="matrix(0.04320987654320988,0,0,0.04320987654320988,12.876543209876544,0)" xlink:href="#ah"/><use transform="matrix(0.04320987654320988,0,0,0.04320987654320988,21.51851851851852,0)" xlink:href="#ai"/><use transform="matrix(0.04320987654320988,0,0,0.04320987654320988,30.160493827160494,0)" xlink:href="#ah"/><use transform="matrix(0.04320987654320988,0,0,0.04320987654320988,38.80246913580247,0)" xlink:href="#aj"/><use transform="matrix(0.04320987654320988,0,0,0.04320987654320988,46.58024691358024,0)" xlink:href="#ag"/><use transform="matrix(0.04320987654320988,0,0,0.04320987654320988,49.99382716049383,0)" xlink:href="#ai"/><use transform="matrix(0.04320987654320988,0,0,0.04320987654320988,58.63580246913581,0)" xlink:href="#ak"/></g><path d="M233-177c-1 41-23 64-60 70L243 0h-38l-65-103H63V0H30v-248c88 3 205-21 203 71zM63-129c60-2 137 13 137-47 0-61-80-42-137-45v92" id="al"/><path d="M100-194c63 0 86 42 84 106H49c0 40 14 67 53 68 26 1 43-12 49-29l28 8c-11 28-37 45-77 45C44 4 14-33 15-96c1-61 26-98 85-98zm52 81c6-60-76-77-97-28-3 7-6 17-6 28h103" id="am"/><path d="M115-194c55 1 70 41 70 98S169 2 115 4C84 4 66-9 55-30l1 105H24l-1-265h31l2 30c10-21 28-34 59-34zm-8 174c40 0 45-34 45-75s-6-73-45-74c-42 0-51 32-51 76 0 43 10 73 51 73" id="an"/><path d="M100-194c62-1 85 37 85 99 1 63-27 99-86 99S16-35 15-95c0-66 28-99 85-99zM99-20c44 1 53-31 53-75 0-43-8-75-51-75s-53 32-53 75 10 74 51 75" id="ao"/><path d="M114-163C36-179 61-72 57 0H25l-1-190h30c1 12-1 29 2 39 6-27 23-49 58-41v29" id="ap"/><path d="M59-47c-2 24 18 29 38 22v24C64 9 27 4 27-40v-127H5v-23h24l9-43h21v43h35v23H59v120" id="aq"/><g id="b"><use transform="matrix(0.04320987654320988,0,0,0.04320987654320988,0,0)" xlink:href="#al"/><use transform="matrix(0.04320987654320988,0,0,0.04320987654320988,11.19135802469136,0)" xlink:href="#am"/><use transform="matrix(0.04320987654320988,0,0,0.04320987654320988,19.833333333333336,0)" xlink:href="#an"/><use transform="matrix(0.04320987654320988,0,0,0.04320987654320988,28.47530864197531,0)" xlink:href="#ao"/><use transform="matrix(0.04320987654320988,0,0,0.04320987654320988,37.117283950617285,0)" xlink:href="#ap"/><use transform="matrix(0.04320987654320988,0,0,0.04320987654320988,42.25925925925926,0)" xlink:href="#aq"/></g><path d="M212-179c-10-28-35-45-73-45-59 0-87 40-87 99 0 60 29 101 89 101 43 0 62-24 78-52l27 14C228-24 195 4 139 4 59 4 22-46 18-125c-6-104 99-153 187-111 19 9 31 26 39 46" id="ar"/><g id="c"><use transform="matrix(0.04320987654320988,0,0,0.04320987654320988,0,0)" xlink:href="#ar"/><use transform="matrix(0.04320987654320988,0,0,0.04320987654320988,11.19135802469136,0)" xlink:href="#ao"/><use transform="matrix(0.04320987654320988,0,0,0.04320987654320988,19.833333333333336,0)" xlink:href="#ah"/><use transform="matrix(0.04320987654320988,0,0,0.04320987654320988,28.47530864197531,0)" xlink:href="#aq"/><use transform="matrix(0.04320987654320988,0,0,0.04320987654320988,32.7962962962963,0)" xlink:href="#ap"/><use transform="matrix(0.04320987654320988,0,0,0.04320987654320988,37.93827160493827,0)" xlink:href="#ao"/><use transform="matrix(0.04320987654320988,0,0,0.04320987654320988,46.58024691358024,0)" xlink:href="#ak"/><use transform="matrix(0.04320987654320988,0,0,0.04320987654320988,49.99382716049383,0)" xlink:href="#ak"/><use transform="matrix(0.04320987654320988,0,0,0.04320987654320988,53.40740740740741,0)" xlink:href="#am"/><use transform="matrix(0.04320987654320988,0,0,0.04320987654320988,62.04938271604939,0)" xlink:href="#ap"/></g><path d="M18-100v-36l175-74v27L42-118l151 64v27" id="as"/><path d="M101-234c-31-9-42 10-38 44h38v23H63V0H32v-167H5v-23h27c-7-52 17-82 69-68v24" id="at"/><path d="M18-27v-27l151-64-151-65v-27l175 74v36" id="au"/><g id="d"><use transform="matrix(0.04543420314253645,0,0,0.04543420314253645,0,0)" xlink:href="#as"/><use transform="matrix(0.04543420314253645,0,0,0.04543420314253645,9.541182659932653,0)" xlink:href="#as"/><use transform="matrix(0.04543420314253645,0,0,0.04543420314253645,19.082365319865307,0)" xlink:href="#ag"/><use transform="matrix(0.04543420314253645,0,0,0.04543420314253645,22.671667368125686,0)" xlink:href="#ah"/><use transform="matrix(0.04543420314253645,0,0,0.04543420314253645,31.758507996632975,0)" xlink:href="#aq"/><use transform="matrix(0.04543420314253645,0,0,0.04543420314253645,36.30192831088662,0)" xlink:href="#am"/><use transform="matrix(0.04543420314253645,0,0,0.04543420314253645,45.38876893939391,0)" xlink:href="#ap"/><use transform="matrix(0.04543420314253645,0,0,0.04543420314253645,50.79543911335575,0)" xlink:href="#at"/><use transform="matrix(0.04543420314253645,0,0,0.04543420314253645,55.33885942760939,0)" xlink:href="#ai"/><use transform="matrix(0.04543420314253645,0,0,0.04543420314253645,64.42570005611668,0)" xlink:href="#aj"/><use transform="matrix(0.04543420314253645,0,0,0.04543420314253645,72.60385662177325,0)" xlink:href="#am"/><use transform="matrix(0.04543420314253645,0,0,0.04543420314253645,81.69069725028054,0)" xlink:href="#au"/><use transform="matrix(0.04543420314253645,0,0,0.04543420314253645,91.2318799102132,0)" xlink:href="#au"/></g><g id="e"><use transform="matrix(0.04543420314253645,0,0,0.04543420314253645,0,0)" xlink:href="#af"/><use transform="matrix(0.04543420314253645,0,0,0.04543420314253645,9.950090488215482,0)" xlink:href="#ag"/><use transform="matrix(0.04543420314253645,0,0,0.04543420314253645,13.53939253647586,0)" xlink:href="#ah"/><use transform="matrix(0.04543420314253645,0,0,0.04543420314253645,22.626233164983148,0)" xlink:href="#ai"/><use transform="matrix(0.04543420314253645,0,0,0.04543420314253645,31.713073793490434,0)" xlink:href="#ah"/><use transform="matrix(0.04543420314253645,0,0,0.04543420314253645,40.79991442199773,0)" xlink:href="#aj"/><use transform="matrix(0.04543420314253645,0,0,0.04543420314253645,48.97807098765429,0)" xlink:href="#ag"/><use transform="matrix(0.04543420314253645,0,0,0.04543420314253645,52.56737303591467,0)" xlink:href="#ai"/><use transform="matrix(0.04543420314253645,0,0,0.04543420314253645,61.65421366442196,0)" xlink:href="#ak"/></g><g id="f"><use transform="matrix(0.04543420314253645,0,0,0.04543420314253645,0,0)" xlink:href="#al"/><use transform="matrix(0.04543420314253645,0,0,0.04543420314253645,11.76745861391694,0)" xlink:href="#am"/><use transform="matrix(0.04543420314253645,0,0,0.04543420314253645,20.85429924242423,0)" xlink:href="#an"/><use transform="matrix(0.04543420314253645,0,0,0.04543420314253645,29.94113987093152,0)" xlink:href="#ao"/><use transform="matrix(0.04543420314253645,0,0,0.04543420314253645,39.02798049943881,0)" xlink:href="#ap"/><use transform="matrix(0.04543420314253645,0,0,0.04543420314253645,44.43465067340065,0)" xlink:href="#aq"/></g><path d="M30-248c87 1 191-15 191 75 0 78-77 80-158 76V0H30v-248zm33 125c57 0 124 11 124-50 0-59-68-47-124-48v98" id="av"/><path d="M135-143c-3-34-86-38-87 0 15 53 115 12 119 90S17 21 10-45l28-5c4 36 97 45 98 0-10-56-113-15-118-90-4-57 82-63 122-42 12 7 21 19 24 35" id="aw"/><g id="g"><use transform="matrix(0.04543420314253645,0,0,0.04543420314253645,0,0)" xlink:href="#av"/><use transform="matrix(0.04543420314253645,0,0,0.04543420314253645,10.904208754208748,0)" xlink:href="#ap"/><use transform="matrix(0.04543420314253645,0,0,0.04543420314253645,16.310878928170585,0)" xlink:href="#am"/><use transform="matrix(0.04543420314253645,0,0,0.04543420314253645,25.397719556677874,0)" xlink:href="#aw"/><use transform="matrix(0.04543420314253645,0,0,0.04543420314253645,33.575876122334435,0)" xlink:href="#am"/><use transform="matrix(0.04543420314253645,0,0,0.04543420314253645,42.662716750841724,0)" xlink:href="#ah"/><use transform="matrix(0.04543420314253645,0,0,0.04543420314253645,51.749557379349014,0)" xlink:href="#aq"/><use transform="matrix(0.04543420314253645,0,0,0.04543420314253645,56.29297769360266,0)" xlink:href="#am"/><use transform="matrix(0.04543420314253645,0,0,0.04543420314253645,65.37981832210994,0)" xlink:href="#ap"/></g><g id="h"><use transform="matrix(0.058415404040404004,0,0,0.058415404040404004,0,0)" xlink:href="#ar"/><use transform="matrix(0.058415404040404004,0,0,0.058415404040404004,15.129589646464638,0)" xlink:href="#ao"/><use transform="matrix(0.058415404040404004,0,0,0.058415404040404004,26.81267045454544,0)" xlink:href="#ah"/><use transform="matrix(0.058415404040404004,0,0,0.058415404040404004,38.49575126262624,0)" xlink:href="#aq"/><use transform="matrix(0.058415404040404004,0,0,0.058415404040404004,44.337291666666644,0)" xlink:href="#ap"/><use transform="matrix(0.058415404040404004,0,0,0.058415404040404004,51.28872474747472,0)" xlink:href="#ao"/><use transform="matrix(0.058415404040404004,0,0,0.058415404040404004,62.97180555555551,0)" xlink:href="#ak"/><use transform="matrix(0.058415404040404004,0,0,0.058415404040404004,67.58662247474743,0)" xlink:href="#ak"/><use transform="matrix(0.058415404040404004,0,0,0.058415404040404004,72.20143939393935,0)" xlink:href="#am"/><use transform="matrix(0.058415404040404004,0,0,0.058415404040404004,83.88452020202016,0)" xlink:href="#ap"/></g><path d="M185-189c-5-48-123-54-124 2 14 75 158 14 163 119 3 78-121 87-175 55-17-10-28-26-33-46l33-7c5 56 141 63 141-1 0-78-155-14-162-118-5-82 145-84 179-34 5 7 8 16 11 25" id="ax"/><g id="i"><use transform="matrix(0.058415404040404004,0,0,0.058415404040404004,0,0)" xlink:href="#ax"/><use transform="matrix(0.058415404040404004,0,0,0.058415404040404004,14.01969696969696,0)" xlink:href="#aj"/><use transform="matrix(0.058415404040404004,0,0,0.058415404040404004,24.53446969696968,0)" xlink:href="#ap"/><use transform="matrix(0.058415404040404004,0,0,0.058415404040404004,31.485902777777756,0)" xlink:href="#am"/><use transform="matrix(0.058415404040404004,0,0,0.058415404040404004,43.168983585858555,0)" xlink:href="#am"/><use transform="matrix(0.058415404040404004,0,0,0.058415404040404004,54.85206439393936,0)" xlink:href="#ah"/></g><g id="j"><use transform="matrix(0.058415404040404004,0,0,0.058415404040404004,0,0)" xlink:href="#av"/><use transform="matrix(0.058415404040404004,0,0,0.058415404040404004,14.01969696969696,0)" xlink:href="#ap"/><use transform="matrix(0.058415404040404004,0,0,0.058415404040404004,20.97113005050504,0)" xlink:href="#am"/><use transform="matrix(0.058415404040404004,0,0,0.058415404040404004,32.65421085858584,0)" xlink:href="#aw"/><use transform="matrix(0.058415404040404004,0,0,0.058415404040404004,43.16898358585856,0)" xlink:href="#am"/><use transform="matrix(0.058415404040404004,0,0,0.058415404040404004,54.852064393939365,0)" xlink:href="#ah"/><use transform="matrix(0.058415404040404004,0,0,0.058415404040404004,66.53514520202016,0)" xlink:href="#aq"/><use transform="matrix(0.058415404040404004,0,0,0.058415404040404004,72.37668560606056,0)" xlink:href="#am"/><use transform="matrix(0.058415404040404004,0,0,0.058415404040404004,84.05976641414136,0)" xlink:href="#ap"/></g><g id="k"><use transform="matrix(0.04320987654320988,0,0,0.04320987654320988,0,0)" xlink:href="#ax"/><use transform="matrix(0.04320987654320988,0,0,0.04320987654320988,10.370370370370372,0)" xlink:href="#aj"/><use transform="matrix(0.04320987654320988,0,0,0.04320987654320988,18.148148148148152,0)" xlink:href="#ap"/><use transform="matrix(0.04320987654320988,0,0,0.04320987654320988,23.290123456790127,0)" xlink:href="#am"/><use transform="matrix(0.04320987654320988,0,0,0.04320987654320988,31.9320987654321,0)" xlink:href="#am"/><use transform="matrix(0.04320987654320988,0,0,0.04320987654320988,40.574074074074076,0)" xlink:href="#ah"/></g><g id="l"><use transform="matrix(0.04320987654320988,0,0,0.04320987654320988,0,0)" xlink:href="#av"/><use transform="matrix(0.04320987654320988,0,0,0.04320987654320988,10.370370370370372,0)" xlink:href="#ap"/><use transform="matrix(0.04320987654320988,0,0,0.04320987654320988,15.512345679012347,0)" xlink:href="#am"/><use transform="matrix(0.04320987654320988,0,0,0.04320987654320988,24.154320987654323,0)" xlink:href="#aw"/><use transform="matrix(0.04320987654320988,0,0,0.04320987654320988,31.9320987654321,0)" xlink:href="#am"/><use transform="matrix(0.04320987654320988,0,0,0.04320987654320988,40.574074074074076,0)" xlink:href="#ah"/><use transform="matrix(0.04320987654320988,0,0,0.04320987654320988,49.21604938271606,0)" xlink:href="#aq"/><use transform="matrix(0.04320987654320988,0,0,0.04320987654320988,53.537037037037045,0)" xlink:href="#am"/><use transform="matrix(0.04320987654320988,0,0,0.04320987654320988,62.179012345679006,0)" xlink:href="#ap"/></g><path d="M85-194c31 0 48 13 60 33l-1-100h32l1 261h-30c-2-10 0-23-3-31C134-8 116 4 85 4 32 4 16-35 15-94c0-66 23-100 70-100zm9 24c-40 0-46 34-46 75 0 40 6 74 45 74 42 0 51-32 51-76 0-42-9-74-50-73" id="ay"/><g id="m"><use transform="matrix(0.04543420314253645,0,0,0.04543420314253645,0,0)" xlink:href="#as"/><use transform="matrix(0.04543420314253645,0,0,0.04543420314253645,9.541182659932653,0)" xlink:href="#as"/><use transform="matrix(0.04543420314253645,0,0,0.04543420314253645,19.082365319865307,0)" xlink:href="#ay"/><use transform="matrix(0.04543420314253645,0,0,0.04543420314253645,28.169205948372596,0)" xlink:href="#ai"/><use transform="matrix(0.04543420314253645,0,0,0.04543420314253645,37.25604657687988,0)" xlink:href="#aq"/><use transform="matrix(0.04543420314253645,0,0,0.04543420314253645,41.79946689113353,0)" xlink:href="#ai"/></g><path d="M84 4C-5 8 30-112 23-190h32v120c0 31 7 50 39 49 72-2 45-101 50-169h31l1 190h-30c-1-10 1-25-2-33-11 22-28 36-60 37" id="az"/><g id="n"><use transform="matrix(0.04543420314253645,0,0,0.04543420314253645,0,0)" xlink:href="#aw"/><use transform="matrix(0.04543420314253645,0,0,0.04543420314253645,8.178156565656561,0)" xlink:href="#aq"/><use transform="matrix(0.04543420314253645,0,0,0.04543420314253645,12.721576879910206,0)" xlink:href="#ap"/><use transform="matrix(0.04543420314253645,0,0,0.04543420314253645,18.128247053872045,0)" xlink:href="#az"/><use transform="matrix(0.04543420314253645,0,0,0.04543420314253645,27.21508768237933,0)" xlink:href="#aj"/><use transform="matrix(0.04543420314253645,0,0,0.04543420314253645,35.3932442480359,0)" xlink:href="#aq"/><use transform="matrix(0.04543420314253645,0,0,0.04543420314253645,39.93666456228954,0)" xlink:href="#az"/><use transform="matrix(0.04543420314253645,0,0,0.04543420314253645,49.02350519079684,0)" xlink:href="#ap"/><use transform="matrix(0.04543420314253645,0,0,0.04543420314253645,54.43017536475866,0)" xlink:href="#am"/><use transform="matrix(0.04543420314253645,0,0,0.04543420314253645,63.51701599326595,0)" xlink:href="#au"/><use transform="matrix(0.04543420314253645,0,0,0.04543420314253645,73.05819865319862,0)" xlink:href="#au"/></g><g id="o"><use transform="matrix(0.04543420314253645,0,0,0.04543420314253645,0,0)" xlink:href="#ax"/><use transform="matrix(0.04543420314253645,0,0,0.04543420314253645,10.904208754208748,0)" xlink:href="#aj"/><use transform="matrix(0.04543420314253645,0,0,0.04543420314253645,19.08236531986531,0)" xlink:href="#ap"/><use transform="matrix(0.04543420314253645,0,0,0.04543420314253645,24.489035493827146,0)" xlink:href="#am"/><use transform="matrix(0.04543420314253645,0,0,0.04543420314253645,33.575876122334435,0)" xlink:href="#am"/><use transform="matrix(0.04543420314253645,0,0,0.04543420314253645,42.662716750841724,0)" xlink:href="#ah"/></g><path d="M137 0h-34L2-248h35l83 218 83-218h36" id="aA"/><path d="M206 0h-36l-40-164L89 0H53L-1-190h32L70-26l43-164h34l41 164 42-164h31" id="aB"/><g id="p"><use transform="matrix(0.04543420314253645,0,0,0.04543420314253645,0,0)" xlink:href="#aA"/><use transform="matrix(0.04543420314253645,0,0,0.04543420314253645,10.586169332210993,0)" xlink:href="#ag"/><use transform="matrix(0.04543420314253645,0,0,0.04543420314253645,14.175471380471372,0)" xlink:href="#am"/><use transform="matrix(0.04543420314253645,0,0,0.04543420314253645,23.26231200897866,0)" xlink:href="#aB"/></g><path d="M240 0l2-218c-23 76-54 145-80 218h-23L58-218 59 0H30v-248h44l77 211c21-75 51-140 76-211h43V0h-30" id="aC"/><g id="q"><use transform="matrix(0.04543420314253645,0,0,0.04543420314253645,0,0)" xlink:href="#aC"/><use transform="matrix(0.04543420314253645,0,0,0.04543420314253645,13.584826739618398,0)" xlink:href="#ao"/><use transform="matrix(0.04543420314253645,0,0,0.04543420314253645,22.67166736812569,0)" xlink:href="#ay"/><use transform="matrix(0.04543420314253645,0,0,0.04543420314253645,31.758507996632975,0)" xlink:href="#am"/><use transform="matrix(0.04543420314253645,0,0,0.04543420314253645,40.84534862514027,0)" xlink:href="#ak"/></g><g id="r"><use transform="matrix(0.04543420314253645,0,0,0.04543420314253645,0,0)" xlink:href="#ax"/><use transform="matrix(0.04543420314253645,0,0,0.04543420314253645,10.904208754208748,0)" xlink:href="#aj"/><use transform="matrix(0.04543420314253645,0,0,0.04543420314253645,19.08236531986531,0)" xlink:href="#ap"/><use transform="matrix(0.04543420314253645,0,0,0.04543420314253645,24.489035493827146,0)" xlink:href="#am"/><use transform="matrix(0.04543420314253645,0,0,0.04543420314253645,33.575876122334435,0)" xlink:href="#am"/><use transform="matrix(0.04543420314253645,0,0,0.04543420314253645,42.662716750841724,0)" xlink:href="#ah"/></g><g id="s"><use transform="matrix(0.04543420314253645,0,0,0.04543420314253645,0,0)" xlink:href="#aA"/><use transform="matrix(0.04543420314253645,0,0,0.04543420314253645,10.586169332210993,0)" xlink:href="#ag"/><use transform="matrix(0.04543420314253645,0,0,0.04543420314253645,14.175471380471372,0)" xlink:href="#am"/><use transform="matrix(0.04543420314253645,0,0,0.04543420314253645,23.26231200897866,0)" xlink:href="#aB"/></g><g id="t"><use transform="matrix(0.058415404040404004,0,0,0.058415404040404004,0,0)" xlink:href="#av"/><use transform="matrix(0.058415404040404004,0,0,0.058415404040404004,14.01969696969696,0)" xlink:href="#ap"/><use transform="matrix(0.058415404040404004,0,0,0.058415404040404004,20.97113005050504,0)" xlink:href="#ag"/><use transform="matrix(0.058415404040404004,0,0,0.058415404040404004,25.585946969696955,0)" xlink:href="#ah"/><use transform="matrix(0.058415404040404004,0,0,0.058415404040404004,37.26902777777776,0)" xlink:href="#aq"/></g><g id="u"><use transform="matrix(0.04320987654320988,0,0,0.04320987654320988,0,0)" xlink:href="#av"/><use transform="matrix(0.04320987654320988,0,0,0.04320987654320988,10.370370370370372,0)" xlink:href="#ap"/><use transform="matrix(0.04320987654320988,0,0,0.04320987654320988,15.512345679012347,0)" xlink:href="#ag"/><use transform="matrix(0.04320987654320988,0,0,0.04320987654320988,18.92592592592593,0)" xlink:href="#ah"/><use transform="matrix(0.04320987654320988,0,0,0.04320987654320988,27.567901234567906,0)" xlink:href="#aq"/></g><g id="v"><use transform="matrix(0.04543420314253645,0,0,0.04543420314253645,0,0)" xlink:href="#av"/><use transform="matrix(0.04543420314253645,0,0,0.04543420314253645,10.904208754208748,0)" xlink:href="#ap"/><use transform="matrix(0.04543420314253645,0,0,0.04543420314253645,16.310878928170585,0)" xlink:href="#ag"/><use transform="matrix(0.04543420314253645,0,0,0.04543420314253645,19.900180976430963,0)" xlink:href="#ah"/><use transform="matrix(0.04543420314253645,0,0,0.04543420314253645,28.987021604938253,0)" xlink:href="#aq"/></g><g id="w"><use transform="matrix(0.04543420314253645,0,0,0.04543420314253645,0,0)" xlink:href="#av"/><use transform="matrix(0.04543420314253645,0,0,0.04543420314253645,10.904208754208748,0)" xlink:href="#ap"/><use transform="matrix(0.04543420314253645,0,0,0.04543420314253645,16.310878928170585,0)" xlink:href="#ag"/><use transform="matrix(0.04543420314253645,0,0,0.04543420314253645,19.900180976430963,0)" xlink:href="#ah"/><use transform="matrix(0.04543420314253645,0,0,0.04543420314253645,28.987021604938253,0)" xlink:href="#aq"/></g><path d="M266 0h-40l-56-210L115 0H75L2-248h35L96-30l15-64 43-154h32l59 218 59-218h35" id="aD"/><path d="M115-194c53 0 69 39 70 98 0 66-23 100-70 100C84 3 66-7 56-30L54 0H23l1-261h32v101c10-23 28-34 59-34zm-8 174c40 0 45-34 45-75 0-40-5-75-45-74-42 0-51 32-51 76 0 43 10 73 51 73" id="aE"/><g id="x"><use transform="matrix(0.058415404040404004,0,0,0.058415404040404004,0,0)" xlink:href="#aD"/><use transform="matrix(0.058415404040404004,0,0,0.058415404040404004,19.39391414141413,0)" xlink:href="#am"/><use transform="matrix(0.058415404040404004,0,0,0.058415404040404004,31.07699494949493,0)" xlink:href="#aE"/></g><g id="y"><use transform="matrix(0.058415404040404004,0,0,0.058415404040404004,0,0)" xlink:href="#aA"/><use transform="matrix(0.058415404040404004,0,0,0.058415404040404004,13.610789141414132,0)" xlink:href="#ag"/><use transform="matrix(0.058415404040404004,0,0,0.058415404040404004,18.225606060606047,0)" xlink:href="#am"/><use transform="matrix(0.058415404040404004,0,0,0.058415404040404004,29.90868686868685,0)" xlink:href="#aB"/></g><path d="M30-248c118-7 216 8 213 122C240-48 200 0 122 0H30v-248zM63-27c89 8 146-16 146-99s-60-101-146-95v194" id="aF"/><g id="z"><use transform="matrix(0.058415404040404004,0,0,0.058415404040404004,0,0)" xlink:href="#av"/><use transform="matrix(0.058415404040404004,0,0,0.058415404040404004,14.01969696969696,0)" xlink:href="#aF"/><use transform="matrix(0.058415404040404004,0,0,0.058415404040404004,29.149286616161596,0)" xlink:href="#af"/></g><path d="M33 0v-248h34V0H33" id="aG"/><g id="A"><use transform="matrix(0.058415404040404004,0,0,0.058415404040404004,0,0)" xlink:href="#aG"/><use transform="matrix(0.058415404040404004,0,0,0.058415404040404004,5.8415404040404,0)" xlink:href="#ah"/><use transform="matrix(0.058415404040404004,0,0,0.058415404040404004,17.5246212121212,0)" xlink:href="#aq"/><use transform="matrix(0.058415404040404004,0,0,0.058415404040404004,23.3661616161616,0)" xlink:href="#am"/><use transform="matrix(0.058415404040404004,0,0,0.058415404040404004,35.0492424242424,0)" xlink:href="#ap"/><use transform="matrix(0.058415404040404004,0,0,0.058415404040404004,42.00067550505048,0)" xlink:href="#ai"/><use transform="matrix(0.058415404040404004,0,0,0.058415404040404004,53.68375631313128,0)" xlink:href="#aj"/><use transform="matrix(0.058415404040404004,0,0,0.058415404040404004,64.198529040404,0)" xlink:href="#aq"/><use transform="matrix(0.058415404040404004,0,0,0.058415404040404004,70.0400694444444,0)" xlink:href="#ao"/><use transform="matrix(0.058415404040404004,0,0,0.058415404040404004,81.7231502525252,0)" xlink:href="#ap"/></g><path d="M145-31C134-9 116 4 85 4 32 4 16-35 15-94c0-59 17-99 70-100 32-1 48 14 60 33 0-11-1-24 2-32h30l-1 268h-32zM93-21c41 0 51-33 51-76s-8-73-50-73c-40 0-46 35-46 75s5 74 45 74" id="aH"/><g id="B"><use transform="matrix(0.04543420314253645,0,0,0.04543420314253645,0,0)" xlink:href="#al"/><use transform="matrix(0.04543420314253645,0,0,0.04543420314253645,11.76745861391694,0)" xlink:href="#am"/><use transform="matrix(0.04543420314253645,0,0,0.04543420314253645,20.85429924242423,0)" xlink:href="#aH"/><use transform="matrix(0.04543420314253645,0,0,0.04543420314253645,29.94113987093152,0)" xlink:href="#az"/><use transform="matrix(0.04543420314253645,0,0,0.04543420314253645,39.02798049943881,0)" xlink:href="#am"/><use transform="matrix(0.04543420314253645,0,0,0.04543420314253645,48.1148211279461,0)" xlink:href="#aw"/><use transform="matrix(0.04543420314253645,0,0,0.04543420314253645,56.292977693602666,0)" xlink:href="#aq"/><use transform="matrix(0.04543420314253645,0,0,0.04543420314253645,60.83639800785631,0)" xlink:href="#am"/><use transform="matrix(0.04543420314253645,0,0,0.04543420314253645,69.9232386363636,0)" xlink:href="#ap"/></g><g id="C"><use transform="matrix(0.04543420314253645,0,0,0.04543420314253645,0,0)" xlink:href="#aw"/><use transform="matrix(0.04543420314253645,0,0,0.04543420314253645,8.178156565656561,0)" xlink:href="#aq"/><use transform="matrix(0.04543420314253645,0,0,0.04543420314253645,12.721576879910206,0)" xlink:href="#ap"/><use transform="matrix(0.04543420314253645,0,0,0.04543420314253645,18.128247053872045,0)" xlink:href="#az"/><use transform="matrix(0.04543420314253645,0,0,0.04543420314253645,27.21508768237933,0)" xlink:href="#aj"/><use transform="matrix(0.04543420314253645,0,0,0.04543420314253645,35.3932442480359,0)" xlink:href="#aq"/><use transform="matrix(0.04543420314253645,0,0,0.04543420314253645,39.93666456228954,0)" xlink:href="#az"/><use transform="matrix(0.04543420314253645,0,0,0.04543420314253645,49.02350519079684,0)" xlink:href="#ap"/><use transform="matrix(0.04543420314253645,0,0,0.04543420314253645,54.43017536475866,0)" xlink:href="#am"/><use transform="matrix(0.04543420314253645,0,0,0.04543420314253645,63.51701599326595,0)" xlink:href="#au"/><use transform="matrix(0.04543420314253645,0,0,0.04543420314253645,73.05819865319862,0)" xlink:href="#au"/></g><g id="D"><use transform="matrix(0.04543420314253645,0,0,0.04543420314253645,0,0)" xlink:href="#al"/><use transform="matrix(0.04543420314253645,0,0,0.04543420314253645,11.76745861391694,0)" xlink:href="#am"/><use transform="matrix(0.04543420314253645,0,0,0.04543420314253645,20.85429924242423,0)" xlink:href="#aw"/><use transform="matrix(0.04543420314253645,0,0,0.04543420314253645,29.03245580808079,0)" xlink:href="#an"/><use transform="matrix(0.04543420314253645,0,0,0.04543420314253645,38.11929643658808,0)" xlink:href="#ao"/><use transform="matrix(0.04543420314253645,0,0,0.04543420314253645,47.20613706509537,0)" xlink:href="#ah"/><use transform="matrix(0.04543420314253645,0,0,0.04543420314253645,56.29297769360266,0)" xlink:href="#aw"/><use transform="matrix(0.04543420314253645,0,0,0.04543420314253645,64.47113425925922,0)" xlink:href="#am"/></g><g id="E"><use transform="matrix(0.04543420314253645,0,0,0.04543420314253645,0,0)" xlink:href="#al"/><use transform="matrix(0.04543420314253645,0,0,0.04543420314253645,11.76745861391694,0)" xlink:href="#am"/><use transform="matrix(0.04543420314253645,0,0,0.04543420314253645,20.85429924242423,0)" xlink:href="#aH"/><use transform="matrix(0.04543420314253645,0,0,0.04543420314253645,29.94113987093152,0)" xlink:href="#az"/><use transform="matrix(0.04543420314253645,0,0,0.04543420314253645,39.02798049943881,0)" xlink:href="#am"/><use transform="matrix(0.04543420314253645,0,0,0.04543420314253645,48.1148211279461,0)" xlink:href="#aw"/><use transform="matrix(0.04543420314253645,0,0,0.04543420314253645,56.292977693602666,0)" xlink:href="#aq"/></g><path d="M143 4C61 4 22-44 18-125c-5-107 100-154 193-111 17 8 29 25 37 43l-32 9c-13-25-37-40-76-40-61 0-88 39-88 99 0 61 29 100 91 101 35 0 62-11 79-27v-45h-74v-28h105v86C228-13 192 4 143 4" id="aI"/><g id="F"><use transform="matrix(0.04320987654320988,0,0,0.04320987654320988,0,0)" xlink:href="#aI"/><use transform="matrix(0.04320987654320988,0,0,0.04320987654320988,12.098765432098766,0)" xlink:href="#am"/><use transform="matrix(0.04320987654320988,0,0,0.04320987654320988,20.74074074074074,0)" xlink:href="#ah"/><use transform="matrix(0.04320987654320988,0,0,0.04320987654320988,29.382716049382715,0)" xlink:href="#am"/><use transform="matrix(0.04320987654320988,0,0,0.04320987654320988,38.02469135802469,0)" xlink:href="#ap"/><use transform="matrix(0.04320987654320988,0,0,0.04320987654320988,43.166666666666664,0)" xlink:href="#ai"/><use transform="matrix(0.04320987654320988,0,0,0.04320987654320988,51.80864197530864,0)" xlink:href="#aq"/><use transform="matrix(0.04320987654320988,0,0,0.04320987654320988,56.129629629629626,0)" xlink:href="#ao"/><use transform="matrix(0.04320987654320988,0,0,0.04320987654320988,64.77160493827161,0)" xlink:href="#ap"/></g><g id="G"><use transform="matrix(0.04543420314253645,0,0,0.04543420314253645,0,0)" xlink:href="#aF"/><use transform="matrix(0.04543420314253645,0,0,0.04543420314253645,11.76745861391694,0)" xlink:href="#ai"/><use transform="matrix(0.04543420314253645,0,0,0.04543420314253645,20.85429924242423,0)" xlink:href="#aq"/><use transform="matrix(0.04543420314253645,0,0,0.04543420314253645,25.397719556677874,0)" xlink:href="#ai"/></g><path d="M179-190L93 31C79 59 56 82 12 73V49c39 6 53-20 64-50L1-190h34L92-34l54-156h33" id="aJ"/><g id="H"><use transform="matrix(0.04543420314253645,0,0,0.04543420314253645,0,0)" xlink:href="#aI"/><use transform="matrix(0.04543420314253645,0,0,0.04543420314253645,12.721576879910206,0)" xlink:href="#ai"/><use transform="matrix(0.04543420314253645,0,0,0.04543420314253645,21.808417508417495,0)" xlink:href="#aq"/><use transform="matrix(0.04543420314253645,0,0,0.04543420314253645,26.35183782267114,0)" xlink:href="#am"/><use transform="matrix(0.04543420314253645,0,0,0.04543420314253645,35.43867845117843,0)" xlink:href="#aB"/><use transform="matrix(0.04543420314253645,0,0,0.04543420314253645,47.206137065095376,0)" xlink:href="#ai"/><use transform="matrix(0.04543420314253645,0,0,0.04543420314253645,56.292977693602666,0)" xlink:href="#aJ"/></g><path d="M30 0v-248h187v28H63v79h144v27H63v87h162V0H30" id="aK"/><g id="I"><use transform="matrix(0.04320987654320988,0,0,0.04320987654320988,0,0)" xlink:href="#aK"/><use transform="matrix(0.04320987654320988,0,0,0.04320987654320988,10.370370370370372,0)" xlink:href="#ah"/><use transform="matrix(0.04320987654320988,0,0,0.04320987654320988,19.01234567901235,0)" xlink:href="#aq"/><use transform="matrix(0.04320987654320988,0,0,0.04320987654320988,23.333333333333336,0)" xlink:href="#ag"/><use transform="matrix(0.04320987654320988,0,0,0.04320987654320988,26.746913580246915,0)" xlink:href="#aq"/><use transform="matrix(0.04320987654320988,0,0,0.04320987654320988,31.067901234567906,0)" xlink:href="#ag"/><use transform="matrix(0.04320987654320988,0,0,0.04320987654320988,34.48148148148149,0)" xlink:href="#am"/><use transform="matrix(0.04320987654320988,0,0,0.04320987654320988,43.12345679012346,0)" xlink:href="#aw"/></g><g id="J"><use transform="matrix(0.058415404040404004,0,0,0.058415404040404004,0,0)" xlink:href="#aF"/><use transform="matrix(0.058415404040404004,0,0,0.058415404040404004,15.129589646464638,0)" xlink:href="#ai"/><use transform="matrix(0.058415404040404004,0,0,0.058415404040404004,26.81267045454544,0)" xlink:href="#aq"/><use transform="matrix(0.058415404040404004,0,0,0.058415404040404004,32.65421085858584,0)" xlink:href="#ai"/><use transform="matrix(0.058415404040404004,0,0,0.058415404040404004,44.337291666666644,0)" xlink:href="#aE"/><use transform="matrix(0.058415404040404004,0,0,0.058415404040404004,56.02037247474745,0)" xlink:href="#ai"/><use transform="matrix(0.058415404040404004,0,0,0.058415404040404004,67.70345328282825,0)" xlink:href="#aw"/><use transform="matrix(0.058415404040404004,0,0,0.058415404040404004,78.21822601010098,0)" xlink:href="#am"/></g><g id="K"><use transform="matrix(0.04320987654320988,0,0,0.04320987654320988,0,0)" xlink:href="#aF"/><use transform="matrix(0.04320987654320988,0,0,0.04320987654320988,11.19135802469136,0)" xlink:href="#ai"/><use transform="matrix(0.04320987654320988,0,0,0.04320987654320988,19.833333333333336,0)" xlink:href="#aq"/><use transform="matrix(0.04320987654320988,0,0,0.04320987654320988,24.154320987654323,0)" xlink:href="#ai"/></g><g id="L"><use transform="matrix(0.04320987654320988,0,0,0.04320987654320988,0,0)" xlink:href="#aC"/><use transform="matrix(0.04320987654320988,0,0,0.04320987654320988,12.919753086419755,0)" xlink:href="#ai"/><use transform="matrix(0.04320987654320988,0,0,0.04320987654320988,21.56172839506173,0)" xlink:href="#an"/><use transform="matrix(0.04320987654320988,0,0,0.04320987654320988,30.203703703703713,0)" xlink:href="#an"/><use transform="matrix(0.04320987654320988,0,0,0.04320987654320988,38.845679012345684,0)" xlink:href="#am"/><use transform="matrix(0.04320987654320988,0,0,0.04320987654320988,47.48765432098766,0)" xlink:href="#ap"/></g><g id="M"><use transform="matrix(0.04320987654320988,0,0,0.04320987654320988,0,0)" xlink:href="#af"/><use transform="matrix(0.04320987654320988,0,0,0.04320987654320988,9.462962962962964,0)" xlink:href="#ag"/><use transform="matrix(0.04320987654320988,0,0,0.04320987654320988,12.876543209876544,0)" xlink:href="#ah"/><use transform="matrix(0.04320987654320988,0,0,0.04320987654320988,21.51851851851852,0)" xlink:href="#ai"/><use transform="matrix(0.04320987654320988,0,0,0.04320987654320988,30.160493827160494,0)" xlink:href="#ah"/><use transform="matrix(0.04320987654320988,0,0,0.04320987654320988,38.80246913580247,0)" xlink:href="#aj"/><use transform="matrix(0.04320987654320988,0,0,0.04320987654320988,46.58024691358024,0)" xlink:href="#ag"/><use transform="matrix(0.04320987654320988,0,0,0.04320987654320988,49.99382716049383,0)" xlink:href="#ai"/><use transform="matrix(0.04320987654320988,0,0,0.04320987654320988,58.63580246913581,0)" xlink:href="#ak"/></g><g id="N"><use transform="matrix(0.04320987654320988,0,0,0.04320987654320988,0,0)" xlink:href="#aF"/><use transform="matrix(0.04320987654320988,0,0,0.04320987654320988,11.19135802469136,0)" xlink:href="#ai"/><use transform="matrix(0.04320987654320988,0,0,0.04320987654320988,19.833333333333336,0)" xlink:href="#aq"/><use transform="matrix(0.04320987654320988,0,0,0.04320987654320988,24.154320987654323,0)" xlink:href="#ai"/><use transform="matrix(0.04320987654320988,0,0,0.04320987654320988,32.7962962962963,0)" xlink:href="#aE"/><use transform="matrix(0.04320987654320988,0,0,0.04320987654320988,41.43827160493827,0)" xlink:href="#ai"/><use transform="matrix(0.04320987654320988,0,0,0.04320987654320988,50.08024691358024,0)" xlink:href="#aw"/><use transform="matrix(0.04320987654320988,0,0,0.04320987654320988,57.85802469135802,0)" xlink:href="#am"/></g><path d="M205 0l-28-72H64L36 0H1l101-248h38L239 0h-34zm-38-99l-47-123c-12 45-31 82-46 123h93" id="aL"/><g id="O"><use transform="matrix(0.04320987654320988,0,0,0.04320987654320988,0,0)" xlink:href="#aL"/><use transform="matrix(0.04320987654320988,0,0,0.04320987654320988,10.370370370370372,0)" xlink:href="#ak"/><use transform="matrix(0.04320987654320988,0,0,0.04320987654320988,13.783950617283953,0)" xlink:href="#ak"/></g><g id="P"><use transform="matrix(0.04320987654320988,0,0,0.04320987654320988,0,0)" xlink:href="#ay"/><use transform="matrix(0.04320987654320988,0,0,0.04320987654320988,8.641975308641976,0)" xlink:href="#am"/><use transform="matrix(0.04320987654320988,0,0,0.04320987654320988,17.283950617283953,0)" xlink:href="#an"/><use transform="matrix(0.04320987654320988,0,0,0.04320987654320988,25.925925925925927,0)" xlink:href="#am"/><use transform="matrix(0.04320987654320988,0,0,0.04320987654320988,34.567901234567906,0)" xlink:href="#ah"/><use transform="matrix(0.04320987654320988,0,0,0.04320987654320988,43.20987654320988,0)" xlink:href="#ay"/><use transform="matrix(0.04320987654320988,0,0,0.04320987654320988,51.851851851851855,0)" xlink:href="#am"/><use transform="matrix(0.04320987654320988,0,0,0.04320987654320988,60.49382716049384,0)" xlink:href="#ah"/><use transform="matrix(0.04320987654320988,0,0,0.04320987654320988,69.13580246913581,0)" xlink:href="#aj"/><use transform="matrix(0.04320987654320988,0,0,0.04320987654320988,76.9135802469136,0)" xlink:href="#ag"/><use transform="matrix(0.04320987654320988,0,0,0.04320987654320988,80.32716049382718,0)" xlink:href="#am"/><use transform="matrix(0.04320987654320988,0,0,0.04320987654320988,88.96913580246914,0)" xlink:href="#aw"/></g><g id="Q"><use transform="matrix(0.04320987654320988,0,0,0.04320987654320988,0,0)" xlink:href="#ai"/><use transform="matrix(0.04320987654320988,0,0,0.04320987654320988,8.641975308641976,0)" xlink:href="#ap"/><use transform="matrix(0.04320987654320988,0,0,0.04320987654320988,13.783950617283953,0)" xlink:href="#am"/></g><g id="R"><use transform="matrix(0.04320987654320988,0,0,0.04320987654320988,0,0)" xlink:href="#aw"/><use transform="matrix(0.04320987654320988,0,0,0.04320987654320988,7.777777777777779,0)" xlink:href="#ao"/><use transform="matrix(0.04320987654320988,0,0,0.04320987654320988,16.419753086419753,0)" xlink:href="#az"/><use transform="matrix(0.04320987654320988,0,0,0.04320987654320988,25.061728395061728,0)" xlink:href="#ap"/><use transform="matrix(0.04320987654320988,0,0,0.04320987654320988,30.203703703703702,0)" xlink:href="#aj"/><use transform="matrix(0.04320987654320988,0,0,0.04320987654320988,37.98148148148148,0)" xlink:href="#am"/></g><g id="S"><use transform="matrix(0.04320987654320988,0,0,0.04320987654320988,0,0)" xlink:href="#aj"/><use transform="matrix(0.04320987654320988,0,0,0.04320987654320988,7.777777777777779,0)" xlink:href="#ao"/><use transform="matrix(0.04320987654320988,0,0,0.04320987654320988,16.419753086419753,0)" xlink:href="#ay"/><use transform="matrix(0.04320987654320988,0,0,0.04320987654320988,25.061728395061728,0)" xlink:href="#am"/></g><g id="T"><use transform="matrix(0.04320987654320988,0,0,0.04320987654320988,0,0)" xlink:href="#ay"/><use transform="matrix(0.04320987654320988,0,0,0.04320987654320988,8.641975308641976,0)" xlink:href="#am"/><use transform="matrix(0.04320987654320988,0,0,0.04320987654320988,17.283950617283953,0)" xlink:href="#an"/><use transform="matrix(0.04320987654320988,0,0,0.04320987654320988,25.925925925925927,0)" xlink:href="#am"/><use transform="matrix(0.04320987654320988,0,0,0.04320987654320988,34.567901234567906,0)" xlink:href="#ah"/><use transform="matrix(0.04320987654320988,0,0,0.04320987654320988,43.20987654320988,0)" xlink:href="#ay"/><use transform="matrix(0.04320987654320988,0,0,0.04320987654320988,51.851851851851855,0)" xlink:href="#am"/><use transform="matrix(0.04320987654320988,0,0,0.04320987654320988,60.49382716049384,0)" xlink:href="#ah"/><use transform="matrix(0.04320987654320988,0,0,0.04320987654320988,69.13580246913581,0)" xlink:href="#aj"/><use transform="matrix(0.04320987654320988,0,0,0.04320987654320988,76.9135802469136,0)" xlink:href="#ag"/><use transform="matrix(0.04320987654320988,0,0,0.04320987654320988,80.32716049382718,0)" xlink:href="#am"/><use transform="matrix(0.04320987654320988,0,0,0.04320987654320988,88.96913580246914,0)" xlink:href="#aw"/></g><path d="M210-169c-67 3-38 105-44 169h-31v-121c0-29-5-50-35-48C34-165 62-65 56 0H25l-1-190h30c1 10-1 24 2 32 10-44 99-50 107 0 11-21 27-35 58-36 85-2 47 119 55 194h-31v-121c0-29-5-49-35-48" id="aM"/><g id="U"><use transform="matrix(0.04320987654320988,0,0,0.04320987654320988,0,0)" xlink:href="#aj"/><use transform="matrix(0.04320987654320988,0,0,0.04320987654320988,7.777777777777779,0)" xlink:href="#ao"/><use transform="matrix(0.04320987654320988,0,0,0.04320987654320988,16.419753086419753,0)" xlink:href="#aM"/><use transform="matrix(0.04320987654320988,0,0,0.04320987654320988,29.339506172839503,0)" xlink:href="#an"/><use transform="matrix(0.04320987654320988,0,0,0.04320987654320988,37.98148148148148,0)" xlink:href="#ao"/><use transform="matrix(0.04320987654320988,0,0,0.04320987654320988,46.62345679012345,0)" xlink:href="#ah"/><use transform="matrix(0.04320987654320988,0,0,0.04320987654320988,55.26543209876543,0)" xlink:href="#am"/><use transform="matrix(0.04320987654320988,0,0,0.04320987654320988,63.907407407407405,0)" xlink:href="#ah"/><use transform="matrix(0.04320987654320988,0,0,0.04320987654320988,72.54938271604938,0)" xlink:href="#aq"/></g><g id="V"><use transform="matrix(0.04320987654320988,0,0,0.04320987654320988,0,0)" xlink:href="#aE"/><use transform="matrix(0.04320987654320988,0,0,0.04320987654320988,8.641975308641976,0)" xlink:href="#ao"/><use transform="matrix(0.04320987654320988,0,0,0.04320987654320988,17.283950617283953,0)" xlink:href="#az"/><use transform="matrix(0.04320987654320988,0,0,0.04320987654320988,25.925925925925927,0)" xlink:href="#ah"/><use transform="matrix(0.04320987654320988,0,0,0.04320987654320988,34.567901234567906,0)" xlink:href="#ay"/><use transform="matrix(0.04320987654320988,0,0,0.04320987654320988,43.20987654320988,0)" xlink:href="#ai"/><use transform="matrix(0.04320987654320988,0,0,0.04320987654320988,51.851851851851855,0)" xlink:href="#ap"/><use transform="matrix(0.04320987654320988,0,0,0.04320987654320988,56.99382716049384,0)" xlink:href="#ag"/><use transform="matrix(0.04320987654320988,0,0,0.04320987654320988,60.40740740740741,0)" xlink:href="#am"/><use transform="matrix(0.04320987654320988,0,0,0.04320987654320988,69.0493827160494,0)" xlink:href="#aw"/></g><path d="M190-63c-7 42-38 67-86 67-59 0-84-38-90-98-12-110 154-137 174-36l-49 2c-2-19-15-32-35-32-30 0-35 28-38 64-6 74 65 87 74 30" id="aN"/><path d="M135-150c-39-12-60 13-60 57V0H25l-1-190h47c2 13-1 29 3 40 6-28 27-53 61-41v41" id="aO"/><path d="M110-194c64 0 96 36 96 99 0 64-35 99-97 99-61 0-95-36-95-99 0-62 34-99 96-99zm-1 164c35 0 45-28 45-65 0-40-10-65-43-65-34 0-45 26-45 65 0 36 10 65 43 65" id="aP"/><path d="M137-138c1-29-70-34-71-4 15 46 118 7 119 86 1 83-164 76-172 9l43-7c4 19 20 25 44 25 33 8 57-30 24-41C81-84 22-81 20-136c-2-80 154-74 161-7" id="aQ"/><path d="M185-48c-13 30-37 53-82 52C43 2 14-33 14-96s30-98 90-98c62 0 83 45 84 108H66c0 31 8 55 39 56 18 0 30-7 34-22zm-45-69c5-46-57-63-70-21-2 6-4 13-4 21h74" id="aR"/><path d="M88-194c31-1 46 15 58 34l-1-101h50l1 261h-48c-2-10 0-23-3-31C134-8 116 4 84 4 32 4 16-41 15-95c0-56 19-97 73-99zm17 164c33 0 40-30 41-66 1-37-9-64-41-64s-38 30-39 65c0 43 13 65 39 65" id="aS"/><g id="W"><use transform="matrix(0.04320987654320988,0,0,0.04320987654320988,0,0)" xlink:href="#aN"/><use transform="matrix(0.04320987654320988,0,0,0.04320987654320988,8.641975308641976,0)" xlink:href="#aO"/><use transform="matrix(0.04320987654320988,0,0,0.04320987654320988,14.69135802469136,0)" xlink:href="#aP"/><use transform="matrix(0.04320987654320988,0,0,0.04320987654320988,24.154320987654323,0)" xlink:href="#aQ"/><use transform="matrix(0.04320987654320988,0,0,0.04320987654320988,32.7962962962963,0)" xlink:href="#aQ"/><use transform="matrix(0.04320987654320988,0,0,0.04320987654320988,41.43827160493827,0)" xlink:href="#aR"/><use transform="matrix(0.04320987654320988,0,0,0.04320987654320988,50.08024691358024,0)" xlink:href="#aS"/></g><path d="M135-194c87-1 58 113 63 194h-50c-7-57 23-157-34-157-59 0-34 97-39 157H25l-1-190h47c2 12-1 28 3 38 12-26 28-41 61-42" id="aT"/><g id="X"><use transform="matrix(0.04320987654320988,0,0,0.04320987654320988,0,0)" xlink:href="#aP"/><use transform="matrix(0.04320987654320988,0,0,0.04320987654320988,9.462962962962964,0)" xlink:href="#aT"/><use transform="matrix(0.04320987654320988,0,0,0.04320987654320988,18.925925925925927,0)" xlink:href="#aR"/></g><path d="M231 0h-52l-39-155L100 0H48L-1-190h46L77-45c9-52 24-97 36-145h53l37 145 32-145h46" id="aU"/><path d="M133-34C117-15 103 5 69 4 32 3 11-16 11-54c-1-60 55-63 116-61 1-26-3-47-28-47-18 1-26 9-28 27l-52-2c7-38 36-58 82-57s74 22 75 68l1 82c-1 14 12 18 25 15v27c-30 8-71 5-69-32zm-48 3c29 0 43-24 42-57-32 0-66-3-65 30 0 17 8 27 23 27" id="aV"/><path d="M123 10C108 53 80 86 19 72V37c35 8 53-11 59-39L3-190h52l48 148c12-52 28-100 44-148h51" id="aW"/><g id="Y"><use transform="matrix(0.04320987654320988,0,0,0.04320987654320988,0,0)" xlink:href="#aU"/><use transform="matrix(0.04320987654320988,0,0,0.04320987654320988,12.098765432098766,0)" xlink:href="#aV"/><use transform="matrix(0.04320987654320988,0,0,0.04320987654320988,20.74074074074074,0)" xlink:href="#aW"/></g><path d="M25 0v-261h50V0H25" id="aX"/><g id="Z"><use transform="matrix(0.04320987654320988,0,0,0.04320987654320988,0,0)" xlink:href="#aP"/><use transform="matrix(0.04320987654320988,0,0,0.04320987654320988,9.462962962962964,0)" xlink:href="#aT"/><use transform="matrix(0.04320987654320988,0,0,0.04320987654320988,18.925925925925927,0)" xlink:href="#aX"/><use transform="matrix(0.04320987654320988,0,0,0.04320987654320988,23.246913580246915,0)" xlink:href="#aW"/></g><path d="M67-93c0 74 22 123 53 168H70C40 30 18-18 18-93s22-123 52-168h50c-32 44-53 94-53 168" id="aY"/><g id="aa"><use transform="matrix(0.04320987654320988,0,0,0.04320987654320988,0,0)" xlink:href="#aY"/><use transform="matrix(0.04320987654320988,0,0,0.04320987654320988,5.1419753086419755,0)" xlink:href="#aV"/><use transform="matrix(0.04320987654320988,0,0,0.04320987654320988,13.783950617283953,0)" xlink:href="#aX"/><use transform="matrix(0.04320987654320988,0,0,0.04320987654320988,18.10493827160494,0)" xlink:href="#aX"/></g><path d="M220-157c-53 9-28 100-34 157h-49v-107c1-27-5-49-29-50C55-147 81-57 75 0H25l-1-190h47c2 12-1 28 3 38 10-53 101-56 108 0 13-22 24-43 59-42 82 1 51 116 57 194h-49v-107c-1-25-5-48-29-50" id="aZ"/><path d="M135-194c53 0 70 44 70 98 0 56-19 98-73 100-31 1-45-17-59-34 3 33 2 69 2 105H25l-1-265h48c2 10 0 23 3 31 11-24 29-35 60-35zM114-30c33 0 39-31 40-66 0-38-9-64-40-64-56 0-55 130 0 130" id="ba"/><path d="M115-3C79 11 28 4 28-45v-112H4v-33h27l15-45h31v45h36v33H77v99c-1 23 16 31 38 25v30" id="bb"/><g id="ab"><use transform="matrix(0.04320987654320988,0,0,0.04320987654320988,0,0)" xlink:href="#aN"/><use transform="matrix(0.04320987654320988,0,0,0.04320987654320988,8.641975308641976,0)" xlink:href="#aP"/><use transform="matrix(0.04320987654320988,0,0,0.04320987654320988,18.10493827160494,0)" xlink:href="#aZ"/><use transform="matrix(0.04320987654320988,0,0,0.04320987654320988,31.9320987654321,0)" xlink:href="#ba"/><use transform="matrix(0.04320987654320988,0,0,0.04320987654320988,41.39506172839506,0)" xlink:href="#aP"/><use transform="matrix(0.04320987654320988,0,0,0.04320987654320988,50.85802469135803,0)" xlink:href="#aT"/><use transform="matrix(0.04320987654320988,0,0,0.04320987654320988,60.32098765432099,0)" xlink:href="#aR"/><use transform="matrix(0.04320987654320988,0,0,0.04320987654320988,68.96296296296296,0)" xlink:href="#aT"/><use transform="matrix(0.04320987654320988,0,0,0.04320987654320988,78.42592592592592,0)" xlink:href="#bb"/></g><path d="M25-224v-37h50v37H25zM25 0v-190h50V0H25" id="bc"/><path d="M114-157C55-157 80-60 75 0H25v-261h50l-1 109c12-26 28-41 61-42 86-1 58 113 63 194h-50c-7-57 23-157-34-157" id="bd"/><g id="ac"><use transform="matrix(0.04320987654320988,0,0,0.04320987654320988,0,0)" xlink:href="#aO"/><use transform="matrix(0.04320987654320988,0,0,0.04320987654320988,6.049382716049383,0)" xlink:href="#aR"/><use transform="matrix(0.04320987654320988,0,0,0.04320987654320988,14.69135802469136,0)" xlink:href="#aX"/><use transform="matrix(0.04320987654320988,0,0,0.04320987654320988,19.01234567901235,0)" xlink:href="#aV"/><use transform="matrix(0.04320987654320988,0,0,0.04320987654320988,27.654320987654323,0)" xlink:href="#bb"/><use transform="matrix(0.04320987654320988,0,0,0.04320987654320988,32.7962962962963,0)" xlink:href="#bc"/><use transform="matrix(0.04320987654320988,0,0,0.04320987654320988,37.117283950617285,0)" xlink:href="#aP"/><use transform="matrix(0.04320987654320988,0,0,0.04320987654320988,46.58024691358024,0)" xlink:href="#aT"/><use transform="matrix(0.04320987654320988,0,0,0.04320987654320988,56.04320987654321,0)" xlink:href="#aQ"/><use transform="matrix(0.04320987654320988,0,0,0.04320987654320988,64.68518518518519,0)" xlink:href="#bd"/><use transform="matrix(0.04320987654320988,0,0,0.04320987654320988,74.14814814814815,0)" xlink:href="#bc"/><use transform="matrix(0.04320987654320988,0,0,0.04320987654320988,78.46913580246914,0)" xlink:href="#ba"/><use transform="matrix(0.04320987654320988,0,0,0.04320987654320988,87.9320987654321,0)" xlink:href="#aQ"/></g><g id="ad"><use transform="matrix(0.04320987654320988,0,0,0.04320987654320988,0,0)" xlink:href="#aV"/><use transform="matrix(0.04320987654320988,0,0,0.04320987654320988,8.641975308641976,0)" xlink:href="#aO"/><use transform="matrix(0.04320987654320988,0,0,0.04320987654320988,14.69135802469136,0)" xlink:href="#aR"/></g><path d="M85 4C-2 5 27-109 22-190h50c7 57-23 150 33 157 60-5 35-97 40-157h50l1 190h-47c-2-12 1-28-3-38-12 25-28 42-61 42" id="be"/><path d="M102-93c0 74-22 123-52 168H0C30 29 54-18 53-93c0-74-22-123-53-168h50c30 45 52 94 52 168" id="bf"/><g id="ae"><use transform="matrix(0.04320987654320988,0,0,0.04320987654320988,0,0)" xlink:href="#be"/><use transform="matrix(0.04320987654320988,0,0,0.04320987654320988,9.462962962962964,0)" xlink:href="#aT"/><use transform="matrix(0.04320987654320988,0,0,0.04320987654320988,18.925925925925927,0)" xlink:href="#bc"/><use transform="matrix(0.04320987654320988,0,0,0.04320987654320988,23.246913580246915,0)" xlink:href="#aS"/><use transform="matrix(0.04320987654320988,0,0,0.04320987654320988,32.70987654320988,0)" xlink:href="#bc"/><use transform="matrix(0.04320987654320988,0,0,0.04320987654320988,37.03086419753087,0)" xlink:href="#aO"/><use transform="matrix(0.04320987654320988,0,0,0.04320987654320988,43.080246913580254,0)" xlink:href="#aR"/><use transform="matrix(0.04320987654320988,0,0,0.04320987654320988,51.72222222222223,0)" xlink:href="#aN"/><use transform="matrix(0.04320987654320988,0,0,0.04320987654320988,60.3641975308642,0)" xlink:href="#bb"/><use transform="matrix(0.04320987654320988,0,0,0.04320987654320988,65.50617283950618,0)" xlink:href="#bc"/><use transform="matrix(0.04320987654320988,0,0,0.04320987654320988,69.82716049382717,0)" xlink:href="#aP"/><use transform="matrix(0.04320987654320988,0,0,0.04320987654320988,79.29012345679013,0)" xlink:href="#aT"/><use transform="matrix(0.04320987654320988,0,0,0.04320987654320988,88.75308641975309,0)" xlink:href="#aV"/><use transform="matrix(0.04320987654320988,0,0,0.04320987654320988,97.39506172839508,0)" xlink:href="#aX"/><use transform="matrix(0.04320987654320988,0,0,0.04320987654320988,101.71604938271606,0)" xlink:href="#bf"/></g></defs></g></svg>