<svg xmlns="http://www.w3.org/2000/svg" xmlns:xlink="http://www.w3.org/1999/xlink" xmlns:lucid="lucid" width="998" height="390"><g transform="translate(-23 -916)" lucid:page-tab-id="0_0"><path d="M60 970h732v-10l18 20-18 20v-10H60z" stroke="#000" stroke-width="2" fill="#e5e5e5"/><path d="M160 1080h80v60h-80z" stroke="#000" stroke-width="2" fill="#fff"/><use xlink:href="#a" transform="matrix(1,0,0,1,165,1085) translate(19.916666666666664 29.118055555555557)"/><path d="M195.33 992v85.18" stroke="#000" stroke-width="2" fill="none"/><path d="M196.33 991v1.03h-2V991z"/><path d="M185.15 1059.82l10.18 17.22 10.18-17.22" stroke="#000" stroke-width="2" fill="none"/><path d="M100 1000h100v60H100z" stroke="#000" stroke-opacity="0" stroke-width="2" fill="#fff" fill-opacity="0"/><use xlink:href="#b" transform="matrix(1,0,0,1,105,1005) translate(0 16)"/><use xlink:href="#c" transform="matrix(1,0,0,1,105,1005) translate(0 40)"/><path d="M200 940h240v40H200z" stroke="#000" stroke-opacity="0" stroke-width="2" fill="#fff" fill-opacity="0"/><use xlink:href="#d" transform="matrix(1,0,0,1,205,945) translate(32.47222222222224 16)"/><use xlink:href="#e" transform="matrix(1,0,0,1,205,945) translate(183.13888888888886 16)"/><path d="M270 1230h292v-10l18 20-18 20v-10H270z" stroke="#000" stroke-width="2" fill="#e5e5e5"/><path d="M385 1080h80v60h-80z" stroke="#000" stroke-width="2" fill="#fff"/><use xlink:href="#a" transform="matrix(1,0,0,1,390,1085) translate(19.916666666666664 29.118055555555557)"/><path d="M427 1228v-85.18" stroke="#000" stroke-width="2" fill="none"/><path d="M428 1229h-2v-1.03h2z"/><path d="M437.18 1160.18L427 1142.96l-10.18 17.22" stroke="#000" stroke-width="2" fill="none"/><path d="M320 1160h100v60H320z" stroke="#000" stroke-opacity="0" stroke-width="2" fill="#fff" fill-opacity="0"/><use xlink:href="#f" transform="matrix(1,0,0,1,325,1165) translate(0 16)"/><use xlink:href="#g" transform="matrix(1,0,0,1,325,1165) translate(0 40)"/><path d="M305 1260h240v40H305z" stroke="#000" stroke-opacity="0" stroke-width="2" fill="#fff" fill-opacity="0"/><use xlink:href="#d" transform="matrix(1,0,0,1,310,1265) translate(32.47222222222224 16)"/><use xlink:href="#h" transform="matrix(1,0,0,1,310,1265) translate(183.13888888888886 16)"/><path d="M600 1210h140v60H600z" stroke="#000" stroke-opacity="0" stroke-width="2" fill="#fff" fill-opacity="0"/><use xlink:href="#i" transform="matrix(1,0,0,1,605,1215) translate(0 16)"/><use xlink:href="#j" transform="matrix(1,0,0,1,605,1215) translate(0 40)"/><path d="M810 1140h160v60H810z" stroke="#000" stroke-opacity="0" stroke-width="2" fill="#fff" fill-opacity="0"/><use xlink:href="#k" transform="matrix(1,0,0,1,815,1145) translate(-10.433333333333337 18.91111111111111)"/><use xlink:href="#l" transform="matrix(1,0,0,1,815,1145) translate(47.44444444444444 42.77777777777778)"/><path d="M809 1170.02l-1.64.04-3.57.23-5.5.57-66.43 9.4-16.46 1.02-16.26.33-16.54-.34-17.1-1.1-17.9-1.87-18.87-2.8-12.06-2.2-4.08-.9-3.92-1.03-3.78-1.2-3.68-1.33-3.62-1.5-3.58-1.68-3.6-1.9-3.64-2.12-3.75-2.42-3.92-2.78-4.2-3.28-4.67-4-5.56-5.2-7.87-8.07-29.97-32.3-6.35-5.94-5.52-4.72-5.1-3.97-4.85-3.44-.33-.23-4.2-2.68-4.73-2.77-5.4-2.86-6.18-2.94-7.04-3-8.04-3.03-9.13-3.02-10.23-2.9-11.23-2.7-11.87-2.32-11.77-1.8-10.74-1.2-8.86-.6-6.66-.18-4.7.07-3.24.17-2.24.22-1.56.2-1.12.22-.83.2-.6.16-.3.1-6.95 2.4-6.82 2.68-6.87 3.06-7.24 3.58-8.25 4.53-12.78 7.77-23.15 14.43-6.47 3.56-5.3 2.6-4.72 2.1-4.45 1.76-4.3 1.5-4.27 1.28-4.3 1.1-4.4.93-4.3.7" fill="none"/><path d="M809 1170.02l-1.64.04-3.57.23-4.8.5m-9.95 1.38l-19.88 2.8m-9.94 1.4l-19.88 2.82m-9.96 1.2l-14 .9-6.06.12m-10.03.2h-.16l-16.54-.33-3.36-.23m-10.02-.63l-3.72-.23-16.26-1.7m-9.94-1.4l-10.57-1.57-9.24-1.68m-9.8-2.18l-1.02-.27-3.78-1.2-3.68-1.33-3.62-1.5-3.58-1.68-2.9-1.53m-8.55-5.24l-3.46-2.45-4.2-3.28-4.67-4-3.18-2.97m-7.12-7.08l-3.13-3.22-10.6-11.42m-6.83-7.35l-12.54-13.5-1.2-1.14m-7.42-6.74l-3.24-2.78-5.1-3.97-4.85-3.44-.33-.23-2.5-1.6m-8.7-5.04l-3.14-1.68-6.17-2.94-7.04-3-1.9-.7m-9.44-3.42l-5.83-1.93-10.23-2.9-3.2-.78m-9.78-2.26l-10.1-2-9.68-1.48m-9.96-1.2l-2.88-.3-8.86-.62-6.66-.18-1.64.02m-10 .66h-.1l-1.12.22-.83.2-.6.16-.3.1-6.95 2.4-6.82 2.68-2.16.96m-9.1 4.26l-2.85 1.42-8.25 4.53-6.38 3.88m-8.58 5.25l-17.03 10.62m-8.68 5.06l-1.74.96-5.3 2.6-4.72 2.1-4.45 1.76-2.1.73m-9.62 2.84l-1.15.3-4.4.93-4.3.7" stroke="#999" stroke-width="2" fill="none"/><path d="M810 1171l-1 .02-.05-2 1.05-.02z" fill="#999"/><path d="M244.23 1109.77l13.9-5.64.66 9.25z" stroke="#999" stroke-width="2" fill="#999"/><path d="M809 1170l-13.55-.13-9.63-.5-6.8-.62-5.02-.7-3.84-.68-3.03-.67-2.44-.66-2.02-.63-1.68-.6-1.43-.57-1.22-.57-1.07-.54-.93-.53-.83-.52-.73-.5-.67-.5-.6-.48-.54-.48-.5-.47-.46-.48-.42-.48-.38-.48-.36-.5-.33-.48-.3-.5-.3-.52-.27-.53-.25-.57-.24-.58-.23-.6-.2-.67-.18-.7-.18-.77-.15-.85-.13-.98-.1-1.16-.08-1.48v-2.37l.1-7.54-.06-1.58-.12-1.25-.14-1.08-.16-.95-.2-.86-.2-.8-.23-.75-.25-.7-.27-.67-.3-.64-.3-.63-.35-.6-.36-.6-.4-.58-.43-.58-.48-.57-.5-.58-.56-.6-.6-.58-.68-.6-.75-.6-.83-.62-.94-.64-1.05-.66-1.2-.68-1.4-.7-1.6-.75-1.9-.77-2.26-.82-2.74-.86-3.38-.9-4.25-.95-5.5-1-4.25-.57" fill="none"/><path d="M809 1170l-11.1-.1m-11.1-.47l-.98-.05-6.8-.63-5.02-.7-3.84-.68-3.03-.67-2.23-.6m-10.1-4.5v-.02l-.67-.5-.6-.48-.54-.48-.5-.47-.46-.48-.42-.48-.38-.48-.36-.5-.33-.48-.3-.5-.3-.52-.27-.53-.25-.57-.24-.58-.23-.6-.2-.67-.18-.7-.18-.77-.15-.85-.13-.98-.1-1.16-.08-1.48v-2.37l.05-3.32m-.9-11l-.15-.48-.25-.7-.27-.67-.3-.64-.3-.63-.35-.6-.36-.6-.4-.58-.43-.58-.48-.57-.5-.58-.56-.6-.6-.58-.68-.6-.75-.6-.83-.62-.94-.64-1.05-.66-1.2-.68-1.4-.7-1.6-.75-1.9-.77-.76-.28m-10.68-2.98l-1.2-.27-5.5-1-4.24-.57" stroke="#999" stroke-width="2" fill="none"/><path d="M810 1169v2h-1.04l.02-2z" fill="#999"/><path d="M694.22 1110.3l14.63-3.3-.85 9.23z" stroke="#999" stroke-width="2" fill="#999"/><path d="M610 1080h80v60h-80z" stroke="#000" stroke-width="2" fill="#fff"/><use xlink:href="#a" transform="matrix(1,0,0,1,615,1085) translate(19.916666666666664 29.118055555555557)"/><path d="M645.33 992v85.18" stroke="#000" stroke-width="2" fill="none"/><path d="M646.33 991v1.03h-2V991z"/><path d="M635.15 1059.82l10.18 17.22 10.18-17.22" stroke="#000" stroke-width="2" fill="none"/><path d="M540 1000h100v60H540z" stroke="#000" stroke-opacity="0" stroke-width="2" fill="#fff" fill-opacity="0"/><g><use xlink:href="#m" transform="matrix(1,0,0,1,545,1005) translate(0 16)"/><use xlink:href="#c" transform="matrix(1,0,0,1,545,1005) translate(0 40)"/></g><defs><path d="M24-248c120-7 223 5 221 122C244-46 201 0 124 0H24v-248zM76-40c74 7 117-18 117-86 0-67-45-88-117-82v168" id="n"/><path d="M23 0v-37h61v-169l-59 37v-38l62-41h46v211h57V0H23" id="o"/><g id="a"><use transform="matrix(0.06790123456790124,0,0,0.06790123456790124,0,0)" xlink:href="#n"/><use transform="matrix(0.06790123456790124,0,0,0.06790123456790124,17.58641975308642,0)" xlink:href="#o"/></g><path d="M24 0v-54h51V0H24" id="p"/><g id="b"><use transform="matrix(0.05555555555555555,0,0,0.05555555555555555,0,0)" xlink:href="#o"/><use transform="matrix(0.05555555555555555,0,0,0.05555555555555555,11.11111111111111,0)" xlink:href="#p"/></g><path d="M185-189c-5-48-123-54-124 2 14 75 158 14 163 119 3 78-121 87-175 55-17-10-28-26-33-46l33-7c5 56 141 63 141-1 0-78-155-14-162-118-5-82 145-84 179-34 5 7 8 16 11 25" id="q"/><path d="M30 0v-248h187v28H63v79h144v27H63v87h162V0H30" id="r"/><path d="M30 0v-248h33v221h125V0H30" id="s"/><path d="M212-179c-10-28-35-45-73-45-59 0-87 40-87 99 0 60 29 101 89 101 43 0 62-24 78-52l27 14C228-24 195 4 139 4 59 4 22-46 18-125c-6-104 99-153 187-111 19 9 31 26 39 46" id="t"/><path d="M127-220V0H93v-220H8v-28h204v28h-85" id="u"/><g id="c"><use transform="matrix(0.05555555555555555,0,0,0.05555555555555555,0,0)" xlink:href="#q"/><use transform="matrix(0.05555555555555555,0,0,0.05555555555555555,13.333333333333332,0)" xlink:href="#r"/><use transform="matrix(0.05555555555555555,0,0,0.05555555555555555,26.666666666666664,0)" xlink:href="#s"/><use transform="matrix(0.05555555555555555,0,0,0.05555555555555555,37.77777777777777,0)" xlink:href="#r"/><use transform="matrix(0.05555555555555555,0,0,0.05555555555555555,51.1111111111111,0)" xlink:href="#t"/><use transform="matrix(0.05555555555555555,0,0,0.05555555555555555,65.49999999999999,0)" xlink:href="#u"/></g><path d="M136-208V0H84v-208H4v-40h212v40h-80" id="v"/><path d="M240-174c0 40-23 61-54 70L253 0h-59l-57-94H76V0H24v-248c93 4 217-23 216 74zM76-134c48-2 112 12 112-38 0-48-66-32-112-35v73" id="w"/><path d="M199 0l-22-63H83L61 0H9l90-248h61L250 0h-51zm-33-102l-36-108c-10 38-24 72-36 108h72" id="x"/><path d="M175 0L67-191c6 58 2 128 3 191H24v-248h59L193-55c-6-58-2-129-3-193h46V0h-61" id="y"/><path d="M169-182c-1-43-94-46-97-3 18 66 151 10 154 114 3 95-165 93-204 36-6-8-10-19-12-30l50-8c3 46 112 56 116 5-17-69-150-10-154-114-4-87 153-88 188-35 5 8 8 18 10 28" id="z"/><path d="M67-125c0 53 21 87 73 88 37 1 54-22 65-47l45 17C233-25 199 4 140 4 58 4 20-42 15-125 8-235 124-281 211-232c18 10 29 29 36 50l-46 12c-8-25-30-41-62-41-52 0-71 34-72 86" id="A"/><path d="M24 0v-248h52V0H24" id="B"/><path d="M140-251c80 0 125 45 125 126S219 4 139 4C58 4 15-44 15-125s44-126 125-126zm-1 214c52 0 73-35 73-88 0-50-21-86-72-86-52 0-73 35-73 86s22 88 72 88" id="C"/><g id="d"><use transform="matrix(0.05555555555555555,0,0,0.05555555555555555,0,0)" xlink:href="#v"/><use transform="matrix(0.05555555555555555,0,0,0.05555555555555555,12.166666666666666,0)" xlink:href="#w"/><use transform="matrix(0.05555555555555555,0,0,0.05555555555555555,26.555555555555554,0)" xlink:href="#x"/><use transform="matrix(0.05555555555555555,0,0,0.05555555555555555,40.94444444444444,0)" xlink:href="#y"/><use transform="matrix(0.05555555555555555,0,0,0.05555555555555555,55.33333333333333,0)" xlink:href="#z"/><use transform="matrix(0.05555555555555555,0,0,0.05555555555555555,68.66666666666666,0)" xlink:href="#x"/><use transform="matrix(0.05555555555555555,0,0,0.05555555555555555,83.05555555555554,0)" xlink:href="#A"/><use transform="matrix(0.05555555555555555,0,0,0.05555555555555555,97.44444444444443,0)" xlink:href="#v"/><use transform="matrix(0.05555555555555555,0,0,0.05555555555555555,109.6111111111111,0)" xlink:href="#B"/><use transform="matrix(0.05555555555555555,0,0,0.05555555555555555,115.16666666666666,0)" xlink:href="#C"/><use transform="matrix(0.05555555555555555,0,0,0.05555555555555555,130.7222222222222,0)" xlink:href="#y"/></g><use transform="matrix(0.05555555555555555,0,0,0.05555555555555555,0,0)" xlink:href="#x" id="e"/><path d="M182-182c0 78-84 86-111 141h115V0H12c-6-101 99-100 120-180 1-22-12-31-33-32-23 0-32 14-35 34l-49-3c5-45 32-70 84-70 51 0 83 22 83 69" id="D"/><g id="f"><use transform="matrix(0.05555555555555555,0,0,0.05555555555555555,0,0)" xlink:href="#D"/><use transform="matrix(0.05555555555555555,0,0,0.05555555555555555,11.11111111111111,0)" xlink:href="#p"/></g><path d="M232-93c-1 65-40 97-104 97C67 4 28-28 28-90v-158h33c8 89-33 224 67 224 102 0 64-133 71-224h33v155" id="E"/><path d="M30-248c87 1 191-15 191 75 0 78-77 80-158 76V0H30v-248zm33 125c57 0 124 11 124-50 0-59-68-47-124-48v98" id="F"/><path d="M30-248c118-7 216 8 213 122C240-48 200 0 122 0H30v-248zM63-27c89 8 146-16 146-99s-60-101-146-95v194" id="G"/><path d="M205 0l-28-72H64L36 0H1l101-248h38L239 0h-34zm-38-99l-47-123c-12 45-31 82-46 123h93" id="H"/><g id="g"><use transform="matrix(0.05555555555555555,0,0,0.05555555555555555,0,0)" xlink:href="#E"/><use transform="matrix(0.05555555555555555,0,0,0.05555555555555555,14.388888888888888,0)" xlink:href="#F"/><use transform="matrix(0.05555555555555555,0,0,0.05555555555555555,27.72222222222222,0)" xlink:href="#G"/><use transform="matrix(0.05555555555555555,0,0,0.05555555555555555,42.11111111111111,0)" xlink:href="#H"/><use transform="matrix(0.05555555555555555,0,0,0.05555555555555555,53.94444444444444,0)" xlink:href="#u"/><use transform="matrix(0.05555555555555555,0,0,0.05555555555555555,66.11111111111111,0)" xlink:href="#r"/></g><path d="M182-130c37 4 62 22 62 59C244 23 116-4 24 0v-248c84 5 203-23 205 63 0 31-19 50-47 55zM76-148c40-3 101 13 101-30 0-44-60-28-101-31v61zm0 110c48-3 116 14 116-37 0-48-69-32-116-35v72" id="I"/><use transform="matrix(0.05555555555555555,0,0,0.05555555555555555,0,0)" xlink:href="#I" id="h"/><path d="M128-127c34 4 56 21 59 58 7 91-148 94-172 28-4-9-6-17-7-26l51-5c1 24 16 35 40 36 23 0 39-12 38-36-1-31-31-36-65-34v-40c32 2 59-3 59-33 0-20-13-33-34-33s-33 13-35 32l-50-3c6-44 37-68 86-68 50 0 83 20 83 66 0 35-22 52-53 58" id="J"/><g id="i"><use transform="matrix(0.05555555555555555,0,0,0.05555555555555555,0,0)" xlink:href="#J"/><use transform="matrix(0.05555555555555555,0,0,0.05555555555555555,11.11111111111111,0)" xlink:href="#p"/></g><path d="M140-251c81 0 123 46 123 126C263-46 219 4 140 4 59 4 17-45 17-125s42-126 123-126zm0 227c63 0 89-41 89-101s-29-99-89-99c-61 0-89 39-89 99S79-25 140-24" id="K"/><path d="M240 0l2-218c-23 76-54 145-80 218h-23L58-218 59 0H30v-248h44l77 211c21-75 51-140 76-211h43V0h-30" id="L"/><path d="M33 0v-248h34V0H33" id="M"/><g id="j"><use transform="matrix(0.05555555555555555,0,0,0.05555555555555555,0,0)" xlink:href="#t"/><use transform="matrix(0.05555555555555555,0,0,0.05555555555555555,14.388888888888888,0)" xlink:href="#K"/><use transform="matrix(0.05555555555555555,0,0,0.05555555555555555,29.944444444444443,0)" xlink:href="#L"/><use transform="matrix(0.05555555555555555,0,0,0.05555555555555555,46.55555555555556,0)" xlink:href="#L"/><use transform="matrix(0.05555555555555555,0,0,0.05555555555555555,63.16666666666668,0)" xlink:href="#M"/><use transform="matrix(0.05555555555555555,0,0,0.05555555555555555,68.72222222222223,0)" xlink:href="#u"/></g><path fill="#666" d="M615-24c62 1 58-78 47-128 24-171 55-356 55-541 0-64-23-96-70-96-71-1-99 44-94 123-15 114-18 275-42 381-6 28-34 35-58 44-76 27-135 58-212 58-42 0-27-72-25-115 4-84 25-172 38-251l-1 1c12-62 61-162-1-204l2 1c-43-49-114-25-124 36-27 163-69 328-78 509-3 62 15 122 50 146 37 26 87 40 150 40 41 0 198-44 262-67 14 13 28 28 43 46 26 11 45 17 58 17" id="N"/><path fill="#666" d="M216-409c9 8 16 19 19 30-1 9 8 9 10 13 37 63 77 111 116 172 37 57 163 169 227 172 23 0 40-11 52-32 33-170 13-434 6-619-3-83-39-143-107-149-45-4-69 31-66 79 10 146 31 283 13 439-51-61-104-153-152-217-31-42-51-96-76-155l1 1c-28-66-40-134-124-136-97-1-69 150-80 250-17 150 12 295 5 444-2 50 15 62 51 88 19 2 42 3 59 3 35 2 66-46 57-86l1 1c-10-94-14-194-12-298zm39 2c4 1 2 2 0 3v-3zm229 115c0-2 0-3 1-4-1 1-1 3-1 4" id="O"/><path fill="#666" d="M173-13c102-20 79-163 100-261 0-7 2-19 3-27-8-47 57-27 68-2 40 53 67 131 101 192l-1-1c19 54 59 97 104 92 43-5 70-16 73-58 13-23 7-37-3-71-6-23-15-54-34-88-35-66-68-105-104-161 56-50 105-104 147-170 6-29 17-55 20-85 6-72-103-151-170-159l2 1c-139-21-303 2-392 48-38 20-46 85-18 123 36 48 34 126 35 220 2 188-7 191-22 334-6 57 41 80 92 72zm83-631c46-6 199-69 222 5-8 54-52 92-132 119-94 31-95 61-95-72 0-28 2-45 5-52zm67 321l-3-1c1 1 2 1 3 1" id="P"/><path fill="#666" d="M562-231c-119 0-201 32-308 40-14 1-42-3-40-14 7-43 5-108 16-155 15-24 58-17 92-28 55-18 122-10 191-10 29 0 63-18 62-50l-1 1c9-54-30-90-85-89l2 1c-79-20-172-1-247 10 3-27 1-57 6-86 80-35 193-36 303-41 17-1 37-7 58-16 38-58-8-126-51-147l1 1c-50-22-116-3-173 4-55 6-120 24-173 38l1-1c-58 17-141 13-134 97 6 67 3 142 3 213 0 107-34 195-34 299 0 91 55 147 155 140 120-8 214-45 346-45 28 0 55-3 82-5h-6c53-8 92-74 55-130-9-16-23-28-41-35-26 5-52 8-80 8zM242-525v-1 1" id="Q"/><path fill="#666" d="M87-602c4 38-4 75-5 110-3 126-9 252-9 379 0 59 26 89 77 89 58 0 63-72 63-132 0-35 7-82 12-117 65-30 152-55 206-93 88-62 186-166 161-313-4-21-15-39-29-55l2 2c-23-34-68-58-137-73l1 1c-46-11-95-14-151-15-81-1-238 33-230 104 5 47 47 56 39 113zm257-56c102-1 127 34 86 93-43 62-125 108-204 136-5-100 2-207 8-214 10-10 47-15 110-15zm-110 16l-1 1c0-1 0-1 1-1" id="R"/><path fill="#666" d="M70-181C36-106 39-36 121-28c46 4 59-41 69-68 14-40 27-86 43-123 28-31 91-34 132-52 22-9 42-12 57-14 23 70 34 146 54 220 8 29 38 43 83 43 40 0 60-20 60-60 0-87-40-149-50-230 28-18 51-84 14-113-11-9-44-19-50-27-27-105-52-214-82-316-19-65-108-61-136-9-73 134-133 295-189 435-24 59-31 107-56 161zm286-369c8 39 19 86 26 125-22 9-48 16-78 17 14-39 32-102 52-142" id="S"/><path fill="#666" d="M450-642c81-9 156-10 231-4 26-13 36-35 36-67 0-81-74-112-168-99-140 19-319-7-450 25-32 17-54 46-55 91v-3c-8 40 21 48 42 67 65 10 127-7 202-2-4 181-23 372-21 564 20 34 93 71 130 26 41-30 19-113 21-180 3-100 12-190 18-284l-1 1c5-43-7-105 15-135" id="T"/><path fill="#666" d="M58-120c0 66 127 98 195 96 131-3 240-41 324-94 105-67 138-161 78-271-25-45-59-78-90-108 15-16 29-31 39-48 16-58 22-147-13-187-60-68-156-89-270-89-121 0-219 3-230 109-2 17 7 29 12 41-8 149-1 314 1 467 0 16-5 27-15 33-21 13-31 30-31 51zm202-60c-10-53-9-118-10-178 63-23 141-33 195-65-7-7 96 83 88 114-25 93-160 123-273 129zm3-494c24-10 55-12 83-12 84 0 126 16 126 47 0 24-82 99-136 108-28 5-50 14-82 14-4-50-7-126 9-157" id="U"/><path fill="#666" d="M50-194C40-28 200 0 338-54c94-37 183-73 272-114 29-13 41-37 41-62 0-44-32-91-71-89-30 3-148 61-190 76l1-1c-45 16-110 45-165 45 1 0 0-5-3-15l1 1-3-11c27-168 60-333 82-502 10-75-103-138-147-64-8 14-17 32-20 54l1-1c-6 17-8 35-12 54l1-2C92-532 60-361 50-194" id="V"/><g id="k"><use transform="matrix(0.022222222222222223,0,0,0.022222222222222223,0,0)" xlink:href="#N"/><use transform="matrix(0.022222222222222223,0,0,0.022222222222222223,15.622222222222224,0)" xlink:href="#O"/><use transform="matrix(0.022222222222222223,0,0,0.022222222222222223,29.888888888888896,0)" xlink:href="#P"/><use transform="matrix(0.022222222222222223,0,0,0.022222222222222223,43.644444444444446,0)" xlink:href="#Q"/><use transform="matrix(0.022222222222222223,0,0,0.022222222222222223,58.46666666666667,0)" xlink:href="#R"/><use transform="matrix(0.022222222222222223,0,0,0.022222222222222223,71.04444444444445,0)" xlink:href="#Q"/><use transform="matrix(0.022222222222222223,0,0,0.022222222222222223,85.86666666666667,0)" xlink:href="#S"/><use transform="matrix(0.022222222222222223,0,0,0.022222222222222223,98.95555555555556,0)" xlink:href="#T"/><use transform="matrix(0.022222222222222223,0,0,0.022222222222222223,114.93333333333334,0)" xlink:href="#S"/><use transform="matrix(0.022222222222222223,0,0,0.022222222222222223,128.02222222222224,0)" xlink:href="#U"/><use transform="matrix(0.022222222222222223,0,0,0.022222222222222223,142.33333333333334,0)" xlink:href="#V"/><use transform="matrix(0.022222222222222223,0,0,0.022222222222222223,156.04444444444445,0)" xlink:href="#Q"/></g><path fill="#666" d="M80-334C68-194 2 14 192-26c62-30 136-63 191-92 174-92 259-210 259-347 0-142-33-193-97-253-69-64-182-82-292-104-16-3-35-3-56-3-90 0-82 55-82 133 0 95-9 196-26 279l1-1c-6 25-8 57-10 80zm133 125c17-153 24-313 53-452 153-5 243 55 220 201l-1-2c-24 127-149 211-272 253zm48-441v3-3zm-8 53c0-1 0-1 1-2" id="W"/><g id="l"><use transform="matrix(0.022222222222222223,0,0,0.022222222222222223,0,0)" xlink:href="#P"/><use transform="matrix(0.022222222222222223,0,0,0.022222222222222223,13.755555555555556,0)" xlink:href="#Q"/><use transform="matrix(0.022222222222222223,0,0,0.022222222222222223,28.57777777777778,0)" xlink:href="#S"/><use transform="matrix(0.022222222222222223,0,0,0.022222222222222223,41.66666666666667,0)" xlink:href="#W"/></g><path d="M165-50V0h-47v-50H5v-38l105-160h55v161h33v37h-33zm-47-37l2-116L46-87h72" id="X"/><g id="m"><use transform="matrix(0.05555555555555555,0,0,0.05555555555555555,0,0)" xlink:href="#X"/><use transform="matrix(0.05555555555555555,0,0,0.05555555555555555,11.11111111111111,0)" xlink:href="#p"/></g></defs></g></svg>