<svg xmlns="http://www.w3.org/2000/svg" xmlns:xlink="http://www.w3.org/1999/xlink" xmlns:lucid="lucid" width="591.76" height="520"><g transform="translate(-64.11818181816489 -80)" lucid:page-tab-id="0_0"><path d="M0 0h1850.6v1430H0z" fill="#fff"/><path d="M84.12 108c0-4.42 3.58-8 8-8h144c4.42 0 8 3.58 8 8v44c0 4.42-3.58 8-8 8h-144c-4.42 0-8-3.58-8-8z" stroke="#fff" stroke-width="4" fill="#e5e5e5"/><use xlink:href="#a" transform="matrix(1,0,0,1,92.11818181816489,108) translate(51.30246913580247 25.11111111111111)"/><path d="M280 108c0-4.42 3.58-8 8-8h144c4.42 0 8 3.58 8 8v44c0 4.42-3.58 8-8 8H288c-4.42 0-8-3.58-8-8z" stroke="#fff" stroke-width="4" fill="#e5e5e5"/><use xlink:href="#b" transform="matrix(1,0,0,1,288,108) translate(51.30246913580247 25.11111111111111)"/><path d="M475.88 108c0-4.42 3.58-8 8-8h144c4.42 0 8 3.58 8 8v44c0 4.42-3.58 8-8 8h-144c-4.42 0-8-3.58-8-8z" stroke="#fff" stroke-width="4" fill="#e5e5e5"/><use xlink:href="#c" transform="matrix(1,0,0,1,483.8818181818351,108) translate(51.30246913580247 25.11111111111111)"/><path d="M262.06 428c0-4.42 3.58-8 8-8h179.88c4.42 0 8 3.58 8 8v144c0 4.42-3.58 8-8 8H270.06c-4.42 0-8-3.58-8-8z" stroke="#fff" stroke-width="4" fill="#e5e5e5"/><path d="M262.06 455h195.88m-195.88 40h195.88" stroke="#fff" stroke-width="4" fill="none"/><use xlink:href="#d" transform="matrix(1,0,0,1,270.05909090908244,420) translate(41.25925925925925 20.61111111111111)"/><use xlink:href="#e" transform="matrix(1,0,0,1,274.05909090908244,503.40000000000003) translate(0 18.944444444444443)"/><use xlink:href="#f" transform="matrix(1,0,0,1,274.05909090908244,503.40000000000003) translate(13.395061728395063 18.944444444444443)"/><use xlink:href="#e" transform="matrix(1,0,0,1,274.05909090908244,503.40000000000003) translate(0 37.611111111111114)"/><use xlink:href="#g" transform="matrix(1,0,0,1,274.05909090908244,503.40000000000003) translate(13.395061728395063 37.611111111111114)"/><use xlink:href="#e" transform="matrix(1,0,0,1,274.05909090908244,503.40000000000003) translate(0 56.277777777777786)"/><use xlink:href="#h" transform="matrix(1,0,0,1,274.05909090908244,503.40000000000003) translate(13.395061728395063 56.277777777777786)"/><path d="M164.12 162v54.03" stroke="#000" stroke-width="2" fill="none"/><path d="M165.12 162h-2v-2h2zM175.16 199.33L164.12 218l-11.04-18.67 1.72-1.02 9.32 15.77 9.32-15.76z"/><path d="M360 162v54.04" stroke="#000" stroke-width="2" fill="none"/><path d="M361 162h-2v-2h2zM371.04 199.33L360 218l-11.04-18.67 1.72-1.02 9.32 15.77 9.32-15.76z"/><path d="M555.88 162v54.04" stroke="#000" stroke-width="2" fill="none"/><path d="M556.88 162h-2v-2h2zM566.92 199.33L555.88 218l-11.04-18.67 1.72-1.02 9.32 15.77 9.32-15.76z"/><path d="M84.12 228c0-4.42 3.58-8 8-8h144c4.42 0 8 3.58 8 8v84c0 4.42-3.58 8-8 8h-144c-4.42 0-8-3.58-8-8z" stroke="#fff" stroke-width="4" fill="#e5e5e5"/><path d="M84.12 275h160" stroke="#fff" stroke-width="4" fill="none"/><use xlink:href="#i" transform="matrix(1,0,0,1,92.11818181818178,220) translate(21.613468714927073 21.45747474747475)"/><use xlink:href="#j" transform="matrix(1,0,0,1,92.11818181818178,220) translate(31.6089934062851 41.085050505050496)"/><use xlink:href="#e" transform="matrix(1,0,0,1,96.11818181818178,283.2551515151515) translate(0 17.61111111111111)"/><use xlink:href="#k" transform="matrix(1,0,0,1,96.11818181818178,283.2551515151515) translate(13.395061728395063 17.61111111111111)"/><path d="M280 228c0-4.42 3.58-8 8-8h144c4.42 0 8 3.58 8 8v84c0 4.42-3.58 8-8 8H288c-4.42 0-8-3.58-8-8z" stroke="#fff" stroke-width="4" fill="#e5e5e5"/><path d="M280 275h160" stroke="#fff" stroke-width="4" fill="none"/><use xlink:href="#i" transform="matrix(1,0,0,1,288,220) translate(21.613468714927073 21.45747474747475)"/><use xlink:href="#l" transform="matrix(1,0,0,1,288,220) translate(31.6089934062851 41.085050505050496)"/><use xlink:href="#e" transform="matrix(1,0,0,1,292,283.2551515151515) translate(0 17.61111111111111)"/><use xlink:href="#m" transform="matrix(1,0,0,1,292,283.2551515151515) translate(13.395061728395063 17.61111111111111)"/><path d="M475.88 228c0-4.42 3.58-8 8-8h144c4.42 0 8 3.58 8 8v84c0 4.42-3.58 8-8 8h-144c-4.42 0-8-3.58-8-8z" stroke="#fff" stroke-width="4" fill="#e5e5e5"/><path d="M475.88 275h160" stroke="#fff" stroke-width="4" fill="none"/><use xlink:href="#i" transform="matrix(1,0,0,1,483.8818181818351,220) translate(21.613468714927073 21.45747474747475)"/><use xlink:href="#n" transform="matrix(1,0,0,1,483.8818181818351,220) translate(31.6089934062851 41.085050505050496)"/><use xlink:href="#e" transform="matrix(1,0,0,1,487.8818181818351,283.2551515151515) translate(0 17.61111111111111)"/><use xlink:href="#h" transform="matrix(1,0,0,1,487.8818181818351,283.2551515151515) translate(13.395061728395063 17.61111111111111)"/><path d="M360 418v-48H164.12v-29.76" stroke="#000" stroke-width="2" fill="none"/><path d="M361 420h-2v-2h2zM168.75 339.5h-9.27l4.64-14.26z"/><path d="M170.13 340.5H158.1l6.02-18.5zm-9.27-2h6.52l-3.26-10.03z"/><path d="M360 418v-77.76" stroke="#000" stroke-width="2" fill="none"/><path d="M361 420h-2v-2h2zM364.64 339.5h-9.28l4.64-14.26z"/><path d="M366 340.5h-12l6-18.5zm-9.26-2h6.52L360 328.47z"/><path d="M360 418v-48h195.88v-29.76" stroke="#000" stroke-width="2" fill="none"/><path d="M361 420h-2v-2h2zM560.52 339.5h-9.27l4.63-14.26z"/><path d="M561.9 340.5h-12.03l6-18.5zm-9.28-2h6.52l-3.26-10.03z"/><defs><path d="M232-93c-1 65-40 97-104 97C67 4 28-28 28-90v-158h33c8 89-33 224 67 224 102 0 64-133 71-224h33v155" id="o"/><path d="M135-143c-3-34-86-38-87 0 15 53 115 12 119 90S17 21 10-45l28-5c4 36 97 45 98 0-10-56-113-15-118-90-4-57 82-63 122-42 12 7 21 19 24 35" id="p"/><path d="M100-194c63 0 86 42 84 106H49c0 40 14 67 53 68 26 1 43-12 49-29l28 8c-11 28-37 45-77 45C44 4 14-33 15-96c1-61 26-98 85-98zm52 81c6-60-76-77-97-28-3 7-6 17-6 28h103" id="q"/><path d="M114-163C36-179 61-72 57 0H25l-1-190h30c1 12-1 29 2 39 6-27 23-49 58-41v29" id="r"/><path d="M27 0v-27h64v-190l-56 39v-29l58-41h29v221h61V0H27" id="s"/><g id="a"><use transform="matrix(0.04320987654320988,0,0,0.04320987654320988,0,0)" xlink:href="#o"/><use transform="matrix(0.04320987654320988,0,0,0.04320987654320988,11.19135802469136,0)" xlink:href="#p"/><use transform="matrix(0.04320987654320988,0,0,0.04320987654320988,18.96913580246914,0)" xlink:href="#q"/><use transform="matrix(0.04320987654320988,0,0,0.04320987654320988,27.611111111111114,0)" xlink:href="#r"/><use transform="matrix(0.04320987654320988,0,0,0.04320987654320988,32.75308641975309,0)" xlink:href="#s"/></g><path d="M101-251c82-7 93 87 43 132L82-64C71-53 59-42 53-27h129V0H18c2-99 128-94 128-182 0-28-16-43-45-43s-46 15-49 41l-32-3c6-41 34-60 81-64" id="t"/><g id="b"><use transform="matrix(0.04320987654320988,0,0,0.04320987654320988,0,0)" xlink:href="#o"/><use transform="matrix(0.04320987654320988,0,0,0.04320987654320988,11.19135802469136,0)" xlink:href="#p"/><use transform="matrix(0.04320987654320988,0,0,0.04320987654320988,18.96913580246914,0)" xlink:href="#q"/><use transform="matrix(0.04320987654320988,0,0,0.04320987654320988,27.611111111111114,0)" xlink:href="#r"/><use transform="matrix(0.04320987654320988,0,0,0.04320987654320988,32.75308641975309,0)" xlink:href="#t"/></g><path d="M126-127c33 6 58 20 58 59 0 88-139 92-164 29-3-8-5-16-6-25l32-3c6 27 21 44 54 44 32 0 52-15 52-46 0-38-36-46-79-43v-28c39 1 72-4 72-42 0-27-17-43-46-43-28 0-47 15-49 41l-32-3c6-42 35-63 81-64 48-1 79 21 79 65 0 36-21 52-52 59" id="u"/><g id="c"><use transform="matrix(0.04320987654320988,0,0,0.04320987654320988,0,0)" xlink:href="#o"/><use transform="matrix(0.04320987654320988,0,0,0.04320987654320988,11.19135802469136,0)" xlink:href="#p"/><use transform="matrix(0.04320987654320988,0,0,0.04320987654320988,18.96913580246914,0)" xlink:href="#q"/><use transform="matrix(0.04320987654320988,0,0,0.04320987654320988,27.611111111111114,0)" xlink:href="#r"/><use transform="matrix(0.04320987654320988,0,0,0.04320987654320988,32.75308641975309,0)" xlink:href="#u"/></g><path d="M140-251c81 0 123 46 123 126C263-46 219 4 140 4 59 4 17-45 17-125s42-126 123-126zm0 227c63 0 89-41 89-101s-29-99-89-99c-61 0-89 39-89 99S79-25 140-24" id="v"/><path d="M115-194c55 1 70 41 70 98S169 2 115 4C84 4 66-9 55-30l1 105H24l-1-265h31l2 30c10-21 28-34 59-34zm-8 174c40 0 45-34 45-75s-6-73-45-74c-42 0-51 32-51 76 0 43 10 73 51 73" id="w"/><path d="M141-36C126-15 110 5 73 4 37 3 15-17 15-53c-1-64 63-63 125-63 3-35-9-54-41-54-24 1-41 7-42 31l-33-3c5-37 33-52 76-52 45 0 72 20 72 64v82c-1 20 7 32 28 27v20c-31 9-61-2-59-35zM48-53c0 20 12 33 32 33 41-3 63-29 60-74-43 2-92-5-92 41" id="x"/><path d="M59-47c-2 24 18 29 38 22v24C64 9 27 4 27-40v-127H5v-23h24l9-43h21v43h35v23H59v120" id="y"/><path d="M24-231v-30h32v30H24zM24 0v-190h32V0H24" id="z"/><path d="M100-194c62-1 85 37 85 99 1 63-27 99-86 99S16-35 15-95c0-66 28-99 85-99zM99-20c44 1 53-31 53-75 0-43-8-75-51-75s-53 32-53 75 10 74 51 75" id="A"/><path d="M117-194c89-4 53 116 60 194h-32v-121c0-31-8-49-39-48C34-167 62-67 57 0H25l-1-190h30c1 10-1 24 2 32 11-22 29-35 61-36" id="B"/><path d="M33 0v-248h34V0H33" id="C"/><path d="M210-169c-67 3-38 105-44 169h-31v-121c0-29-5-50-35-48C34-165 62-65 56 0H25l-1-190h30c1 10-1 24 2 32 10-44 99-50 107 0 11-21 27-35 58-36 85-2 47 119 55 194h-31v-121c0-29-5-49-35-48" id="D"/><path d="M24 0v-261h32V0H24" id="E"/><g id="d"><use transform="matrix(0.04320987654320988,0,0,0.04320987654320988,0,0)" xlink:href="#v"/><use transform="matrix(0.04320987654320988,0,0,0.04320987654320988,12.098765432098766,0)" xlink:href="#w"/><use transform="matrix(0.04320987654320988,0,0,0.04320987654320988,20.74074074074074,0)" xlink:href="#q"/><use transform="matrix(0.04320987654320988,0,0,0.04320987654320988,29.382716049382715,0)" xlink:href="#r"/><use transform="matrix(0.04320987654320988,0,0,0.04320987654320988,34.52469135802469,0)" xlink:href="#x"/><use transform="matrix(0.04320987654320988,0,0,0.04320987654320988,43.166666666666664,0)" xlink:href="#y"/><use transform="matrix(0.04320987654320988,0,0,0.04320987654320988,47.48765432098765,0)" xlink:href="#z"/><use transform="matrix(0.04320987654320988,0,0,0.04320987654320988,50.90123456790123,0)" xlink:href="#A"/><use transform="matrix(0.04320987654320988,0,0,0.04320987654320988,59.54320987654321,0)" xlink:href="#B"/><use transform="matrix(0.04320987654320988,0,0,0.04320987654320988,68.18518518518519,0)" xlink:href="#C"/><use transform="matrix(0.04320987654320988,0,0,0.04320987654320988,72.50617283950618,0)" xlink:href="#D"/><use transform="matrix(0.04320987654320988,0,0,0.04320987654320988,85.42592592592594,0)" xlink:href="#w"/><use transform="matrix(0.04320987654320988,0,0,0.04320987654320988,94.06790123456791,0)" xlink:href="#E"/></g><path d="M118-107v75H92v-75H18v-26h74v-75h26v75h74v26h-74" id="F"/><use transform="matrix(0.04320987654320988,0,0,0.04320987654320988,0,0)" xlink:href="#F" id="e"/><path d="M87 75C49 33 22-17 22-94c0-76 28-126 65-167h31c-38 41-64 92-64 168S80 34 118 75H87" id="G"/><path d="M33-261c38 41 65 92 65 168S71 34 33 75H2C39 34 66-17 66-93S39-220 2-261h31" id="H"/><g id="f"><use transform="matrix(0.04320987654320988,0,0,0.04320987654320988,0,0)" xlink:href="#A"/><use transform="matrix(0.04320987654320988,0,0,0.04320987654320988,8.641975308641976,0)" xlink:href="#w"/><use transform="matrix(0.04320987654320988,0,0,0.04320987654320988,17.283950617283953,0)" xlink:href="#q"/><use transform="matrix(0.04320987654320988,0,0,0.04320987654320988,25.925925925925927,0)" xlink:href="#r"/><use transform="matrix(0.04320987654320988,0,0,0.04320987654320988,31.067901234567906,0)" xlink:href="#x"/><use transform="matrix(0.04320987654320988,0,0,0.04320987654320988,39.70987654320988,0)" xlink:href="#y"/><use transform="matrix(0.04320987654320988,0,0,0.04320987654320988,44.03086419753087,0)" xlink:href="#z"/><use transform="matrix(0.04320987654320988,0,0,0.04320987654320988,47.44444444444445,0)" xlink:href="#A"/><use transform="matrix(0.04320987654320988,0,0,0.04320987654320988,56.086419753086425,0)" xlink:href="#B"/><use transform="matrix(0.04320987654320988,0,0,0.04320987654320988,64.7283950617284,0)" xlink:href="#s"/><use transform="matrix(0.04320987654320988,0,0,0.04320987654320988,73.37037037037038,0)" xlink:href="#G"/><use transform="matrix(0.04320987654320988,0,0,0.04320987654320988,78.51234567901236,0)" xlink:href="#H"/></g><g id="g"><use transform="matrix(0.04320987654320988,0,0,0.04320987654320988,0,0)" xlink:href="#A"/><use transform="matrix(0.04320987654320988,0,0,0.04320987654320988,8.641975308641976,0)" xlink:href="#w"/><use transform="matrix(0.04320987654320988,0,0,0.04320987654320988,17.283950617283953,0)" xlink:href="#q"/><use transform="matrix(0.04320987654320988,0,0,0.04320987654320988,25.925925925925927,0)" xlink:href="#r"/><use transform="matrix(0.04320987654320988,0,0,0.04320987654320988,31.067901234567906,0)" xlink:href="#x"/><use transform="matrix(0.04320987654320988,0,0,0.04320987654320988,39.70987654320988,0)" xlink:href="#y"/><use transform="matrix(0.04320987654320988,0,0,0.04320987654320988,44.03086419753087,0)" xlink:href="#z"/><use transform="matrix(0.04320987654320988,0,0,0.04320987654320988,47.44444444444445,0)" xlink:href="#A"/><use transform="matrix(0.04320987654320988,0,0,0.04320987654320988,56.086419753086425,0)" xlink:href="#B"/><use transform="matrix(0.04320987654320988,0,0,0.04320987654320988,64.7283950617284,0)" xlink:href="#t"/><use transform="matrix(0.04320987654320988,0,0,0.04320987654320988,73.37037037037038,0)" xlink:href="#G"/><use transform="matrix(0.04320987654320988,0,0,0.04320987654320988,78.51234567901236,0)" xlink:href="#H"/></g><g id="h"><use transform="matrix(0.04320987654320988,0,0,0.04320987654320988,0,0)" xlink:href="#A"/><use transform="matrix(0.04320987654320988,0,0,0.04320987654320988,8.641975308641976,0)" xlink:href="#w"/><use transform="matrix(0.04320987654320988,0,0,0.04320987654320988,17.283950617283953,0)" xlink:href="#q"/><use transform="matrix(0.04320987654320988,0,0,0.04320987654320988,25.925925925925927,0)" xlink:href="#r"/><use transform="matrix(0.04320987654320988,0,0,0.04320987654320988,31.067901234567906,0)" xlink:href="#x"/><use transform="matrix(0.04320987654320988,0,0,0.04320987654320988,39.70987654320988,0)" xlink:href="#y"/><use transform="matrix(0.04320987654320988,0,0,0.04320987654320988,44.03086419753087,0)" xlink:href="#z"/><use transform="matrix(0.04320987654320988,0,0,0.04320987654320988,47.44444444444445,0)" xlink:href="#A"/><use transform="matrix(0.04320987654320988,0,0,0.04320987654320988,56.086419753086425,0)" xlink:href="#B"/><use transform="matrix(0.04320987654320988,0,0,0.04320987654320988,64.7283950617284,0)" xlink:href="#u"/><use transform="matrix(0.04320987654320988,0,0,0.04320987654320988,73.37037037037038,0)" xlink:href="#G"/><use transform="matrix(0.04320987654320988,0,0,0.04320987654320988,78.51234567901236,0)" xlink:href="#H"/></g><path d="M18-100v-36l175-74v27L42-118l151 64v27" id="I"/><path d="M101-234c-31-9-42 10-38 44h38v23H63V0H32v-167H5v-23h27c-7-52 17-82 69-68v24" id="J"/><path d="M96-169c-40 0-48 33-48 73s9 75 48 75c24 0 41-14 43-38l32 2c-6 37-31 61-74 61-59 0-76-41-82-99-10-93 101-131 147-64 4 7 5 14 7 22l-32 3c-4-21-16-35-41-35" id="K"/><path d="M18-27v-27l151-64-151-65v-27l175 74v36" id="L"/><g id="i"><use transform="matrix(0.04543420314253645,0,0,0.04543420314253645,0,0)" xlink:href="#I"/><use transform="matrix(0.04543420314253645,0,0,0.04543420314253645,9.541182659932653,0)" xlink:href="#I"/><use transform="matrix(0.04543420314253645,0,0,0.04543420314253645,19.082365319865307,0)" xlink:href="#z"/><use transform="matrix(0.04543420314253645,0,0,0.04543420314253645,22.671667368125686,0)" xlink:href="#B"/><use transform="matrix(0.04543420314253645,0,0,0.04543420314253645,31.758507996632975,0)" xlink:href="#y"/><use transform="matrix(0.04543420314253645,0,0,0.04543420314253645,36.30192831088662,0)" xlink:href="#q"/><use transform="matrix(0.04543420314253645,0,0,0.04543420314253645,45.38876893939391,0)" xlink:href="#r"/><use transform="matrix(0.04543420314253645,0,0,0.04543420314253645,50.79543911335575,0)" xlink:href="#J"/><use transform="matrix(0.04543420314253645,0,0,0.04543420314253645,55.33885942760939,0)" xlink:href="#x"/><use transform="matrix(0.04543420314253645,0,0,0.04543420314253645,64.42570005611668,0)" xlink:href="#K"/><use transform="matrix(0.04543420314253645,0,0,0.04543420314253645,72.60385662177325,0)" xlink:href="#q"/><use transform="matrix(0.04543420314253645,0,0,0.04543420314253645,81.69069725028054,0)" xlink:href="#L"/><use transform="matrix(0.04543420314253645,0,0,0.04543420314253645,91.2318799102132,0)" xlink:href="#L"/></g><g id="j"><use transform="matrix(0.04543420314253645,0,0,0.04543420314253645,0,0)" xlink:href="#v"/><use transform="matrix(0.04543420314253645,0,0,0.04543420314253645,12.721576879910206,0)" xlink:href="#w"/><use transform="matrix(0.04543420314253645,0,0,0.04543420314253645,21.808417508417495,0)" xlink:href="#q"/><use transform="matrix(0.04543420314253645,0,0,0.04543420314253645,30.895258136924785,0)" xlink:href="#r"/><use transform="matrix(0.04543420314253645,0,0,0.04543420314253645,36.30192831088662,0)" xlink:href="#x"/><use transform="matrix(0.04543420314253645,0,0,0.04543420314253645,45.38876893939391,0)" xlink:href="#y"/><use transform="matrix(0.04543420314253645,0,0,0.04543420314253645,49.93218925364756,0)" xlink:href="#z"/><use transform="matrix(0.04543420314253645,0,0,0.04543420314253645,53.521491301907936,0)" xlink:href="#A"/><use transform="matrix(0.04543420314253645,0,0,0.04543420314253645,62.608331930415225,0)" xlink:href="#B"/><use transform="matrix(0.04543420314253645,0,0,0.04543420314253645,71.69517255892251,0)" xlink:href="#s"/></g><g id="k"><use transform="matrix(0.04320987654320988,0,0,0.04320987654320988,0,0)" xlink:href="#A"/><use transform="matrix(0.04320987654320988,0,0,0.04320987654320988,8.641975308641976,0)" xlink:href="#w"/><use transform="matrix(0.04320987654320988,0,0,0.04320987654320988,17.283950617283953,0)" xlink:href="#q"/><use transform="matrix(0.04320987654320988,0,0,0.04320987654320988,25.925925925925927,0)" xlink:href="#r"/><use transform="matrix(0.04320987654320988,0,0,0.04320987654320988,31.067901234567906,0)" xlink:href="#x"/><use transform="matrix(0.04320987654320988,0,0,0.04320987654320988,39.70987654320988,0)" xlink:href="#y"/><use transform="matrix(0.04320987654320988,0,0,0.04320987654320988,44.03086419753087,0)" xlink:href="#z"/><use transform="matrix(0.04320987654320988,0,0,0.04320987654320988,47.44444444444445,0)" xlink:href="#A"/><use transform="matrix(0.04320987654320988,0,0,0.04320987654320988,56.086419753086425,0)" xlink:href="#B"/><use transform="matrix(0.04320987654320988,0,0,0.04320987654320988,64.7283950617284,0)" xlink:href="#s"/><use transform="matrix(0.04320987654320988,0,0,0.04320987654320988,73.37037037037038,0)" xlink:href="#G"/><use transform="matrix(0.04320987654320988,0,0,0.04320987654320988,78.51234567901236,0)" xlink:href="#H"/></g><g id="l"><use transform="matrix(0.04543420314253645,0,0,0.04543420314253645,0,0)" xlink:href="#v"/><use transform="matrix(0.04543420314253645,0,0,0.04543420314253645,12.721576879910206,0)" xlink:href="#w"/><use transform="matrix(0.04543420314253645,0,0,0.04543420314253645,21.808417508417495,0)" xlink:href="#q"/><use transform="matrix(0.04543420314253645,0,0,0.04543420314253645,30.895258136924785,0)" xlink:href="#r"/><use transform="matrix(0.04543420314253645,0,0,0.04543420314253645,36.30192831088662,0)" xlink:href="#x"/><use transform="matrix(0.04543420314253645,0,0,0.04543420314253645,45.38876893939391,0)" xlink:href="#y"/><use transform="matrix(0.04543420314253645,0,0,0.04543420314253645,49.93218925364756,0)" xlink:href="#z"/><use transform="matrix(0.04543420314253645,0,0,0.04543420314253645,53.521491301907936,0)" xlink:href="#A"/><use transform="matrix(0.04543420314253645,0,0,0.04543420314253645,62.608331930415225,0)" xlink:href="#B"/><use transform="matrix(0.04543420314253645,0,0,0.04543420314253645,71.69517255892251,0)" xlink:href="#t"/></g><g id="m"><use transform="matrix(0.04320987654320988,0,0,0.04320987654320988,0,0)" xlink:href="#A"/><use transform="matrix(0.04320987654320988,0,0,0.04320987654320988,8.641975308641976,0)" xlink:href="#w"/><use transform="matrix(0.04320987654320988,0,0,0.04320987654320988,17.283950617283953,0)" xlink:href="#q"/><use transform="matrix(0.04320987654320988,0,0,0.04320987654320988,25.925925925925927,0)" xlink:href="#r"/><use transform="matrix(0.04320987654320988,0,0,0.04320987654320988,31.067901234567906,0)" xlink:href="#x"/><use transform="matrix(0.04320987654320988,0,0,0.04320987654320988,39.70987654320988,0)" xlink:href="#y"/><use transform="matrix(0.04320987654320988,0,0,0.04320987654320988,44.03086419753087,0)" xlink:href="#z"/><use transform="matrix(0.04320987654320988,0,0,0.04320987654320988,47.44444444444445,0)" xlink:href="#A"/><use transform="matrix(0.04320987654320988,0,0,0.04320987654320988,56.086419753086425,0)" xlink:href="#B"/><use transform="matrix(0.04320987654320988,0,0,0.04320987654320988,64.7283950617284,0)" xlink:href="#t"/><use transform="matrix(0.04320987654320988,0,0,0.04320987654320988,73.37037037037038,0)" xlink:href="#G"/><use transform="matrix(0.04320987654320988,0,0,0.04320987654320988,78.51234567901236,0)" xlink:href="#H"/></g><g id="n"><use transform="matrix(0.04543420314253645,0,0,0.04543420314253645,0,0)" xlink:href="#v"/><use transform="matrix(0.04543420314253645,0,0,0.04543420314253645,12.721576879910206,0)" xlink:href="#w"/><use transform="matrix(0.04543420314253645,0,0,0.04543420314253645,21.808417508417495,0)" xlink:href="#q"/><use transform="matrix(0.04543420314253645,0,0,0.04543420314253645,30.895258136924785,0)" xlink:href="#r"/><use transform="matrix(0.04543420314253645,0,0,0.04543420314253645,36.30192831088662,0)" xlink:href="#x"/><use transform="matrix(0.04543420314253645,0,0,0.04543420314253645,45.38876893939391,0)" xlink:href="#y"/><use transform="matrix(0.04543420314253645,0,0,0.04543420314253645,49.93218925364756,0)" xlink:href="#z"/><use transform="matrix(0.04543420314253645,0,0,0.04543420314253645,53.521491301907936,0)" xlink:href="#A"/><use transform="matrix(0.04543420314253645,0,0,0.04543420314253645,62.608331930415225,0)" xlink:href="#B"/><use transform="matrix(0.04543420314253645,0,0,0.04543420314253645,71.69517255892251,0)" xlink:href="#u"/></g></defs></g></svg>