<svg xmlns="http://www.w3.org/2000/svg" xmlns:xlink="http://www.w3.org/1999/xlink" xmlns:lucid="lucid" width="1146.25" height="1022"><g transform="translate(-73.75 -20)" lucid:page-tab-id="0_0"><path d="M0 0h1850.6v1430H0z" fill="#fff"/><path d="M420 748c0-4.42 3.58-8 8-8h120c4.42 0 10.53 2.53 13.66 5.66l12.68 12.68c3.13 3.13 5.66 9.24 5.66 13.66v80c0 4.42-3.58 8-8 8H428c-4.42 0-8-3.58-8-8z" stroke="#fff" stroke-width="4" fill="#760000"/><path d="M557.94 747.76c-1.07-4.3.6-5.23 3.72-2.1l12.68 12.68c3.13 3.13 2.2 4.8-2.1 3.72l-3.68-.92c-4.3-1.07-8.63-5.4-9.7-9.7z" stroke="#fff" stroke-width="4" fill="#530000"/><use xlink:href="#a" transform="matrix(1,0,0,1,420,740) translate(5.01 27.444444444444446)"/><use xlink:href="#b" transform="matrix(1,0,0,1,420,740) translate(5.01 46.111111111111114)"/><use xlink:href="#c" transform="matrix(1,0,0,1,420,740) translate(5.01 64.77777777777779)"/><use xlink:href="#d" transform="matrix(1,0,0,1,420,740) translate(71.42358024691359 64.77777777777779)"/><use xlink:href="#e" transform="matrix(1,0,0,1,420,740) translate(5.01 83.44444444444446)"/><use xlink:href="#f" transform="matrix(1,0,0,1,420,740) translate(64.51 83.44444444444446)"/><use xlink:href="#g" transform="matrix(1,0,0,1,420,740) translate(96.3988888888889 83.44444444444446)"/><use xlink:href="#h" transform="matrix(1,0,0,1,420,740) translate(5.01 102.11111111111113)"/><path d="M980 866c0-4.42 3.58-8 8-8h144c4.42 0 8 3.58 8 8v104c0 4.42-3.58 8-8 8H988c-4.42 0-8-3.58-8-8z" stroke="#fff" stroke-width="4" fill="#e5e5e5"/><path d="M996 858v120m128-120v120" stroke="#fff" stroke-width="4" fill="none"/><use xlink:href="#i" transform="matrix(1,0,0,1,1000,858) translate(28.975308641975307 53.77777777777777)"/><use xlink:href="#j" transform="matrix(1,0,0,1,1000,858) translate(26.75 72.44444444444444)"/><path d="M740 866c0-4.42 3.58-8 8-8h144c4.42 0 8 3.58 8 8v104c0 4.42-3.58 8-8 8H748c-4.42 0-8-3.58-8-8z" stroke="#fff" stroke-width="4" fill="#e5e5e5"/><path d="M756 858v120m128-120v120" stroke="#fff" stroke-width="4" fill="none"/><use xlink:href="#k" transform="matrix(1,0,0,1,760,858) translate(10.416666666666657 53.77777777777777)"/><use xlink:href="#l" transform="matrix(1,0,0,1,760,858) translate(76.78703703703704 53.77777777777777)"/><use xlink:href="#m" transform="matrix(1,0,0,1,760,858) translate(33.68518518518518 72.44444444444444)"/><path d="M902 918h74.04" stroke="#000" stroke-width="2" fill="none"/><path d="M902 919h-2v-2h2zM978 918l-18.67 11.04-1.02-1.72 15.77-9.32-15.76-9.32 1.03-1.72z"/><path d="M720 826c0-4.42 3.58-8 8-8h424c4.42 0 8 3.58 8 8v164c0 4.42-3.58 8-8 8H728c-4.42 0-8-3.58-8-8z" stroke="#000" stroke-width="4" fill="none"/><use xlink:href="#n" transform="matrix(1,0,0,1,728,826) translate(178.75 15.11111111111111)"/><path d="M1000 508c0-4.42 3.58-8 8-8h144c4.42 0 8 3.58 8 8v104c0 4.42-3.58 8-8 8h-144c-4.42 0-8-3.58-8-8z" stroke="#fff" stroke-width="4" fill="#e5e5e5"/><path d="M1016 500v120m128-120v120" stroke="#fff" stroke-width="4" fill="none"/><use xlink:href="#k" transform="matrix(1,0,0,1,1020,500) translate(1.364197530864189 63.111111111111114)"/><use xlink:href="#o" transform="matrix(1,0,0,1,1020,500) translate(67.73456790123457 63.111111111111114)"/><path d="M740 408c0-4.42 3.58-8 8-8h144c4.42 0 8 3.58 8 8v104c0 4.42-3.58 8-8 8H748c-4.42 0-8-3.58-8-8z" stroke="#fff" stroke-width="4" fill="#e5e5e5"/><path d="M756 400v120m128-120v120" stroke="#fff" stroke-width="4" fill="none"/><use xlink:href="#k" transform="matrix(1,0,0,1,760,400) translate(3.5246913580246826 53.77777777777777)"/><use xlink:href="#p" transform="matrix(1,0,0,1,760,400) translate(69.89506172839506 53.77777777777777)"/><use xlink:href="#q" transform="matrix(1,0,0,1,760,400) translate(25.04320987654321 72.44444444444444)"/><path d="M902 460h178v36.04" stroke="#000" stroke-width="2" fill="none"/><path d="M902 461h-2v-2h2zM1091.04 479.33L1080 498l-11.04-18.67 1.72-1.02 9.32 15.77 9.32-15.76z"/><path d="M420 210.67c0-4.42 3.58-8 8-8h764c4.42 0 8 3.58 8 8V712c0 4.42-3.58 8-8 8H428c-4.42 0-8-3.58-8-8z" stroke="#000" stroke-width="4" fill="none"/><use xlink:href="#r" transform="matrix(1,0,0,1,428,210.66666666666663) translate(349.2037037037037 15.11111111111111)"/><path d="M740 568c0-4.42 3.58-8 8-8h144c4.42 0 8 3.58 8 8v104c0 4.42-3.58 8-8 8H748c-4.42 0-8-3.58-8-8z" stroke="#fff" stroke-width="4" fill="#e5e5e5"/><use xlink:href="#s" transform="matrix(1,0,0,1,748,568) translate(21.613468714927073 35.64368686868688)"/><use xlink:href="#t" transform="matrix(1,0,0,1,748,568) translate(19.864251893939425 55.27126262626262)"/><use xlink:href="#u" transform="matrix(1,0,0,1,748,568) translate(89.65118792087542 55.27126262626262)"/><use xlink:href="#v" transform="matrix(1,0,0,1,748,568) translate(39.764432870370385 74.89883838383838)"/><path d="M460 568c0-4.42 3.58-8 8-8h144c4.42 0 8 3.58 8 8v104c0 4.42-3.58 8-8 8H468c-4.42 0-8-3.58-8-8z" stroke="#fff" stroke-width="4" fill="#e5e5e5"/><use xlink:href="#w" transform="matrix(1,0,0,1,468,568) translate(2.985445426487132 35.64368686868688)"/><use xlink:href="#x" transform="matrix(1,0,0,1,468,568) translate(58.41517326038159 35.64368686868688)"/><use xlink:href="#t" transform="matrix(1,0,0,1,468,568) translate(12.61749649270486 55.27126262626262)"/><use xlink:href="#y" transform="matrix(1,0,0,1,468,568) translate(82.40443251964085 55.27126262626262)"/><use xlink:href="#z" transform="matrix(1,0,0,1,468,568) translate(35.22101255611675 74.89883838383838)"/><path d="M460 408c0-4.42 3.58-8 8-8h144c4.42 0 8 3.58 8 8v104c0 4.42-3.58 8-8 8H468c-4.42 0-8-3.58-8-8z" stroke="#fff" stroke-width="4" fill="#e5e5e5"/><use xlink:href="#s" transform="matrix(1,0,0,1,468,408) translate(21.613468714927073 35.64368686868688)"/><use xlink:href="#t" transform="matrix(1,0,0,1,468,408) translate(12.61749649270486 55.27126262626262)"/><use xlink:href="#y" transform="matrix(1,0,0,1,468,408) translate(82.40443251964085 55.27126262626262)"/><use xlink:href="#A" transform="matrix(1,0,0,1,468,408) translate(34.335045594837275 74.89883838383838)"/><path d="M460 248c0-4.42 3.58-8 8-8h144c4.42 0 8 3.58 8 8v104c0 4.42-3.58 8-8 8H468c-4.42 0-8-3.58-8-8z" stroke="#fff" stroke-width="4" fill="#e5e5e5"/><use xlink:href="#w" transform="matrix(1,0,0,1,468,248) translate(2.985445426487132 35.64368686868688)"/><use xlink:href="#x" transform="matrix(1,0,0,1,468,248) translate(58.41517326038159 35.64368686868688)"/><use xlink:href="#t" transform="matrix(1,0,0,1,468,248) translate(12.61749649270486 55.27126262626262)"/><use xlink:href="#y" transform="matrix(1,0,0,1,468,248) translate(82.40443251964085 55.27126262626262)"/><use xlink:href="#B" transform="matrix(1,0,0,1,468,248) translate(41.58180099607185 74.89883838383838)"/><path d="M738 434h-58V300h-56.04" stroke="#000" stroke-width="2" fill="none"/><path d="M740 435h-2v-2h2zM641.7 290.68L625.92 300l15.76 9.32-1.03 1.72L622 300l18.67-11.04z"/><path d="M738 490h-58v130h-56.04" stroke="#000" stroke-width="2" fill="none"/><path d="M740 491h-2v-2h2zM641.7 610.68L625.92 620l15.76 9.32-1.03 1.72L622 620l18.67-11.04z"/><path d="M738 460h-97.76" stroke="#000" stroke-width="2" fill="none"/><path d="M740 461h-2v-2h2zM639.5 464.64L625.24 460l14.26-4.64z"/><path d="M640.5 466l-18.5-6 18.5-6zm-12.03-6l10.03 3.26v-6.52z"/><path d="M820 856V700.24" stroke="#000" stroke-width="2" fill="none"/><path d="M821 858h-2v-2h2zM824.64 699.5h-9.28l4.64-14.26z"/><path d="M826 700.5h-12l6-18.5zm-9.26-2h6.52L820 688.47z"/><path d="M820 856v-88h260V623.96" stroke="#000" stroke-width="2" fill="none"/><path d="M821 858h-2v-2h2zM1091.04 640.67l-1.72 1.02-9.32-15.77-9.32 15.76-1.72-1.03L1080 622z"/><path d="M820 522v34.04" stroke="#000" stroke-width="2" fill="none"/><path d="M821 522h-2v-2h2zM831.04 539.33L820 558l-11.04-18.67 1.72-1.02 9.32 15.77 9.32-15.76z"/><path d="M140 408c0-4.42 3.58-8 8-8h144c4.42 0 8 3.58 8 8v104c0 4.42-3.58 8-8 8H148c-4.42 0-8-3.58-8-8z" stroke="#fff" stroke-width="4" fill="#e5e5e5"/><path d="M156 400v120m128-120v120" stroke="#fff" stroke-width="4" fill="none"/><use xlink:href="#k" transform="matrix(1,0,0,1,160,400) translate(3.5246913580246826 53.77777777777777)"/><use xlink:href="#p" transform="matrix(1,0,0,1,160,400) translate(69.89506172839506 53.77777777777777)"/><use xlink:href="#C" transform="matrix(1,0,0,1,160,400) translate(26.404320987654316 72.44444444444444)"/><path d="M220 556.04V522" stroke="#000" stroke-width="2" fill="none"/><path d="M231.04 539.33L220 558l-11.04-18.67 1.72-1.02 9.32 15.77 9.32-15.76zM221 522h-2v-2h2z"/><path d="M100 368c0-4.42 3.58-8 8-8h224c4.42 0 8 3.58 8 8v344c0 4.42-3.58 8-8 8H108c-4.42 0-8-3.58-8-8z" stroke="#000" stroke-width="4" fill="none"/><use xlink:href="#D" transform="matrix(1,0,0,1,108,368) translate(78.40432098765432 15.11111111111111)"/><path d="M140 568c0-4.42 3.58-8 8-8h144c4.42 0 8 3.58 8 8v104c0 4.42-3.58 8-8 8H148c-4.42 0-8-3.58-8-8z" stroke="#fff" stroke-width="4" fill="#e5e5e5"/><use xlink:href="#s" transform="matrix(1,0,0,1,148,568) translate(21.613468714927073 35.64368686868688)"/><use xlink:href="#t" transform="matrix(1,0,0,1,148,568) translate(12.61749649270486 55.27126262626262)"/><use xlink:href="#y" transform="matrix(1,0,0,1,148,568) translate(82.40443251964085 55.27126262626262)"/><use xlink:href="#E" transform="matrix(1,0,0,1,148,568) translate(36.60675575196411 74.89883838383838)"/><path d="M302 460h154.04" stroke="#000" stroke-width="2" fill="none"/><path d="M302 461h-2v-2h2zM458 460l-18.67 11.04-1.02-1.72 15.77-9.32-15.76-9.32 1.03-1.72z"/><path d="M302 647.33h154.04" stroke="#000" stroke-width="2" fill="none"/><path d="M302 648.33h-2v-2h2zM458 647.33l-18.67 11.04-1.02-1.72 15.77-9.32L438.3 638l1.03-1.7zM456.04 301H381v160h-79v-2h77V299h77.04zM302 461h-2v-2h2z"/><path d="M458 300l-18.67 11.04-1.02-1.72 15.77-9.32-15.76-9.32 1.03-1.72z"/><path d="M302 460h78v156h76.04" stroke="#000" stroke-width="2" fill="none"/><path d="M302 461h-2v-2h2zM458 616l-18.67 11.04-1.02-1.72 15.77-9.32-15.76-9.32 1.03-1.72z"/><path d="M599.64 801H582v-2h17.64zm176.7-2h-38.86v-2h36.85V682h2zM582 801h-2v-2h2zM776.33 682h-2v-2h2z" fill="#760000"/><g><use xlink:href="#F" transform="matrix(1,0,0,1,599.643036017858,790.6666666666666) translate(0 12.444444444444446)"/><use xlink:href="#G" transform="matrix(1,0,0,1,599.643036017858,790.6666666666666) translate(82.70370370370371 12.444444444444446)"/></g><path d="M420 910c0-4.42 3.58-8 8-8h120c4.42 0 10.53 2.53 13.66 5.66l12.68 12.68c3.13 3.13 5.66 9.24 5.66 13.66v80c0 4.42-3.58 8-8 8H428c-4.42 0-8-3.58-8-8z" stroke="#fff" stroke-width="4" fill="#760000"/><path d="M557.94 909.76c-1.07-4.3.6-5.23 3.72-2.1l12.68 12.68c3.13 3.13 2.2 4.8-2.1 3.72l-3.68-.92c-4.3-1.07-8.63-5.4-9.7-9.7z" stroke="#fff" stroke-width="4" fill="#530000"/><g><use xlink:href="#H" transform="matrix(1,0,0,1,420,902) translate(5.01 27.444444444444446)"/><use xlink:href="#I" transform="matrix(1,0,0,1,420,902) translate(5.01 46.111111111111114)"/><use xlink:href="#J" transform="matrix(1,0,0,1,420,902) translate(5.01 64.77777777777779)"/><use xlink:href="#K" transform="matrix(1,0,0,1,420,902) translate(92.89888888888889 64.77777777777779)"/><use xlink:href="#L" transform="matrix(1,0,0,1,420,902) translate(5.01 83.44444444444446)"/><use xlink:href="#M" transform="matrix(1,0,0,1,420,902) translate(47.18283950617284 83.44444444444446)"/><use xlink:href="#N" transform="matrix(1,0,0,1,420,902) translate(66.10876543209876 83.44444444444446)"/><use xlink:href="#O" transform="matrix(1,0,0,1,420,902) translate(5.01 102.11111111111113)"/></g><path d="M93.75 48c0-4.42 3.58-8 8-8h130.13c4.4 0 10.53 2.53 13.65 5.66l15.06 15.06c3.12 3.12 5.65 9.24 5.65 13.66v89.5c0 4.4-3.58 8-8 8h-156.5c-4.42 0-8-3.6-8-8z" stroke="#fff" stroke-width="4" fill="#760000"/><path d="M241.82 47.76c-1.08-4.3.6-5.23 3.7-2.1l15.07 15.06c3.12 3.12 2.18 4.8-2.1 3.7l-5.6-1.38c-4.28-1.07-8.62-5.4-9.7-9.7z" stroke="#fff" stroke-width="4" fill="#530000"/><g><use xlink:href="#H" transform="matrix(1,0,0,1,93.75,40) translate(5.01 33.06944444444444)"/><use xlink:href="#P" transform="matrix(1,0,0,1,93.75,40) translate(5.01 51.736111111111114)"/><use xlink:href="#Q" transform="matrix(1,0,0,1,93.75,40) translate(83.43592592592593 51.736111111111114)"/><use xlink:href="#R" transform="matrix(1,0,0,1,93.75,40) translate(132.56555555555556 51.736111111111114)"/><use xlink:href="#S" transform="matrix(1,0,0,1,93.75,40) translate(5.01 70.40277777777779)"/><use xlink:href="#T" transform="matrix(1,0,0,1,93.75,40) translate(5.01 89.06944444444446)"/><use xlink:href="#U" transform="matrix(1,0,0,1,93.75,40) translate(112.81864197530865 89.06944444444446)"/><use xlink:href="#V" transform="matrix(1,0,0,1,93.75,40) translate(136.06555555555556 89.06944444444446)"/><use xlink:href="#W" transform="matrix(1,0,0,1,93.75,40) translate(5.01 107.73611111111113)"/><use xlink:href="#X" transform="matrix(1,0,0,1,93.75,40) translate(76.60876543209878 107.73611111111113)"/></g><path d="M361 341v87.53h13.27l.84-2.57 2.92-2.13 2.06-.33 3.5 1.14 2.1 2.9.17 1H458v2h-73.85l-.35-2.2-1.46-2-2.42-.8-1.1.2-2 1.45-1.1 3.33H359V343h-21.2v-2zm-159.4 0v2H179v-25.06h2V341zM181 317.94h-2v-2h2zM460 430.53h-2v-2h2z" fill="#760000"/><g><use xlink:href="#Y" transform="matrix(1,0,0,1,201.60515502244652,332.6666666666667) translate(0 12.444444444444446)"/><use xlink:href="#Z" transform="matrix(1,0,0,1,201.60515502244652,332.6666666666667) translate(87.11111111111111 12.444444444444446)"/></g><path d="M100 203.94c0-4.42 3.58-8 8-8h120c4.42 0 10.53 2.53 13.66 5.65l12.68 12.68c3.13 3.12 5.66 9.24 5.66 13.66v80c0 4.42-3.58 8-8 8H108c-4.42 0-8-3.58-8-8z" stroke="#fff" stroke-width="4" fill="#760000"/><path d="M237.94 203.7c-1.07-4.3.6-5.23 3.72-2.1l12.68 12.68c3.13 3.12 2.2 4.8-2.1 3.72l-3.68-.92c-4.3-1.07-8.63-5.42-9.7-9.7z" stroke="#fff" stroke-width="4" fill="#530000"/><g><use xlink:href="#aa" transform="matrix(1,0,0,1,100,195.9375) translate(5.01 27.444444444444446)"/><use xlink:href="#ab" transform="matrix(1,0,0,1,100,195.9375) translate(71.42358024691359 27.444444444444446)"/><use xlink:href="#ac" transform="matrix(1,0,0,1,100,195.9375) translate(5.01 46.111111111111114)"/><use xlink:href="#ad" transform="matrix(1,0,0,1,100,195.9375) translate(59.281604938271606 46.111111111111114)"/><use xlink:href="#ae" transform="matrix(1,0,0,1,100,195.9375) translate(5.01 64.77777777777779)"/><use xlink:href="#af" transform="matrix(1,0,0,1,100,195.9375) translate(43.812469135802466 64.77777777777779)"/><use xlink:href="#ag" transform="matrix(1,0,0,1,100,195.9375) translate(111.04703703703703 64.77777777777779)"/><use xlink:href="#ah" transform="matrix(1,0,0,1,100,195.9375) translate(5.01 83.44444444444446)"/><use xlink:href="#ai" transform="matrix(1,0,0,1,100,195.9375) translate(50.72604938271605 83.44444444444446)"/><use xlink:href="#aj" transform="matrix(1,0,0,1,100,195.9375) translate(5.01 102.11111111111113)"/></g><path d="M180 193.94v-20.06" stroke="#760000" stroke-width="2" fill="none"/><path d="M181 195.94h-2v-2h2zM181 173.88h-2v-2h2z" fill="#760000"/><path d="M500 862v38" stroke="#760000" stroke-width="2" fill="none"/><path d="M501 862h-2v-2h2zM501 902h-2v-2h2z" fill="#760000"/><defs><path fill="#fff" d="M24 0v-248h52V0H24" id="ak"/><path fill="#fff" d="M135-194c87-1 58 113 63 194h-50c-7-57 23-157-34-157-59 0-34 97-39 157H25l-1-190h47c2 12-1 28 3 38 12-26 28-41 61-42" id="al"/><path fill="#fff" d="M128 0H69L1-190h53L99-40l48-150h52" id="am"/><path fill="#fff" d="M185-48c-13 30-37 53-82 52C43 2 14-33 14-96s30-98 90-98c62 0 83 45 84 108H66c0 31 8 55 39 56 18 0 30-7 34-22zm-45-69c5-46-57-63-70-21-2 6-4 13-4 21h74" id="an"/><path fill="#fff" d="M135-150c-39-12-60 13-60 57V0H25l-1-190h47c2 13-1 29 3 40 6-28 27-53 61-41v41" id="ao"/><path fill="#fff" d="M115-3C79 11 28 4 28-45v-112H4v-33h27l15-45h31v45h36v33H77v99c-1 23 16 31 38 25v30" id="ap"/><path fill="#fff" d="M137-138c1-29-70-34-71-4 15 46 118 7 119 86 1 83-164 76-172 9l43-7c4 19 20 25 44 25 33 8 57-30 24-41C81-84 22-81 20-136c-2-80 154-74 161-7" id="aq"/><g id="a"><use transform="matrix(0.04320987654320988,0,0,0.04320987654320988,0,0)" xlink:href="#ak"/><use transform="matrix(0.04320987654320988,0,0,0.04320987654320988,4.320987654320988,0)" xlink:href="#al"/><use transform="matrix(0.04320987654320988,0,0,0.04320987654320988,13.783950617283953,0)" xlink:href="#am"/><use transform="matrix(0.04320987654320988,0,0,0.04320987654320988,22.425925925925934,0)" xlink:href="#an"/><use transform="matrix(0.04320987654320988,0,0,0.04320987654320988,31.067901234567906,0)" xlink:href="#ao"/><use transform="matrix(0.04320987654320988,0,0,0.04320987654320988,37.11728395061729,0)" xlink:href="#ap"/><use transform="matrix(0.04320987654320988,0,0,0.04320987654320988,42.25925925925927,0)" xlink:href="#aq"/></g><path fill="#fff" d="M88-194c31-1 46 15 58 34l-1-101h50l1 261h-48c-2-10 0-23-3-31C134-8 116 4 84 4 32 4 16-41 15-95c0-56 19-97 73-99zm17 164c33 0 40-30 41-66 1-37-9-64-41-64s-38 30-39 65c0 43 13 65 39 65" id="ar"/><path fill="#fff" d="M135-194c53 0 70 44 70 98 0 56-19 98-73 100-31 1-45-17-59-34 3 33 2 69 2 105H25l-1-265h48c2 10 0 23 3 31 11-24 29-35 60-35zM114-30c33 0 39-31 40-66 0-38-9-64-40-64-56 0-55 130 0 130" id="as"/><path fill="#fff" d="M190-63c-7 42-38 67-86 67-59 0-84-38-90-98-12-110 154-137 174-36l-49 2c-2-19-15-32-35-32-30 0-35 28-38 64-6 74 65 87 74 30" id="at"/><path fill="#fff" d="M123 10C108 53 80 86 19 72V37c35 8 53-11 59-39L3-190h52l48 148c12-52 28-100 44-148h51" id="au"/><g id="b"><use transform="matrix(0.04320987654320988,0,0,0.04320987654320988,0,0)" xlink:href="#ar"/><use transform="matrix(0.04320987654320988,0,0,0.04320987654320988,9.462962962962964,0)" xlink:href="#an"/><use transform="matrix(0.04320987654320988,0,0,0.04320987654320988,18.10493827160494,0)" xlink:href="#as"/><use transform="matrix(0.04320987654320988,0,0,0.04320987654320988,27.567901234567906,0)" xlink:href="#an"/><use transform="matrix(0.04320987654320988,0,0,0.04320987654320988,36.20987654320988,0)" xlink:href="#al"/><use transform="matrix(0.04320987654320988,0,0,0.04320987654320988,45.67283950617284,0)" xlink:href="#ar"/><use transform="matrix(0.04320987654320988,0,0,0.04320987654320988,55.13580246913581,0)" xlink:href="#an"/><use transform="matrix(0.04320987654320988,0,0,0.04320987654320988,63.77777777777777,0)" xlink:href="#al"/><use transform="matrix(0.04320987654320988,0,0,0.04320987654320988,73.24074074074075,0)" xlink:href="#at"/><use transform="matrix(0.04320987654320988,0,0,0.04320987654320988,81.88271604938272,0)" xlink:href="#au"/></g><path fill="#fff" d="M135-194c52 0 70 43 70 98 0 56-19 99-73 100-30 1-46-15-58-35L72 0H24l1-261h50v104c11-23 29-37 60-37zM114-30c31 0 40-27 40-66 0-37-7-63-39-63s-41 28-41 65c0 36 8 64 40 64" id="av"/><path fill="#fff" d="M231 0h-52l-39-155L100 0H48L-1-190h46L77-45c9-52 24-97 36-145h53l37 145 32-145h46" id="aw"/><g id="c"><use transform="matrix(0.04320987654320988,0,0,0.04320987654320988,0,0)" xlink:href="#av"/><use transform="matrix(0.04320987654320988,0,0,0.04320987654320988,9.462962962962964,0)" xlink:href="#an"/><use transform="matrix(0.04320987654320988,0,0,0.04320987654320988,18.10493827160494,0)" xlink:href="#ap"/><use transform="matrix(0.04320987654320988,0,0,0.04320987654320988,23.246913580246915,0)" xlink:href="#aw"/><use transform="matrix(0.04320987654320988,0,0,0.04320987654320988,35.345679012345684,0)" xlink:href="#an"/><use transform="matrix(0.04320987654320988,0,0,0.04320987654320988,43.98765432098766,0)" xlink:href="#an"/><use transform="matrix(0.04320987654320988,0,0,0.04320987654320988,52.62962962962963,0)" xlink:href="#al"/></g><path fill="#fff" d="M24-248c120-7 223 5 221 122C244-46 201 0 124 0H24v-248zM76-40c74 7 117-18 117-86 0-67-45-88-117-82v168" id="ax"/><path fill="#fff" d="M133-34C117-15 103 5 69 4 32 3 11-16 11-54c-1-60 55-63 116-61 1-26-3-47-28-47-18 1-26 9-28 27l-52-2c7-38 36-58 82-57s74 22 75 68l1 82c-1 14 12 18 25 15v27c-30 8-71 5-69-32zm-48 3c29 0 43-24 42-57-32 0-66-3-65 30 0 17 8 27 23 27" id="ay"/><g id="d"><use transform="matrix(0.04320987654320988,0,0,0.04320987654320988,0,0)" xlink:href="#ax"/><use transform="matrix(0.04320987654320988,0,0,0.04320987654320988,11.19135802469136,0)" xlink:href="#ay"/><use transform="matrix(0.04320987654320988,0,0,0.04320987654320988,19.833333333333336,0)" xlink:href="#ap"/><use transform="matrix(0.04320987654320988,0,0,0.04320987654320988,24.97530864197531,0)" xlink:href="#ay"/></g><path fill="#fff" d="M230 0l2-204L168 0h-37L68-204 70 0H24v-248h70l56 185 57-185h69V0h-46" id="az"/><g id="e"><use transform="matrix(0.04320987654320988,0,0,0.04320987654320988,0,0)" xlink:href="#az"/><use transform="matrix(0.04320987654320988,0,0,0.04320987654320988,12.919753086419755,0)" xlink:href="#ay"/><use transform="matrix(0.04320987654320988,0,0,0.04320987654320988,21.56172839506173,0)" xlink:href="#as"/><use transform="matrix(0.04320987654320988,0,0,0.04320987654320988,31.024691358024693,0)" xlink:href="#as"/><use transform="matrix(0.04320987654320988,0,0,0.04320987654320988,40.48765432098766,0)" xlink:href="#an"/><use transform="matrix(0.04320987654320988,0,0,0.04320987654320988,49.12962962962963,0)" xlink:href="#ao"/></g><g id="f"><use transform="matrix(0.04320987654320988,0,0,0.04320987654320988,0,0)" xlink:href="#ay"/><use transform="matrix(0.04320987654320988,0,0,0.04320987654320988,8.641975308641976,0)" xlink:href="#al"/><use transform="matrix(0.04320987654320988,0,0,0.04320987654320988,18.10493827160494,0)" xlink:href="#ar"/></g><path fill="#fff" d="M240-174c0 40-23 61-54 70L253 0h-59l-57-94H76V0H24v-248c93 4 217-23 216 74zM76-134c48-2 112 12 112-38 0-48-66-32-112-35v73" id="aA"/><path fill="#fff" d="M110-194c64 0 96 36 96 99 0 64-35 99-97 99-61 0-95-36-95-99 0-62 34-99 96-99zm-1 164c35 0 45-28 45-65 0-40-10-65-43-65-34 0-45 26-45 65 0 36 10 65 43 65" id="aB"/><g id="g"><use transform="matrix(0.04320987654320988,0,0,0.04320987654320988,0,0)" xlink:href="#aA"/><use transform="matrix(0.04320987654320988,0,0,0.04320987654320988,11.19135802469136,0)" xlink:href="#an"/><use transform="matrix(0.04320987654320988,0,0,0.04320987654320988,19.833333333333336,0)" xlink:href="#as"/><use transform="matrix(0.04320987654320988,0,0,0.04320987654320988,29.296296296296298,0)" xlink:href="#aB"/><use transform="matrix(0.04320987654320988,0,0,0.04320987654320988,38.75925925925926,0)" xlink:href="#ao"/><use transform="matrix(0.04320987654320988,0,0,0.04320987654320988,44.808641975308646,0)" xlink:href="#ap"/></g><path fill="#fff" d="M67-125c0 54 23 88 75 88 28 0 53-7 68-21v-34h-60v-39h108v91C232-14 192 4 140 4 58 4 20-42 15-125 8-236 126-280 215-234c19 10 29 26 37 47l-47 15c-11-23-29-39-63-39-53 1-75 33-75 86" id="aC"/><g id="h"><use transform="matrix(0.04320987654320988,0,0,0.04320987654320988,0,0)" xlink:href="#aC"/><use transform="matrix(0.04320987654320988,0,0,0.04320987654320988,12.098765432098766,0)" xlink:href="#an"/><use transform="matrix(0.04320987654320988,0,0,0.04320987654320988,20.74074074074074,0)" xlink:href="#al"/><use transform="matrix(0.04320987654320988,0,0,0.04320987654320988,30.203703703703702,0)" xlink:href="#an"/><use transform="matrix(0.04320987654320988,0,0,0.04320987654320988,38.84567901234568,0)" xlink:href="#ao"/><use transform="matrix(0.04320987654320988,0,0,0.04320987654320988,44.89506172839506,0)" xlink:href="#ay"/><use transform="matrix(0.04320987654320988,0,0,0.04320987654320988,53.537037037037045,0)" xlink:href="#ap"/><use transform="matrix(0.04320987654320988,0,0,0.04320987654320988,58.679012345679006,0)" xlink:href="#aB"/><use transform="matrix(0.04320987654320988,0,0,0.04320987654320988,68.14197530864197,0)" xlink:href="#ao"/></g><path d="M63-220v92h138v28H63V0H30v-248h175v28H63" id="aD"/><path d="M24-231v-30h32v30H24zM24 0v-190h32V0H24" id="aE"/><path d="M117-194c89-4 53 116 60 194h-32v-121c0-31-8-49-39-48C34-167 62-67 57 0H25l-1-190h30c1 10-1 24 2 32 11-22 29-35 61-36" id="aF"/><path d="M141-36C126-15 110 5 73 4 37 3 15-17 15-53c-1-64 63-63 125-63 3-35-9-54-41-54-24 1-41 7-42 31l-33-3c5-37 33-52 76-52 45 0 72 20 72 64v82c-1 20 7 32 28 27v20c-31 9-61-2-59-35zM48-53c0 20 12 33 32 33 41-3 63-29 60-74-43 2-92-5-92 41" id="aG"/><path d="M96-169c-40 0-48 33-48 73s9 75 48 75c24 0 41-14 43-38l32 2c-6 37-31 61-74 61-59 0-76-41-82-99-10-93 101-131 147-64 4 7 5 14 7 22l-32 3c-4-21-16-35-41-35" id="aH"/><path d="M24 0v-261h32V0H24" id="aI"/><g id="i"><use transform="matrix(0.04320987654320988,0,0,0.04320987654320988,0,0)" xlink:href="#aD"/><use transform="matrix(0.04320987654320988,0,0,0.04320987654320988,9.462962962962964,0)" xlink:href="#aE"/><use transform="matrix(0.04320987654320988,0,0,0.04320987654320988,12.876543209876544,0)" xlink:href="#aF"/><use transform="matrix(0.04320987654320988,0,0,0.04320987654320988,21.51851851851852,0)" xlink:href="#aG"/><use transform="matrix(0.04320987654320988,0,0,0.04320987654320988,30.160493827160494,0)" xlink:href="#aF"/><use transform="matrix(0.04320987654320988,0,0,0.04320987654320988,38.80246913580247,0)" xlink:href="#aH"/><use transform="matrix(0.04320987654320988,0,0,0.04320987654320988,46.58024691358024,0)" xlink:href="#aE"/><use transform="matrix(0.04320987654320988,0,0,0.04320987654320988,49.99382716049383,0)" xlink:href="#aG"/><use transform="matrix(0.04320987654320988,0,0,0.04320987654320988,58.63580246913581,0)" xlink:href="#aI"/></g><path d="M30-248c118-7 216 8 213 122C240-48 200 0 122 0H30v-248zM63-27c89 8 146-16 146-99s-60-101-146-95v194" id="aJ"/><path d="M59-47c-2 24 18 29 38 22v24C64 9 27 4 27-40v-127H5v-23h24l9-43h21v43h35v23H59v120" id="aK"/><path d="M115-194c53 0 69 39 70 98 0 66-23 100-70 100C84 3 66-7 56-30L54 0H23l1-261h32v101c10-23 28-34 59-34zm-8 174c40 0 45-34 45-75 0-40-5-75-45-74-42 0-51 32-51 76 0 43 10 73 51 73" id="aL"/><path d="M135-143c-3-34-86-38-87 0 15 53 115 12 119 90S17 21 10-45l28-5c4 36 97 45 98 0-10-56-113-15-118-90-4-57 82-63 122-42 12 7 21 19 24 35" id="aM"/><path d="M100-194c63 0 86 42 84 106H49c0 40 14 67 53 68 26 1 43-12 49-29l28 8c-11 28-37 45-77 45C44 4 14-33 15-96c1-61 26-98 85-98zm52 81c6-60-76-77-97-28-3 7-6 17-6 28h103" id="aN"/><g id="j"><use transform="matrix(0.04320987654320988,0,0,0.04320987654320988,0,0)" xlink:href="#aJ"/><use transform="matrix(0.04320987654320988,0,0,0.04320987654320988,11.19135802469136,0)" xlink:href="#aG"/><use transform="matrix(0.04320987654320988,0,0,0.04320987654320988,19.833333333333336,0)" xlink:href="#aK"/><use transform="matrix(0.04320987654320988,0,0,0.04320987654320988,24.154320987654323,0)" xlink:href="#aG"/><use transform="matrix(0.04320987654320988,0,0,0.04320987654320988,32.7962962962963,0)" xlink:href="#aL"/><use transform="matrix(0.04320987654320988,0,0,0.04320987654320988,41.43827160493827,0)" xlink:href="#aG"/><use transform="matrix(0.04320987654320988,0,0,0.04320987654320988,50.08024691358024,0)" xlink:href="#aM"/><use transform="matrix(0.04320987654320988,0,0,0.04320987654320988,57.85802469135802,0)" xlink:href="#aN"/></g><g id="k"><use transform="matrix(0.04320987654320988,0,0,0.04320987654320988,0,0)" xlink:href="#aD"/><use transform="matrix(0.04320987654320988,0,0,0.04320987654320988,9.462962962962964,0)" xlink:href="#aE"/><use transform="matrix(0.04320987654320988,0,0,0.04320987654320988,12.876543209876544,0)" xlink:href="#aF"/><use transform="matrix(0.04320987654320988,0,0,0.04320987654320988,21.51851851851852,0)" xlink:href="#aG"/><use transform="matrix(0.04320987654320988,0,0,0.04320987654320988,30.160493827160494,0)" xlink:href="#aF"/><use transform="matrix(0.04320987654320988,0,0,0.04320987654320988,38.80246913580247,0)" xlink:href="#aH"/><use transform="matrix(0.04320987654320988,0,0,0.04320987654320988,46.58024691358024,0)" xlink:href="#aE"/><use transform="matrix(0.04320987654320988,0,0,0.04320987654320988,49.99382716049383,0)" xlink:href="#aG"/><use transform="matrix(0.04320987654320988,0,0,0.04320987654320988,58.63580246913581,0)" xlink:href="#aI"/></g><g id="l"><use transform="matrix(0.04320987654320988,0,0,0.04320987654320988,0,0)" xlink:href="#aJ"/><use transform="matrix(0.04320987654320988,0,0,0.04320987654320988,11.19135802469136,0)" xlink:href="#aG"/><use transform="matrix(0.04320987654320988,0,0,0.04320987654320988,19.833333333333336,0)" xlink:href="#aK"/><use transform="matrix(0.04320987654320988,0,0,0.04320987654320988,24.154320987654323,0)" xlink:href="#aG"/></g><path d="M240 0l2-218c-23 76-54 145-80 218h-23L58-218 59 0H30v-248h44l77 211c21-75 51-140 76-211h43V0h-30" id="aO"/><path d="M115-194c55 1 70 41 70 98S169 2 115 4C84 4 66-9 55-30l1 105H24l-1-265h31l2 30c10-21 28-34 59-34zm-8 174c40 0 45-34 45-75s-6-73-45-74c-42 0-51 32-51 76 0 43 10 73 51 73" id="aP"/><path d="M114-163C36-179 61-72 57 0H25l-1-190h30c1 12-1 29 2 39 6-27 23-49 58-41v29" id="aQ"/><g id="m"><use transform="matrix(0.04320987654320988,0,0,0.04320987654320988,0,0)" xlink:href="#aO"/><use transform="matrix(0.04320987654320988,0,0,0.04320987654320988,12.919753086419755,0)" xlink:href="#aG"/><use transform="matrix(0.04320987654320988,0,0,0.04320987654320988,21.56172839506173,0)" xlink:href="#aP"/><use transform="matrix(0.04320987654320988,0,0,0.04320987654320988,30.203703703703713,0)" xlink:href="#aP"/><use transform="matrix(0.04320987654320988,0,0,0.04320987654320988,38.845679012345684,0)" xlink:href="#aN"/><use transform="matrix(0.04320987654320988,0,0,0.04320987654320988,47.48765432098766,0)" xlink:href="#aQ"/></g><g id="n"><use transform="matrix(0.04320987654320988,0,0,0.04320987654320988,0,0)" xlink:href="#aJ"/><use transform="matrix(0.04320987654320988,0,0,0.04320987654320988,11.19135802469136,0)" xlink:href="#aG"/><use transform="matrix(0.04320987654320988,0,0,0.04320987654320988,19.833333333333336,0)" xlink:href="#aK"/><use transform="matrix(0.04320987654320988,0,0,0.04320987654320988,24.154320987654323,0)" xlink:href="#aG"/><use transform="matrix(0.04320987654320988,0,0,0.04320987654320988,32.7962962962963,0)" xlink:href="#aL"/><use transform="matrix(0.04320987654320988,0,0,0.04320987654320988,41.43827160493827,0)" xlink:href="#aG"/><use transform="matrix(0.04320987654320988,0,0,0.04320987654320988,50.08024691358024,0)" xlink:href="#aM"/><use transform="matrix(0.04320987654320988,0,0,0.04320987654320988,57.85802469135802,0)" xlink:href="#aN"/></g><path d="M30 0v-248h187v28H63v79h144v27H63v87h162V0H30" id="aR"/><g id="o"><use transform="matrix(0.04320987654320988,0,0,0.04320987654320988,0,0)" xlink:href="#aR"/><use transform="matrix(0.04320987654320988,0,0,0.04320987654320988,10.370370370370372,0)" xlink:href="#aF"/><use transform="matrix(0.04320987654320988,0,0,0.04320987654320988,19.01234567901235,0)" xlink:href="#aK"/><use transform="matrix(0.04320987654320988,0,0,0.04320987654320988,23.333333333333336,0)" xlink:href="#aE"/><use transform="matrix(0.04320987654320988,0,0,0.04320987654320988,26.746913580246915,0)" xlink:href="#aK"/><use transform="matrix(0.04320987654320988,0,0,0.04320987654320988,31.067901234567906,0)" xlink:href="#aE"/><use transform="matrix(0.04320987654320988,0,0,0.04320987654320988,34.48148148148149,0)" xlink:href="#aN"/><use transform="matrix(0.04320987654320988,0,0,0.04320987654320988,43.12345679012346,0)" xlink:href="#aM"/></g><path d="M233-177c-1 41-23 64-60 70L243 0h-38l-65-103H63V0H30v-248c88 3 205-21 203 71zM63-129c60-2 137 13 137-47 0-61-80-42-137-45v92" id="aS"/><path d="M100-194c62-1 85 37 85 99 1 63-27 99-86 99S16-35 15-95c0-66 28-99 85-99zM99-20c44 1 53-31 53-75 0-43-8-75-51-75s-53 32-53 75 10 74 51 75" id="aT"/><g id="p"><use transform="matrix(0.04320987654320988,0,0,0.04320987654320988,0,0)" xlink:href="#aS"/><use transform="matrix(0.04320987654320988,0,0,0.04320987654320988,11.19135802469136,0)" xlink:href="#aN"/><use transform="matrix(0.04320987654320988,0,0,0.04320987654320988,19.833333333333336,0)" xlink:href="#aP"/><use transform="matrix(0.04320987654320988,0,0,0.04320987654320988,28.47530864197531,0)" xlink:href="#aT"/><use transform="matrix(0.04320987654320988,0,0,0.04320987654320988,37.117283950617285,0)" xlink:href="#aQ"/><use transform="matrix(0.04320987654320988,0,0,0.04320987654320988,42.25925925925926,0)" xlink:href="#aK"/></g><path d="M143 4C61 4 22-44 18-125c-5-107 100-154 193-111 17 8 29 25 37 43l-32 9c-13-25-37-40-76-40-61 0-88 39-88 99 0 61 29 100 91 101 35 0 62-11 79-27v-45h-74v-28h105v86C228-13 192 4 143 4" id="aU"/><g id="q"><use transform="matrix(0.04320987654320988,0,0,0.04320987654320988,0,0)" xlink:href="#aU"/><use transform="matrix(0.04320987654320988,0,0,0.04320987654320988,12.098765432098766,0)" xlink:href="#aN"/><use transform="matrix(0.04320987654320988,0,0,0.04320987654320988,20.74074074074074,0)" xlink:href="#aF"/><use transform="matrix(0.04320987654320988,0,0,0.04320987654320988,29.382716049382715,0)" xlink:href="#aN"/><use transform="matrix(0.04320987654320988,0,0,0.04320987654320988,38.02469135802469,0)" xlink:href="#aQ"/><use transform="matrix(0.04320987654320988,0,0,0.04320987654320988,43.166666666666664,0)" xlink:href="#aG"/><use transform="matrix(0.04320987654320988,0,0,0.04320987654320988,51.80864197530864,0)" xlink:href="#aK"/><use transform="matrix(0.04320987654320988,0,0,0.04320987654320988,56.129629629629626,0)" xlink:href="#aT"/><use transform="matrix(0.04320987654320988,0,0,0.04320987654320988,64.77160493827161,0)" xlink:href="#aQ"/></g><path d="M33 0v-248h34V0H33" id="aV"/><g id="r"><use transform="matrix(0.04320987654320988,0,0,0.04320987654320988,0,0)" xlink:href="#aV"/><use transform="matrix(0.04320987654320988,0,0,0.04320987654320988,4.320987654320988,0)" xlink:href="#aF"/><use transform="matrix(0.04320987654320988,0,0,0.04320987654320988,12.962962962962964,0)" xlink:href="#aK"/><use transform="matrix(0.04320987654320988,0,0,0.04320987654320988,17.283950617283953,0)" xlink:href="#aN"/><use transform="matrix(0.04320987654320988,0,0,0.04320987654320988,25.925925925925927,0)" xlink:href="#aQ"/><use transform="matrix(0.04320987654320988,0,0,0.04320987654320988,31.067901234567906,0)" xlink:href="#aG"/><use transform="matrix(0.04320987654320988,0,0,0.04320987654320988,39.70987654320988,0)" xlink:href="#aH"/><use transform="matrix(0.04320987654320988,0,0,0.04320987654320988,47.48765432098766,0)" xlink:href="#aK"/><use transform="matrix(0.04320987654320988,0,0,0.04320987654320988,51.808641975308646,0)" xlink:href="#aT"/><use transform="matrix(0.04320987654320988,0,0,0.04320987654320988,60.45061728395062,0)" xlink:href="#aQ"/></g><path d="M18-100v-36l175-74v27L42-118l151 64v27" id="aW"/><path d="M101-234c-31-9-42 10-38 44h38v23H63V0H32v-167H5v-23h27c-7-52 17-82 69-68v24" id="aX"/><path d="M18-27v-27l151-64-151-65v-27l175 74v36" id="aY"/><g id="s"><use transform="matrix(0.04543420314253645,0,0,0.04543420314253645,0,0)" xlink:href="#aW"/><use transform="matrix(0.04543420314253645,0,0,0.04543420314253645,9.541182659932653,0)" xlink:href="#aW"/><use transform="matrix(0.04543420314253645,0,0,0.04543420314253645,19.082365319865307,0)" xlink:href="#aE"/><use transform="matrix(0.04543420314253645,0,0,0.04543420314253645,22.671667368125686,0)" xlink:href="#aF"/><use transform="matrix(0.04543420314253645,0,0,0.04543420314253645,31.758507996632975,0)" xlink:href="#aK"/><use transform="matrix(0.04543420314253645,0,0,0.04543420314253645,36.30192831088662,0)" xlink:href="#aN"/><use transform="matrix(0.04543420314253645,0,0,0.04543420314253645,45.38876893939391,0)" xlink:href="#aQ"/><use transform="matrix(0.04543420314253645,0,0,0.04543420314253645,50.79543911335575,0)" xlink:href="#aX"/><use transform="matrix(0.04543420314253645,0,0,0.04543420314253645,55.33885942760939,0)" xlink:href="#aG"/><use transform="matrix(0.04543420314253645,0,0,0.04543420314253645,64.42570005611668,0)" xlink:href="#aH"/><use transform="matrix(0.04543420314253645,0,0,0.04543420314253645,72.60385662177325,0)" xlink:href="#aN"/><use transform="matrix(0.04543420314253645,0,0,0.04543420314253645,81.69069725028054,0)" xlink:href="#aY"/><use transform="matrix(0.04543420314253645,0,0,0.04543420314253645,91.2318799102132,0)" xlink:href="#aY"/></g><g id="t"><use transform="matrix(0.04543420314253645,0,0,0.04543420314253645,0,0)" xlink:href="#aD"/><use transform="matrix(0.04543420314253645,0,0,0.04543420314253645,9.950090488215482,0)" xlink:href="#aE"/><use transform="matrix(0.04543420314253645,0,0,0.04543420314253645,13.53939253647586,0)" xlink:href="#aF"/><use transform="matrix(0.04543420314253645,0,0,0.04543420314253645,22.626233164983148,0)" xlink:href="#aG"/><use transform="matrix(0.04543420314253645,0,0,0.04543420314253645,31.713073793490434,0)" xlink:href="#aF"/><use transform="matrix(0.04543420314253645,0,0,0.04543420314253645,40.79991442199773,0)" xlink:href="#aH"/><use transform="matrix(0.04543420314253645,0,0,0.04543420314253645,48.97807098765429,0)" xlink:href="#aE"/><use transform="matrix(0.04543420314253645,0,0,0.04543420314253645,52.56737303591467,0)" xlink:href="#aG"/><use transform="matrix(0.04543420314253645,0,0,0.04543420314253645,61.65421366442196,0)" xlink:href="#aI"/></g><g id="u"><use transform="matrix(0.04543420314253645,0,0,0.04543420314253645,0,0)" xlink:href="#aJ"/><use transform="matrix(0.04543420314253645,0,0,0.04543420314253645,11.76745861391694,0)" xlink:href="#aG"/><use transform="matrix(0.04543420314253645,0,0,0.04543420314253645,20.85429924242423,0)" xlink:href="#aK"/><use transform="matrix(0.04543420314253645,0,0,0.04543420314253645,25.397719556677874,0)" xlink:href="#aG"/></g><path d="M206 0h-36l-40-164L89 0H53L-1-190h32L70-26l43-164h34l41 164 42-164h31" id="aZ"/><path d="M179-190L93 31C79 59 56 82 12 73V49c39 6 53-20 64-50L1-190h34L92-34l54-156h33" id="ba"/><g id="v"><use transform="matrix(0.04543420314253645,0,0,0.04543420314253645,0,0)" xlink:href="#aU"/><use transform="matrix(0.04543420314253645,0,0,0.04543420314253645,12.721576879910206,0)" xlink:href="#aG"/><use transform="matrix(0.04543420314253645,0,0,0.04543420314253645,21.808417508417495,0)" xlink:href="#aK"/><use transform="matrix(0.04543420314253645,0,0,0.04543420314253645,26.35183782267114,0)" xlink:href="#aN"/><use transform="matrix(0.04543420314253645,0,0,0.04543420314253645,35.43867845117843,0)" xlink:href="#aZ"/><use transform="matrix(0.04543420314253645,0,0,0.04543420314253645,47.206137065095376,0)" xlink:href="#aG"/><use transform="matrix(0.04543420314253645,0,0,0.04543420314253645,56.292977693602666,0)" xlink:href="#ba"/></g><path d="M85-194c31 0 48 13 60 33l-1-100h32l1 261h-30c-2-10 0-23-3-31C134-8 116 4 85 4 32 4 16-35 15-94c0-66 23-100 70-100zm9 24c-40 0-46 34-46 75 0 40 6 74 45 74 42 0 51-32 51-76 0-42-9-74-50-73" id="bb"/><g id="w"><use transform="matrix(0.04543420314253645,0,0,0.04543420314253645,0,0)" xlink:href="#aW"/><use transform="matrix(0.04543420314253645,0,0,0.04543420314253645,9.541182659932653,0)" xlink:href="#aW"/><use transform="matrix(0.04543420314253645,0,0,0.04543420314253645,19.082365319865307,0)" xlink:href="#bb"/><use transform="matrix(0.04543420314253645,0,0,0.04543420314253645,28.169205948372596,0)" xlink:href="#aG"/><use transform="matrix(0.04543420314253645,0,0,0.04543420314253645,37.25604657687988,0)" xlink:href="#aK"/><use transform="matrix(0.04543420314253645,0,0,0.04543420314253645,41.79946689113353,0)" xlink:href="#aG"/></g><path d="M84 4C-5 8 30-112 23-190h32v120c0 31 7 50 39 49 72-2 45-101 50-169h31l1 190h-30c-1-10 1-25-2-33-11 22-28 36-60 37" id="bc"/><g id="x"><use transform="matrix(0.04543420314253645,0,0,0.04543420314253645,0,0)" xlink:href="#aM"/><use transform="matrix(0.04543420314253645,0,0,0.04543420314253645,8.178156565656561,0)" xlink:href="#aK"/><use transform="matrix(0.04543420314253645,0,0,0.04543420314253645,12.721576879910206,0)" xlink:href="#aQ"/><use transform="matrix(0.04543420314253645,0,0,0.04543420314253645,18.128247053872045,0)" xlink:href="#bc"/><use transform="matrix(0.04543420314253645,0,0,0.04543420314253645,27.21508768237933,0)" xlink:href="#aH"/><use transform="matrix(0.04543420314253645,0,0,0.04543420314253645,35.3932442480359,0)" xlink:href="#aK"/><use transform="matrix(0.04543420314253645,0,0,0.04543420314253645,39.93666456228954,0)" xlink:href="#bc"/><use transform="matrix(0.04543420314253645,0,0,0.04543420314253645,49.02350519079684,0)" xlink:href="#aQ"/><use transform="matrix(0.04543420314253645,0,0,0.04543420314253645,54.43017536475866,0)" xlink:href="#aN"/><use transform="matrix(0.04543420314253645,0,0,0.04543420314253645,63.51701599326595,0)" xlink:href="#aY"/><use transform="matrix(0.04543420314253645,0,0,0.04543420314253645,73.05819865319862,0)" xlink:href="#aY"/></g><g id="y"><use transform="matrix(0.04543420314253645,0,0,0.04543420314253645,0,0)" xlink:href="#aS"/><use transform="matrix(0.04543420314253645,0,0,0.04543420314253645,11.76745861391694,0)" xlink:href="#aN"/><use transform="matrix(0.04543420314253645,0,0,0.04543420314253645,20.85429924242423,0)" xlink:href="#aP"/><use transform="matrix(0.04543420314253645,0,0,0.04543420314253645,29.94113987093152,0)" xlink:href="#aT"/><use transform="matrix(0.04543420314253645,0,0,0.04543420314253645,39.02798049943881,0)" xlink:href="#aQ"/><use transform="matrix(0.04543420314253645,0,0,0.04543420314253645,44.43465067340065,0)" xlink:href="#aK"/></g><g id="z"><use transform="matrix(0.04543420314253645,0,0,0.04543420314253645,0,0)" xlink:href="#aS"/><use transform="matrix(0.04543420314253645,0,0,0.04543420314253645,11.76745861391694,0)" xlink:href="#aN"/><use transform="matrix(0.04543420314253645,0,0,0.04543420314253645,20.85429924242423,0)" xlink:href="#aM"/><use transform="matrix(0.04543420314253645,0,0,0.04543420314253645,29.03245580808079,0)" xlink:href="#aP"/><use transform="matrix(0.04543420314253645,0,0,0.04543420314253645,38.11929643658808,0)" xlink:href="#aT"/><use transform="matrix(0.04543420314253645,0,0,0.04543420314253645,47.20613706509537,0)" xlink:href="#aF"/><use transform="matrix(0.04543420314253645,0,0,0.04543420314253645,56.29297769360266,0)" xlink:href="#aM"/><use transform="matrix(0.04543420314253645,0,0,0.04543420314253645,64.47113425925922,0)" xlink:href="#aN"/></g><path d="M145-31C134-9 116 4 85 4 32 4 16-35 15-94c0-59 17-99 70-100 32-1 48 14 60 33 0-11-1-24 2-32h30l-1 268h-32zM93-21c41 0 51-33 51-76s-8-73-50-73c-40 0-46 35-46 75s5 74 45 74" id="bd"/><g id="A"><use transform="matrix(0.04543420314253645,0,0,0.04543420314253645,0,0)" xlink:href="#aS"/><use transform="matrix(0.04543420314253645,0,0,0.04543420314253645,11.76745861391694,0)" xlink:href="#aN"/><use transform="matrix(0.04543420314253645,0,0,0.04543420314253645,20.85429924242423,0)" xlink:href="#bd"/><use transform="matrix(0.04543420314253645,0,0,0.04543420314253645,29.94113987093152,0)" xlink:href="#bc"/><use transform="matrix(0.04543420314253645,0,0,0.04543420314253645,39.02798049943881,0)" xlink:href="#aN"/><use transform="matrix(0.04543420314253645,0,0,0.04543420314253645,48.1148211279461,0)" xlink:href="#aM"/><use transform="matrix(0.04543420314253645,0,0,0.04543420314253645,56.292977693602666,0)" xlink:href="#aK"/><use transform="matrix(0.04543420314253645,0,0,0.04543420314253645,60.83639800785631,0)" xlink:href="#aN"/><use transform="matrix(0.04543420314253645,0,0,0.04543420314253645,69.9232386363636,0)" xlink:href="#aQ"/></g><g id="B"><use transform="matrix(0.04543420314253645,0,0,0.04543420314253645,0,0)" xlink:href="#aS"/><use transform="matrix(0.04543420314253645,0,0,0.04543420314253645,11.76745861391694,0)" xlink:href="#aN"/><use transform="matrix(0.04543420314253645,0,0,0.04543420314253645,20.85429924242423,0)" xlink:href="#bd"/><use transform="matrix(0.04543420314253645,0,0,0.04543420314253645,29.94113987093152,0)" xlink:href="#bc"/><use transform="matrix(0.04543420314253645,0,0,0.04543420314253645,39.02798049943881,0)" xlink:href="#aN"/><use transform="matrix(0.04543420314253645,0,0,0.04543420314253645,48.1148211279461,0)" xlink:href="#aM"/><use transform="matrix(0.04543420314253645,0,0,0.04543420314253645,56.292977693602666,0)" xlink:href="#aK"/></g><path d="M212-179c-10-28-35-45-73-45-59 0-87 40-87 99 0 60 29 101 89 101 43 0 62-24 78-52l27 14C228-24 195 4 139 4 59 4 22-46 18-125c-6-104 99-153 187-111 19 9 31 26 39 46" id="be"/><g id="C"><use transform="matrix(0.04320987654320988,0,0,0.04320987654320988,0,0)" xlink:href="#be"/><use transform="matrix(0.04320987654320988,0,0,0.04320987654320988,11.19135802469136,0)" xlink:href="#aT"/><use transform="matrix(0.04320987654320988,0,0,0.04320987654320988,19.833333333333336,0)" xlink:href="#aF"/><use transform="matrix(0.04320987654320988,0,0,0.04320987654320988,28.47530864197531,0)" xlink:href="#aK"/><use transform="matrix(0.04320987654320988,0,0,0.04320987654320988,32.7962962962963,0)" xlink:href="#aQ"/><use transform="matrix(0.04320987654320988,0,0,0.04320987654320988,37.93827160493827,0)" xlink:href="#aT"/><use transform="matrix(0.04320987654320988,0,0,0.04320987654320988,46.58024691358024,0)" xlink:href="#aI"/><use transform="matrix(0.04320987654320988,0,0,0.04320987654320988,49.99382716049383,0)" xlink:href="#aI"/><use transform="matrix(0.04320987654320988,0,0,0.04320987654320988,53.40740740740741,0)" xlink:href="#aN"/><use transform="matrix(0.04320987654320988,0,0,0.04320987654320988,62.04938271604939,0)" xlink:href="#aQ"/></g><g id="D"><use transform="matrix(0.04320987654320988,0,0,0.04320987654320988,0,0)" xlink:href="#be"/><use transform="matrix(0.04320987654320988,0,0,0.04320987654320988,11.19135802469136,0)" xlink:href="#aT"/><use transform="matrix(0.04320987654320988,0,0,0.04320987654320988,19.833333333333336,0)" xlink:href="#aF"/><use transform="matrix(0.04320987654320988,0,0,0.04320987654320988,28.47530864197531,0)" xlink:href="#aK"/><use transform="matrix(0.04320987654320988,0,0,0.04320987654320988,32.7962962962963,0)" xlink:href="#aQ"/><use transform="matrix(0.04320987654320988,0,0,0.04320987654320988,37.93827160493827,0)" xlink:href="#aT"/><use transform="matrix(0.04320987654320988,0,0,0.04320987654320988,46.58024691358024,0)" xlink:href="#aI"/><use transform="matrix(0.04320987654320988,0,0,0.04320987654320988,49.99382716049383,0)" xlink:href="#aI"/><use transform="matrix(0.04320987654320988,0,0,0.04320987654320988,53.40740740740741,0)" xlink:href="#aN"/><use transform="matrix(0.04320987654320988,0,0,0.04320987654320988,62.04938271604939,0)" xlink:href="#aQ"/></g><path d="M30-248c87 1 191-15 191 75 0 78-77 80-158 76V0H30v-248zm33 125c57 0 124 11 124-50 0-59-68-47-124-48v98" id="bf"/><g id="E"><use transform="matrix(0.04543420314253645,0,0,0.04543420314253645,0,0)" xlink:href="#bf"/><use transform="matrix(0.04543420314253645,0,0,0.04543420314253645,10.904208754208748,0)" xlink:href="#aQ"/><use transform="matrix(0.04543420314253645,0,0,0.04543420314253645,16.310878928170585,0)" xlink:href="#aN"/><use transform="matrix(0.04543420314253645,0,0,0.04543420314253645,25.397719556677874,0)" xlink:href="#aM"/><use transform="matrix(0.04543420314253645,0,0,0.04543420314253645,33.575876122334435,0)" xlink:href="#aN"/><use transform="matrix(0.04543420314253645,0,0,0.04543420314253645,42.662716750841724,0)" xlink:href="#aF"/><use transform="matrix(0.04543420314253645,0,0,0.04543420314253645,51.749557379349014,0)" xlink:href="#aK"/><use transform="matrix(0.04543420314253645,0,0,0.04543420314253645,56.29297769360266,0)" xlink:href="#aN"/><use transform="matrix(0.04543420314253645,0,0,0.04543420314253645,65.37981832210994,0)" xlink:href="#aQ"/></g><path fill="#760000" d="M87 75C49 33 22-17 22-94c0-76 28-126 65-167h31c-38 41-64 92-64 168S80 34 118 75H87" id="bg"/><path fill="#760000" d="M30-248c118-7 216 8 213 122C240-48 200 0 122 0H30v-248zM63-27c89 8 146-16 146-99s-60-101-146-95v194" id="bh"/><path fill="#760000" d="M24-231v-30h32v30H24zM24 0v-190h32V0H24" id="bi"/><path fill="#760000" d="M114-163C36-179 61-72 57 0H25l-1-190h30c1 12-1 29 2 39 6-27 23-49 58-41v29" id="bj"/><path fill="#760000" d="M100-194c63 0 86 42 84 106H49c0 40 14 67 53 68 26 1 43-12 49-29l28 8c-11 28-37 45-77 45C44 4 14-33 15-96c1-61 26-98 85-98zm52 81c6-60-76-77-97-28-3 7-6 17-6 28h103" id="bk"/><path fill="#760000" d="M96-169c-40 0-48 33-48 73s9 75 48 75c24 0 41-14 43-38l32 2c-6 37-31 61-74 61-59 0-76-41-82-99-10-93 101-131 147-64 4 7 5 14 7 22l-32 3c-4-21-16-35-41-35" id="bl"/><path fill="#760000" d="M59-47c-2 24 18 29 38 22v24C64 9 27 4 27-40v-127H5v-23h24l9-43h21v43h35v23H59v120" id="bm"/><path fill="#760000" d="M100-194c62-1 85 37 85 99 1 63-27 99-86 99S16-35 15-95c0-66 28-99 85-99zM99-20c44 1 53-31 53-75 0-43-8-75-51-75s-53 32-53 75 10 74 51 75" id="bn"/><path fill="#760000" d="M117-194c89-4 53 116 60 194h-32v-121c0-31-8-49-39-48C34-167 62-67 57 0H25l-1-190h30c1 10-1 24 2 32 11-22 29-35 61-36" id="bo"/><path fill="#760000" d="M141-36C126-15 110 5 73 4 37 3 15-17 15-53c-1-64 63-63 125-63 3-35-9-54-41-54-24 1-41 7-42 31l-33-3c5-37 33-52 76-52 45 0 72 20 72 64v82c-1 20 7 32 28 27v20c-31 9-61-2-59-35zM48-53c0 20 12 33 32 33 41-3 63-29 60-74-43 2-92-5-92 41" id="bp"/><path fill="#760000" d="M24 0v-261h32V0H24" id="bq"/><g id="F"><use transform="matrix(0.04320987654320988,0,0,0.04320987654320988,0,0)" xlink:href="#bg"/><use transform="matrix(0.04320987654320988,0,0,0.04320987654320988,5.1419753086419755,0)" xlink:href="#bh"/><use transform="matrix(0.04320987654320988,0,0,0.04320987654320988,16.333333333333336,0)" xlink:href="#bi"/><use transform="matrix(0.04320987654320988,0,0,0.04320987654320988,19.74691358024692,0)" xlink:href="#bj"/><use transform="matrix(0.04320987654320988,0,0,0.04320987654320988,24.888888888888893,0)" xlink:href="#bk"/><use transform="matrix(0.04320987654320988,0,0,0.04320987654320988,33.53086419753087,0)" xlink:href="#bl"/><use transform="matrix(0.04320987654320988,0,0,0.04320987654320988,41.308641975308646,0)" xlink:href="#bm"/><use transform="matrix(0.04320987654320988,0,0,0.04320987654320988,45.62962962962963,0)" xlink:href="#bi"/><use transform="matrix(0.04320987654320988,0,0,0.04320987654320988,49.043209876543216,0)" xlink:href="#bn"/><use transform="matrix(0.04320987654320988,0,0,0.04320987654320988,57.68518518518519,0)" xlink:href="#bo"/><use transform="matrix(0.04320987654320988,0,0,0.04320987654320988,66.32716049382717,0)" xlink:href="#bp"/><use transform="matrix(0.04320987654320988,0,0,0.04320987654320988,74.96913580246914,0)" xlink:href="#bq"/></g><path fill="#760000" d="M212-179c-10-28-35-45-73-45-59 0-87 40-87 99 0 60 29 101 89 101 43 0 62-24 78-52l27 14C228-24 195 4 139 4 59 4 22-46 18-125c-6-104 99-153 187-111 19 9 31 26 39 46" id="br"/><path fill="#760000" d="M33-261c38 41 65 92 65 168S71 34 33 75H2C39 34 66-17 66-93S39-220 2-261h31" id="bs"/><g id="G"><use transform="matrix(0.04320987654320988,0,0,0.04320987654320988,0,0)" xlink:href="#br"/><use transform="matrix(0.04320987654320988,0,0,0.04320987654320988,11.19135802469136,0)" xlink:href="#bn"/><use transform="matrix(0.04320987654320988,0,0,0.04320987654320988,19.833333333333336,0)" xlink:href="#bo"/><use transform="matrix(0.04320987654320988,0,0,0.04320987654320988,28.47530864197531,0)" xlink:href="#bm"/><use transform="matrix(0.04320987654320988,0,0,0.04320987654320988,32.7962962962963,0)" xlink:href="#bj"/><use transform="matrix(0.04320987654320988,0,0,0.04320987654320988,37.93827160493827,0)" xlink:href="#bn"/><use transform="matrix(0.04320987654320988,0,0,0.04320987654320988,46.58024691358024,0)" xlink:href="#bq"/><use transform="matrix(0.04320987654320988,0,0,0.04320987654320988,49.99382716049383,0)" xlink:href="#bs"/></g><path fill="#fff" d="M140-251c80 0 125 45 125 126S219 4 139 4C58 4 15-44 15-125s44-126 125-126zm-1 214c52 0 73-35 73-88 0-50-21-86-72-86-52 0-73 35-73 86s22 88 72 88" id="bt"/><path fill="#fff" d="M114-157C55-157 80-60 75 0H25v-261h50l-1 109c12-26 28-41 61-42 86-1 58 113 63 194h-50c-7-57 23-157-34-157" id="bu"/><path fill="#fff" d="M25-224v-37h50v37H25zM25 0v-190h50V0H25" id="bv"/><g id="H"><use transform="matrix(0.04320987654320988,0,0,0.04320987654320988,0,0)" xlink:href="#bt"/><use transform="matrix(0.04320987654320988,0,0,0.04320987654320988,12.098765432098766,0)" xlink:href="#ap"/><use transform="matrix(0.04320987654320988,0,0,0.04320987654320988,17.24074074074074,0)" xlink:href="#bu"/><use transform="matrix(0.04320987654320988,0,0,0.04320987654320988,26.703703703703702,0)" xlink:href="#an"/><use transform="matrix(0.04320987654320988,0,0,0.04320987654320988,35.34567901234568,0)" xlink:href="#ao"/><use transform="matrix(0.04320987654320988,0,0,0.04320987654320988,41.39506172839506,0)" xlink:href="#aw"/><use transform="matrix(0.04320987654320988,0,0,0.04320987654320988,53.49382716049383,0)" xlink:href="#bv"/><use transform="matrix(0.04320987654320988,0,0,0.04320987654320988,57.814814814814824,0)" xlink:href="#aq"/><use transform="matrix(0.04320987654320988,0,0,0.04320987654320988,66.4567901234568,0)" xlink:href="#an"/></g><path fill="#fff" d="M6 0l48-248h52L58 0H6" id="bw"/><path fill="#fff" d="M151-194c95 0 34 128 28 194h-49l25-134c0-29-45-25-59-9C67-111 69-48 56 0H6l36-190h47l-4 32c15-20 33-36 66-36" id="bx"/><path fill="#fff" d="M72-63c-8 23 5 39 32 30L98-1C54 14 12-6 23-64l18-93H15l7-33h28l24-45h31l-8 45h35l-6 33H90" id="by"/><path fill="#fff" d="M114-194c63-2 87 48 72 110H63c-3 28 1 55 31 54 21-1 32-13 37-29l44 13C160-14 137 4 91 4 41 4 11-22 11-73c0-71 33-119 103-121zm30 77c14-47-50-61-67-22-3 6-6 13-8 22h75" id="bz"/><path fill="#fff" d="M84-151c13-25 34-51 72-40l-8 41C67-170 71-64 56 0H6l36-190h47" id="bA"/><path fill="#fff" d="M166-52c-4 17 5 29 24 23l-3 27c-30 11-74 1-67-34C105-15 91 4 56 4 23 4 3-15 2-49c0-64 63-67 128-67 10-22 3-53-29-45-13 3-22 10-25 24l-46-5c5-64 156-77 153 0-1 33-11 60-17 90zM97-88c-44-9-64 57-19 57 31 0 42-28 47-57H97" id="bB"/><path fill="#fff" d="M67-101c-8 29-7 73 27 71 23-2 32-16 39-37l48 9C170-19 141 4 91 4 36 4 7-28 12-86c6-75 61-124 140-103 26 7 40 29 43 59l-50 4c-1-20-9-34-29-34-35 0-41 29-49 59" id="bC"/><path fill="#fff" d="M124-194c51 0 84 22 84 74C207-44 167 4 94 4 43 4 11-23 11-74c0-74 41-120 113-120zM99-30c46 0 58-42 58-86 0-27-11-44-37-44-44 0-55 40-57 84-1 27 10 45 36 46" id="bD"/><g id="I"><use transform="matrix(0.04320987654320988,0,0,0.04320987654320988,0,0)" xlink:href="#bw"/><use transform="matrix(0.04320987654320988,0,0,0.04320987654320988,4.320987654320988,0)" xlink:href="#bx"/><use transform="matrix(0.04320987654320988,0,0,0.04320987654320988,13.783950617283953,0)" xlink:href="#by"/><use transform="matrix(0.04320987654320988,0,0,0.04320987654320988,18.925925925925927,0)" xlink:href="#bz"/><use transform="matrix(0.04320987654320988,0,0,0.04320987654320988,27.567901234567906,0)" xlink:href="#bA"/><use transform="matrix(0.04320987654320988,0,0,0.04320987654320988,33.61728395061729,0)" xlink:href="#bB"/><use transform="matrix(0.04320987654320988,0,0,0.04320987654320988,42.25925925925927,0)" xlink:href="#bC"/><use transform="matrix(0.04320987654320988,0,0,0.04320987654320988,50.90123456790124,0)" xlink:href="#by"/><use transform="matrix(0.04320987654320988,0,0,0.04320987654320988,56.043209876543216,0)" xlink:href="#bD"/><use transform="matrix(0.04320987654320988,0,0,0.04320987654320988,65.50617283950618,0)" xlink:href="#bA"/></g><path fill="#fff" d="M220-157c-53 9-28 100-34 157h-49v-107c1-27-5-49-29-50C55-147 81-57 75 0H25l-1-190h47c2 12-1 28 3 38 10-53 101-56 108 0 13-22 24-43 59-42 82 1 51 116 57 194h-49v-107c-1-25-5-48-29-50" id="bE"/><g id="J"><use transform="matrix(0.04320987654320988,0,0,0.04320987654320988,0,0)" xlink:href="#at"/><use transform="matrix(0.04320987654320988,0,0,0.04320987654320988,8.641975308641976,0)" xlink:href="#aB"/><use transform="matrix(0.04320987654320988,0,0,0.04320987654320988,18.10493827160494,0)" xlink:href="#bE"/><use transform="matrix(0.04320987654320988,0,0,0.04320987654320988,31.9320987654321,0)" xlink:href="#as"/><use transform="matrix(0.04320987654320988,0,0,0.04320987654320988,41.39506172839506,0)" xlink:href="#aB"/><use transform="matrix(0.04320987654320988,0,0,0.04320987654320988,50.85802469135803,0)" xlink:href="#al"/><use transform="matrix(0.04320987654320988,0,0,0.04320987654320988,60.32098765432099,0)" xlink:href="#an"/><use transform="matrix(0.04320987654320988,0,0,0.04320987654320988,68.96296296296296,0)" xlink:href="#al"/><use transform="matrix(0.04320987654320988,0,0,0.04320987654320988,78.42592592592592,0)" xlink:href="#ap"/></g><path fill="#fff" d="M85 4C-2 5 27-109 22-190h50c7 57-23 150 33 157 60-5 35-97 40-157h50l1 190h-47c-2-12 1-28-3-38-12 25-28 42-61 42" id="bF"/><path fill="#fff" d="M25 0v-261h50V0H25" id="bG"/><g id="K"><use transform="matrix(0.04320987654320988,0,0,0.04320987654320988,0,0)" xlink:href="#aw"/><use transform="matrix(0.04320987654320988,0,0,0.04320987654320988,12.098765432098766,0)" xlink:href="#aB"/><use transform="matrix(0.04320987654320988,0,0,0.04320987654320988,21.561728395061728,0)" xlink:href="#bF"/><use transform="matrix(0.04320987654320988,0,0,0.04320987654320988,31.02469135802469,0)" xlink:href="#bG"/><use transform="matrix(0.04320987654320988,0,0,0.04320987654320988,35.34567901234568,0)" xlink:href="#ar"/></g><g id="L"><use transform="matrix(0.04320987654320988,0,0,0.04320987654320988,0,0)" xlink:href="#as"/><use transform="matrix(0.04320987654320988,0,0,0.04320987654320988,9.462962962962964,0)" xlink:href="#aB"/><use transform="matrix(0.04320987654320988,0,0,0.04320987654320988,18.925925925925927,0)" xlink:href="#bv"/><use transform="matrix(0.04320987654320988,0,0,0.04320987654320988,23.246913580246915,0)" xlink:href="#al"/><use transform="matrix(0.04320987654320988,0,0,0.04320987654320988,32.70987654320988,0)" xlink:href="#ap"/></g><g id="M"><use transform="matrix(0.04320987654320988,0,0,0.04320987654320988,0,0)" xlink:href="#ap"/><use transform="matrix(0.04320987654320988,0,0,0.04320987654320988,5.1419753086419755,0)" xlink:href="#aB"/></g><path fill="#fff" d="M250-142C247-53 197 0 108 0H6l48-248c105-5 200 3 196 106zm-49 2c1-57-42-72-103-68L66-40c84 6 135-22 135-100" id="bH"/><path fill="#fff" d="M87-160c15-17 32-34 63-34 99 1 59 172-1 192-36 12-78 0-87-29L54 0H6l52-261h49zm71 38c0-24-5-37-29-37-46 0-55 46-57 89-1 25 12 40 35 40 44 0 51-50 51-92" id="bI"/><path fill="#fff" d="M144-137c-1-29-70-35-71-2 16 41 103 10 103 80C176 9 79 16 32-9 18-17 9-31 4-48l44-6c3 32 80 36 82 1-15-42-103-11-103-82 0-77 157-79 161-8" id="bJ"/><g id="N"><use transform="matrix(0.04320987654320988,0,0,0.04320987654320988,0,0)" xlink:href="#bH"/><use transform="matrix(0.04320987654320988,0,0,0.04320987654320988,11.19135802469136,0)" xlink:href="#bB"/><use transform="matrix(0.04320987654320988,0,0,0.04320987654320988,19.833333333333336,0)" xlink:href="#by"/><use transform="matrix(0.04320987654320988,0,0,0.04320987654320988,24.97530864197531,0)" xlink:href="#bB"/><use transform="matrix(0.04320987654320988,0,0,0.04320987654320988,33.617283950617285,0)" xlink:href="#bI"/><use transform="matrix(0.04320987654320988,0,0,0.04320987654320988,43.08024691358025,0)" xlink:href="#bB"/><use transform="matrix(0.04320987654320988,0,0,0.04320987654320988,51.722222222222214,0)" xlink:href="#bJ"/><use transform="matrix(0.04320987654320988,0,0,0.04320987654320988,60.364197530864196,0)" xlink:href="#bz"/></g><g id="O"><use transform="matrix(0.04320987654320988,0,0,0.04320987654320988,0,0)" xlink:href="#at"/><use transform="matrix(0.04320987654320988,0,0,0.04320987654320988,8.641975308641976,0)" xlink:href="#aB"/><use transform="matrix(0.04320987654320988,0,0,0.04320987654320988,18.10493827160494,0)" xlink:href="#bE"/><use transform="matrix(0.04320987654320988,0,0,0.04320987654320988,31.9320987654321,0)" xlink:href="#as"/><use transform="matrix(0.04320987654320988,0,0,0.04320987654320988,41.39506172839506,0)" xlink:href="#aB"/><use transform="matrix(0.04320987654320988,0,0,0.04320987654320988,50.85802469135803,0)" xlink:href="#al"/><use transform="matrix(0.04320987654320988,0,0,0.04320987654320988,60.32098765432099,0)" xlink:href="#an"/><use transform="matrix(0.04320987654320988,0,0,0.04320987654320988,68.96296296296296,0)" xlink:href="#al"/><use transform="matrix(0.04320987654320988,0,0,0.04320987654320988,78.42592592592592,0)" xlink:href="#ap"/></g><path fill="#fff" d="M161-211c-63 0-91 46-91 110 0 39 17 65 58 64 38-1 60-20 74-45l40 20C220-23 184 0 125 4 9 13-10-144 57-208c33-50 166-62 196-1 4 8 9 18 11 27l-48 12c-6-24-25-41-55-41" id="bK"/><path fill="#fff" d="M6 0l51-261h49L55 0H6" id="bL"/><g id="P"><use transform="matrix(0.04320987654320988,0,0,0.04320987654320988,0,0)" xlink:href="#bK"/><use transform="matrix(0.04320987654320988,0,0,0.04320987654320988,11.19135802469136,0)" xlink:href="#bD"/><use transform="matrix(0.04320987654320988,0,0,0.04320987654320988,20.654320987654323,0)" xlink:href="#bx"/><use transform="matrix(0.04320987654320988,0,0,0.04320987654320988,30.11728395061729,0)" xlink:href="#by"/><use transform="matrix(0.04320987654320988,0,0,0.04320987654320988,35.25925925925926,0)" xlink:href="#bA"/><use transform="matrix(0.04320987654320988,0,0,0.04320987654320988,41.308641975308646,0)" xlink:href="#bD"/><use transform="matrix(0.04320987654320988,0,0,0.04320987654320988,50.77160493827161,0)" xlink:href="#bL"/><use transform="matrix(0.04320987654320988,0,0,0.04320987654320988,55.092592592592595,0)" xlink:href="#bL"/><use transform="matrix(0.04320987654320988,0,0,0.04320987654320988,59.41358024691359,0)" xlink:href="#bz"/><use transform="matrix(0.04320987654320988,0,0,0.04320987654320988,68.05555555555556,0)" xlink:href="#bA"/></g><g id="Q"><use transform="matrix(0.04320987654320988,0,0,0.04320987654320988,0,0)" xlink:href="#aw"/><use transform="matrix(0.04320987654320988,0,0,0.04320987654320988,12.098765432098766,0)" xlink:href="#aB"/><use transform="matrix(0.04320987654320988,0,0,0.04320987654320988,21.561728395061728,0)" xlink:href="#bF"/><use transform="matrix(0.04320987654320988,0,0,0.04320987654320988,31.02469135802469,0)" xlink:href="#bG"/><use transform="matrix(0.04320987654320988,0,0,0.04320987654320988,35.34567901234568,0)" xlink:href="#ar"/></g><g id="R"><use transform="matrix(0.04320987654320988,0,0,0.04320987654320988,0,0)" xlink:href="#bu"/><use transform="matrix(0.04320987654320988,0,0,0.04320987654320988,9.462962962962964,0)" xlink:href="#ay"/><use transform="matrix(0.04320987654320988,0,0,0.04320987654320988,18.10493827160494,0)" xlink:href="#am"/><use transform="matrix(0.04320987654320988,0,0,0.04320987654320988,26.746913580246915,0)" xlink:href="#an"/></g><g id="S"><use transform="matrix(0.04320987654320988,0,0,0.04320987654320988,0,0)" xlink:href="#ap"/><use transform="matrix(0.04320987654320988,0,0,0.04320987654320988,5.1419753086419755,0)" xlink:href="#ao"/><use transform="matrix(0.04320987654320988,0,0,0.04320987654320988,11.191358024691358,0)" xlink:href="#ay"/><use transform="matrix(0.04320987654320988,0,0,0.04320987654320988,19.833333333333336,0)" xlink:href="#al"/><use transform="matrix(0.04320987654320988,0,0,0.04320987654320988,29.296296296296298,0)" xlink:href="#aq"/><use transform="matrix(0.04320987654320988,0,0,0.04320987654320988,37.93827160493827,0)" xlink:href="#bv"/><use transform="matrix(0.04320987654320988,0,0,0.04320987654320988,42.25925925925926,0)" xlink:href="#ap"/><use transform="matrix(0.04320987654320988,0,0,0.04320987654320988,47.40123456790123,0)" xlink:href="#bv"/><use transform="matrix(0.04320987654320988,0,0,0.04320987654320988,51.722222222222214,0)" xlink:href="#am"/><use transform="matrix(0.04320987654320988,0,0,0.04320987654320988,60.364197530864196,0)" xlink:href="#an"/></g><g id="T"><use transform="matrix(0.04320987654320988,0,0,0.04320987654320988,0,0)" xlink:href="#ar"/><use transform="matrix(0.04320987654320988,0,0,0.04320987654320988,9.462962962962964,0)" xlink:href="#an"/><use transform="matrix(0.04320987654320988,0,0,0.04320987654320988,18.10493827160494,0)" xlink:href="#as"/><use transform="matrix(0.04320987654320988,0,0,0.04320987654320988,27.567901234567906,0)" xlink:href="#an"/><use transform="matrix(0.04320987654320988,0,0,0.04320987654320988,36.20987654320988,0)" xlink:href="#al"/><use transform="matrix(0.04320987654320988,0,0,0.04320987654320988,45.67283950617284,0)" xlink:href="#ar"/><use transform="matrix(0.04320987654320988,0,0,0.04320987654320988,55.13580246913581,0)" xlink:href="#an"/><use transform="matrix(0.04320987654320988,0,0,0.04320987654320988,63.77777777777777,0)" xlink:href="#al"/><use transform="matrix(0.04320987654320988,0,0,0.04320987654320988,73.24074074074075,0)" xlink:href="#at"/><use transform="matrix(0.04320987654320988,0,0,0.04320987654320988,81.88271604938272,0)" xlink:href="#bv"/><use transform="matrix(0.04320987654320988,0,0,0.04320987654320988,86.20370370370371,0)" xlink:href="#an"/><use transform="matrix(0.04320987654320988,0,0,0.04320987654320988,94.84567901234568,0)" xlink:href="#aq"/></g><g id="U"><use transform="matrix(0.04320987654320988,0,0,0.04320987654320988,0,0)" xlink:href="#aB"/><use transform="matrix(0.04320987654320988,0,0,0.04320987654320988,9.462962962962964,0)" xlink:href="#al"/></g><g id="V"><use transform="matrix(0.04320987654320988,0,0,0.04320987654320988,0,0)" xlink:href="#ap"/><use transform="matrix(0.04320987654320988,0,0,0.04320987654320988,5.1419753086419755,0)" xlink:href="#bu"/><use transform="matrix(0.04320987654320988,0,0,0.04320987654320988,14.60493827160494,0)" xlink:href="#an"/></g><path fill="#fff" d="M98-208l-15 77h118l-8 40H76L58 0H6l48-248h174l-8 40H98" id="bM"/><path fill="#fff" d="M50-224l7-37h49l-7 37H50zM6 0l37-190h49L55 0H6" id="bN"/><g id="W"><use transform="matrix(0.04320987654320988,0,0,0.04320987654320988,0,0)" xlink:href="#bM"/><use transform="matrix(0.04320987654320988,0,0,0.04320987654320988,9.462962962962964,0)" xlink:href="#bN"/><use transform="matrix(0.04320987654320988,0,0,0.04320987654320988,13.783950617283953,0)" xlink:href="#bx"/><use transform="matrix(0.04320987654320988,0,0,0.04320987654320988,23.246913580246915,0)" xlink:href="#bB"/><use transform="matrix(0.04320987654320988,0,0,0.04320987654320988,31.888888888888893,0)" xlink:href="#bx"/><use transform="matrix(0.04320987654320988,0,0,0.04320987654320988,41.351851851851855,0)" xlink:href="#bC"/><use transform="matrix(0.04320987654320988,0,0,0.04320987654320988,49.99382716049383,0)" xlink:href="#bN"/><use transform="matrix(0.04320987654320988,0,0,0.04320987654320988,54.314814814814824,0)" xlink:href="#bB"/><use transform="matrix(0.04320987654320988,0,0,0.04320987654320988,62.956790123456784,0)" xlink:href="#bL"/></g><path fill="#fff" d="M6 0l48-248h195l-8 40H98l-12 63h132l-7 40H79L66-40h150l-8 40H6" id="bO"/><g id="X"><use transform="matrix(0.04320987654320988,0,0,0.04320987654320988,0,0)" xlink:href="#bO"/><use transform="matrix(0.04320987654320988,0,0,0.04320987654320988,10.370370370370372,0)" xlink:href="#bx"/><use transform="matrix(0.04320987654320988,0,0,0.04320987654320988,19.833333333333336,0)" xlink:href="#by"/><use transform="matrix(0.04320987654320988,0,0,0.04320987654320988,24.97530864197531,0)" xlink:href="#bN"/><use transform="matrix(0.04320987654320988,0,0,0.04320987654320988,29.296296296296298,0)" xlink:href="#by"/><use transform="matrix(0.04320987654320988,0,0,0.04320987654320988,34.43827160493827,0)" xlink:href="#bN"/><use transform="matrix(0.04320987654320988,0,0,0.04320987654320988,38.75925925925926,0)" xlink:href="#bz"/><use transform="matrix(0.04320987654320988,0,0,0.04320987654320988,47.40123456790123,0)" xlink:href="#bJ"/></g><path fill="#760000" d="M33 0v-248h34V0H33" id="bP"/><path fill="#760000" d="M101-234c-31-9-42 10-38 44h38v23H63V0H32v-167H5v-23h27c-7-52 17-82 69-68v24" id="bQ"/><path fill="#760000" d="M210-169c-67 3-38 105-44 169h-31v-121c0-29-5-50-35-48C34-165 62-65 56 0H25l-1-190h30c1 10-1 24 2 32 10-44 99-50 107 0 11-21 27-35 58-36 85-2 47 119 55 194h-31v-121c0-29-5-49-35-48" id="bR"/><g id="Y"><use transform="matrix(0.04320987654320988,0,0,0.04320987654320988,0,0)" xlink:href="#bg"/><use transform="matrix(0.04320987654320988,0,0,0.04320987654320988,5.1419753086419755,0)" xlink:href="#bP"/><use transform="matrix(0.04320987654320988,0,0,0.04320987654320988,9.462962962962964,0)" xlink:href="#bo"/><use transform="matrix(0.04320987654320988,0,0,0.04320987654320988,18.10493827160494,0)" xlink:href="#bQ"/><use transform="matrix(0.04320987654320988,0,0,0.04320987654320988,22.425925925925927,0)" xlink:href="#bn"/><use transform="matrix(0.04320987654320988,0,0,0.04320987654320988,31.067901234567906,0)" xlink:href="#bj"/><use transform="matrix(0.04320987654320988,0,0,0.04320987654320988,36.20987654320988,0)" xlink:href="#bR"/><use transform="matrix(0.04320987654320988,0,0,0.04320987654320988,49.12962962962963,0)" xlink:href="#bp"/><use transform="matrix(0.04320987654320988,0,0,0.04320987654320988,57.77160493827161,0)" xlink:href="#bm"/><use transform="matrix(0.04320987654320988,0,0,0.04320987654320988,62.0925925925926,0)" xlink:href="#bi"/><use transform="matrix(0.04320987654320988,0,0,0.04320987654320988,65.50617283950618,0)" xlink:href="#bn"/><use transform="matrix(0.04320987654320988,0,0,0.04320987654320988,74.14814814814815,0)" xlink:href="#bo"/></g><path fill="#760000" d="M197 0v-115H63V0H30v-248h33v105h134v-105h34V0h-34" id="bS"/><path fill="#760000" d="M85-194c31 0 48 13 60 33l-1-100h32l1 261h-30c-2-10 0-23-3-31C134-8 116 4 85 4 32 4 16-35 15-94c0-66 23-100 70-100zm9 24c-40 0-46 34-46 75 0 40 6 74 45 74 42 0 51-32 51-76 0-42-9-74-50-73" id="bT"/><path fill="#760000" d="M177-190C167-65 218 103 67 71c-23-6-38-20-44-43l32-5c15 47 100 32 89-28v-30C133-14 115 1 83 1 29 1 15-40 15-95c0-56 16-97 71-98 29-1 48 16 59 35 1-10 0-23 2-32h30zM94-22c36 0 50-32 50-73 0-42-14-75-50-75-39 0-46 34-46 75s6 73 46 73" id="bU"/><g id="Z"><use transform="matrix(0.04320987654320988,0,0,0.04320987654320988,0,0)" xlink:href="#bS"/><use transform="matrix(0.04320987654320988,0,0,0.04320987654320988,11.19135802469136,0)" xlink:href="#bi"/><use transform="matrix(0.04320987654320988,0,0,0.04320987654320988,14.60493827160494,0)" xlink:href="#bT"/><use transform="matrix(0.04320987654320988,0,0,0.04320987654320988,23.246913580246915,0)" xlink:href="#bi"/><use transform="matrix(0.04320987654320988,0,0,0.04320987654320988,26.6604938271605,0)" xlink:href="#bo"/><use transform="matrix(0.04320987654320988,0,0,0.04320987654320988,35.302469135802475,0)" xlink:href="#bU"/><use transform="matrix(0.04320987654320988,0,0,0.04320987654320988,43.94444444444445,0)" xlink:href="#bs"/></g><path fill="#fff" d="M24-248c93 1 206-16 204 79-1 75-69 88-152 82V0H24v-248zm52 121c47 0 100 7 100-41 0-47-54-39-100-39v80" id="bV"/><g id="aa"><use transform="matrix(0.04320987654320988,0,0,0.04320987654320988,0,0)" xlink:href="#bV"/><use transform="matrix(0.04320987654320988,0,0,0.04320987654320988,10.370370370370372,0)" xlink:href="#ao"/><use transform="matrix(0.04320987654320988,0,0,0.04320987654320988,16.419753086419753,0)" xlink:href="#aB"/><use transform="matrix(0.04320987654320988,0,0,0.04320987654320988,25.882716049382715,0)" xlink:href="#ap"/><use transform="matrix(0.04320987654320988,0,0,0.04320987654320988,31.02469135802469,0)" xlink:href="#an"/><use transform="matrix(0.04320987654320988,0,0,0.04320987654320988,39.666666666666664,0)" xlink:href="#at"/><use transform="matrix(0.04320987654320988,0,0,0.04320987654320988,48.30864197530864,0)" xlink:href="#ap"/><use transform="matrix(0.04320987654320988,0,0,0.04320987654320988,53.45061728395061,0)" xlink:href="#aq"/></g><g id="ab"><use transform="matrix(0.04320987654320988,0,0,0.04320987654320988,0,0)" xlink:href="#ap"/><use transform="matrix(0.04320987654320988,0,0,0.04320987654320988,5.1419753086419755,0)" xlink:href="#bu"/><use transform="matrix(0.04320987654320988,0,0,0.04320987654320988,14.60493827160494,0)" xlink:href="#an"/></g><path fill="#fff" d="M258-177c0 46-32 67-71 75L235 0h-57l-41-94H76L58 0H6l48-248c89 2 204-19 204 71zm-53 3c0-46-63-30-107-33l-14 73c51-2 120 13 121-40" id="bW"/><path fill="#fff" d="M156-122c2-23-7-37-28-37-47 0-58 44-58 89 0 24 12 40 36 40 43 0 47-49 50-92zM-8 75l50-265h48c0 10-3 24-3 30 22-50 127-45 121 29-6 73-21 135-92 135-29 0-46-14-55-35L41 75H-8" id="bX"/><g id="ac"><use transform="matrix(0.04320987654320988,0,0,0.04320987654320988,0,0)" xlink:href="#bW"/><use transform="matrix(0.04320987654320988,0,0,0.04320987654320988,11.19135802469136,0)" xlink:href="#bz"/><use transform="matrix(0.04320987654320988,0,0,0.04320987654320988,19.833333333333336,0)" xlink:href="#bX"/><use transform="matrix(0.04320987654320988,0,0,0.04320987654320988,29.296296296296298,0)" xlink:href="#bD"/><use transform="matrix(0.04320987654320988,0,0,0.04320987654320988,38.75925925925926,0)" xlink:href="#bA"/><use transform="matrix(0.04320987654320988,0,0,0.04320987654320988,44.808641975308646,0)" xlink:href="#by"/></g><g id="ad"><use transform="matrix(0.04320987654320988,0,0,0.04320987654320988,0,0)" xlink:href="#bK"/><use transform="matrix(0.04320987654320988,0,0,0.04320987654320988,11.19135802469136,0)" xlink:href="#bD"/><use transform="matrix(0.04320987654320988,0,0,0.04320987654320988,20.654320987654323,0)" xlink:href="#bx"/><use transform="matrix(0.04320987654320988,0,0,0.04320987654320988,30.11728395061729,0)" xlink:href="#by"/><use transform="matrix(0.04320987654320988,0,0,0.04320987654320988,35.25925925925926,0)" xlink:href="#bA"/><use transform="matrix(0.04320987654320988,0,0,0.04320987654320988,41.308641975308646,0)" xlink:href="#bD"/><use transform="matrix(0.04320987654320988,0,0,0.04320987654320988,50.77160493827161,0)" xlink:href="#bL"/><use transform="matrix(0.04320987654320988,0,0,0.04320987654320988,55.092592592592595,0)" xlink:href="#bL"/><use transform="matrix(0.04320987654320988,0,0,0.04320987654320988,59.41358024691359,0)" xlink:href="#bz"/><use transform="matrix(0.04320987654320988,0,0,0.04320987654320988,68.05555555555556,0)" xlink:href="#bA"/></g><path fill="#fff" d="M121-226c-27-7-43 5-38 36h38v33H83V0H34v-157H6v-33h28c-9-59 32-81 87-68v32" id="bY"/><g id="ae"><use transform="matrix(0.04320987654320988,0,0,0.04320987654320988,0,0)" xlink:href="#bY"/><use transform="matrix(0.04320987654320988,0,0,0.04320987654320988,5.1419753086419755,0)" xlink:href="#ao"/><use transform="matrix(0.04320987654320988,0,0,0.04320987654320988,11.191358024691358,0)" xlink:href="#aB"/><use transform="matrix(0.04320987654320988,0,0,0.04320987654320988,20.654320987654323,0)" xlink:href="#bE"/></g><path fill="#fff" d="M147 0L96-86 75-71V0H25v-261h50v150l67-79h53l-66 74L201 0h-54" id="bZ"/><path fill="#fff" d="M195-6C206 82 75 100 31 46c-4-6-6-13-8-21l49-6c3 16 16 24 34 25 40 0 42-37 40-79-11 22-30 35-61 35-53 0-70-43-70-97 0-56 18-96 73-97 30 0 46 14 59 34l2-30h47zm-90-29c32 0 41-27 41-63 0-35-9-62-40-62-32 0-39 29-40 63 0 36 9 62 39 62" id="ca"/><g id="af"><use transform="matrix(0.04320987654320988,0,0,0.04320987654320988,0,0)" xlink:href="#bZ"/><use transform="matrix(0.04320987654320988,0,0,0.04320987654320988,8.641975308641976,0)" xlink:href="#al"/><use transform="matrix(0.04320987654320988,0,0,0.04320987654320988,18.10493827160494,0)" xlink:href="#aB"/><use transform="matrix(0.04320987654320988,0,0,0.04320987654320988,27.567901234567906,0)" xlink:href="#aw"/><use transform="matrix(0.04320987654320988,0,0,0.04320987654320988,39.66666666666667,0)" xlink:href="#bv"/><use transform="matrix(0.04320987654320988,0,0,0.04320987654320988,43.98765432098766,0)" xlink:href="#al"/><use transform="matrix(0.04320987654320988,0,0,0.04320987654320988,53.45061728395062,0)" xlink:href="#ca"/></g><g id="ag"><use transform="matrix(0.04320987654320988,0,0,0.04320987654320988,0,0)" xlink:href="#ap"/><use transform="matrix(0.04320987654320988,0,0,0.04320987654320988,5.1419753086419755,0)" xlink:href="#aB"/><use transform="matrix(0.04320987654320988,0,0,0.04320987654320988,14.60493827160494,0)" xlink:href="#aB"/></g><g id="ah"><use transform="matrix(0.04320987654320988,0,0,0.04320987654320988,0,0)" xlink:href="#bE"/><use transform="matrix(0.04320987654320988,0,0,0.04320987654320988,13.827160493827162,0)" xlink:href="#bF"/><use transform="matrix(0.04320987654320988,0,0,0.04320987654320988,23.290123456790127,0)" xlink:href="#at"/><use transform="matrix(0.04320987654320988,0,0,0.04320987654320988,31.9320987654321,0)" xlink:href="#bu"/></g><g id="ai"><use transform="matrix(0.04320987654320988,0,0,0.04320987654320988,0,0)" xlink:href="#ay"/><use transform="matrix(0.04320987654320988,0,0,0.04320987654320988,8.641975308641976,0)" xlink:href="#av"/><use transform="matrix(0.04320987654320988,0,0,0.04320987654320988,18.10493827160494,0)" xlink:href="#aB"/><use transform="matrix(0.04320987654320988,0,0,0.04320987654320988,27.567901234567906,0)" xlink:href="#bF"/><use transform="matrix(0.04320987654320988,0,0,0.04320987654320988,37.03086419753087,0)" xlink:href="#ap"/></g><g id="aj"><use transform="matrix(0.04320987654320988,0,0,0.04320987654320988,0,0)" xlink:href="#bw"/><use transform="matrix(0.04320987654320988,0,0,0.04320987654320988,4.320987654320988,0)" xlink:href="#bx"/><use transform="matrix(0.04320987654320988,0,0,0.04320987654320988,13.783950617283953,0)" xlink:href="#by"/><use transform="matrix(0.04320987654320988,0,0,0.04320987654320988,18.925925925925927,0)" xlink:href="#bz"/><use transform="matrix(0.04320987654320988,0,0,0.04320987654320988,27.567901234567906,0)" xlink:href="#bA"/><use transform="matrix(0.04320987654320988,0,0,0.04320987654320988,33.61728395061729,0)" xlink:href="#bB"/><use transform="matrix(0.04320987654320988,0,0,0.04320987654320988,42.25925925925927,0)" xlink:href="#bC"/><use transform="matrix(0.04320987654320988,0,0,0.04320987654320988,50.90123456790124,0)" xlink:href="#by"/><use transform="matrix(0.04320987654320988,0,0,0.04320987654320988,56.043209876543216,0)" xlink:href="#bD"/><use transform="matrix(0.04320987654320988,0,0,0.04320987654320988,65.50617283950618,0)" xlink:href="#bA"/></g></defs></g></svg>