<svg xmlns="http://www.w3.org/2000/svg" xmlns:xlink="http://www.w3.org/1999/xlink" xmlns:lucid="lucid" width="1180" height="760"><g transform="translate(-90 0)" lucid:page-tab-id="0_0"><path d="M0 0h1850.6v1430H0z" fill="#fff"/><path d="M550 228c0-4.42 3.58-8 8-8h344c4.42 0 8 3.58 8 8v224c0 4.42-3.58 8-8 8H558c-4.42 0-8-3.58-8-8z" stroke="#fff" stroke-width="4" fill="#e5e5e5"/><path d="M550 255h360m-360 66h360" stroke="#fff" stroke-width="4" fill="none"/><use xlink:href="#a" transform="matrix(1,0,0,1,558,220) translate(137.4753086419753 20.61111111111111)"/><use xlink:href="#b" transform="matrix(1,0,0,1,562,329.40000000000003) translate(0 45.94444444444444)"/><use xlink:href="#c" transform="matrix(1,0,0,1,562,329.40000000000003) translate(13.395061728395063 45.94444444444444)"/><use xlink:href="#b" transform="matrix(1,0,0,1,562,329.40000000000003) translate(0 64.61111111111111)"/><use xlink:href="#d" transform="matrix(1,0,0,1,562,329.40000000000003) translate(13.395061728395063 64.61111111111111)"/><use xlink:href="#b" transform="matrix(1,0,0,1,562,329.40000000000003) translate(0 83.27777777777779)"/><use xlink:href="#e" transform="matrix(1,0,0,1,562,329.40000000000003) translate(13.395061728395063 83.27777777777779)"/><path d="M249.75 59.75c0 10.9-8.84 19.75-19.75 19.75-10.9 0-19.75-8.84-19.75-19.75C210.25 48.85 219.1 40 230 40c10.9 0 19.75 8.84 19.75 19.75z" stroke="#333" stroke-width="4" fill="#e5e5e5"/><path d="M190 48c0-4.42 3.58-8 8-8h64c4.42 0 8 3.58 8 8v142c0 4.42-3.58 8-8 8h-64c-4.42 0-8-3.58-8-8z" fill="none"/><path d="M230 79.5v47.3c0 4.42 1.92 11.03 4.28 14.76L270 198m-40-63.2L190 198m0-98.75h80" stroke="#333" stroke-width="4" fill="none"/><use xlink:href="#f" transform="matrix(1,0,0,1,110,198) translate(81.56481481481481 14.11111111111111)"/><path d="M249.75 269.75c0 10.9-8.84 19.75-19.75 19.75-10.9 0-19.75-8.84-19.75-19.75 0-10.9 8.84-19.75 19.75-19.75 10.9 0 19.75 8.84 19.75 19.75z" stroke="#333" stroke-width="4" fill="#e5e5e5"/><path d="M190 258c0-4.42 3.58-8 8-8h64c4.42 0 8 3.58 8 8v142c0 4.42-3.58 8-8 8h-64c-4.42 0-8-3.58-8-8z" fill="none"/><path d="M230 289.5v47.3c0 4.42 1.92 11.03 4.28 14.76L270 408m-40-63.2L190 408m0-98.75h80" stroke="#333" stroke-width="4" fill="none"/><use xlink:href="#g" transform="matrix(1,0,0,1,110,408) translate(108.80864197530865 14.11111111111111)"/><path d="M249.75 479.75c0 10.9-8.84 19.75-19.75 19.75-10.9 0-19.75-8.84-19.75-19.75 0-10.9 8.84-19.75 19.75-19.75 10.9 0 19.75 8.84 19.75 19.75z" stroke="#333" stroke-width="4" fill="#e5e5e5"/><path d="M190 468c0-4.42 3.58-8 8-8h64c4.42 0 8 3.58 8 8v142c0 4.42-3.58 8-8 8h-64c-4.42 0-8-3.58-8-8z" fill="none"/><path d="M230 499.5v47.3c0 4.42 1.92 11.03 4.28 14.76L270 618m-40-63.2L190 618m0-98.75h80" stroke="#333" stroke-width="4" fill="none"/><use xlink:href="#h" transform="matrix(1,0,0,1,110,618) translate(81.17592592592592 14.11111111111111)"/><use xlink:href="#i" transform="matrix(1,0,0,1,110,618) translate(107.05864197530865 14.11111111111111)"/><path d="M461 339h87v2h-89V229.33h2zm0-128.33h-2V131H270v-2h191z"/><path/><path d="M550 341h-2v-2h2z"/><use xlink:href="#j" transform="matrix(1,0,0,1,410.82716049382714,210.66666666666666) translate(0 12.444444444444446)"/><path d="M327.23 341H270v-2h57.23zM548 341H419.44v-2H548z"/><path/><path d="M550 341h-2v-2h2z"/><use xlink:href="#k" transform="matrix(1,0,0,1,327.2283950617284,330.6666666666667) translate(0 12.444444444444446)"/><path d="M461 551H270v-2h189v-89h2zm87-210h-87v100.33h-2V339h89z"/><path/><path d="M550 341h-2v-2h2z"/><use xlink:href="#l" transform="matrix(1,0,0,1,438.4382716049383,441.33333333333337) translate(0 12.444444444444446)"/><path d="M550 92.12c0-4.42 3.58-8 8-8h120c4.42 0 10.53 2.53 13.66 5.66l12.68 12.68c3.13 3.13 5.66 9.24 5.66 13.66v80c0 4.42-3.58 8-8 8H558c-4.42 0-8-3.58-8-8z" stroke="#fff" stroke-width="4" fill="#e5e5e5"/><path d="M687.94 91.88c-1.07-4.3.6-5.23 3.72-2.1l12.68 12.68c3.13 3.13 2.2 4.8-2.1 3.72l-3.68-.92c-4.3-1.07-8.63-5.42-9.7-9.7z" stroke="#fff" stroke-width="4" fill="#a0a0a0"/><use xlink:href="#m" transform="matrix(1,0,0,1,550,84.11818181818177) translate(5.01 53.69444444444444)"/><use xlink:href="#n" transform="matrix(1,0,0,1,550,84.11818181818177) translate(29.16432098765432 53.69444444444444)"/><use xlink:href="#o" transform="matrix(1,0,0,1,550,84.11818181818177) translate(71.42358024691359 53.69444444444444)"/><use xlink:href="#p" transform="matrix(1,0,0,1,550,84.11818181818177) translate(122.32481481481483 53.69444444444444)"/><use xlink:href="#q" transform="matrix(1,0,0,1,550,84.11818181818177) translate(5.01 72.36111111111111)"/><use xlink:href="#r" transform="matrix(1,0,0,1,550,84.11818181818177) translate(76.65197530864198 72.36111111111111)"/><path d="M590 578c0-4.42 3.58-8 8-8h120c4.42 0 10.53 2.53 13.66 5.66l12.68 12.68c3.13 3.13 5.66 9.24 5.66 13.66v80c0 4.42-3.58 8-8 8H598c-4.42 0-8-3.58-8-8z" stroke="#fff" stroke-width="4" fill="#e5e5e5"/><path d="M727.94 577.76c-1.07-4.3.6-5.23 3.72-2.1l12.68 12.68c3.13 3.13 2.2 4.8-2.1 3.72l-3.68-.92c-4.3-1.07-8.63-5.4-9.7-9.7z" stroke="#fff" stroke-width="4" fill="#a0a0a0"/><use xlink:href="#s" transform="matrix(1,0,0,1,590,570) translate(5.01 46.19444444444444)"/><use xlink:href="#t" transform="matrix(1,0,0,1,590,570) translate(107.67666666666666 46.19444444444444)"/><use xlink:href="#u" transform="matrix(1,0,0,1,590,570) translate(5.01 64.86111111111111)"/><use xlink:href="#v" transform="matrix(1,0,0,1,590,570) translate(101.54086419753087 64.86111111111111)"/><use xlink:href="#w" transform="matrix(1,0,0,1,590,570) translate(130.9235802469136 64.86111111111111)"/><use xlink:href="#x" transform="matrix(1,0,0,1,590,570) translate(5.01 83.52777777777779)"/><use xlink:href="#y" transform="matrix(1,0,0,1,590,570) translate(47.312469135802466 83.52777777777779)"/><use xlink:href="#z" transform="matrix(1,0,0,1,590,570) translate(106.0346913580247 83.52777777777779)"/><path d="M810 578c0-4.42 3.58-8 8-8h120c4.42 0 10.53 2.53 13.66 5.66l12.68 12.68c3.13 3.13 5.66 9.24 5.66 13.66v80c0 4.42-3.58 8-8 8H818c-4.42 0-8-3.58-8-8z" stroke="#fff" stroke-width="4" fill="#e5e5e5"/><path d="M947.94 577.76c-1.07-4.3.6-5.23 3.72-2.1l12.68 12.68c3.13 3.13 2.2 4.8-2.1 3.72l-3.68-.92c-4.3-1.07-8.63-5.4-9.7-9.7z" stroke="#fff" stroke-width="4" fill="#a0a0a0"/><use xlink:href="#A" transform="matrix(1,0,0,1,810,570) translate(5.01 53.69444444444444)"/><use xlink:href="#B" transform="matrix(1,0,0,1,810,570) translate(31.713703703703708 53.69444444444444)"/><use xlink:href="#C" transform="matrix(1,0,0,1,810,570) translate(95.62111111111112 53.69444444444444)"/><use xlink:href="#D" transform="matrix(1,0,0,1,810,570) translate(5.01 72.36111111111111)"/><use xlink:href="#E" transform="matrix(1,0,0,1,810,570) translate(21.386543209876542 72.36111111111111)"/><use xlink:href="#F" transform="matrix(1,0,0,1,810,570) translate(86.93592592592594 72.36111111111111)"/><path d="M1030 578c0-4.42 3.58-8 8-8h120c4.42 0 10.53 2.53 13.66 5.66l12.68 12.68c3.13 3.13 5.66 9.24 5.66 13.66v80c0 4.42-3.58 8-8 8h-144c-4.42 0-8-3.58-8-8z" stroke="#fff" stroke-width="4" fill="#e5e5e5"/><path d="M1167.94 577.76c-1.07-4.3.6-5.23 3.72-2.1l12.68 12.68c3.13 3.13 2.2 4.8-2.1 3.72l-3.68-.92c-4.3-1.07-8.63-5.4-9.7-9.7z" stroke="#fff" stroke-width="4" fill="#a0a0a0"/><g><use xlink:href="#G" transform="matrix(1,0,0,1,1030,570) translate(5.01 46.19444444444444)"/><use xlink:href="#H" transform="matrix(1,0,0,1,1030,570) translate(71.51 46.19444444444444)"/><use xlink:href="#I" transform="matrix(1,0,0,1,1030,570) translate(105.1704938271605 46.19444444444444)"/><use xlink:href="#J" transform="matrix(1,0,0,1,1030,570) translate(5.01 64.86111111111111)"/><use xlink:href="#K" transform="matrix(1,0,0,1,1030,570) translate(30.93592592592593 64.86111111111111)"/><use xlink:href="#L" transform="matrix(1,0,0,1,1030,570) translate(133.6025925925926 64.86111111111111)"/><use xlink:href="#J" transform="matrix(1,0,0,1,1030,570) translate(5.01 83.52777777777779)"/><use xlink:href="#M" transform="matrix(1,0,0,1,1030,570) translate(30.93592592592593 83.52777777777779)"/><use xlink:href="#N" transform="matrix(1,0,0,1,1030,570) translate(112.1272839506173 83.52777777777779)"/></g><path d="M752 630h37.76" stroke="#000" stroke-width="2" fill="none"/><path d="M752 631h-2v-2h2zM804.76 630l-14.26 4.64v-9.28z"/><path d="M808 630l-18.5 6v-12zm-16.5 3.26l10.03-3.26-10.03-3.26z"/><path d="M972 630h37.76" stroke="#000" stroke-width="2" fill="none"/><path d="M972 631h-2v-2h2zM1024.76 630l-14.26 4.64v-9.28z"/><path d="M1028 630l-18.5 6v-12zm-16.5 3.26l10.03-3.26-10.03-3.26z"/><path d="M110 28c0-4.42 3.58-8 8-8h1124c4.42 0 8 3.58 8 8v704c0 4.42-3.58 8-8 8H118c-4.42 0-8-3.58-8-8z" stroke="#000" stroke-width="4" fill="none"/><g><use xlink:href="#O" transform="matrix(1,0,0,1,118,28) translate(330.6360563973065 22.431515151515143)"/><use xlink:href="#P" transform="matrix(1,0,0,1,118,28) translate(498.6387584175084 22.431515151515143)"/><use xlink:href="#Q" transform="matrix(1,0,0,1,118,28) translate(596.5429755892255 22.431515151515143)"/><use xlink:href="#R" transform="matrix(1,0,0,1,118,28) translate(613.6002735690236 22.431515151515143)"/><use xlink:href="#S" transform="matrix(1,0,0,1,118,28) translate(678.4024284511784 22.431515151515143)"/></g><path d="M570 538c0-4.42 3.58-8 8-8h624c4.42 0 8 3.58 8 8v164c0 4.42-3.58 8-8 8H578c-4.42 0-8-3.58-8-8z" stroke="#000" stroke-width="2" fill="none"/><g><use xlink:href="#T" transform="matrix(1,0,0,1,578,538) translate(235.22917789001127 15.738585858585857)"/><use xlink:href="#U" transform="matrix(1,0,0,1,578,538) translate(347.2309792368126 15.738585858585857)"/></g><path d="M110 28c0-4.42 3.58-8 8-8h1124c4.42 0 8 3.58 8 8v704c0 4.42-3.58 8-8 8H118c-4.42 0-8-3.58-8-8z" stroke="#000" stroke-width="4" fill="none"/><g><use xlink:href="#O" transform="matrix(1,0,0,1,118,28) translate(330.6360563973065 22.431515151515143)"/><use xlink:href="#P" transform="matrix(1,0,0,1,118,28) translate(498.6387584175084 22.431515151515143)"/><use xlink:href="#Q" transform="matrix(1,0,0,1,118,28) translate(596.5429755892255 22.431515151515143)"/><use xlink:href="#R" transform="matrix(1,0,0,1,118,28) translate(613.6002735690236 22.431515151515143)"/><use xlink:href="#S" transform="matrix(1,0,0,1,118,28) translate(678.4024284511784 22.431515151515143)"/></g><defs><path d="M30 0v-248h187v28H63v79h144v27H63v87h162V0H30" id="V"/><path d="M210-169c-67 3-38 105-44 169h-31v-121c0-29-5-50-35-48C34-165 62-65 56 0H25l-1-190h30c1 10-1 24 2 32 10-44 99-50 107 0 11-21 27-35 58-36 85-2 47 119 55 194h-31v-121c0-29-5-49-35-48" id="W"/><path d="M115-194c55 1 70 41 70 98S169 2 115 4C84 4 66-9 55-30l1 105H24l-1-265h31l2 30c10-21 28-34 59-34zm-8 174c40 0 45-34 45-75s-6-73-45-74c-42 0-51 32-51 76 0 43 10 73 51 73" id="X"/><path d="M24 0v-261h32V0H24" id="Y"/><path d="M100-194c62-1 85 37 85 99 1 63-27 99-86 99S16-35 15-95c0-66 28-99 85-99zM99-20c44 1 53-31 53-75 0-43-8-75-51-75s-53 32-53 75 10 74 51 75" id="Z"/><path d="M179-190L93 31C79 59 56 82 12 73V49c39 6 53-20 64-50L1-190h34L92-34l54-156h33" id="aa"/><path d="M100-194c63 0 86 42 84 106H49c0 40 14 67 53 68 26 1 43-12 49-29l28 8c-11 28-37 45-77 45C44 4 14-33 15-96c1-61 26-98 85-98zm52 81c6-60-76-77-97-28-3 7-6 17-6 28h103" id="ab"/><g id="a"><use transform="matrix(0.04320987654320988,0,0,0.04320987654320988,0,0)" xlink:href="#V"/><use transform="matrix(0.04320987654320988,0,0,0.04320987654320988,10.370370370370372,0)" xlink:href="#W"/><use transform="matrix(0.04320987654320988,0,0,0.04320987654320988,23.290123456790127,0)" xlink:href="#X"/><use transform="matrix(0.04320987654320988,0,0,0.04320987654320988,31.9320987654321,0)" xlink:href="#Y"/><use transform="matrix(0.04320987654320988,0,0,0.04320987654320988,35.345679012345684,0)" xlink:href="#Z"/><use transform="matrix(0.04320987654320988,0,0,0.04320987654320988,43.98765432098766,0)" xlink:href="#aa"/><use transform="matrix(0.04320987654320988,0,0,0.04320987654320988,51.76543209876544,0)" xlink:href="#ab"/><use transform="matrix(0.04320987654320988,0,0,0.04320987654320988,60.40740740740741,0)" xlink:href="#ab"/></g><path d="M118-107v75H92v-75H18v-26h74v-75h26v75h74v26h-74" id="ac"/><use transform="matrix(0.04320987654320988,0,0,0.04320987654320988,0,0)" xlink:href="#ac" id="b"/><path d="M96-169c-40 0-48 33-48 73s9 75 48 75c24 0 41-14 43-38l32 2c-6 37-31 61-74 61-59 0-76-41-82-99-10-93 101-131 147-64 4 7 5 14 7 22l-32 3c-4-21-16-35-41-35" id="ad"/><path d="M141-36C126-15 110 5 73 4 37 3 15-17 15-53c-1-64 63-63 125-63 3-35-9-54-41-54-24 1-41 7-42 31l-33-3c5-37 33-52 76-52 45 0 72 20 72 64v82c-1 20 7 32 28 27v20c-31 9-61-2-59-35zM48-53c0 20 12 33 32 33 41-3 63-29 60-74-43 2-92-5-92 41" id="ae"/><path d="M84 4C-5 8 30-112 23-190h32v120c0 31 7 50 39 49 72-2 45-101 50-169h31l1 190h-30c-1-10 1-25-2-33-11 22-28 36-60 37" id="af"/><path d="M59-47c-2 24 18 29 38 22v24C64 9 27 4 27-40v-127H5v-23h24l9-43h21v43h35v23H59v120" id="ag"/><path d="M30-248c87 1 191-15 191 75 0 78-77 80-158 76V0H30v-248zm33 125c57 0 124 11 124-50 0-59-68-47-124-48v98" id="ah"/><path d="M87 75C49 33 22-17 22-94c0-76 28-126 65-167h31c-38 41-64 92-64 168S80 34 118 75H87" id="ai"/><path d="M33-261c38 41 65 92 65 168S71 34 33 75H2C39 34 66-17 66-93S39-220 2-261h31" id="aj"/><g id="c"><use transform="matrix(0.04320987654320988,0,0,0.04320987654320988,0,0)" xlink:href="#ad"/><use transform="matrix(0.04320987654320988,0,0,0.04320987654320988,7.777777777777779,0)" xlink:href="#ae"/><use transform="matrix(0.04320987654320988,0,0,0.04320987654320988,16.419753086419753,0)" xlink:href="#Y"/><use transform="matrix(0.04320987654320988,0,0,0.04320987654320988,19.833333333333336,0)" xlink:href="#ad"/><use transform="matrix(0.04320987654320988,0,0,0.04320987654320988,27.611111111111114,0)" xlink:href="#af"/><use transform="matrix(0.04320987654320988,0,0,0.04320987654320988,36.25308641975309,0)" xlink:href="#Y"/><use transform="matrix(0.04320987654320988,0,0,0.04320987654320988,39.66666666666667,0)" xlink:href="#ae"/><use transform="matrix(0.04320987654320988,0,0,0.04320987654320988,48.308641975308646,0)" xlink:href="#ag"/><use transform="matrix(0.04320987654320988,0,0,0.04320987654320988,52.62962962962963,0)" xlink:href="#ab"/><use transform="matrix(0.04320987654320988,0,0,0.04320987654320988,61.27160493827161,0)" xlink:href="#ah"/><use transform="matrix(0.04320987654320988,0,0,0.04320987654320988,71.64197530864197,0)" xlink:href="#ae"/><use transform="matrix(0.04320987654320988,0,0,0.04320987654320988,80.28395061728395,0)" xlink:href="#aa"/><use transform="matrix(0.04320987654320988,0,0,0.04320987654320988,88.06172839506172,0)" xlink:href="#ai"/><use transform="matrix(0.04320987654320988,0,0,0.04320987654320988,93.2037037037037,0)" xlink:href="#aj"/></g><path d="M114-163C36-179 61-72 57 0H25l-1-190h30c1 12-1 29 2 39 6-27 23-49 58-41v29" id="ak"/><path d="M197 0v-115H63V0H30v-248h33v105h134v-105h34V0h-34" id="al"/><path d="M135-143c-3-34-86-38-87 0 15 53 115 12 119 90S17 21 10-45l28-5c4 36 97 45 98 0-10-56-113-15-118-90-4-57 82-63 122-42 12 7 21 19 24 35" id="am"/><g id="d"><use transform="matrix(0.04320987654320988,0,0,0.04320987654320988,0,0)" xlink:href="#ak"/><use transform="matrix(0.04320987654320988,0,0,0.04320987654320988,5.1419753086419755,0)" xlink:href="#ab"/><use transform="matrix(0.04320987654320988,0,0,0.04320987654320988,13.783950617283953,0)" xlink:href="#X"/><use transform="matrix(0.04320987654320988,0,0,0.04320987654320988,22.425925925925934,0)" xlink:href="#Z"/><use transform="matrix(0.04320987654320988,0,0,0.04320987654320988,31.067901234567906,0)" xlink:href="#ak"/><use transform="matrix(0.04320987654320988,0,0,0.04320987654320988,36.20987654320988,0)" xlink:href="#ag"/><use transform="matrix(0.04320987654320988,0,0,0.04320987654320988,40.53086419753087,0)" xlink:href="#al"/><use transform="matrix(0.04320987654320988,0,0,0.04320987654320988,51.72222222222223,0)" xlink:href="#Z"/><use transform="matrix(0.04320987654320988,0,0,0.04320987654320988,60.3641975308642,0)" xlink:href="#af"/><use transform="matrix(0.04320987654320988,0,0,0.04320987654320988,69.00617283950618,0)" xlink:href="#ak"/><use transform="matrix(0.04320987654320988,0,0,0.04320987654320988,74.14814814814815,0)" xlink:href="#am"/><use transform="matrix(0.04320987654320988,0,0,0.04320987654320988,81.92592592592592,0)" xlink:href="#ai"/><use transform="matrix(0.04320987654320988,0,0,0.04320987654320988,87.0679012345679,0)" xlink:href="#aj"/></g><path d="M108 0H70L1-190h34L89-25l56-165h34" id="an"/><g id="e"><use transform="matrix(0.04320987654320988,0,0,0.04320987654320988,0,0)" xlink:href="#am"/><use transform="matrix(0.04320987654320988,0,0,0.04320987654320988,7.777777777777779,0)" xlink:href="#ae"/><use transform="matrix(0.04320987654320988,0,0,0.04320987654320988,16.419753086419753,0)" xlink:href="#an"/><use transform="matrix(0.04320987654320988,0,0,0.04320987654320988,24.19753086419753,0)" xlink:href="#ab"/><use transform="matrix(0.04320987654320988,0,0,0.04320987654320988,32.839506172839506,0)" xlink:href="#ai"/><use transform="matrix(0.04320987654320988,0,0,0.04320987654320988,37.98148148148148,0)" xlink:href="#aj"/></g><path d="M205 0l-28-72H64L36 0H1l101-248h38L239 0h-34zm-38-99l-47-123c-12 45-31 82-46 123h93" id="ao"/><path d="M117-194c89-4 53 116 60 194h-32v-121c0-31-8-49-39-48C34-167 62-67 57 0H25l-1-190h30c1 10-1 24 2 32 11-22 29-35 61-36" id="ap"/><path d="M24-231v-30h32v30H24zM24 0v-190h32V0H24" id="aq"/><path d="M177-190C167-65 218 103 67 71c-23-6-38-20-44-43l32-5c15 47 100 32 89-28v-30C133-14 115 1 83 1 29 1 15-40 15-95c0-56 16-97 71-98 29-1 48 16 59 35 1-10 0-23 2-32h30zM94-22c36 0 50-32 50-73 0-42-14-75-50-75-39 0-46 34-46 75s6 73 46 73" id="ar"/><g id="f"><use transform="matrix(0.04320987654320988,0,0,0.04320987654320988,0,0)" xlink:href="#ao"/><use transform="matrix(0.04320987654320988,0,0,0.04320987654320988,10.370370370370372,0)" xlink:href="#ad"/><use transform="matrix(0.04320987654320988,0,0,0.04320987654320988,18.148148148148152,0)" xlink:href="#ad"/><use transform="matrix(0.04320987654320988,0,0,0.04320987654320988,25.925925925925927,0)" xlink:href="#Z"/><use transform="matrix(0.04320987654320988,0,0,0.04320987654320988,34.567901234567906,0)" xlink:href="#af"/><use transform="matrix(0.04320987654320988,0,0,0.04320987654320988,43.20987654320988,0)" xlink:href="#ap"/><use transform="matrix(0.04320987654320988,0,0,0.04320987654320988,51.851851851851855,0)" xlink:href="#ag"/><use transform="matrix(0.04320987654320988,0,0,0.04320987654320988,56.17283950617284,0)" xlink:href="#aq"/><use transform="matrix(0.04320987654320988,0,0,0.04320987654320988,59.586419753086425,0)" xlink:href="#ap"/><use transform="matrix(0.04320987654320988,0,0,0.04320987654320988,68.2283950617284,0)" xlink:href="#ar"/></g><path d="M233-177c-1 41-23 64-60 70L243 0h-38l-65-103H63V0H30v-248c88 3 205-21 203 71zM63-129c60-2 137 13 137-47 0-61-80-42-137-45v92" id="as"/><g id="g"><use transform="matrix(0.04320987654320988,0,0,0.04320987654320988,0,0)" xlink:href="#al"/><use transform="matrix(0.04320987654320988,0,0,0.04320987654320988,11.19135802469136,0)" xlink:href="#as"/></g><path d="M30-248c118-7 216 8 213 122C240-48 200 0 122 0H30v-248zM63-27c89 8 146-16 146-99s-60-101-146-95v194" id="at"/><path d="M160-131c35 5 61 23 61 61C221 17 115-2 30 0v-248c76 3 177-17 177 60 0 33-19 50-47 57zm-97-11c50-1 110 9 110-42 0-47-63-36-110-37v79zm0 115c55-2 124 14 124-45 0-56-70-42-124-44v89" id="au"/><g id="h"><use transform="matrix(0.04320987654320988,0,0,0.04320987654320988,0,0)" xlink:href="#at"/><use transform="matrix(0.04320987654320988,0,0,0.04320987654320988,11.19135802469136,0)" xlink:href="#au"/></g><path d="M85-194c31 0 48 13 60 33l-1-100h32l1 261h-30c-2-10 0-23-3-31C134-8 116 4 85 4 32 4 16-35 15-94c0-66 23-100 70-100zm9 24c-40 0-46 34-46 75 0 40 6 74 45 74 42 0 51-32 51-76 0-42-9-74-50-73" id="av"/><g id="i"><use transform="matrix(0.04320987654320988,0,0,0.04320987654320988,0,0)" xlink:href="#ao"/><use transform="matrix(0.04320987654320988,0,0,0.04320987654320988,10.370370370370372,0)" xlink:href="#av"/><use transform="matrix(0.04320987654320988,0,0,0.04320987654320988,19.01234567901235,0)" xlink:href="#W"/><use transform="matrix(0.04320987654320988,0,0,0.04320987654320988,31.9320987654321,0)" xlink:href="#aq"/><use transform="matrix(0.04320987654320988,0,0,0.04320987654320988,35.345679012345684,0)" xlink:href="#ap"/><use transform="matrix(0.04320987654320988,0,0,0.04320987654320988,43.98765432098766,0)" xlink:href="#am"/></g><g id="j"><use transform="matrix(0.04320987654320988,0,0,0.04320987654320988,0,0)" xlink:href="#ad"/><use transform="matrix(0.04320987654320988,0,0,0.04320987654320988,7.777777777777779,0)" xlink:href="#ae"/><use transform="matrix(0.04320987654320988,0,0,0.04320987654320988,16.419753086419753,0)" xlink:href="#Y"/><use transform="matrix(0.04320987654320988,0,0,0.04320987654320988,19.833333333333336,0)" xlink:href="#ad"/><use transform="matrix(0.04320987654320988,0,0,0.04320987654320988,27.611111111111114,0)" xlink:href="#af"/><use transform="matrix(0.04320987654320988,0,0,0.04320987654320988,36.25308641975309,0)" xlink:href="#Y"/><use transform="matrix(0.04320987654320988,0,0,0.04320987654320988,39.66666666666667,0)" xlink:href="#ae"/><use transform="matrix(0.04320987654320988,0,0,0.04320987654320988,48.308641975308646,0)" xlink:href="#ag"/><use transform="matrix(0.04320987654320988,0,0,0.04320987654320988,52.62962962962963,0)" xlink:href="#ab"/><use transform="matrix(0.04320987654320988,0,0,0.04320987654320988,61.27160493827161,0)" xlink:href="#ah"/><use transform="matrix(0.04320987654320988,0,0,0.04320987654320988,71.64197530864197,0)" xlink:href="#ae"/><use transform="matrix(0.04320987654320988,0,0,0.04320987654320988,80.28395061728395,0)" xlink:href="#aa"/><use transform="matrix(0.04320987654320988,0,0,0.04320987654320988,88.06172839506172,0)" xlink:href="#ai"/><use transform="matrix(0.04320987654320988,0,0,0.04320987654320988,93.2037037037037,0)" xlink:href="#aj"/></g><g id="k"><use transform="matrix(0.04320987654320988,0,0,0.04320987654320988,0,0)" xlink:href="#ak"/><use transform="matrix(0.04320987654320988,0,0,0.04320987654320988,5.1419753086419755,0)" xlink:href="#ab"/><use transform="matrix(0.04320987654320988,0,0,0.04320987654320988,13.783950617283953,0)" xlink:href="#X"/><use transform="matrix(0.04320987654320988,0,0,0.04320987654320988,22.425925925925934,0)" xlink:href="#Z"/><use transform="matrix(0.04320987654320988,0,0,0.04320987654320988,31.067901234567906,0)" xlink:href="#ak"/><use transform="matrix(0.04320987654320988,0,0,0.04320987654320988,36.20987654320988,0)" xlink:href="#ag"/><use transform="matrix(0.04320987654320988,0,0,0.04320987654320988,40.53086419753087,0)" xlink:href="#al"/><use transform="matrix(0.04320987654320988,0,0,0.04320987654320988,51.72222222222223,0)" xlink:href="#Z"/><use transform="matrix(0.04320987654320988,0,0,0.04320987654320988,60.3641975308642,0)" xlink:href="#af"/><use transform="matrix(0.04320987654320988,0,0,0.04320987654320988,69.00617283950618,0)" xlink:href="#ak"/><use transform="matrix(0.04320987654320988,0,0,0.04320987654320988,74.14814814814815,0)" xlink:href="#am"/><use transform="matrix(0.04320987654320988,0,0,0.04320987654320988,81.92592592592592,0)" xlink:href="#ai"/><use transform="matrix(0.04320987654320988,0,0,0.04320987654320988,87.0679012345679,0)" xlink:href="#aj"/></g><g id="l"><use transform="matrix(0.04320987654320988,0,0,0.04320987654320988,0,0)" xlink:href="#am"/><use transform="matrix(0.04320987654320988,0,0,0.04320987654320988,7.777777777777779,0)" xlink:href="#ae"/><use transform="matrix(0.04320987654320988,0,0,0.04320987654320988,16.419753086419753,0)" xlink:href="#an"/><use transform="matrix(0.04320987654320988,0,0,0.04320987654320988,24.19753086419753,0)" xlink:href="#ab"/><use transform="matrix(0.04320987654320988,0,0,0.04320987654320988,32.839506172839506,0)" xlink:href="#ai"/><use transform="matrix(0.04320987654320988,0,0,0.04320987654320988,37.98148148148148,0)" xlink:href="#aj"/></g><path d="M199 0l-22-63H83L61 0H9l90-248h61L250 0h-51zm-33-102l-36-108c-10 38-24 72-36 108h72" id="aw"/><path d="M25 0v-261h50V0H25" id="ax"/><g id="m"><use transform="matrix(0.04320987654320988,0,0,0.04320987654320988,0,0)" xlink:href="#aw"/><use transform="matrix(0.04320987654320988,0,0,0.04320987654320988,11.19135802469136,0)" xlink:href="#ax"/><use transform="matrix(0.04320987654320988,0,0,0.04320987654320988,15.512345679012347,0)" xlink:href="#ax"/></g><path d="M115-3C79 11 28 4 28-45v-112H4v-33h27l15-45h31v45h36v33H77v99c-1 23 16 31 38 25v30" id="ay"/><path d="M114-157C55-157 80-60 75 0H25v-261h50l-1 109c12-26 28-41 61-42 86-1 58 113 63 194h-50c-7-57 23-157-34-157" id="az"/><path d="M135-150c-39-12-60 13-60 57V0H25l-1-190h47c2 13-1 29 3 40 6-28 27-53 61-41v41" id="aA"/><path d="M185-48c-13 30-37 53-82 52C43 2 14-33 14-96s30-98 90-98c62 0 83 45 84 108H66c0 31 8 55 39 56 18 0 30-7 34-22zm-45-69c5-46-57-63-70-21-2 6-4 13-4 21h74" id="aB"/><g id="n"><use transform="matrix(0.04320987654320988,0,0,0.04320987654320988,0,0)" xlink:href="#ay"/><use transform="matrix(0.04320987654320988,0,0,0.04320987654320988,5.1419753086419755,0)" xlink:href="#az"/><use transform="matrix(0.04320987654320988,0,0,0.04320987654320988,14.60493827160494,0)" xlink:href="#aA"/><use transform="matrix(0.04320987654320988,0,0,0.04320987654320988,20.654320987654323,0)" xlink:href="#aB"/><use transform="matrix(0.04320987654320988,0,0,0.04320987654320988,29.296296296296298,0)" xlink:href="#aB"/></g><path d="M133-34C117-15 103 5 69 4 32 3 11-16 11-54c-1-60 55-63 116-61 1-26-3-47-28-47-18 1-26 9-28 27l-52-2c7-38 36-58 82-57s74 22 75 68l1 82c-1 14 12 18 25 15v27c-30 8-71 5-69-32zm-48 3c29 0 43-24 42-57-32 0-66-3-65 30 0 17 8 27 23 27" id="aC"/><path d="M190-63c-7 42-38 67-86 67-59 0-84-38-90-98-12-110 154-137 174-36l-49 2c-2-19-15-32-35-32-30 0-35 28-38 64-6 74 65 87 74 30" id="aD"/><path d="M110-194c64 0 96 36 96 99 0 64-35 99-97 99-61 0-95-36-95-99 0-62 34-99 96-99zm-1 164c35 0 45-28 45-65 0-40-10-65-43-65-34 0-45 26-45 65 0 36 10 65 43 65" id="aE"/><path d="M137-138c1-29-70-34-71-4 15 46 118 7 119 86 1 83-164 76-172 9l43-7c4 19 20 25 44 25 33 8 57-30 24-41C81-84 22-81 20-136c-2-80 154-74 161-7" id="aF"/><g id="o"><use transform="matrix(0.04320987654320988,0,0,0.04320987654320988,0,0)" xlink:href="#aC"/><use transform="matrix(0.04320987654320988,0,0,0.04320987654320988,8.641975308641976,0)" xlink:href="#aD"/><use transform="matrix(0.04320987654320988,0,0,0.04320987654320988,17.283950617283953,0)" xlink:href="#ay"/><use transform="matrix(0.04320987654320988,0,0,0.04320987654320988,22.425925925925927,0)" xlink:href="#aE"/><use transform="matrix(0.04320987654320988,0,0,0.04320987654320988,31.888888888888893,0)" xlink:href="#aA"/><use transform="matrix(0.04320987654320988,0,0,0.04320987654320988,37.93827160493828,0)" xlink:href="#aF"/></g><g id="p"><use transform="matrix(0.04320987654320988,0,0,0.04320987654320988,0,0)" xlink:href="#aC"/><use transform="matrix(0.04320987654320988,0,0,0.04320987654320988,8.641975308641976,0)" xlink:href="#aA"/><use transform="matrix(0.04320987654320988,0,0,0.04320987654320988,14.69135802469136,0)" xlink:href="#aB"/></g><path d="M25-224v-37h50v37H25zM25 0v-190h50V0H25" id="aG"/><path d="M220-157c-53 9-28 100-34 157h-49v-107c1-27-5-49-29-50C55-147 81-57 75 0H25l-1-190h47c2 12-1 28 3 38 10-53 101-56 108 0 13-22 24-43 59-42 82 1 51 116 57 194h-49v-107c-1-25-5-48-29-50" id="aH"/><path d="M135-194c53 0 70 44 70 98 0 56-19 98-73 100-31 1-45-17-59-34 3 33 2 69 2 105H25l-1-265h48c2 10 0 23 3 31 11-24 29-35 60-35zM114-30c33 0 39-31 40-66 0-38-9-64-40-64-56 0-55 130 0 130" id="aI"/><path d="M123 10C108 53 80 86 19 72V37c35 8 53-11 59-39L3-190h52l48 148c12-52 28-100 44-148h51" id="aJ"/><g id="q"><use transform="matrix(0.04320987654320988,0,0,0.04320987654320988,0,0)" xlink:href="#aG"/><use transform="matrix(0.04320987654320988,0,0,0.04320987654320988,4.320987654320988,0)" xlink:href="#aH"/><use transform="matrix(0.04320987654320988,0,0,0.04320987654320988,18.14814814814815,0)" xlink:href="#aI"/><use transform="matrix(0.04320987654320988,0,0,0.04320987654320988,27.611111111111114,0)" xlink:href="#ax"/><use transform="matrix(0.04320987654320988,0,0,0.04320987654320988,31.9320987654321,0)" xlink:href="#aG"/><use transform="matrix(0.04320987654320988,0,0,0.04320987654320988,36.25308641975309,0)" xlink:href="#aD"/><use transform="matrix(0.04320987654320988,0,0,0.04320987654320988,44.89506172839506,0)" xlink:href="#aG"/><use transform="matrix(0.04320987654320988,0,0,0.04320987654320988,49.21604938271606,0)" xlink:href="#ay"/><use transform="matrix(0.04320987654320988,0,0,0.04320987654320988,54.35802469135802,0)" xlink:href="#ax"/><use transform="matrix(0.04320987654320988,0,0,0.04320987654320988,58.679012345679006,0)" xlink:href="#aJ"/></g><path d="M85 4C-2 5 27-109 22-190h50c7 57-23 150 33 157 60-5 35-97 40-157h50l1 190h-47c-2-12 1-28-3-38-12 25-28 42-61 42" id="aK"/><path d="M88-194c31-1 46 15 58 34l-1-101h50l1 261h-48c-2-10 0-23-3-31C134-8 116 4 84 4 32 4 16-41 15-95c0-56 19-97 73-99zm17 164c33 0 40-30 41-66 1-37-9-64-41-64s-38 30-39 65c0 43 13 65 39 65" id="aL"/><path d="M24 0v-54h51V0H24" id="aM"/><g id="r"><use transform="matrix(0.04320987654320988,0,0,0.04320987654320988,0,0)" xlink:href="#aD"/><use transform="matrix(0.04320987654320988,0,0,0.04320987654320988,8.641975308641976,0)" xlink:href="#aE"/><use transform="matrix(0.04320987654320988,0,0,0.04320987654320988,18.10493827160494,0)" xlink:href="#aK"/><use transform="matrix(0.04320987654320988,0,0,0.04320987654320988,27.567901234567906,0)" xlink:href="#aI"/><use transform="matrix(0.04320987654320988,0,0,0.04320987654320988,37.03086419753087,0)" xlink:href="#ax"/><use transform="matrix(0.04320987654320988,0,0,0.04320987654320988,41.351851851851855,0)" xlink:href="#aB"/><use transform="matrix(0.04320987654320988,0,0,0.04320987654320988,49.99382716049383,0)" xlink:href="#aL"/><use transform="matrix(0.04320987654320988,0,0,0.04320987654320988,59.456790123456784,0)" xlink:href="#aM"/></g><g id="s"><use transform="matrix(0.04320987654320988,0,0,0.04320987654320988,0,0)" xlink:href="#ad"/><use transform="matrix(0.04320987654320988,0,0,0.04320987654320988,7.777777777777779,0)" xlink:href="#ae"/><use transform="matrix(0.04320987654320988,0,0,0.04320987654320988,16.419753086419753,0)" xlink:href="#Y"/><use transform="matrix(0.04320987654320988,0,0,0.04320987654320988,19.833333333333336,0)" xlink:href="#ad"/><use transform="matrix(0.04320987654320988,0,0,0.04320987654320988,27.611111111111114,0)" xlink:href="#af"/><use transform="matrix(0.04320987654320988,0,0,0.04320987654320988,36.25308641975309,0)" xlink:href="#Y"/><use transform="matrix(0.04320987654320988,0,0,0.04320987654320988,39.66666666666667,0)" xlink:href="#ae"/><use transform="matrix(0.04320987654320988,0,0,0.04320987654320988,48.308641975308646,0)" xlink:href="#ag"/><use transform="matrix(0.04320987654320988,0,0,0.04320987654320988,52.62962962962963,0)" xlink:href="#ab"/><use transform="matrix(0.04320987654320988,0,0,0.04320987654320988,61.27160493827161,0)" xlink:href="#ah"/><use transform="matrix(0.04320987654320988,0,0,0.04320987654320988,71.64197530864197,0)" xlink:href="#ae"/><use transform="matrix(0.04320987654320988,0,0,0.04320987654320988,80.28395061728395,0)" xlink:href="#aa"/><use transform="matrix(0.04320987654320988,0,0,0.04320987654320988,88.06172839506172,0)" xlink:href="#ai"/><use transform="matrix(0.04320987654320988,0,0,0.04320987654320988,93.2037037037037,0)" xlink:href="#aj"/></g><g id="t"><use transform="matrix(0.04320987654320988,0,0,0.04320987654320988,0,0)" xlink:href="#ae"/><use transform="matrix(0.04320987654320988,0,0,0.04320987654320988,8.641975308641976,0)" xlink:href="#ap"/><use transform="matrix(0.04320987654320988,0,0,0.04320987654320988,17.283950617283953,0)" xlink:href="#av"/></g><g id="u"><use transform="matrix(0.04320987654320988,0,0,0.04320987654320988,0,0)" xlink:href="#ak"/><use transform="matrix(0.04320987654320988,0,0,0.04320987654320988,5.1419753086419755,0)" xlink:href="#ab"/><use transform="matrix(0.04320987654320988,0,0,0.04320987654320988,13.783950617283953,0)" xlink:href="#X"/><use transform="matrix(0.04320987654320988,0,0,0.04320987654320988,22.425925925925934,0)" xlink:href="#Z"/><use transform="matrix(0.04320987654320988,0,0,0.04320987654320988,31.067901234567906,0)" xlink:href="#ak"/><use transform="matrix(0.04320987654320988,0,0,0.04320987654320988,36.20987654320988,0)" xlink:href="#ag"/><use transform="matrix(0.04320987654320988,0,0,0.04320987654320988,40.53086419753087,0)" xlink:href="#al"/><use transform="matrix(0.04320987654320988,0,0,0.04320987654320988,51.72222222222223,0)" xlink:href="#Z"/><use transform="matrix(0.04320987654320988,0,0,0.04320987654320988,60.3641975308642,0)" xlink:href="#af"/><use transform="matrix(0.04320987654320988,0,0,0.04320987654320988,69.00617283950618,0)" xlink:href="#ak"/><use transform="matrix(0.04320987654320988,0,0,0.04320987654320988,74.14814814814815,0)" xlink:href="#am"/><use transform="matrix(0.04320987654320988,0,0,0.04320987654320988,81.92592592592592,0)" xlink:href="#ai"/><use transform="matrix(0.04320987654320988,0,0,0.04320987654320988,87.0679012345679,0)" xlink:href="#aj"/></g><g id="v"><use transform="matrix(0.04320987654320988,0,0,0.04320987654320988,0,0)" xlink:href="#af"/><use transform="matrix(0.04320987654320988,0,0,0.04320987654320988,8.641975308641976,0)" xlink:href="#am"/><use transform="matrix(0.04320987654320988,0,0,0.04320987654320988,16.419753086419753,0)" xlink:href="#ab"/></g><path d="M106-169C34-169 62-67 57 0H25v-261h32l-1 103c12-21 28-36 61-36 89 0 53 116 60 194h-32v-121c2-32-8-49-39-48" id="aN"/><g id="w"><use transform="matrix(0.04320987654320988,0,0,0.04320987654320988,0,0)" xlink:href="#ag"/><use transform="matrix(0.04320987654320988,0,0,0.04320987654320988,4.320987654320988,0)" xlink:href="#aN"/><use transform="matrix(0.04320987654320988,0,0,0.04320987654320988,12.962962962962964,0)" xlink:href="#ab"/></g><g id="x"><use transform="matrix(0.04320987654320988,0,0,0.04320987654320988,0,0)" xlink:href="#am"/><use transform="matrix(0.04320987654320988,0,0,0.04320987654320988,7.777777777777779,0)" xlink:href="#ae"/><use transform="matrix(0.04320987654320988,0,0,0.04320987654320988,16.419753086419753,0)" xlink:href="#W"/><use transform="matrix(0.04320987654320988,0,0,0.04320987654320988,29.339506172839503,0)" xlink:href="#ab"/></g><path d="M101-234c-31-9-42 10-38 44h38v23H63V0H32v-167H5v-23h27c-7-52 17-82 69-68v24" id="aO"/><g id="y"><use transform="matrix(0.04320987654320988,0,0,0.04320987654320988,0,0)" xlink:href="#aO"/><use transform="matrix(0.04320987654320988,0,0,0.04320987654320988,4.320987654320988,0)" xlink:href="#af"/><use transform="matrix(0.04320987654320988,0,0,0.04320987654320988,12.962962962962964,0)" xlink:href="#ap"/><use transform="matrix(0.04320987654320988,0,0,0.04320987654320988,21.604938271604944,0)" xlink:href="#ad"/><use transform="matrix(0.04320987654320988,0,0,0.04320987654320988,29.382716049382726,0)" xlink:href="#ag"/><use transform="matrix(0.04320987654320988,0,0,0.04320987654320988,33.70370370370371,0)" xlink:href="#aq"/><use transform="matrix(0.04320987654320988,0,0,0.04320987654320988,37.11728395061729,0)" xlink:href="#Z"/><use transform="matrix(0.04320987654320988,0,0,0.04320987654320988,45.75925925925927,0)" xlink:href="#ap"/></g><g id="z"><use transform="matrix(0.04320987654320988,0,0,0.04320987654320988,0,0)" xlink:href="#aq"/><use transform="matrix(0.04320987654320988,0,0,0.04320987654320988,3.4135802469135808,0)" xlink:href="#ap"/><use transform="matrix(0.04320987654320988,0,0,0.04320987654320988,12.055555555555557,0)" xlink:href="#am"/><use transform="matrix(0.04320987654320988,0,0,0.04320987654320988,19.833333333333336,0)" xlink:href="#aq"/><use transform="matrix(0.04320987654320988,0,0,0.04320987654320988,23.246913580246915,0)" xlink:href="#av"/><use transform="matrix(0.04320987654320988,0,0,0.04320987654320988,31.888888888888893,0)" xlink:href="#ab"/></g><g id="A"><use transform="matrix(0.04320987654320988,0,0,0.04320987654320988,0,0)" xlink:href="#al"/><use transform="matrix(0.04320987654320988,0,0,0.04320987654320988,11.19135802469136,0)" xlink:href="#as"/></g><path d="M145-31C134-9 116 4 85 4 32 4 16-35 15-94c0-59 17-99 70-100 32-1 48 14 60 33 0-11-1-24 2-32h30l-1 268h-32zM93-21c41 0 51-33 51-76s-8-73-50-73c-40 0-46 35-46 75s5 74 45 74" id="aP"/><g id="B"><use transform="matrix(0.04320987654320988,0,0,0.04320987654320988,0,0)" xlink:href="#ak"/><use transform="matrix(0.04320987654320988,0,0,0.04320987654320988,5.1419753086419755,0)" xlink:href="#ab"/><use transform="matrix(0.04320987654320988,0,0,0.04320987654320988,13.783950617283953,0)" xlink:href="#aP"/><use transform="matrix(0.04320987654320988,0,0,0.04320987654320988,22.425925925925934,0)" xlink:href="#af"/><use transform="matrix(0.04320987654320988,0,0,0.04320987654320988,31.067901234567906,0)" xlink:href="#ab"/><use transform="matrix(0.04320987654320988,0,0,0.04320987654320988,39.70987654320988,0)" xlink:href="#am"/><use transform="matrix(0.04320987654320988,0,0,0.04320987654320988,47.48765432098766,0)" xlink:href="#ag"/><use transform="matrix(0.04320987654320988,0,0,0.04320987654320988,51.808641975308646,0)" xlink:href="#am"/></g><g id="C"><use transform="matrix(0.04320987654320988,0,0,0.04320987654320988,0,0)" xlink:href="#ad"/><use transform="matrix(0.04320987654320988,0,0,0.04320987654320988,7.777777777777779,0)" xlink:href="#aN"/><use transform="matrix(0.04320987654320988,0,0,0.04320987654320988,16.419753086419753,0)" xlink:href="#ae"/><use transform="matrix(0.04320987654320988,0,0,0.04320987654320988,25.061728395061728,0)" xlink:href="#ap"/><use transform="matrix(0.04320987654320988,0,0,0.04320987654320988,33.7037037037037,0)" xlink:href="#ar"/><use transform="matrix(0.04320987654320988,0,0,0.04320987654320988,42.34567901234568,0)" xlink:href="#ab"/><use transform="matrix(0.04320987654320988,0,0,0.04320987654320988,50.98765432098765,0)" xlink:href="#am"/></g><g id="D"><use transform="matrix(0.04320987654320988,0,0,0.04320987654320988,0,0)" xlink:href="#aq"/><use transform="matrix(0.04320987654320988,0,0,0.04320987654320988,3.4135802469135808,0)" xlink:href="#ap"/></g><g id="E"><use transform="matrix(0.04320987654320988,0,0,0.04320987654320988,0,0)" xlink:href="#ak"/><use transform="matrix(0.04320987654320988,0,0,0.04320987654320988,5.1419753086419755,0)" xlink:href="#ab"/><use transform="matrix(0.04320987654320988,0,0,0.04320987654320988,13.783950617283953,0)" xlink:href="#X"/><use transform="matrix(0.04320987654320988,0,0,0.04320987654320988,22.425925925925934,0)" xlink:href="#Z"/><use transform="matrix(0.04320987654320988,0,0,0.04320987654320988,31.067901234567906,0)" xlink:href="#ak"/><use transform="matrix(0.04320987654320988,0,0,0.04320987654320988,36.20987654320988,0)" xlink:href="#ag"/><use transform="matrix(0.04320987654320988,0,0,0.04320987654320988,40.53086419753087,0)" xlink:href="#aq"/><use transform="matrix(0.04320987654320988,0,0,0.04320987654320988,43.94444444444445,0)" xlink:href="#ap"/><use transform="matrix(0.04320987654320988,0,0,0.04320987654320988,52.586419753086425,0)" xlink:href="#ar"/></g><g id="F"><use transform="matrix(0.04320987654320988,0,0,0.04320987654320988,0,0)" xlink:href="#aN"/><use transform="matrix(0.04320987654320988,0,0,0.04320987654320988,8.641975308641976,0)" xlink:href="#Z"/><use transform="matrix(0.04320987654320988,0,0,0.04320987654320988,17.283950617283953,0)" xlink:href="#af"/><use transform="matrix(0.04320987654320988,0,0,0.04320987654320988,25.925925925925927,0)" xlink:href="#ak"/><use transform="matrix(0.04320987654320988,0,0,0.04320987654320988,31.067901234567906,0)" xlink:href="#am"/></g><path d="M212-179c-10-28-35-45-73-45-59 0-87 40-87 99 0 60 29 101 89 101 43 0 62-24 78-52l27 14C228-24 195 4 139 4 59 4 22-46 18-125c-6-104 99-153 187-111 19 9 31 26 39 46" id="aQ"/><g id="G"><use transform="matrix(0.04320987654320988,0,0,0.04320987654320988,0,0)" xlink:href="#aQ"/><use transform="matrix(0.04320987654320988,0,0,0.04320987654320988,11.19135802469136,0)" xlink:href="#aN"/><use transform="matrix(0.04320987654320988,0,0,0.04320987654320988,19.833333333333336,0)" xlink:href="#ae"/><use transform="matrix(0.04320987654320988,0,0,0.04320987654320988,28.47530864197531,0)" xlink:href="#ap"/><use transform="matrix(0.04320987654320988,0,0,0.04320987654320988,37.117283950617285,0)" xlink:href="#ar"/><use transform="matrix(0.04320987654320988,0,0,0.04320987654320988,45.75925925925927,0)" xlink:href="#ab"/><use transform="matrix(0.04320987654320988,0,0,0.04320987654320988,54.40123456790123,0)" xlink:href="#am"/></g><g id="H"><use transform="matrix(0.04320987654320988,0,0,0.04320987654320988,0,0)" xlink:href="#W"/><use transform="matrix(0.04320987654320988,0,0,0.04320987654320988,12.919753086419755,0)" xlink:href="#ae"/><use transform="matrix(0.04320987654320988,0,0,0.04320987654320988,21.56172839506173,0)" xlink:href="#aa"/></g><g id="I"><use transform="matrix(0.04320987654320988,0,0,0.04320987654320988,0,0)" xlink:href="#ae"/><use transform="matrix(0.04320987654320988,0,0,0.04320987654320988,8.641975308641976,0)" xlink:href="#aO"/><use transform="matrix(0.04320987654320988,0,0,0.04320987654320988,12.660493827160492,0)" xlink:href="#aO"/><use transform="matrix(0.04320987654320988,0,0,0.04320987654320988,16.98148148148148,0)" xlink:href="#ab"/><use transform="matrix(0.04320987654320988,0,0,0.04320987654320988,25.623456790123456,0)" xlink:href="#ad"/><use transform="matrix(0.04320987654320988,0,0,0.04320987654320988,33.401234567901234,0)" xlink:href="#ag"/></g><g id="J"><use transform="matrix(0.04320987654320988,0,0,0.04320987654320988,0,0)" xlink:href="#ag"/><use transform="matrix(0.04320987654320988,0,0,0.04320987654320988,4.320987654320988,0)" xlink:href="#aN"/><use transform="matrix(0.04320987654320988,0,0,0.04320987654320988,12.962962962962964,0)" xlink:href="#ab"/></g><g id="K"><use transform="matrix(0.04320987654320988,0,0,0.04320987654320988,0,0)" xlink:href="#ad"/><use transform="matrix(0.04320987654320988,0,0,0.04320987654320988,7.777777777777779,0)" xlink:href="#ae"/><use transform="matrix(0.04320987654320988,0,0,0.04320987654320988,16.419753086419753,0)" xlink:href="#Y"/><use transform="matrix(0.04320987654320988,0,0,0.04320987654320988,19.833333333333336,0)" xlink:href="#ad"/><use transform="matrix(0.04320987654320988,0,0,0.04320987654320988,27.611111111111114,0)" xlink:href="#af"/><use transform="matrix(0.04320987654320988,0,0,0.04320987654320988,36.25308641975309,0)" xlink:href="#Y"/><use transform="matrix(0.04320987654320988,0,0,0.04320987654320988,39.66666666666667,0)" xlink:href="#ae"/><use transform="matrix(0.04320987654320988,0,0,0.04320987654320988,48.308641975308646,0)" xlink:href="#ag"/><use transform="matrix(0.04320987654320988,0,0,0.04320987654320988,52.62962962962963,0)" xlink:href="#ab"/><use transform="matrix(0.04320987654320988,0,0,0.04320987654320988,61.27160493827161,0)" xlink:href="#ah"/><use transform="matrix(0.04320987654320988,0,0,0.04320987654320988,71.64197530864197,0)" xlink:href="#ae"/><use transform="matrix(0.04320987654320988,0,0,0.04320987654320988,80.28395061728395,0)" xlink:href="#aa"/><use transform="matrix(0.04320987654320988,0,0,0.04320987654320988,88.06172839506172,0)" xlink:href="#ai"/><use transform="matrix(0.04320987654320988,0,0,0.04320987654320988,93.2037037037037,0)" xlink:href="#aj"/></g><path d="M16-82v-28h88v28H16" id="aR"/><use transform="matrix(0.04320987654320988,0,0,0.04320987654320988,0,0)" xlink:href="#aR" id="L"/><g id="M"><use transform="matrix(0.04320987654320988,0,0,0.04320987654320988,0,0)" xlink:href="#ao"/><use transform="matrix(0.04320987654320988,0,0,0.04320987654320988,10.370370370370372,0)" xlink:href="#ad"/><use transform="matrix(0.04320987654320988,0,0,0.04320987654320988,18.148148148148152,0)" xlink:href="#ad"/><use transform="matrix(0.04320987654320988,0,0,0.04320987654320988,25.925925925925927,0)" xlink:href="#Z"/><use transform="matrix(0.04320987654320988,0,0,0.04320987654320988,34.567901234567906,0)" xlink:href="#af"/><use transform="matrix(0.04320987654320988,0,0,0.04320987654320988,43.20987654320988,0)" xlink:href="#ap"/><use transform="matrix(0.04320987654320988,0,0,0.04320987654320988,51.851851851851855,0)" xlink:href="#ag"/><use transform="matrix(0.04320987654320988,0,0,0.04320987654320988,56.17283950617284,0)" xlink:href="#aq"/><use transform="matrix(0.04320987654320988,0,0,0.04320987654320988,59.586419753086425,0)" xlink:href="#ap"/><use transform="matrix(0.04320987654320988,0,0,0.04320987654320988,68.2283950617284,0)" xlink:href="#ar"/></g><path d="M63-70H37l-4-178h34zM33 0v-35h34V0H33" id="aS"/><g id="N"><use transform="matrix(0.04320987654320988,0,0,0.04320987654320988,0,0)" xlink:href="#X"/><use transform="matrix(0.04320987654320988,0,0,0.04320987654320988,8.641975308641976,0)" xlink:href="#ae"/><use transform="matrix(0.04320987654320988,0,0,0.04320987654320988,17.283950617283953,0)" xlink:href="#ak"/><use transform="matrix(0.04320987654320988,0,0,0.04320987654320988,22.425925925925927,0)" xlink:href="#ag"/><use transform="matrix(0.04320987654320988,0,0,0.04320987654320988,26.746913580246915,0)" xlink:href="#aS"/></g><path d="M24-248c93 1 206-16 204 79-1 75-69 88-152 82V0H24v-248zm52 121c47 0 100 7 100-41 0-47-54-39-100-39v80" id="aT"/><path d="M135-194c52 0 70 43 70 98 0 56-19 99-73 100-30 1-46-15-58-35L72 0H24l1-261h50v104c11-23 29-37 60-37zM114-30c31 0 40-27 40-66 0-37-7-63-39-63s-41 28-41 65c0 36 8 64 40 64" id="aU"/><g id="O"><use transform="matrix(0.07788720538720535,0,0,0.07788720538720535,0,0)" xlink:href="#aT"/><use transform="matrix(0.07788720538720535,0,0,0.07788720538720535,18.692929292929286,0)" xlink:href="#aA"/><use transform="matrix(0.07788720538720535,0,0,0.07788720538720535,29.597138047138035,0)" xlink:href="#aE"/><use transform="matrix(0.07788720538720535,0,0,0.07788720538720535,46.65443602693602,0)" xlink:href="#aU"/><use transform="matrix(0.07788720538720535,0,0,0.07788720538720535,63.711734006733984,0)" xlink:href="#ax"/><use transform="matrix(0.07788720538720535,0,0,0.07788720538720535,71.50045454545452,0)" xlink:href="#aB"/><use transform="matrix(0.07788720538720535,0,0,0.07788720538720535,87.07789562289558,0)" xlink:href="#aH"/><use transform="matrix(0.07788720538720535,0,0,0.07788720538720535,112.0018013468013,0)" xlink:href="#aC"/><use transform="matrix(0.07788720538720535,0,0,0.07788720538720535,127.57924242424237,0)" xlink:href="#ay"/><use transform="matrix(0.07788720538720535,0,0,0.07788720538720535,136.8478198653198,0)" xlink:href="#aG"/><use transform="matrix(0.07788720538720535,0,0,0.07788720538720535,144.63654040404032,0)" xlink:href="#aD"/></g><path d="M195-6C206 82 75 100 31 46c-4-6-6-13-8-21l49-6c3 16 16 24 34 25 40 0 42-37 40-79-11 22-30 35-61 35-53 0-70-43-70-97 0-56 18-96 73-97 30 0 46 14 59 34l2-30h47zm-90-29c32 0 41-27 41-63 0-35-9-62-40-62-32 0-39 29-40 63 0 36 9 62 39 62" id="aV"/><path d="M135-194c87-1 58 113 63 194h-50c-7-57 23-157-34-157-59 0-34 97-39 157H25l-1-190h47c2 12-1 28 3 38 12-26 28-41 61-42" id="aW"/><g id="P"><use transform="matrix(0.07788720538720535,0,0,0.07788720538720535,0,0)" xlink:href="#aL"/><use transform="matrix(0.07788720538720535,0,0,0.07788720538720535,17.057297979797973,0)" xlink:href="#aB"/><use transform="matrix(0.07788720538720535,0,0,0.07788720538720535,32.634739057239045,0)" xlink:href="#aF"/><use transform="matrix(0.07788720538720535,0,0,0.07788720538720535,48.212180134680125,0)" xlink:href="#aG"/><use transform="matrix(0.07788720538720535,0,0,0.07788720538720535,56.00090067340065,0)" xlink:href="#aV"/><use transform="matrix(0.07788720538720535,0,0,0.07788720538720535,73.05819865319862,0)" xlink:href="#aW"/></g><path d="M14-72v-43h91v43H14" id="aX"/><use transform="matrix(0.07788720538720535,0,0,0.07788720538720535,0,0)" xlink:href="#aX" id="Q"/><path d="M169-182c-1-43-94-46-97-3 18 66 151 10 154 114 3 95-165 93-204 36-6-8-10-19-12-30l50-8c3 46 112 56 116 5-17-69-150-10-154-114-4-87 153-88 188-35 5 8 8 18 10 28" id="aY"/><path d="M240-174c0 40-23 61-54 70L253 0h-59l-57-94H76V0H24v-248c93 4 217-23 216 74zM76-134c48-2 112 12 112-38 0-48-66-32-112-35v73" id="aZ"/><g id="R"><use transform="matrix(0.07788720538720535,0,0,0.07788720538720535,0,0)" xlink:href="#aY"/><use transform="matrix(0.07788720538720535,0,0,0.07788720538720535,18.692929292929286,0)" xlink:href="#aZ"/><use transform="matrix(0.07788720538720535,0,0,0.07788720538720535,38.86571548821547,0)" xlink:href="#aT"/></g><path d="M128 0H69L1-190h53L99-40l48-150h52" id="ba"/><g id="S"><use transform="matrix(0.07788720538720535,0,0,0.07788720538720535,0,0)" xlink:href="#ba"/><use transform="matrix(0.07788720538720535,0,0,0.07788720538720535,15.57744107744107,0)" xlink:href="#aG"/><use transform="matrix(0.07788720538720535,0,0,0.07788720538720535,23.366161616161605,0)" xlink:href="#aE"/><use transform="matrix(0.07788720538720535,0,0,0.07788720538720535,40.42345959595958,0)" xlink:href="#ax"/><use transform="matrix(0.07788720538720535,0,0,0.07788720538720535,48.21218013468011,0)" xlink:href="#aC"/><use transform="matrix(0.07788720538720535,0,0,0.07788720538720535,63.78962121212118,0)" xlink:href="#ay"/><use transform="matrix(0.07788720538720535,0,0,0.07788720538720535,73.05819865319862,0)" xlink:href="#aG"/><use transform="matrix(0.07788720538720535,0,0,0.07788720538720535,80.84691919191916,0)" xlink:href="#aE"/><use transform="matrix(0.07788720538720535,0,0,0.07788720538720535,97.90421717171712,0)" xlink:href="#aW"/></g><g id="T"><use transform="matrix(0.051924803591470226,0,0,0.051924803591470226,0,0)" xlink:href="#aT"/><use transform="matrix(0.051924803591470226,0,0,0.051924803591470226,12.461952861952854,0)" xlink:href="#aA"/><use transform="matrix(0.051924803591470226,0,0,0.051924803591470226,19.731425364758685,0)" xlink:href="#aE"/><use transform="matrix(0.051924803591470226,0,0,0.051924803591470226,31.102957351290666,0)" xlink:href="#aU"/><use transform="matrix(0.051924803591470226,0,0,0.051924803591470226,42.47448933782264,0)" xlink:href="#ax"/><use transform="matrix(0.051924803591470226,0,0,0.051924803591470226,47.66696969696966,0)" xlink:href="#aB"/><use transform="matrix(0.051924803591470226,0,0,0.051924803591470226,58.0519304152637,0)" xlink:href="#aH"/><use transform="matrix(0.051924803591470226,0,0,0.051924803591470226,74.66786756453418,0)" xlink:href="#aC"/><use transform="matrix(0.051924803591470226,0,0,0.051924803591470226,85.05282828282822,0)" xlink:href="#ay"/><use transform="matrix(0.051924803591470226,0,0,0.051924803591470226,91.23187991021317,0)" xlink:href="#aG"/><use transform="matrix(0.051924803591470226,0,0,0.051924803591470226,96.42436026936019,0)" xlink:href="#aD"/></g><g id="U"><use transform="matrix(0.051924803591470226,0,0,0.051924803591470226,0,0)" xlink:href="#aD"/><use transform="matrix(0.051924803591470226,0,0,0.051924803591470226,10.384960718294046,0)" xlink:href="#aC"/><use transform="matrix(0.051924803591470226,0,0,0.051924803591470226,20.769921436588092,0)" xlink:href="#aF"/><use transform="matrix(0.051924803591470226,0,0,0.051924803591470226,31.154882154882134,0)" xlink:href="#aB"/></g></defs></g></svg>