<svg xmlns="http://www.w3.org/2000/svg" xmlns:xlink="http://www.w3.org/1999/xlink" xmlns:lucid="lucid" width="1313.33" height="494.25"><g transform="translate(-60 -45.749999999999986)" lucid:page-tab-id="0_0"><path d="M120 220h160v120c-26.72-20.04-43.36-20.04-53.44-20.04-16 0-37.28 20.04-53.28 20.04-9.92 0-26.72 0-53.28-20.04z" stroke="#000" stroke-width="2" fill="#fff"/><use xlink:href="#a" transform="matrix(1,0,0,1,125,225) translate(28.15 48.6)"/><use xlink:href="#b" transform="matrix(1,0,0,1,125,225) translate(74 48.6)"/><path d="M380 220h160v120H380z" stroke="#000" stroke-width="2" fill="#fff"/><path d="M396 220v120m128-120v120" stroke="#000" stroke-width="2" fill="none"/><use xlink:href="#c" transform="matrix(1,0,0,1,405,225) translate(37.025 58.6)"/><path d="M281 280h79.5" stroke="#000" stroke-width="2" fill="none"/><path d="M281 281h-1v-2h1z"/><path d="M375.76 280l-14.26 4.64v-9.28z" stroke="#000" stroke-width="2"/><path d="M640 220h160v120c-26.72-20.04-43.36-20.04-53.44-20.04-16 0-37.28 20.04-53.28 20.04-9.92 0-26.72 0-53.28-20.04z" stroke="#000" stroke-width="2" fill="#fff"/><use xlink:href="#d" transform="matrix(1,0,0,1,645,225) translate(33.355555555555554 34.86666666666666)"/><use xlink:href="#e" transform="matrix(1,0,0,1,645,225) translate(74.11111111111111 34.86666666666666)"/><use xlink:href="#f" transform="matrix(1,0,0,1,645,225) translate(19.20000000000001 61.53333333333333)"/><path d="M900 220h160v120H900z" stroke="#000" stroke-width="2" fill="#fff"/><path d="M916 220v120m128-120v120" stroke="#000" stroke-width="2" fill="none"/><use xlink:href="#g" transform="matrix(1,0,0,1,925,225) translate(32.55 58.6)"/><path d="M801 280h79.5" stroke="#000" stroke-width="2" fill="none"/><path d="M801 281h-1v-2h1z"/><path d="M895.76 280l-14.26 4.64v-9.28z" stroke="#000" stroke-width="2"/><path d="M1160 220h160v120c-26.72-20.04-43.36-20.04-53.44-20.04-16 0-37.28 20.04-53.28 20.04-9.92 0-26.72 0-53.28-20.04z" stroke="#000" stroke-width="2" fill="#fff"/><use xlink:href="#a" transform="matrix(1,0,0,1,1165,225) translate(28.15 48.6)"/><use xlink:href="#b" transform="matrix(1,0,0,1,1165,225) translate(74 48.6)"/><path d="M1061 280h79.5" stroke="#000" stroke-width="2" fill="none"/><path d="M1061 281h-1v-2h1z"/><path d="M1155.76 280l-14.26 4.64v-9.28z" stroke="#000" stroke-width="2"/><path d="M541 280h79.5" stroke="#000" stroke-width="2" fill="none"/><path d="M541 281h-1v-2h1z"/><path d="M635.76 280l-14.26 4.64v-9.28z" stroke="#000" stroke-width="2"/><path d="M380 400c26.56 19.92 43.36 19.92 53.28 19.92 16 0 37.28-19.92 53.28-19.92 10.08 0 26.72 0 53.44 19.92V520c-26.72-20.04-43.36-20.04-53.44-20.04-16 0-37.28 20.04-53.28 20.04-9.92 0-26.72 0-53.28-20.04z" stroke="#000" stroke-width="2" fill="#ffbbb1"/><use xlink:href="#h" transform="matrix(1,0,0,1,385,405) translate(30.549999999999997 58.6)"/><use xlink:href="#i" transform="matrix(1,0,0,1,385,405) translate(91.44999999999999 58.6)"/><path d="M460 408.97V359.5" stroke="#000" stroke-width="2" fill="none"/><path d="M461 409.6l-2 1v-1.63h2z"/><path d="M460 344.24l4.64 14.26h-9.28z" stroke="#000" stroke-width="2"/><path d="M900 400c26.56 19.92 43.36 19.92 53.28 19.92 16 0 37.28-19.92 53.28-19.92 10.08 0 26.72 0 53.44 19.92V520c-26.72-20.04-43.36-20.04-53.44-20.04-16 0-37.28 20.04-53.28 20.04-9.92 0-26.72 0-53.28-20.04z" stroke="#000" stroke-width="2" fill="#c7e8ac"/><use xlink:href="#j" transform="matrix(1,0,0,1,905,405) translate(34.05 58.6)"/><use xlink:href="#i" transform="matrix(1,0,0,1,905,405) translate(87.95 58.6)"/><path d="M980 408.97V359.5" stroke="#000" stroke-width="2" fill="none"/><path d="M981 409.6l-2 1v-1.63h2z"/><path d="M980 344.24l4.64 14.26h-9.28z" stroke="#000" stroke-width="2"/><g fill="none"><path d="M80 220v-80h493.33v80z"/><path d="M573.33 220c0-17.03-13.8-30.83-30.83-30.83h-185c-17.03 0-30.83-13.8-30.83-30.84 0 17.03-13.8 30.84-30.84 30.84h-185C93.8 189.17 80 202.97 80 220" stroke="#0c7cba" stroke-width="2"/></g><g><use xlink:href="#k" transform="matrix(6.123233995736766e-17,-1,1,6.123233995736766e-17,85.00000000000003,138.75) translate(0 245.6)"/></g><g fill="none"><path d="M860 220v-80h493.33v80z"/><path d="M1353.33 220c0-17.03-13.8-30.83-30.83-30.83h-185c-17.03 0-30.83-13.8-30.83-30.84 0 17.03-13.8 30.84-30.84 30.84h-185c-17.03 0-30.83 13.8-30.83 30.83" stroke="#0c7cba" stroke-width="2"/></g><g><use xlink:href="#l" transform="matrix(6.123233995736766e-17,-1,1,6.123233995736766e-17,865.0000000000001,138.75) translate(0 245.6)"/></g><defs><path d="M197 0v-115H63V0H30v-248h33v105h134v-105h34V0h-34" id="m"/><path d="M100-194c63 0 86 42 84 106H49c0 40 14 67 53 68 26 1 43-12 49-29l28 8c-11 28-37 45-77 45C44 4 14-33 15-96c1-61 26-98 85-98zm52 81c6-60-76-77-97-28-3 7-6 17-6 28h103" id="n"/><path d="M24 0v-261h32V0H24" id="o"/><path d="M100-194c62-1 85 37 85 99 1 63-27 99-86 99S16-35 15-95c0-66 28-99 85-99zM99-20c44 1 53-31 53-75 0-43-8-75-51-75s-53 32-53 75 10 74 51 75" id="p"/><g id="a"><use transform="matrix(0.05,0,0,0.05,0,0)" xlink:href="#m"/><use transform="matrix(0.05,0,0,0.05,12.950000000000001,0)" xlink:href="#n"/><use transform="matrix(0.05,0,0,0.05,22.950000000000003,0)" xlink:href="#o"/><use transform="matrix(0.05,0,0,0.05,26.900000000000002,0)" xlink:href="#o"/><use transform="matrix(0.05,0,0,0.05,30.85,0)" xlink:href="#p"/></g><path d="M206 0h-36l-40-164L89 0H53L-1-190h32L70-26l43-164h34l41 164 42-164h31" id="q"/><path d="M114-163C36-179 61-72 57 0H25l-1-190h30c1 12-1 29 2 39 6-27 23-49 58-41v29" id="r"/><path d="M85-194c31 0 48 13 60 33l-1-100h32l1 261h-30c-2-10 0-23-3-31C134-8 116 4 85 4 32 4 16-35 15-94c0-66 23-100 70-100zm9 24c-40 0-46 34-46 75 0 40 6 74 45 74 42 0 51-32 51-76 0-42-9-74-50-73" id="s"/><path d="M63-70H37l-4-178h34zM33 0v-35h34V0H33" id="t"/><g id="b"><use transform="matrix(0.05,0,0,0.05,0,0)" xlink:href="#q"/><use transform="matrix(0.05,0,0,0.05,12.950000000000001,0)" xlink:href="#p"/><use transform="matrix(0.05,0,0,0.05,22.950000000000003,0)" xlink:href="#r"/><use transform="matrix(0.05,0,0,0.05,28.900000000000002,0)" xlink:href="#o"/><use transform="matrix(0.05,0,0,0.05,32.85,0)" xlink:href="#s"/><use transform="matrix(0.05,0,0,0.05,42.85,0)" xlink:href="#t"/></g><path d="M185-189c-5-48-123-54-124 2 14 75 158 14 163 119 3 78-121 87-175 55-17-10-28-26-33-46l33-7c5 56 141 63 141-1 0-78-155-14-162-118-5-82 145-84 179-34 5 7 8 16 11 25" id="u"/><path d="M24-231v-30h32v30H24zM24 0v-190h32V0H24" id="v"/><path d="M177-190C167-65 218 103 67 71c-23-6-38-20-44-43l32-5c15 47 100 32 89-28v-30C133-14 115 1 83 1 29 1 15-40 15-95c0-56 16-97 71-98 29-1 48 16 59 35 1-10 0-23 2-32h30zM94-22c36 0 50-32 50-73 0-42-14-75-50-75-39 0-46 34-46 75s6 73 46 73" id="w"/><path d="M117-194c89-4 53 116 60 194h-32v-121c0-31-8-49-39-48C34-167 62-67 57 0H25l-1-190h30c1 10-1 24 2 32 11-22 29-35 61-36" id="x"/><g id="c"><use transform="matrix(0.05,0,0,0.05,0,0)" xlink:href="#u"/><use transform="matrix(0.05,0,0,0.05,12,0)" xlink:href="#v"/><use transform="matrix(0.05,0,0,0.05,15.949999999999998,0)" xlink:href="#w"/><use transform="matrix(0.05,0,0,0.05,25.950000000000003,0)" xlink:href="#x"/></g><g id="d"><use transform="matrix(0.044444444444444446,0,0,0.044444444444444446,0,0)" xlink:href="#m"/><use transform="matrix(0.044444444444444446,0,0,0.044444444444444446,11.511111111111111,0)" xlink:href="#n"/><use transform="matrix(0.044444444444444446,0,0,0.044444444444444446,20.4,0)" xlink:href="#o"/><use transform="matrix(0.044444444444444446,0,0,0.044444444444444446,23.91111111111111,0)" xlink:href="#o"/><use transform="matrix(0.044444444444444446,0,0,0.044444444444444446,27.422222222222224,0)" xlink:href="#p"/></g><g id="e"><use transform="matrix(0.044444444444444446,0,0,0.044444444444444446,0,0)" xlink:href="#q"/><use transform="matrix(0.044444444444444446,0,0,0.044444444444444446,11.511111111111111,0)" xlink:href="#p"/><use transform="matrix(0.044444444444444446,0,0,0.044444444444444446,20.4,0)" xlink:href="#r"/><use transform="matrix(0.044444444444444446,0,0,0.044444444444444446,25.688888888888886,0)" xlink:href="#o"/><use transform="matrix(0.044444444444444446,0,0,0.044444444444444446,29.199999999999996,0)" xlink:href="#s"/><use transform="matrix(0.044444444444444446,0,0,0.044444444444444446,38.08888888888889,0)" xlink:href="#t"/></g><path d="M99-269c9-18 26-28 38-43h37v5l-55 38H99zM232-93c-1 65-40 97-104 97C67 4 28-28 28-90v-158h33c8 89-33 224 67 224 102 0 64-133 71-224h33v155" id="y"/><path d="M33 0v-38h34V0H33" id="z"/><path d="M135-143c-3-34-86-38-87 0 15 53 115 12 119 90S17 21 10-45l28-5c4 36 97 45 98 0-10-56-113-15-118-90-4-57 82-63 122-42 12 7 21 19 24 35" id="A"/><path d="M34 0v-190h32V0H34zm36-214v-33h29v33H70zm-69 0v-33h29v33H1" id="B"/><path d="M32 76v-337h29V76H32" id="C"/><path d="M64 0c3-98 48-159 88-221H18v-27h164v26C143-157 98-101 97 0H64" id="D"/><path d="M103-251c84 0 111 97 45 133-19 10-37 24-39 52H78c0-63 77-55 77-114 0-30-21-42-52-43-32 0-53 17-56 46l-32-2c7-45 34-72 88-72zM77 0v-35h34V0H77" id="E"/><path d="M127-220V0H93v-220H8v-28h204v28h-85" id="F"/><path d="M85 4C-4 8 31-112 24-190h32v120c0 31 7 50 39 49 72-2 45-101 50-169h31l1 190h-30c-1-10 1-25-2-33-11 22-28 36-60 37zm34-218v-33h29v33h-29zm-69 0v-33h29v33H50" id="G"/><path d="M31-209c-2-70 138-68 145-6l-28 3c-3-36-88-36-89 0 12 56 121 17 121 91 0 27-17 41-38 48 19 10 37 21 37 48 2 76-153 72-159 7l29-5c2 42 101 43 102 0-13-58-124-24-124-95 0-26 18-41 40-47-20-7-36-18-36-44zm24 89c4 42 95 53 97 3-4-43-95-54-97-3" id="H"/><path d="M100-194c63 0 86 42 84 106H49c0 40 14 67 53 68 26 1 43-12 49-29l28 8c-11 28-37 45-77 45C44 4 14-33 15-96c1-61 26-98 85-98zm52 81c6-60-76-77-97-28-3 7-6 17-6 28h103zm-31-101v-33h29v33h-29zm-69 0v-33h29v33H52" id="I"/><g id="f"><use transform="matrix(0.044444444444444446,0,0,0.044444444444444446,0,0)" xlink:href="#y"/><use transform="matrix(0.044444444444444446,0,0,0.044444444444444446,11.511111111111111,0)" xlink:href="#t"/><use transform="matrix(0.044444444444444446,0,0,0.044444444444444446,15.955555555555556,0)" xlink:href="#z"/><use transform="matrix(0.044444444444444446,0,0,0.044444444444444446,20.4,0)" xlink:href="#z"/><use transform="matrix(0.044444444444444446,0,0,0.044444444444444446,24.84444444444444,0)" xlink:href="#A"/><use transform="matrix(0.044444444444444446,0,0,0.044444444444444446,32.84444444444444,0)" xlink:href="#B"/><use transform="matrix(0.044444444444444446,0,0,0.044444444444444446,37.288888888888884,0)" xlink:href="#z"/><use transform="matrix(0.044444444444444446,0,0,0.044444444444444446,41.73333333333333,0)" xlink:href="#C"/><use transform="matrix(0.044444444444444446,0,0,0.044444444444444446,45.86666666666666,0)" xlink:href="#D"/><use transform="matrix(0.044444444444444446,0,0,0.044444444444444446,54.755555555555546,0)" xlink:href="#E"/><use transform="matrix(0.044444444444444446,0,0,0.044444444444444446,63.644444444444424,0)" xlink:href="#F"/><use transform="matrix(0.044444444444444446,0,0,0.044444444444444446,71.6,0)" xlink:href="#z"/><use transform="matrix(0.044444444444444446,0,0,0.044444444444444446,76.04444444444444,0)" xlink:href="#G"/><use transform="matrix(0.044444444444444446,0,0,0.044444444444444446,93.82222222222221,0)" xlink:href="#H"/><use transform="matrix(0.044444444444444446,0,0,0.044444444444444446,102.7111111111111,0)" xlink:href="#I"/></g><path d="M137 0h-34L2-248h35l83 218 83-218h36" id="J"/><path d="M101-234c-31-9-42 10-38 44h38v23H63V0H32v-167H5v-23h27c-7-52 17-82 69-68v24" id="K"/><path d="M179-190L93 31C79 59 56 82 12 73V49c39 6 53-20 64-50L1-190h34L92-34l54-156h33" id="L"/><g id="g"><use transform="matrix(0.05,0,0,0.05,0,0)" xlink:href="#J"/><use transform="matrix(0.05,0,0,0.05,11,0)" xlink:href="#n"/><use transform="matrix(0.05,0,0,0.05,21,0)" xlink:href="#r"/><use transform="matrix(0.05,0,0,0.05,26.950000000000003,0)" xlink:href="#v"/><use transform="matrix(0.05,0,0,0.05,30.899999999999995,0)" xlink:href="#K"/><use transform="matrix(0.05,0,0,0.05,35.9,0)" xlink:href="#L"/></g><path d="M30-248c87 1 191-15 191 75 0 78-77 80-158 76V0H30v-248zm33 125c57 0 124 11 124-50 0-59-68-47-124-48v98" id="M"/><path d="M108 0H70L1-190h34L89-25l56-165h34" id="N"/><path d="M141-36C126-15 110 5 73 4 37 3 15-17 15-53c-1-64 63-63 125-63 3-35-9-54-41-54-24 1-41 7-42 31l-33-3c5-37 33-52 76-52 45 0 72 20 72 64v82c-1 20 7 32 28 27v20c-31 9-61-2-59-35zM48-53c0 20 12 33 32 33 41-3 63-29 60-74-43 2-92-5-92 41" id="O"/><path d="M59-47c-2 24 18 29 38 22v24C64 9 27 4 27-40v-127H5v-23h24l9-43h21v43h35v23H59v120" id="P"/><g id="h"><use transform="matrix(0.05,0,0,0.05,0,0)" xlink:href="#M"/><use transform="matrix(0.05,0,0,0.05,12,0)" xlink:href="#r"/><use transform="matrix(0.05,0,0,0.05,17.95,0)" xlink:href="#v"/><use transform="matrix(0.05,0,0,0.05,21.9,0)" xlink:href="#N"/><use transform="matrix(0.05,0,0,0.05,30.899999999999995,0)" xlink:href="#O"/><use transform="matrix(0.05,0,0,0.05,40.9,0)" xlink:href="#P"/><use transform="matrix(0.05,0,0,0.05,45.9,0)" xlink:href="#n"/></g><path d="M143 0L79-87 56-68V0H24v-261h32v163l83-92h37l-77 82L181 0h-38" id="Q"/><g id="i"><use transform="matrix(0.05,0,0,0.05,0,0)" xlink:href="#Q"/><use transform="matrix(0.05,0,0,0.05,9,0)" xlink:href="#n"/><use transform="matrix(0.05,0,0,0.05,19,0)" xlink:href="#L"/></g><path d="M84 4C-5 8 30-112 23-190h32v120c0 31 7 50 39 49 72-2 45-101 50-169h31l1 190h-30c-1-10 1-25-2-33-11 22-28 36-60 37" id="R"/><path d="M115-194c53 0 69 39 70 98 0 66-23 100-70 100C84 3 66-7 56-30L54 0H23l1-261h32v101c10-23 28-34 59-34zm-8 174c40 0 45-34 45-75 0-40-5-75-45-74-42 0-51 32-51 76 0 43 10 73 51 73" id="S"/><path d="M96-169c-40 0-48 33-48 73s9 75 48 75c24 0 41-14 43-38l32 2c-6 37-31 61-74 61-59 0-76-41-82-99-10-93 101-131 147-64 4 7 5 14 7 22l-32 3c-4-21-16-35-41-35" id="T"/><g id="j"><use transform="matrix(0.05,0,0,0.05,0,0)" xlink:href="#M"/><use transform="matrix(0.05,0,0,0.05,12,0)" xlink:href="#R"/><use transform="matrix(0.05,0,0,0.05,22,0)" xlink:href="#S"/><use transform="matrix(0.05,0,0,0.05,32,0)" xlink:href="#o"/><use transform="matrix(0.05,0,0,0.05,35.95,0)" xlink:href="#v"/><use transform="matrix(0.05,0,0,0.05,39.900000000000006,0)" xlink:href="#T"/></g><path fill="#0c7cba" d="M185-189c-5-48-123-54-124 2 14 75 158 14 163 119 3 78-121 87-175 55-17-10-28-26-33-46l33-7c5 56 141 63 141-1 0-78-155-14-162-118-5-82 145-84 179-34 5 7 8 16 11 25" id="U"/><path fill="#0c7cba" d="M100-194c63 0 86 42 84 106H49c0 40 14 67 53 68 26 1 43-12 49-29l28 8c-11 28-37 45-77 45C44 4 14-33 15-96c1-61 26-98 85-98zm52 81c6-60-76-77-97-28-3 7-6 17-6 28h103" id="V"/><path fill="#0c7cba" d="M117-194c89-4 53 116 60 194h-32v-121c0-31-8-49-39-48C34-167 62-67 57 0H25l-1-190h30c1 10-1 24 2 32 11-22 29-35 61-36" id="W"/><path fill="#0c7cba" d="M85-194c31 0 48 13 60 33l-1-100h32l1 261h-30c-2-10 0-23-3-31C134-8 116 4 85 4 32 4 16-35 15-94c0-66 23-100 70-100zm9 24c-40 0-46 34-46 75 0 40 6 74 45 74 42 0 51-32 51-76 0-42-9-74-50-73" id="X"/><path fill="#0c7cba" d="M114-163C36-179 61-72 57 0H25l-1-190h30c1 12-1 29 2 39 6-27 23-49 58-41v29" id="Y"/><g id="k"><use transform="matrix(0.05,0,0,0.05,0,0)" xlink:href="#U"/><use transform="matrix(0.05,0,0,0.05,12,0)" xlink:href="#V"/><use transform="matrix(0.05,0,0,0.05,22,0)" xlink:href="#W"/><use transform="matrix(0.05,0,0,0.05,32,0)" xlink:href="#X"/><use transform="matrix(0.05,0,0,0.05,42,0)" xlink:href="#V"/><use transform="matrix(0.05,0,0,0.05,52,0)" xlink:href="#Y"/></g><path fill="#0c7cba" d="M233-177c-1 41-23 64-60 70L243 0h-38l-65-103H63V0H30v-248c88 3 205-21 203 71zM63-129c60-2 137 13 137-47 0-61-80-42-137-45v92" id="Z"/><path fill="#0c7cba" d="M96-169c-40 0-48 33-48 73s9 75 48 75c24 0 41-14 43-38l32 2c-6 37-31 61-74 61-59 0-76-41-82-99-10-93 101-131 147-64 4 7 5 14 7 22l-32 3c-4-21-16-35-41-35" id="aa"/><path fill="#0c7cba" d="M24-231v-30h32v30H24zM24 0v-190h32V0H24" id="ab"/><path fill="#0c7cba" d="M108 0H70L1-190h34L89-25l56-165h34" id="ac"/><g id="l"><use transform="matrix(0.05,0,0,0.05,0,0)" xlink:href="#Z"/><use transform="matrix(0.05,0,0,0.05,12.950000000000001,0)" xlink:href="#V"/><use transform="matrix(0.05,0,0,0.05,22.950000000000003,0)" xlink:href="#aa"/><use transform="matrix(0.05,0,0,0.05,31.950000000000003,0)" xlink:href="#V"/><use transform="matrix(0.05,0,0,0.05,41.95,0)" xlink:href="#ab"/><use transform="matrix(0.05,0,0,0.05,45.900000000000006,0)" xlink:href="#ac"/><use transform="matrix(0.05,0,0,0.05,54.900000000000006,0)" xlink:href="#V"/><use transform="matrix(0.05,0,0,0.05,64.9,0)" xlink:href="#Y"/></g></defs></g></svg>