<svg xmlns="http://www.w3.org/2000/svg" xmlns:xlink="http://www.w3.org/1999/xlink" xmlns:lucid="lucid" width="1240" height="340"><g transform="translate(-100 -120)" lucid:page-tab-id="0_0"><path d="M120 140h160v120c-26.72-20.04-43.36-20.04-53.44-20.04-16 0-37.28 20.04-53.28 20.04-9.92 0-26.72 0-53.28-20.04z" stroke="#000" stroke-width="2" fill="#fff"/><use xlink:href="#a" transform="matrix(1,0,0,1,125,145) translate(28.15 48.6)"/><use xlink:href="#b" transform="matrix(1,0,0,1,125,145) translate(74 48.6)"/><path d="M380 140h160v120H380z" stroke="#000" stroke-width="2" fill="#fff"/><path d="M396 140v120m128-120v120" stroke="#000" stroke-width="2" fill="none"/><use xlink:href="#c" transform="matrix(1,0,0,1,405,145) translate(12.549999999999997 47.8)"/><use xlink:href="#d" transform="matrix(1,0,0,1,405,145) translate(18.099999999999994 69.4)"/><path d="M281 200h79.5" stroke="#000" stroke-width="2" fill="none"/><path d="M281 201h-1v-2h1z"/><path d="M375.76 200l-14.26 4.64v-9.28z" stroke="#000" stroke-width="2"/><path d="M640 140h160v120c-26.72-20.04-43.36-20.04-53.44-20.04-16 0-37.28 20.04-53.28 20.04-9.92 0-26.72 0-53.28-20.04z" stroke="#000" stroke-width="2" fill="#fff"/><use xlink:href="#e" transform="matrix(1,0,0,1,645,145) translate(19.20000000000001 48.2)"/><path d="M900 140h160v120H900z" stroke="#000" stroke-width="2" fill="#fff"/><path d="M916 140v120m128-120v120" stroke="#000" stroke-width="2" fill="none"/><use xlink:href="#f" transform="matrix(1,0,0,1,925,145) translate(12.074999999999996 47.8)"/><use xlink:href="#d" transform="matrix(1,0,0,1,925,145) translate(18.099999999999994 69.4)"/><path d="M801 200h79.5" stroke="#000" stroke-width="2" fill="none"/><path d="M801 201h-1v-2h1z"/><path d="M895.76 200l-14.26 4.64v-9.28z" stroke="#000" stroke-width="2"/><path d="M1160 140h160v120c-26.72-20.04-43.36-20.04-53.44-20.04-16 0-37.28 20.04-53.28 20.04-9.92 0-26.72 0-53.28-20.04z" stroke="#000" stroke-width="2" fill="#fff"/><use xlink:href="#a" transform="matrix(1,0,0,1,1165,145) translate(28.15 48.6)"/><use xlink:href="#b" transform="matrix(1,0,0,1,1165,145) translate(74 48.6)"/><path d="M1061 200h79.5" stroke="#000" stroke-width="2" fill="none"/><path d="M1061 201h-1v-2h1z"/><path d="M1155.76 200l-14.26 4.64v-9.28z" stroke="#000" stroke-width="2"/><path d="M541 200h79.5" stroke="#000" stroke-width="2" fill="none"/><path d="M541 201h-1v-2h1z"/><path d="M635.76 200l-14.26 4.64v-9.28z" stroke="#000" stroke-width="2"/><path d="M380 320c26.56 19.92 43.36 19.92 53.28 19.92 16 0 37.28-19.92 53.28-19.92 10.08 0 26.72 0 53.44 19.92V440c-26.72-20.04-43.36-20.04-53.44-20.04-16 0-37.28 20.04-53.28 20.04-9.92 0-26.72 0-53.28-20.04z" stroke="#000" stroke-width="2" fill="#c7e8ac"/><use xlink:href="#g" transform="matrix(1,0,0,1,385,325) translate(34.05 58.6)"/><use xlink:href="#h" transform="matrix(1,0,0,1,385,325) translate(87.95 58.6)"/><path d="M460 328.97V279.5" stroke="#000" stroke-width="2" fill="none"/><path d="M461 329.6l-2 1v-1.63h2z"/><path d="M460 264.24l4.64 14.26h-9.28z" stroke="#000" stroke-width="2"/><path d="M900 320c26.56 19.92 43.36 19.92 53.28 19.92 16 0 37.28-19.92 53.28-19.92 10.08 0 26.72 0 53.44 19.92V440c-26.72-20.04-43.36-20.04-53.44-20.04-16 0-37.28 20.04-53.28 20.04-9.92 0-26.72 0-53.28-20.04z" stroke="#000" stroke-width="2" fill="#ffbbb1"/><g><use xlink:href="#i" transform="matrix(1,0,0,1,905,325) translate(30.549999999999997 58.6)"/><use xlink:href="#h" transform="matrix(1,0,0,1,905,325) translate(91.44999999999999 58.6)"/></g><path d="M980 328.97V279.5" stroke="#000" stroke-width="2" fill="none"/><path d="M981 329.6l-2 1v-1.63h2z"/><path d="M980 264.24l4.64 14.26h-9.28z" stroke="#000" stroke-width="2"/><defs><path d="M197 0v-115H63V0H30v-248h33v105h134v-105h34V0h-34" id="j"/><path d="M100-194c63 0 86 42 84 106H49c0 40 14 67 53 68 26 1 43-12 49-29l28 8c-11 28-37 45-77 45C44 4 14-33 15-96c1-61 26-98 85-98zm52 81c6-60-76-77-97-28-3 7-6 17-6 28h103" id="k"/><path d="M24 0v-261h32V0H24" id="l"/><path d="M100-194c62-1 85 37 85 99 1 63-27 99-86 99S16-35 15-95c0-66 28-99 85-99zM99-20c44 1 53-31 53-75 0-43-8-75-51-75s-53 32-53 75 10 74 51 75" id="m"/><g id="a"><use transform="matrix(0.05,0,0,0.05,0,0)" xlink:href="#j"/><use transform="matrix(0.05,0,0,0.05,12.950000000000001,0)" xlink:href="#k"/><use transform="matrix(0.05,0,0,0.05,22.950000000000003,0)" xlink:href="#l"/><use transform="matrix(0.05,0,0,0.05,26.900000000000002,0)" xlink:href="#l"/><use transform="matrix(0.05,0,0,0.05,30.85,0)" xlink:href="#m"/></g><path d="M206 0h-36l-40-164L89 0H53L-1-190h32L70-26l43-164h34l41 164 42-164h31" id="n"/><path d="M114-163C36-179 61-72 57 0H25l-1-190h30c1 12-1 29 2 39 6-27 23-49 58-41v29" id="o"/><path d="M85-194c31 0 48 13 60 33l-1-100h32l1 261h-30c-2-10 0-23-3-31C134-8 116 4 85 4 32 4 16-35 15-94c0-66 23-100 70-100zm9 24c-40 0-46 34-46 75 0 40 6 74 45 74 42 0 51-32 51-76 0-42-9-74-50-73" id="p"/><path d="M63-70H37l-4-178h34zM33 0v-35h34V0H33" id="q"/><g id="b"><use transform="matrix(0.05,0,0,0.05,0,0)" xlink:href="#n"/><use transform="matrix(0.05,0,0,0.05,12.950000000000001,0)" xlink:href="#m"/><use transform="matrix(0.05,0,0,0.05,22.950000000000003,0)" xlink:href="#o"/><use transform="matrix(0.05,0,0,0.05,28.900000000000002,0)" xlink:href="#l"/><use transform="matrix(0.05,0,0,0.05,32.85,0)" xlink:href="#p"/><use transform="matrix(0.05,0,0,0.05,42.85,0)" xlink:href="#q"/></g><path d="M30 0v-248h187v28H63v79h144v27H63v87h162V0H30" id="r"/><path d="M117-194c89-4 53 116 60 194h-32v-121c0-31-8-49-39-48C34-167 62-67 57 0H25l-1-190h30c1 10-1 24 2 32 11-22 29-35 61-36" id="s"/><path d="M96-169c-40 0-48 33-48 73s9 75 48 75c24 0 41-14 43-38l32 2c-6 37-31 61-74 61-59 0-76-41-82-99-10-93 101-131 147-64 4 7 5 14 7 22l-32 3c-4-21-16-35-41-35" id="t"/><path d="M179-190L93 31C79 59 56 82 12 73V49c39 6 53-20 64-50L1-190h34L92-34l54-156h33" id="u"/><path d="M115-194c55 1 70 41 70 98S169 2 115 4C84 4 66-9 55-30l1 105H24l-1-265h31l2 30c10-21 28-34 59-34zm-8 174c40 0 45-34 45-75s-6-73-45-74c-42 0-51 32-51 76 0 43 10 73 51 73" id="v"/><path d="M59-47c-2 24 18 29 38 22v24C64 9 27 4 27-40v-127H5v-23h24l9-43h21v43h35v23H59v120" id="w"/><path d="M24-231v-30h32v30H24zM24 0v-190h32V0H24" id="x"/><g id="c"><use transform="matrix(0.05,0,0,0.05,0,0)" xlink:href="#r"/><use transform="matrix(0.05,0,0,0.05,12,0)" xlink:href="#s"/><use transform="matrix(0.05,0,0,0.05,22,0)" xlink:href="#t"/><use transform="matrix(0.05,0,0,0.05,31,0)" xlink:href="#o"/><use transform="matrix(0.05,0,0,0.05,36.95,0)" xlink:href="#u"/><use transform="matrix(0.05,0,0,0.05,45.95,0)" xlink:href="#v"/><use transform="matrix(0.05,0,0,0.05,55.95,0)" xlink:href="#w"/><use transform="matrix(0.05,0,0,0.05,60.95,0)" xlink:href="#x"/><use transform="matrix(0.05,0,0,0.05,64.9,0)" xlink:href="#m"/><use transform="matrix(0.05,0,0,0.05,74.9,0)" xlink:href="#s"/></g><path d="M141-36C126-15 110 5 73 4 37 3 15-17 15-53c-1-64 63-63 125-63 3-35-9-54-41-54-24 1-41 7-42 31l-33-3c5-37 33-52 76-52 45 0 72 20 72 64v82c-1 20 7 32 28 27v20c-31 9-61-2-59-35zM48-53c0 20 12 33 32 33 41-3 63-29 60-74-43 2-92-5-92 41" id="y"/><path d="M177-190C167-65 218 103 67 71c-23-6-38-20-44-43l32-5c15 47 100 32 89-28v-30C133-14 115 1 83 1 29 1 15-40 15-95c0-56 16-97 71-98 29-1 48 16 59 35 1-10 0-23 2-32h30zM94-22c36 0 50-32 50-73 0-42-14-75-50-75-39 0-46 34-46 75s6 73 46 73" id="z"/><path d="M106-169C34-169 62-67 57 0H25v-261h32l-1 103c12-21 28-36 61-36 89 0 53 116 60 194h-32v-121c2-32-8-49-39-48" id="A"/><path d="M210-169c-67 3-38 105-44 169h-31v-121c0-29-5-50-35-48C34-165 62-65 56 0H25l-1-190h30c1 10-1 24 2 32 10-44 99-50 107 0 11-21 27-35 58-36 85-2 47 119 55 194h-31v-121c0-29-5-49-35-48" id="B"/><g id="d"><use transform="matrix(0.05,0,0,0.05,0,0)" xlink:href="#y"/><use transform="matrix(0.05,0,0,0.05,10,0)" xlink:href="#l"/><use transform="matrix(0.05,0,0,0.05,13.949999999999998,0)" xlink:href="#z"/><use transform="matrix(0.05,0,0,0.05,23.95,0)" xlink:href="#m"/><use transform="matrix(0.05,0,0,0.05,33.95,0)" xlink:href="#o"/><use transform="matrix(0.05,0,0,0.05,39.900000000000006,0)" xlink:href="#x"/><use transform="matrix(0.05,0,0,0.05,43.85000000000001,0)" xlink:href="#w"/><use transform="matrix(0.05,0,0,0.05,48.85000000000001,0)" xlink:href="#A"/><use transform="matrix(0.05,0,0,0.05,58.85,0)" xlink:href="#B"/></g><path fill="#666" d="M99-269c9-18 26-28 38-43h37v5l-55 38H99zM232-93c-1 65-40 97-104 97C67 4 28-28 28-90v-158h33c8 89-33 224 67 224 102 0 64-133 71-224h33v155" id="C"/><path fill="#666" d="M63-70H37l-4-178h34zM33 0v-35h34V0H33" id="D"/><path fill="#666" d="M33 0v-38h34V0H33" id="E"/><path fill="#666" d="M135-143c-3-34-86-38-87 0 15 53 115 12 119 90S17 21 10-45l28-5c4 36 97 45 98 0-10-56-113-15-118-90-4-57 82-63 122-42 12 7 21 19 24 35" id="F"/><path fill="#666" d="M34 0v-190h32V0H34zm36-214v-33h29v33H70zm-69 0v-33h29v33H1" id="G"/><path fill="#666" d="M32 76v-337h29V76H32" id="H"/><path fill="#666" d="M64 0c3-98 48-159 88-221H18v-27h164v26C143-157 98-101 97 0H64" id="I"/><path fill="#666" d="M103-251c84 0 111 97 45 133-19 10-37 24-39 52H78c0-63 77-55 77-114 0-30-21-42-52-43-32 0-53 17-56 46l-32-2c7-45 34-72 88-72zM77 0v-35h34V0H77" id="J"/><path fill="#666" d="M127-220V0H93v-220H8v-28h204v28h-85" id="K"/><path fill="#666" d="M85 4C-4 8 31-112 24-190h32v120c0 31 7 50 39 49 72-2 45-101 50-169h31l1 190h-30c-1-10 1-25-2-33-11 22-28 36-60 37zm34-218v-33h29v33h-29zm-69 0v-33h29v33H50" id="L"/><path fill="#666" d="M31-209c-2-70 138-68 145-6l-28 3c-3-36-88-36-89 0 12 56 121 17 121 91 0 27-17 41-38 48 19 10 37 21 37 48 2 76-153 72-159 7l29-5c2 42 101 43 102 0-13-58-124-24-124-95 0-26 18-41 40-47-20-7-36-18-36-44zm24 89c4 42 95 53 97 3-4-43-95-54-97-3" id="M"/><path fill="#666" d="M100-194c63 0 86 42 84 106H49c0 40 14 67 53 68 26 1 43-12 49-29l28 8c-11 28-37 45-77 45C44 4 14-33 15-96c1-61 26-98 85-98zm52 81c6-60-76-77-97-28-3 7-6 17-6 28h103zm-31-101v-33h29v33h-29zm-69 0v-33h29v33H52" id="N"/><g id="e"><use transform="matrix(0.044444444444444446,0,0,0.044444444444444446,0,0)" xlink:href="#C"/><use transform="matrix(0.044444444444444446,0,0,0.044444444444444446,11.511111111111111,0)" xlink:href="#D"/><use transform="matrix(0.044444444444444446,0,0,0.044444444444444446,15.955555555555556,0)" xlink:href="#E"/><use transform="matrix(0.044444444444444446,0,0,0.044444444444444446,20.4,0)" xlink:href="#E"/><use transform="matrix(0.044444444444444446,0,0,0.044444444444444446,24.84444444444444,0)" xlink:href="#F"/><use transform="matrix(0.044444444444444446,0,0,0.044444444444444446,32.84444444444444,0)" xlink:href="#G"/><use transform="matrix(0.044444444444444446,0,0,0.044444444444444446,37.288888888888884,0)" xlink:href="#E"/><use transform="matrix(0.044444444444444446,0,0,0.044444444444444446,41.73333333333333,0)" xlink:href="#H"/><use transform="matrix(0.044444444444444446,0,0,0.044444444444444446,45.86666666666666,0)" xlink:href="#I"/><use transform="matrix(0.044444444444444446,0,0,0.044444444444444446,54.755555555555546,0)" xlink:href="#J"/><use transform="matrix(0.044444444444444446,0,0,0.044444444444444446,63.644444444444424,0)" xlink:href="#K"/><use transform="matrix(0.044444444444444446,0,0,0.044444444444444446,71.6,0)" xlink:href="#E"/><use transform="matrix(0.044444444444444446,0,0,0.044444444444444446,76.04444444444444,0)" xlink:href="#L"/><use transform="matrix(0.044444444444444446,0,0,0.044444444444444446,93.82222222222221,0)" xlink:href="#M"/><use transform="matrix(0.044444444444444446,0,0,0.044444444444444446,102.7111111111111,0)" xlink:href="#N"/></g><path d="M30-248c118-7 216 8 213 122C240-48 200 0 122 0H30v-248zM63-27c89 8 146-16 146-99s-60-101-146-95v194" id="O"/><g id="f"><use transform="matrix(0.05,0,0,0.05,0,0)" xlink:href="#O"/><use transform="matrix(0.05,0,0,0.05,12.950000000000001,0)" xlink:href="#k"/><use transform="matrix(0.05,0,0,0.05,22.950000000000003,0)" xlink:href="#t"/><use transform="matrix(0.05,0,0,0.05,31.950000000000003,0)" xlink:href="#o"/><use transform="matrix(0.05,0,0,0.05,37.900000000000006,0)" xlink:href="#u"/><use transform="matrix(0.05,0,0,0.05,46.900000000000006,0)" xlink:href="#v"/><use transform="matrix(0.05,0,0,0.05,56.900000000000006,0)" xlink:href="#w"/><use transform="matrix(0.05,0,0,0.05,61.900000000000006,0)" xlink:href="#x"/><use transform="matrix(0.05,0,0,0.05,65.85000000000001,0)" xlink:href="#m"/><use transform="matrix(0.05,0,0,0.05,75.85000000000001,0)" xlink:href="#s"/></g><path d="M30-248c87 1 191-15 191 75 0 78-77 80-158 76V0H30v-248zm33 125c57 0 124 11 124-50 0-59-68-47-124-48v98" id="P"/><path d="M84 4C-5 8 30-112 23-190h32v120c0 31 7 50 39 49 72-2 45-101 50-169h31l1 190h-30c-1-10 1-25-2-33-11 22-28 36-60 37" id="Q"/><path d="M115-194c53 0 69 39 70 98 0 66-23 100-70 100C84 3 66-7 56-30L54 0H23l1-261h32v101c10-23 28-34 59-34zm-8 174c40 0 45-34 45-75 0-40-5-75-45-74-42 0-51 32-51 76 0 43 10 73 51 73" id="R"/><g id="g"><use transform="matrix(0.05,0,0,0.05,0,0)" xlink:href="#P"/><use transform="matrix(0.05,0,0,0.05,12,0)" xlink:href="#Q"/><use transform="matrix(0.05,0,0,0.05,22,0)" xlink:href="#R"/><use transform="matrix(0.05,0,0,0.05,32,0)" xlink:href="#l"/><use transform="matrix(0.05,0,0,0.05,35.95,0)" xlink:href="#x"/><use transform="matrix(0.05,0,0,0.05,39.900000000000006,0)" xlink:href="#t"/></g><path d="M143 0L79-87 56-68V0H24v-261h32v163l83-92h37l-77 82L181 0h-38" id="S"/><g id="h"><use transform="matrix(0.05,0,0,0.05,0,0)" xlink:href="#S"/><use transform="matrix(0.05,0,0,0.05,9,0)" xlink:href="#k"/><use transform="matrix(0.05,0,0,0.05,19,0)" xlink:href="#u"/></g><path d="M108 0H70L1-190h34L89-25l56-165h34" id="T"/><g id="i"><use transform="matrix(0.05,0,0,0.05,0,0)" xlink:href="#P"/><use transform="matrix(0.05,0,0,0.05,12,0)" xlink:href="#o"/><use transform="matrix(0.05,0,0,0.05,17.95,0)" xlink:href="#x"/><use transform="matrix(0.05,0,0,0.05,21.9,0)" xlink:href="#T"/><use transform="matrix(0.05,0,0,0.05,30.899999999999995,0)" xlink:href="#y"/><use transform="matrix(0.05,0,0,0.05,40.9,0)" xlink:href="#w"/><use transform="matrix(0.05,0,0,0.05,45.9,0)" xlink:href="#k"/></g></defs></g></svg>