<svg xmlns="http://www.w3.org/2000/svg" xmlns:xlink="http://www.w3.org/1999/xlink" xmlns:lucid="lucid" width="1023.3" height="416.42"><g transform="translate(5 -3.584448057641062)" lucid:page-tab-id="0_0"><path d="M15 31.58c0-4.4 3.58-8 8-8h174.08c4.4 0 8 3.6 8 8v26.34c0 4.42-3.6 8-8 8H23c-4.42 0-8-3.58-8-8z" stroke="#000" stroke-opacity="0" fill="#ffbd50"/><use xlink:href="#a" transform="matrix(1,0,0,1,15,23.584448057641062) translate(54.46913580246913 25.881944444444446)"/><path d="M109.92 65.92v288.53" fill="none"/><path d="M109.92 65.92v5.06m0 5.06v10.13m0 5.06v10.12m0 5.06v10.14m0 5.06v10.12m0 5.07v10.1m0 5.07v10.13m0 5.06v10.12m0 5.06v10.13m0 5.06v10.12m0 5.06v10.14m0 5.06v10.12m0 5.07v10.1m0 5.07v10.13m0 5.06v10.12m0 5.06v10.13m0 5.06v10.12m0 5.06v10.14m0 5.06v10.12m0 5.07v5.05" stroke="#666" fill="none"/><path fill="#666"/><path d="M109.92 354.45v3" stroke="#666" fill="none"/><path d="M90.04 101.3c0-4.4 3.58-8 8-8h24c4.42 0 8 3.6 8 8V292c0 4.42-3.58 8-8 8h-24c-4.42 0-8-3.58-8-8z" stroke="#f2f2f2" fill="#d2d3d5"/><path d="M540 31.58c0-4.4 3.58-8 8-8h174.08c4.4 0 8 3.6 8 8v26.34c0 4.42-3.6 8-8 8H548c-4.42 0-8-3.58-8-8z" stroke="#000" stroke-opacity="0" fill="#ffcc78"/><use xlink:href="#b" transform="matrix(1,0,0,1,540,23.584448057641062) translate(63.219135802469125 25.881944444444446)"/><path d="M635.04 65.92V320" fill="none"/><path d="M635.04 65.92v4.98m0 4.98v9.97m0 4.98v9.96m0 4.97v9.97m0 4.98v9.96m0 5v9.95m0 4.98v9.98m0 4.98v9.96m0 4.98v9.97m0 4.98v9.96m0 5v9.96m0 4.98v9.97m0 5v9.95m0 4.98v9.97m0 4.98v9.96m0 5v9.95m0 4.97v9.97m0 4.98V320" stroke="#666" fill="none"/><path fill="#666"/><path d="M66.75 328c0-4.42 3.58-8 8-8h70.58c4.4 0 8 3.58 8 8v64c0 4.42-3.6 8-8 8H74.75c-4.42 0-8-3.58-8-8z" fill="none"/><path d="M75.4 328l69.27 64m0-64L75.4 392" stroke="#666" stroke-width="8" fill="none"/><path d="M611.28 108c0-4.42 3.58-8 8-8h24c4.42 0 8 3.58 8 8v184c0 4.42-3.58 8-8 8h-24c-4.42 0-8-3.58-8-8z" stroke="#f2f2f2" fill="#d2d3d5"/><path d="M130.54 163.3H370.5c.08 0 .16-.06.16-.15 0-.1.07-.17.17-.17H594.4" stroke="#999" fill="none"/><path d="M130.54 163.8h-.5v-1h.5z" fill="#999"/><path d="M609.16 162.98l-14.27 4.63v-9.26z" stroke="#999" fill="#999"/><use xlink:href="#c" transform="matrix(1,0,0,1,190.767342839805,113.59375717053926) translate(0 12.441406250000002)"/><use xlink:href="#d" transform="matrix(1,0,0,1,190.767342839805,113.59375717053926) translate(46.674262152777786 12.441406250000002)"/><use xlink:href="#e" transform="matrix(1,0,0,1,190.767342839805,113.59375717053926) translate(0 27.996961805555557)"/><use xlink:href="#f" transform="matrix(1,0,0,1,190.767342839805,113.59375717053926) translate(0 42.52777689235306)"/><path d="M610.78 266.5H146.92" stroke="#999" fill="none"/><path d="M611.28 267h-.5v-1h.5z" fill="#999"/><path d="M132.16 266.5l14.26-4.64v9.27z" stroke="#999" fill="#999"/><use xlink:href="#g" transform="matrix(1,0,0,1,249.30483508458576,270.4918787454293) translate(0 12.441406250000002)"/><use xlink:href="#h" transform="matrix(1,0,0,1,249.30483508458576,270.4918787454293) translate(37.33940972222223 12.441406250000002)"/><use xlink:href="#i" transform="matrix(1,0,0,1,249.30483508458576,270.4918787454293) translate(0 27.996961805555557)"/><use xlink:href="#j" transform="matrix(1,0,0,1,249.30483508458576,270.4918787454293) translate(0 43.552517361111114)"/><use xlink:href="#k" transform="matrix(1,0,0,1,249.30483508458576,270.4918787454293) translate(149.3576388888889 43.552517361111114)"/><use xlink:href="#l" transform="matrix(1,0,0,1,249.30483508458576,270.4918787454293) translate(0 59.10807291666667)"/><use xlink:href="#m" transform="matrix(1,0,0,1,249.30483508458576,270.4918787454293) translate(130.6879340277778 59.10807291666667)"/><use xlink:href="#n" transform="matrix(1,0,0,1,249.30483508458576,270.4918787454293) translate(0 74.66362847222223)"/><use xlink:href="#o" transform="matrix(1,0,0,1,249.30483508458576,270.4918787454293) translate(158.69249131944446 74.66362847222223)"/><use xlink:href="#p" transform="matrix(1,0,0,1,249.30483508458576,270.4918787454293) translate(0 90.21918402777779)"/><path d="M808.22 31.58c0-4.4 3.58-8 8-8H990.3c4.42 0 8 3.6 8 8v26.34c0 4.42-3.58 8-8 8H816.22c-4.42 0-8-3.58-8-8z" stroke="#000" stroke-opacity="0" fill="#ffd99a"/><use xlink:href="#q" transform="matrix(1,0,0,1,808.2217857013075,23.584448057641097) translate(39.237654320987644 25.881944444444446)"/><use xlink:href="#r" transform="matrix(1,0,0,1,808.2217857013075,23.584448057641097) translate(97.57098765432099 25.881944444444446)"/><path d="M903.26 65.92V280" fill="none"/><path d="M903.26 65.92v5.1m0 5.1v10.2m0 5.08v10.2m0 5.1v10.2m0 5.1v10.18m0 5.1v10.2m0 5.1v10.2m0 5.08v10.2m0 5.1v10.2m0 5.1v10.18m0 5.1v10.2m0 5.1v10.18m0 5.1v10.2m0 5.1v10.2m0 5.08v5.1" stroke="#666" fill="none"/><path fill="#666"/><path d="M883.26 168c0-4.42 3.58-8 8-8h24c4.42 0 8 3.58 8 8v84c0 4.42-3.58 8-8 8h-24c-4.42 0-8-3.58-8-8z" stroke="#f2f2f2" fill="#d2d3d5"/><path d="M651.78 190.9h214.6" stroke="#999" fill="none"/><path d="M651.78 191.4h-.5v-1h.5z" fill="#999"/><path d="M881.14 190.9l-14.26 4.63v-9.27z" stroke="#999" fill="#999"/><g><use xlink:href="#s" transform="matrix(1,0,0,1,706.5922687338507,171.33907234752184) translate(0 12.441406250000002)"/><use xlink:href="#t" transform="matrix(1,0,0,1,706.5922687338507,171.33907234752184) translate(74.67881944444446 12.441406250000002)"/></g><path d="M882.76 232h-214.6" stroke="#999" fill="none"/><path d="M883.26 232.5h-.5v-1h.5z" fill="#999"/><path d="M653.4 232l14.26-4.63v9.27z" stroke="#999" fill="#999"/><g><use xlink:href="#u" transform="matrix(1,0,0,1,692.5899900880172,236.0046613448067) translate(0 12.441406250000002)"/><use xlink:href="#v" transform="matrix(1,0,0,1,692.5899900880172,236.0046613448067) translate(65.3439670138889 12.441406250000002)"/></g><defs><path fill="#666" d="M182-130c37 4 62 22 62 59C244 23 116-4 24 0v-248c84 5 203-23 205 63 0 31-19 50-47 55zM76-148c40-3 101 13 101-30 0-44-60-28-101-31v61zm0 110c48-3 116 14 116-37 0-48-69-32-116-35v72" id="w"/><path fill="#666" d="M240-174c0 40-23 61-54 70L253 0h-59l-57-94H76V0H24v-248c93 4 217-23 216 74zM76-134c48-2 112 12 112-38 0-48-66-32-112-35v73" id="x"/><path fill="#666" d="M140-251c80 0 125 45 125 126S219 4 139 4C58 4 15-44 15-125s44-126 125-126zm-1 214c52 0 73-35 73-88 0-50-21-86-72-86-52 0-73 35-73 86s22 88 72 88" id="y"/><path fill="#666" d="M275 0h-61l-44-196L126 0H64L0-248h53L97-49l45-199h58l43 199 44-199h52" id="z"/><path fill="#666" d="M169-182c-1-43-94-46-97-3 18 66 151 10 154 114 3 95-165 93-204 36-6-8-10-19-12-30l50-8c3 46 112 56 116 5-17-69-150-10-154-114-4-87 153-88 188-35 5 8 8 18 10 28" id="A"/><path fill="#666" d="M24 0v-248h195v40H76v63h132v40H76v65h150V0H24" id="B"/><g id="a"><use transform="matrix(0.04320987654320988,0,0,0.04320987654320988,0,0)" xlink:href="#w"/><use transform="matrix(0.04320987654320988,0,0,0.04320987654320988,11.19135802469136,0)" xlink:href="#x"/><use transform="matrix(0.04320987654320988,0,0,0.04320987654320988,22.38271604938272,0)" xlink:href="#y"/><use transform="matrix(0.04320987654320988,0,0,0.04320987654320988,34.48148148148148,0)" xlink:href="#z"/><use transform="matrix(0.04320987654320988,0,0,0.04320987654320988,49.12962962962963,0)" xlink:href="#A"/><use transform="matrix(0.04320987654320988,0,0,0.04320987654320988,59.50000000000001,0)" xlink:href="#B"/><use transform="matrix(0.04320987654320988,0,0,0.04320987654320988,69.87037037037038,0)" xlink:href="#x"/></g><path fill="#666" d="M147 0H94L2-248h55l64 206c17-72 42-137 63-206h54" id="C"/><g id="b"><use transform="matrix(0.04320987654320988,0,0,0.04320987654320988,0,0)" xlink:href="#A"/><use transform="matrix(0.04320987654320988,0,0,0.04320987654320988,10.370370370370372,0)" xlink:href="#B"/><use transform="matrix(0.04320987654320988,0,0,0.04320987654320988,20.740740740740744,0)" xlink:href="#x"/><use transform="matrix(0.04320987654320988,0,0,0.04320987654320988,31.629629629629633,0)" xlink:href="#C"/><use transform="matrix(0.04320987654320988,0,0,0.04320987654320988,42.00000000000001,0)" xlink:href="#B"/><use transform="matrix(0.04320987654320988,0,0,0.04320987654320988,52.37037037037039,0)" xlink:href="#x"/></g><path fill="#666" d="M616-1349c316 3 526 118 526 426 0 301-201 442-514 447H431V0H136v-1349h480zm-25 646c164 1 254-62 254-215 0-157-99-200-262-202H431v417h160" id="D"/><path fill="#666" d="M615-1370c385 0 542 273 542 691 0 230-47 404-140 522S790 20 615 20C231 20 72-262 72-679c0-419 158-691 543-691zM797-330c77-133 78-564 0-695-44-73-101-113-182-113s-139 40-183 114c-79 133-78 560 0 694 45 77 102 118 183 118s138-41 182-118" id="E"/><path fill="#666" d="M609-1161c-125 0-218 36-218 153 0 149 166 161 290 196 235 67 484 129 484 421 0 300-239 408-554 411C302 23 93-114 38-367l285-37c32 128 131 205 296 203 143-2 259-31 259-173 0-164-197-172-333-212-218-64-441-131-441-405 0-276 231-379 511-379 299 0 463 114 513 363l-286 29c-28-115-96-183-233-183" id="F"/><path fill="#666" d="M762-1121V0H467v-1121H61v-228h1107v228H762" id="G"/><g id="c"><use transform="matrix(0.007595486111111112,0,0,0.007595486111111112,0,0)" xlink:href="#D"/><use transform="matrix(0.007595486111111112,0,0,0.007595486111111112,9.334852430555557,0)" xlink:href="#E"/><use transform="matrix(0.007595486111111112,0,0,0.007595486111111112,18.669704861111114,0)" xlink:href="#F"/><use transform="matrix(0.007595486111111112,0,0,0.007595486111111112,28.00455729166667,0)" xlink:href="#G"/></g><path fill="#666" d="M89 20l821-1504h228L321 20H89" id="H"/><path fill="#666" d="M616-1102c361 0 521 202 521 560 0 354-171 562-527 562C259 20 92-192 92-542c0-351 169-560 524-560zm-9 930c200-2 236-165 236-370 0-199-27-367-223-367-195 0-233 146-233 367 0 129 18 223 55 282s92 88 165 88" id="I"/><path fill="#666" d="M775-193C708-75 621 20 439 20 226 20 106-93 106-306c0-251 170-341 417-346l223-4c4-143-12-264-148-264-103 0-141 58-150 153l-293-14c37-219 194-321 455-321 263 0 418 130 417 390v392c1 84 5 161 89 160 21 0 42-2 62-6v152c-57 15-108 27-180 26-145 0-202-73-217-205h-6zm-256 17c168 0 234-139 227-325-166 4-347-25-347 173 0 94 33 152 120 152" id="J"/><path fill="#666" d="M471 20c-247 0-336-169-336-415v-687h281v607c4 148 31 285 172 285 152 0 207-150 207-312v-580h281c4 359-9 736 8 1082H816c-7-63-11-146-12-215h-5C736-76 644 20 471 20" id="K"/><path fill="#666" d="M711 13c-250 0-386-99-385-349l2-556H161v-190h181l88-282h176v282h385v190H606v530c-10 130 45 186 174 184 91-2 176-11 255-27v186C933-1 833 13 711 13" id="L"/><path fill="#666" d="M424-1484c-2 206 5 424-8 618h4c67-145 160-234 348-236 251-3 335 167 336 416V0H824v-621c0-150-23-276-173-270-163 7-227 142-227 312V0H143v-1484h281" id="M"/><path fill="#666" d="M135-968c34-256 187-402 480-402 217 0 371 75 441 220 45 93 40 219-8 308-114 212-348 323-508 488-38 39-66 80-85 123h654V0H123v-195c112-245 321-399 515-560 57-48 107-96 142-157 14-26 22-53 22-80-1-104-73-156-185-154-131 2-181 74-199 194" id="N"/><path fill="#666" d="M864 0L575-490l-121 84V0H173v-1484h281v850l386-448h302L762-660 1171 0H864" id="O"/><path fill="#666" d="M1113-274C1038-96 884 20 626 20c-352 0-526-209-526-566 0-358 185-556 530-556 358 0 496 251 499 615H395c5 180 68 319 245 319 102 0 186-45 208-129zM857-663c-6-177-128-307-315-247-94 30-141 121-145 247h460" id="P"/><path fill="#666" d="M768-1103c247 0 336 167 336 416V0H824v-619c-3-164-24-273-171-273-164 0-229 142-229 312V0H143c-4-359 9-736-8-1082h268c7 63 12 146 13 215h4c67-145 160-236 348-236" id="Q"/><g id="d"><use transform="matrix(0.007595486111111112,0,0,0.007595486111111112,0,0)" xlink:href="#H"/><use transform="matrix(0.007595486111111112,0,0,0.007595486111111112,9.334852430555557,0)" xlink:href="#I"/><use transform="matrix(0.007595486111111112,0,0,0.007595486111111112,18.669704861111114,0)" xlink:href="#J"/><use transform="matrix(0.007595486111111112,0,0,0.007595486111111112,28.00455729166667,0)" xlink:href="#K"/><use transform="matrix(0.007595486111111112,0,0,0.007595486111111112,37.33940972222223,0)" xlink:href="#L"/><use transform="matrix(0.007595486111111112,0,0,0.007595486111111112,46.674262152777786,0)" xlink:href="#M"/><use transform="matrix(0.007595486111111112,0,0,0.007595486111111112,56.00911458333334,0)" xlink:href="#N"/><use transform="matrix(0.007595486111111112,0,0,0.007595486111111112,65.3439670138889,0)" xlink:href="#H"/><use transform="matrix(0.007595486111111112,0,0,0.007595486111111112,74.67881944444446,0)" xlink:href="#L"/><use transform="matrix(0.007595486111111112,0,0,0.007595486111111112,84.01367187500001,0)" xlink:href="#I"/><use transform="matrix(0.007595486111111112,0,0,0.007595486111111112,93.34852430555557,0)" xlink:href="#O"/><use transform="matrix(0.007595486111111112,0,0,0.007595486111111112,102.68337673611113,0)" xlink:href="#P"/><use transform="matrix(0.007595486111111112,0,0,0.007595486111111112,112.01822916666669,0)" xlink:href="#Q"/></g><path fill="#666" d="M1108-33c-3 314-178 467-492 467-243 0-400-94-447-291l281-33c17 79 82 141 174 141 176 0 212-155 205-347-2-40 5-80 0-115C773-85 665-12 501-12c-288 0-377-242-377-538 0-242 65-426 223-510 50-26 108-39 175-39 160 0 253 78 307 191h5c1-58 5-125 14-174h266c-12 335-3 703-6 1049zM811-384c25-82 27-259 1-342-30-99-77-180-190-180-172 0-205 171-205 356 0 116 18 202 54 258 48 76 129 107 221 70 62-25 96-86 119-162" id="R"/><path fill="#666" d="M875-1102c70 0 148 7 206 17v237c-110-17-267-37-359 15-123 69-192 207-192 395V0H250c-10-367 32-789-52-1082h271c19 69 36 149 46 228h4c52-151 151-250 356-248" id="S"/><path fill="#666" d="M-5 220v-96h1238v96H-5" id="T"/><path fill="#666" d="M143 212c82 12 185 12 233-31 50-45 83-117 110-192L38-1082h297c100 284 211 557 291 861 72-305 176-578 270-861h294L742 57c-80 192-156 368-417 368-60 0-131-4-182-13V212" id="U"/><path fill="#666" d="M427-171c3 195 2 397 2 596H148V-846c1-83-4-168-8-236h272c10 49 14 118 15 176h4c59-114 151-197 316-197 291 0 385 259 385 560 0 243-65 433-220 521-50 28-109 42-176 42-162-2-253-78-309-191zm69-661c-91 113-92 463-1 586 46 62 145 101 225 54 96-57 118-191 119-351 0-123-18-215-53-276-46-82-128-115-220-74-25 12-48 33-70 61" id="V"/><path fill="#666" d="M101-842v-223h1027v223H101zm0 551v-221h1027v221H101" id="W"/><path fill="#666" d="M844-1321c-130 0-195 53-191 182v57h443v190H653V0H373v-892H117v-190h256v-83c5-247 162-348 422-349 120-1 232 13 327 28v184c-84-10-183-19-278-19" id="X"/><path fill="#666" d="M622-916c-112 2-200 14-200 111 0 90 89 101 168 121 234 58 514 77 514 368C1104-4 751 54 434 5 267-21 161-112 121-270l247-37c24 111 113 145 252 141 114-3 226-12 226-124 0-101-103-113-192-134-225-54-490-76-490-351 0-247 201-328 458-328 245 0 413 88 457 292l-249 26c-16-98-92-133-208-131" id="Y"/><path fill="#666" d="M959-262c59 58 164 96 262 56v196c-22 13-62 21-95 21-136-2-224-53-300-115C735-36 625 19 467 19 193 19 24-102 24-369c0-221 148-330 302-410-35-71-71-170-71-267 0-214 138-311 361-311 198 0 337 89 337 284 0 164-121 237-231 303-43 26-88 47-134 68 64 112 131 207 214 302 50-98 85-203 108-324l204 27c-29 159-84 311-155 435zM267-373c0 134 74 207 210 210 82 2 151-41 194-76-98-109-188-228-262-360-74 46-142 109-142 226zm347-822c-133 0-177 123-136 245 11 32 22 62 37 91 79-39 165-72 206-145 48-85 0-191-107-191" id="Z"/><path fill="#666" d="M429-1484c1 190-1 388 0 572 54-116 155-191 317-191 300 0 386 257 386 563 0 241-73 429-226 518-49 28-106 42-169 42-162 0-251-81-306-196h-4c-1 59-5 127-15 176H140c4-67 9-153 8-236v-1248h281zm66 648c-93 114-92 466 1 585 35 45 77 79 142 79 64 0 112-31 148-92 69-115 68-440-2-561-39-68-131-111-221-70-25 11-46 32-68 59" id="aa"/><path fill="#666" d="M1109-360C1066-122 902 20 624 20c-347 0-514-209-514-555 0-353 168-567 518-567 270 0 425 136 473 361l-283 14c-16-106-75-183-196-182-75 0-130 31-165 93s-52 152-52 270c0 249 74 374 221 374 120 0 188-82 201-201" id="ab"/><g id="f"><use transform="matrix(0.006969881429329637,0,0,0.006969881429329637,0,0)" xlink:href="#R"/><use transform="matrix(0.006969881429329637,0,0,0.006969881429329637,8.565984276646123,0)" xlink:href="#S"/><use transform="matrix(0.006969881429329637,0,0,0.006969881429329637,17.131968553292246,0)" xlink:href="#J"/><use transform="matrix(0.006969881429329637,0,0,0.006969881429329637,25.69795282993837,0)" xlink:href="#Q"/><use transform="matrix(0.006969881429329637,0,0,0.006969881429329637,34.26393710658449,0)" xlink:href="#L"/><use transform="matrix(0.006969881429329637,0,0,0.006969881429329637,42.82992138323061,0)" xlink:href="#T"/><use transform="matrix(0.006969881429329637,0,0,0.006969881429329637,51.39590565987673,0)" xlink:href="#L"/><use transform="matrix(0.006969881429329637,0,0,0.006969881429329637,59.96188993652285,0)" xlink:href="#U"/><use transform="matrix(0.006969881429329637,0,0,0.006969881429329637,68.52787421316897,0)" xlink:href="#V"/><use transform="matrix(0.006969881429329637,0,0,0.006969881429329637,77.09385848981509,0)" xlink:href="#P"/><use transform="matrix(0.006969881429329637,0,0,0.006969881429329637,85.65984276646121,0)" xlink:href="#W"/><use transform="matrix(0.006969881429329637,0,0,0.006969881429329637,94.22582704310733,0)" xlink:href="#S"/><use transform="matrix(0.006969881429329637,0,0,0.006969881429329637,102.79181131975345,0)" xlink:href="#P"/><use transform="matrix(0.006969881429329637,0,0,0.006969881429329637,111.35779559639957,0)" xlink:href="#X"/><use transform="matrix(0.006969881429329637,0,0,0.006969881429329637,119.92377987304567,0)" xlink:href="#S"/><use transform="matrix(0.006969881429329637,0,0,0.006969881429329637,128.4897641496918,0)" xlink:href="#P"/><use transform="matrix(0.006969881429329637,0,0,0.006969881429329637,137.05574842633794,0)" xlink:href="#Y"/><use transform="matrix(0.006969881429329637,0,0,0.006969881429329637,145.62173270298408,0)" xlink:href="#M"/><use transform="matrix(0.006969881429329637,0,0,0.006969881429329637,154.1877169796302,0)" xlink:href="#T"/><use transform="matrix(0.006969881429329637,0,0,0.006969881429329637,162.75370125627634,0)" xlink:href="#L"/><use transform="matrix(0.006969881429329637,0,0,0.006969881429329637,171.31968553292248,0)" xlink:href="#I"/><use transform="matrix(0.006969881429329637,0,0,0.006969881429329637,179.8856698095686,0)" xlink:href="#O"/><use transform="matrix(0.006969881429329637,0,0,0.006969881429329637,188.45165408621475,0)" xlink:href="#P"/><use transform="matrix(0.006969881429329637,0,0,0.006969881429329637,197.01763836286088,0)" xlink:href="#Q"/><use transform="matrix(0.006969881429329637,0,0,0.006969881429329637,205.583622639507,0)" xlink:href="#Z"/><use transform="matrix(0.006969881429329637,0,0,0.006969881429329637,214.14960691615315,0)" xlink:href="#S"/><use transform="matrix(0.006969881429329637,0,0,0.006969881429329637,222.71559119279928,0)" xlink:href="#P"/><use transform="matrix(0.006969881429329637,0,0,0.006969881429329637,231.28157546944544,0)" xlink:href="#X"/><use transform="matrix(0.006969881429329637,0,0,0.006969881429329637,239.84755974609155,0)" xlink:href="#S"/><use transform="matrix(0.006969881429329637,0,0,0.006969881429329637,248.41354402273768,0)" xlink:href="#P"/><use transform="matrix(0.006969881429329637,0,0,0.006969881429329637,256.9795282993838,0)" xlink:href="#Y"/><use transform="matrix(0.006969881429329637,0,0,0.006969881429329637,265.5455125760299,0)" xlink:href="#M"/><use transform="matrix(0.006969881429329637,0,0,0.006969881429329637,274.11149685267605,0)" xlink:href="#T"/><use transform="matrix(0.006969881429329637,0,0,0.006969881429329637,282.6774811293222,0)" xlink:href="#L"/><use transform="matrix(0.006969881429329637,0,0,0.006969881429329637,291.2434654059683,0)" xlink:href="#I"/><use transform="matrix(0.006969881429329637,0,0,0.006969881429329637,299.80944968261446,0)" xlink:href="#O"/><use transform="matrix(0.006969881429329637,0,0,0.006969881429329637,308.3754339592606,0)" xlink:href="#P"/><use transform="matrix(0.006969881429329637,0,0,0.006969881429329637,316.9414182359067,0)" xlink:href="#Q"/><use transform="matrix(0.006969881429329637,0,0,0.006969881429329637,325.50740251255286,0)" xlink:href="#W"/><use transform="matrix(0.006969881429329637,0,0,0.006969881429329637,334.073386789199,0)" xlink:href="#J"/><use transform="matrix(0.006969881429329637,0,0,0.006969881429329637,342.6393710658451,0)" xlink:href="#aa"/><use transform="matrix(0.006969881429329637,0,0,0.006969881429329637,351.20535534249126,0)" xlink:href="#ab"/></g><path fill="#666" d="M127-675c0-405 101-695 492-695 382 0 482 297 482 695 0 324-79 561-295 658-59 27-124 37-195 37-378 0-484-300-484-695zm580 451c143-96 121-451 101-680-12-138-46-246-191-246-149 0-184 107-199 248-19 180-21 469 36 598 29 67 72 101 159 103 37 0 69-6 94-23" id="ac"/><g id="g"><use transform="matrix(0.007595486111111112,0,0,0.007595486111111112,0,0)" xlink:href="#N"/><use transform="matrix(0.007595486111111112,0,0,0.007595486111111112,9.334852430555557,0)" xlink:href="#ac"/><use transform="matrix(0.007595486111111112,0,0,0.007595486111111112,18.669704861111114,0)" xlink:href="#ac"/></g><path fill="#666" d="M881 0L558-557 431-415V0H136v-1349h295v599l436-599h343L750-770 1229 0H881" id="ad"/><g id="h"><use transform="matrix(0.007595486111111112,0,0,0.007595486111111112,0,0)" xlink:href="#E"/><use transform="matrix(0.007595486111111112,0,0,0.007595486111111112,9.334852430555557,0)" xlink:href="#ad"/></g><path fill="#666" d="M685 25c1 134 43 209 172 209h188v191H718c-189-5-295-108-295-299v-328c1-155-78-228-229-229v-195c150-4 229-75 229-231v-328c-2-190 109-299 295-299h327v190H857c-129 1-171 76-172 209v301c-5 144-88 222-207 252v4c118 31 207 107 207 252V25" id="ae"/><use transform="matrix(0.007595486111111112,0,0,0.007595486111111112,0,0)" xlink:href="#ae" id="i"/><path fill="#666" d="M942-844H743l-37-641h275zm-456 0H287l-37-641h273" id="af"/><path fill="#666" d="M470 0v-305h289V0H470zm0-780v-305h289v305H470" id="ag"/><g id="j"><use transform="matrix(0.007595486111111112,0,0,0.007595486111111112,0,0)" xlink:href="#af"/><use transform="matrix(0.007595486111111112,0,0,0.007595486111111112,9.334852430555557,0)" xlink:href="#J"/><use transform="matrix(0.007595486111111112,0,0,0.007595486111111112,18.669704861111114,0)" xlink:href="#ab"/><use transform="matrix(0.007595486111111112,0,0,0.007595486111111112,28.00455729166667,0)" xlink:href="#ab"/><use transform="matrix(0.007595486111111112,0,0,0.007595486111111112,37.33940972222223,0)" xlink:href="#P"/><use transform="matrix(0.007595486111111112,0,0,0.007595486111111112,46.674262152777786,0)" xlink:href="#Y"/><use transform="matrix(0.007595486111111112,0,0,0.007595486111111112,56.00911458333334,0)" xlink:href="#Y"/><use transform="matrix(0.007595486111111112,0,0,0.007595486111111112,65.3439670138889,0)" xlink:href="#T"/><use transform="matrix(0.007595486111111112,0,0,0.007595486111111112,74.67881944444446,0)" xlink:href="#L"/><use transform="matrix(0.007595486111111112,0,0,0.007595486111111112,84.01367187500001,0)" xlink:href="#I"/><use transform="matrix(0.007595486111111112,0,0,0.007595486111111112,93.34852430555557,0)" xlink:href="#O"/><use transform="matrix(0.007595486111111112,0,0,0.007595486111111112,102.68337673611113,0)" xlink:href="#P"/><use transform="matrix(0.007595486111111112,0,0,0.007595486111111112,112.01822916666669,0)" xlink:href="#Q"/><use transform="matrix(0.007595486111111112,0,0,0.007595486111111112,121.35308159722224,0)" xlink:href="#af"/><use transform="matrix(0.007595486111111112,0,0,0.007595486111111112,130.6879340277778,0)" xlink:href="#ag"/></g><path fill="#666" d="M1028 0H784c-56-191-119-378-170-573C562-377 495-191 437 0H194L11-1082h228c32 239 67 472 95 714 4 40 7 80 7 119 53-195 119-378 177-568h193c56 190 120 371 169 568-1-79 11-158 21-226l91-607h226" id="ah"/><path fill="#666" d="M874 0L612-392 348 0H49l406-559-387-523h303l241 354 240-354h305L770-562 1179 0H874" id="ai"/><path fill="#666" d="M138 0v-199l570-680H179v-203h849v201L461-205h616V0H138" id="aj"/><g id="k"><use transform="matrix(0.007595486111111112,0,0,0.007595486111111112,0,0)" xlink:href="#af"/><use transform="matrix(0.007595486111111112,0,0,0.007595486111111112,9.334852430555557,0)" xlink:href="#Q"/><use transform="matrix(0.007595486111111112,0,0,0.007595486111111112,18.669704861111114,0)" xlink:href="#P"/><use transform="matrix(0.007595486111111112,0,0,0.007595486111111112,28.00455729166667,0)" xlink:href="#ah"/><use transform="matrix(0.007595486111111112,0,0,0.007595486111111112,37.33940972222223,0)" xlink:href="#T"/><use transform="matrix(0.007595486111111112,0,0,0.007595486111111112,46.674262152777786,0)" xlink:href="#ai"/><use transform="matrix(0.007595486111111112,0,0,0.007595486111111112,56.00911458333334,0)" xlink:href="#U"/><use transform="matrix(0.007595486111111112,0,0,0.007595486111111112,65.3439670138889,0)" xlink:href="#aj"/><use transform="matrix(0.007595486111111112,0,0,0.007595486111111112,74.67881944444446,0)" xlink:href="#af"/></g><path fill="#666" d="M794-190h353V0H118v-190h395v-702H223v-190h571v892zM513-1277v-207h281v207H513" id="ak"/><g id="l"><use transform="matrix(0.007595486111111112,0,0,0.007595486111111112,0,0)" xlink:href="#af"/><use transform="matrix(0.007595486111111112,0,0,0.007595486111111112,9.334852430555557,0)" xlink:href="#P"/><use transform="matrix(0.007595486111111112,0,0,0.007595486111111112,18.669704861111114,0)" xlink:href="#ai"/><use transform="matrix(0.007595486111111112,0,0,0.007595486111111112,28.00455729166667,0)" xlink:href="#V"/><use transform="matrix(0.007595486111111112,0,0,0.007595486111111112,37.33940972222223,0)" xlink:href="#ak"/><use transform="matrix(0.007595486111111112,0,0,0.007595486111111112,46.674262152777786,0)" xlink:href="#S"/><use transform="matrix(0.007595486111111112,0,0,0.007595486111111112,56.00911458333334,0)" xlink:href="#P"/><use transform="matrix(0.007595486111111112,0,0,0.007595486111111112,65.3439670138889,0)" xlink:href="#Y"/><use transform="matrix(0.007595486111111112,0,0,0.007595486111111112,74.67881944444446,0)" xlink:href="#T"/><use transform="matrix(0.007595486111111112,0,0,0.007595486111111112,84.01367187500001,0)" xlink:href="#ak"/><use transform="matrix(0.007595486111111112,0,0,0.007595486111111112,93.34852430555557,0)" xlink:href="#Q"/><use transform="matrix(0.007595486111111112,0,0,0.007595486111111112,102.68337673611113,0)" xlink:href="#af"/><use transform="matrix(0.007595486111111112,0,0,0.007595486111111112,112.01822916666669,0)" xlink:href="#ag"/></g><path fill="#666" d="M788-691c191 26 337 112 337 315 0 286-214 399-510 399-306 0-483-128-522-391l286-25c18 124 91 190 235 188 132-2 223-58 223-188 0-176-191-182-378-179v-227c176 5 345-9 345-176 0-115-82-171-200-171s-198 55-206 169l-281-20c34-252 213-373 492-373 224 0 381 74 451 224 20 43 29 89 29 136 0 195-130 279-301 315v4" id="al"/><path fill="#666" d="M706-877c265 0 409 163 409 431 0 299-171 466-474 466-381 0-516-302-516-692 0-236 47-410 135-526 112-147 319-207 541-154 154 36 236 149 276 306l-265 37c-22-86-75-139-170-139-76 0-135 36-178 108s-64 179-64 318c54-94 164-155 306-155zm-74 678c138 0 201-98 201-239s-67-232-208-232c-125 0-205 73-205 202 0 149 67 269 212 269" id="am"/><g id="m"><use transform="matrix(0.007595486111111112,0,0,0.007595486111111112,0,0)" xlink:href="#al"/><use transform="matrix(0.007595486111111112,0,0,0.007595486111111112,9.334852430555557,0)" xlink:href="#am"/><use transform="matrix(0.007595486111111112,0,0,0.007595486111111112,18.669704861111114,0)" xlink:href="#ac"/><use transform="matrix(0.007595486111111112,0,0,0.007595486111111112,28.00455729166667,0)" xlink:href="#ac"/></g><g id="n"><use transform="matrix(0.007595486111111112,0,0,0.007595486111111112,0,0)" xlink:href="#af"/><use transform="matrix(0.007595486111111112,0,0,0.007595486111111112,9.334852430555557,0)" xlink:href="#S"/><use transform="matrix(0.007595486111111112,0,0,0.007595486111111112,18.669704861111114,0)" xlink:href="#P"/><use transform="matrix(0.007595486111111112,0,0,0.007595486111111112,28.00455729166667,0)" xlink:href="#X"/><use transform="matrix(0.007595486111111112,0,0,0.007595486111111112,37.33940972222223,0)" xlink:href="#S"/><use transform="matrix(0.007595486111111112,0,0,0.007595486111111112,46.674262152777786,0)" xlink:href="#P"/><use transform="matrix(0.007595486111111112,0,0,0.007595486111111112,56.00911458333334,0)" xlink:href="#Y"/><use transform="matrix(0.007595486111111112,0,0,0.007595486111111112,65.3439670138889,0)" xlink:href="#M"/><use transform="matrix(0.007595486111111112,0,0,0.007595486111111112,74.67881944444446,0)" xlink:href="#T"/><use transform="matrix(0.007595486111111112,0,0,0.007595486111111112,84.01367187500001,0)" xlink:href="#L"/><use transform="matrix(0.007595486111111112,0,0,0.007595486111111112,93.34852430555557,0)" xlink:href="#I"/><use transform="matrix(0.007595486111111112,0,0,0.007595486111111112,102.68337673611113,0)" xlink:href="#O"/><use transform="matrix(0.007595486111111112,0,0,0.007595486111111112,112.01822916666669,0)" xlink:href="#P"/><use transform="matrix(0.007595486111111112,0,0,0.007595486111111112,121.35308159722224,0)" xlink:href="#Q"/><use transform="matrix(0.007595486111111112,0,0,0.007595486111111112,130.6879340277778,0)" xlink:href="#af"/><use transform="matrix(0.007595486111111112,0,0,0.007595486111111112,140.02278645833337,0)" xlink:href="#ag"/></g><g id="o"><use transform="matrix(0.007595486111111112,0,0,0.007595486111111112,0,0)" xlink:href="#af"/><use transform="matrix(0.007595486111111112,0,0,0.007595486111111112,9.334852430555557,0)" xlink:href="#Q"/><use transform="matrix(0.007595486111111112,0,0,0.007595486111111112,18.669704861111114,0)" xlink:href="#P"/><use transform="matrix(0.007595486111111112,0,0,0.007595486111111112,28.00455729166667,0)" xlink:href="#ah"/><use transform="matrix(0.007595486111111112,0,0,0.007595486111111112,37.33940972222223,0)" xlink:href="#T"/><use transform="matrix(0.007595486111111112,0,0,0.007595486111111112,46.674262152777786,0)" xlink:href="#J"/><use transform="matrix(0.007595486111111112,0,0,0.007595486111111112,56.00911458333334,0)" xlink:href="#aa"/><use transform="matrix(0.007595486111111112,0,0,0.007595486111111112,65.3439670138889,0)" xlink:href="#ab"/><use transform="matrix(0.007595486111111112,0,0,0.007595486111111112,74.67881944444446,0)" xlink:href="#af"/></g><path fill="#666" d="M806 126c-4 191-105 299-295 299H184V234h188c129-1 171-75 172-209v-301c5-145 89-221 207-252v-4c-119-30-207-108-207-252v-301c-1-133-43-209-172-209H184v-190h327c186 0 295 109 295 299v328c-1 156 79 227 229 231v195c-151 1-229 74-229 229v328" id="an"/><use transform="matrix(0.007595486111111112,0,0,0.007595486111111112,0,0)" xlink:href="#an" id="p"/><path fill="#666" d="M136-208V0H84v-208H4v-40h212v40h-80" id="ao"/><path fill="#666" d="M195 0l-88-114-31 24V0H24v-248h52v113l112-113h60L142-143 257 0h-62" id="ap"/><path fill="#666" d="M175 0L67-191c6 58 2 128 3 191H24v-248h59L193-55c-6-58-2-129-3-193h46V0h-61" id="aq"/><g id="q"><use transform="matrix(0.04320987654320988,0,0,0.04320987654320988,0,0)" xlink:href="#ao"/><use transform="matrix(0.04320987654320988,0,0,0.04320987654320988,9.160493827160494,0)" xlink:href="#y"/><use transform="matrix(0.04320987654320988,0,0,0.04320987654320988,21.25925925925926,0)" xlink:href="#ap"/><use transform="matrix(0.04320987654320988,0,0,0.04320987654320988,32.45061728395062,0)" xlink:href="#B"/><use transform="matrix(0.04320987654320988,0,0,0.04320987654320988,42.820987654320994,0)" xlink:href="#aq"/></g><g id="r"><use transform="matrix(0.04320987654320988,0,0,0.04320987654320988,0,0)" xlink:href="#A"/><use transform="matrix(0.04320987654320988,0,0,0.04320987654320988,10.370370370370372,0)" xlink:href="#ao"/><use transform="matrix(0.04320987654320988,0,0,0.04320987654320988,19.530864197530867,0)" xlink:href="#y"/><use transform="matrix(0.04320987654320988,0,0,0.04320987654320988,31.629629629629633,0)" xlink:href="#x"/><use transform="matrix(0.04320987654320988,0,0,0.04320987654320988,42.820987654320994,0)" xlink:href="#B"/></g><path fill="#666" d="M1157-949c0 209-118 316-279 368L1227 0H895L605-515H432V0H137v-1349h494c317-2 526 111 526 400zM608-744c158 1 248-51 252-193 5-207-223-184-428-183v376h176" id="ar"/><g id="s"><use transform="matrix(0.007595486111111112,0,0,0.007595486111111112,0,0)" xlink:href="#ar"/><use transform="matrix(0.007595486111111112,0,0,0.007595486111111112,9.334852430555557,0)" xlink:href="#P"/><use transform="matrix(0.007595486111111112,0,0,0.007595486111111112,18.669704861111114,0)" xlink:href="#X"/><use transform="matrix(0.007595486111111112,0,0,0.007595486111111112,28.00455729166667,0)" xlink:href="#S"/><use transform="matrix(0.007595486111111112,0,0,0.007595486111111112,37.33940972222223,0)" xlink:href="#P"/><use transform="matrix(0.007595486111111112,0,0,0.007595486111111112,46.674262152777786,0)" xlink:href="#Y"/><use transform="matrix(0.007595486111111112,0,0,0.007595486111111112,56.00911458333334,0)" xlink:href="#M"/></g><g id="t"><use transform="matrix(0.007595486111111112,0,0,0.007595486111111112,0,0)" xlink:href="#L"/><use transform="matrix(0.007595486111111112,0,0,0.007595486111111112,9.334852430555557,0)" xlink:href="#I"/><use transform="matrix(0.007595486111111112,0,0,0.007595486111111112,18.669704861111114,0)" xlink:href="#O"/><use transform="matrix(0.007595486111111112,0,0,0.007595486111111112,28.00455729166667,0)" xlink:href="#P"/><use transform="matrix(0.007595486111111112,0,0,0.007595486111111112,37.33940972222223,0)" xlink:href="#Q"/></g><g id="u"><use transform="matrix(0.007595486111111112,0,0,0.007595486111111112,0,0)" xlink:href="#G"/><use transform="matrix(0.007595486111111112,0,0,0.007595486111111112,9.334852430555557,0)" xlink:href="#I"/><use transform="matrix(0.007595486111111112,0,0,0.007595486111111112,18.669704861111114,0)" xlink:href="#O"/><use transform="matrix(0.007595486111111112,0,0,0.007595486111111112,28.00455729166667,0)" xlink:href="#P"/><use transform="matrix(0.007595486111111112,0,0,0.007595486111111112,37.33940972222223,0)" xlink:href="#Q"/><use transform="matrix(0.007595486111111112,0,0,0.007595486111111112,46.674262152777786,0)" xlink:href="#ag"/></g><g id="v"><use transform="matrix(0.007595486111111112,0,0,0.007595486111111112,0,0)" xlink:href="#L"/><use transform="matrix(0.007595486111111112,0,0,0.007595486111111112,9.334852430555557,0)" xlink:href="#I"/><use transform="matrix(0.007595486111111112,0,0,0.007595486111111112,18.669704861111114,0)" xlink:href="#O"/><use transform="matrix(0.007595486111111112,0,0,0.007595486111111112,28.00455729166667,0)" xlink:href="#P"/><use transform="matrix(0.007595486111111112,0,0,0.007595486111111112,37.33940972222223,0)" xlink:href="#Q"/><use transform="matrix(0.007595486111111112,0,0,0.007595486111111112,46.674262152777786,0)" xlink:href="#T"/><use transform="matrix(0.007595486111111112,0,0,0.007595486111111112,56.00911458333334,0)" xlink:href="#ai"/><use transform="matrix(0.007595486111111112,0,0,0.007595486111111112,65.3439670138889,0)" xlink:href="#ai"/><use transform="matrix(0.007595486111111112,0,0,0.007595486111111112,74.67881944444446,0)" xlink:href="#ai"/></g></defs></g></svg>