<svg xmlns="http://www.w3.org/2000/svg" xmlns:xlink="http://www.w3.org/1999/xlink" xmlns:lucid="lucid" width="900" height="560"><g transform="translate(-40 2020)" lucid:page-tab-id="0_0"><path d="M0-2523.55h1850.6v1430H0z" fill="#fff"/><path d="M60-1672c0-4.42 3.58-8 8-8h144c4.42 0 8 3.58 8 8v104c0 4.42-3.58 8-8 8H68c-4.42 0-8-3.58-8-8z" stroke="#fff" stroke-width="4" fill="#e5e5e5"/><use xlink:href="#a" transform="matrix(1,0,0,1,68,-1672) translate(13.874336363636395 46.23790454545455)"/><use xlink:href="#b" transform="matrix(1,0,0,1,68,-1672) translate(45.74461250000002 68.82363636363635)"/><path d="M520-1672c0-4.42 3.58-8 8-8h144c4.42 0 8 3.58 8 8v104c0 4.42-3.58 8-8 8H528c-4.42 0-8-3.58-8-8z" stroke="#fff" stroke-width="4" fill="#e5e5e5"/><use xlink:href="#a" transform="matrix(1,0,0,1,528,-1672) translate(13.874336363636395 46.23790454545455)"/><use xlink:href="#c" transform="matrix(1,0,0,1,528,-1672) translate(0.6888113636364039 68.82363636363635)"/><use xlink:href="#b" transform="matrix(1,0,0,1,528,-1672) translate(90.80041363636361 68.82363636363635)"/><path d="M300-1712c0-4.42 3.58-8 8-8h144c4.42 0 8 3.58 8 8v104c0 4.42-3.58 8-8 8H308c-4.42 0-8-3.58-8-8z" stroke="#fff" stroke-width="4" fill="#e5e5e5"/><path d="M316-1720v120m128-120v120" stroke="#fff" stroke-width="4" fill="none"/><use xlink:href="#a" transform="matrix(1,0,0,1,320,-1720) translate(1.8743363636363952 54.23790454545455)"/><use xlink:href="#d" transform="matrix(1,0,0,1,320,-1720) translate(6.847823863636393 76.82363636363635)"/><path d="M760-1592c0-4.42 3.58-8 8-8h144c4.42 0 8 3.58 8 8v104c0 4.42-3.58 8-8 8H768c-4.42 0-8-3.58-8-8z" stroke="#fff" stroke-width="4" fill="#e5e5e5"/><path d="M776-1600v120m128-120v120" stroke="#fff" stroke-width="4" fill="none"/><use xlink:href="#e" transform="matrix(1,0,0,1,780,-1600) translate(37.10933977272728 54.23790454545455)"/><use xlink:href="#f" transform="matrix(1,0,0,1,780,-1600) translate(4.566118181818219 76.82363636363635)"/><path d="M760-1752c0-4.42 3.58-8 8-8h144c4.42 0 8 3.58 8 8v104c0 4.42-3.58 8-8 8H768c-4.42 0-8-3.58-8-8z" stroke="#fff" stroke-width="4" fill="#e5e5e5"/><path d="M776-1760v120m128-120v120" stroke="#fff" stroke-width="4" fill="none"/><use xlink:href="#g" transform="matrix(1,0,0,1,780,-1760) translate(26.594567045454568 54.23790454545455)"/><use xlink:href="#f" transform="matrix(1,0,0,1,780,-1760) translate(4.566118181818219 76.82363636363635)"/><path d="M222-1620h38v-40h19.76" stroke="#000" stroke-width="2" fill="none"/><path d="M222-1619h-2v-2h2zM294.76-1660l-14.26 4.64v-9.28z"/><path d="M298-1660l-18.5 6v-12zm-16.5 3.26l10.03-3.26-10.03-3.26z"/><path d="M462-1660h28v40h9.76" stroke="#000" stroke-width="2" fill="none"/><path d="M462-1659h-2v-2h2zM514.76-1620l-14.26 4.64v-9.28z"/><path d="M518-1620l-18.5 6v-12zm-16.5 3.26l10.03-3.26-10.03-3.26z"/><path d="M682-1620h38v-80h19.76" stroke="#000" stroke-width="2" fill="none"/><path d="M682-1619h-2v-2h2zM754.76-1700l-14.26 4.64v-9.28z"/><path d="M758-1700l-18.5 6v-12zm-16.5 3.26l10.03-3.26-10.03-3.26z"/><path d="M682-1620h38v80h19.76" stroke="#000" stroke-width="2" fill="none"/><path d="M682-1619h-2v-2h2zM754.76-1540l-14.26 4.64v-9.28z"/><path d="M758-1540l-18.5 6v-12zm-16.5 3.26l10.03-3.26-10.03-3.26z"/><path d="M520-1992c0-4.42 3.58-8 8-8h120c4.42 0 10.53 2.53 13.66 5.66l12.68 12.68c3.13 3.13 5.66 9.24 5.66 13.66v80c0 4.42-3.58 8-8 8H528c-4.42 0-8-3.58-8-8z" stroke="#fff" stroke-width="4" fill="#003658"/><path d="M657.94-1992.24c-1.07-4.3.6-5.23 3.72-2.1l12.68 12.68c3.13 3.13 2.2 4.8-2.1 3.72l-3.68-.92c-4.3-1.07-8.63-5.4-9.7-9.7z" stroke="#fff" stroke-width="4" fill="#00263e"/><use xlink:href="#h" transform="matrix(1,0,0,1,520,-2000) translate(5.01 34.94444444444444)"/><use xlink:href="#i" transform="matrix(1,0,0,1,520,-2000) translate(91.25691358024692 34.94444444444444)"/><use xlink:href="#j" transform="matrix(1,0,0,1,520,-2000) translate(5.01 53.611111111111114)"/><use xlink:href="#k" transform="matrix(1,0,0,1,520,-2000) translate(54.13962962962963 53.611111111111114)"/><use xlink:href="#l" transform="matrix(1,0,0,1,520,-2000) translate(120.59641975308642 53.611111111111114)"/><use xlink:href="#m" transform="matrix(1,0,0,1,520,-2000) translate(5.01 72.27777777777779)"/><use xlink:href="#n" transform="matrix(1,0,0,1,520,-2000) translate(5.01 90.94444444444446)"/><path d="M300-1872c0-4.42 3.58-8 8-8h120c4.42 0 10.53 2.53 13.66 5.66l12.68 12.68c3.13 3.13 5.66 9.24 5.66 13.66v80c0 4.42-3.58 8-8 8H308c-4.42 0-8-3.58-8-8z" stroke="#fff" stroke-width="4" fill="#003658"/><path d="M437.94-1872.24c-1.07-4.3.6-5.23 3.72-2.1l12.68 12.68c3.13 3.13 2.2 4.8-2.1 3.72l-3.68-.92c-4.3-1.07-8.63-5.4-9.7-9.7z" stroke="#fff" stroke-width="4" fill="#00263e"/><g><use xlink:href="#o" transform="matrix(1,0,0,1,300,-1880) translate(5.01 53.69444444444444)"/><use xlink:href="#p" transform="matrix(1,0,0,1,300,-1880) translate(22.293950617283954 53.69444444444444)"/><use xlink:href="#q" transform="matrix(1,0,0,1,300,-1880) translate(110.22604938271606 53.69444444444444)"/><use xlink:href="#r" transform="matrix(1,0,0,1,300,-1880) translate(129.151975308642 53.69444444444444)"/><use xlink:href="#s" transform="matrix(1,0,0,1,300,-1880) translate(5.01 72.36111111111111)"/><use xlink:href="#t" transform="matrix(1,0,0,1,300,-1880) translate(72.24456790123457 72.36111111111111)"/></g><path d="M760-1912c0-4.42 3.58-8 8-8h120c4.42 0 10.53 2.53 13.66 5.66l12.68 12.68c3.13 3.13 5.66 9.24 5.66 13.66v80c0 4.42-3.58 8-8 8H768c-4.42 0-8-3.58-8-8z" stroke="#fff" stroke-width="4" fill="#003658"/><path d="M897.94-1912.24c-1.07-4.3.6-5.23 3.72-2.1l12.68 12.68c3.13 3.13 2.2 4.8-2.1 3.72l-3.68-.92c-4.3-1.07-8.63-5.4-9.7-9.7z" stroke="#fff" stroke-width="4" fill="#00263e"/><g><use xlink:href="#u" transform="matrix(1,0,0,1,760,-1920) translate(5.01 53.69444444444444)"/><use xlink:href="#v" transform="matrix(1,0,0,1,760,-1920) translate(22.293950617283954 53.69444444444444)"/><use xlink:href="#w" transform="matrix(1,0,0,1,760,-1920) translate(120.59641975308642 53.69444444444444)"/><use xlink:href="#x" transform="matrix(1,0,0,1,760,-1920) translate(5.01 72.36111111111111)"/><use xlink:href="#t" transform="matrix(1,0,0,1,760,-1920) translate(32.5779012345679 72.36111111111111)"/></g><path d="M518-1940H380v58" stroke="#999" stroke-width="2" fill="none"/><path d="M520-1939h-2v-2h2zM381-1880h-2v-2h2z" fill="#999"/><path d="M682-1940h158v18" stroke="#999" stroke-width="2" fill="none"/><path d="M682-1939h-2v-2h2zM841-1920h-2v-2h2z" fill="#999"/><defs><path d="M39-49c-7-93 9-204-6-289-18-30-12-41 1-77 37-27 19-97 25-162 2-23-27-37-49-40-11-18-14-56 0-71 17-39 273-99 376-109 72-7 163-32 165 45 1 65-62 51-115 66-63 18-176 24-229 55-41 23-20 107-25 176 83-2 166-25 259-33 74-6 91 70 44 97-80 23-228 35-304 57-18 6-27 18-27 35-9 45 6 274-42 299-35 2-92-5-73-49" id="y"/><path d="M292-638c-67 2-113 14-176 21-81 9-112-68-58-103 132-46 304-52 470-66l65 5c50 52 43 111-50 111-45 0-75 15-112 18-18 16-19 83-24 152-7 108-21 214-33 322-5 46 36 20 67 20 54 0 81-10 139-16 43 25 50 62 23 110-151 29-311 50-490 79C58 24-8 22 3-44c14-83 161-45 224-90 22-16 24-69 29-107 17-126 33-258 36-397" id="z"/><path d="M24-128c0-158-18-313-5-472 6-74-11-192 62-191 78 1 88 68 113 130 59 143 102 191 174 297 50 73 81 109 92 109 8 0 12-3 13-9 24-163 3-322-12-477-6-63 62-76 101-37 65 64 45 212 54 340 10 141 7 304-15 413-8 15-20 23-37 23-76 0-203-132-244-200-33-54-79-109-116-169l4 4c-9-20-41-55-54-51-14 102-5 244 6 344 3 30-15 69-41 68-9 0-28-1-56-3-44-28-39-45-39-119" id="A"/><path d="M103-24C79 10-2-14 8-59c42-186 129-353 193-524 23-62 63-135 99-197 39-38 106-10 109 47 27 100 51 209 81 307 8 25 72 24 72 63 0 44-26 46-37 75 12 83 46 156 55 243 7 63-106 47-114 11-13-58-36-170-57-231-3-4-7-8-9-14-69 4-134 40-198 52-53 21-53 108-81 160-4 16-8 29-18 43zm215-551c-16 18-92 195-73 208 46 2 100-12 123-31-5-30-32-162-38-171-2-3-6-5-12-6" id="B"/><path d="M521-275c40-33 108-24 108 34 0 49-75 103-210 183-80 47-247 72-323 10-66-54-95-101-82-218 12-106 41-136 91-224 55-96 145-209 240-278 32-23 68-33 107-33 86 2 108 61 107 158 0 55-15 82-44 82-55 1-25-116-79-110-132 15-229 223-291 334-48 86-31 226 81 218 122-9 217-92 295-156" id="C"/><path d="M21-302C-7-136 9 24 196-12c147-28 263-93 386-142 57-23 26-120-26-120-111 32-240 115-378 126-13 1-22-26-25-45 30-174 59-350 88-524 10-62-86-124-120-61-39 73-49 196-69 277-19 77-22 145-31 199" id="D"/><g id="a"><use transform="matrix(0.021029545454545443,0,0,0.021029545454545443,0,0)" xlink:href="#y"/><use transform="matrix(0.021029545454545443,0,0,0.021029545454545443,11.62933863636363,0)" xlink:href="#z"/><use transform="matrix(0.021029545454545443,0,0,0.021029545454545443,24.983099999999986,0)" xlink:href="#A"/><use transform="matrix(0.021029545454545443,0,0,0.021029545454545443,38.46303863636361,0)" xlink:href="#B"/><use transform="matrix(0.021029545454545443,0,0,0.021029545454545443,50.80738181818179,0)" xlink:href="#A"/><use transform="matrix(0.021029545454545443,0,0,0.021029545454545443,64.28732045454542,0)" xlink:href="#C"/><use transform="matrix(0.021029545454545443,0,0,0.021029545454545443,77.62005227272724,0)" xlink:href="#z"/><use transform="matrix(0.021029545454545443,0,0,0.021029545454545443,90.97381363636359,0)" xlink:href="#B"/><use transform="matrix(0.021029545454545443,0,0,0.021029545454545443,103.31815681818176,0)" xlink:href="#D"/></g><path d="M19-91c0-222 71-428 58-668-3-62 121-44 170-33 118 27 229 50 293 128 44 53 63 97 63 217 0 165-189 328-383 400-36 13-62 45-108 45-66 0-93-23-93-89zm185-582c-30 151-43 322-58 489 5 39 27 28 60 14 129-54 276-147 276-304 0-155-106-203-278-199" id="E"/><path d="M593-790c58 0 99 54 77 117-5 13-15 16-35 14-70-7-152-3-229 7-31 20-24 81-26 127-4 138-16 277-16 422 0 32 4 70-21 83-26 36-88 7-103-20 1-182 10-346 21-521 2-27 11-81-18-84-73-7-138 11-206 3-20-18-39-18-32-51-3-78 74-91 145-91 129 0 251 6 369-8 25-3 49 2 74 2" id="F"/><g id="b"><use transform="matrix(0.021029545454545443,0,0,0.021029545454545443,0,0)" xlink:href="#E"/><use transform="matrix(0.021029545454545443,0,0,0.021029545454545443,12.701845454545447,0)" xlink:href="#B"/><use transform="matrix(0.021029545454545443,0,0,0.021029545454545443,25.046188636363624,0)" xlink:href="#F"/><use transform="matrix(0.021029545454545443,0,0,0.021029545454545443,40.1664318181818,0)" xlink:href="#B"/></g><path d="M608-642l-20 77c-36 56-69 94-113 138-49 48-58 40-29 81 33 46 69 89 97 147 44 89 52 141 40 147-3 38-20 49-63 52-68 5-97-106-129-160-40-68-56-162-144-164-53-1-27 78-45 121-7 56-12 123-28 170C157-4 113 24 66-1 46-11 40-39 49-87c19-111 19-139 19-313 0-144 1-187-40-242-27-37-13-94 26-108 103-36 250-59 389-41 63 8 182 85 165 149zm-140 11c-10-39-42-58-96-57-53 12-154 21-179 43-5 9-8 31-8 65 0 151 19 135 127 94 94-36 148-79 156-145" id="G"/><path d="M330-158c82-22 193-18 286-31 38 11 58 81 24 113-25 24-71 25-116 25-135 0-238 34-358 47C61 7 4-52 15-159c12-113 37-213 32-340-2-59 2-121-2-178-2-44 35-62 81-61 104-31 222-52 345-64 68-7 103 34 111 94 2 12-3 22-9 31-33 14-62 15-103 16-100 2-196 10-270 40h-8c-18 23-11 79-15 106-1 13 5 22 16 25 82-10 176-25 264-12 44 7 78 26 71 72-7 49-76 30-125 30-78 0-138 22-210 29-24 1-35 28-36 52-2 41-10 83-8 126-19 84 122 51 181 35" id="H"/><path d="M23-677c-68-88 127-122 212-122 113 0 253 24 291 82 92 144-48 310-153 365-52 27-102 48-161 69-56 20-53 15-58 80-4 49-8 103-13 153-3 31-19 46-43 46-44 0-65-28-63-81 5-162 8-330 16-486 3-53-4-75-28-106zm415 73c0-44-44-66-132-66-78 0-124 8-135 26-10 16-14 89-14 218 0 44 22 39 57 25 83-34 224-115 224-203" id="I"/><path d="M44-443c79-191 208-366 448-366 141 0 239 118 267 253 46 222-61 413-213 490-83 42-221 78-338 30-55-23-106-43-129-82-26-14-80-140-57-202 2-41 8-89 22-123zm103 115c1 136 75 191 208 191 130 0 180-50 241-135 38-53 55-111 55-169 0-109-73-236-179-227-143 12-260 151-311 271-9 24-14 47-14 69" id="J"/><path d="M608-642l-20 77c-36 56-69 94-113 138-49 48-58 40-29 81 33 46 69 89 97 147 44 89 52 141 40 147-3 38-20 49-63 52-68 5-97-106-129-160-40-68-56-162-144-164-53-1-27 78-45 121-7 56-12 123-28 170C157-4 113 24 66-1 46-11 40-39 49-87c19-111 19-139 19-313 0-144 1-187-40-242-27-37-13-94 26-108 103-36 250-59 389-41 63 8 182 85 165 149zm-140 11c-10-39-42-58-96-57-53 12-154 21-179 43-5 9-8 31-8 65 0 151 19 135 127 94 94-36 148-79 156-145" id="K"/><g id="c"><use transform="matrix(0.021029545454545443,0,0,0.021029545454545443,0,0)" xlink:href="#G"/><use transform="matrix(0.021029545454545443,0,0,0.021029545454545443,12.996259090909083,0)" xlink:href="#H"/><use transform="matrix(0.021029545454545443,0,0,0.021029545454545443,27.001936363636343,0)" xlink:href="#I"/><use transform="matrix(0.021029545454545443,0,0,0.021029545454545443,38.86259999999997,0)" xlink:href="#J"/><use transform="matrix(0.021029545454545443,0,0,0.021029545454545443,55.74932499999996,0)" xlink:href="#K"/><use transform="matrix(0.021029545454545443,0,0,0.021029545454545443,68.74558409090905,0)" xlink:href="#F"/></g><path d="M103-24C79 10-2-14 8-59c42-186 129-353 193-524 23-62 63-135 99-197 39-38 106-10 109 47 27 100 51 209 81 307 8 25 72 24 72 63 0 44-26 46-37 75 12 83 46 156 55 243 7 63-106 47-114 11-13-58-36-170-57-231-3-4-7-8-9-14-69 4-134 40-198 52-53 21-53 108-81 160-4 16-8 29-18 43zm215-551c-16 18-92 195-73 208 46 2 100-12 123-31-5-30-32-162-38-171-2-3-6-5-12-6" id="L"/><path d="M192-85c-3 48 46 100 89 72 52-75 73-232 102-321 46-139 146-233 278-374 22-37 2-105-46-93-81 20-199 174-252 246-53 73-46 65-110 7-63-57-96-136-132-220-11-25-31-37-54-37-36-1-56 32-56 68 32 142 118 264 224 332 15 16 24 24 21 38" id="M"/><path d="M3-81C3-44 54-2 90-8c84-15 229-66 336-66 66 0 138-5 200-16 15-7 26-21 25-46 0-56-22-86-66-81l-355 42c-45-14 13-69 26-93 78-144 236-280 334-415 19-26 27-45 27-56-4-55-57-67-130-64-142 6-306 4-411 45-29 11-41 39-41 70 0 43 17 64 50 64 66-16 156-53 230-57 24-1 92-12 93 11 0 9-27 41-80 96C228-469 138-318 58-193 23-137 3-101 3-81" id="N"/><g id="d"><use transform="matrix(0.021029545454545443,0,0,0.021029545454545443,0,0)" xlink:href="#L"/><use transform="matrix(0.021029545454545443,0,0,0.021029545454545443,12.344343181818175,0)" xlink:href="#A"/><use transform="matrix(0.021029545454545443,0,0,0.021029545454545443,25.824281818181806,0)" xlink:href="#B"/><use transform="matrix(0.021029545454545443,0,0,0.021029545454545443,38.16862499999998,0)" xlink:href="#D"/><use transform="matrix(0.021029545454545443,0,0,0.021029545454545443,51.101795454545424,0)" xlink:href="#M"/><use transform="matrix(0.021029545454545443,0,0,0.021029545454545443,65.25467954545451,0)" xlink:href="#N"/><use transform="matrix(0.021029545454545443,0,0,0.021029545454545443,79.30241590909087,0)" xlink:href="#H"/><use transform="matrix(0.021029545454545443,0,0,0.021029545454545443,93.30809318181814,0)" xlink:href="#K"/></g><path d="M722-498c18-70 6-160 6-241 0-38 16-57 49-57 55 0 82 64 82 193 1 204-63 347-126 491-54 125-124 110-196 9-30-42-54-91-82-146-27-53-43-79-49-79-8-17-88 136-114 182C269-106 193 9 170-1 96-15 86-47 66-129 33-267 17-480 18-657c0-70 18-105 54-105 39 0 66 36 68 87 4 137-4 277 12 406 12 100 67-12 84-47 47-96 102-197 139-285 18-41 78-38 96-4 52 97 51 251 110 344 50 78 71 31 104-70 17-53 22-108 37-167" id="O"/><path d="M68-174c-8-157-1-333-1-488 0-23-21-28-12-60 24-87 141-85 256-77 161 12 317 42 251 258-5 17-40 45-44 60 15 30 85 80 98 123 62 108 25 192-76 258C455-45 341-9 207-4 145-2 19-30 19-85c0-36 51-41 49-89zm137-510c-18 6-26 137-16 192 30 22 66 2 112-6 70-13 158-95 159-132 17-68-169-82-255-54zm-15 330c-15 57-2 155 5 215 6 4 6 12 18 11 101-5 211-32 267-82 52-46 58-91 12-140s-73-73-81-73c-39 14-121 48-173 54-15 2-34 14-48 15" id="P"/><g id="e"><use transform="matrix(0.021029545454545443,0,0,0.021029545454545443,0,0)" xlink:href="#O"/><use transform="matrix(0.021029545454545443,0,0,0.021029545454545443,18.253645454545445,0)" xlink:href="#H"/><use transform="matrix(0.021029545454545443,0,0,0.021029545454545443,32.25932272727271,0)" xlink:href="#P"/></g><g id="f"><use transform="matrix(0.021029545454545443,0,0,0.021029545454545443,0,0)" xlink:href="#G"/><use transform="matrix(0.021029545454545443,0,0,0.021029545454545443,12.996259090909083,0)" xlink:href="#H"/><use transform="matrix(0.021029545454545443,0,0,0.021029545454545443,27.001936363636343,0)" xlink:href="#I"/><use transform="matrix(0.021029545454545443,0,0,0.021029545454545443,38.86259999999997,0)" xlink:href="#J"/><use transform="matrix(0.021029545454545443,0,0,0.021029545454545443,55.74932499999996,0)" xlink:href="#K"/><use transform="matrix(0.021029545454545443,0,0,0.021029545454545443,68.74558409090905,0)" xlink:href="#F"/><use transform="matrix(0.021029545454545443,0,0,0.021029545454545443,83.86582727272722,0)" xlink:href="#H"/><use transform="matrix(0.021029545454545443,0,0,0.021029545454545443,97.8715045454545,0)" xlink:href="#K"/></g><path d="M23-677c-68-88 127-122 212-122 113 0 253 24 291 82 92 144-48 310-153 365-52 27-102 48-161 69-56 20-53 15-58 80-4 49-8 103-13 153-3 31-19 46-43 46-44 0-65-28-63-81 5-162 8-330 16-486 3-53-4-75-28-106zm415 73c0-44-44-66-132-66-78 0-124 8-135 26-10 16-14 89-14 218 0 44 22 39 57 25 83-34 224-115 224-203" id="Q"/><g id="g"><use transform="matrix(0.021029545454545443,0,0,0.021029545454545443,0,0)" xlink:href="#Q"/><use transform="matrix(0.021029545454545443,0,0,0.021029545454545443,11.860663636363629,0)" xlink:href="#K"/><use transform="matrix(0.021029545454545443,0,0,0.021029545454545443,24.85692272727271,0)" xlink:href="#z"/><use transform="matrix(0.021029545454545443,0,0,0.021029545454545443,38.21068409090907,0)" xlink:href="#A"/><use transform="matrix(0.021029545454545443,0,0,0.021029545454545443,51.6906227272727,0)" xlink:href="#F"/></g><path fill="#e5e5e5" d="M67-125c0 54 23 88 75 88 28 0 53-7 68-21v-34h-60v-39h108v91C232-14 192 4 140 4 58 4 20-42 15-125 8-236 126-280 215-234c19 10 29 26 37 47l-47 15c-11-23-29-39-63-39-53 1-75 33-75 86" id="R"/><path fill="#e5e5e5" d="M185-48c-13 30-37 53-82 52C43 2 14-33 14-96s30-98 90-98c62 0 83 45 84 108H66c0 31 8 55 39 56 18 0 30-7 34-22zm-45-69c5-46-57-63-70-21-2 6-4 13-4 21h74" id="S"/><path fill="#e5e5e5" d="M135-194c87-1 58 113 63 194h-50c-7-57 23-157-34-157-59 0-34 97-39 157H25l-1-190h47c2 12-1 28 3 38 12-26 28-41 61-42" id="T"/><path fill="#e5e5e5" d="M135-150c-39-12-60 13-60 57V0H25l-1-190h47c2 13-1 29 3 40 6-28 27-53 61-41v41" id="U"/><path fill="#e5e5e5" d="M133-34C117-15 103 5 69 4 32 3 11-16 11-54c-1-60 55-63 116-61 1-26-3-47-28-47-18 1-26 9-28 27l-52-2c7-38 36-58 82-57s74 22 75 68l1 82c-1 14 12 18 25 15v27c-30 8-71 5-69-32zm-48 3c29 0 43-24 42-57-32 0-66-3-65 30 0 17 8 27 23 27" id="V"/><path fill="#e5e5e5" d="M115-3C79 11 28 4 28-45v-112H4v-33h27l15-45h31v45h36v33H77v99c-1 23 16 31 38 25v30" id="W"/><path fill="#e5e5e5" d="M25-224v-37h50v37H25zM25 0v-190h50V0H25" id="X"/><path fill="#e5e5e5" d="M195-6C206 82 75 100 31 46c-4-6-6-13-8-21l49-6c3 16 16 24 34 25 40 0 42-37 40-79-11 22-30 35-61 35-53 0-70-43-70-97 0-56 18-96 73-97 30 0 46 14 59 34l2-30h47zm-90-29c32 0 41-27 41-63 0-35-9-62-40-62-32 0-39 29-40 63 0 36 9 62 39 62" id="Y"/><g id="h"><use transform="matrix(0.04320987654320988,0,0,0.04320987654320988,0,0)" xlink:href="#R"/><use transform="matrix(0.04320987654320988,0,0,0.04320987654320988,12.098765432098766,0)" xlink:href="#S"/><use transform="matrix(0.04320987654320988,0,0,0.04320987654320988,20.74074074074074,0)" xlink:href="#T"/><use transform="matrix(0.04320987654320988,0,0,0.04320987654320988,30.203703703703702,0)" xlink:href="#S"/><use transform="matrix(0.04320987654320988,0,0,0.04320987654320988,38.84567901234568,0)" xlink:href="#U"/><use transform="matrix(0.04320987654320988,0,0,0.04320987654320988,44.89506172839506,0)" xlink:href="#V"/><use transform="matrix(0.04320987654320988,0,0,0.04320987654320988,53.537037037037045,0)" xlink:href="#W"/><use transform="matrix(0.04320987654320988,0,0,0.04320987654320988,58.679012345679006,0)" xlink:href="#X"/><use transform="matrix(0.04320987654320988,0,0,0.04320987654320988,63,0)" xlink:href="#T"/><use transform="matrix(0.04320987654320988,0,0,0.04320987654320988,72.46296296296296,0)" xlink:href="#Y"/></g><path fill="#e5e5e5" d="M114-157C55-157 80-60 75 0H25v-261h50l-1 109c12-26 28-41 61-42 86-1 58 113 63 194h-50c-7-57 23-157-34-157" id="Z"/><g id="i"><use transform="matrix(0.04320987654320988,0,0,0.04320987654320988,0,0)" xlink:href="#W"/><use transform="matrix(0.04320987654320988,0,0,0.04320987654320988,5.1419753086419755,0)" xlink:href="#Z"/><use transform="matrix(0.04320987654320988,0,0,0.04320987654320988,14.60493827160494,0)" xlink:href="#S"/></g><path fill="#e5e5e5" d="M135-194c53 0 70 44 70 98 0 56-19 98-73 100-31 1-45-17-59-34 3 33 2 69 2 105H25l-1-265h48c2 10 0 23 3 31 11-24 29-35 60-35zM114-30c33 0 39-31 40-66 0-38-9-64-40-64-56 0-55 130 0 130" id="aa"/><path fill="#e5e5e5" d="M110-194c64 0 96 36 96 99 0 64-35 99-97 99-61 0-95-36-95-99 0-62 34-99 96-99zm-1 164c35 0 45-28 45-65 0-40-10-65-43-65-34 0-45 26-45 65 0 36 10 65 43 65" id="ab"/><g id="j"><use transform="matrix(0.04320987654320988,0,0,0.04320987654320988,0,0)" xlink:href="#U"/><use transform="matrix(0.04320987654320988,0,0,0.04320987654320988,6.049382716049383,0)" xlink:href="#S"/><use transform="matrix(0.04320987654320988,0,0,0.04320987654320988,14.69135802469136,0)" xlink:href="#aa"/><use transform="matrix(0.04320987654320988,0,0,0.04320987654320988,24.154320987654323,0)" xlink:href="#ab"/><use transform="matrix(0.04320987654320988,0,0,0.04320987654320988,33.617283950617285,0)" xlink:href="#U"/><use transform="matrix(0.04320987654320988,0,0,0.04320987654320988,39.66666666666667,0)" xlink:href="#W"/></g><path fill="#e5e5e5" d="M128 0H69L1-190h53L99-40l48-150h52" id="ac"/><path fill="#e5e5e5" d="M25 0v-261h50V0H25" id="ad"/><path fill="#e5e5e5" d="M137-138c1-29-70-34-71-4 15 46 118 7 119 86 1 83-164 76-172 9l43-7c4 19 20 25 44 25 33 8 57-30 24-41C81-84 22-81 20-136c-2-80 154-74 161-7" id="ae"/><g id="k"><use transform="matrix(0.04320987654320988,0,0,0.04320987654320988,0,0)" xlink:href="#X"/><use transform="matrix(0.04320987654320988,0,0,0.04320987654320988,4.320987654320988,0)" xlink:href="#T"/><use transform="matrix(0.04320987654320988,0,0,0.04320987654320988,13.783950617283953,0)" xlink:href="#ac"/><use transform="matrix(0.04320987654320988,0,0,0.04320987654320988,22.425925925925934,0)" xlink:href="#ab"/><use transform="matrix(0.04320987654320988,0,0,0.04320987654320988,31.888888888888893,0)" xlink:href="#ad"/><use transform="matrix(0.04320987654320988,0,0,0.04320987654320988,36.20987654320988,0)" xlink:href="#ac"/><use transform="matrix(0.04320987654320988,0,0,0.04320987654320988,44.851851851851855,0)" xlink:href="#S"/><use transform="matrix(0.04320987654320988,0,0,0.04320987654320988,53.49382716049383,0)" xlink:href="#ae"/></g><path fill="#e5e5e5" d="M231 0h-52l-39-155L100 0H48L-1-190h46L77-45c9-52 24-97 36-145h53l37 145 32-145h46" id="af"/><g id="l"><use transform="matrix(0.04320987654320988,0,0,0.04320987654320988,0,0)" xlink:href="#W"/><use transform="matrix(0.04320987654320988,0,0,0.04320987654320988,5.1419753086419755,0)" xlink:href="#af"/><use transform="matrix(0.04320987654320988,0,0,0.04320987654320988,17.24074074074074,0)" xlink:href="#ab"/></g><g id="m"><use transform="matrix(0.04320987654320988,0,0,0.04320987654320988,0,0)" xlink:href="#ae"/><use transform="matrix(0.04320987654320988,0,0,0.04320987654320988,8.641975308641976,0)" xlink:href="#S"/><use transform="matrix(0.04320987654320988,0,0,0.04320987654320988,17.283950617283953,0)" xlink:href="#aa"/><use transform="matrix(0.04320987654320988,0,0,0.04320987654320988,26.746913580246915,0)" xlink:href="#V"/><use transform="matrix(0.04320987654320988,0,0,0.04320987654320988,35.38888888888889,0)" xlink:href="#U"/><use transform="matrix(0.04320987654320988,0,0,0.04320987654320988,41.43827160493828,0)" xlink:href="#V"/><use transform="matrix(0.04320987654320988,0,0,0.04320987654320988,50.080246913580254,0)" xlink:href="#W"/><use transform="matrix(0.04320987654320988,0,0,0.04320987654320988,55.22222222222223,0)" xlink:href="#S"/></g><path fill="#e5e5e5" d="M135-194c52 0 70 43 70 98 0 56-19 99-73 100-30 1-46-15-58-35L72 0H24l1-261h50v104c11-23 29-37 60-37zM114-30c31 0 40-27 40-66 0-37-7-63-39-63s-41 28-41 65c0 36 8 64 40 64" id="ag"/><path fill="#e5e5e5" d="M35-132v-50h50v50H35zM35 0v-49h50V0H35" id="ah"/><g id="n"><use transform="matrix(0.04320987654320988,0,0,0.04320987654320988,0,0)" xlink:href="#U"/><use transform="matrix(0.04320987654320988,0,0,0.04320987654320988,6.049382716049383,0)" xlink:href="#S"/><use transform="matrix(0.04320987654320988,0,0,0.04320987654320988,14.69135802469136,0)" xlink:href="#ae"/><use transform="matrix(0.04320987654320988,0,0,0.04320987654320988,23.333333333333336,0)" xlink:href="#aa"/><use transform="matrix(0.04320987654320988,0,0,0.04320987654320988,32.7962962962963,0)" xlink:href="#ab"/><use transform="matrix(0.04320987654320988,0,0,0.04320987654320988,42.25925925925926,0)" xlink:href="#T"/><use transform="matrix(0.04320987654320988,0,0,0.04320987654320988,51.722222222222214,0)" xlink:href="#ae"/><use transform="matrix(0.04320987654320988,0,0,0.04320987654320988,60.364197530864196,0)" xlink:href="#X"/><use transform="matrix(0.04320987654320988,0,0,0.04320987654320988,64.68518518518519,0)" xlink:href="#ag"/><use transform="matrix(0.04320987654320988,0,0,0.04320987654320988,74.14814814814815,0)" xlink:href="#X"/><use transform="matrix(0.04320987654320988,0,0,0.04320987654320988,78.46913580246914,0)" xlink:href="#ad"/><use transform="matrix(0.04320987654320988,0,0,0.04320987654320988,82.79012345679013,0)" xlink:href="#X"/><use transform="matrix(0.04320987654320988,0,0,0.04320987654320988,87.11111111111111,0)" xlink:href="#W"/><use transform="matrix(0.04320987654320988,0,0,0.04320987654320988,92.2530864197531,0)" xlink:href="#X"/><use transform="matrix(0.04320987654320988,0,0,0.04320987654320988,96.57407407407409,0)" xlink:href="#S"/><use transform="matrix(0.04320987654320988,0,0,0.04320987654320988,105.21604938271606,0)" xlink:href="#ae"/><use transform="matrix(0.04320987654320988,0,0,0.04320987654320988,113.85802469135801,0)" xlink:href="#ah"/></g><path fill="#e5e5e5" d="M23 0v-37h61v-169l-59 37v-38l62-41h46v211h57V0H23" id="ai"/><path fill="#e5e5e5" d="M24 0v-54h51V0H24" id="aj"/><g id="o"><use transform="matrix(0.04320987654320988,0,0,0.04320987654320988,0,0)" xlink:href="#ai"/><use transform="matrix(0.04320987654320988,0,0,0.04320987654320988,8.641975308641976,0)" xlink:href="#aj"/></g><path fill="#e5e5e5" d="M67-125c0 53 21 87 73 88 37 1 54-22 65-47l45 17C233-25 199 4 140 4 58 4 20-42 15-125 8-235 124-281 211-232c18 10 29 29 36 50l-46 12c-8-25-30-41-62-41-52 0-71 34-72 86" id="ak"/><path fill="#e5e5e5" d="M190-63c-7 42-38 67-86 67-59 0-84-38-90-98-12-110 154-137 174-36l-49 2c-2-19-15-32-35-32-30 0-35 28-38 64-6 74 65 87 74 30" id="al"/><path fill="#e5e5e5" d="M85 4C-2 5 27-109 22-190h50c7 57-23 150 33 157 60-5 35-97 40-157h50l1 190h-47c-2-12 1-28-3-38-12 25-28 42-61 42" id="am"/><g id="p"><use transform="matrix(0.04320987654320988,0,0,0.04320987654320988,0,0)" xlink:href="#ak"/><use transform="matrix(0.04320987654320988,0,0,0.04320987654320988,11.19135802469136,0)" xlink:href="#V"/><use transform="matrix(0.04320987654320988,0,0,0.04320987654320988,19.833333333333336,0)" xlink:href="#ad"/><use transform="matrix(0.04320987654320988,0,0,0.04320987654320988,24.154320987654323,0)" xlink:href="#al"/><use transform="matrix(0.04320987654320988,0,0,0.04320987654320988,32.7962962962963,0)" xlink:href="#am"/><use transform="matrix(0.04320987654320988,0,0,0.04320987654320988,42.25925925925926,0)" xlink:href="#ad"/><use transform="matrix(0.04320987654320988,0,0,0.04320987654320988,46.58024691358024,0)" xlink:href="#V"/><use transform="matrix(0.04320987654320988,0,0,0.04320987654320988,55.22222222222222,0)" xlink:href="#W"/><use transform="matrix(0.04320987654320988,0,0,0.04320987654320988,60.364197530864196,0)" xlink:href="#X"/><use transform="matrix(0.04320987654320988,0,0,0.04320987654320988,64.68518518518519,0)" xlink:href="#ab"/><use transform="matrix(0.04320987654320988,0,0,0.04320987654320988,74.14814814814815,0)" xlink:href="#T"/></g><path fill="#e5e5e5" d="M121-226c-27-7-43 5-38 36h38v33H83V0H34v-157H6v-33h28c-9-59 32-81 87-68v32" id="an"/><g id="q"><use transform="matrix(0.04320987654320988,0,0,0.04320987654320988,0,0)" xlink:href="#ab"/><use transform="matrix(0.04320987654320988,0,0,0.04320987654320988,9.462962962962964,0)" xlink:href="#an"/></g><g id="r"><use transform="matrix(0.04320987654320988,0,0,0.04320987654320988,0,0)" xlink:href="#W"/><use transform="matrix(0.04320987654320988,0,0,0.04320987654320988,5.1419753086419755,0)" xlink:href="#Z"/><use transform="matrix(0.04320987654320988,0,0,0.04320987654320988,14.60493827160494,0)" xlink:href="#S"/></g><path fill="#e5e5e5" d="M88-194c31-1 46 15 58 34l-1-101h50l1 261h-48c-2-10 0-23-3-31C134-8 116 4 84 4 32 4 16-41 15-95c0-56 19-97 73-99zm17 164c33 0 40-30 41-66 1-37-9-64-41-64s-38 30-39 65c0 43 13 65 39 65" id="ao"/><g id="s"><use transform="matrix(0.04320987654320988,0,0,0.04320987654320988,0,0)" xlink:href="#U"/><use transform="matrix(0.04320987654320988,0,0,0.04320987654320988,6.049382716049383,0)" xlink:href="#S"/><use transform="matrix(0.04320987654320988,0,0,0.04320987654320988,14.69135802469136,0)" xlink:href="#aa"/><use transform="matrix(0.04320987654320988,0,0,0.04320987654320988,24.154320987654323,0)" xlink:href="#ab"/><use transform="matrix(0.04320987654320988,0,0,0.04320987654320988,33.617283950617285,0)" xlink:href="#U"/><use transform="matrix(0.04320987654320988,0,0,0.04320987654320988,39.66666666666667,0)" xlink:href="#W"/><use transform="matrix(0.04320987654320988,0,0,0.04320987654320988,44.808641975308646,0)" xlink:href="#S"/><use transform="matrix(0.04320987654320988,0,0,0.04320987654320988,53.45061728395062,0)" xlink:href="#ao"/></g><g id="t"><use transform="matrix(0.04320987654320988,0,0,0.04320987654320988,0,0)" xlink:href="#ao"/><use transform="matrix(0.04320987654320988,0,0,0.04320987654320988,9.462962962962964,0)" xlink:href="#V"/><use transform="matrix(0.04320987654320988,0,0,0.04320987654320988,18.10493827160494,0)" xlink:href="#W"/><use transform="matrix(0.04320987654320988,0,0,0.04320987654320988,23.246913580246915,0)" xlink:href="#V"/></g><path fill="#e5e5e5" d="M182-182c0 78-84 86-111 141h115V0H12c-6-101 99-100 120-180 1-22-12-31-33-32-23 0-32 14-35 34l-49-3c5-45 32-70 84-70 51 0 83 22 83 69" id="ap"/><g id="u"><use transform="matrix(0.04320987654320988,0,0,0.04320987654320988,0,0)" xlink:href="#ap"/><use transform="matrix(0.04320987654320988,0,0,0.04320987654320988,8.641975308641976,0)" xlink:href="#aj"/></g><path fill="#e5e5e5" d="M24-248c93 1 206-16 204 79-1 75-69 88-152 82V0H24v-248zm52 121c47 0 100 7 100-41 0-47-54-39-100-39v80" id="aq"/><g id="v"><use transform="matrix(0.04320987654320988,0,0,0.04320987654320988,0,0)" xlink:href="#aq"/><use transform="matrix(0.04320987654320988,0,0,0.04320987654320988,10.370370370370372,0)" xlink:href="#U"/><use transform="matrix(0.04320987654320988,0,0,0.04320987654320988,16.419753086419753,0)" xlink:href="#S"/><use transform="matrix(0.04320987654320988,0,0,0.04320987654320988,25.061728395061728,0)" xlink:href="#ae"/><use transform="matrix(0.04320987654320988,0,0,0.04320987654320988,33.7037037037037,0)" xlink:href="#S"/><use transform="matrix(0.04320987654320988,0,0,0.04320987654320988,42.34567901234568,0)" xlink:href="#T"/><use transform="matrix(0.04320987654320988,0,0,0.04320987654320988,51.80864197530864,0)" xlink:href="#W"/><use transform="matrix(0.04320987654320988,0,0,0.04320987654320988,56.95061728395061,0)" xlink:href="#V"/><use transform="matrix(0.04320987654320988,0,0,0.04320987654320988,65.5925925925926,0)" xlink:href="#W"/><use transform="matrix(0.04320987654320988,0,0,0.04320987654320988,70.73456790123457,0)" xlink:href="#X"/><use transform="matrix(0.04320987654320988,0,0,0.04320987654320988,75.05555555555556,0)" xlink:href="#ab"/><use transform="matrix(0.04320987654320988,0,0,0.04320987654320988,84.51851851851852,0)" xlink:href="#T"/></g><g id="w"><use transform="matrix(0.04320987654320988,0,0,0.04320987654320988,0,0)" xlink:href="#ab"/><use transform="matrix(0.04320987654320988,0,0,0.04320987654320988,9.462962962962964,0)" xlink:href="#an"/></g><g id="x"><use transform="matrix(0.04320987654320988,0,0,0.04320987654320988,0,0)" xlink:href="#W"/><use transform="matrix(0.04320987654320988,0,0,0.04320987654320988,5.1419753086419755,0)" xlink:href="#Z"/><use transform="matrix(0.04320987654320988,0,0,0.04320987654320988,14.60493827160494,0)" xlink:href="#S"/></g></defs></g></svg>