<svg xmlns="http://www.w3.org/2000/svg" xmlns:xlink="http://www.w3.org/1999/xlink" xmlns:lucid="lucid" width="1180" height="760"><g transform="translate(-90 0)" lucid:page-tab-id="0_0"><path d="M0 0h1850.6v1430H0z" fill="#fff"/><path d="M720 328c0-4.42 3.58-8 8-8h224c4.42 0 8 3.58 8 8v104c0 4.42-3.58 8-8 8H728c-4.42 0-8-3.58-8-8z" stroke="#fff" stroke-width="4" fill="#e5e5e5"/><path d="M720 355h240m-240 42h240" stroke="#fff" stroke-width="4" fill="none"/><use xlink:href="#a" transform="matrix(1,0,0,1,728,320) translate(57.188271604938265 20.61111111111111)"/><use xlink:href="#b" transform="matrix(1,0,0,1,732,405.33333333333337) translate(0 16.61111111111111)"/><path d="M110 28c0-4.42 3.58-8 8-8h1124c4.42 0 8 3.58 8 8v704c0 4.42-3.58 8-8 8H118c-4.42 0-8-3.58-8-8z" stroke="#000" stroke-width="4" fill="none"/><use xlink:href="#c" transform="matrix(1,0,0,1,118,28) translate(252.20364057239073 22.431515151515143)"/><use xlink:href="#d" transform="matrix(1,0,0,1,118,28) translate(420.20634259259265 22.431515151515143)"/><use xlink:href="#e" transform="matrix(1,0,0,1,118,28) translate(518.1105597643098 22.431515151515143)"/><use xlink:href="#f" transform="matrix(1,0,0,1,118,28) translate(535.1678577441078 22.431515151515143)"/><use xlink:href="#g" transform="matrix(1,0,0,1,118,28) translate(599.9700126262626 22.431515151515143)"/><use xlink:href="#e" transform="matrix(1,0,0,1,118,28) translate(722.7202483164982 22.431515151515143)"/><use xlink:href="#h" transform="matrix(1,0,0,1,118,28) translate(739.7775462962961 22.431515151515143)"/><use xlink:href="#i" transform="matrix(1,0,0,1,118,28) translate(856.2189183501682 22.431515151515143)"/><path d="M720 168c0-4.42 3.58-8 8-8h224c4.42 0 8 3.58 8 8v104c0 4.42-3.58 8-8 8H728c-4.42 0-8-3.58-8-8z" stroke="#fff" stroke-width="4" fill="#e5e5e5"/><path d="M720 195h240m-240 42h240" stroke="#fff" stroke-width="4" fill="none"/><use xlink:href="#j" transform="matrix(1,0,0,1,728,160) translate(65.00925925925927 20.61111111111111)"/><use xlink:href="#k" transform="matrix(1,0,0,1,732,245.33333333333334) translate(0 16.61111111111111)"/><use xlink:href="#l" transform="matrix(1,0,0,1,732,245.33333333333334) translate(13.395061728395063 16.61111111111111)"/><path d="M380 228c0-4.42 3.58-8 8-8h244c4.42 0 8 3.58 8 8v144c0 4.42-3.58 8-8 8H388c-4.42 0-8-3.58-8-8z" stroke="#fff" stroke-width="4" fill="#e5e5e5"/><path d="M380 255h260m-260 40h260" stroke="#fff" stroke-width="4" fill="none"/><use xlink:href="#m" transform="matrix(1,0,0,1,388,220) translate(87.4753086419753 20.61111111111111)"/><use xlink:href="#n" transform="matrix(1,0,0,1,392,262.6666666666667) translate(0 15.61111111111111)"/><use xlink:href="#o" transform="matrix(1,0,0,1,392,262.6666666666667) translate(9.462962962962964 15.61111111111111)"/><use xlink:href="#p" transform="matrix(1,0,0,1,392,262.6666666666667) translate(119.95061728395062 15.61111111111111)"/><use xlink:href="#q" transform="matrix(1,0,0,1,392,303.40000000000003) translate(0 18.944444444444443)"/><use xlink:href="#r" transform="matrix(1,0,0,1,392,303.40000000000003) translate(13.395061728395063 18.944444444444443)"/><use xlink:href="#q" transform="matrix(1,0,0,1,392,303.40000000000003) translate(0 37.611111111111114)"/><use xlink:href="#s" transform="matrix(1,0,0,1,392,303.40000000000003) translate(13.395061728395063 37.611111111111114)"/><use xlink:href="#q" transform="matrix(1,0,0,1,392,303.40000000000003) translate(0 56.277777777777786)"/><use xlink:href="#t" transform="matrix(1,0,0,1,392,303.40000000000003) translate(13.395061728395063 56.277777777777786)"/><path d="M642 300h38v-80h19.76" stroke="#000" stroke-width="2" fill="none"/><path d="M642 301h-2v-2h2zM714.76 220l-14.26 4.64v-9.28z"/><path d="M718 220l-18.5 6v-12zm-16.5 3.26l10.03-3.26-10.03-3.26z"/><path d="M642 300h38v80h19.76" stroke="#000" stroke-width="2" fill="none"/><path d="M642 301h-2v-2h2zM714.76 380l-14.26 4.64v-9.28z"/><path d="M718 380l-18.5 6v-12zm-16.5 3.26l10.03-3.26-10.03-3.26z"/><path d="M380 508c0-4.42 3.58-8 8-8h120c4.42 0 10.53 2.53 13.66 5.66l12.68 12.68c3.13 3.13 5.66 9.24 5.66 13.66v80c0 4.42-3.58 8-8 8H388c-4.42 0-8-3.58-8-8z" stroke="#fff" stroke-width="4" fill="#e5e5e5"/><path d="M517.94 507.76c-1.07-4.3.6-5.23 3.72-2.1l12.68 12.68c3.13 3.13 2.2 4.8-2.1 3.72l-3.68-.92c-4.3-1.07-8.63-5.4-9.7-9.7z" stroke="#fff" stroke-width="4" fill="#a0a0a0"/><g><use xlink:href="#u" transform="matrix(1,0,0,1,380,500) translate(5.01 46.19444444444444)"/><use xlink:href="#v" transform="matrix(1,0,0,1,380,500) translate(66.32481481481481 46.19444444444444)"/><use xlink:href="#w" transform="matrix(1,0,0,1,380,500) translate(92.25074074074075 46.19444444444444)"/><use xlink:href="#x" transform="matrix(1,0,0,1,380,500) translate(5.01 64.86111111111111)"/><use xlink:href="#y" transform="matrix(1,0,0,1,380,500) translate(74.01617283950618 64.86111111111111)"/><use xlink:href="#z" transform="matrix(1,0,0,1,380,500) translate(111.95444444444445 64.86111111111111)"/><use xlink:href="#A" transform="matrix(1,0,0,1,380,500) translate(5.01 83.52777777777779)"/><use xlink:href="#B" transform="matrix(1,0,0,1,380,500) translate(22.293950617283954 83.52777777777779)"/></g><path d="M580 508c0-4.42 3.58-8 8-8h120c4.42 0 10.53 2.53 13.66 5.66l12.68 12.68c3.13 3.13 5.66 9.24 5.66 13.66v80c0 4.42-3.58 8-8 8H588c-4.42 0-8-3.58-8-8z" stroke="#fff" stroke-width="4" fill="#e5e5e5"/><path d="M717.94 507.76c-1.07-4.3.6-5.23 3.72-2.1l12.68 12.68c3.13 3.13 2.2 4.8-2.1 3.72l-3.68-.92c-4.3-1.07-8.63-5.4-9.7-9.7z" stroke="#fff" stroke-width="4" fill="#a0a0a0"/><g><use xlink:href="#C" transform="matrix(1,0,0,1,580,500) translate(5.01 34.94444444444444)"/><use xlink:href="#D" transform="matrix(1,0,0,1,580,500) translate(42.991481481481486 34.94444444444444)"/><use xlink:href="#E" transform="matrix(1,0,0,1,580,500) translate(5.01 53.611111111111114)"/><use xlink:href="#F" transform="matrix(1,0,0,1,580,500) translate(61.13962962962963 53.611111111111114)"/><use xlink:href="#G" transform="matrix(1,0,0,1,580,500) translate(5.01 72.27777777777779)"/><use xlink:href="#H" transform="matrix(1,0,0,1,580,500) translate(107.67666666666666 72.27777777777779)"/><use xlink:href="#I" transform="matrix(1,0,0,1,580,500) translate(124.0532098765432 72.27777777777779)"/><use xlink:href="#J" transform="matrix(1,0,0,1,580,500) translate(5.01 90.94444444444446)"/></g><path d="M780 508c0-4.42 3.58-8 8-8h120c4.42 0 10.53 2.53 13.66 5.66l12.68 12.68c3.13 3.13 5.66 9.24 5.66 13.66v80c0 4.42-3.58 8-8 8H788c-4.42 0-8-3.58-8-8z" stroke="#fff" stroke-width="4" fill="#e5e5e5"/><path d="M917.94 507.76c-1.07-4.3.6-5.23 3.72-2.1l12.68 12.68c3.13 3.13 2.2 4.8-2.1 3.72l-3.68-.92c-4.3-1.07-8.63-5.4-9.7-9.7z" stroke="#fff" stroke-width="4" fill="#a0a0a0"/><g><use xlink:href="#K" transform="matrix(1,0,0,1,780,500) translate(5.01 46.19444444444444)"/><use xlink:href="#L" transform="matrix(1,0,0,1,780,500) translate(41.26308641975309 46.19444444444444)"/><use xlink:href="#v" transform="matrix(1,0,0,1,780,500) translate(58.54703703703704 46.19444444444444)"/><use xlink:href="#M" transform="matrix(1,0,0,1,780,500) translate(84.47296296296298 46.19444444444444)"/><use xlink:href="#F" transform="matrix(1,0,0,1,780,500) translate(148.3803703703704 46.19444444444444)"/><use xlink:href="#N" transform="matrix(1,0,0,1,780,500) translate(5.01 64.86111111111111)"/><use xlink:href="#O" transform="matrix(1,0,0,1,780,500) translate(78.38037037037039 64.86111111111111)"/><use xlink:href="#P" transform="matrix(1,0,0,1,780,500) translate(111.21987654320989 64.86111111111111)"/><use xlink:href="#Q" transform="matrix(1,0,0,1,780,500) translate(131.96061728395063 64.86111111111111)"/><use xlink:href="#R" transform="matrix(1,0,0,1,780,500) translate(5.01 83.52777777777779)"/></g><defs><path d="M30 0v-248h187v28H63v79h144v27H63v87h162V0H30" id="S"/><path d="M210-169c-67 3-38 105-44 169h-31v-121c0-29-5-50-35-48C34-165 62-65 56 0H25l-1-190h30c1 10-1 24 2 32 10-44 99-50 107 0 11-21 27-35 58-36 85-2 47 119 55 194h-31v-121c0-29-5-49-35-48" id="T"/><path d="M115-194c55 1 70 41 70 98S169 2 115 4C84 4 66-9 55-30l1 105H24l-1-265h31l2 30c10-21 28-34 59-34zm-8 174c40 0 45-34 45-75s-6-73-45-74c-42 0-51 32-51 76 0 43 10 73 51 73" id="U"/><path d="M24 0v-261h32V0H24" id="V"/><path d="M100-194c62-1 85 37 85 99 1 63-27 99-86 99S16-35 15-95c0-66 28-99 85-99zM99-20c44 1 53-31 53-75 0-43-8-75-51-75s-53 32-53 75 10 74 51 75" id="W"/><path d="M179-190L93 31C79 59 56 82 12 73V49c39 6 53-20 64-50L1-190h34L92-34l54-156h33" id="X"/><path d="M100-194c63 0 86 42 84 106H49c0 40 14 67 53 68 26 1 43-12 49-29l28 8c-11 28-37 45-77 45C44 4 14-33 15-96c1-61 26-98 85-98zm52 81c6-60-76-77-97-28-3 7-6 17-6 28h103" id="Y"/><path d="M185-189c-5-48-123-54-124 2 14 75 158 14 163 119 3 78-121 87-175 55-17-10-28-26-33-46l33-7c5 56 141 63 141-1 0-78-155-14-162-118-5-82 145-84 179-34 5 7 8 16 11 25" id="Z"/><path d="M141-36C126-15 110 5 73 4 37 3 15-17 15-53c-1-64 63-63 125-63 3-35-9-54-41-54-24 1-41 7-42 31l-33-3c5-37 33-52 76-52 45 0 72 20 72 64v82c-1 20 7 32 28 27v20c-31 9-61-2-59-35zM48-53c0 20 12 33 32 33 41-3 63-29 60-74-43 2-92-5-92 41" id="aa"/><path d="M108 0H70L1-190h34L89-25l56-165h34" id="ab"/><path d="M114-163C36-179 61-72 57 0H25l-1-190h30c1 12-1 29 2 39 6-27 23-49 58-41v29" id="ac"/><g id="a"><use transform="matrix(0.04320987654320988,0,0,0.04320987654320988,0,0)" xlink:href="#S"/><use transform="matrix(0.04320987654320988,0,0,0.04320987654320988,10.370370370370372,0)" xlink:href="#T"/><use transform="matrix(0.04320987654320988,0,0,0.04320987654320988,23.290123456790127,0)" xlink:href="#U"/><use transform="matrix(0.04320987654320988,0,0,0.04320987654320988,31.9320987654321,0)" xlink:href="#V"/><use transform="matrix(0.04320987654320988,0,0,0.04320987654320988,35.345679012345684,0)" xlink:href="#W"/><use transform="matrix(0.04320987654320988,0,0,0.04320987654320988,43.98765432098766,0)" xlink:href="#X"/><use transform="matrix(0.04320987654320988,0,0,0.04320987654320988,51.76543209876544,0)" xlink:href="#Y"/><use transform="matrix(0.04320987654320988,0,0,0.04320987654320988,60.40740740740741,0)" xlink:href="#Y"/><use transform="matrix(0.04320987654320988,0,0,0.04320987654320988,69.0493827160494,0)" xlink:href="#Z"/><use transform="matrix(0.04320987654320988,0,0,0.04320987654320988,79.41975308641976,0)" xlink:href="#aa"/><use transform="matrix(0.04320987654320988,0,0,0.04320987654320988,88.06172839506173,0)" xlink:href="#ab"/><use transform="matrix(0.04320987654320988,0,0,0.04320987654320988,95.83950617283952,0)" xlink:href="#Y"/><use transform="matrix(0.04320987654320988,0,0,0.04320987654320988,104.4814814814815,0)" xlink:href="#ac"/></g><path d="M118-107v75H92v-75H18v-26h74v-75h26v75h74v26h-74" id="ad"/><path d="M135-143c-3-34-86-38-87 0 15 53 115 12 119 90S17 21 10-45l28-5c4 36 97 45 98 0-10-56-113-15-118-90-4-57 82-63 122-42 12 7 21 19 24 35" id="ae"/><path d="M87 75C49 33 22-17 22-94c0-76 28-126 65-167h31c-38 41-64 92-64 168S80 34 118 75H87" id="af"/><path d="M33-261c38 41 65 92 65 168S71 34 33 75H2C39 34 66-17 66-93S39-220 2-261h31" id="ag"/><g id="b"><use transform="matrix(0.04320987654320988,0,0,0.04320987654320988,0,0)" xlink:href="#ad"/><use transform="matrix(0.04320987654320988,0,0,0.04320987654320988,9.074074074074074,0)" xlink:href="#ae"/><use transform="matrix(0.04320987654320988,0,0,0.04320987654320988,16.851851851851855,0)" xlink:href="#aa"/><use transform="matrix(0.04320987654320988,0,0,0.04320987654320988,25.49382716049383,0)" xlink:href="#ab"/><use transform="matrix(0.04320987654320988,0,0,0.04320987654320988,33.27160493827161,0)" xlink:href="#Y"/><use transform="matrix(0.04320987654320988,0,0,0.04320987654320988,41.91358024691358,0)" xlink:href="#S"/><use transform="matrix(0.04320987654320988,0,0,0.04320987654320988,52.283950617283956,0)" xlink:href="#T"/><use transform="matrix(0.04320987654320988,0,0,0.04320987654320988,65.20370370370371,0)" xlink:href="#U"/><use transform="matrix(0.04320987654320988,0,0,0.04320987654320988,73.84567901234568,0)" xlink:href="#V"/><use transform="matrix(0.04320987654320988,0,0,0.04320987654320988,77.25925925925927,0)" xlink:href="#W"/><use transform="matrix(0.04320987654320988,0,0,0.04320987654320988,85.90123456790124,0)" xlink:href="#X"/><use transform="matrix(0.04320987654320988,0,0,0.04320987654320988,93.67901234567903,0)" xlink:href="#Y"/><use transform="matrix(0.04320987654320988,0,0,0.04320987654320988,102.32098765432097,0)" xlink:href="#Y"/><use transform="matrix(0.04320987654320988,0,0,0.04320987654320988,110.96296296296296,0)" xlink:href="#af"/><use transform="matrix(0.04320987654320988,0,0,0.04320987654320988,116.10493827160494,0)" xlink:href="#ag"/></g><path d="M24-248c93 1 206-16 204 79-1 75-69 88-152 82V0H24v-248zm52 121c47 0 100 7 100-41 0-47-54-39-100-39v80" id="ah"/><path d="M135-150c-39-12-60 13-60 57V0H25l-1-190h47c2 13-1 29 3 40 6-28 27-53 61-41v41" id="ai"/><path d="M110-194c64 0 96 36 96 99 0 64-35 99-97 99-61 0-95-36-95-99 0-62 34-99 96-99zm-1 164c35 0 45-28 45-65 0-40-10-65-43-65-34 0-45 26-45 65 0 36 10 65 43 65" id="aj"/><path d="M135-194c52 0 70 43 70 98 0 56-19 99-73 100-30 1-46-15-58-35L72 0H24l1-261h50v104c11-23 29-37 60-37zM114-30c31 0 40-27 40-66 0-37-7-63-39-63s-41 28-41 65c0 36 8 64 40 64" id="ak"/><path d="M25 0v-261h50V0H25" id="al"/><path d="M185-48c-13 30-37 53-82 52C43 2 14-33 14-96s30-98 90-98c62 0 83 45 84 108H66c0 31 8 55 39 56 18 0 30-7 34-22zm-45-69c5-46-57-63-70-21-2 6-4 13-4 21h74" id="am"/><path d="M220-157c-53 9-28 100-34 157h-49v-107c1-27-5-49-29-50C55-147 81-57 75 0H25l-1-190h47c2 12-1 28 3 38 10-53 101-56 108 0 13-22 24-43 59-42 82 1 51 116 57 194h-49v-107c-1-25-5-48-29-50" id="an"/><path d="M133-34C117-15 103 5 69 4 32 3 11-16 11-54c-1-60 55-63 116-61 1-26-3-47-28-47-18 1-26 9-28 27l-52-2c7-38 36-58 82-57s74 22 75 68l1 82c-1 14 12 18 25 15v27c-30 8-71 5-69-32zm-48 3c29 0 43-24 42-57-32 0-66-3-65 30 0 17 8 27 23 27" id="ao"/><path d="M115-3C79 11 28 4 28-45v-112H4v-33h27l15-45h31v45h36v33H77v99c-1 23 16 31 38 25v30" id="ap"/><path d="M25-224v-37h50v37H25zM25 0v-190h50V0H25" id="aq"/><path d="M190-63c-7 42-38 67-86 67-59 0-84-38-90-98-12-110 154-137 174-36l-49 2c-2-19-15-32-35-32-30 0-35 28-38 64-6 74 65 87 74 30" id="ar"/><g id="c"><use transform="matrix(0.07788720538720535,0,0,0.07788720538720535,0,0)" xlink:href="#ah"/><use transform="matrix(0.07788720538720535,0,0,0.07788720538720535,18.692929292929286,0)" xlink:href="#ai"/><use transform="matrix(0.07788720538720535,0,0,0.07788720538720535,29.597138047138035,0)" xlink:href="#aj"/><use transform="matrix(0.07788720538720535,0,0,0.07788720538720535,46.65443602693602,0)" xlink:href="#ak"/><use transform="matrix(0.07788720538720535,0,0,0.07788720538720535,63.711734006733984,0)" xlink:href="#al"/><use transform="matrix(0.07788720538720535,0,0,0.07788720538720535,71.50045454545452,0)" xlink:href="#am"/><use transform="matrix(0.07788720538720535,0,0,0.07788720538720535,87.07789562289558,0)" xlink:href="#an"/><use transform="matrix(0.07788720538720535,0,0,0.07788720538720535,112.0018013468013,0)" xlink:href="#ao"/><use transform="matrix(0.07788720538720535,0,0,0.07788720538720535,127.57924242424237,0)" xlink:href="#ap"/><use transform="matrix(0.07788720538720535,0,0,0.07788720538720535,136.8478198653198,0)" xlink:href="#aq"/><use transform="matrix(0.07788720538720535,0,0,0.07788720538720535,144.63654040404032,0)" xlink:href="#ar"/></g><path d="M88-194c31-1 46 15 58 34l-1-101h50l1 261h-48c-2-10 0-23-3-31C134-8 116 4 84 4 32 4 16-41 15-95c0-56 19-97 73-99zm17 164c33 0 40-30 41-66 1-37-9-64-41-64s-38 30-39 65c0 43 13 65 39 65" id="as"/><path d="M137-138c1-29-70-34-71-4 15 46 118 7 119 86 1 83-164 76-172 9l43-7c4 19 20 25 44 25 33 8 57-30 24-41C81-84 22-81 20-136c-2-80 154-74 161-7" id="at"/><path d="M195-6C206 82 75 100 31 46c-4-6-6-13-8-21l49-6c3 16 16 24 34 25 40 0 42-37 40-79-11 22-30 35-61 35-53 0-70-43-70-97 0-56 18-96 73-97 30 0 46 14 59 34l2-30h47zm-90-29c32 0 41-27 41-63 0-35-9-62-40-62-32 0-39 29-40 63 0 36 9 62 39 62" id="au"/><path d="M135-194c87-1 58 113 63 194h-50c-7-57 23-157-34-157-59 0-34 97-39 157H25l-1-190h47c2 12-1 28 3 38 12-26 28-41 61-42" id="av"/><g id="d"><use transform="matrix(0.07788720538720535,0,0,0.07788720538720535,0,0)" xlink:href="#as"/><use transform="matrix(0.07788720538720535,0,0,0.07788720538720535,17.057297979797973,0)" xlink:href="#am"/><use transform="matrix(0.07788720538720535,0,0,0.07788720538720535,32.634739057239045,0)" xlink:href="#at"/><use transform="matrix(0.07788720538720535,0,0,0.07788720538720535,48.212180134680125,0)" xlink:href="#aq"/><use transform="matrix(0.07788720538720535,0,0,0.07788720538720535,56.00090067340065,0)" xlink:href="#au"/><use transform="matrix(0.07788720538720535,0,0,0.07788720538720535,73.05819865319862,0)" xlink:href="#av"/></g><path d="M14-72v-43h91v43H14" id="aw"/><use transform="matrix(0.07788720538720535,0,0,0.07788720538720535,0,0)" xlink:href="#aw" id="e"/><path d="M169-182c-1-43-94-46-97-3 18 66 151 10 154 114 3 95-165 93-204 36-6-8-10-19-12-30l50-8c3 46 112 56 116 5-17-69-150-10-154-114-4-87 153-88 188-35 5 8 8 18 10 28" id="ax"/><path d="M240-174c0 40-23 61-54 70L253 0h-59l-57-94H76V0H24v-248c93 4 217-23 216 74zM76-134c48-2 112 12 112-38 0-48-66-32-112-35v73" id="ay"/><g id="f"><use transform="matrix(0.07788720538720535,0,0,0.07788720538720535,0,0)" xlink:href="#ax"/><use transform="matrix(0.07788720538720535,0,0,0.07788720538720535,18.692929292929286,0)" xlink:href="#ay"/><use transform="matrix(0.07788720538720535,0,0,0.07788720538720535,38.86571548821547,0)" xlink:href="#ah"/></g><path d="M128 0H69L1-190h53L99-40l48-150h52" id="az"/><g id="g"><use transform="matrix(0.07788720538720535,0,0,0.07788720538720535,0,0)" xlink:href="#az"/><use transform="matrix(0.07788720538720535,0,0,0.07788720538720535,15.57744107744107,0)" xlink:href="#aq"/><use transform="matrix(0.07788720538720535,0,0,0.07788720538720535,23.366161616161605,0)" xlink:href="#aj"/><use transform="matrix(0.07788720538720535,0,0,0.07788720538720535,40.42345959595958,0)" xlink:href="#al"/><use transform="matrix(0.07788720538720535,0,0,0.07788720538720535,48.21218013468011,0)" xlink:href="#ao"/><use transform="matrix(0.07788720538720535,0,0,0.07788720538720535,63.78962121212118,0)" xlink:href="#ap"/><use transform="matrix(0.07788720538720535,0,0,0.07788720538720535,73.05819865319862,0)" xlink:href="#aq"/><use transform="matrix(0.07788720538720535,0,0,0.07788720538720535,80.84691919191916,0)" xlink:href="#aj"/><use transform="matrix(0.07788720538720535,0,0,0.07788720538720535,97.90421717171712,0)" xlink:href="#av"/></g><path d="M85 4C-2 5 27-109 22-190h50c7 57-23 150 33 157 60-5 35-97 40-157h50l1 190h-47c-2-12 1-28-3-38-12 25-28 42-61 42" id="aA"/><g id="h"><use transform="matrix(0.07788720538720535,0,0,0.07788720538720535,0,0)" xlink:href="#at"/><use transform="matrix(0.07788720538720535,0,0,0.07788720538720535,15.57744107744107,0)" xlink:href="#aj"/><use transform="matrix(0.07788720538720535,0,0,0.07788720538720535,32.634739057239045,0)" xlink:href="#al"/><use transform="matrix(0.07788720538720535,0,0,0.07788720538720535,40.42345959595958,0)" xlink:href="#aA"/><use transform="matrix(0.07788720538720535,0,0,0.07788720538720535,57.48075757575755,0)" xlink:href="#ap"/><use transform="matrix(0.07788720538720535,0,0,0.07788720538720535,66.74933501683499,0)" xlink:href="#aq"/><use transform="matrix(0.07788720538720535,0,0,0.07788720538720535,74.53805555555553,0)" xlink:href="#aj"/><use transform="matrix(0.07788720538720535,0,0,0.07788720538720535,91.5953535353535,0)" xlink:href="#av"/></g><path d="M165-50V0h-47v-50H5v-38l105-160h55v161h33v37h-33zm-47-37l2-116L46-87h72" id="aB"/><use transform="matrix(0.07788720538720535,0,0,0.07788720538720535,0,0)" xlink:href="#aB" id="i"/><path d="M197 0v-115H63V0H30v-248h33v105h134v-105h34V0h-34" id="aC"/><path d="M84 4C-5 8 30-112 23-190h32v120c0 31 7 50 39 49 72-2 45-101 50-169h31l1 190h-30c-1-10 1-25-2-33-11 22-28 36-60 37" id="aD"/><path d="M233-177c-1 41-23 64-60 70L243 0h-38l-65-103H63V0H30v-248c88 3 205-21 203 71zM63-129c60-2 137 13 137-47 0-61-80-42-137-45v92" id="aE"/><path d="M59-47c-2 24 18 29 38 22v24C64 9 27 4 27-40v-127H5v-23h24l9-43h21v43h35v23H59v120" id="aF"/><g id="j"><use transform="matrix(0.04320987654320988,0,0,0.04320987654320988,0,0)" xlink:href="#aC"/><use transform="matrix(0.04320987654320988,0,0,0.04320987654320988,11.19135802469136,0)" xlink:href="#W"/><use transform="matrix(0.04320987654320988,0,0,0.04320987654320988,19.833333333333336,0)" xlink:href="#aD"/><use transform="matrix(0.04320987654320988,0,0,0.04320987654320988,28.47530864197531,0)" xlink:href="#ac"/><use transform="matrix(0.04320987654320988,0,0,0.04320987654320988,33.617283950617285,0)" xlink:href="#aE"/><use transform="matrix(0.04320987654320988,0,0,0.04320987654320988,44.808641975308646,0)" xlink:href="#Y"/><use transform="matrix(0.04320987654320988,0,0,0.04320987654320988,53.45061728395062,0)" xlink:href="#U"/><use transform="matrix(0.04320987654320988,0,0,0.04320987654320988,62.0925925925926,0)" xlink:href="#W"/><use transform="matrix(0.04320987654320988,0,0,0.04320987654320988,70.73456790123457,0)" xlink:href="#ac"/><use transform="matrix(0.04320987654320988,0,0,0.04320987654320988,75.87654320987654,0)" xlink:href="#aF"/><use transform="matrix(0.04320987654320988,0,0,0.04320987654320988,80.19753086419753,0)" xlink:href="#Y"/><use transform="matrix(0.04320987654320988,0,0,0.04320987654320988,88.83950617283952,0)" xlink:href="#ac"/></g><use transform="matrix(0.04320987654320988,0,0,0.04320987654320988,0,0)" xlink:href="#ad" id="k"/><g id="l"><use transform="matrix(0.04320987654320988,0,0,0.04320987654320988,0,0)" xlink:href="#ac"/><use transform="matrix(0.04320987654320988,0,0,0.04320987654320988,5.1419753086419755,0)" xlink:href="#Y"/><use transform="matrix(0.04320987654320988,0,0,0.04320987654320988,13.783950617283953,0)" xlink:href="#U"/><use transform="matrix(0.04320987654320988,0,0,0.04320987654320988,22.425925925925934,0)" xlink:href="#W"/><use transform="matrix(0.04320987654320988,0,0,0.04320987654320988,31.067901234567906,0)" xlink:href="#ac"/><use transform="matrix(0.04320987654320988,0,0,0.04320987654320988,36.20987654320988,0)" xlink:href="#aF"/><use transform="matrix(0.04320987654320988,0,0,0.04320987654320988,40.53086419753087,0)" xlink:href="#aC"/><use transform="matrix(0.04320987654320988,0,0,0.04320987654320988,51.72222222222223,0)" xlink:href="#W"/><use transform="matrix(0.04320987654320988,0,0,0.04320987654320988,60.3641975308642,0)" xlink:href="#aD"/><use transform="matrix(0.04320987654320988,0,0,0.04320987654320988,69.00617283950618,0)" xlink:href="#ac"/><use transform="matrix(0.04320987654320988,0,0,0.04320987654320988,74.14814814814815,0)" xlink:href="#ae"/><use transform="matrix(0.04320987654320988,0,0,0.04320987654320988,81.92592592592592,0)" xlink:href="#af"/><use transform="matrix(0.04320987654320988,0,0,0.04320987654320988,87.0679012345679,0)" xlink:href="#ag"/></g><g id="m"><use transform="matrix(0.04320987654320988,0,0,0.04320987654320988,0,0)" xlink:href="#S"/><use transform="matrix(0.04320987654320988,0,0,0.04320987654320988,10.370370370370372,0)" xlink:href="#T"/><use transform="matrix(0.04320987654320988,0,0,0.04320987654320988,23.290123456790127,0)" xlink:href="#U"/><use transform="matrix(0.04320987654320988,0,0,0.04320987654320988,31.9320987654321,0)" xlink:href="#V"/><use transform="matrix(0.04320987654320988,0,0,0.04320987654320988,35.345679012345684,0)" xlink:href="#W"/><use transform="matrix(0.04320987654320988,0,0,0.04320987654320988,43.98765432098766,0)" xlink:href="#X"/><use transform="matrix(0.04320987654320988,0,0,0.04320987654320988,51.76543209876544,0)" xlink:href="#Y"/><use transform="matrix(0.04320987654320988,0,0,0.04320987654320988,60.40740740740741,0)" xlink:href="#Y"/></g><path d="M16-82v-28h88v28H16" id="aG"/><use transform="matrix(0.04320987654320988,0,0,0.04320987654320988,0,0)" xlink:href="#aG" id="n"/><path d="M30-248c118-7 216 8 213 122C240-48 200 0 122 0H30v-248zM63-27c89 8 146-16 146-99s-60-101-146-95v194" id="aH"/><path d="M33-154v-36h34v36H33zM33 0v-36h34V0H33" id="aI"/><g id="o"><use transform="matrix(0.04320987654320988,0,0,0.04320987654320988,0,0)" xlink:href="#S"/><use transform="matrix(0.04320987654320988,0,0,0.04320987654320988,10.370370370370372,0)" xlink:href="#T"/><use transform="matrix(0.04320987654320988,0,0,0.04320987654320988,23.290123456790127,0)" xlink:href="#U"/><use transform="matrix(0.04320987654320988,0,0,0.04320987654320988,31.9320987654321,0)" xlink:href="#V"/><use transform="matrix(0.04320987654320988,0,0,0.04320987654320988,35.345679012345684,0)" xlink:href="#W"/><use transform="matrix(0.04320987654320988,0,0,0.04320987654320988,43.98765432098766,0)" xlink:href="#X"/><use transform="matrix(0.04320987654320988,0,0,0.04320987654320988,51.76543209876544,0)" xlink:href="#Y"/><use transform="matrix(0.04320987654320988,0,0,0.04320987654320988,60.40740740740741,0)" xlink:href="#Y"/><use transform="matrix(0.04320987654320988,0,0,0.04320987654320988,69.0493827160494,0)" xlink:href="#aH"/><use transform="matrix(0.04320987654320988,0,0,0.04320987654320988,80.24074074074075,0)" xlink:href="#aa"/><use transform="matrix(0.04320987654320988,0,0,0.04320987654320988,88.88271604938272,0)" xlink:href="#aF"/><use transform="matrix(0.04320987654320988,0,0,0.04320987654320988,93.20370370370371,0)" xlink:href="#aa"/><use transform="matrix(0.04320987654320988,0,0,0.04320987654320988,101.84567901234568,0)" xlink:href="#aI"/></g><g id="p"><use transform="matrix(0.04320987654320988,0,0,0.04320987654320988,0,0)" xlink:href="#Y"/><use transform="matrix(0.04320987654320988,0,0,0.04320987654320988,8.641975308641976,0)" xlink:href="#T"/><use transform="matrix(0.04320987654320988,0,0,0.04320987654320988,21.56172839506173,0)" xlink:href="#U"/><use transform="matrix(0.04320987654320988,0,0,0.04320987654320988,30.203703703703713,0)" xlink:href="#V"/><use transform="matrix(0.04320987654320988,0,0,0.04320987654320988,33.61728395061729,0)" xlink:href="#W"/><use transform="matrix(0.04320987654320988,0,0,0.04320987654320988,42.25925925925927,0)" xlink:href="#X"/><use transform="matrix(0.04320987654320988,0,0,0.04320987654320988,50.037037037037045,0)" xlink:href="#Y"/><use transform="matrix(0.04320987654320988,0,0,0.04320987654320988,58.67901234567902,0)" xlink:href="#Y"/><use transform="matrix(0.04320987654320988,0,0,0.04320987654320988,67.320987654321,0)" xlink:href="#aH"/><use transform="matrix(0.04320987654320988,0,0,0.04320987654320988,78.51234567901236,0)" xlink:href="#aa"/><use transform="matrix(0.04320987654320988,0,0,0.04320987654320988,87.15432098765433,0)" xlink:href="#aF"/><use transform="matrix(0.04320987654320988,0,0,0.04320987654320988,91.47530864197532,0)" xlink:href="#aa"/></g><use transform="matrix(0.04320987654320988,0,0,0.04320987654320988,0,0)" xlink:href="#ad" id="q"/><path d="M96-169c-40 0-48 33-48 73s9 75 48 75c24 0 41-14 43-38l32 2c-6 37-31 61-74 61-59 0-76-41-82-99-10-93 101-131 147-64 4 7 5 14 7 22l-32 3c-4-21-16-35-41-35" id="aJ"/><path d="M30-248c87 1 191-15 191 75 0 78-77 80-158 76V0H30v-248zm33 125c57 0 124 11 124-50 0-59-68-47-124-48v98" id="aK"/><g id="r"><use transform="matrix(0.04320987654320988,0,0,0.04320987654320988,0,0)" xlink:href="#aJ"/><use transform="matrix(0.04320987654320988,0,0,0.04320987654320988,7.777777777777779,0)" xlink:href="#aa"/><use transform="matrix(0.04320987654320988,0,0,0.04320987654320988,16.419753086419753,0)" xlink:href="#V"/><use transform="matrix(0.04320987654320988,0,0,0.04320987654320988,19.833333333333336,0)" xlink:href="#aJ"/><use transform="matrix(0.04320987654320988,0,0,0.04320987654320988,27.611111111111114,0)" xlink:href="#aD"/><use transform="matrix(0.04320987654320988,0,0,0.04320987654320988,36.25308641975309,0)" xlink:href="#V"/><use transform="matrix(0.04320987654320988,0,0,0.04320987654320988,39.66666666666667,0)" xlink:href="#aa"/><use transform="matrix(0.04320987654320988,0,0,0.04320987654320988,48.308641975308646,0)" xlink:href="#aF"/><use transform="matrix(0.04320987654320988,0,0,0.04320987654320988,52.62962962962963,0)" xlink:href="#Y"/><use transform="matrix(0.04320987654320988,0,0,0.04320987654320988,61.27160493827161,0)" xlink:href="#aK"/><use transform="matrix(0.04320987654320988,0,0,0.04320987654320988,71.64197530864197,0)" xlink:href="#aa"/><use transform="matrix(0.04320987654320988,0,0,0.04320987654320988,80.28395061728395,0)" xlink:href="#X"/><use transform="matrix(0.04320987654320988,0,0,0.04320987654320988,88.06172839506172,0)" xlink:href="#af"/><use transform="matrix(0.04320987654320988,0,0,0.04320987654320988,93.2037037037037,0)" xlink:href="#ag"/></g><g id="s"><use transform="matrix(0.04320987654320988,0,0,0.04320987654320988,0,0)" xlink:href="#ac"/><use transform="matrix(0.04320987654320988,0,0,0.04320987654320988,5.1419753086419755,0)" xlink:href="#Y"/><use transform="matrix(0.04320987654320988,0,0,0.04320987654320988,13.783950617283953,0)" xlink:href="#U"/><use transform="matrix(0.04320987654320988,0,0,0.04320987654320988,22.425925925925934,0)" xlink:href="#W"/><use transform="matrix(0.04320987654320988,0,0,0.04320987654320988,31.067901234567906,0)" xlink:href="#ac"/><use transform="matrix(0.04320987654320988,0,0,0.04320987654320988,36.20987654320988,0)" xlink:href="#aF"/><use transform="matrix(0.04320987654320988,0,0,0.04320987654320988,40.53086419753087,0)" xlink:href="#aC"/><use transform="matrix(0.04320987654320988,0,0,0.04320987654320988,51.72222222222223,0)" xlink:href="#W"/><use transform="matrix(0.04320987654320988,0,0,0.04320987654320988,60.3641975308642,0)" xlink:href="#aD"/><use transform="matrix(0.04320987654320988,0,0,0.04320987654320988,69.00617283950618,0)" xlink:href="#ac"/><use transform="matrix(0.04320987654320988,0,0,0.04320987654320988,74.14814814814815,0)" xlink:href="#ae"/><use transform="matrix(0.04320987654320988,0,0,0.04320987654320988,81.92592592592592,0)" xlink:href="#af"/><use transform="matrix(0.04320987654320988,0,0,0.04320987654320988,87.0679012345679,0)" xlink:href="#ag"/></g><g id="t"><use transform="matrix(0.04320987654320988,0,0,0.04320987654320988,0,0)" xlink:href="#ae"/><use transform="matrix(0.04320987654320988,0,0,0.04320987654320988,7.777777777777779,0)" xlink:href="#aa"/><use transform="matrix(0.04320987654320988,0,0,0.04320987654320988,16.419753086419753,0)" xlink:href="#ab"/><use transform="matrix(0.04320987654320988,0,0,0.04320987654320988,24.19753086419753,0)" xlink:href="#Y"/><use transform="matrix(0.04320987654320988,0,0,0.04320987654320988,32.839506172839506,0)" xlink:href="#af"/><use transform="matrix(0.04320987654320988,0,0,0.04320987654320988,37.98148148148148,0)" xlink:href="#ag"/></g><path d="M194 0L95-120 63-95V0H30v-248h33v124l119-124h40L117-140 236 0h-42" id="aL"/><path d="M24-231v-30h32v30H24zM24 0v-190h32V0H24" id="aM"/><path d="M117-194c89-4 53 116 60 194h-32v-121c0-31-8-49-39-48C34-167 62-67 57 0H25l-1-190h30c1 10-1 24 2 32 11-22 29-35 61-36" id="aN"/><path d="M177-190C167-65 218 103 67 71c-23-6-38-20-44-43l32-5c15 47 100 32 89-28v-30C133-14 115 1 83 1 29 1 15-40 15-95c0-56 16-97 71-98 29-1 48 16 59 35 1-10 0-23 2-32h30zM94-22c36 0 50-32 50-73 0-42-14-75-50-75-39 0-46 34-46 75s6 73 46 73" id="aO"/><g id="u"><use transform="matrix(0.04320987654320988,0,0,0.04320987654320988,0,0)" xlink:href="#aL"/><use transform="matrix(0.04320987654320988,0,0,0.04320987654320988,10.370370370370372,0)" xlink:href="#Y"/><use transform="matrix(0.04320987654320988,0,0,0.04320987654320988,19.01234567901235,0)" xlink:href="#Y"/><use transform="matrix(0.04320987654320988,0,0,0.04320987654320988,27.654320987654323,0)" xlink:href="#U"/><use transform="matrix(0.04320987654320988,0,0,0.04320987654320988,36.2962962962963,0)" xlink:href="#aM"/><use transform="matrix(0.04320987654320988,0,0,0.04320987654320988,39.70987654320988,0)" xlink:href="#aN"/><use transform="matrix(0.04320987654320988,0,0,0.04320987654320988,48.351851851851855,0)" xlink:href="#aO"/></g><path d="M106-169C34-169 62-67 57 0H25v-261h32l-1 103c12-21 28-36 61-36 89 0 53 116 60 194h-32v-121c2-32-8-49-39-48" id="aP"/><g id="v"><use transform="matrix(0.04320987654320988,0,0,0.04320987654320988,0,0)" xlink:href="#aF"/><use transform="matrix(0.04320987654320988,0,0,0.04320987654320988,4.320987654320988,0)" xlink:href="#aP"/><use transform="matrix(0.04320987654320988,0,0,0.04320987654320988,12.962962962962964,0)" xlink:href="#Y"/></g><g id="w"><use transform="matrix(0.04320987654320988,0,0,0.04320987654320988,0,0)" xlink:href="#T"/><use transform="matrix(0.04320987654320988,0,0,0.04320987654320988,12.919753086419755,0)" xlink:href="#W"/><use transform="matrix(0.04320987654320988,0,0,0.04320987654320988,21.56172839506173,0)" xlink:href="#ae"/><use transform="matrix(0.04320987654320988,0,0,0.04320987654320988,29.33950617283951,0)" xlink:href="#aF"/></g><g id="x"><use transform="matrix(0.04320987654320988,0,0,0.04320987654320988,0,0)" xlink:href="#aM"/><use transform="matrix(0.04320987654320988,0,0,0.04320987654320988,3.4135802469135808,0)" xlink:href="#T"/><use transform="matrix(0.04320987654320988,0,0,0.04320987654320988,16.333333333333336,0)" xlink:href="#U"/><use transform="matrix(0.04320987654320988,0,0,0.04320987654320988,24.97530864197531,0)" xlink:href="#W"/><use transform="matrix(0.04320987654320988,0,0,0.04320987654320988,33.617283950617285,0)" xlink:href="#ac"/><use transform="matrix(0.04320987654320988,0,0,0.04320987654320988,38.75925925925926,0)" xlink:href="#aF"/><use transform="matrix(0.04320987654320988,0,0,0.04320987654320988,43.08024691358025,0)" xlink:href="#aa"/><use transform="matrix(0.04320987654320988,0,0,0.04320987654320988,51.722222222222214,0)" xlink:href="#aN"/><use transform="matrix(0.04320987654320988,0,0,0.04320987654320988,60.364197530864196,0)" xlink:href="#aF"/></g><g id="y"><use transform="matrix(0.04320987654320988,0,0,0.04320987654320988,0,0)" xlink:href="#ac"/><use transform="matrix(0.04320987654320988,0,0,0.04320987654320988,5.1419753086419755,0)" xlink:href="#aD"/><use transform="matrix(0.04320987654320988,0,0,0.04320987654320988,13.783950617283953,0)" xlink:href="#V"/><use transform="matrix(0.04320987654320988,0,0,0.04320987654320988,17.19753086419753,0)" xlink:href="#Y"/><use transform="matrix(0.04320987654320988,0,0,0.04320987654320988,25.839506172839503,0)" xlink:href="#ae"/></g><g id="z"><use transform="matrix(0.04320987654320988,0,0,0.04320987654320988,0,0)" xlink:href="#aJ"/><use transform="matrix(0.04320987654320988,0,0,0.04320987654320988,7.777777777777779,0)" xlink:href="#V"/><use transform="matrix(0.04320987654320988,0,0,0.04320987654320988,11.19135802469136,0)" xlink:href="#W"/><use transform="matrix(0.04320987654320988,0,0,0.04320987654320988,19.833333333333336,0)" xlink:href="#ae"/><use transform="matrix(0.04320987654320988,0,0,0.04320987654320988,27.611111111111114,0)" xlink:href="#Y"/></g><g id="A"><use transform="matrix(0.04320987654320988,0,0,0.04320987654320988,0,0)" xlink:href="#aF"/><use transform="matrix(0.04320987654320988,0,0,0.04320987654320988,4.320987654320988,0)" xlink:href="#W"/></g><path d="M85-194c31 0 48 13 60 33l-1-100h32l1 261h-30c-2-10 0-23-3-31C134-8 116 4 85 4 32 4 16-35 15-94c0-66 23-100 70-100zm9 24c-40 0-46 34-46 75 0 40 6 74 45 74 42 0 51-32 51-76 0-42-9-74-50-73" id="aQ"/><g id="B"><use transform="matrix(0.04320987654320988,0,0,0.04320987654320988,0,0)" xlink:href="#aQ"/><use transform="matrix(0.04320987654320988,0,0,0.04320987654320988,8.641975308641976,0)" xlink:href="#aa"/><use transform="matrix(0.04320987654320988,0,0,0.04320987654320988,17.283950617283953,0)" xlink:href="#aF"/><use transform="matrix(0.04320987654320988,0,0,0.04320987654320988,21.60493827160494,0)" xlink:href="#aa"/></g><path d="M240 0l2-218c-23 76-54 145-80 218h-23L58-218 59 0H30v-248h44l77 211c21-75 51-140 76-211h43V0h-30" id="aR"/><g id="C"><use transform="matrix(0.04320987654320988,0,0,0.04320987654320988,0,0)" xlink:href="#aR"/><use transform="matrix(0.04320987654320988,0,0,0.04320987654320988,12.919753086419755,0)" xlink:href="#W"/><use transform="matrix(0.04320987654320988,0,0,0.04320987654320988,21.56172839506173,0)" xlink:href="#ae"/><use transform="matrix(0.04320987654320988,0,0,0.04320987654320988,29.33950617283951,0)" xlink:href="#aF"/></g><g id="D"><use transform="matrix(0.04320987654320988,0,0,0.04320987654320988,0,0)" xlink:href="#aM"/><use transform="matrix(0.04320987654320988,0,0,0.04320987654320988,3.4135802469135808,0)" xlink:href="#T"/><use transform="matrix(0.04320987654320988,0,0,0.04320987654320988,16.333333333333336,0)" xlink:href="#U"/><use transform="matrix(0.04320987654320988,0,0,0.04320987654320988,24.97530864197531,0)" xlink:href="#W"/><use transform="matrix(0.04320987654320988,0,0,0.04320987654320988,33.617283950617285,0)" xlink:href="#ac"/><use transform="matrix(0.04320987654320988,0,0,0.04320987654320988,38.75925925925926,0)" xlink:href="#aF"/><use transform="matrix(0.04320987654320988,0,0,0.04320987654320988,43.08024691358025,0)" xlink:href="#aa"/><use transform="matrix(0.04320987654320988,0,0,0.04320987654320988,51.722222222222214,0)" xlink:href="#aN"/><use transform="matrix(0.04320987654320988,0,0,0.04320987654320988,60.364197530864196,0)" xlink:href="#aF"/></g><g id="E"><use transform="matrix(0.04320987654320988,0,0,0.04320987654320988,0,0)" xlink:href="#T"/><use transform="matrix(0.04320987654320988,0,0,0.04320987654320988,12.919753086419755,0)" xlink:href="#Y"/><use transform="matrix(0.04320987654320988,0,0,0.04320987654320988,21.56172839506173,0)" xlink:href="#aF"/><use transform="matrix(0.04320987654320988,0,0,0.04320987654320988,25.88271604938272,0)" xlink:href="#aP"/><use transform="matrix(0.04320987654320988,0,0,0.04320987654320988,34.5246913580247,0)" xlink:href="#W"/><use transform="matrix(0.04320987654320988,0,0,0.04320987654320988,43.16666666666667,0)" xlink:href="#aQ"/></g><use transform="matrix(0.04320987654320988,0,0,0.04320987654320988,0,0)" xlink:href="#aG" id="F"/><g id="G"><use transform="matrix(0.04320987654320988,0,0,0.04320987654320988,0,0)" xlink:href="#aJ"/><use transform="matrix(0.04320987654320988,0,0,0.04320987654320988,7.777777777777779,0)" xlink:href="#aa"/><use transform="matrix(0.04320987654320988,0,0,0.04320987654320988,16.419753086419753,0)" xlink:href="#V"/><use transform="matrix(0.04320987654320988,0,0,0.04320987654320988,19.833333333333336,0)" xlink:href="#aJ"/><use transform="matrix(0.04320987654320988,0,0,0.04320987654320988,27.611111111111114,0)" xlink:href="#aD"/><use transform="matrix(0.04320987654320988,0,0,0.04320987654320988,36.25308641975309,0)" xlink:href="#V"/><use transform="matrix(0.04320987654320988,0,0,0.04320987654320988,39.66666666666667,0)" xlink:href="#aa"/><use transform="matrix(0.04320987654320988,0,0,0.04320987654320988,48.308641975308646,0)" xlink:href="#aF"/><use transform="matrix(0.04320987654320988,0,0,0.04320987654320988,52.62962962962963,0)" xlink:href="#Y"/><use transform="matrix(0.04320987654320988,0,0,0.04320987654320988,61.27160493827161,0)" xlink:href="#aK"/><use transform="matrix(0.04320987654320988,0,0,0.04320987654320988,71.64197530864197,0)" xlink:href="#aa"/><use transform="matrix(0.04320987654320988,0,0,0.04320987654320988,80.28395061728395,0)" xlink:href="#X"/><use transform="matrix(0.04320987654320988,0,0,0.04320987654320988,88.06172839506172,0)" xlink:href="#af"/><use transform="matrix(0.04320987654320988,0,0,0.04320987654320988,93.2037037037037,0)" xlink:href="#ag"/></g><g id="H"><use transform="matrix(0.04320987654320988,0,0,0.04320987654320988,0,0)" xlink:href="#aM"/><use transform="matrix(0.04320987654320988,0,0,0.04320987654320988,3.4135802469135808,0)" xlink:href="#aN"/></g><g id="I"><use transform="matrix(0.04320987654320988,0,0,0.04320987654320988,0,0)" xlink:href="#aF"/><use transform="matrix(0.04320987654320988,0,0,0.04320987654320988,4.320987654320988,0)" xlink:href="#aP"/><use transform="matrix(0.04320987654320988,0,0,0.04320987654320988,12.962962962962964,0)" xlink:href="#Y"/></g><g id="J"><use transform="matrix(0.04320987654320988,0,0,0.04320987654320988,0,0)" xlink:href="#aJ"/><use transform="matrix(0.04320987654320988,0,0,0.04320987654320988,7.777777777777779,0)" xlink:href="#V"/><use transform="matrix(0.04320987654320988,0,0,0.04320987654320988,11.19135802469136,0)" xlink:href="#aa"/><use transform="matrix(0.04320987654320988,0,0,0.04320987654320988,19.833333333333336,0)" xlink:href="#ae"/><use transform="matrix(0.04320987654320988,0,0,0.04320987654320988,27.611111111111114,0)" xlink:href="#ae"/></g><g id="K"><use transform="matrix(0.04320987654320988,0,0,0.04320987654320988,0,0)" xlink:href="#aE"/><use transform="matrix(0.04320987654320988,0,0,0.04320987654320988,11.19135802469136,0)" xlink:href="#Y"/><use transform="matrix(0.04320987654320988,0,0,0.04320987654320988,19.833333333333336,0)" xlink:href="#ae"/><use transform="matrix(0.04320987654320988,0,0,0.04320987654320988,27.611111111111114,0)" xlink:href="#aF"/></g><path d="M101-234c-31-9-42 10-38 44h38v23H63V0H32v-167H5v-23h27c-7-52 17-82 69-68v24" id="aS"/><g id="L"><use transform="matrix(0.04320987654320988,0,0,0.04320987654320988,0,0)" xlink:href="#W"/><use transform="matrix(0.04320987654320988,0,0,0.04320987654320988,8.641975308641976,0)" xlink:href="#aS"/></g><g id="M"><use transform="matrix(0.04320987654320988,0,0,0.04320987654320988,0,0)" xlink:href="#T"/><use transform="matrix(0.04320987654320988,0,0,0.04320987654320988,12.919753086419755,0)" xlink:href="#Y"/><use transform="matrix(0.04320987654320988,0,0,0.04320987654320988,21.56172839506173,0)" xlink:href="#aF"/><use transform="matrix(0.04320987654320988,0,0,0.04320987654320988,25.88271604938272,0)" xlink:href="#aP"/><use transform="matrix(0.04320987654320988,0,0,0.04320987654320988,34.5246913580247,0)" xlink:href="#W"/><use transform="matrix(0.04320987654320988,0,0,0.04320987654320988,43.16666666666667,0)" xlink:href="#aQ"/><use transform="matrix(0.04320987654320988,0,0,0.04320987654320988,51.808641975308646,0)" xlink:href="#ae"/></g><g id="N"><use transform="matrix(0.04320987654320988,0,0,0.04320987654320988,0,0)" xlink:href="#S"/><use transform="matrix(0.04320987654320988,0,0,0.04320987654320988,10.370370370370372,0)" xlink:href="#T"/><use transform="matrix(0.04320987654320988,0,0,0.04320987654320988,23.290123456790127,0)" xlink:href="#U"/><use transform="matrix(0.04320987654320988,0,0,0.04320987654320988,31.9320987654321,0)" xlink:href="#V"/><use transform="matrix(0.04320987654320988,0,0,0.04320987654320988,35.345679012345684,0)" xlink:href="#W"/><use transform="matrix(0.04320987654320988,0,0,0.04320987654320988,43.98765432098766,0)" xlink:href="#X"/><use transform="matrix(0.04320987654320988,0,0,0.04320987654320988,51.76543209876544,0)" xlink:href="#Y"/><use transform="matrix(0.04320987654320988,0,0,0.04320987654320988,60.40740740740741,0)" xlink:href="#Y"/></g><g id="O"><use transform="matrix(0.04320987654320988,0,0,0.04320987654320988,0,0)" xlink:href="#aa"/><use transform="matrix(0.04320987654320988,0,0,0.04320987654320988,8.641975308641976,0)" xlink:href="#aJ"/><use transform="matrix(0.04320987654320988,0,0,0.04320987654320988,16.419753086419753,0)" xlink:href="#aF"/><use transform="matrix(0.04320987654320988,0,0,0.04320987654320988,20.74074074074074,0)" xlink:href="#ae"/></g><g id="P"><use transform="matrix(0.04320987654320988,0,0,0.04320987654320988,0,0)" xlink:href="#aa"/><use transform="matrix(0.04320987654320988,0,0,0.04320987654320988,8.641975308641976,0)" xlink:href="#ae"/></g><use transform="matrix(0.04320987654320988,0,0,0.04320987654320988,0,0)" xlink:href="#aa" id="Q"/><g id="R"><use transform="matrix(0.04320987654320988,0,0,0.04320987654320988,0,0)" xlink:href="#aS"/><use transform="matrix(0.04320987654320988,0,0,0.04320987654320988,4.320987654320988,0)" xlink:href="#aa"/><use transform="matrix(0.04320987654320988,0,0,0.04320987654320988,12.962962962962964,0)" xlink:href="#aJ"/><use transform="matrix(0.04320987654320988,0,0,0.04320987654320988,20.740740740740744,0)" xlink:href="#aa"/><use transform="matrix(0.04320987654320988,0,0,0.04320987654320988,29.382716049382726,0)" xlink:href="#aQ"/><use transform="matrix(0.04320987654320988,0,0,0.04320987654320988,38.0246913580247,0)" xlink:href="#Y"/></g></defs></g></svg>