<svg xmlns="http://www.w3.org/2000/svg" xmlns:xlink="http://www.w3.org/1999/xlink" xmlns:lucid="lucid" width="529" height="477"><g transform="translate(-112 -986)" lucid:page-tab-id="0_0"><path d="M140 1163c0-2.77 2.24-5 5-5h450c2.76 0 5 2.23 5 5v90c0 2.75-2.24 5-5 5H145c-2.76 0-5-2.25-5-5z" stroke="#0c7cba" stroke-width="2" fill="#c1e4f7"/><use xlink:href="#a" transform="matrix(1,0,0,1,148,1165.990566037736) translate(162.546 28.508999999999997)"/><use xlink:href="#b" transform="matrix(1,0,0,1,148,1165.990566037736) translate(120.66899999999997 48.687)"/><use xlink:href="#c" transform="matrix(1,0,0,1,148,1165.990566037736) translate(8.925000000000011 68.865)"/><use xlink:href="#d" transform="matrix(1,0,0,1,148,1165.990566037736) translate(34.52100000000001 68.865)"/><use xlink:href="#e" transform="matrix(1,0,0,1,148,1165.990566037736) translate(107.673 68.865)"/><path d="M370 1156v-37.5" stroke="#000" stroke-width="2" fill="none"/><path d="M371 1157h-2v-1.04h2z"/><path d="M370 1103.24l4.64 14.26h-9.28z" stroke="#000" stroke-width="2"/><path d="M140 1025c0-2.76 2.24-5 5-5h450c2.76 0 5 2.24 5 5v69c0 2.76-2.24 5-5 5H145c-2.76 0-5-2.24-5-5z" stroke="#0c7cba" stroke-width="2" fill="#c1e4f7"/><use xlink:href="#a" transform="matrix(1,0,0,1,148,1028) translate(162.546 28.098)"/><use xlink:href="#f" transform="matrix(1,0,0,1,148,1028) translate(38.93100000000001 48.275999999999996)"/><use xlink:href="#g" transform="matrix(1,0,0,1,148,1028) translate(383.793 48.275999999999996)"/><path d="M140 1357.5c0-2.77 2.24-5 5-5h450c2.76 0 5 2.23 5 5v69c0 2.75-2.24 5-5 5H145c-2.76 0-5-2.25-5-5z" stroke="#c92d39" stroke-width="2" fill="#ffbbb1"/><use xlink:href="#h" transform="matrix(1,0,0,1,148,1360.486522911051) translate(142.25100000000003 28.098)"/><use xlink:href="#i" transform="matrix(1,0,0,1,148,1360.486522911051) translate(238.92900000000003 28.098)"/><use xlink:href="#j" transform="matrix(1,0,0,1,148,1360.486522911051) translate(85.55999999999997 48.275999999999996)"/><path d="M371 1350.5h-2v-23.9h2zm0-44.07h-2v-28.94h2z"/><path d="M371 1351.5h-2v-1.04h2zM374.64 1276.5h-9.28l4.64-14.27z"/><path d="M376 1277.5h-12l6-18.5zm-9.26-2h6.52l-3.26-10.04z"/><g><use xlink:href="#k" transform="matrix(1,0,0,1,159.52600000000007,1306.4328661356835) translate(0 16.776)"/><use xlink:href="#l" transform="matrix(1,0,0,1,159.52600000000007,1306.4328661356835) translate(101.41199999999998 16.776)"/></g><defs><path fill="#0c7cba" d="M50-361l430-181 39 121-314 122 314 122-39 121L50-237v-124" id="m"/><path fill="#0c7cba" d="M219 0H70v-526h149V0zm-75-766c49 0 89 36 89 88s-40 88-89 88-89-36-89-88 40-88 89-88" id="n"/><path fill="#0c7cba" d="M285-411c-21 0-48 2-66 5V0H70v-508c57-16 146-30 224-30 161 0 230 83 230 241V0H375v-279c-2-87-10-129-90-132" id="o"/><path fill="#0c7cba" d="M273 12C125 12 65-67 65-215v-442l149-24v155h179v124H214v185c2 63 16 104 83 103 34 0 71-7 96-17l21 116c-41 16-81 27-141 27" id="p"/><path fill="#0c7cba" d="M323 14C144 14 45-83 45-259c0-170 90-275 252-281 176-6 262 133 239 326H198c8 66 67 100 145 100 51 0 111-11 145-26l20 121C460 2 393 14 323 14zm72-330c13-111-157-138-187-38-4 12-8 25-10 38h197" id="q"/><path fill="#0c7cba" d="M70-498c86-33 237-58 342-19l-25 123c-45-13-116-24-168-8V0H70v-498" id="r"/><path fill="#0c7cba" d="M70-554C56-744 252-822 429-751l-29 119c-23-11-56-18-87-18-75-1-100 46-94 124h184v124H219V0H70v-554" id="s"/><path fill="#0c7cba" d="M183-166c-2 75 96 63 162 58v-113c-63-10-160-16-162 55zm-148 4c-1-153 163-182 310-156 2-69-30-99-103-98-49 0-104 8-139 21L84-515c50-14 111-24 175-25 152-2 229 65 229 215v310C426-2 349 12 261 11 129 9 36-30 35-162" id="t"/><path fill="#0c7cba" d="M319 14C139 11 45-85 45-263c0-194 140-304 348-269 24 4 46 12 68 21l-31 119c-29-11-61-20-102-20-89 0-131 62-131 149 0 96 36 150 137 149 40 0 85-8 115-21l21 122c-38 16-94 28-151 27" id="u"/><path fill="#0c7cba" d="M518-237L88-56 49-177l314-122L49-421l39-121 430 181v124" id="v"/><g id="a"><use transform="matrix(0.018,0,0,0.018,0,0)" xlink:href="#m"/><use transform="matrix(0.018,0,0,0.018,10.223999999999998,0)" xlink:href="#m"/><use transform="matrix(0.018,0,0,0.018,20.447999999999997,0)" xlink:href="#n"/><use transform="matrix(0.018,0,0,0.018,25.65,0)" xlink:href="#o"/><use transform="matrix(0.018,0,0,0.018,36.251999999999995,0)" xlink:href="#p"/><use transform="matrix(0.018,0,0,0.018,43.88399999999999,0)" xlink:href="#q"/><use transform="matrix(0.018,0,0,0.018,54.395999999999994,0)" xlink:href="#r"/><use transform="matrix(0.018,0,0,0.018,61.99199999999999,0)" xlink:href="#s"/><use transform="matrix(0.018,0,0,0.018,69.44399999999999,0)" xlink:href="#t"/><use transform="matrix(0.018,0,0,0.018,79.39799999999998,0)" xlink:href="#u"/><use transform="matrix(0.018,0,0,0.018,87.94799999999998,0)" xlink:href="#q"/><use transform="matrix(0.018,0,0,0.018,98.45999999999998,0)" xlink:href="#v"/><use transform="matrix(0.018,0,0,0.018,108.68399999999997,0)" xlink:href="#v"/></g><path fill="#0c7cba" d="M290-208c46-128 86-275 122-411h133c38 134 80 281 124 411 39-151 69-323 97-485h162C881-461 819-210 749 0H606c-48-130-91-275-133-413-42 138-83 283-131 413H199C129-210 67-461 20-693h169c29 163 61 334 101 485" id="w"/><path fill="#0c7cba" d="M219-119c117 28 188-35 188-148 0-96-35-144-106-144-30 0-64 9-82 21v271zm110-418c161 0 230 111 230 274 0 176-97 276-274 276-78 0-153-12-215-30v-735l149-24v262c32-14 66-23 110-23" id="x"/><path fill="#0c7cba" d="M81-163c48 25 108 46 188 44 62-1 111-12 112-72 0-23-11-42-32-57-53-39-186-63-239-114-33-32-63-73-61-139 5-145 106-205 255-208 84-2 154 22 205 48l-45 123c-41-20-85-38-150-38-76 0-124 32-96 95 68 68 209 75 272 145 33 36 48 78 52 146C554 42 206 52 37-39" id="y"/><path fill="#0c7cba" d="M304-115c21 0 48-2 66-5v-406h149v508C462-2 373 12 295 12 133 12 65-74 65-233v-293h149v275c2 86 11 133 90 136" id="z"/><path fill="#0c7cba" d="M280-179c38-107 73-232 103-347h154C478-328 417-155 336 17c-43 91-86 168-218 168-42 1-85-10-113-21L31 45c41 16 112 24 141-7 14-14 26-35 36-60C132-173 63-338 10-526h158c31 117 71 240 112 347" id="A"/><path fill="#0c7cba" d="M628-38C575-8 488 14 396 14 170 14 50-120 50-347c0-295 267-433 542-323 12 5 21 11 26 14l-45 126c-44-23-101-43-171-41-128 4-190 86-190 221 0 139 59 224 198 226 72 0 128-15 175-39" id="B"/><path fill="#0c7cba" d="M304-540c166 0 258 108 258 276 0 170-90 278-258 278S45-95 45-264c0-168 94-276 259-276zm0 426c75 0 106-68 106-150s-31-148-106-148-107 66-107 148 32 150 107 150" id="C"/><path fill="#0c7cba" d="M375-413c-107-27-178 30-178 133 0 83 34 125 101 125 30 0 58-10 77-20v-238zm-62-125c77 0 150 13 211 30v442c-1 176-89 254-268 254-67 0-134-14-185-31L97 32c47 18 95 30 161 30 84 0 121-38 117-119-31 14-62 22-105 22-148 1-228-95-225-245 3-167 100-258 268-258" id="D"/><g id="b"><use transform="matrix(0.018,0,0,0.018,0,0)" xlink:href="#w"/><use transform="matrix(0.018,0,0,0.018,17.064,0)" xlink:href="#q"/><use transform="matrix(0.018,0,0,0.018,27.576,0)" xlink:href="#x"/><use transform="matrix(0.018,0,0,0.018,38.448,0)" xlink:href="#y"/><use transform="matrix(0.018,0,0,0.018,48.924,0)" xlink:href="#q"/><use transform="matrix(0.018,0,0,0.018,59.43600000000001,0)" xlink:href="#u"/><use transform="matrix(0.018,0,0,0.018,68.436,0)" xlink:href="#z"/><use transform="matrix(0.018,0,0,0.018,79.03800000000001,0)" xlink:href="#r"/><use transform="matrix(0.018,0,0,0.018,86.63400000000001,0)" xlink:href="#n"/><use transform="matrix(0.018,0,0,0.018,91.83600000000001,0)" xlink:href="#p"/><use transform="matrix(0.018,0,0,0.018,100.00800000000002,0)" xlink:href="#A"/><use transform="matrix(0.018,0,0,0.018,109.85400000000003,0)" xlink:href="#B"/><use transform="matrix(0.018,0,0,0.018,121.30200000000004,0)" xlink:href="#C"/><use transform="matrix(0.018,0,0,0.018,132.22800000000004,0)" xlink:href="#o"/><use transform="matrix(0.018,0,0,0.018,142.83000000000004,0)" xlink:href="#s"/><use transform="matrix(0.018,0,0,0.018,150.64200000000005,0)" xlink:href="#n"/><use transform="matrix(0.018,0,0,0.018,155.84400000000005,0)" xlink:href="#D"/><use transform="matrix(0.018,0,0,0.018,166.53600000000006,0)" xlink:href="#z"/><use transform="matrix(0.018,0,0,0.018,177.13800000000006,0)" xlink:href="#r"/><use transform="matrix(0.018,0,0,0.018,184.55400000000006,0)" xlink:href="#q"/><use transform="matrix(0.018,0,0,0.018,195.06600000000006,0)" xlink:href="#r"/></g><path fill="#0c7cba" d="M594-693v133H385V0H229v-560H20v-133h574" id="E"/><g id="c"><use transform="matrix(0.018,0,0,0.018,0,0)" xlink:href="#m"/><use transform="matrix(0.018,0,0,0.018,10.223999999999998,0)" xlink:href="#E"/></g><path fill="#0c7cba" d="M10 0c50-95 118-189 183-271-60-83-120-171-179-255h161l104 160 104-160h154L357-273C425-188 496-91 544 0H384c-32-62-69-125-111-178-41 53-78 117-111 178H10" id="F"/><path fill="#0c7cba" d="M385-390c-18-12-52-21-82-21-71 0-106 48-106 144 0 113 70 176 188 148v-271zM280-537c44 0 73 9 105 23v-238l149-24v759C472 1 397 13 319 13 143 13 45-85 45-260c0-165 72-277 235-277" id="G"/><path fill="#0c7cba" d="M64-139c45 18 98 32 157 32 46 0 72-1 75-39-14-53-105-62-152-89-51-30-89-66-91-145-5-167 225-188 368-133l-26 116c-36-12-75-23-125-23-84 0-86 59-30 82 96 39 207 59 204 194-2 116-97 158-224 158C148 14 81-2 39-18" id="H"/><g id="d"><use transform="matrix(0.018,0,0,0.018,0,0)" xlink:href="#q"/><use transform="matrix(0.018,0,0,0.018,10.511999999999999,0)" xlink:href="#F"/><use transform="matrix(0.018,0,0,0.018,20.483999999999998,0)" xlink:href="#p"/><use transform="matrix(0.018,0,0,0.018,28.115999999999996,0)" xlink:href="#q"/><use transform="matrix(0.018,0,0,0.018,38.628,0)" xlink:href="#o"/><use transform="matrix(0.018,0,0,0.018,49.23,0)" xlink:href="#G"/><use transform="matrix(0.018,0,0,0.018,60.102,0)" xlink:href="#H"/></g><path fill="#0c7cba" d="M627-210C627-44 495 9 311 9 226 8 155 6 80-11v-672c205-29 514-53 513 177 0 55-27 99-80 131 77 27 114 76 114 165zm-158-3c0-105-130-88-237-89v179c101 7 237 15 237-90zm-27-286c0-91-122-76-210-73v151c97-2 210 14 210-78" id="I"/><path fill="#0c7cba" d="M219-203c-2 61 24 87 82 90L280 10C144 10 70-36 70-173v-579l149-24v573" id="J"/><path fill="#0c7cba" d="M219-19C230 151 90 216-72 171l20-121c21 7 32 9 59 9 50 0 62-32 63-82v-503h149v507zm-75-747c49 0 89 36 89 88s-40 88-89 88-89-36-89-88 40-88 89-88" id="K"/><path fill="#0c7cba" d="M540-526C484-337 414-152 337 0H213C136-152 65-338 10-526h158c31 116 69 239 109 347 39-108 78-231 109-347h154" id="L"/><path fill="#0c7cba" d="M123-171c50 0 93 36 93 92s-43 92-93 92-93-36-93-92 43-92 93-92" id="M"/><path fill="#0c7cba" d="M80 0v-693h464v131H236v145h274v131H236V0H80" id="N"/><g id="e"><use transform="matrix(0.018,0,0,0.018,0,0)" xlink:href="#y"/><use transform="matrix(0.018,0,0,0.018,10.475999999999999,0)" xlink:href="#q"/><use transform="matrix(0.018,0,0,0.018,20.988,0)" xlink:href="#u"/><use transform="matrix(0.018,0,0,0.018,29.987999999999996,0)" xlink:href="#z"/><use transform="matrix(0.018,0,0,0.018,40.589999999999996,0)" xlink:href="#r"/><use transform="matrix(0.018,0,0,0.018,48.18599999999999,0)" xlink:href="#n"/><use transform="matrix(0.018,0,0,0.018,53.38799999999999,0)" xlink:href="#p"/><use transform="matrix(0.018,0,0,0.018,61.55999999999999,0)" xlink:href="#A"/><use transform="matrix(0.018,0,0,0.018,71.40599999999999,0)" xlink:href="#I"/><use transform="matrix(0.018,0,0,0.018,83.502,0)" xlink:href="#z"/><use transform="matrix(0.018,0,0,0.018,94.104,0)" xlink:href="#n"/><use transform="matrix(0.018,0,0,0.018,99.306,0)" xlink:href="#J"/><use transform="matrix(0.018,0,0,0.018,104.99399999999999,0)" xlink:href="#G"/><use transform="matrix(0.018,0,0,0.018,115.86600000000001,0)" xlink:href="#q"/><use transform="matrix(0.018,0,0,0.018,126.378,0)" xlink:href="#r"/><use transform="matrix(0.018,0,0,0.018,133.974,0)" xlink:href="#m"/><use transform="matrix(0.018,0,0,0.018,144.19799999999998,0)" xlink:href="#K"/><use transform="matrix(0.018,0,0,0.018,149.39999999999998,0)" xlink:href="#t"/><use transform="matrix(0.018,0,0,0.018,159.35399999999998,0)" xlink:href="#L"/><use transform="matrix(0.018,0,0,0.018,169.07399999999998,0)" xlink:href="#t"/><use transform="matrix(0.018,0,0,0.018,179.028,0)" xlink:href="#F"/><use transform="matrix(0.018,0,0,0.018,189.342,0)" xlink:href="#M"/><use transform="matrix(0.018,0,0,0.018,193.77,0)" xlink:href="#H"/><use transform="matrix(0.018,0,0,0.018,202.49999999999997,0)" xlink:href="#q"/><use transform="matrix(0.018,0,0,0.018,213.01200000000003,0)" xlink:href="#r"/><use transform="matrix(0.018,0,0,0.018,221.166,0)" xlink:href="#L"/><use transform="matrix(0.018,0,0,0.018,231.066,0)" xlink:href="#J"/><use transform="matrix(0.018,0,0,0.018,236.754,0)" xlink:href="#q"/><use transform="matrix(0.018,0,0,0.018,247.266,0)" xlink:href="#p"/><use transform="matrix(0.018,0,0,0.018,255.564,0)" xlink:href="#M"/><use transform="matrix(0.018,0,0,0.018,259.992,0)" xlink:href="#N"/><use transform="matrix(0.018,0,0,0.018,270.324,0)" xlink:href="#n"/><use transform="matrix(0.018,0,0,0.018,275.526,0)" xlink:href="#J"/><use transform="matrix(0.018,0,0,0.018,281.214,0)" xlink:href="#p"/><use transform="matrix(0.018,0,0,0.018,288.846,0)" xlink:href="#q"/><use transform="matrix(0.018,0,0,0.018,299.358,0)" xlink:href="#r"/><use transform="matrix(0.018,0,0,0.018,306.95399999999995,0)" xlink:href="#v"/><use transform="matrix(0.018,0,0,0.018,317.178,0)" xlink:href="#v"/></g><path fill="#0c7cba" d="M17 134C48 46 64-45 55-152h156c13 130-29 231-77 315" id="O"/><g id="f"><use transform="matrix(0.018,0,0,0.018,0,0)" xlink:href="#y"/><use transform="matrix(0.018,0,0,0.018,10.475999999999999,0)" xlink:href="#q"/><use transform="matrix(0.018,0,0,0.018,20.988,0)" xlink:href="#u"/><use transform="matrix(0.018,0,0,0.018,29.987999999999996,0)" xlink:href="#z"/><use transform="matrix(0.018,0,0,0.018,40.589999999999996,0)" xlink:href="#r"/><use transform="matrix(0.018,0,0,0.018,48.18599999999999,0)" xlink:href="#n"/><use transform="matrix(0.018,0,0,0.018,53.38799999999999,0)" xlink:href="#p"/><use transform="matrix(0.018,0,0,0.018,61.55999999999999,0)" xlink:href="#A"/><use transform="matrix(0.018,0,0,0.018,71.40599999999999,0)" xlink:href="#B"/><use transform="matrix(0.018,0,0,0.018,82.854,0)" xlink:href="#C"/><use transform="matrix(0.018,0,0,0.018,93.78000000000002,0)" xlink:href="#o"/><use transform="matrix(0.018,0,0,0.018,104.382,0)" xlink:href="#s"/><use transform="matrix(0.018,0,0,0.018,112.194,0)" xlink:href="#n"/><use transform="matrix(0.018,0,0,0.018,117.396,0)" xlink:href="#D"/><use transform="matrix(0.018,0,0,0.018,128.088,0)" xlink:href="#z"/><use transform="matrix(0.018,0,0,0.018,138.69,0)" xlink:href="#r"/><use transform="matrix(0.018,0,0,0.018,146.106,0)" xlink:href="#q"/><use transform="matrix(0.018,0,0,0.018,156.618,0)" xlink:href="#r"/><use transform="matrix(0.018,0,0,0.018,164.214,0)" xlink:href="#m"/><use transform="matrix(0.018,0,0,0.018,174.438,0)" xlink:href="#K"/><use transform="matrix(0.018,0,0,0.018,179.64,0)" xlink:href="#t"/><use transform="matrix(0.018,0,0,0.018,189.594,0)" xlink:href="#L"/><use transform="matrix(0.018,0,0,0.018,199.314,0)" xlink:href="#t"/><use transform="matrix(0.018,0,0,0.018,209.26800000000003,0)" xlink:href="#F"/><use transform="matrix(0.018,0,0,0.018,219.58200000000002,0)" xlink:href="#M"/><use transform="matrix(0.018,0,0,0.018,224.01000000000002,0)" xlink:href="#H"/><use transform="matrix(0.018,0,0,0.018,232.74,0)" xlink:href="#q"/><use transform="matrix(0.018,0,0,0.018,243.252,0)" xlink:href="#r"/><use transform="matrix(0.018,0,0,0.018,251.406,0)" xlink:href="#L"/><use transform="matrix(0.018,0,0,0.018,261.306,0)" xlink:href="#J"/><use transform="matrix(0.018,0,0,0.018,266.99399999999997,0)" xlink:href="#q"/><use transform="matrix(0.018,0,0,0.018,277.506,0)" xlink:href="#p"/><use transform="matrix(0.018,0,0,0.018,285.804,0)" xlink:href="#M"/><use transform="matrix(0.018,0,0,0.018,290.23199999999997,0)" xlink:href="#N"/><use transform="matrix(0.018,0,0,0.018,300.56399999999996,0)" xlink:href="#n"/><use transform="matrix(0.018,0,0,0.018,305.76599999999996,0)" xlink:href="#J"/><use transform="matrix(0.018,0,0,0.018,311.45399999999995,0)" xlink:href="#p"/><use transform="matrix(0.018,0,0,0.018,319.08599999999996,0)" xlink:href="#q"/><use transform="matrix(0.018,0,0,0.018,329.59799999999996,0)" xlink:href="#r"/><use transform="matrix(0.018,0,0,0.018,336.114,0)" xlink:href="#O"/></g><g id="g"><use transform="matrix(0.018,0,0,0.018,0,0)" xlink:href="#E"/><use transform="matrix(0.018,0,0,0.018,11.052,0)" xlink:href="#v"/></g><path fill="#c92d39" d="M50-361l430-181 39 121-314 122 314 122-39 121L50-237v-124" id="P"/><path fill="#c92d39" d="M183-166c-2 75 96 63 162 58v-113c-63-10-160-16-162 55zm-148 4c-1-153 163-182 310-156 2-69-30-99-103-98-49 0-104 8-139 21L84-515c50-14 111-24 175-25 152-2 229 65 229 215v310C426-2 349 12 261 11 129 9 36-30 35-162" id="Q"/><path fill="#c92d39" d="M219-119c117 28 188-35 188-148 0-96-35-144-106-144-30 0-64 9-82 21v271zm110-418c161 0 230 111 230 274 0 176-97 276-274 276-78 0-153-12-215-30v-735l149-24v262c32-14 66-23 110-23" id="R"/><path fill="#c92d39" d="M64-139c45 18 98 32 157 32 46 0 72-1 75-39-14-53-105-62-152-89-51-30-89-66-91-145-5-167 225-188 368-133l-26 116c-36-12-75-23-125-23-84 0-86 59-30 82 96 39 207 59 204 194-2 116-97 158-224 158C148 14 81-2 39-18" id="S"/><path fill="#c92d39" d="M273 12C125 12 65-67 65-215v-442l149-24v155h179v124H214v185c2 63 16 104 83 103 34 0 71-7 96-17l21 116c-41 16-81 27-141 27" id="T"/><path fill="#c92d39" d="M70-498c86-33 237-58 342-19l-25 123c-45-13-116-24-168-8V0H70v-498" id="U"/><path fill="#c92d39" d="M319 14C139 11 45-85 45-263c0-194 140-304 348-269 24 4 46 12 68 21l-31 119c-29-11-61-20-102-20-89 0-131 62-131 149 0 96 36 150 137 149 40 0 85-8 115-21l21 122c-38 16-94 28-151 27" id="V"/><g id="h"><use transform="matrix(0.018,0,0,0.018,0,0)" xlink:href="#P"/><use transform="matrix(0.018,0,0,0.018,10.223999999999998,0)" xlink:href="#P"/><use transform="matrix(0.018,0,0,0.018,20.447999999999997,0)" xlink:href="#Q"/><use transform="matrix(0.018,0,0,0.018,30.401999999999994,0)" xlink:href="#R"/><use transform="matrix(0.018,0,0,0.018,41.273999999999994,0)" xlink:href="#S"/><use transform="matrix(0.018,0,0,0.018,50.00399999999999,0)" xlink:href="#T"/><use transform="matrix(0.018,0,0,0.018,57.99599999999999,0)" xlink:href="#U"/><use transform="matrix(0.018,0,0,0.018,65.41199999999999,0)" xlink:href="#Q"/><use transform="matrix(0.018,0,0,0.018,75.36599999999997,0)" xlink:href="#V"/><use transform="matrix(0.018,0,0,0.018,84.366,0)" xlink:href="#T"/></g><path fill="#c92d39" d="M219-203c-2 61 24 87 82 90L280 10C144 10 70-36 70-173v-579l149-24v573" id="W"/><path fill="#c92d39" d="M518-237L88-56 49-177l314-122L49-421l39-121 430 181v124" id="X"/><g id="i"><use transform="matrix(0.018,0,0,0.018,0,0)" xlink:href="#V"/><use transform="matrix(0.018,0,0,0.018,9,0)" xlink:href="#W"/><use transform="matrix(0.018,0,0,0.018,14.957999999999998,0)" xlink:href="#Q"/><use transform="matrix(0.018,0,0,0.018,24.912,0)" xlink:href="#S"/><use transform="matrix(0.018,0,0,0.018,33.641999999999996,0)" xlink:href="#S"/><use transform="matrix(0.018,0,0,0.018,42.372,0)" xlink:href="#X"/><use transform="matrix(0.018,0,0,0.018,52.59599999999999,0)" xlink:href="#X"/></g><path fill="#c92d39" d="M290-208c46-128 86-275 122-411h133c38 134 80 281 124 411 39-151 69-323 97-485h162C881-461 819-210 749 0H606c-48-130-91-275-133-413-42 138-83 283-131 413H199C129-210 67-461 20-693h169c29 163 61 334 101 485" id="Y"/><path fill="#c92d39" d="M323 14C144 14 45-83 45-259c0-170 90-275 252-281 176-6 262 133 239 326H198c8 66 67 100 145 100 51 0 111-11 145-26l20 121C460 2 393 14 323 14zm72-330c13-111-157-138-187-38-4 12-8 25-10 38h197" id="Z"/><path fill="#c92d39" d="M81-163c48 25 108 46 188 44 62-1 111-12 112-72 0-23-11-42-32-57-53-39-186-63-239-114-33-32-63-73-61-139 5-145 106-205 255-208 84-2 154 22 205 48l-45 123c-41-20-85-38-150-38-76 0-124 32-96 95 68 68 209 75 272 145 33 36 48 78 52 146C554 42 206 52 37-39" id="aa"/><path fill="#c92d39" d="M304-115c21 0 48-2 66-5v-406h149v508C462-2 373 12 295 12 133 12 65-74 65-233v-293h149v275c2 86 11 133 90 136" id="ab"/><path fill="#c92d39" d="M219 0H70v-526h149V0zm-75-766c49 0 89 36 89 88s-40 88-89 88-89-36-89-88 40-88 89-88" id="ac"/><path fill="#c92d39" d="M280-179c38-107 73-232 103-347h154C478-328 417-155 336 17c-43 91-86 168-218 168-42 1-85-10-113-21L31 45c41 16 112 24 141-7 14-14 26-35 36-60C132-173 63-338 10-526h158c31 117 71 240 112 347" id="ad"/><path fill="#c92d39" d="M628-38C575-8 488 14 396 14 170 14 50-120 50-347c0-295 267-433 542-323 12 5 21 11 26 14l-45 126c-44-23-101-43-171-41-128 4-190 86-190 221 0 139 59 224 198 226 72 0 128-15 175-39" id="ae"/><path fill="#c92d39" d="M304-540c166 0 258 108 258 276 0 170-90 278-258 278S45-95 45-264c0-168 94-276 259-276zm0 426c75 0 106-68 106-150s-31-148-106-148-107 66-107 148 32 150 107 150" id="af"/><path fill="#c92d39" d="M285-411c-21 0-48 2-66 5V0H70v-508c57-16 146-30 224-30 161 0 230 83 230 241V0H375v-279c-2-87-10-129-90-132" id="ag"/><path fill="#c92d39" d="M70-554C56-744 252-822 429-751l-29 119c-23-11-56-18-87-18-75-1-100 46-94 124h184v124H219V0H70v-554" id="ah"/><path fill="#c92d39" d="M375-413c-107-27-178 30-178 133 0 83 34 125 101 125 30 0 58-10 77-20v-238zm-62-125c77 0 150 13 211 30v442c-1 176-89 254-268 254-67 0-134-14-185-31L97 32c47 18 95 30 161 30 84 0 121-38 117-119-31 14-62 22-105 22-148 1-228-95-225-245 3-167 100-258 268-258" id="ai"/><path fill="#c92d39" d="M10 0c86-246 171-474 276-693h149C539-473 626-245 711 0H544c-15-49-35-101-51-150H223c-16 49-36 101-51 150H10zm347-536c-31 85-67 173-98 262h197c-31-90-66-177-99-262" id="aj"/><path fill="#c92d39" d="M385-390c-18-12-52-21-82-21-71 0-106 48-106 144 0 113 70 176 188 148v-271zM280-537c44 0 73 9 105 23v-238l149-24v759C472 1 397 13 319 13 143 13 45-85 45-260c0-165 72-277 235-277" id="ak"/><path fill="#c92d39" d="M219-137c18 12 52 21 82 21 71 0 106-48 106-143 0-113-71-175-188-147v269zm66-401c176 0 274 99 274 275 0 162-70 273-230 273-44 0-78-9-110-23v198H70v-693c62-18 137-30 215-30" id="al"/><g id="j"><use transform="matrix(0.018,0,0,0.018,0,0)" xlink:href="#Y"/><use transform="matrix(0.018,0,0,0.018,17.064,0)" xlink:href="#Z"/><use transform="matrix(0.018,0,0,0.018,27.576,0)" xlink:href="#R"/><use transform="matrix(0.018,0,0,0.018,38.448,0)" xlink:href="#aa"/><use transform="matrix(0.018,0,0,0.018,48.924,0)" xlink:href="#Z"/><use transform="matrix(0.018,0,0,0.018,59.43600000000001,0)" xlink:href="#V"/><use transform="matrix(0.018,0,0,0.018,68.436,0)" xlink:href="#ab"/><use transform="matrix(0.018,0,0,0.018,79.03800000000001,0)" xlink:href="#U"/><use transform="matrix(0.018,0,0,0.018,86.63400000000001,0)" xlink:href="#ac"/><use transform="matrix(0.018,0,0,0.018,91.83600000000001,0)" xlink:href="#T"/><use transform="matrix(0.018,0,0,0.018,100.00800000000002,0)" xlink:href="#ad"/><use transform="matrix(0.018,0,0,0.018,109.85400000000003,0)" xlink:href="#ae"/><use transform="matrix(0.018,0,0,0.018,121.30200000000004,0)" xlink:href="#af"/><use transform="matrix(0.018,0,0,0.018,132.22800000000004,0)" xlink:href="#ag"/><use transform="matrix(0.018,0,0,0.018,142.83000000000004,0)" xlink:href="#ah"/><use transform="matrix(0.018,0,0,0.018,150.64200000000005,0)" xlink:href="#ac"/><use transform="matrix(0.018,0,0,0.018,155.84400000000005,0)" xlink:href="#ai"/><use transform="matrix(0.018,0,0,0.018,166.53600000000006,0)" xlink:href="#ab"/><use transform="matrix(0.018,0,0,0.018,177.13800000000006,0)" xlink:href="#U"/><use transform="matrix(0.018,0,0,0.018,184.55400000000006,0)" xlink:href="#Z"/><use transform="matrix(0.018,0,0,0.018,195.06600000000006,0)" xlink:href="#U"/><use transform="matrix(0.018,0,0,0.018,202.66200000000006,0)" xlink:href="#aj"/><use transform="matrix(0.018,0,0,0.018,215.44200000000004,0)" xlink:href="#ak"/><use transform="matrix(0.018,0,0,0.018,226.31400000000008,0)" xlink:href="#Q"/><use transform="matrix(0.018,0,0,0.018,236.2680000000001,0)" xlink:href="#al"/><use transform="matrix(0.018,0,0,0.018,247.1400000000001,0)" xlink:href="#T"/><use transform="matrix(0.018,0,0,0.018,254.77200000000008,0)" xlink:href="#Z"/><use transform="matrix(0.018,0,0,0.018,265.28400000000005,0)" xlink:href="#U"/></g><path fill="#29294c" d="M218 0H70l125-526h149zm175-691c-5 61-42 101-103 101-43 0-84-27-81-75 5-61 42-101 103-101 43 0 84 27 81 75" id="am"/><path fill="#29294c" d="M423-278c16-57 20-140-54-135-23 1-33 2-53 6L219 0H70l121-502c87-35 277-65 343 12 48-26 88-48 159-48 146 0 203 111 168 254L793 0H644c25-115 59-221 76-344 11-79-88-83-138-46 5 35-1 75-8 106L506 0H357" id="an"/><path fill="#29294c" d="M460-310c0-58-23-105-85-103-21 0-41 2-60 6l-70 291c138 20 215-64 215-194zm-66-228c140 2 214 80 214 217 0 203-120 331-322 331-23 0-45-2-68-6l-45 181H25l166-692c56-16 127-32 203-31" id="ao"/><path fill="#29294c" d="M288 10c-114 0-184-36-186-142 0-28 4-58 11-89l127-531 155-24-139 576c-16 53 8 88 62 87" id="ap"/><path fill="#29294c" d="M324 14c-147-1-224-77-224-220 0-151 80-253 186-306 39-19 82-28 129-28 98 0 165 50 165 148 0 169-158 201-333 205 11 58 37 76 105 77 46 0 92-8 127-22l11 117C449 1 385 15 324 14zm67-436c-76 3-128 63-140 133 85-4 151-11 187-57 18-38 1-78-47-76" id="aq"/><path fill="#29294c" d="M191-502c98-39 318-66 374 32 27 47 34 107 15 186L512 0H363c25-110 51-216 75-328 17-81-51-97-122-79L219 0H70" id="ar"/><path fill="#29294c" d="M276 12C160 12 99-36 101-146c1-31 6-63 14-97l98-414 155-24-38 155h166l-30 122H301c-16 76-39 148-51 227-13 85 109 69 163 48l11 114c-43 15-87 27-148 27" id="as"/><path fill="#29294c" d="M101-146c31 17 84 43 140 40 83 14 118-62 52-94-71-35-157-59-157-165 0-182 255-212 397-137l-51 111c-27-14-78-32-119-31-40 0-78 6-78 46 0 36 30 38 59 54 70 39 136 60 136 164C482 34 191 47 50-32" id="at"/><g id="k"><use transform="matrix(0.018,0,0,0.018,0,0)" xlink:href="#am"/><use transform="matrix(0.018,0,0,0.018,5.093999999999999,0)" xlink:href="#an"/><use transform="matrix(0.018,0,0,0.018,20.321999999999996,0)" xlink:href="#ao"/><use transform="matrix(0.018,0,0,0.018,30.725999999999992,0)" xlink:href="#ap"/><use transform="matrix(0.018,0,0,0.018,36.395999999999994,0)" xlink:href="#aq"/><use transform="matrix(0.018,0,0,0.018,45.936,0)" xlink:href="#an"/><use transform="matrix(0.018,0,0,0.018,61.16399999999999,0)" xlink:href="#aq"/><use transform="matrix(0.018,0,0,0.018,70.70399999999998,0)" xlink:href="#ar"/><use transform="matrix(0.018,0,0,0.018,80.90999999999998,0)" xlink:href="#as"/><use transform="matrix(0.018,0,0,0.018,88.39799999999998,0)" xlink:href="#at"/></g><path fill="#29294c" d="M175 0c-20-221-19-468-4-693h157c-9 158-19 318-12 487 75-132 157-275 223-413h128c7 136 20 282 33 413 77-152 146-322 211-487h165C973-444 871-219 743 0H597c-20-134-35-265-45-408C475-267 406-133 321 0H175" id="au"/><path fill="#29294c" d="M336-518c25-11 49-19 83-19 128 0 186 87 186 215 0 157-87 258-199 310-97 45-251 27-336-13l173-727 155-24zm-97 405c139 22 211-73 218-198 5-76-35-118-111-97-15 3-29 10-41 21" id="av"/><path fill="#29294c" d="M106-169c43 27 95 49 163 53 81 5 155-42 117-118-83-82-237-94-237-259 0-229 317-262 480-158l-65 115c-59-62-297-75-248 68 46 62 144 75 193 134 26 32 48 67 48 124C557 42 208 58 40-50" id="aw"/><path fill="#29294c" d="M329 14c-148-2-229-79-229-224 0-199 115-323 315-330 59-2 105 12 145 31l-51 116c-29-11-53-22-94-21-104 0-163 79-161 188 2 71 26 114 103 114 39 0 77-9 104-21l11 119c-42 15-82 29-143 28" id="ax"/><path fill="#29294c" d="M411-40c-35 27-80 52-141 52-144 0-192-117-159-254l68-284h149c-25 109-56 214-76 327-9 49 5 88 55 87 41-2 59-15 84-38 16-137 54-250 81-376h149l-71 299c-20 74-7 158 15 217L432 9c-7-15-14-31-21-49" id="ay"/><path fill="#29294c" d="M472-398c-40-14-106-20-156-6L219 0H70l120-498c84-29 225-60 326-20" id="az"/><path fill="#29294c" d="M321-172c68-102 112-220 153-354h158C555-308 451-128 326 41c-62 83-153 167-304 137-17-3-32-10-47-17L20 44c42 20 102 25 142-6 20-16 38-35 52-60-38-150-69-313-77-504h153c4 120 14 247 31 354" id="aA"/><path fill="#29294c" d="M433-121c66 0 118-16 164-36l17 127C554-2 493 16 401 14 221 9 123-98 123-280c0-194 102-322 239-391 106-53 277-49 371 12l-56 121c-49-25-81-38-146-38-163 0-242 122-247 287-3 110 46 166 149 168" id="aB"/><path fill="#29294c" d="M396-540c138 2 208 81 208 217 0 146-68 253-168 307-37 20-79 30-128 30-138-2-208-81-208-217 0-147 71-252 170-307 37-20 79-30 126-30zm52 298c18-71 17-179-66-172-95 8-134 98-134 196 0 63 13 106 74 106 76 0 110-66 126-130" id="aC"/><path fill="#29294c" d="M558-632c-44-23-134-26-166 10-22 25-36 57-43 96h176l-30 122H320C262-194 235 78 97 189l-133-19C34 102 76-7 102-118l104-436c33-135 108-222 273-222 50 0 99 14 129 27" id="aD"/><path fill="#29294c" d="M104-229c0-202 136-311 336-311 73 0 133 16 187 41L524-66C489 90 408 188 217 188c-80 0-132-16-184-40L83 30c55 32 187 55 243 6 26-23 41-53 47-93-25 12-54 22-90 22-122-1-179-73-179-194zm148-11c-8 93 97 108 151 58l55-229c-127-19-196 53-206 171" id="aE"/><path fill="#29294c" d="M121-361l474-181 10 124-346 120 284 131-63 111L94-244" id="aF"/><path fill="#29294c" d="M552-237L78-56 68-181l346-120-284-131 63-110 386 188" id="aG"/><g id="l"><use transform="matrix(0.018,0,0,0.018,0,0)" xlink:href="#au"/><use transform="matrix(0.018,0,0,0.018,16.488,0)" xlink:href="#aq"/><use transform="matrix(0.018,0,0,0.018,26.028,0)" xlink:href="#av"/><use transform="matrix(0.018,0,0,0.018,36.378,0)" xlink:href="#aw"/><use transform="matrix(0.018,0,0,0.018,46.44,0)" xlink:href="#aq"/><use transform="matrix(0.018,0,0,0.018,55.98,0)" xlink:href="#ax"/><use transform="matrix(0.018,0,0,0.018,64.61999999999999,0)" xlink:href="#ay"/><use transform="matrix(0.018,0,0,0.018,75.07799999999999,0)" xlink:href="#az"/><use transform="matrix(0.018,0,0,0.018,82.476,0)" xlink:href="#am"/><use transform="matrix(0.018,0,0,0.018,87.57,0)" xlink:href="#as"/><use transform="matrix(0.018,0,0,0.018,95.05799999999999,0)" xlink:href="#aA"/><use transform="matrix(0.018,0,0,0.018,104.63399999999999,0)" xlink:href="#aB"/><use transform="matrix(0.018,0,0,0.018,115.75799999999998,0)" xlink:href="#aC"/><use transform="matrix(0.018,0,0,0.018,126.08999999999997,0)" xlink:href="#ar"/><use transform="matrix(0.018,0,0,0.018,136.29599999999996,0)" xlink:href="#aD"/><use transform="matrix(0.018,0,0,0.018,144.17999999999995,0)" xlink:href="#am"/><use transform="matrix(0.018,0,0,0.018,149.27399999999994,0)" xlink:href="#aE"/><use transform="matrix(0.018,0,0,0.018,159.47999999999993,0)" xlink:href="#ay"/><use transform="matrix(0.018,0,0,0.018,169.93799999999993,0)" xlink:href="#az"/><use transform="matrix(0.018,0,0,0.018,177.24599999999992,0)" xlink:href="#aq"/><use transform="matrix(0.018,0,0,0.018,186.78599999999992,0)" xlink:href="#az"/><use transform="matrix(0.018,0,0,0.018,194.45399999999992,0)" xlink:href="#aF"/><use transform="matrix(0.018,0,0,0.018,204.6779999999999,0)" xlink:href="#au"/><use transform="matrix(0.018,0,0,0.018,221.16599999999988,0)" xlink:href="#aq"/><use transform="matrix(0.018,0,0,0.018,230.70599999999988,0)" xlink:href="#av"/><use transform="matrix(0.018,0,0,0.018,241.05599999999987,0)" xlink:href="#aw"/><use transform="matrix(0.018,0,0,0.018,251.11799999999988,0)" xlink:href="#aq"/><use transform="matrix(0.018,0,0,0.018,260.6579999999999,0)" xlink:href="#ax"/><use transform="matrix(0.018,0,0,0.018,269.2979999999999,0)" xlink:href="#ay"/><use transform="matrix(0.018,0,0,0.018,279.75599999999986,0)" xlink:href="#az"/><use transform="matrix(0.018,0,0,0.018,287.1539999999999,0)" xlink:href="#am"/><use transform="matrix(0.018,0,0,0.018,292.2479999999999,0)" xlink:href="#as"/><use transform="matrix(0.018,0,0,0.018,299.7359999999998,0)" xlink:href="#aA"/><use transform="matrix(0.018,0,0,0.018,309.3119999999999,0)" xlink:href="#aG"/></g></defs></g></svg>