<svg xmlns="http://www.w3.org/2000/svg" xmlns:xlink="http://www.w3.org/1999/xlink" xmlns:lucid="lucid" width="1036" height="424"><g transform="translate(-675 -874)" lucid:page-tab-id="0_0"><path d="M860 905c0-2.76 2.24-5 5-5h290c2.76 0 5 2.24 5 5v89c0 2.76-2.24 5-5 5H865c-2.76 0-5-2.24-5-5z" stroke="#598234" stroke-width="2" fill="#a3d977"/><use xlink:href="#a" transform="matrix(1,0,0,1,868,908) translate(49.55000000000001 45.1)"/><path d="M1011 1077.84l-1.1 3.4-2.92 2.13-1.9.3H855.16l-2.5.82-1.46 2-.2 1.26v59.1h-2v-59.26l.3-1.9 2.13-2.9 3.4-1.12h150.1l1.25-.2 2-1.47.82-2.48v-30.6h2zm0-51.1h-2V1001h2z"/><path d="M1011 1001.03h-2V1000h2zM850 1162.12l-4.64-14.27h9.28z"/><path d="M850 1165.36l-6-18.5h12zm-3.26-16.5l3.26 10.02 3.26-10.03z"/><path d="M700 1171.36c0-2.77 2.24-5 5-5h290c2.76 0 5 2.23 5 5v89c0 2.76-2.24 5-5 5H705c-2.76 0-5-2.24-5-5z" stroke="#000" stroke-width="2" fill="#29294c"/><use xlink:href="#b" transform="matrix(1,0,0,1,708,1174.355172889831) translate(29.000000000000043 45.1)"/><path d="M1030 1171.36c0-2.77 2.24-5 5-5h290c2.76 0 5 2.23 5 5v89c0 2.76-2.24 5-5 5h-290c-2.76 0-5-2.24-5-5z" stroke="#000" stroke-width="2" fill="#29294c"/><use xlink:href="#c" transform="matrix(1,0,0,1,1038,1174.355172889831) translate(32.72500000000001 45.1)"/><path d="M1011 1077.52l.82 2.5 2 1.45 1.26.2h160.08l3.4 1.12 2.13 2.9.3 1.9v59.25h-2v-59.1l-.2-1.26-1.46-2-2.5-.82h-159.92l-1.9-.3-2.9-2.13-1.12-3.4v-30.93h2zm0-50.78h-2V1001h2z"/><path d="M1011 1001.03h-2V1000h2zM1180 1162.12l-4.64-14.27h9.28z"/><path d="M1180 1165.36l-6-18.5h12zm-3.26-16.5l3.26 10.02 3.26-10.03z"/><use xlink:href="#d" transform="matrix(1,0,0,1,971.939,1026.739964901862) translate(0 16.776)"/><path d="M1234.4 950.5H1162v-2h72.4zm126.1 0h-54.9v-2h54.9z"/><path d="M1162.03 950.5H1161v-2h1.03zM1375.76 949.5l-14.26 4.64v-9.28z"/><path d="M1379 949.5l-18.5 6v-12zm-16.5 3.26l10.03-3.26-10.03-3.26z"/><use xlink:href="#e" transform="matrix(1,0,0,1,1234.396,939.411) translate(0 16.776)"/><path d="M1380 905c0-2.76 2.24-5 5-5h290c2.76 0 5 2.24 5 5v89c0 2.76-2.24 5-5 5h-290c-2.76 0-5-2.24-5-5z" stroke="#598234" stroke-width="2" fill="#a3d977"/><use xlink:href="#f" transform="matrix(1,0,0,1,1388,908) translate(13.05000000000004 45.1)"/><path d="M1531 1146.85h-2v-94.73h2zm0-114.9h-2V1001h2z"/><path d="M1531 1001.03h-2V1000h2zM1530 1162.12l-4.64-14.27h9.28z"/><path d="M1530 1165.36l-6-18.5h12zm-3.26-16.5l3.26 10.02 3.26-10.03z"/><use xlink:href="#d" transform="matrix(1,0,0,1,1491.939,1031.9436234459115) translate(0 16.776)"/><path d="M1380 1171.36c0-2.77 2.24-5 5-5h290c2.76 0 5 2.23 5 5v89c0 2.76-2.24 5-5 5h-290c-2.76 0-5-2.24-5-5z" stroke="#000" stroke-width="2" fill="#29294c"/><use xlink:href="#g" transform="matrix(1,0,0,1,1388,1174.355172889831) translate(20.450000000000045 45.1)"/><defs><path fill="#29294c" d="M192-256c86 0 138 45 138 129 0 61-26 109-84 114-27 2-36-18-34-42-11 22-31 42-62 42-41 0-58-28-58-68 0-58 29-104 88-107 26-1 39 14 48 30l7-26h27L235-53c-1 11 6 15 14 16 38-7 54-45 54-90 0-68-42-104-111-104-92 0-143 58-143 150C49-9 89 32 162 32c43 0 75-12 103-28l11 22c-32 17-67 31-116 31C71 57 21 7 21-81c0-109 65-175 171-175zM156-38c42-5 58-44 60-89 1-24-14-38-37-38-41 0-55 40-57 84-1 25 9 46 34 43" id="h"/><path fill="#29294c" d="M24 0v-248h195v40H76v63h132v40H76v65h150V0H24" id="i"/><path fill="#29294c" d="M135-194c87-1 58 113 63 194h-50c-7-57 23-157-34-157-59 0-34 97-39 157H25l-1-190h47c2 12-1 28 3 38 12-26 28-41 61-42" id="j"/><path fill="#29294c" d="M133-34C117-15 103 5 69 4 32 3 11-16 11-54c-1-60 55-63 116-61 1-26-3-47-28-47-18 1-26 9-28 27l-52-2c7-38 36-58 82-57s74 22 75 68l1 82c-1 14 12 18 25 15v27c-30 8-71 5-69-32zm-48 3c29 0 43-24 42-57-32 0-66-3-65 30 0 17 8 27 23 27" id="k"/><path fill="#29294c" d="M135-194c52 0 70 43 70 98 0 56-19 99-73 100-30 1-46-15-58-35L72 0H24l1-261h50v104c11-23 29-37 60-37zM114-30c31 0 40-27 40-66 0-37-7-63-39-63s-41 28-41 65c0 36 8 64 40 64" id="l"/><path fill="#29294c" d="M25 0v-261h50V0H25" id="m"/><path fill="#29294c" d="M185-48c-13 30-37 53-82 52C43 2 14-33 14-96s30-98 90-98c62 0 83 45 84 108H66c0 31 8 55 39 56 18 0 30-7 34-22zm-45-69c5-46-57-63-70-21-2 6-4 13-4 21h74" id="n"/><path fill="#29294c" d="M275 0h-61l-44-196L126 0H64L0-248h53L97-49l45-199h58l43 199 44-199h52" id="o"/><path fill="#29294c" d="M169-182c-1-43-94-46-97-3 18 66 151 10 154 114 3 95-165 93-204 36-6-8-10-19-12-30l50-8c3 46 112 56 116 5-17-69-150-10-154-114-4-87 153-88 188-35 5 8 8 18 10 28" id="p"/><path fill="#29294c" d="M190-63c-7 42-38 67-86 67-59 0-84-38-90-98-12-110 154-137 174-36l-49 2c-2-19-15-32-35-32-30 0-35 28-38 64-6 74 65 87 74 30" id="q"/><path fill="#29294c" d="M85 4C-2 5 27-109 22-190h50c7 57-23 150 33 157 60-5 35-97 40-157h50l1 190h-47c-2-12 1-28-3-38-12 25-28 42-61 42" id="r"/><path fill="#29294c" d="M135-150c-39-12-60 13-60 57V0H25l-1-190h47c2 13-1 29 3 40 6-28 27-53 61-41v41" id="s"/><path fill="#29294c" d="M25-224v-37h50v37H25zM25 0v-190h50V0H25" id="t"/><path fill="#29294c" d="M115-3C79 11 28 4 28-45v-112H4v-33h27l15-45h31v45h36v33H77v99c-1 23 16 31 38 25v30" id="u"/><path fill="#29294c" d="M123 10C108 53 80 86 19 72V37c35 8 53-11 59-39L3-190h52l48 148c12-52 28-100 44-148h51" id="v"/><g id="a"><use transform="matrix(0.05,0,0,0.05,0,0)" xlink:href="#h"/><use transform="matrix(0.05,0,0,0.05,17.55,0)" xlink:href="#i"/><use transform="matrix(0.05,0,0,0.05,29.55,0)" xlink:href="#j"/><use transform="matrix(0.05,0,0,0.05,40.5,0)" xlink:href="#k"/><use transform="matrix(0.05,0,0,0.05,50.5,0)" xlink:href="#l"/><use transform="matrix(0.05,0,0,0.05,61.45,0)" xlink:href="#m"/><use transform="matrix(0.05,0,0,0.05,66.45,0)" xlink:href="#n"/><use transform="matrix(0.05,0,0,0.05,76.45,0)" xlink:href="#o"/><use transform="matrix(0.05,0,0,0.05,93.05000000000001,0)" xlink:href="#n"/><use transform="matrix(0.05,0,0,0.05,103.05000000000001,0)" xlink:href="#l"/><use transform="matrix(0.05,0,0,0.05,114,0)" xlink:href="#p"/><use transform="matrix(0.05,0,0,0.05,126,0)" xlink:href="#n"/><use transform="matrix(0.05,0,0,0.05,136,0)" xlink:href="#q"/><use transform="matrix(0.05,0,0,0.05,146,0)" xlink:href="#r"/><use transform="matrix(0.05,0,0,0.05,156.95,0)" xlink:href="#s"/><use transform="matrix(0.05,0,0,0.05,163.95,0)" xlink:href="#t"/><use transform="matrix(0.05,0,0,0.05,168.95,0)" xlink:href="#u"/><use transform="matrix(0.05,0,0,0.05,174.89999999999998,0)" xlink:href="#v"/></g><path fill="#e5e5e5" d="M275 0h-61l-44-196L126 0H64L0-248h53L97-49l45-199h58l43 199 44-199h52" id="w"/><path fill="#e5e5e5" d="M185-48c-13 30-37 53-82 52C43 2 14-33 14-96s30-98 90-98c62 0 83 45 84 108H66c0 31 8 55 39 56 18 0 30-7 34-22zm-45-69c5-46-57-63-70-21-2 6-4 13-4 21h74" id="x"/><path fill="#e5e5e5" d="M135-194c52 0 70 43 70 98 0 56-19 99-73 100-30 1-46-15-58-35L72 0H24l1-261h50v104c11-23 29-37 60-37zM114-30c31 0 40-27 40-66 0-37-7-63-39-63s-41 28-41 65c0 36 8 64 40 64" id="y"/><path fill="#e5e5e5" d="M169-182c-1-43-94-46-97-3 18 66 151 10 154 114 3 95-165 93-204 36-6-8-10-19-12-30l50-8c3 46 112 56 116 5-17-69-150-10-154-114-4-87 153-88 188-35 5 8 8 18 10 28" id="z"/><path fill="#e5e5e5" d="M190-63c-7 42-38 67-86 67-59 0-84-38-90-98-12-110 154-137 174-36l-49 2c-2-19-15-32-35-32-30 0-35 28-38 64-6 74 65 87 74 30" id="A"/><path fill="#e5e5e5" d="M85 4C-2 5 27-109 22-190h50c7 57-23 150 33 157 60-5 35-97 40-157h50l1 190h-47c-2-12 1-28-3-38-12 25-28 42-61 42" id="B"/><path fill="#e5e5e5" d="M135-150c-39-12-60 13-60 57V0H25l-1-190h47c2 13-1 29 3 40 6-28 27-53 61-41v41" id="C"/><path fill="#e5e5e5" d="M25-224v-37h50v37H25zM25 0v-190h50V0H25" id="D"/><path fill="#e5e5e5" d="M115-3C79 11 28 4 28-45v-112H4v-33h27l15-45h31v45h36v33H77v99c-1 23 16 31 38 25v30" id="E"/><path fill="#e5e5e5" d="M123 10C108 53 80 86 19 72V37c35 8 53-11 59-39L3-190h52l48 148c12-52 28-100 44-148h51" id="F"/><path fill="#e5e5e5" d="M67-125c0 53 21 87 73 88 37 1 54-22 65-47l45 17C233-25 199 4 140 4 58 4 20-42 15-125 8-235 124-281 211-232c18 10 29 29 36 50l-46 12c-8-25-30-41-62-41-52 0-71 34-72 86" id="G"/><path fill="#e5e5e5" d="M110-194c64 0 96 36 96 99 0 64-35 99-97 99-61 0-95-36-95-99 0-62 34-99 96-99zm-1 164c35 0 45-28 45-65 0-40-10-65-43-65-34 0-45 26-45 65 0 36 10 65 43 65" id="H"/><path fill="#e5e5e5" d="M135-194c87-1 58 113 63 194h-50c-7-57 23-157-34-157-59 0-34 97-39 157H25l-1-190h47c2 12-1 28 3 38 12-26 28-41 61-42" id="I"/><path fill="#e5e5e5" d="M121-226c-27-7-43 5-38 36h38v33H83V0H34v-157H6v-33h28c-9-59 32-81 87-68v32" id="J"/><path fill="#e5e5e5" d="M195-6C206 82 75 100 31 46c-4-6-6-13-8-21l49-6c3 16 16 24 34 25 40 0 42-37 40-79-11 22-30 35-61 35-53 0-70-43-70-97 0-56 18-96 73-97 30 0 46 14 59 34l2-30h47zm-90-29c32 0 41-27 41-63 0-35-9-62-40-62-32 0-39 29-40 63 0 36 9 62 39 62" id="K"/><path fill="#e5e5e5" d="M133-34C117-15 103 5 69 4 32 3 11-16 11-54c-1-60 55-63 116-61 1-26-3-47-28-47-18 1-26 9-28 27l-52-2c7-38 36-58 82-57s74 22 75 68l1 82c-1 14 12 18 25 15v27c-30 8-71 5-69-32zm-48 3c29 0 43-24 42-57-32 0-66-3-65 30 0 17 8 27 23 27" id="L"/><g id="b"><use transform="matrix(0.05,0,0,0.05,0,0)" xlink:href="#w"/><use transform="matrix(0.05,0,0,0.05,16.599999999999998,0)" xlink:href="#x"/><use transform="matrix(0.05,0,0,0.05,26.599999999999994,0)" xlink:href="#y"/><use transform="matrix(0.05,0,0,0.05,37.55,0)" xlink:href="#z"/><use transform="matrix(0.05,0,0,0.05,49.55,0)" xlink:href="#x"/><use transform="matrix(0.05,0,0,0.05,59.54999999999999,0)" xlink:href="#A"/><use transform="matrix(0.05,0,0,0.05,69.55,0)" xlink:href="#B"/><use transform="matrix(0.05,0,0,0.05,80.5,0)" xlink:href="#C"/><use transform="matrix(0.05,0,0,0.05,87.5,0)" xlink:href="#D"/><use transform="matrix(0.05,0,0,0.05,92.5,0)" xlink:href="#E"/><use transform="matrix(0.05,0,0,0.05,98.45,0)" xlink:href="#F"/><use transform="matrix(0.05,0,0,0.05,108.45,0)" xlink:href="#G"/><use transform="matrix(0.05,0,0,0.05,121.4,0)" xlink:href="#H"/><use transform="matrix(0.05,0,0,0.05,132.35,0)" xlink:href="#I"/><use transform="matrix(0.05,0,0,0.05,143.29999999999998,0)" xlink:href="#J"/><use transform="matrix(0.05,0,0,0.05,149.24999999999997,0)" xlink:href="#D"/><use transform="matrix(0.05,0,0,0.05,154.24999999999997,0)" xlink:href="#K"/><use transform="matrix(0.05,0,0,0.05,165.19999999999996,0)" xlink:href="#B"/><use transform="matrix(0.05,0,0,0.05,176.14999999999995,0)" xlink:href="#C"/><use transform="matrix(0.05,0,0,0.05,183.14999999999995,0)" xlink:href="#L"/><use transform="matrix(0.05,0,0,0.05,193.14999999999995,0)" xlink:href="#E"/><use transform="matrix(0.05,0,0,0.05,199.09999999999994,0)" xlink:href="#D"/><use transform="matrix(0.05,0,0,0.05,204.09999999999994,0)" xlink:href="#H"/><use transform="matrix(0.05,0,0,0.05,215.04999999999993,0)" xlink:href="#I"/></g><path fill="#e5e5e5" d="M135-194c53 0 70 44 70 98 0 56-19 98-73 100-31 1-45-17-59-34 3 33 2 69 2 105H25l-1-265h48c2 10 0 23 3 31 11-24 29-35 60-35zM114-30c33 0 39-31 40-66 0-38-9-64-40-64-56 0-55 130 0 130" id="M"/><path fill="#e5e5e5" d="M230 0l2-204L168 0h-37L68-204 70 0H24v-248h70l56 185 57-185h69V0h-46" id="N"/><path fill="#e5e5e5" d="M128 0H69L1-190h53L99-40l48-150h52" id="O"/><path fill="#e5e5e5" d="M24 0v-248h52V0H24" id="P"/><path fill="#e5e5e5" d="M220-157c-53 9-28 100-34 157h-49v-107c1-27-5-49-29-50C55-147 81-57 75 0H25l-1-190h47c2 12-1 28 3 38 10-53 101-56 108 0 13-22 24-43 59-42 82 1 51 116 57 194h-49v-107c-1-25-5-48-29-50" id="Q"/><path fill="#e5e5e5" d="M25 0v-261h50V0H25" id="R"/><g id="c"><use transform="matrix(0.05,0,0,0.05,0,0)" xlink:href="#z"/><use transform="matrix(0.05,0,0,0.05,12,0)" xlink:href="#M"/><use transform="matrix(0.05,0,0,0.05,22.950000000000003,0)" xlink:href="#C"/><use transform="matrix(0.05,0,0,0.05,29.950000000000003,0)" xlink:href="#D"/><use transform="matrix(0.05,0,0,0.05,34.95,0)" xlink:href="#I"/><use transform="matrix(0.05,0,0,0.05,45.900000000000006,0)" xlink:href="#K"/><use transform="matrix(0.05,0,0,0.05,56.85,0)" xlink:href="#N"/><use transform="matrix(0.05,0,0,0.05,71.80000000000001,0)" xlink:href="#O"/><use transform="matrix(0.05,0,0,0.05,81.80000000000001,0)" xlink:href="#A"/><use transform="matrix(0.05,0,0,0.05,91.80000000000001,0)" xlink:href="#P"/><use transform="matrix(0.05,0,0,0.05,96.80000000000001,0)" xlink:href="#Q"/><use transform="matrix(0.05,0,0,0.05,112.80000000000001,0)" xlink:href="#M"/><use transform="matrix(0.05,0,0,0.05,123.75,0)" xlink:href="#H"/><use transform="matrix(0.05,0,0,0.05,134.70000000000002,0)" xlink:href="#C"/><use transform="matrix(0.05,0,0,0.05,141.70000000000002,0)" xlink:href="#E"/><use transform="matrix(0.05,0,0,0.05,147.65,0)" xlink:href="#z"/><use transform="matrix(0.05,0,0,0.05,159.65,0)" xlink:href="#x"/><use transform="matrix(0.05,0,0,0.05,169.65,0)" xlink:href="#R"/><use transform="matrix(0.05,0,0,0.05,174.65,0)" xlink:href="#x"/><use transform="matrix(0.05,0,0,0.05,184.65,0)" xlink:href="#A"/><use transform="matrix(0.05,0,0,0.05,194.65,0)" xlink:href="#E"/><use transform="matrix(0.05,0,0,0.05,200.6,0)" xlink:href="#H"/><use transform="matrix(0.05,0,0,0.05,211.54999999999995,0)" xlink:href="#C"/></g><path fill="#29294c" d="M924-330c0 172-59 302-223 302-42 0-84-9-106-32-29 21-66 31-111 31-150 0-225-92-225-244 0-153 94-237 249-242 70-2 133 16 180 32v314c-5 43 42 49 68 30 47-34 52-112 52-199 0-187-125-279-315-279-209 0-326 133-326 345C167-51 291 59 511 63c59 1 123-10 169-19l15 94c-42 13-122 28-184 26C223 158 50 20 50-272c0-223 116-356 280-418 53-20 107-28 163-28 259 0 431 129 431 388zm-530 57c0 104 64 159 166 126-8-79-2-172-4-257-102-20-162 32-162 131" id="S"/><path fill="#29294c" d="M80-693h156V0H80v-693" id="T"/><path fill="#29294c" d="M497-390c22 111 6 261 11 390H359v-279c-2-83-10-128-82-132-19 0-40 3-58 5V0H70v-508c63-16 136-29 216-30 70-1 115 20 151 49 35-26 95-48 150-49 154-2 210 88 210 241V0H648v-279c4-96-28-148-116-126-14 4-26 9-35 15" id="U"/><path fill="#29294c" d="M219-137c18 12 52 21 82 21 71 0 106-48 106-143 0-113-71-175-188-147v269zm66-401c176 0 274 99 274 275 0 162-70 273-230 273-44 0-78-9-110-23v198H70v-693c62-18 137-30 215-30" id="V"/><path fill="#29294c" d="M304-540c166 0 258 108 258 276 0 170-90 278-258 278S45-95 45-264c0-168 94-276 259-276zm0 426c75 0 106-68 106-150s-31-148-106-148-107 66-107 148 32 150 107 150" id="W"/><path fill="#29294c" d="M70-498c86-33 237-58 342-19l-25 123c-45-13-116-24-168-8V0H70v-498" id="X"/><path fill="#29294c" d="M273 12C125 12 65-67 65-215v-442l149-24v155h179v124H214v185c2 63 16 104 83 103 34 0 71-7 96-17l21 116c-41 16-81 27-141 27" id="Y"/><g id="d"><use transform="matrix(0.018,0,0,0.018,0,0)" xlink:href="#S"/><use transform="matrix(0.018,0,0,0.018,17.532,0)" xlink:href="#T"/><use transform="matrix(0.018,0,0,0.018,23.22,0)" xlink:href="#U"/><use transform="matrix(0.018,0,0,0.018,38.736,0)" xlink:href="#V"/><use transform="matrix(0.018,0,0,0.018,49.608,0)" xlink:href="#W"/><use transform="matrix(0.018,0,0,0.018,60.534,0)" xlink:href="#X"/><use transform="matrix(0.018,0,0,0.018,68.13,0)" xlink:href="#Y"/></g><path fill="#29294c" d="M219 0H70v-526h149V0zm-75-766c49 0 89 36 89 88s-40 88-89 88-89-36-89-88 40-88 89-88" id="Z"/><path fill="#29294c" d="M285-411c-21 0-48 2-66 5V0H70v-508c57-16 146-30 224-30 161 0 230 83 230 241V0H375v-279c-2-87-10-129-90-132" id="aa"/><path fill="#29294c" d="M319 14C139 11 45-85 45-263c0-194 140-304 348-269 24 4 46 12 68 21l-31 119c-29-11-61-20-102-20-89 0-131 62-131 149 0 96 36 150 137 149 40 0 85-8 115-21l21 122c-38 16-94 28-151 27" id="ab"/><path fill="#29294c" d="M219-203c-2 61 24 87 82 90L280 10C144 10 70-36 70-173v-579l149-24v573" id="ac"/><path fill="#29294c" d="M304-115c21 0 48-2 66-5v-406h149v508C462-2 373 12 295 12 133 12 65-74 65-233v-293h149v275c2 86 11 133 90 136" id="ad"/><path fill="#29294c" d="M385-390c-18-12-52-21-82-21-71 0-106 48-106 144 0 113 70 176 188 148v-271zM280-537c44 0 73 9 105 23v-238l149-24v759C472 1 397 13 319 13 143 13 45-85 45-260c0-165 72-277 235-277" id="ae"/><path fill="#29294c" d="M323 14C144 14 45-83 45-259c0-170 90-275 252-281 176-6 262 133 239 326H198c8 66 67 100 145 100 51 0 111-11 145-26l20 121C460 2 393 14 323 14zm72-330c13-111-157-138-187-38-4 12-8 25-10 38h197" id="af"/><path fill="#29294c" d="M64-139c45 18 98 32 157 32 46 0 72-1 75-39-14-53-105-62-152-89-51-30-89-66-91-145-5-167 225-188 368-133l-26 116c-36-12-75-23-125-23-84 0-86 59-30 82 96 39 207 59 204 194-2 116-97 158-224 158C148 14 81-2 39-18" id="ag"/><g id="e"><use transform="matrix(0.018,0,0,0.018,0,0)" xlink:href="#Z"/><use transform="matrix(0.018,0,0,0.018,5.202,0)" xlink:href="#aa"/><use transform="matrix(0.018,0,0,0.018,15.803999999999998,0)" xlink:href="#ab"/><use transform="matrix(0.018,0,0,0.018,24.804,0)" xlink:href="#ac"/><use transform="matrix(0.018,0,0,0.018,30.491999999999997,0)" xlink:href="#ad"/><use transform="matrix(0.018,0,0,0.018,41.093999999999994,0)" xlink:href="#ae"/><use transform="matrix(0.018,0,0,0.018,51.965999999999994,0)" xlink:href="#af"/><use transform="matrix(0.018,0,0,0.018,62.477999999999994,0)" xlink:href="#ag"/></g><path fill="#29294c" d="M67-125c0 54 23 88 75 88 28 0 53-7 68-21v-34h-60v-39h108v91C232-14 192 4 140 4 58 4 20-42 15-125 8-236 126-280 215-234c19 10 29 26 37 47l-47 15c-11-23-29-39-63-39-53 1-75 33-75 86" id="ah"/><path fill="#29294c" d="M110-194c64 0 96 36 96 99 0 64-35 99-97 99-61 0-95-36-95-99 0-62 34-99 96-99zm-1 164c35 0 45-28 45-65 0-40-10-65-43-65-34 0-45 26-45 65 0 36 10 65 43 65" id="ai"/><path fill="#29294c" d="M199 0l-22-63H83L61 0H9l90-248h61L250 0h-51zm-33-102l-36-108c-10 38-24 72-36 108h72" id="aj"/><path fill="#29294c" d="M114-157C55-157 80-60 75 0H25v-261h50l-1 109c12-26 28-41 61-42 86-1 58 113 63 194h-50c-7-57 23-157-34-157" id="ak"/><g id="f"><use transform="matrix(0.05,0,0,0.05,0,0)" xlink:href="#h"/><use transform="matrix(0.05,0,0,0.05,17.55,0)" xlink:href="#i"/><use transform="matrix(0.05,0,0,0.05,29.55,0)" xlink:href="#j"/><use transform="matrix(0.05,0,0,0.05,40.5,0)" xlink:href="#k"/><use transform="matrix(0.05,0,0,0.05,50.5,0)" xlink:href="#l"/><use transform="matrix(0.05,0,0,0.05,61.45,0)" xlink:href="#m"/><use transform="matrix(0.05,0,0,0.05,66.45,0)" xlink:href="#n"/><use transform="matrix(0.05,0,0,0.05,76.45,0)" xlink:href="#ah"/><use transform="matrix(0.05,0,0,0.05,90.45,0)" xlink:href="#m"/><use transform="matrix(0.05,0,0,0.05,95.45,0)" xlink:href="#ai"/><use transform="matrix(0.05,0,0,0.05,106.4,0)" xlink:href="#l"/><use transform="matrix(0.05,0,0,0.05,117.35000000000001,0)" xlink:href="#k"/><use transform="matrix(0.05,0,0,0.05,127.35000000000001,0)" xlink:href="#m"/><use transform="matrix(0.05,0,0,0.05,132.35000000000002,0)" xlink:href="#aj"/><use transform="matrix(0.05,0,0,0.05,145.3,0)" xlink:href="#r"/><use transform="matrix(0.05,0,0,0.05,156.25,0)" xlink:href="#u"/><use transform="matrix(0.05,0,0,0.05,162.2,0)" xlink:href="#ak"/><use transform="matrix(0.05,0,0,0.05,173.14999999999998,0)" xlink:href="#n"/><use transform="matrix(0.05,0,0,0.05,183.14999999999998,0)" xlink:href="#j"/><use transform="matrix(0.05,0,0,0.05,194.09999999999997,0)" xlink:href="#u"/><use transform="matrix(0.05,0,0,0.05,200.04999999999995,0)" xlink:href="#t"/><use transform="matrix(0.05,0,0,0.05,205.04999999999995,0)" xlink:href="#q"/><use transform="matrix(0.05,0,0,0.05,215.04999999999995,0)" xlink:href="#k"/><use transform="matrix(0.05,0,0,0.05,225.04999999999995,0)" xlink:href="#u"/><use transform="matrix(0.05,0,0,0.05,230.99999999999991,0)" xlink:href="#t"/><use transform="matrix(0.05,0,0,0.05,235.99999999999991,0)" xlink:href="#ai"/><use transform="matrix(0.05,0,0,0.05,246.94999999999993,0)" xlink:href="#j"/></g><path fill="#e5e5e5" d="M199 0l-22-63H83L61 0H9l90-248h61L250 0h-51zm-33-102l-36-108c-10 38-24 72-36 108h72" id="al"/><path fill="#e5e5e5" d="M114-157C55-157 80-60 75 0H25v-261h50l-1 109c12-26 28-41 61-42 86-1 58 113 63 194h-50c-7-57 23-157-34-157" id="am"/><g id="g"><use transform="matrix(0.05,0,0,0.05,0,0)" xlink:href="#al"/><use transform="matrix(0.05,0,0,0.05,12.950000000000001,0)" xlink:href="#B"/><use transform="matrix(0.05,0,0,0.05,23.900000000000002,0)" xlink:href="#E"/><use transform="matrix(0.05,0,0,0.05,29.85,0)" xlink:href="#am"/><use transform="matrix(0.05,0,0,0.05,40.800000000000004,0)" xlink:href="#x"/><use transform="matrix(0.05,0,0,0.05,50.800000000000004,0)" xlink:href="#I"/><use transform="matrix(0.05,0,0,0.05,61.75,0)" xlink:href="#E"/><use transform="matrix(0.05,0,0,0.05,67.7,0)" xlink:href="#D"/><use transform="matrix(0.05,0,0,0.05,72.7,0)" xlink:href="#A"/><use transform="matrix(0.05,0,0,0.05,82.7,0)" xlink:href="#L"/><use transform="matrix(0.05,0,0,0.05,92.7,0)" xlink:href="#E"/><use transform="matrix(0.05,0,0,0.05,98.65,0)" xlink:href="#D"/><use transform="matrix(0.05,0,0,0.05,103.65,0)" xlink:href="#H"/><use transform="matrix(0.05,0,0,0.05,114.60000000000001,0)" xlink:href="#I"/><use transform="matrix(0.05,0,0,0.05,125.55000000000001,0)" xlink:href="#G"/><use transform="matrix(0.05,0,0,0.05,138.5,0)" xlink:href="#H"/><use transform="matrix(0.05,0,0,0.05,149.45,0)" xlink:href="#I"/><use transform="matrix(0.05,0,0,0.05,160.39999999999998,0)" xlink:href="#J"/><use transform="matrix(0.05,0,0,0.05,166.34999999999997,0)" xlink:href="#D"/><use transform="matrix(0.05,0,0,0.05,171.34999999999997,0)" xlink:href="#K"/><use transform="matrix(0.05,0,0,0.05,182.29999999999995,0)" xlink:href="#B"/><use transform="matrix(0.05,0,0,0.05,193.24999999999994,0)" xlink:href="#C"/><use transform="matrix(0.05,0,0,0.05,200.24999999999994,0)" xlink:href="#L"/><use transform="matrix(0.05,0,0,0.05,210.24999999999991,0)" xlink:href="#E"/><use transform="matrix(0.05,0,0,0.05,216.19999999999993,0)" xlink:href="#D"/><use transform="matrix(0.05,0,0,0.05,221.19999999999993,0)" xlink:href="#H"/><use transform="matrix(0.05,0,0,0.05,232.14999999999992,0)" xlink:href="#I"/></g></defs></g></svg>