<svg xmlns="http://www.w3.org/2000/svg" xmlns:xlink="http://www.w3.org/1999/xlink" xmlns:lucid="lucid" width="776" height="570"><g transform="translate(-1053 0)" lucid:page-tab-id="0_0"><path d="M1080 203c0-2.76 2.24-5 5-5h190c2.76 0 5 2.24 5 5v332c0 2.76-2.24 5-5 5h-190c-2.76 0-5-2.24-5-5z" stroke="#ef8d22" stroke-width="2" fill="#ef8d22" fill-opacity=".15"/><use xlink:href="#a" transform="matrix(1,0,0,1,1080,198) translate(53.63166666666666 29.863333333333337)"/><path d="M1301.7 25c0-2.76 2.24-5 5-5h226.6c2.76 0 5 2.24 5 5v77c0 2.76-2.24 5-5 5h-226.6c-2.76 0-5-2.24-5-5z" stroke="#ef8d22" stroke-width="2" fill="#ffdba9"/><use xlink:href="#b" transform="matrix(1,0,0,1,1309.6965034965035,28) translate(3.2066666666666634 45.406666666666666)"/><path d="M1320 203c0-2.76 2.24-5 5-5h190c2.76 0 5 2.24 5 5v250c0 2.76-2.24 5-5 5h-190c-2.76 0-5-2.24-5-5z" stroke="#ef8d22" stroke-width="2" fill="#ef8d22" fill-opacity=".15"/><use xlink:href="#c" transform="matrix(1,0,0,1,1320,198) translate(54.43166666666665 29.863333333333337)"/><path d="M1600 203c0-2.76 2.24-5 5-5h190c2.76 0 5 2.24 5 5v250c0 2.76-2.24 5-5 5h-190c-2.76 0-5-2.24-5-5z" stroke="#ef8d22" stroke-width="2" fill="#ef8d22" fill-opacity=".15"/><use xlink:href="#d" transform="matrix(1,0,0,1,1600,198) translate(80.79166666666667 29.863333333333337)"/><path d="M1420 109v38.5c0 2.76-2.24 5-5 5h-230c-2.76 0-5 2.24-5 5v21" stroke="#ef8d22" stroke-width="2" fill="none"/><path d="M1421 109.03h-2V108h2z" fill="#ef8d22"/><path d="M1180 193.76l-4.64-14.26h9.28z" stroke="#ef8d22" stroke-width="2" fill="#ef8d22"/><path d="M1420 109v69.5" stroke="#ef8d22" stroke-width="2" fill="none"/><path d="M1421 109.03h-2V108h2z" fill="#ef8d22"/><path d="M1420 193.76l-4.64-14.26h9.28z" stroke="#ef8d22" stroke-width="2" fill="#ef8d22"/><path d="M1420 109v38.5c0 2.76 2.24 5 5 5h270c2.76 0 5 2.24 5 5v21" stroke="#ef8d22" stroke-width="2" fill="none"/><path d="M1421 109.03h-2V108h2z" fill="#ef8d22"/><path d="M1700 193.76l-4.64-14.26h9.28z" stroke="#ef8d22" stroke-width="2" fill="#ef8d22"/><path d="M1100 266.5c0-2.76 2.24-5 5-5h150c2.76 0 5 2.24 5 5v48c0 2.76-2.24 5-5 5h-150c-2.76 0-5-2.24-5-5z" stroke="#000" stroke-width="2" fill="#29294c"/><use xlink:href="#e" transform="matrix(1,0,0,1,1108,269.50209790209783) translate(48.519000000000005 27.686999999999998)"/><path d="M1100 366.5c0-2.76 2.24-5 5-5h150c2.76 0 5 2.24 5 5v48c0 2.76-2.24 5-5 5h-150c-2.76 0-5-2.24-5-5z" stroke="#000" stroke-width="2" fill="#29294c"/><use xlink:href="#e" transform="matrix(1,0,0,1,1108,369.50209790209783) translate(48.519000000000005 27.686999999999998)"/><path d="M1100 465c0-2.76 2.24-5 5-5h150c2.76 0 5 2.24 5 5v48c0 2.76-2.24 5-5 5h-150c-2.76 0-5-2.24-5-5z" stroke="#000" stroke-width="2" fill="#29294c"/><use xlink:href="#e" transform="matrix(1,0,0,1,1108,468) translate(48.519000000000005 27.686999999999998)"/><path d="M1180 339v3" stroke="#000" stroke-width="2" fill="none"/><path d="M1180 323.74l4.64 14.26h-9.28zM1180 357.27l-4.64-14.27h9.28z" stroke="#000" stroke-width="2"/><path d="M1180 439v1.5" stroke="#000" stroke-width="2" fill="none"/><path d="M1180 423.74l4.64 14.26h-9.28zM1180 455.76l-4.64-14.26h9.28z" stroke="#000" stroke-width="2"/><path d="M1340 266.5c0-2.76 2.24-5 5-5h150c2.76 0 5 2.24 5 5v48c0 2.76-2.24 5-5 5h-150c-2.76 0-5-2.24-5-5z" stroke="#000" stroke-width="2" fill="#29294c"/><use xlink:href="#e" transform="matrix(1,0,0,1,1348,269.50209790209783) translate(48.519000000000005 27.686999999999998)"/><path d="M1340 366.5c0-2.76 2.24-5 5-5h150c2.76 0 5 2.24 5 5v48c0 2.76-2.24 5-5 5h-150c-2.76 0-5-2.24-5-5z" stroke="#000" stroke-width="2" fill="#29294c"/><use xlink:href="#e" transform="matrix(1,0,0,1,1348,369.50209790209783) translate(48.519000000000005 27.686999999999998)"/><path d="M1420 339v3" stroke="#000" stroke-width="2" fill="none"/><path d="M1420 323.74l4.64 14.26h-9.28zM1420 357.27l-4.64-14.27h9.28z" stroke="#000" stroke-width="2"/><path d="M1620 266.5c0-2.76 2.24-5 5-5h150c2.76 0 5 2.24 5 5v48c0 2.76-2.24 5-5 5h-150c-2.76 0-5-2.24-5-5z" stroke="#000" stroke-width="2" fill="#29294c"/><use xlink:href="#e" transform="matrix(1,0,0,1,1628,269.50209790209783) translate(48.519000000000005 27.686999999999998)"/><path d="M1620 366.5c0-2.76 2.24-5 5-5h150c2.76 0 5 2.24 5 5v48c0 2.76-2.24 5-5 5h-150c-2.76 0-5-2.24-5-5z" stroke="#000" stroke-width="2" fill="#29294c"/><use xlink:href="#e" transform="matrix(1,0,0,1,1628,369.50209790209783) translate(48.519000000000005 27.686999999999998)"/><path d="M1700 339v3" stroke="#000" stroke-width="2" fill="none"/><path d="M1700 323.74l4.64 14.26h-9.28zM1700 357.27l-4.64-14.27h9.28z" stroke="#000" stroke-width="2"/><defs><path fill="#ef8d22" d="M128 185H-25l336-968h151" id="f"/><path fill="#ef8d22" d="M70-554C56-744 252-822 429-751l-29 119c-23-11-56-18-87-18-75-1-100 46-94 124h184v124H219V0H70v-554" id="g"/><path fill="#ef8d22" d="M304-540c166 0 258 108 258 276 0 170-90 278-258 278S45-95 45-264c0-168 94-276 259-276zm0 426c75 0 106-68 106-150s-31-148-106-148-107 66-107 148 32 150 107 150" id="h"/><path fill="#ef8d22" d="M219-536c-15-46-35-94-33-157h130c3 62-18 110-33 157 40-31 84-65 139-80l40 124c-40 18-100 18-159 17 44 30 91 63 120 108l-106 75c-32-36-51-91-66-145-15 54-34 109-66 145L79-367c29-45 76-78 120-108-58 0-118 2-159-17l40-124c55 15 99 49 139 80" id="i"/><g id="a"><use transform="matrix(0.02666666666666667,0,0,0.02666666666666667,0,0)" xlink:href="#f"/><use transform="matrix(0.02666666666666667,0,0,0.02666666666666667,11.653333333333334,0)" xlink:href="#g"/><use transform="matrix(0.02666666666666667,0,0,0.02666666666666667,22.693333333333335,0)" xlink:href="#h"/><use transform="matrix(0.02666666666666667,0,0,0.02666666666666667,38.88,0)" xlink:href="#h"/><use transform="matrix(0.02666666666666667,0,0,0.02666666666666667,54.32,0)" xlink:href="#f"/><use transform="matrix(0.02666666666666667,0,0,0.02666666666666667,65.97333333333333,0)" xlink:href="#i"/><use transform="matrix(0.02666666666666667,0,0,0.02666666666666667,79.36,0)" xlink:href="#i"/></g><path fill="#505160" d="M80 0v-693h464v131H236v145h274v131H236V0H80" id="j"/><path fill="#505160" d="M219 0H70v-526h149V0zm-75-766c49 0 89 36 89 88s-40 88-89 88-89-36-89-88 40-88 89-88" id="k"/><path fill="#505160" d="M219-203c-2 61 24 87 82 90L280 10C144 10 70-36 70-173v-579l149-24v573" id="l"/><path fill="#505160" d="M273 12C125 12 65-67 65-215v-442l149-24v155h179v124H214v185c2 63 16 104 83 103 34 0 71-7 96-17l21 116c-41 16-81 27-141 27" id="m"/><path fill="#505160" d="M323 14C144 14 45-83 45-259c0-170 90-275 252-281 176-6 262 133 239 326H198c8 66 67 100 145 100 51 0 111-11 145-26l20 121C460 2 393 14 323 14zm72-330c13-111-157-138-187-38-4 12-8 25-10 38h197" id="n"/><path fill="#505160" d="M70-498c86-33 237-58 342-19l-25 123c-45-13-116-24-168-8V0H70v-498" id="o"/><path fill="#505160" d="M628-38C575-8 488 14 396 14 170 14 50-120 50-347c0-295 267-433 542-323 12 5 21 11 26 14l-45 126c-44-23-101-43-171-41-128 4-190 86-190 221 0 139 59 224 198 226 72 0 128-15 175-39" id="p"/><path fill="#505160" d="M288-411c-26 0-50 6-69 11V0H70v-752l149-24v252c20-7 57-14 84-14 157-1 221 86 221 241V0H375v-279c-2-86-10-129-87-132" id="q"/><path fill="#505160" d="M183-166c-2 75 96 63 162 58v-113c-63-10-160-16-162 55zm-148 4c-1-153 163-182 310-156 2-69-30-99-103-98-49 0-104 8-139 21L84-515c50-14 111-24 175-25 152-2 229 65 229 215v310C426-2 349 12 261 11 129 9 36-30 35-162" id="r"/><path fill="#505160" d="M285-411c-21 0-48 2-66 5V0H70v-508c57-16 146-30 224-30 161 0 230 83 230 241V0H375v-279c-2-87-10-129-90-132" id="s"/><path fill="#505160" d="M80-683c58-12 143-18 208-18 190 0 321 53 321 233 0 198-160 242-373 236V0H80v-683zm368 214c0-104-112-104-212-96v200c112 0 212 3 212-104" id="t"/><path fill="#505160" d="M304-540c166 0 258 108 258 276 0 170-90 278-258 278S45-95 45-264c0-168 94-276 259-276zm0 426c75 0 106-68 106-150s-31-148-106-148-107 66-107 148 32 150 107 150" id="u"/><path fill="#505160" d="M10 0c50-95 118-189 183-271-60-83-120-171-179-255h161l104 160 104-160h154L357-273C425-188 496-91 544 0H384c-32-62-69-125-111-178-41 53-78 117-111 178H10" id="v"/><path fill="#505160" d="M280-179c38-107 73-232 103-347h154C478-328 417-155 336 17c-43 91-86 168-218 168-42 1-85-10-113-21L31 45c41 16 112 24 141-7 14-14 26-35 36-60C132-173 63-338 10-526h158c31 117 71 240 112 347" id="w"/><g id="b"><use transform="matrix(0.02666666666666667,0,0,0.02666666666666667,0,0)" xlink:href="#j"/><use transform="matrix(0.02666666666666667,0,0,0.02666666666666667,15.306666666666668,0)" xlink:href="#k"/><use transform="matrix(0.02666666666666667,0,0,0.02666666666666667,23.013333333333335,0)" xlink:href="#l"/><use transform="matrix(0.02666666666666667,0,0,0.02666666666666667,31.44,0)" xlink:href="#m"/><use transform="matrix(0.02666666666666667,0,0,0.02666666666666667,42.74666666666667,0)" xlink:href="#n"/><use transform="matrix(0.02666666666666667,0,0,0.02666666666666667,58.32,0)" xlink:href="#o"/><use transform="matrix(0.02666666666666667,0,0,0.02666666666666667,69.57333333333334,0)" xlink:href="#p"/><use transform="matrix(0.02666666666666667,0,0,0.02666666666666667,86.85333333333334,0)" xlink:href="#q"/><use transform="matrix(0.02666666666666667,0,0,0.02666666666666667,102.56,0)" xlink:href="#r"/><use transform="matrix(0.02666666666666667,0,0,0.02666666666666667,117.30666666666667,0)" xlink:href="#k"/><use transform="matrix(0.02666666666666667,0,0,0.02666666666666667,125.01333333333334,0)" xlink:href="#s"/><use transform="matrix(0.02666666666666667,0,0,0.02666666666666667,140.72,0)" xlink:href="#t"/><use transform="matrix(0.02666666666666667,0,0,0.02666666666666667,157.89333333333335,0)" xlink:href="#o"/><use transform="matrix(0.02666666666666667,0,0,0.02666666666666667,168.88,0)" xlink:href="#u"/><use transform="matrix(0.02666666666666667,0,0,0.02666666666666667,184.58666666666667,0)" xlink:href="#v"/><use transform="matrix(0.02666666666666667,0,0,0.02666666666666667,200,0)" xlink:href="#w"/></g><path fill="#ef8d22" d="M219-119c117 28 188-35 188-148 0-96-35-144-106-144-30 0-64 9-82 21v271zm110-418c161 0 230 111 230 274 0 176-97 276-274 276-78 0-153-12-215-30v-735l149-24v262c32-14 66-23 110-23" id="x"/><path fill="#ef8d22" d="M183-166c-2 75 96 63 162 58v-113c-63-10-160-16-162 55zm-148 4c-1-153 163-182 310-156 2-69-30-99-103-98-49 0-104 8-139 21L84-515c50-14 111-24 175-25 152-2 229 65 229 215v310C426-2 349 12 261 11 129 9 36-30 35-162" id="y"/><path fill="#ef8d22" d="M70-498c86-33 237-58 342-19l-25 123c-45-13-116-24-168-8V0H70v-498" id="z"/><g id="c"><use transform="matrix(0.02666666666666667,0,0,0.02666666666666667,0,0)" xlink:href="#f"/><use transform="matrix(0.02666666666666667,0,0,0.02666666666666667,12.106666666666667,0)" xlink:href="#x"/><use transform="matrix(0.02666666666666667,0,0,0.02666666666666667,28.213333333333342,0)" xlink:href="#y"/><use transform="matrix(0.02666666666666667,0,0,0.02666666666666667,42.96000000000001,0)" xlink:href="#z"/><use transform="matrix(0.02666666666666667,0,0,0.02666666666666667,52.72000000000001,0)" xlink:href="#f"/><use transform="matrix(0.02666666666666667,0,0,0.02666666666666667,64.37333333333335,0)" xlink:href="#i"/><use transform="matrix(0.02666666666666667,0,0,0.02666666666666667,77.76000000000002,0)" xlink:href="#i"/></g><g id="d"><use transform="matrix(0.02666666666666667,0,0,0.02666666666666667,0,0)" xlink:href="#f"/><use transform="matrix(0.02666666666666667,0,0,0.02666666666666667,11.653333333333334,0)" xlink:href="#i"/><use transform="matrix(0.02666666666666667,0,0,0.02666666666666667,25.04,0)" xlink:href="#i"/></g><path fill="#e5e5e5" d="M80 0v-693h464v131H236v145h274v131H236V0H80" id="A"/><path fill="#e5e5e5" d="M219 0H70v-526h149V0zm-75-766c49 0 89 36 89 88s-40 88-89 88-89-36-89-88 40-88 89-88" id="B"/><path fill="#e5e5e5" d="M219-203c-2 61 24 87 82 90L280 10C144 10 70-36 70-173v-579l149-24v573" id="C"/><path fill="#e5e5e5" d="M273 12C125 12 65-67 65-215v-442l149-24v155h179v124H214v185c2 63 16 104 83 103 34 0 71-7 96-17l21 116c-41 16-81 27-141 27" id="D"/><path fill="#e5e5e5" d="M323 14C144 14 45-83 45-259c0-170 90-275 252-281 176-6 262 133 239 326H198c8 66 67 100 145 100 51 0 111-11 145-26l20 121C460 2 393 14 323 14zm72-330c13-111-157-138-187-38-4 12-8 25-10 38h197" id="E"/><path fill="#e5e5e5" d="M70-498c86-33 237-58 342-19l-25 123c-45-13-116-24-168-8V0H70v-498" id="F"/><g id="e"><use transform="matrix(0.018,0,0,0.018,0,0)" xlink:href="#A"/><use transform="matrix(0.018,0,0,0.018,10.331999999999999,0)" xlink:href="#B"/><use transform="matrix(0.018,0,0,0.018,15.533999999999999,0)" xlink:href="#C"/><use transform="matrix(0.018,0,0,0.018,21.221999999999998,0)" xlink:href="#D"/><use transform="matrix(0.018,0,0,0.018,28.854,0)" xlink:href="#E"/><use transform="matrix(0.018,0,0,0.018,39.366,0)" xlink:href="#F"/></g></defs></g></svg>