<svg xmlns="http://www.w3.org/2000/svg" xmlns:xlink="http://www.w3.org/1999/xlink" xmlns:lucid="lucid" width="613" height="704"><g transform="translate(-358 0)" lucid:page-tab-id="0_0"><path d="M640 143c0-2.76 2.24-5 5-5h290c2.76 0 5 2.24 5 5v412c0 2.76-2.24 5-5 5H645c-2.76 0-5-2.24-5-5z" stroke="#ef8d22" stroke-width="2" fill="#ef8d22" fill-opacity=".15"/><use xlink:href="#a" transform="matrix(1,0,0,1,640,138) translate(8.39166666666666 29.863333333333337)"/><use xlink:href="#b" transform="matrix(1,0,0,1,640,138) translate(96.92500000000001 29.863333333333337)"/><use xlink:href="#c" transform="matrix(1,0,0,1,640,138) translate(209.11166666666668 29.863333333333337)"/><path d="M380 205c0-2.76 2.24-5 5-5h150c2.76 0 5 2.24 5 5v48c0 2.76-2.24 5-5 5H385c-2.76 0-5-2.24-5-5z" stroke="#000" stroke-width="2" fill="#29294c"/><use xlink:href="#d" transform="matrix(1,0,0,1,388,208) translate(48.519000000000005 27.686999999999998)"/><path d="M380 325c0-2.76 2.24-5 5-5h150c2.76 0 5 2.24 5 5v48c0 2.76-2.24 5-5 5H385c-2.76 0-5-2.24-5-5z" stroke="#ef8d22" stroke-width="2" fill="#ffdba9"/><use xlink:href="#e" transform="matrix(1,0,0,1,388,328) translate(-0.4230000000000018 27.686999999999998)"/><path d="M380 445c0-2.76 2.24-5 5-5h150c2.76 0 5 2.24 5 5v48c0 2.76-2.24 5-5 5H385c-2.76 0-5-2.24-5-5z" stroke="#000" stroke-width="2" fill="#29294c"/><use xlink:href="#d" transform="matrix(1,0,0,1,388,448) translate(48.519000000000005 27.686999999999998)"/><path d="M460 180.5v-21" stroke="#29294c" stroke-width="2" fill="none"/><path d="M460 195.76l-4.64-14.26h9.28zM460 144.24l4.64 14.26h-9.28z" stroke="#29294c" stroke-width="2" fill="#29294c"/><path d="M460 300.5v-23" stroke="#29294c" stroke-width="2" fill="none"/><path d="M460 315.76l-4.64-14.26h9.28zM460 262.24l4.64 14.26h-9.28z" stroke="#29294c" stroke-width="2" fill="#29294c"/><path d="M460 420.5v-23" stroke="#29294c" stroke-width="2" fill="none"/><path d="M460 435.76l-4.64-14.26h9.28zM460 382.24l4.64 14.26h-9.28z" stroke="#29294c" stroke-width="2" fill="#29294c"/><path d="M380 565c0-2.76 2.24-5 5-5h150c2.76 0 5 2.24 5 5v110c0 2.76-2.24 5-5 5H385c-2.76 0-5-2.24-5-5z" stroke="#3aa6dd" stroke-width="2" fill="#c1e4f7"/><path d="M459.7 642.3c-5.9-.2-11.6-2.5-15.9-6.7-4.2-4.3-6.1-9.9-6.1-15.5 0-3-1.2-6-3.5-8.3-4.7-4.6-12.3-4.6-17 0-4.7 4.7-4.7 12.3 0 17 2.3 2.3 5.3 3.5 8.3 3.5 5.6 0 11.1 1.8 15.4 6.1 4.2 4.2 6.5 9.9 6.8 15.7-.1 3.1 1.1 6.3 3.5 8.7 4.7 4.7 12.3 4.7 16.9 0 4.7-4.7 4.7-12.3 0-17-2.3-2.3-5.3-3.5-8.4-3.5z" fill="#d7edfa"/><path d="M505.6 654.3c0 6.6-5.4 12-12 12s-12-5.4-12-12c0-6.7 5.4-12 12-12s12 5.3 12 12zm-45.9-55.9c-5.9.1-11.6 2.4-15.9 6.7-4.2 4.3-6.1 9.8-6.1 15.4 0 3-1.2 6-3.5 8.3-4.7 4.7-12.3 4.7-17 0-4.7-4.7-4.7-12.3 0-17 2.3-2.2 5.3-3.4 8.3-3.5 5.6 0 11.1-1.7 15.4-6 4.2-4.3 6.5-9.9 6.8-15.7-.1-3.1 1.1-6.3 3.5-8.7 4.7-4.7 12.3-4.7 16.9 0 4.7 4.7 4.7 12.3 0 17-2.3 2.3-5.3 3.5-8.4 3.5zm45.9-12c0 6.6-5.4 12-12 12s-12-5.4-12-12 5.4-12 12-12 12 5.4 12 12z" fill="#d7edfa"/><use xlink:href="#f" transform="matrix(1,0,0,1,385,565) translate(28.159999999999997 64.90666666666667)"/><path d="M380 25c0-2.76 2.24-5 5-5h150c2.76 0 5 2.24 5 5v110c0 2.76-2.24 5-5 5H385c-2.76 0-5-2.24-5-5z" stroke="#598234" stroke-width="2" fill="#a3d977"/><path d="M510 85.1c1.7 0 2.5-2.4 1.3-3.5l-49.2-49.4-49.3 49.5c-1.2 1.1-.4 3.4 1.3 3.4h8.6V130h26.2V92.6h22.5V130h26.3V85.1H510zm-76.1-48.6H419v26.3l14.9-14.9V36.5z" fill="#c3e6a7"/><use xlink:href="#g" transform="matrix(1,0,0,1,385,25) translate(36.73333333333333 64.90666666666667)"/><path d="M460 517.5v23" stroke="#29294c" stroke-width="2" fill="none"/><path d="M460 502.24l4.64 14.26h-9.28zM460 555.76l-4.64-14.26h9.28z" stroke="#29294c" stroke-width="2" fill="#29294c"/><path d="M700 205c0-2.76 2.24-5 5-5h150c2.76 0 5 2.24 5 5v48c0 2.76-2.24 5-5 5H705c-2.76 0-5-2.24-5-5z" stroke="#ef8d22" stroke-width="2" fill="#ffdba9"/><use xlink:href="#h" transform="matrix(1,0,0,1,708,208) translate(48.519000000000005 27.686999999999998)"/><path d="M700 325c0-2.76 2.24-5 5-5h150c2.76 0 5 2.24 5 5v48c0 2.76-2.24 5-5 5H705c-2.76 0-5-2.24-5-5z" stroke="#ef8d22" stroke-width="2" fill="#ffdba9"/><use xlink:href="#h" transform="matrix(1,0,0,1,708,328) translate(48.519000000000005 27.686999999999998)"/><path d="M700 445c0-2.76 2.24-5 5-5h150c2.76 0 5 2.24 5 5v48c0 2.76-2.24 5-5 5H705c-2.76 0-5-2.24-5-5z" stroke="#ef8d22" stroke-width="2" fill="#ffdba9"/><use xlink:href="#h" transform="matrix(1,0,0,1,708,448) translate(48.519000000000005 27.686999999999998)"/><path d="M559.5 349h121" stroke="#000" stroke-width="2" fill="none"/><path d="M544.24 349l14.26-4.64v9.28zM695.76 349l-14.26 4.64v-9.28z" stroke="#000" stroke-width="2"/><path d="M542 349h73c2.76 0 5-2.24 5-5V234c0-2.76 2.24-5 5-5h55.5" stroke="#000" stroke-width="2" fill="none"/><path d="M542.03 350H541v-2h1.03z"/><path d="M695.76 229l-14.26 4.64v-9.28z" stroke="#000" stroke-width="2"/><path d="M542 349h73c2.76 0 5 2.24 5 5v110c0 2.76 2.24 5 5 5h55.5" stroke="#000" stroke-width="2" fill="none"/><path d="M542.03 350H541v-2h1.03z"/><path d="M695.76 469l-14.26 4.64v-9.28z" stroke="#000" stroke-width="2"/><path d="M460 420.5v-23" stroke="#29294c" stroke-width="2" fill="none"/><path d="M460 435.76l-4.64-14.26h9.28zM460 382.24l4.64 14.26h-9.28z" stroke="#29294c" stroke-width="2" fill="#29294c"/><defs><path fill="#ef8d22" d="M81-163c48 25 108 46 188 44 62-1 111-12 112-72 0-23-11-42-32-57-53-39-186-63-239-114-33-32-63-73-61-139 5-145 106-205 255-208 84-2 154 22 205 48l-45 123c-41-20-85-38-150-38-76 0-124 32-96 95 68 68 209 75 272 145 33 36 48 78 52 146C554 42 206 52 37-39" id="i"/><path fill="#ef8d22" d="M219-137c18 12 52 21 82 21 71 0 106-48 106-143 0-113-71-175-188-147v269zm66-401c176 0 274 99 274 275 0 162-70 273-230 273-44 0-78-9-110-23v198H70v-693c62-18 137-30 215-30" id="j"/><path fill="#ef8d22" d="M70-498c86-33 237-58 342-19l-25 123c-45-13-116-24-168-8V0H70v-498" id="k"/><path fill="#ef8d22" d="M219 0H70v-526h149V0zm-75-766c49 0 89 36 89 88s-40 88-89 88-89-36-89-88 40-88 89-88" id="l"/><path fill="#ef8d22" d="M285-411c-21 0-48 2-66 5V0H70v-508c57-16 146-30 224-30 161 0 230 83 230 241V0H375v-279c-2-87-10-129-90-132" id="m"/><path fill="#ef8d22" d="M375-413c-107-27-178 30-178 133 0 83 34 125 101 125 30 0 58-10 77-20v-238zm-62-125c77 0 150 13 211 30v442c-1 176-89 254-268 254-67 0-134-14-185-31L97 32c47 18 95 30 161 30 84 0 121-38 117-119-31 14-62 22-105 22-148 1-228-95-225-245 3-167 100-258 268-258" id="n"/><g id="a"><use transform="matrix(0.02666666666666667,0,0,0.02666666666666667,0,0)" xlink:href="#i"/><use transform="matrix(0.02666666666666667,0,0,0.02666666666666667,15.520000000000001,0)" xlink:href="#j"/><use transform="matrix(0.02666666666666667,0,0,0.02666666666666667,31.626666666666676,0)" xlink:href="#k"/><use transform="matrix(0.02666666666666667,0,0,0.02666666666666667,42.88000000000001,0)" xlink:href="#l"/><use transform="matrix(0.02666666666666667,0,0,0.02666666666666667,50.58666666666667,0)" xlink:href="#m"/><use transform="matrix(0.02666666666666667,0,0,0.02666666666666667,66.29333333333334,0)" xlink:href="#n"/></g><path fill="#ef8d22" d="M323 14C144 14 45-83 45-259c0-170 90-275 252-281 176-6 262 133 239 326H198c8 66 67 100 145 100 51 0 111-11 145-26l20 121C460 2 393 14 323 14zm72-330c13-111-157-138-187-38-4 12-8 25-10 38h197" id="o"/><path fill="#ef8d22" d="M319 14C139 11 45-85 45-263c0-194 140-304 348-269 24 4 46 12 68 21l-31 119c-29-11-61-20-102-20-89 0-131 62-131 149 0 96 36 150 137 149 40 0 85-8 115-21l21 122c-38 16-94 28-151 27" id="p"/><path fill="#ef8d22" d="M304-115c21 0 48-2 66-5v-406h149v508C462-2 373 12 295 12 133 12 65-74 65-233v-293h149v275c2 86 11 133 90 136" id="q"/><path fill="#ef8d22" d="M273 12C125 12 65-67 65-215v-442l149-24v155h179v124H214v185c2 63 16 104 83 103 34 0 71-7 96-17l21 116c-41 16-81 27-141 27" id="r"/><path fill="#ef8d22" d="M280-179c38-107 73-232 103-347h154C478-328 417-155 336 17c-43 91-86 168-218 168-42 1-85-10-113-21L31 45c41 16 112 24 141-7 14-14 26-35 36-60C132-173 63-338 10-526h158c31 117 71 240 112 347" id="s"/><g id="b"><use transform="matrix(0.02666666666666667,0,0,0.02666666666666667,0,0)" xlink:href="#i"/><use transform="matrix(0.02666666666666667,0,0,0.02666666666666667,15.520000000000001,0)" xlink:href="#o"/><use transform="matrix(0.02666666666666667,0,0,0.02666666666666667,31.093333333333334,0)" xlink:href="#p"/><use transform="matrix(0.02666666666666667,0,0,0.02666666666666667,44.42666666666667,0)" xlink:href="#q"/><use transform="matrix(0.02666666666666667,0,0,0.02666666666666667,60.13333333333334,0)" xlink:href="#k"/><use transform="matrix(0.02666666666666667,0,0,0.02666666666666667,71.38666666666667,0)" xlink:href="#l"/><use transform="matrix(0.02666666666666667,0,0,0.02666666666666667,79.09333333333333,0)" xlink:href="#r"/><use transform="matrix(0.02666666666666667,0,0,0.02666666666666667,91.2,0)" xlink:href="#s"/></g><path fill="#ef8d22" d="M80 0v-693h464v131H236v145h274v131H236V0H80" id="t"/><path fill="#ef8d22" d="M219-203c-2 61 24 87 82 90L280 10C144 10 70-36 70-173v-579l149-24v573" id="u"/><path fill="#ef8d22" d="M64-139c45 18 98 32 157 32 46 0 72-1 75-39-14-53-105-62-152-89-51-30-89-66-91-145-5-167 225-188 368-133l-26 116c-36-12-75-23-125-23-84 0-86 59-30 82 96 39 207 59 204 194-2 116-97 158-224 158C148 14 81-2 39-18" id="v"/><g id="c"><use transform="matrix(0.02666666666666667,0,0,0.02666666666666667,0,0)" xlink:href="#t"/><use transform="matrix(0.02666666666666667,0,0,0.02666666666666667,15.306666666666668,0)" xlink:href="#l"/><use transform="matrix(0.02666666666666667,0,0,0.02666666666666667,23.013333333333335,0)" xlink:href="#u"/><use transform="matrix(0.02666666666666667,0,0,0.02666666666666667,31.44,0)" xlink:href="#r"/><use transform="matrix(0.02666666666666667,0,0,0.02666666666666667,42.74666666666667,0)" xlink:href="#o"/><use transform="matrix(0.02666666666666667,0,0,0.02666666666666667,58.32,0)" xlink:href="#k"/><use transform="matrix(0.02666666666666667,0,0,0.02666666666666667,69.57333333333334,0)" xlink:href="#v"/></g><path fill="#e5e5e5" d="M80 0v-693h464v131H236v145h274v131H236V0H80" id="w"/><path fill="#e5e5e5" d="M219 0H70v-526h149V0zm-75-766c49 0 89 36 89 88s-40 88-89 88-89-36-89-88 40-88 89-88" id="x"/><path fill="#e5e5e5" d="M219-203c-2 61 24 87 82 90L280 10C144 10 70-36 70-173v-579l149-24v573" id="y"/><path fill="#e5e5e5" d="M273 12C125 12 65-67 65-215v-442l149-24v155h179v124H214v185c2 63 16 104 83 103 34 0 71-7 96-17l21 116c-41 16-81 27-141 27" id="z"/><path fill="#e5e5e5" d="M323 14C144 14 45-83 45-259c0-170 90-275 252-281 176-6 262 133 239 326H198c8 66 67 100 145 100 51 0 111-11 145-26l20 121C460 2 393 14 323 14zm72-330c13-111-157-138-187-38-4 12-8 25-10 38h197" id="A"/><path fill="#e5e5e5" d="M70-498c86-33 237-58 342-19l-25 123c-45-13-116-24-168-8V0H70v-498" id="B"/><g id="d"><use transform="matrix(0.018,0,0,0.018,0,0)" xlink:href="#w"/><use transform="matrix(0.018,0,0,0.018,10.331999999999999,0)" xlink:href="#x"/><use transform="matrix(0.018,0,0,0.018,15.533999999999999,0)" xlink:href="#y"/><use transform="matrix(0.018,0,0,0.018,21.221999999999998,0)" xlink:href="#z"/><use transform="matrix(0.018,0,0,0.018,28.854,0)" xlink:href="#A"/><use transform="matrix(0.018,0,0,0.018,39.366,0)" xlink:href="#B"/></g><path fill="#505160" d="M80 0v-693h464v131H236v145h274v131H236V0H80" id="C"/><path fill="#505160" d="M219 0H70v-526h149V0zm-75-766c49 0 89 36 89 88s-40 88-89 88-89-36-89-88 40-88 89-88" id="D"/><path fill="#505160" d="M219-203c-2 61 24 87 82 90L280 10C144 10 70-36 70-173v-579l149-24v573" id="E"/><path fill="#505160" d="M273 12C125 12 65-67 65-215v-442l149-24v155h179v124H214v185c2 63 16 104 83 103 34 0 71-7 96-17l21 116c-41 16-81 27-141 27" id="F"/><path fill="#505160" d="M323 14C144 14 45-83 45-259c0-170 90-275 252-281 176-6 262 133 239 326H198c8 66 67 100 145 100 51 0 111-11 145-26l20 121C460 2 393 14 323 14zm72-330c13-111-157-138-187-38-4 12-8 25-10 38h197" id="G"/><path fill="#505160" d="M70-498c86-33 237-58 342-19l-25 123c-45-13-116-24-168-8V0H70v-498" id="H"/><path fill="#505160" d="M628-38C575-8 488 14 396 14 170 14 50-120 50-347c0-295 267-433 542-323 12 5 21 11 26 14l-45 126c-44-23-101-43-171-41-128 4-190 86-190 221 0 139 59 224 198 226 72 0 128-15 175-39" id="I"/><path fill="#505160" d="M288-411c-26 0-50 6-69 11V0H70v-752l149-24v252c20-7 57-14 84-14 157-1 221 86 221 241V0H375v-279c-2-86-10-129-87-132" id="J"/><path fill="#505160" d="M183-166c-2 75 96 63 162 58v-113c-63-10-160-16-162 55zm-148 4c-1-153 163-182 310-156 2-69-30-99-103-98-49 0-104 8-139 21L84-515c50-14 111-24 175-25 152-2 229 65 229 215v310C426-2 349 12 261 11 129 9 36-30 35-162" id="K"/><path fill="#505160" d="M285-411c-21 0-48 2-66 5V0H70v-508c57-16 146-30 224-30 161 0 230 83 230 241V0H375v-279c-2-87-10-129-90-132" id="L"/><path fill="#505160" d="M80-683c58-12 143-18 208-18 190 0 321 53 321 233 0 198-160 242-373 236V0H80v-683zm368 214c0-104-112-104-212-96v200c112 0 212 3 212-104" id="M"/><path fill="#505160" d="M304-540c166 0 258 108 258 276 0 170-90 278-258 278S45-95 45-264c0-168 94-276 259-276zm0 426c75 0 106-68 106-150s-31-148-106-148-107 66-107 148 32 150 107 150" id="N"/><path fill="#505160" d="M10 0c50-95 118-189 183-271-60-83-120-171-179-255h161l104 160 104-160h154L357-273C425-188 496-91 544 0H384c-32-62-69-125-111-178-41 53-78 117-111 178H10" id="O"/><path fill="#505160" d="M280-179c38-107 73-232 103-347h154C478-328 417-155 336 17c-43 91-86 168-218 168-42 1-85-10-113-21L31 45c41 16 112 24 141-7 14-14 26-35 36-60C132-173 63-338 10-526h158c31 117 71 240 112 347" id="P"/><g id="e"><use transform="matrix(0.018,0,0,0.018,0,0)" xlink:href="#C"/><use transform="matrix(0.018,0,0,0.018,10.331999999999999,0)" xlink:href="#D"/><use transform="matrix(0.018,0,0,0.018,15.533999999999999,0)" xlink:href="#E"/><use transform="matrix(0.018,0,0,0.018,21.221999999999998,0)" xlink:href="#F"/><use transform="matrix(0.018,0,0,0.018,28.854,0)" xlink:href="#G"/><use transform="matrix(0.018,0,0,0.018,39.366,0)" xlink:href="#H"/><use transform="matrix(0.018,0,0,0.018,46.961999999999996,0)" xlink:href="#I"/><use transform="matrix(0.018,0,0,0.018,58.626,0)" xlink:href="#J"/><use transform="matrix(0.018,0,0,0.018,69.228,0)" xlink:href="#K"/><use transform="matrix(0.018,0,0,0.018,79.18199999999999,0)" xlink:href="#D"/><use transform="matrix(0.018,0,0,0.018,84.384,0)" xlink:href="#L"/><use transform="matrix(0.018,0,0,0.018,94.98599999999999,0)" xlink:href="#M"/><use transform="matrix(0.018,0,0,0.018,106.57799999999999,0)" xlink:href="#H"/><use transform="matrix(0.018,0,0,0.018,113.99399999999999,0)" xlink:href="#N"/><use transform="matrix(0.018,0,0,0.018,124.59599999999999,0)" xlink:href="#O"/><use transform="matrix(0.018,0,0,0.018,135,0)" xlink:href="#P"/></g><path fill="#505160" d="M81-163c48 25 108 46 188 44 62-1 111-12 112-72 0-23-11-42-32-57-53-39-186-63-239-114-33-32-63-73-61-139 5-145 106-205 255-208 84-2 154 22 205 48l-45 123c-41-20-85-38-150-38-76 0-124 32-96 95 68 68 209 75 272 145 33 36 48 78 52 146C554 42 206 52 37-39" id="Q"/><path fill="#505160" d="M540-526C484-337 414-152 337 0H213C136-152 65-338 10-526h158c31 116 69 239 109 347 39-108 78-231 109-347h154" id="R"/><g id="f"><use transform="matrix(0.02666666666666667,0,0,0.02666666666666667,0,0)" xlink:href="#Q"/><use transform="matrix(0.02666666666666667,0,0,0.02666666666666667,15.520000000000001,0)" xlink:href="#G"/><use transform="matrix(0.02666666666666667,0,0,0.02666666666666667,31.093333333333334,0)" xlink:href="#H"/><use transform="matrix(0.02666666666666667,0,0,0.02666666666666667,43.17333333333333,0)" xlink:href="#R"/><use transform="matrix(0.02666666666666667,0,0,0.02666666666666667,57.84,0)" xlink:href="#E"/><use transform="matrix(0.02666666666666667,0,0,0.02666666666666667,66.26666666666667,0)" xlink:href="#G"/><use transform="matrix(0.02666666666666667,0,0,0.02666666666666667,81.84,0)" xlink:href="#F"/></g><path fill="#29294c" d="M628-38C575-8 488 14 396 14 170 14 50-120 50-347c0-295 267-433 542-323 12 5 21 11 26 14l-45 126c-44-23-101-43-171-41-128 4-190 86-190 221 0 139 59 224 198 226 72 0 128-15 175-39" id="S"/><path fill="#29294c" d="M219-203c-2 61 24 87 82 90L280 10C144 10 70-36 70-173v-579l149-24v573" id="T"/><path fill="#29294c" d="M219 0H70v-526h149V0zm-75-766c49 0 89 36 89 88s-40 88-89 88-89-36-89-88 40-88 89-88" id="U"/><path fill="#29294c" d="M323 14C144 14 45-83 45-259c0-170 90-275 252-281 176-6 262 133 239 326H198c8 66 67 100 145 100 51 0 111-11 145-26l20 121C460 2 393 14 323 14zm72-330c13-111-157-138-187-38-4 12-8 25-10 38h197" id="V"/><path fill="#29294c" d="M285-411c-21 0-48 2-66 5V0H70v-508c57-16 146-30 224-30 161 0 230 83 230 241V0H375v-279c-2-87-10-129-90-132" id="W"/><path fill="#29294c" d="M273 12C125 12 65-67 65-215v-442l149-24v155h179v124H214v185c2 63 16 104 83 103 34 0 71-7 96-17l21 116c-41 16-81 27-141 27" id="X"/><g id="g"><use transform="matrix(0.02666666666666667,0,0,0.02666666666666667,0,0)" xlink:href="#S"/><use transform="matrix(0.02666666666666667,0,0,0.02666666666666667,17.28,0)" xlink:href="#T"/><use transform="matrix(0.02666666666666667,0,0,0.02666666666666667,25.70666666666667,0)" xlink:href="#U"/><use transform="matrix(0.02666666666666667,0,0,0.02666666666666667,33.41333333333334,0)" xlink:href="#V"/><use transform="matrix(0.02666666666666667,0,0,0.02666666666666667,48.98666666666668,0)" xlink:href="#W"/><use transform="matrix(0.02666666666666667,0,0,0.02666666666666667,64.69333333333334,0)" xlink:href="#X"/></g><path fill="#29294c" d="M80 0v-693h464v131H236v145h274v131H236V0H80" id="Y"/><path fill="#29294c" d="M70-498c86-33 237-58 342-19l-25 123c-45-13-116-24-168-8V0H70v-498" id="Z"/><g id="h"><use transform="matrix(0.018,0,0,0.018,0,0)" xlink:href="#Y"/><use transform="matrix(0.018,0,0,0.018,10.331999999999999,0)" xlink:href="#U"/><use transform="matrix(0.018,0,0,0.018,15.533999999999999,0)" xlink:href="#T"/><use transform="matrix(0.018,0,0,0.018,21.221999999999998,0)" xlink:href="#X"/><use transform="matrix(0.018,0,0,0.018,28.854,0)" xlink:href="#V"/><use transform="matrix(0.018,0,0,0.018,39.366,0)" xlink:href="#Z"/></g></defs></g></svg>