<svg xmlns="http://www.w3.org/2000/svg" xmlns:xlink="http://www.w3.org/1999/xlink" xmlns:lucid="lucid" width="207" height="707"><g transform="translate(0 0)" lucid:page-tab-id="0_0"><path d="M20 205c0-2.76 2.24-5 5-5h150c2.76 0 5 2.24 5 5v48c0 2.76-2.24 5-5 5H25c-2.76 0-5-2.24-5-5z" stroke="#000" stroke-width="2" fill="#29294c"/><use xlink:href="#a" transform="matrix(1,0,0,1,28,208) translate(48.519000000000005 27.686999999999998)"/><path d="M20 325c0-2.76 2.24-5 5-5h150c2.76 0 5 2.24 5 5v48c0 2.76-2.24 5-5 5H25c-2.76 0-5-2.24-5-5z" stroke="#000" stroke-width="2" fill="#29294c"/><use xlink:href="#a" transform="matrix(1,0,0,1,28,328) translate(48.519000000000005 27.686999999999998)"/><path d="M20 445c0-2.76 2.24-5 5-5h150c2.76 0 5 2.24 5 5v48c0 2.76-2.24 5-5 5H25c-2.76 0-5-2.24-5-5z" stroke="#000" stroke-width="2" fill="#29294c"/><use xlink:href="#a" transform="matrix(1,0,0,1,28,448) translate(48.519000000000005 27.686999999999998)"/><path d="M100 180.5v-21" stroke="#29294c" stroke-width="2" fill="none"/><path d="M100 195.76l-4.64-14.26h9.28zM100 144.24l4.64 14.26h-9.28z" stroke="#29294c" stroke-width="2" fill="#29294c"/><path d="M100 300.5v-23" stroke="#29294c" stroke-width="2" fill="none"/><path d="M100 315.76l-4.64-14.26h9.28zM100 262.24l4.64 14.26h-9.28z" stroke="#29294c" stroke-width="2" fill="#29294c"/><path d="M100 420.5v-23" stroke="#29294c" stroke-width="2" fill="none"/><path d="M100 435.76l-4.64-14.26h9.28zM100 382.24l4.64 14.26h-9.28z" stroke="#29294c" stroke-width="2" fill="#29294c"/><path d="M20 565c0-2.76 2.24-5 5-5h150c2.76 0 5 2.24 5 5v110c0 2.76-2.24 5-5 5H25c-2.76 0-5-2.24-5-5z" stroke="#3aa6dd" stroke-width="2" fill="#c1e4f7"/><path d="M99.7 642.3c-5.9-.2-11.6-2.5-15.9-6.7-4.2-4.3-6.1-9.9-6.1-15.5 0-3-1.2-6-3.5-8.3-4.7-4.6-12.3-4.6-17 0-4.7 4.7-4.7 12.3 0 17 2.3 2.3 5.3 3.5 8.3 3.5 5.6 0 11.1 1.8 15.4 6.1 4.2 4.2 6.5 9.9 6.8 15.7-.1 3.1 1.1 6.3 3.5 8.7 4.7 4.7 12.3 4.7 16.9 0 4.7-4.7 4.7-12.3 0-17-2.3-2.3-5.3-3.5-8.4-3.5z" fill="#d7edfa"/><path d="M145.6 654.3c0 6.6-5.4 12-12 12s-12-5.4-12-12c0-6.7 5.4-12 12-12s12 5.3 12 12zm-45.9-55.9c-5.9.1-11.6 2.4-15.9 6.7-4.2 4.3-6.1 9.8-6.1 15.4 0 3-1.2 6-3.5 8.3-4.7 4.7-12.3 4.7-17 0-4.7-4.7-4.7-12.3 0-17 2.3-2.2 5.3-3.4 8.3-3.5 5.6 0 11.1-1.7 15.4-6 4.2-4.3 6.5-9.9 6.8-15.7-.1-3.1 1.1-6.3 3.5-8.7 4.7-4.7 12.3-4.7 16.9 0 4.7 4.7 4.7 12.3 0 17-2.3 2.3-5.3 3.5-8.4 3.5zm45.9-12c0 6.6-5.4 12-12 12s-12-5.4-12-12 5.4-12 12-12 12 5.4 12 12z" fill="#d7edfa"/><use xlink:href="#b" transform="matrix(1,0,0,1,25,565) translate(28.159999999999997 64.90666666666667)"/><path d="M20 25c0-2.76 2.24-5 5-5h150c2.76 0 5 2.24 5 5v110c0 2.76-2.24 5-5 5H25c-2.76 0-5-2.24-5-5z" stroke="#598234" stroke-width="2" fill="#a3d977"/><path d="M150 85.1c1.7 0 2.5-2.4 1.3-3.5l-49.2-49.4-49.3 49.5c-1.2 1.1-.4 3.4 1.3 3.4h8.6V130h26.2V92.6h22.5V130h26.3V85.1H150zM73.9 36.5H59v26.3l14.9-14.9V36.5z" fill="#c3e6a7"/><use xlink:href="#c" transform="matrix(1,0,0,1,25,25) translate(36.73333333333333 64.90666666666667)"/><path d="M100 517.5v23" stroke="#29294c" stroke-width="2" fill="none"/><path d="M100 502.24l4.64 14.26h-9.28zM100 555.76l-4.64-14.26h9.28z" stroke="#29294c" stroke-width="2" fill="#29294c"/><defs><path fill="#e5e5e5" d="M80 0v-693h464v131H236v145h274v131H236V0H80" id="d"/><path fill="#e5e5e5" d="M219 0H70v-526h149V0zm-75-766c49 0 89 36 89 88s-40 88-89 88-89-36-89-88 40-88 89-88" id="e"/><path fill="#e5e5e5" d="M219-203c-2 61 24 87 82 90L280 10C144 10 70-36 70-173v-579l149-24v573" id="f"/><path fill="#e5e5e5" d="M273 12C125 12 65-67 65-215v-442l149-24v155h179v124H214v185c2 63 16 104 83 103 34 0 71-7 96-17l21 116c-41 16-81 27-141 27" id="g"/><path fill="#e5e5e5" d="M323 14C144 14 45-83 45-259c0-170 90-275 252-281 176-6 262 133 239 326H198c8 66 67 100 145 100 51 0 111-11 145-26l20 121C460 2 393 14 323 14zm72-330c13-111-157-138-187-38-4 12-8 25-10 38h197" id="h"/><path fill="#e5e5e5" d="M70-498c86-33 237-58 342-19l-25 123c-45-13-116-24-168-8V0H70v-498" id="i"/><g id="a"><use transform="matrix(0.018,0,0,0.018,0,0)" xlink:href="#d"/><use transform="matrix(0.018,0,0,0.018,10.331999999999999,0)" xlink:href="#e"/><use transform="matrix(0.018,0,0,0.018,15.533999999999999,0)" xlink:href="#f"/><use transform="matrix(0.018,0,0,0.018,21.221999999999998,0)" xlink:href="#g"/><use transform="matrix(0.018,0,0,0.018,28.854,0)" xlink:href="#h"/><use transform="matrix(0.018,0,0,0.018,39.366,0)" xlink:href="#i"/></g><path fill="#505160" d="M81-163c48 25 108 46 188 44 62-1 111-12 112-72 0-23-11-42-32-57-53-39-186-63-239-114-33-32-63-73-61-139 5-145 106-205 255-208 84-2 154 22 205 48l-45 123c-41-20-85-38-150-38-76 0-124 32-96 95 68 68 209 75 272 145 33 36 48 78 52 146C554 42 206 52 37-39" id="j"/><path fill="#505160" d="M323 14C144 14 45-83 45-259c0-170 90-275 252-281 176-6 262 133 239 326H198c8 66 67 100 145 100 51 0 111-11 145-26l20 121C460 2 393 14 323 14zm72-330c13-111-157-138-187-38-4 12-8 25-10 38h197" id="k"/><path fill="#505160" d="M70-498c86-33 237-58 342-19l-25 123c-45-13-116-24-168-8V0H70v-498" id="l"/><path fill="#505160" d="M540-526C484-337 414-152 337 0H213C136-152 65-338 10-526h158c31 116 69 239 109 347 39-108 78-231 109-347h154" id="m"/><path fill="#505160" d="M219-203c-2 61 24 87 82 90L280 10C144 10 70-36 70-173v-579l149-24v573" id="n"/><path fill="#505160" d="M273 12C125 12 65-67 65-215v-442l149-24v155h179v124H214v185c2 63 16 104 83 103 34 0 71-7 96-17l21 116c-41 16-81 27-141 27" id="o"/><g id="b"><use transform="matrix(0.02666666666666667,0,0,0.02666666666666667,0,0)" xlink:href="#j"/><use transform="matrix(0.02666666666666667,0,0,0.02666666666666667,15.520000000000001,0)" xlink:href="#k"/><use transform="matrix(0.02666666666666667,0,0,0.02666666666666667,31.093333333333334,0)" xlink:href="#l"/><use transform="matrix(0.02666666666666667,0,0,0.02666666666666667,43.17333333333333,0)" xlink:href="#m"/><use transform="matrix(0.02666666666666667,0,0,0.02666666666666667,57.84,0)" xlink:href="#n"/><use transform="matrix(0.02666666666666667,0,0,0.02666666666666667,66.26666666666667,0)" xlink:href="#k"/><use transform="matrix(0.02666666666666667,0,0,0.02666666666666667,81.84,0)" xlink:href="#o"/></g><path fill="#29294c" d="M628-38C575-8 488 14 396 14 170 14 50-120 50-347c0-295 267-433 542-323 12 5 21 11 26 14l-45 126c-44-23-101-43-171-41-128 4-190 86-190 221 0 139 59 224 198 226 72 0 128-15 175-39" id="p"/><path fill="#29294c" d="M219-203c-2 61 24 87 82 90L280 10C144 10 70-36 70-173v-579l149-24v573" id="q"/><path fill="#29294c" d="M219 0H70v-526h149V0zm-75-766c49 0 89 36 89 88s-40 88-89 88-89-36-89-88 40-88 89-88" id="r"/><path fill="#29294c" d="M323 14C144 14 45-83 45-259c0-170 90-275 252-281 176-6 262 133 239 326H198c8 66 67 100 145 100 51 0 111-11 145-26l20 121C460 2 393 14 323 14zm72-330c13-111-157-138-187-38-4 12-8 25-10 38h197" id="s"/><path fill="#29294c" d="M285-411c-21 0-48 2-66 5V0H70v-508c57-16 146-30 224-30 161 0 230 83 230 241V0H375v-279c-2-87-10-129-90-132" id="t"/><path fill="#29294c" d="M273 12C125 12 65-67 65-215v-442l149-24v155h179v124H214v185c2 63 16 104 83 103 34 0 71-7 96-17l21 116c-41 16-81 27-141 27" id="u"/><g id="c"><use transform="matrix(0.02666666666666667,0,0,0.02666666666666667,0,0)" xlink:href="#p"/><use transform="matrix(0.02666666666666667,0,0,0.02666666666666667,17.28,0)" xlink:href="#q"/><use transform="matrix(0.02666666666666667,0,0,0.02666666666666667,25.70666666666667,0)" xlink:href="#r"/><use transform="matrix(0.02666666666666667,0,0,0.02666666666666667,33.41333333333334,0)" xlink:href="#s"/><use transform="matrix(0.02666666666666667,0,0,0.02666666666666667,48.98666666666668,0)" xlink:href="#t"/><use transform="matrix(0.02666666666666667,0,0,0.02666666666666667,64.69333333333334,0)" xlink:href="#u"/></g></defs></g></svg>