<svg xmlns="http://www.w3.org/2000/svg" xmlns:xlink="http://www.w3.org/1999/xlink" xmlns:lucid="lucid" width="1788" height="1139"><g transform="translate(189 -1190)" lucid:page-tab-id="0_0"><path d="M160 1447.67V2239" fill="none"/><path d="M160 1447.67v2m0 8v3.98m0 8v4m0 8v3.98m0 8v4m0 8v3.98m0 8v4m0 8v4m0 8v3.98m0 8v4m0 8v3.98m0 8v4m0 8v3.98m0 8v4m0 8v3.98m0 8v4m0 8v3.98m0 8v4m0 8v3.98m0 8v4m0 8v3.98m0 8v4m0 8v3.98m0 8v4m0 8v3.98m0 8v4m0 8v3.98m0 8v4m0 8v3.98m0 8v4m0 8v3.98m0 8v4m0 8v3.98m0 8v4m0 7.98v4m0 8v4m0 7.98v4m0 8v4m0 7.98v4m0 8v4m0 7.98v4m0 8v4m0 7.98v4m0 8v4m0 7.98v4m0 8v4m0 7.98v4m0 8v4m0 7.98v4m0 8v4m0 7.98v4m0 8v4m0 7.98v4m0 8v4m0 7.98v4m0 8v4m0 7.98v4m0 8v4m0 7.98v4m0 8v4m0 7.98v4m0 8v4m0 7.98v4m0 8v4m0 7.98v4m0 8v4m0 7.98v2M160 1447.7v-1.03M160 2238.97v1.03" stroke="#000" stroke-width="2" fill="none"/><path d="M140 1500h40v700h-40z" stroke="#000" stroke-width="2" fill="#fff"/><path d="M182 1538.67h355.18" stroke="#000" stroke-width="2" fill="none"/><path d="M182.03 1539.67H181v-2h1.03z"/><path d="M519.82 1548.85l17.22-10.18-17.22-10.18" stroke="#000" stroke-width="2" fill="none"/><use xlink:href="#a" transform="matrix(1,0,0,1,242.12,1491.4666666666667) translate(0 14.4)"/><use xlink:href="#b" transform="matrix(1,0,0,1,242.12,1491.4666666666667) translate(36.01 36)"/><path d="M430 1300h260v100H430z" stroke="#000" stroke-width="2" fill="#fff"/><use xlink:href="#c" transform="matrix(1,0,0,1,430,1300) translate(14.15500000000001 55.025)"/><path d="M560 1402v837" fill="none"/><path d="M560 1402v2m0 7.96v4m0 7.96v4m0 7.96v3.98m0 7.98v3.98m0 7.97v3.98m0 7.97v4m0 7.96v4m0 7.96v4m0 7.96v4m0 7.96v3.98m0 7.98v3.98m0 7.97v3.98m0 7.97v4m0 7.96v4m0 7.96v4m0 7.96v4m0 7.96v3.98m0 7.98v3.98m0 7.97v3.98m0 7.97v4m0 7.96v4m0 7.96v4m0 7.96v4m0 7.96v3.98m0 7.98v3.98m0 7.97v3.98m0 7.97v4m0 7.96v4m0 7.96v4m0 7.96v4m0 7.96v3.98m0 7.98v3.98m0 7.97v3.98m0 7.97v4m0 7.96v4m0 7.96v4m0 7.96v4m0 7.96v3.98m0 7.98v3.98m0 7.97v3.98m0 7.97v4m0 7.96v4m0 7.96v4m0 7.96v4m0 7.96v3.98m0 7.98v3.98m0 7.97v3.98m0 7.97v4m0 7.96v4m0 7.96v4m0 7.96v4m0 7.96v3.98m0 7.98v3.98m0 7.97v3.98m0 7.97v4m0 7.96v4m0 7.96v4m0 7.96v4m0 7.96v3.98m0 7.98v3.98m0 7.97v3.98m0 7.97v4m0 7.96v4m0 7.96v4m0 7.96v4m0 7.96v3.98m0 7.98v3.98m0 7.97v3.98m0 7.97v4m0 7.96v2" stroke="#000" stroke-width="2" fill="none"/><path d="M561 1402.03h-2V1401h2z"/><path d="M560 2238.97v1.03" stroke="#000" stroke-width="2" fill="none"/><path d="M540 1500h40v600h-40z" stroke="#000" stroke-width="2" fill="#fff"/><path d="M582 1558.67h39v38.66h-38.18" stroke="#000" stroke-width="2" fill="none"/><path d="M582.03 1559.67H581v-2h1.03z"/><path d="M600.18 1587.15l-17.22 10.18 17.22 10.18" stroke="#000" stroke-width="2" fill="none"/><use xlink:href="#d" transform="matrix(1,0,0,1,629,1567.2) translate(0 14.4)"/><path d="M-100 1680H20v20l-10 10h-110z" fill="#fff"/><path d="M20 1680v20l-10 10h-110" stroke="#000" stroke-width="2" fill="none"/><path d="M-100 1680h1620v440H-100zM-100 1940h20m15 0h20m15 0h20m15 0h20m15 0h20m15 0h20m15 0h20m15 0h20m15 0h20m15 0h20m15 0h20m15 0h20m15 0h20m15 0h20m15 0h20m15 0h20m15 0h20m15 0h20m15 0h20m15 0h20m15 0h20m15 0h20m15 0h20m15 0h20m15 0h20m15 0h20m15 0h20m15 0h20m15 0h20m15 0h20m15 0h20m15 0h20m15 0h20m15 0h20m15 0h20m15 0h20m15 0h20m15 0h20m15 0h20m15 0h20m15 0h20m15 0h20m15 0h20m15 0h20m15 0h20m15 0h20m15 0h10" stroke="#000" stroke-width="2" fill="none"/><use xlink:href="#e" transform="matrix(1,0,0,1,-92,1680) translate(0 18.6)"/><use xlink:href="#f" transform="matrix(1,0,0,1,-88,1718) translate(0 18.6)"/><use xlink:href="#g" transform="matrix(1,0,0,1,-88,1718) translate(85.80000000000001 18.6)"/><use xlink:href="#h" transform="matrix(1,0,0,1,-88,1718) translate(121.75000000000001 18.6)"/><use xlink:href="#i" transform="matrix(1,0,0,1,-88,1718) translate(168.65000000000003 18.6)"/><use xlink:href="#j" transform="matrix(1,0,0,1,-88,1948) translate(0 18.6)"/><path d="M1180 1300h320v100h-320z" stroke="#000" stroke-width="2" fill="#fff"/><use xlink:href="#k" transform="matrix(1,0,0,1,1180,1300) translate(11.205000000000021 55.025)"/><path d="M805 1300h260v100H805z" stroke="#000" stroke-width="2" fill="#fff"/><use xlink:href="#l" transform="matrix(1,0,0,1,805,1300) translate(29.104999999999997 55.025)"/><use xlink:href="#m" transform="matrix(1,0,0,1,805,1300) translate(85.055 55.025)"/><path d="M935 1402v837" fill="none"/><path d="M935 1402v2m0 7.96v4m0 7.96v4m0 7.96v3.98m0 7.98v3.98m0 7.97v3.98m0 7.97v4m0 7.96v4m0 7.96v4m0 7.96v4m0 7.96v3.98m0 7.98v3.98m0 7.97v3.98m0 7.97v4m0 7.96v4m0 7.96v4m0 7.96v4m0 7.96v3.98m0 7.98v3.98m0 7.97v3.98m0 7.97v4m0 7.96v4m0 7.96v4m0 7.96v4m0 7.96v3.98m0 7.98v3.98m0 7.97v3.98m0 7.97v4m0 7.96v4m0 7.96v4m0 7.96v4m0 7.96v3.98m0 7.98v3.98m0 7.97v3.98m0 7.97v4m0 7.96v4m0 7.96v4m0 7.96v4m0 7.96v3.98m0 7.98v3.98m0 7.97v3.98m0 7.97v4m0 7.96v4m0 7.96v4m0 7.96v4m0 7.96v3.98m0 7.98v3.98m0 7.97v3.98m0 7.97v4m0 7.96v4m0 7.96v4m0 7.96v4m0 7.96v3.98m0 7.98v3.98m0 7.97v3.98m0 7.97v4m0 7.96v4m0 7.96v4m0 7.96v4m0 7.96v3.98m0 7.98v3.98m0 7.97v3.98m0 7.97v4m0 7.96v4m0 7.96v4m0 7.96v4m0 7.96v3.98m0 7.98v3.98m0 7.97v3.98m0 7.97v4m0 7.96v2" stroke="#000" stroke-width="2" fill="none"/><path d="M936 1402.03h-2V1401h2z"/><path d="M935 2238.97v1.03M582 1705.33h39V1784h-38.18" stroke="#000" stroke-width="2" fill="none"/><path d="M582.03 1706.33H581v-2h1.03z"/><path d="M600.18 1773.82L582.96 1784l17.22 10.18" stroke="#000" stroke-width="2" fill="none"/><use xlink:href="#n" transform="matrix(1,0,0,1,629.0000000000001,1733.8666666666666) translate(0 14.4)"/><use xlink:href="#o" transform="matrix(1,0,0,1,629.0000000000001,1733.8666666666666) translate(60.95 14.4)"/><use xlink:href="#p" transform="matrix(1,0,0,1,629.0000000000001,1733.8666666666666) translate(134.95 14.4)"/><path d="M582 1829.33h330.38" stroke="#000" stroke-width="2" fill="none"/><path d="M582.03 1830.33H581v-2h1.03z"/><path d="M895.02 1839.5l17.22-10.17-17.22-10.18" stroke="#000" stroke-width="2" fill="none"/><use xlink:href="#a" transform="matrix(1,0,0,1,652.67,1782.1333333333334) translate(0 14.4)"/><use xlink:href="#q" transform="matrix(1,0,0,1,652.67,1782.1333333333334) translate(36.01 36)"/><path d="M915.2 1800h40v100h-40z" stroke="#000" stroke-width="2" fill="#fff"/><path d="M913.2 1873.33H582.82" fill="none"/><path d="M913.2 1873.33h-10m-10.02 0h-20.03m-10 0H843.1m-10 0h-20.04m-10 0h-20.03m-10 0H753m-10 0h-20.02m-10 0h-20.03m-10.02 0H662.9m-10 0h-20.02m-10.02 0h-20.02m-10 0H582.8" stroke="#000" stroke-width="2" fill="none"/><path d="M914.2 1874.33h-1.03v-2h1.03z"/><path d="M600.18 1863.15l-17.22 10.18 17.22 10.18" stroke="#000" stroke-width="2" fill="none"/><path d="M538 1900H181.82" fill="none"/><path d="M538 1900h-9.9m-9.9 0h-19.78m-9.9 0h-19.78m-9.9 0h-19.78m-9.9 0H409.4m-9.9 0H379.7m-9.9 0h-19.78m-9.9 0h-19.8m-9.88 0h-19.8m-9.88 0h-19.8m-9.88 0h-19.8m-9.9 0h-19.77m-9.9 0h-9.88" stroke="#000" stroke-width="2" fill="none"/><path d="M539 1901h-1.03v-2H539z"/><path d="M199.18 1889.82L181.96 1900l17.22 10.18" stroke="#000" stroke-width="2" fill="none"/><path d="M179.75 1279.75c0 10.9-8.84 19.75-19.75 19.75-10.9 0-19.75-8.84-19.75-19.75 0-10.9 8.84-19.75 19.75-19.75 10.9 0 19.75 8.84 19.75 19.75z" stroke="#000" stroke-width="2" fill="#fff"/><path d="M160 1299.5v55.3l40 63.2m-40-63.2l-40 63.2m0-98.75h80" stroke="#000" stroke-width="2" fill="none"/><path d="M120 1260h80v180h-80z" fill="none"/><use xlink:href="#r" transform="matrix(1,0,0,1,40,1418) translate(101.05 14.6)"/><path d="M582 2004h735.18" stroke="#000" stroke-width="2" fill="none"/><path d="M582.03 2005H581v-2h1.03z"/><path d="M1299.82 2014.18l17.22-10.18-17.22-10.18" stroke="#000" stroke-width="2" fill="none"/><use xlink:href="#a" transform="matrix(1,0,0,1,985.7200000000001,1956.8000000000002) translate(0 14.4)"/><use xlink:href="#b" transform="matrix(1,0,0,1,985.7200000000001,1956.8000000000002) translate(36.01 36)"/><path d="M1340 1402v837" fill="none"/><path d="M1340 1402v2m0 7.96v4m0 7.96v4m0 7.96v3.98m0 7.98v3.98m0 7.97v3.98m0 7.97v4m0 7.96v4m0 7.96v4m0 7.96v4m0 7.96v3.98m0 7.98v3.98m0 7.97v3.98m0 7.97v4m0 7.96v4m0 7.96v4m0 7.96v4m0 7.96v3.98m0 7.98v3.98m0 7.97v3.98m0 7.97v4m0 7.96v4m0 7.96v4m0 7.96v4m0 7.96v3.98m0 7.98v3.98m0 7.97v3.98m0 7.97v4m0 7.96v4m0 7.96v4m0 7.96v4m0 7.96v3.98m0 7.98v3.98m0 7.97v3.98m0 7.97v4m0 7.96v4m0 7.96v4m0 7.96v4m0 7.96v3.98m0 7.98v3.98m0 7.97v3.98m0 7.97v4m0 7.96v4m0 7.96v4m0 7.96v4m0 7.96v3.98m0 7.98v3.98m0 7.97v3.98m0 7.97v4m0 7.96v4m0 7.96v4m0 7.96v4m0 7.96v3.98m0 7.98v3.98m0 7.97v3.98m0 7.97v4m0 7.96v4m0 7.96v4m0 7.96v4m0 7.96v3.98m0 7.98v3.98m0 7.97v3.98m0 7.97v4m0 7.96v4m0 7.96v4m0 7.96v4m0 7.96v3.98m0 7.98v3.98m0 7.97v3.98m0 7.97v4m0 7.96v2" stroke="#000" stroke-width="2" fill="none"/><path d="M1341 1402.03h-2V1401h2z"/><path d="M1340 2238.97v1.03" stroke="#000" stroke-width="2" fill="none"/><path d="M1320 1980h40v100h-40z" stroke="#000" stroke-width="2" fill="#fff"/><path d="M1318 2050.67H582.82" fill="none"/><path d="M1318 2050.67h-9.8m-9.8 0h-19.6m-9.8 0h-19.62m-9.8 0h-19.6m-9.8 0h-19.6m-9.8 0h-19.62m-9.8 0h-19.6m-9.8 0h-19.6m-9.82 0h-19.6m-9.8 0h-19.6m-9.8 0h-19.62m-9.8 0h-19.6m-9.8 0h-19.6m-9.8 0H925.9m-9.8 0h-19.6m-9.8 0h-19.6m-9.8 0h-19.62m-9.8 0h-19.6m-9.8 0h-19.6m-9.82 0h-19.6m-9.8 0h-19.6m-9.8 0h-19.62m-9.8 0h-19.6m-9.8 0h-19.6m-9.8 0H602.4m-9.8 0h-9.8" stroke="#000" stroke-width="2" fill="none"/><path d="M1319 2051.67h-1.03v-2h1.03z"/><path d="M600.18 2040.5l-17.22 10.17 17.22 10.18" stroke="#000" stroke-width="2" fill="none"/><path d="M538 2084H182.82" fill="none"/><path d="M538 2084h-9.87m-9.86 0h-19.73m-9.87 0h-19.73m-9.87 0h-19.73m-9.87 0h-19.73m-9.87 0h-19.73m-9.86 0h-19.74m-9.86 0h-19.74m-9.86 0h-19.73m-9.87 0h-19.73m-9.87 0h-19.73m-9.87 0h-19.73m-9.87 0h-9.86" stroke="#000" stroke-width="2" fill="none"/><path d="M539 2085h-1.03v-2H539z"/><path d="M200.18 2073.82L182.96 2084l17.22 10.18M582 1622.67h39v38.66h-38.18" stroke="#000" stroke-width="2" fill="none"/><path d="M582.03 1623.67H581v-2h1.03z"/><path d="M600.18 1651.15l-17.22 10.18 17.22 10.18" stroke="#000" stroke-width="2" fill="none"/><g><use xlink:href="#s" transform="matrix(1,0,0,1,629,1631.2) translate(0 14.4)"/></g><defs><path d="M210-169c-67 3-38 105-44 169h-31v-121c0-29-5-50-35-48C34-165 62-65 56 0H25l-1-190h30c1 10-1 24 2 32 10-44 99-50 107 0 11-21 27-35 58-36 85-2 47 119 55 194h-31v-121c0-29-5-49-35-48" id="t"/><path d="M141-36C126-15 110 5 73 4 37 3 15-17 15-53c-1-64 63-63 125-63 3-35-9-54-41-54-24 1-41 7-42 31l-33-3c5-37 33-52 76-52 45 0 72 20 72 64v82c-1 20 7 32 28 27v20c-31 9-61-2-59-35zM48-53c0 20 12 33 32 33 41-3 63-29 60-74-43 2-92-5-92 41" id="u"/><path d="M59-47c-2 24 18 29 38 22v24C64 9 27 4 27-40v-127H5v-23h24l9-43h21v43h35v23H59v120" id="v"/><path d="M96-169c-40 0-48 33-48 73s9 75 48 75c24 0 41-14 43-38l32 2c-6 37-31 61-74 61-59 0-76-41-82-99-10-93 101-131 147-64 4 7 5 14 7 22l-32 3c-4-21-16-35-41-35" id="w"/><path d="M106-169C34-169 62-67 57 0H25v-261h32l-1 103c12-21 28-36 61-36 89 0 53 116 60 194h-32v-121c2-32-8-49-39-48" id="x"/><path d="M100-194c63 0 86 42 84 106H49c0 40 14 67 53 68 26 1 43-12 49-29l28 8c-11 28-37 45-77 45C44 4 14-33 15-96c1-61 26-98 85-98zm52 81c6-60-76-77-97-28-3 7-6 17-6 28h103" id="y"/><path d="M135-143c-3-34-86-38-87 0 15 53 115 12 119 90S17 21 10-45l28-5c4 36 97 45 98 0-10-56-113-15-118-90-4-57 82-63 122-42 12 7 21 19 24 35" id="z"/><path d="M87 75C49 33 22-17 22-94c0-76 28-126 65-167h31c-38 41-64 92-64 168S80 34 118 75H87" id="A"/><path d="M114-163C36-179 61-72 57 0H25l-1-190h30c1 12-1 29 2 39 6-27 23-49 58-41v29" id="B"/><path d="M206 0h-36l-40-164L89 0H53L-1-190h32L70-26l43-164h34l41 164 42-164h31" id="C"/><path d="M30-248c87 1 191-15 191 75 0 78-77 80-158 76V0H30v-248zm33 125c57 0 124 11 124-50 0-59-68-47-124-48v98" id="D"/><path d="M100-194c62-1 85 37 85 99 1 63-27 99-86 99S16-35 15-95c0-66 28-99 85-99zM99-20c44 1 53-31 53-75 0-43-8-75-51-75s-53 32-53 75 10 74 51 75" id="E"/><path d="M85-194c31 0 48 13 60 33l-1-100h32l1 261h-30c-2-10 0-23-3-31C134-8 116 4 85 4 32 4 16-35 15-94c0-66 23-100 70-100zm9 24c-40 0-46 34-46 75 0 40 6 74 45 74 42 0 51-32 51-76 0-42-9-74-50-73" id="F"/><path d="M68-38c1 34 0 65-14 84H32c9-13 17-26 17-46H33v-38h35" id="G"/><g id="a"><use transform="matrix(0.05,0,0,0.05,0,0)" xlink:href="#t"/><use transform="matrix(0.05,0,0,0.05,14.950000000000001,0)" xlink:href="#u"/><use transform="matrix(0.05,0,0,0.05,24.950000000000003,0)" xlink:href="#v"/><use transform="matrix(0.05,0,0,0.05,29.950000000000003,0)" xlink:href="#w"/><use transform="matrix(0.05,0,0,0.05,38.95,0)" xlink:href="#x"/><use transform="matrix(0.05,0,0,0.05,48.95,0)" xlink:href="#y"/><use transform="matrix(0.05,0,0,0.05,58.95,0)" xlink:href="#z"/><use transform="matrix(0.05,0,0,0.05,67.95,0)" xlink:href="#A"/><use transform="matrix(0.05,0,0,0.05,73.9,0)" xlink:href="#B"/><use transform="matrix(0.05,0,0,0.05,79.85000000000001,0)" xlink:href="#u"/><use transform="matrix(0.05,0,0,0.05,89.85000000000001,0)" xlink:href="#C"/><use transform="matrix(0.05,0,0,0.05,102.80000000000001,0)" xlink:href="#D"/><use transform="matrix(0.05,0,0,0.05,114.80000000000001,0)" xlink:href="#u"/><use transform="matrix(0.05,0,0,0.05,124.80000000000001,0)" xlink:href="#z"/><use transform="matrix(0.05,0,0,0.05,133.8,0)" xlink:href="#z"/><use transform="matrix(0.05,0,0,0.05,142.8,0)" xlink:href="#C"/><use transform="matrix(0.05,0,0,0.05,155.75,0)" xlink:href="#E"/><use transform="matrix(0.05,0,0,0.05,165.75,0)" xlink:href="#B"/><use transform="matrix(0.05,0,0,0.05,171.7,0)" xlink:href="#F"/><use transform="matrix(0.05,0,0,0.05,181.7,0)" xlink:href="#G"/></g><path d="M115-194c55 1 70 41 70 98S169 2 115 4C84 4 66-9 55-30l1 105H24l-1-265h31l2 30c10-21 28-34 59-34zm-8 174c40 0 45-34 45-75s-6-73-45-74c-42 0-51 32-51 76 0 43 10 73 51 73" id="H"/><path d="M101-234c-31-9-42 10-38 44h38v23H63V0H32v-167H5v-23h27c-7-52 17-82 69-68v24" id="I"/><path d="M24-231v-30h32v30H24zM24 0v-190h32V0H24" id="J"/><path d="M141 0L90-78 38 0H4l68-98-65-92h35l48 74 47-74h35l-64 92 68 98h-35" id="K"/><path d="M30 0v-248h187v28H63v79h144v27H63v87h162V0H30" id="L"/><path d="M117-194c89-4 53 116 60 194h-32v-121c0-31-8-49-39-48C34-167 62-67 57 0H25l-1-190h30c1 10-1 24 2 32 11-22 29-35 61-36" id="M"/><path d="M33-261c38 41 65 92 65 168S71 34 33 75H2C39 34 66-17 66-93S39-220 2-261h31" id="N"/><g id="b"><use transform="matrix(0.05,0,0,0.05,0,0)" xlink:href="#H"/><use transform="matrix(0.05,0,0,0.05,10,0)" xlink:href="#B"/><use transform="matrix(0.05,0,0,0.05,15.949999999999998,0)" xlink:href="#y"/><use transform="matrix(0.05,0,0,0.05,25.950000000000003,0)" xlink:href="#I"/><use transform="matrix(0.05,0,0,0.05,30.950000000000003,0)" xlink:href="#J"/><use transform="matrix(0.05,0,0,0.05,34.9,0)" xlink:href="#K"/><use transform="matrix(0.05,0,0,0.05,43.9,0)" xlink:href="#L"/><use transform="matrix(0.05,0,0,0.05,55.900000000000006,0)" xlink:href="#M"/><use transform="matrix(0.05,0,0,0.05,65.9,0)" xlink:href="#w"/><use transform="matrix(0.05,0,0,0.05,74.9,0)" xlink:href="#E"/><use transform="matrix(0.05,0,0,0.05,84.9,0)" xlink:href="#F"/><use transform="matrix(0.05,0,0,0.05,94.9,0)" xlink:href="#y"/><use transform="matrix(0.05,0,0,0.05,104.9,0)" xlink:href="#F"/><use transform="matrix(0.05,0,0,0.05,114.9,0)" xlink:href="#D"/><use transform="matrix(0.05,0,0,0.05,126.9,0)" xlink:href="#u"/><use transform="matrix(0.05,0,0,0.05,136.9,0)" xlink:href="#z"/><use transform="matrix(0.05,0,0,0.05,145.9,0)" xlink:href="#z"/><use transform="matrix(0.05,0,0,0.05,154.9,0)" xlink:href="#C"/><use transform="matrix(0.05,0,0,0.05,167.85,0)" xlink:href="#E"/><use transform="matrix(0.05,0,0,0.05,177.85,0)" xlink:href="#B"/><use transform="matrix(0.05,0,0,0.05,183.79999999999998,0)" xlink:href="#F"/><use transform="matrix(0.05,0,0,0.05,193.79999999999998,0)" xlink:href="#N"/></g><path d="M30-248c118-7 216 8 213 122C240-48 200 0 122 0H30v-248zM63-27c89 8 146-16 146-99s-60-101-146-95v194" id="O"/><path d="M24 0v-261h32V0H24" id="P"/><path d="M177-190C167-65 218 103 67 71c-23-6-38-20-44-43l32-5c15 47 100 32 89-28v-30C133-14 115 1 83 1 29 1 15-40 15-95c0-56 16-97 71-98 29-1 48 16 59 35 1-10 0-23 2-32h30zM94-22c36 0 50-32 50-73 0-42-14-75-50-75-39 0-46 34-46 75s6 73 46 73" id="Q"/><g id="c"><use transform="matrix(0.05,0,0,0.05,0,0)" xlink:href="#O"/><use transform="matrix(0.05,0,0,0.05,12.950000000000001,0)" xlink:href="#y"/><use transform="matrix(0.05,0,0,0.05,22.950000000000003,0)" xlink:href="#P"/><use transform="matrix(0.05,0,0,0.05,26.900000000000002,0)" xlink:href="#y"/><use transform="matrix(0.05,0,0,0.05,36.900000000000006,0)" xlink:href="#Q"/><use transform="matrix(0.05,0,0,0.05,46.900000000000006,0)" xlink:href="#u"/><use transform="matrix(0.05,0,0,0.05,56.900000000000006,0)" xlink:href="#v"/><use transform="matrix(0.05,0,0,0.05,61.900000000000006,0)" xlink:href="#J"/><use transform="matrix(0.05,0,0,0.05,65.85000000000001,0)" xlink:href="#M"/><use transform="matrix(0.05,0,0,0.05,75.85000000000001,0)" xlink:href="#Q"/><use transform="matrix(0.05,0,0,0.05,85.85000000000001,0)" xlink:href="#D"/><use transform="matrix(0.05,0,0,0.05,97.85000000000001,0)" xlink:href="#u"/><use transform="matrix(0.05,0,0,0.05,107.85000000000001,0)" xlink:href="#z"/><use transform="matrix(0.05,0,0,0.05,116.85000000000001,0)" xlink:href="#z"/><use transform="matrix(0.05,0,0,0.05,125.85000000000001,0)" xlink:href="#C"/><use transform="matrix(0.05,0,0,0.05,138.8,0)" xlink:href="#E"/><use transform="matrix(0.05,0,0,0.05,148.8,0)" xlink:href="#B"/><use transform="matrix(0.05,0,0,0.05,154.75,0)" xlink:href="#F"/><use transform="matrix(0.05,0,0,0.05,164.75,0)" xlink:href="#L"/><use transform="matrix(0.05,0,0,0.05,176.75,0)" xlink:href="#M"/><use transform="matrix(0.05,0,0,0.05,186.75,0)" xlink:href="#w"/><use transform="matrix(0.05,0,0,0.05,195.75,0)" xlink:href="#E"/><use transform="matrix(0.05,0,0,0.05,205.75,0)" xlink:href="#F"/><use transform="matrix(0.05,0,0,0.05,215.75,0)" xlink:href="#y"/><use transform="matrix(0.05,0,0,0.05,225.75,0)" xlink:href="#B"/><path d="M-.9 1.25h233.5v1.32H-.9z"/></g><path d="M33 0v-248h34V0H33" id="R"/><g id="d"><use transform="matrix(0.05,0,0,0.05,0,0)" xlink:href="#y"/><use transform="matrix(0.05,0,0,0.05,10,0)" xlink:href="#K"/><use transform="matrix(0.05,0,0,0.05,19,0)" xlink:href="#v"/><use transform="matrix(0.05,0,0,0.05,24,0)" xlink:href="#B"/><use transform="matrix(0.05,0,0,0.05,29.950000000000003,0)" xlink:href="#u"/><use transform="matrix(0.05,0,0,0.05,39.95,0)" xlink:href="#w"/><use transform="matrix(0.05,0,0,0.05,48.95,0)" xlink:href="#v"/><use transform="matrix(0.05,0,0,0.05,53.95,0)" xlink:href="#R"/><use transform="matrix(0.05,0,0,0.05,58.95,0)" xlink:href="#F"/><use transform="matrix(0.05,0,0,0.05,68.95,0)" xlink:href="#A"/><use transform="matrix(0.05,0,0,0.05,74.9,0)" xlink:href="#H"/><use transform="matrix(0.05,0,0,0.05,84.9,0)" xlink:href="#B"/><use transform="matrix(0.05,0,0,0.05,90.85000000000001,0)" xlink:href="#y"/><use transform="matrix(0.05,0,0,0.05,100.85000000000001,0)" xlink:href="#I"/><use transform="matrix(0.05,0,0,0.05,105.85000000000001,0)" xlink:href="#J"/><use transform="matrix(0.05,0,0,0.05,109.80000000000001,0)" xlink:href="#K"/><use transform="matrix(0.05,0,0,0.05,118.80000000000001,0)" xlink:href="#L"/><use transform="matrix(0.05,0,0,0.05,130.8,0)" xlink:href="#K"/><use transform="matrix(0.05,0,0,0.05,139.8,0)" xlink:href="#w"/><use transform="matrix(0.05,0,0,0.05,148.8,0)" xlink:href="#E"/><use transform="matrix(0.05,0,0,0.05,158.8,0)" xlink:href="#F"/><use transform="matrix(0.05,0,0,0.05,168.8,0)" xlink:href="#y"/><use transform="matrix(0.05,0,0,0.05,178.8,0)" xlink:href="#F"/><use transform="matrix(0.05,0,0,0.05,188.8,0)" xlink:href="#D"/><use transform="matrix(0.05,0,0,0.05,200.8,0)" xlink:href="#u"/><use transform="matrix(0.05,0,0,0.05,210.8,0)" xlink:href="#z"/><use transform="matrix(0.05,0,0,0.05,219.8,0)" xlink:href="#z"/><use transform="matrix(0.05,0,0,0.05,228.8,0)" xlink:href="#C"/><use transform="matrix(0.05,0,0,0.05,241.75,0)" xlink:href="#E"/><use transform="matrix(0.05,0,0,0.05,251.75,0)" xlink:href="#B"/><use transform="matrix(0.05,0,0,0.05,257.7,0)" xlink:href="#F"/><use transform="matrix(0.05,0,0,0.05,267.7,0)" xlink:href="#N"/></g><path d="M199 0l-22-63H83L61 0H9l90-248h61L250 0h-51zm-33-102l-36-108c-10 38-24 72-36 108h72" id="S"/><path d="M25 0v-261h50V0H25" id="T"/><path d="M115-3C79 11 28 4 28-45v-112H4v-33h27l15-45h31v45h36v33H77v99c-1 23 16 31 38 25v30" id="U"/><path d="M185-48c-13 30-37 53-82 52C43 2 14-33 14-96s30-98 90-98c62 0 83 45 84 108H66c0 31 8 55 39 56 18 0 30-7 34-22zm-45-69c5-46-57-63-70-21-2 6-4 13-4 21h74" id="V"/><path d="M135-150c-39-12-60 13-60 57V0H25l-1-190h47c2 13-1 29 3 40 6-28 27-53 61-41v41" id="W"/><path d="M135-194c87-1 58 113 63 194h-50c-7-57 23-157-34-157-59 0-34 97-39 157H25l-1-190h47c2 12-1 28 3 38 12-26 28-41 61-42" id="X"/><path d="M133-34C117-15 103 5 69 4 32 3 11-16 11-54c-1-60 55-63 116-61 1-26-3-47-28-47-18 1-26 9-28 27l-52-2c7-38 36-58 82-57s74 22 75 68l1 82c-1 14 12 18 25 15v27c-30 8-71 5-69-32zm-48 3c29 0 43-24 42-57-32 0-66-3-65 30 0 17 8 27 23 27" id="Y"/><path d="M25-224v-37h50v37H25zM25 0v-190h50V0H25" id="Z"/><path d="M128 0H69L1-190h53L99-40l48-150h52" id="aa"/><g id="e"><use transform="matrix(0.05,0,0,0.05,0,0)" xlink:href="#S"/><use transform="matrix(0.05,0,0,0.05,12.950000000000001,0)" xlink:href="#T"/><use transform="matrix(0.05,0,0,0.05,17.950000000000003,0)" xlink:href="#U"/><use transform="matrix(0.05,0,0,0.05,23.900000000000002,0)" xlink:href="#V"/><use transform="matrix(0.05,0,0,0.05,33.900000000000006,0)" xlink:href="#W"/><use transform="matrix(0.05,0,0,0.05,40.900000000000006,0)" xlink:href="#X"/><use transform="matrix(0.05,0,0,0.05,51.85,0)" xlink:href="#Y"/><use transform="matrix(0.05,0,0,0.05,61.85,0)" xlink:href="#U"/><use transform="matrix(0.05,0,0,0.05,67.80000000000001,0)" xlink:href="#Z"/><use transform="matrix(0.05,0,0,0.05,72.80000000000001,0)" xlink:href="#aa"/><use transform="matrix(0.05,0,0,0.05,82.80000000000001,0)" xlink:href="#V"/></g><path d="M20 75v-336h95v34H67V41h48v34H20" id="ab"/><path d="M24-248c120-7 223 5 221 122C244-46 201 0 124 0H24v-248zM76-40c74 7 117-18 117-86 0-67-45-88-117-82v168" id="ac"/><path d="M195-6C206 82 75 100 31 46c-4-6-6-13-8-21l49-6c3 16 16 24 34 25 40 0 42-37 40-79-11 22-30 35-61 35-53 0-70-43-70-97 0-56 18-96 73-97 30 0 46 14 59 34l2-30h47zm-90-29c32 0 41-27 41-63 0-35-9-62-40-62-32 0-39 29-40 63 0 36 9 62 39 62" id="ad"/><g id="f"><use transform="matrix(0.05,0,0,0.05,0,0)" xlink:href="#ab"/><use transform="matrix(0.05,0,0,0.05,5.95,0)" xlink:href="#ac"/><use transform="matrix(0.05,0,0,0.05,18.900000000000002,0)" xlink:href="#V"/><use transform="matrix(0.05,0,0,0.05,28.900000000000002,0)" xlink:href="#T"/><use transform="matrix(0.05,0,0,0.05,33.900000000000006,0)" xlink:href="#V"/><use transform="matrix(0.05,0,0,0.05,43.900000000000006,0)" xlink:href="#ad"/><use transform="matrix(0.05,0,0,0.05,54.85,0)" xlink:href="#Y"/><use transform="matrix(0.05,0,0,0.05,64.85000000000001,0)" xlink:href="#U"/><use transform="matrix(0.05,0,0,0.05,70.80000000000001,0)" xlink:href="#V"/></g><path d="M114-157C55-157 80-60 75 0H25v-261h50l-1 109c12-26 28-41 61-42 86-1 58 113 63 194h-50c-7-57 23-157-34-157" id="ae"/><path d="M137-138c1-29-70-34-71-4 15 46 118 7 119 86 1 83-164 76-172 9l43-7c4 19 20 25 44 25 33 8 57-30 24-41C81-84 22-81 20-136c-2-80 154-74 161-7" id="af"/><g id="g"><use transform="matrix(0.05,0,0,0.05,0,0)" xlink:href="#ae"/><use transform="matrix(0.05,0,0,0.05,10.950000000000001,0)" xlink:href="#Y"/><use transform="matrix(0.05,0,0,0.05,20.950000000000003,0)" xlink:href="#af"/></g><path d="M135-194c52 0 70 43 70 98 0 56-19 99-73 100-30 1-46-15-58-35L72 0H24l1-261h50v104c11-23 29-37 60-37zM114-30c31 0 40-27 40-66 0-37-7-63-39-63s-41 28-41 65c0 36 8 64 40 64" id="ag"/><g id="h"><use transform="matrix(0.05,0,0,0.05,0,0)" xlink:href="#ag"/><use transform="matrix(0.05,0,0,0.05,10.950000000000001,0)" xlink:href="#V"/><use transform="matrix(0.05,0,0,0.05,20.950000000000003,0)" xlink:href="#V"/><use transform="matrix(0.05,0,0,0.05,30.950000000000003,0)" xlink:href="#X"/></g><path d="M121-226c-27-7-43 5-38 36h38v33H83V0H34v-157H6v-33h28c-9-59 32-81 87-68v32" id="ah"/><path d="M110-194c64 0 96 36 96 99 0 64-35 99-97 99-61 0-95-36-95-99 0-62 34-99 96-99zm-1 164c35 0 45-28 45-65 0-40-10-65-43-65-34 0-45 26-45 65 0 36 10 65 43 65" id="ai"/><path d="M85 4C-2 5 27-109 22-190h50c7 57-23 150 33 157 60-5 35-97 40-157h50l1 190h-47c-2-12 1-28-3-38-12 25-28 42-61 42" id="aj"/><path d="M88-194c31-1 46 15 58 34l-1-101h50l1 261h-48c-2-10 0-23-3-31C134-8 116 4 84 4 32 4 16-41 15-95c0-56 19-97 73-99zm17 164c33 0 40-30 41-66 1-37-9-64-41-64s-38 30-39 65c0 43 13 65 39 65" id="ak"/><path d="M4 75V41h49v-268H4v-34h96V75H4" id="al"/><g id="i"><use transform="matrix(0.05,0,0,0.05,0,0)" xlink:href="#ah"/><use transform="matrix(0.05,0,0,0.05,5.95,0)" xlink:href="#ai"/><use transform="matrix(0.05,0,0,0.05,16.900000000000002,0)" xlink:href="#aj"/><use transform="matrix(0.05,0,0,0.05,27.85,0)" xlink:href="#X"/><use transform="matrix(0.05,0,0,0.05,38.800000000000004,0)" xlink:href="#ak"/><use transform="matrix(0.05,0,0,0.05,49.75000000000001,0)" xlink:href="#al"/></g><path d="M24 0v-248h195v40H76v63h132v40H76v65h150V0H24" id="am"/><g id="j"><use transform="matrix(0.05,0,0,0.05,0,0)" xlink:href="#ab"/><use transform="matrix(0.05,0,0,0.05,5.95,0)" xlink:href="#am"/><use transform="matrix(0.05,0,0,0.05,17.95,0)" xlink:href="#T"/><use transform="matrix(0.05,0,0,0.05,22.95,0)" xlink:href="#af"/><use transform="matrix(0.05,0,0,0.05,32.95,0)" xlink:href="#V"/><use transform="matrix(0.05,0,0,0.05,42.95,0)" xlink:href="#al"/></g><path d="M84 4C-5 8 30-112 23-190h32v120c0 31 7 50 39 49 72-2 45-101 50-169h31l1 190h-30c-1-10 1-25-2-33-11 22-28 36-60 37" id="an"/><path d="M63-220v92h138v28H63V0H30v-248h175v28H63" id="ao"/><path d="M240 0l2-218c-23 76-54 145-80 218h-23L58-218 59 0H30v-248h44l77 211c21-75 51-140 76-211h43V0h-30" id="ap"/><g id="k"><use transform="matrix(0.05,0,0,0.05,0,0)" xlink:href="#O"/><use transform="matrix(0.05,0,0,0.05,12.950000000000001,0)" xlink:href="#y"/><use transform="matrix(0.05,0,0,0.05,22.950000000000003,0)" xlink:href="#I"/><use transform="matrix(0.05,0,0,0.05,27.950000000000003,0)" xlink:href="#u"/><use transform="matrix(0.05,0,0,0.05,37.95,0)" xlink:href="#an"/><use transform="matrix(0.05,0,0,0.05,47.95,0)" xlink:href="#P"/><use transform="matrix(0.05,0,0,0.05,51.900000000000006,0)" xlink:href="#v"/><use transform="matrix(0.05,0,0,0.05,56.900000000000006,0)" xlink:href="#D"/><use transform="matrix(0.05,0,0,0.05,68.9,0)" xlink:href="#u"/><use transform="matrix(0.05,0,0,0.05,78.9,0)" xlink:href="#z"/><use transform="matrix(0.05,0,0,0.05,87.9,0)" xlink:href="#z"/><use transform="matrix(0.05,0,0,0.05,96.9,0)" xlink:href="#C"/><use transform="matrix(0.05,0,0,0.05,109.85000000000001,0)" xlink:href="#E"/><use transform="matrix(0.05,0,0,0.05,119.85000000000001,0)" xlink:href="#B"/><use transform="matrix(0.05,0,0,0.05,125.80000000000001,0)" xlink:href="#F"/><use transform="matrix(0.05,0,0,0.05,135.8,0)" xlink:href="#L"/><use transform="matrix(0.05,0,0,0.05,147.8,0)" xlink:href="#M"/><use transform="matrix(0.05,0,0,0.05,157.8,0)" xlink:href="#w"/><use transform="matrix(0.05,0,0,0.05,166.8,0)" xlink:href="#E"/><use transform="matrix(0.05,0,0,0.05,176.8,0)" xlink:href="#F"/><use transform="matrix(0.05,0,0,0.05,186.8,0)" xlink:href="#y"/><use transform="matrix(0.05,0,0,0.05,196.8,0)" xlink:href="#B"/><use transform="matrix(0.05,0,0,0.05,202.75,0)" xlink:href="#ao"/><use transform="matrix(0.05,0,0,0.05,213.69999999999996,0)" xlink:href="#E"/><use transform="matrix(0.05,0,0,0.05,223.69999999999996,0)" xlink:href="#B"/><use transform="matrix(0.05,0,0,0.05,229.64999999999998,0)" xlink:href="#ap"/><use transform="matrix(0.05,0,0,0.05,244.59999999999997,0)" xlink:href="#u"/><use transform="matrix(0.05,0,0,0.05,254.59999999999997,0)" xlink:href="#v"/><use transform="matrix(0.05,0,0,0.05,259.59999999999997,0)" xlink:href="#w"/><use transform="matrix(0.05,0,0,0.05,268.59999999999997,0)" xlink:href="#x"/><use transform="matrix(0.05,0,0,0.05,278.59999999999997,0)" xlink:href="#y"/><use transform="matrix(0.05,0,0,0.05,288.59999999999997,0)" xlink:href="#z"/><path d="M-.9 1.25h299.4v1.32H-.9z"/></g><g id="l"><use transform="matrix(0.05,0,0,0.05,0,0)" xlink:href="#ao"/><use transform="matrix(0.05,0,0,0.05,10.950000000000001,0)" xlink:href="#E"/><use transform="matrix(0.05,0,0,0.05,20.950000000000003,0)" xlink:href="#an"/><use transform="matrix(0.05,0,0,0.05,30.950000000000003,0)" xlink:href="#M"/><use transform="matrix(0.05,0,0,0.05,40.95,0)" xlink:href="#F"/><path d="M-.9 1.25h57.75v1.32H-.9z"/></g><g id="m"><use transform="matrix(0.05,0,0,0.05,0,0)" xlink:href="#D"/><use transform="matrix(0.05,0,0,0.05,12,0)" xlink:href="#u"/><use transform="matrix(0.05,0,0,0.05,22,0)" xlink:href="#z"/><use transform="matrix(0.05,0,0,0.05,31,0)" xlink:href="#z"/><use transform="matrix(0.05,0,0,0.05,40,0)" xlink:href="#C"/><use transform="matrix(0.05,0,0,0.05,52.95,0)" xlink:href="#E"/><use transform="matrix(0.05,0,0,0.05,62.95,0)" xlink:href="#B"/><use transform="matrix(0.05,0,0,0.05,68.9,0)" xlink:href="#F"/><use transform="matrix(0.05,0,0,0.05,78.9,0)" xlink:href="#L"/><use transform="matrix(0.05,0,0,0.05,90.9,0)" xlink:href="#M"/><use transform="matrix(0.05,0,0,0.05,100.9,0)" xlink:href="#w"/><use transform="matrix(0.05,0,0,0.05,109.9,0)" xlink:href="#E"/><use transform="matrix(0.05,0,0,0.05,119.9,0)" xlink:href="#F"/><use transform="matrix(0.05,0,0,0.05,129.9,0)" xlink:href="#y"/><use transform="matrix(0.05,0,0,0.05,139.9,0)" xlink:href="#B"/><path d="M-.9 1.25h147.65v1.32H-.9z"/></g><g id="n"><use transform="matrix(0.05,0,0,0.05,0,0)" xlink:href="#L"/><use transform="matrix(0.05,0,0,0.05,12,0)" xlink:href="#K"/><use transform="matrix(0.05,0,0,0.05,21,0)" xlink:href="#v"/><use transform="matrix(0.05,0,0,0.05,26,0)" xlink:href="#B"/><use transform="matrix(0.05,0,0,0.05,31.950000000000003,0)" xlink:href="#u"/><use transform="matrix(0.05,0,0,0.05,41.95,0)" xlink:href="#w"/><use transform="matrix(0.05,0,0,0.05,50.95,0)" xlink:href="#v"/></g><g id="o"><use transform="matrix(0.05,0,0,0.05,0,0)" xlink:href="#y"/><use transform="matrix(0.05,0,0,0.05,10,0)" xlink:href="#M"/><use transform="matrix(0.05,0,0,0.05,20,0)" xlink:href="#w"/><use transform="matrix(0.05,0,0,0.05,29,0)" xlink:href="#E"/><use transform="matrix(0.05,0,0,0.05,39,0)" xlink:href="#F"/><use transform="matrix(0.05,0,0,0.05,49,0)" xlink:href="#y"/><use transform="matrix(0.05,0,0,0.05,59,0)" xlink:href="#F"/></g><g id="p"><use transform="matrix(0.05,0,0,0.05,0,0)" xlink:href="#H"/><use transform="matrix(0.05,0,0,0.05,10,0)" xlink:href="#u"/><use transform="matrix(0.05,0,0,0.05,20,0)" xlink:href="#z"/><use transform="matrix(0.05,0,0,0.05,29,0)" xlink:href="#z"/><use transform="matrix(0.05,0,0,0.05,38,0)" xlink:href="#C"/><use transform="matrix(0.05,0,0,0.05,50.95,0)" xlink:href="#E"/><use transform="matrix(0.05,0,0,0.05,60.95,0)" xlink:href="#B"/><use transform="matrix(0.05,0,0,0.05,66.9,0)" xlink:href="#F"/></g><g id="q"><use transform="matrix(0.05,0,0,0.05,0,0)" xlink:href="#y"/><use transform="matrix(0.05,0,0,0.05,10,0)" xlink:href="#M"/><use transform="matrix(0.05,0,0,0.05,20,0)" xlink:href="#w"/><use transform="matrix(0.05,0,0,0.05,29,0)" xlink:href="#E"/><use transform="matrix(0.05,0,0,0.05,39,0)" xlink:href="#F"/><use transform="matrix(0.05,0,0,0.05,49,0)" xlink:href="#y"/><use transform="matrix(0.05,0,0,0.05,59,0)" xlink:href="#F"/><use transform="matrix(0.05,0,0,0.05,69,0)" xlink:href="#D"/><use transform="matrix(0.05,0,0,0.05,81,0)" xlink:href="#u"/><use transform="matrix(0.05,0,0,0.05,91,0)" xlink:href="#z"/><use transform="matrix(0.05,0,0,0.05,100,0)" xlink:href="#z"/><use transform="matrix(0.05,0,0,0.05,109,0)" xlink:href="#C"/><use transform="matrix(0.05,0,0,0.05,121.95,0)" xlink:href="#E"/><use transform="matrix(0.05,0,0,0.05,131.95,0)" xlink:href="#B"/><use transform="matrix(0.05,0,0,0.05,137.89999999999998,0)" xlink:href="#F"/><use transform="matrix(0.05,0,0,0.05,147.89999999999998,0)" xlink:href="#N"/></g><path d="M232-93c-1 65-40 97-104 97C67 4 28-28 28-90v-158h33c8 89-33 224 67 224 102 0 64-133 71-224h33v155" id="aq"/><g id="r"><use transform="matrix(0.05,0,0,0.05,0,0)" xlink:href="#aq"/><use transform="matrix(0.05,0,0,0.05,12.950000000000001,0)" xlink:href="#z"/><use transform="matrix(0.05,0,0,0.05,21.950000000000003,0)" xlink:href="#y"/><use transform="matrix(0.05,0,0,0.05,31.950000000000003,0)" xlink:href="#B"/></g><g id="s"><use transform="matrix(0.05,0,0,0.05,0,0)" xlink:href="#I"/><use transform="matrix(0.05,0,0,0.05,5,0)" xlink:href="#J"/><use transform="matrix(0.05,0,0,0.05,8.95,0)" xlink:href="#M"/><use transform="matrix(0.05,0,0,0.05,18.95,0)" xlink:href="#F"/><use transform="matrix(0.05,0,0,0.05,28.950000000000003,0)" xlink:href="#O"/><use transform="matrix(0.05,0,0,0.05,41.9,0)" xlink:href="#y"/><use transform="matrix(0.05,0,0,0.05,51.900000000000006,0)" xlink:href="#P"/><use transform="matrix(0.05,0,0,0.05,55.85,0)" xlink:href="#y"/><use transform="matrix(0.05,0,0,0.05,65.85,0)" xlink:href="#Q"/><use transform="matrix(0.05,0,0,0.05,75.85,0)" xlink:href="#u"/><use transform="matrix(0.05,0,0,0.05,85.85,0)" xlink:href="#v"/><use transform="matrix(0.05,0,0,0.05,90.85,0)" xlink:href="#y"/><use transform="matrix(0.05,0,0,0.05,100.85,0)" xlink:href="#A"/><use transform="matrix(0.05,0,0,0.05,106.80000000000001,0)" xlink:href="#J"/><use transform="matrix(0.05,0,0,0.05,110.75,0)" xlink:href="#F"/><use transform="matrix(0.05,0,0,0.05,120.75,0)" xlink:href="#N"/></g></defs></g></svg>