<svg xmlns="http://www.w3.org/2000/svg" xmlns:xlink="http://www.w3.org/1999/xlink" xmlns:lucid="lucid" width="1000" height="580.86"><g transform="translate(-360 -420)" lucid:page-tab-id="0_0"><path d="M449.27 440h160v121h-160z" stroke="#000" stroke-width="2" fill="#fff"/><use xlink:href="#a" transform="matrix(1,0,0,1,457.2682926829268,448) translate(47.074999999999996 56.1)"/><path d="M380 640h298.54v120H380z" stroke="#000" stroke-width="2" fill="#fff"/><path d="M380 677.6h298.54M380 718.7h298.54" stroke="#000" stroke-width="2" fill="none"/><use xlink:href="#b" transform="matrix(1,0,0,1,388,648) translate(108.125 14.6)"/><path d="M842.44 640h298.54v120H842.44z" stroke="#000" stroke-width="2" fill="#fff"/><path d="M842.44 699.2h298.54" stroke="#000" stroke-width="2" fill="none"/><use xlink:href="#c" transform="matrix(1,0,0,1,850.439024390244,648) translate(83.07499999999999 14.799999999999999)"/><use xlink:href="#d" transform="matrix(1,0,0,1,850.439024390244,648) translate(104.07499999999999 36.4)"/><use xlink:href="#e" transform="matrix(1,0,0,1,854.439024390244,707.2) translate(0 26.6)"/><use xlink:href="#f" transform="matrix(1,0,0,1,854.439024390244,707.2) translate(15.5 26.6)"/><path d="M660 867.86h298.54v113H660z" stroke="#000" stroke-width="2" fill="#fff"/><path d="M660 905.46h298.54M660 943.06h298.54" stroke="#000" stroke-width="2" fill="none"/><use xlink:href="#g" transform="matrix(1,0,0,1,668,875.8597138901707) translate(57.675 14.6)"/><use xlink:href="#h" transform="matrix(1,0,0,1,672,951.0597138901708) translate(0 14.6)"/><use xlink:href="#i" transform="matrix(1,0,0,1,672,951.0597138901708) translate(15.5 14.6)"/><path d="M1041.46 867.86H1340v113h-298.54z" stroke="#000" stroke-width="2" fill="#fff"/><path d="M1041.46 905.46H1340m-298.54 37.6H1340" stroke="#000" stroke-width="2" fill="none"/><use xlink:href="#j" transform="matrix(1,0,0,1,1049.4634146341464,875.8597138901707) translate(57.875 14.6)"/><use xlink:href="#h" transform="matrix(1,0,0,1,1053.4634146341464,951.0597138901708) translate(0 14.6)"/><use xlink:href="#i" transform="matrix(1,0,0,1,1053.4634146341464,951.0597138901708) translate(15.5 14.6)"/><path d="M809.27 865.86v-51.93H991.7V779.5" stroke="#000" stroke-width="2" fill="none"/><path d="M810.27 866.86h-2v-1.03h2z"/><path d="M991.7 764.24l4.64 14.26h-9.27z" stroke="#000" stroke-width="2"/><path d="M1190.73 865.86v-51.93H991.7V779.5" stroke="#000" stroke-width="2" fill="none"/><path d="M1191.73 866.86h-2v-1.03h2z"/><path d="M991.7 764.24l4.64 14.26h-9.27z" stroke="#000" stroke-width="2"/><path d="M710.3 700H839.6" stroke="#000" stroke-width="2" fill="none"/><path d="M680.95 700l14.85-14.85L710.95 700l-15.15 14.85z" stroke="#000" stroke-width="2" fill="#fff"/><path d="M822.26 710.18l17.2-10.18-17.2-10.18M529.27 563v74.18" stroke="#000" stroke-width="2" fill="none"/><path d="M530.27 563.03h-2V562h2z"/><path d="M519.1 619.82l10.17 17.22 10.18-17.22" stroke="#000" stroke-width="2" fill="none"/><defs><path d="M67-125c0 53 21 87 73 88 37 1 54-22 65-47l45 17C233-25 199 4 140 4 58 4 20-42 15-125 8-235 124-281 211-232c18 10 29 29 36 50l-46 12c-8-25-30-41-62-41-52 0-71 34-72 86" id="k"/><path d="M25 0v-261h50V0H25" id="l"/><path d="M25-224v-37h50v37H25zM25 0v-190h50V0H25" id="m"/><path d="M185-48c-13 30-37 53-82 52C43 2 14-33 14-96s30-98 90-98c62 0 83 45 84 108H66c0 31 8 55 39 56 18 0 30-7 34-22zm-45-69c5-46-57-63-70-21-2 6-4 13-4 21h74" id="n"/><path d="M135-194c87-1 58 113 63 194h-50c-7-57 23-157-34-157-59 0-34 97-39 157H25l-1-190h47c2 12-1 28 3 38 12-26 28-41 61-42" id="o"/><path d="M115-3C79 11 28 4 28-45v-112H4v-33h27l15-45h31v45h36v33H77v99c-1 23 16 31 38 25v30" id="p"/><g id="a"><use transform="matrix(0.05,0,0,0.05,0,0)" xlink:href="#k"/><use transform="matrix(0.05,0,0,0.05,12.950000000000001,0)" xlink:href="#l"/><use transform="matrix(0.05,0,0,0.05,17.950000000000003,0)" xlink:href="#m"/><use transform="matrix(0.05,0,0,0.05,22.950000000000003,0)" xlink:href="#n"/><use transform="matrix(0.05,0,0,0.05,32.95,0)" xlink:href="#o"/><use transform="matrix(0.05,0,0,0.05,43.900000000000006,0)" xlink:href="#p"/></g><path d="M110-194c64 0 96 36 96 99 0 64-35 99-97 99-61 0-95-36-95-99 0-62 34-99 96-99zm-1 164c35 0 45-28 45-65 0-40-10-65-43-65-34 0-45 26-45 65 0 36 10 65 43 65" id="q"/><path d="M144 0l-44-69L55 0H2l70-98-66-92h53l41 62 40-62h54l-67 91 71 99h-54" id="r"/><g id="b"><use transform="matrix(0.05,0,0,0.05,0,0)" xlink:href="#k"/><use transform="matrix(0.05,0,0,0.05,12.950000000000001,0)" xlink:href="#q"/><use transform="matrix(0.05,0,0,0.05,23.900000000000002,0)" xlink:href="#o"/><use transform="matrix(0.05,0,0,0.05,34.85,0)" xlink:href="#p"/><use transform="matrix(0.05,0,0,0.05,40.800000000000004,0)" xlink:href="#n"/><use transform="matrix(0.05,0,0,0.05,50.800000000000004,0)" xlink:href="#r"/><use transform="matrix(0.05,0,0,0.05,60.800000000000004,0)" xlink:href="#p"/></g><path d="M15-91v-56l181-69v40L49-119l147 57v40" id="s"/><path d="M135-150c-39-12-60 13-60 57V0H25l-1-190h47c2 13-1 29 3 40 6-28 27-53 61-41v41" id="t"/><path d="M121-226c-27-7-43 5-38 36h38v33H83V0H34v-157H6v-33h28c-9-59 32-81 87-68v32" id="u"/><path d="M133-34C117-15 103 5 69 4 32 3 11-16 11-54c-1-60 55-63 116-61 1-26-3-47-28-47-18 1-26 9-28 27l-52-2c7-38 36-58 82-57s74 22 75 68l1 82c-1 14 12 18 25 15v27c-30 8-71 5-69-32zm-48 3c29 0 43-24 42-57-32 0-66-3-65 30 0 17 8 27 23 27" id="v"/><path d="M190-63c-7 42-38 67-86 67-59 0-84-38-90-98-12-110 154-137 174-36l-49 2c-2-19-15-32-35-32-30 0-35 28-38 64-6 74 65 87 74 30" id="w"/><path d="M15-22v-40l146-57-146-57v-40l181 69v56" id="x"/><g id="c"><use transform="matrix(0.05,0,0,0.05,0,0)" xlink:href="#s"/><use transform="matrix(0.05,0,0,0.05,10.5,0)" xlink:href="#s"/><use transform="matrix(0.05,0,0,0.05,21,0)" xlink:href="#m"/><use transform="matrix(0.05,0,0,0.05,26,0)" xlink:href="#o"/><use transform="matrix(0.05,0,0,0.05,36.95,0)" xlink:href="#p"/><use transform="matrix(0.05,0,0,0.05,42.900000000000006,0)" xlink:href="#n"/><use transform="matrix(0.05,0,0,0.05,52.900000000000006,0)" xlink:href="#t"/><use transform="matrix(0.05,0,0,0.05,59.900000000000006,0)" xlink:href="#u"/><use transform="matrix(0.05,0,0,0.05,65.85000000000001,0)" xlink:href="#v"/><use transform="matrix(0.05,0,0,0.05,75.85000000000001,0)" xlink:href="#w"/><use transform="matrix(0.05,0,0,0.05,85.85000000000001,0)" xlink:href="#n"/><use transform="matrix(0.05,0,0,0.05,95.85000000000001,0)" xlink:href="#x"/><use transform="matrix(0.05,0,0,0.05,106.35000000000001,0)" xlink:href="#x"/></g><path d="M24 0v-248h52V0H24" id="y"/><g id="d"><use transform="matrix(0.05,0,0,0.05,0,0)" xlink:href="#y"/><use transform="matrix(0.05,0,0,0.05,5,0)" xlink:href="#o"/><use transform="matrix(0.05,0,0,0.05,15.950000000000001,0)" xlink:href="#p"/><use transform="matrix(0.05,0,0,0.05,21.900000000000002,0)" xlink:href="#n"/><use transform="matrix(0.05,0,0,0.05,31.900000000000002,0)" xlink:href="#t"/><use transform="matrix(0.05,0,0,0.05,38.900000000000006,0)" xlink:href="#u"/><use transform="matrix(0.05,0,0,0.05,44.85000000000001,0)" xlink:href="#v"/><use transform="matrix(0.05,0,0,0.05,54.85,0)" xlink:href="#w"/><use transform="matrix(0.05,0,0,0.05,64.85000000000001,0)" xlink:href="#n"/></g><path d="M118-107v75H92v-75H18v-26h74v-75h26v75h74v26h-74" id="z"/><use transform="matrix(0.05,0,0,0.05,0,0)" xlink:href="#z" id="e"/><path d="M141-36C126-15 110 5 73 4 37 3 15-17 15-53c-1-64 63-63 125-63 3-35-9-54-41-54-24 1-41 7-42 31l-33-3c5-37 33-52 76-52 45 0 72 20 72 64v82c-1 20 7 32 28 27v20c-31 9-61-2-59-35zM48-53c0 20 12 33 32 33 41-3 63-29 60-74-43 2-92-5-92 41" id="A"/><path d="M24 0v-261h32V0H24" id="B"/><path d="M177-190C167-65 218 103 67 71c-23-6-38-20-44-43l32-5c15 47 100 32 89-28v-30C133-14 115 1 83 1 29 1 15-40 15-95c0-56 16-97 71-98 29-1 48 16 59 35 1-10 0-23 2-32h30zM94-22c36 0 50-32 50-73 0-42-14-75-50-75-39 0-46 34-46 75s6 73 46 73" id="C"/><path d="M100-194c62-1 85 37 85 99 1 63-27 99-86 99S16-35 15-95c0-66 28-99 85-99zM99-20c44 1 53-31 53-75 0-43-8-75-51-75s-53 32-53 75 10 74 51 75" id="D"/><path d="M114-163C36-179 61-72 57 0H25l-1-190h30c1 12-1 29 2 39 6-27 23-49 58-41v29" id="E"/><path d="M24-231v-30h32v30H24zM24 0v-190h32V0H24" id="F"/><path d="M59-47c-2 24 18 29 38 22v24C64 9 27 4 27-40v-127H5v-23h24l9-43h21v43h35v23H59v120" id="G"/><path d="M106-169C34-169 62-67 57 0H25v-261h32l-1 103c12-21 28-36 61-36 89 0 53 116 60 194h-32v-121c2-32-8-49-39-48" id="H"/><path d="M210-169c-67 3-38 105-44 169h-31v-121c0-29-5-50-35-48C34-165 62-65 56 0H25l-1-190h30c1 10-1 24 2 32 10-44 99-50 107 0 11-21 27-35 58-36 85-2 47 119 55 194h-31v-121c0-29-5-49-35-48" id="I"/><path d="M87 75C49 33 22-17 22-94c0-76 28-126 65-167h31c-38 41-64 92-64 168S80 34 118 75H87" id="J"/><path d="M33-261c38 41 65 92 65 168S71 34 33 75H2C39 34 66-17 66-93S39-220 2-261h31" id="K"/><g id="f"><use transform="matrix(0.05,0,0,0.05,0,0)" xlink:href="#A"/><use transform="matrix(0.05,0,0,0.05,10,0)" xlink:href="#B"/><use transform="matrix(0.05,0,0,0.05,13.949999999999998,0)" xlink:href="#C"/><use transform="matrix(0.05,0,0,0.05,23.95,0)" xlink:href="#D"/><use transform="matrix(0.05,0,0,0.05,33.95,0)" xlink:href="#E"/><use transform="matrix(0.05,0,0,0.05,39.900000000000006,0)" xlink:href="#F"/><use transform="matrix(0.05,0,0,0.05,43.85000000000001,0)" xlink:href="#G"/><use transform="matrix(0.05,0,0,0.05,48.85000000000001,0)" xlink:href="#H"/><use transform="matrix(0.05,0,0,0.05,58.85,0)" xlink:href="#I"/><use transform="matrix(0.05,0,0,0.05,73.80000000000001,0)" xlink:href="#J"/><use transform="matrix(0.05,0,0,0.05,79.75000000000001,0)" xlink:href="#K"/></g><path d="M220-157c-53 9-28 100-34 157h-49v-107c1-27-5-49-29-50C55-147 81-57 75 0H25l-1-190h47c2 12-1 28 3 38 10-53 101-56 108 0 13-22 24-43 59-42 82 1 51 116 57 194h-49v-107c-1-25-5-48-29-50" id="L"/><path d="M135-194c53 0 70 44 70 98 0 56-19 98-73 100-31 1-45-17-59-34 3 33 2 69 2 105H25l-1-265h48c2 10 0 23 3 31 11-24 29-35 60-35zM114-30c33 0 39-31 40-66 0-38-9-64-40-64-56 0-55 130 0 130" id="M"/><path d="M140-251c80 0 125 45 125 126S219 4 139 4C58 4 15-44 15-125s44-126 125-126zm-1 214c52 0 73-35 73-88 0-50-21-86-72-86-52 0-73 35-73 86s22 88 72 88" id="N"/><g id="g"><use transform="matrix(0.05,0,0,0.05,0,0)" xlink:href="#y"/><use transform="matrix(0.05,0,0,0.05,5,0)" xlink:href="#L"/><use transform="matrix(0.05,0,0,0.05,21,0)" xlink:href="#M"/><use transform="matrix(0.05,0,0,0.05,31.950000000000003,0)" xlink:href="#l"/><use transform="matrix(0.05,0,0,0.05,36.95,0)" xlink:href="#n"/><use transform="matrix(0.05,0,0,0.05,46.95,0)" xlink:href="#L"/><use transform="matrix(0.05,0,0,0.05,62.95,0)" xlink:href="#n"/><use transform="matrix(0.05,0,0,0.05,72.95,0)" xlink:href="#o"/><use transform="matrix(0.05,0,0,0.05,83.9,0)" xlink:href="#p"/><use transform="matrix(0.05,0,0,0.05,89.85000000000001,0)" xlink:href="#v"/><use transform="matrix(0.05,0,0,0.05,99.85000000000001,0)" xlink:href="#p"/><use transform="matrix(0.05,0,0,0.05,105.80000000000001,0)" xlink:href="#m"/><use transform="matrix(0.05,0,0,0.05,110.80000000000001,0)" xlink:href="#q"/><use transform="matrix(0.05,0,0,0.05,121.75,0)" xlink:href="#o"/><use transform="matrix(0.05,0,0,0.05,132.70000000000002,0)" xlink:href="#N"/><use transform="matrix(0.05,0,0,0.05,146.70000000000002,0)" xlink:href="#o"/><use transform="matrix(0.05,0,0,0.05,157.65,0)" xlink:href="#n"/></g><use transform="matrix(0.05,0,0,0.05,0,0)" xlink:href="#z" id="h"/><g id="i"><use transform="matrix(0.05,0,0,0.05,0,0)" xlink:href="#A"/><use transform="matrix(0.05,0,0,0.05,10,0)" xlink:href="#B"/><use transform="matrix(0.05,0,0,0.05,13.949999999999998,0)" xlink:href="#C"/><use transform="matrix(0.05,0,0,0.05,23.95,0)" xlink:href="#D"/><use transform="matrix(0.05,0,0,0.05,33.95,0)" xlink:href="#E"/><use transform="matrix(0.05,0,0,0.05,39.900000000000006,0)" xlink:href="#F"/><use transform="matrix(0.05,0,0,0.05,43.85000000000001,0)" xlink:href="#G"/><use transform="matrix(0.05,0,0,0.05,48.85000000000001,0)" xlink:href="#H"/><use transform="matrix(0.05,0,0,0.05,58.85,0)" xlink:href="#I"/><use transform="matrix(0.05,0,0,0.05,73.80000000000001,0)" xlink:href="#J"/><use transform="matrix(0.05,0,0,0.05,79.75000000000001,0)" xlink:href="#K"/></g><path d="M136-208V0H84v-208H4v-40h212v40h-80" id="O"/><path d="M231 0h-52l-39-155L100 0H48L-1-190h46L77-45c9-52 24-97 36-145h53l37 145 32-145h46" id="P"/><g id="j"><use transform="matrix(0.05,0,0,0.05,0,0)" xlink:href="#y"/><use transform="matrix(0.05,0,0,0.05,5,0)" xlink:href="#L"/><use transform="matrix(0.05,0,0,0.05,21,0)" xlink:href="#M"/><use transform="matrix(0.05,0,0,0.05,31.950000000000003,0)" xlink:href="#l"/><use transform="matrix(0.05,0,0,0.05,36.95,0)" xlink:href="#n"/><use transform="matrix(0.05,0,0,0.05,46.95,0)" xlink:href="#L"/><use transform="matrix(0.05,0,0,0.05,62.95,0)" xlink:href="#n"/><use transform="matrix(0.05,0,0,0.05,72.95,0)" xlink:href="#o"/><use transform="matrix(0.05,0,0,0.05,83.9,0)" xlink:href="#p"/><use transform="matrix(0.05,0,0,0.05,89.85000000000001,0)" xlink:href="#v"/><use transform="matrix(0.05,0,0,0.05,99.85000000000001,0)" xlink:href="#p"/><use transform="matrix(0.05,0,0,0.05,105.80000000000001,0)" xlink:href="#m"/><use transform="matrix(0.05,0,0,0.05,110.80000000000001,0)" xlink:href="#q"/><use transform="matrix(0.05,0,0,0.05,121.75,0)" xlink:href="#o"/><use transform="matrix(0.05,0,0,0.05,132.70000000000002,0)" xlink:href="#O"/><use transform="matrix(0.05,0,0,0.05,142.3,0)" xlink:href="#P"/><use transform="matrix(0.05,0,0,0.05,156.3,0)" xlink:href="#q"/></g></defs></g></svg>