<svg xmlns="http://www.w3.org/2000/svg" xmlns:xlink="http://www.w3.org/1999/xlink" xmlns:lucid="lucid" width="1429" height="794"><g transform="translate(-53 -351)" lucid:page-tab-id="0_0"><path d="M319.27 400h160v121h-160z" stroke="#000" stroke-width="2" fill="#fff"/><use xlink:href="#a" transform="matrix(1,0,0,1,327.2682926829268,408) translate(52.025 56.1)"/><path d="M120 597h558.54v228H120z" stroke="#000" stroke-width="2" fill="#fff"/><path d="M120 634.6h558.54M120 718.9h558.54" stroke="#000" stroke-width="2" fill="none"/><use xlink:href="#b" transform="matrix(1,0,0,1,128,605) translate(147.25000000000003 14.6)"/><use xlink:href="#c" transform="matrix(1,0,0,1,132,642.6) translate(0 16.5)"/><use xlink:href="#d" transform="matrix(1,0,0,1,132,642.6) translate(254.44999999999996 16.5)"/><use xlink:href="#e" transform="matrix(1,0,0,1,132,642.6) translate(0 38.1)"/><use xlink:href="#f" transform="matrix(1,0,0,1,132,642.6) translate(198.24999999999997 38.1)"/><use xlink:href="#g" transform="matrix(1,0,0,1,132,642.6) translate(306.5 38.1)"/><use xlink:href="#h" transform="matrix(1,0,0,1,132,642.6) translate(0 59.7)"/><use xlink:href="#i" transform="matrix(1,0,0,1,132,642.6) translate(321.2999999999999 59.7)"/><use xlink:href="#j" transform="matrix(1,0,0,1,132,726.9) translate(0 16.19999999999999)"/><use xlink:href="#k" transform="matrix(1,0,0,1,132,726.9) translate(15.5 16.19999999999999)"/><use xlink:href="#j" transform="matrix(1,0,0,1,132,726.9) translate(0 37.79999999999999)"/><use xlink:href="#l" transform="matrix(1,0,0,1,132,726.9) translate(15.5 37.79999999999999)"/><use xlink:href="#m" transform="matrix(1,0,0,1,132,726.9) translate(216.3 37.79999999999999)"/><use xlink:href="#j" transform="matrix(1,0,0,1,132,726.9) translate(0 59.39999999999999)"/><use xlink:href="#n" transform="matrix(1,0,0,1,132,726.9) translate(15.5 59.39999999999999)"/><use xlink:href="#o" transform="matrix(1,0,0,1,132,726.9) translate(209.3 59.39999999999999)"/><use xlink:href="#p" transform="matrix(1,0,0,1,132,726.9) translate(272.15000000000003 59.39999999999999)"/><use xlink:href="#j" transform="matrix(1,0,0,1,132,726.9) translate(0 81)"/><use xlink:href="#q" transform="matrix(1,0,0,1,132,726.9) translate(15.5 81)"/><use xlink:href="#r" transform="matrix(1,0,0,1,132,726.9) translate(225.19999999999996 81)"/><path d="M840 618h437.56v164H840z" stroke="#000" stroke-width="2" fill="#fff"/><path d="M840 677.2h437.56" stroke="#000" stroke-width="2" fill="none"/><use xlink:href="#s" transform="matrix(1,0,0,1,848,626) translate(152.575 14.799999999999999)"/><use xlink:href="#t" transform="matrix(1,0,0,1,848,626) translate(132.625 36.4)"/><use xlink:href="#j" transform="matrix(1,0,0,1,852,685.2) translate(0 26.5)"/><use xlink:href="#l" transform="matrix(1,0,0,1,852,685.2) translate(15.5 26.5)"/><use xlink:href="#m" transform="matrix(1,0,0,1,852,685.2) translate(216.3 26.5)"/><use xlink:href="#j" transform="matrix(1,0,0,1,852,685.2) translate(0 48.1)"/><use xlink:href="#n" transform="matrix(1,0,0,1,852,685.2) translate(15.5 48.1)"/><use xlink:href="#o" transform="matrix(1,0,0,1,852,685.2) translate(209.3 48.1)"/><use xlink:href="#p" transform="matrix(1,0,0,1,852,685.2) translate(272.15000000000003 48.1)"/><use xlink:href="#j" transform="matrix(1,0,0,1,852,685.2) translate(0 69.7)"/><use xlink:href="#q" transform="matrix(1,0,0,1,852,685.2) translate(15.5 69.7)"/><use xlink:href="#r" transform="matrix(1,0,0,1,852,685.2) translate(225.19999999999996 69.7)"/><path d="M740 960h298.54v113H740z" stroke="#000" stroke-width="2" fill="#fff"/><path d="M740 997.6h298.54M740 1035.2h298.54" stroke="#000" stroke-width="2" fill="none"/><g><use xlink:href="#u" transform="matrix(1,0,0,1,748,968) translate(33.22500000000002 14.6)"/></g><path d="M1120 960h298.54v113H1120z" stroke="#000" stroke-width="2" fill="#fff"/><path d="M1120 997.6h298.54M1120 1035.2h298.54" stroke="#000" stroke-width="2" fill="none"/><g><use xlink:href="#v" transform="matrix(1,0,0,1,1128,968) translate(31.725000000000023 14.6)"/></g><g><use xlink:href="#w" transform="matrix(1,0,0,1,1132,1043.2) translate(0 14.6)"/><use xlink:href="#x" transform="matrix(1,0,0,1,1132,1043.2) translate(15.5 14.6)"/></g><path d="M889.27 958v-87h169.5v-69.5" stroke="#000" stroke-width="2" fill="none"/><path d="M890.27 959h-2v-1.03h2z"/><path d="M1058.78 786.24l4.64 14.26h-9.27z" stroke="#000" stroke-width="2"/><path d="M1269.27 958v-87h-210.5v-69.5" stroke="#000" stroke-width="2" fill="none"/><path d="M1270.27 959h-2v-1.03h2z"/><path d="M1058.78 786.24l4.64 14.26h-9.27z" stroke="#000" stroke-width="2"/><path d="M710.3 711h48.97v-11h77.9" stroke="#000" stroke-width="2" fill="none"/><path d="M680.95 711l14.85-14.85L710.95 711l-15.15 14.85z" stroke="#000" stroke-width="2" fill="#fff"/><path d="M819.82 710.18L837.04 700l-17.22-10.18M399.27 523v71.18" stroke="#000" stroke-width="2" fill="none"/><path d="M400.27 523.03h-2V522h2z"/><path d="M389.1 576.82l10.17 17.22 10.18-17.22M399.27 827v43h659.5v-68.5" stroke="#000" stroke-width="2" fill="none"/><path d="M400.27 827.03h-2V826h2z"/><path d="M1058.78 786.24l4.64 14.26h-9.27z" stroke="#000" stroke-width="2"/><defs><path d="M238-95c0 69-44 99-111 99C63 4 22-25 22-93v-155h51v151c-1 38 19 59 55 60 90 1 49-130 58-211h52v153" id="y"/><path d="M137-138c1-29-70-34-71-4 15 46 118 7 119 86 1 83-164 76-172 9l43-7c4 19 20 25 44 25 33 8 57-30 24-41C81-84 22-81 20-136c-2-80 154-74 161-7" id="z"/><path d="M185-48c-13 30-37 53-82 52C43 2 14-33 14-96s30-98 90-98c62 0 83 45 84 108H66c0 31 8 55 39 56 18 0 30-7 34-22zm-45-69c5-46-57-63-70-21-2 6-4 13-4 21h74" id="A"/><path d="M135-150c-39-12-60 13-60 57V0H25l-1-190h47c2 13-1 29 3 40 6-28 27-53 61-41v41" id="B"/><g id="a"><use transform="matrix(0.05,0,0,0.05,0,0)" xlink:href="#y"/><use transform="matrix(0.05,0,0,0.05,12.950000000000001,0)" xlink:href="#z"/><use transform="matrix(0.05,0,0,0.05,22.950000000000003,0)" xlink:href="#A"/><use transform="matrix(0.05,0,0,0.05,32.95,0)" xlink:href="#B"/></g><path d="M24-248c120-7 223 5 221 122C244-46 201 0 124 0H24v-248zM76-40c74 7 117-18 117-86 0-67-45-88-117-82v168" id="C"/><path d="M25 0v-261h50V0H25" id="D"/><path d="M195-6C206 82 75 100 31 46c-4-6-6-13-8-21l49-6c3 16 16 24 34 25 40 0 42-37 40-79-11 22-30 35-61 35-53 0-70-43-70-97 0-56 18-96 73-97 30 0 46 14 59 34l2-30h47zm-90-29c32 0 41-27 41-63 0-35-9-62-40-62-32 0-39 29-40 63 0 36 9 62 39 62" id="E"/><path d="M133-34C117-15 103 5 69 4 32 3 11-16 11-54c-1-60 55-63 116-61 1-26-3-47-28-47-18 1-26 9-28 27l-52-2c7-38 36-58 82-57s74 22 75 68l1 82c-1 14 12 18 25 15v27c-30 8-71 5-69-32zm-48 3c29 0 43-24 42-57-32 0-66-3-65 30 0 17 8 27 23 27" id="F"/><path d="M115-3C79 11 28 4 28-45v-112H4v-33h27l15-45h31v45h36v33H77v99c-1 23 16 31 38 25v30" id="G"/><path d="M25-224v-37h50v37H25zM25 0v-190h50V0H25" id="H"/><path d="M135-194c87-1 58 113 63 194h-50c-7-57 23-157-34-157-59 0-34 97-39 157H25l-1-190h47c2 12-1 28 3 38 12-26 28-41 61-42" id="I"/><path d="M24-248c93 1 206-16 204 79-1 75-69 88-152 82V0H24v-248zm52 121c47 0 100 7 100-41 0-47-54-39-100-39v80" id="J"/><path d="M231 0h-52l-39-155L100 0H48L-1-190h46L77-45c9-52 24-97 36-145h53l37 145 32-145h46" id="K"/><path d="M110-194c64 0 96 36 96 99 0 64-35 99-97 99-61 0-95-36-95-99 0-62 34-99 96-99zm-1 164c35 0 45-28 45-65 0-40-10-65-43-65-34 0-45 26-45 65 0 36 10 65 43 65" id="L"/><path d="M88-194c31-1 46 15 58 34l-1-101h50l1 261h-48c-2-10 0-23-3-31C134-8 116 4 84 4 32 4 16-41 15-95c0-56 19-97 73-99zm17 164c33 0 40-30 41-66 1-37-9-64-41-64s-38 30-39 65c0 43 13 65 39 65" id="M"/><path d="M24 0v-248h195v40H76v63h132v40H76v65h150V0H24" id="N"/><path d="M190-63c-7 42-38 67-86 67-59 0-84-38-90-98-12-110 154-137 174-36l-49 2c-2-19-15-32-35-32-30 0-35 28-38 64-6 74 65 87 74 30" id="O"/><g id="b"><use transform="matrix(0.05,0,0,0.05,0,0)" xlink:href="#C"/><use transform="matrix(0.05,0,0,0.05,12.950000000000001,0)" xlink:href="#A"/><use transform="matrix(0.05,0,0,0.05,22.950000000000003,0)" xlink:href="#D"/><use transform="matrix(0.05,0,0,0.05,27.950000000000003,0)" xlink:href="#A"/><use transform="matrix(0.05,0,0,0.05,37.95,0)" xlink:href="#E"/><use transform="matrix(0.05,0,0,0.05,48.900000000000006,0)" xlink:href="#F"/><use transform="matrix(0.05,0,0,0.05,58.900000000000006,0)" xlink:href="#G"/><use transform="matrix(0.05,0,0,0.05,64.85000000000001,0)" xlink:href="#H"/><use transform="matrix(0.05,0,0,0.05,69.85000000000001,0)" xlink:href="#I"/><use transform="matrix(0.05,0,0,0.05,80.80000000000001,0)" xlink:href="#E"/><use transform="matrix(0.05,0,0,0.05,91.75000000000001,0)" xlink:href="#J"/><use transform="matrix(0.05,0,0,0.05,103.75,0)" xlink:href="#F"/><use transform="matrix(0.05,0,0,0.05,113.75,0)" xlink:href="#z"/><use transform="matrix(0.05,0,0,0.05,123.75,0)" xlink:href="#z"/><use transform="matrix(0.05,0,0,0.05,133.75,0)" xlink:href="#K"/><use transform="matrix(0.05,0,0,0.05,147.75,0)" xlink:href="#L"/><use transform="matrix(0.05,0,0,0.05,158.7,0)" xlink:href="#B"/><use transform="matrix(0.05,0,0,0.05,165.7,0)" xlink:href="#M"/><use transform="matrix(0.05,0,0,0.05,176.64999999999998,0)" xlink:href="#N"/><use transform="matrix(0.05,0,0,0.05,188.64999999999998,0)" xlink:href="#I"/><use transform="matrix(0.05,0,0,0.05,199.59999999999997,0)" xlink:href="#O"/><use transform="matrix(0.05,0,0,0.05,209.59999999999997,0)" xlink:href="#L"/><use transform="matrix(0.05,0,0,0.05,220.54999999999995,0)" xlink:href="#M"/><use transform="matrix(0.05,0,0,0.05,231.49999999999991,0)" xlink:href="#A"/><use transform="matrix(0.05,0,0,0.05,241.49999999999991,0)" xlink:href="#B"/></g><path d="M135-194c53 0 70 44 70 98 0 56-19 98-73 100-31 1-45-17-59-34 3 33 2 69 2 105H25l-1-265h48c2 10 0 23 3 31 11-24 29-35 60-35zM114-30c33 0 39-31 40-66 0-38-9-64-40-64-56 0-55 130 0 130" id="P"/><path d="M76-208v77h127v40H76V0H24v-248h183v40H76" id="Q"/><g id="c"><use transform="matrix(0.05,0,0,0.05,0,0)" xlink:href="#P"/><use transform="matrix(0.05,0,0,0.05,10.950000000000001,0)" xlink:href="#F"/><use transform="matrix(0.05,0,0,0.05,20.950000000000003,0)" xlink:href="#z"/><use transform="matrix(0.05,0,0,0.05,30.950000000000003,0)" xlink:href="#z"/><use transform="matrix(0.05,0,0,0.05,40.95,0)" xlink:href="#K"/><use transform="matrix(0.05,0,0,0.05,54.95,0)" xlink:href="#L"/><use transform="matrix(0.05,0,0,0.05,65.9,0)" xlink:href="#B"/><use transform="matrix(0.05,0,0,0.05,72.9,0)" xlink:href="#M"/><use transform="matrix(0.05,0,0,0.05,83.85000000000001,0)" xlink:href="#N"/><use transform="matrix(0.05,0,0,0.05,95.85000000000001,0)" xlink:href="#I"/><use transform="matrix(0.05,0,0,0.05,106.80000000000001,0)" xlink:href="#O"/><use transform="matrix(0.05,0,0,0.05,116.80000000000001,0)" xlink:href="#L"/><use transform="matrix(0.05,0,0,0.05,127.75,0)" xlink:href="#M"/><use transform="matrix(0.05,0,0,0.05,138.70000000000002,0)" xlink:href="#A"/><use transform="matrix(0.05,0,0,0.05,148.70000000000002,0)" xlink:href="#B"/><use transform="matrix(0.05,0,0,0.05,155.70000000000002,0)" xlink:href="#Q"/><use transform="matrix(0.05,0,0,0.05,166.65,0)" xlink:href="#L"/><use transform="matrix(0.05,0,0,0.05,177.6,0)" xlink:href="#B"/><use transform="matrix(0.05,0,0,0.05,184.6,0)" xlink:href="#N"/><use transform="matrix(0.05,0,0,0.05,196.6,0)" xlink:href="#I"/><use transform="matrix(0.05,0,0,0.05,207.54999999999995,0)" xlink:href="#O"/><use transform="matrix(0.05,0,0,0.05,217.54999999999995,0)" xlink:href="#L"/><use transform="matrix(0.05,0,0,0.05,228.49999999999997,0)" xlink:href="#M"/><use transform="matrix(0.05,0,0,0.05,239.44999999999996,0)" xlink:href="#A"/></g><g id="d"><use transform="matrix(0.05,0,0,0.05,0,0)" xlink:href="#J"/><use transform="matrix(0.05,0,0,0.05,12,0)" xlink:href="#F"/><use transform="matrix(0.05,0,0,0.05,22,0)" xlink:href="#z"/><use transform="matrix(0.05,0,0,0.05,32,0)" xlink:href="#z"/><use transform="matrix(0.05,0,0,0.05,42,0)" xlink:href="#K"/><use transform="matrix(0.05,0,0,0.05,56,0)" xlink:href="#L"/><use transform="matrix(0.05,0,0,0.05,66.95,0)" xlink:href="#B"/><use transform="matrix(0.05,0,0,0.05,73.95,0)" xlink:href="#M"/><use transform="matrix(0.05,0,0,0.05,84.9,0)" xlink:href="#N"/><use transform="matrix(0.05,0,0,0.05,96.9,0)" xlink:href="#I"/><use transform="matrix(0.05,0,0,0.05,107.85000000000001,0)" xlink:href="#O"/><use transform="matrix(0.05,0,0,0.05,117.85000000000001,0)" xlink:href="#L"/><use transform="matrix(0.05,0,0,0.05,128.8,0)" xlink:href="#M"/><use transform="matrix(0.05,0,0,0.05,139.75,0)" xlink:href="#A"/><use transform="matrix(0.05,0,0,0.05,149.75,0)" xlink:href="#B"/></g><path d="M136-208V0H84v-208H4v-40h212v40h-80" id="R"/><g id="e"><use transform="matrix(0.05,0,0,0.05,0,0)" xlink:href="#H"/><use transform="matrix(0.05,0,0,0.05,5,0)" xlink:href="#M"/><use transform="matrix(0.05,0,0,0.05,15.950000000000001,0)" xlink:href="#R"/><use transform="matrix(0.05,0,0,0.05,25.550000000000004,0)" xlink:href="#L"/><use transform="matrix(0.05,0,0,0.05,36.50000000000001,0)" xlink:href="#J"/><use transform="matrix(0.05,0,0,0.05,48.50000000000001,0)" xlink:href="#F"/><use transform="matrix(0.05,0,0,0.05,58.5,0)" xlink:href="#z"/><use transform="matrix(0.05,0,0,0.05,68.5,0)" xlink:href="#z"/><use transform="matrix(0.05,0,0,0.05,78.5,0)" xlink:href="#K"/><use transform="matrix(0.05,0,0,0.05,92.5,0)" xlink:href="#L"/><use transform="matrix(0.05,0,0,0.05,103.45,0)" xlink:href="#B"/><use transform="matrix(0.05,0,0,0.05,110.45,0)" xlink:href="#M"/><use transform="matrix(0.05,0,0,0.05,121.4,0)" xlink:href="#N"/><use transform="matrix(0.05,0,0,0.05,133.4,0)" xlink:href="#I"/><use transform="matrix(0.05,0,0,0.05,144.35,0)" xlink:href="#O"/><use transform="matrix(0.05,0,0,0.05,154.35,0)" xlink:href="#L"/><use transform="matrix(0.05,0,0,0.05,165.29999999999998,0)" xlink:href="#M"/><use transform="matrix(0.05,0,0,0.05,176.24999999999997,0)" xlink:href="#A"/><use transform="matrix(0.05,0,0,0.05,186.24999999999997,0)" xlink:href="#B"/></g><path d="M230 0l2-204L168 0h-37L68-204 70 0H24v-248h70l56 185 57-185h69V0h-46" id="S"/><path d="M15-91v-56l181-69v40L49-119l147 57v40" id="T"/><path d="M169-182c-1-43-94-46-97-3 18 66 151 10 154 114 3 95-165 93-204 36-6-8-10-19-12-30l50-8c3 46 112 56 116 5-17-69-150-10-154-114-4-87 153-88 188-35 5 8 8 18 10 28" id="U"/><path d="M76-54c-1 42 2 86-19 110H24C36 42 46 24 48 0H25v-54h51" id="V"/><g id="f"><use transform="matrix(0.05,0,0,0.05,0,0)" xlink:href="#S"/><use transform="matrix(0.05,0,0,0.05,14.950000000000001,0)" xlink:href="#F"/><use transform="matrix(0.05,0,0,0.05,24.950000000000003,0)" xlink:href="#P"/><use transform="matrix(0.05,0,0,0.05,35.900000000000006,0)" xlink:href="#T"/><use transform="matrix(0.05,0,0,0.05,46.400000000000006,0)" xlink:href="#U"/><use transform="matrix(0.05,0,0,0.05,58.400000000000006,0)" xlink:href="#G"/><use transform="matrix(0.05,0,0,0.05,64.35000000000001,0)" xlink:href="#B"/><use transform="matrix(0.05,0,0,0.05,71.35000000000001,0)" xlink:href="#H"/><use transform="matrix(0.05,0,0,0.05,76.35000000000001,0)" xlink:href="#I"/><use transform="matrix(0.05,0,0,0.05,87.30000000000001,0)" xlink:href="#E"/><use transform="matrix(0.05,0,0,0.05,98.25000000000001,0)" xlink:href="#V"/></g><path d="M15-22v-40l146-57-146-57v-40l181 69v56" id="W"/><g id="g"><use transform="matrix(0.05,0,0,0.05,0,0)" xlink:href="#J"/><use transform="matrix(0.05,0,0,0.05,12,0)" xlink:href="#F"/><use transform="matrix(0.05,0,0,0.05,22,0)" xlink:href="#z"/><use transform="matrix(0.05,0,0,0.05,32,0)" xlink:href="#z"/><use transform="matrix(0.05,0,0,0.05,42,0)" xlink:href="#K"/><use transform="matrix(0.05,0,0,0.05,56,0)" xlink:href="#L"/><use transform="matrix(0.05,0,0,0.05,66.95,0)" xlink:href="#B"/><use transform="matrix(0.05,0,0,0.05,73.95,0)" xlink:href="#M"/><use transform="matrix(0.05,0,0,0.05,84.9,0)" xlink:href="#N"/><use transform="matrix(0.05,0,0,0.05,96.9,0)" xlink:href="#I"/><use transform="matrix(0.05,0,0,0.05,107.85000000000001,0)" xlink:href="#O"/><use transform="matrix(0.05,0,0,0.05,117.85000000000001,0)" xlink:href="#L"/><use transform="matrix(0.05,0,0,0.05,128.8,0)" xlink:href="#M"/><use transform="matrix(0.05,0,0,0.05,139.75,0)" xlink:href="#A"/><use transform="matrix(0.05,0,0,0.05,149.75,0)" xlink:href="#B"/><use transform="matrix(0.05,0,0,0.05,156.75,0)" xlink:href="#W"/></g><path d="M121-226c-27-7-43 5-38 36h38v33H83V0H34v-157H6v-33h28c-9-59 32-81 87-68v32" id="X"/><path d="M85 4C-2 5 27-109 22-190h50c7 57-23 150 33 157 60-5 35-97 40-157h50l1 190h-47c-2-12 1-28-3-38-12 25-28 42-61 42" id="Y"/><path d="M114-157C55-157 80-60 75 0H25v-261h50l-1 109c12-26 28-41 61-42 86-1 58 113 63 194h-50c-7-57 23-157-34-157" id="Z"/><g id="h"><use transform="matrix(0.05,0,0,0.05,0,0)" xlink:href="#M"/><use transform="matrix(0.05,0,0,0.05,10.950000000000001,0)" xlink:href="#A"/><use transform="matrix(0.05,0,0,0.05,20.950000000000003,0)" xlink:href="#X"/><use transform="matrix(0.05,0,0,0.05,26.900000000000002,0)" xlink:href="#F"/><use transform="matrix(0.05,0,0,0.05,36.900000000000006,0)" xlink:href="#Y"/><use transform="matrix(0.05,0,0,0.05,47.85000000000001,0)" xlink:href="#D"/><use transform="matrix(0.05,0,0,0.05,52.85,0)" xlink:href="#G"/><use transform="matrix(0.05,0,0,0.05,58.80000000000001,0)" xlink:href="#J"/><use transform="matrix(0.05,0,0,0.05,70.80000000000001,0)" xlink:href="#F"/><use transform="matrix(0.05,0,0,0.05,80.80000000000001,0)" xlink:href="#z"/><use transform="matrix(0.05,0,0,0.05,90.80000000000001,0)" xlink:href="#z"/><use transform="matrix(0.05,0,0,0.05,100.80000000000001,0)" xlink:href="#K"/><use transform="matrix(0.05,0,0,0.05,114.80000000000001,0)" xlink:href="#L"/><use transform="matrix(0.05,0,0,0.05,125.75,0)" xlink:href="#B"/><use transform="matrix(0.05,0,0,0.05,132.75,0)" xlink:href="#M"/><use transform="matrix(0.05,0,0,0.05,143.7,0)" xlink:href="#N"/><use transform="matrix(0.05,0,0,0.05,155.7,0)" xlink:href="#I"/><use transform="matrix(0.05,0,0,0.05,166.64999999999998,0)" xlink:href="#O"/><use transform="matrix(0.05,0,0,0.05,176.64999999999998,0)" xlink:href="#L"/><use transform="matrix(0.05,0,0,0.05,187.59999999999997,0)" xlink:href="#M"/><use transform="matrix(0.05,0,0,0.05,198.54999999999995,0)" xlink:href="#A"/><use transform="matrix(0.05,0,0,0.05,208.54999999999995,0)" xlink:href="#B"/><use transform="matrix(0.05,0,0,0.05,215.54999999999995,0)" xlink:href="#Q"/><use transform="matrix(0.05,0,0,0.05,226.49999999999991,0)" xlink:href="#L"/><use transform="matrix(0.05,0,0,0.05,237.44999999999993,0)" xlink:href="#B"/><use transform="matrix(0.05,0,0,0.05,244.44999999999993,0)" xlink:href="#S"/><use transform="matrix(0.05,0,0,0.05,259.3999999999999,0)" xlink:href="#F"/><use transform="matrix(0.05,0,0,0.05,269.3999999999999,0)" xlink:href="#G"/><use transform="matrix(0.05,0,0,0.05,275.3499999999999,0)" xlink:href="#O"/><use transform="matrix(0.05,0,0,0.05,285.3499999999999,0)" xlink:href="#Z"/><use transform="matrix(0.05,0,0,0.05,296.2999999999999,0)" xlink:href="#A"/><use transform="matrix(0.05,0,0,0.05,306.2999999999999,0)" xlink:href="#z"/></g><g id="i"><use transform="matrix(0.05,0,0,0.05,0,0)" xlink:href="#J"/><use transform="matrix(0.05,0,0,0.05,12,0)" xlink:href="#F"/><use transform="matrix(0.05,0,0,0.05,22,0)" xlink:href="#z"/><use transform="matrix(0.05,0,0,0.05,32,0)" xlink:href="#z"/><use transform="matrix(0.05,0,0,0.05,42,0)" xlink:href="#K"/><use transform="matrix(0.05,0,0,0.05,56,0)" xlink:href="#L"/><use transform="matrix(0.05,0,0,0.05,66.95,0)" xlink:href="#B"/><use transform="matrix(0.05,0,0,0.05,73.95,0)" xlink:href="#M"/><use transform="matrix(0.05,0,0,0.05,84.9,0)" xlink:href="#N"/><use transform="matrix(0.05,0,0,0.05,96.9,0)" xlink:href="#I"/><use transform="matrix(0.05,0,0,0.05,107.85000000000001,0)" xlink:href="#O"/><use transform="matrix(0.05,0,0,0.05,117.85000000000001,0)" xlink:href="#L"/><use transform="matrix(0.05,0,0,0.05,128.8,0)" xlink:href="#M"/><use transform="matrix(0.05,0,0,0.05,139.75,0)" xlink:href="#A"/><use transform="matrix(0.05,0,0,0.05,149.75,0)" xlink:href="#B"/></g><path d="M118-107v75H92v-75H18v-26h74v-75h26v75h74v26h-74" id="aa"/><use transform="matrix(0.05,0,0,0.05,0,0)" xlink:href="#aa" id="j"/><path d="M135-143c-3-34-86-38-87 0 15 53 115 12 119 90S17 21 10-45l28-5c4 36 97 45 98 0-10-56-113-15-118-90-4-57 82-63 122-42 12 7 21 19 24 35" id="ab"/><path d="M100-194c63 0 86 42 84 106H49c0 40 14 67 53 68 26 1 43-12 49-29l28 8c-11 28-37 45-77 45C44 4 14-33 15-96c1-61 26-98 85-98zm52 81c6-60-76-77-97-28-3 7-6 17-6 28h103" id="ac"/><path d="M59-47c-2 24 18 29 38 22v24C64 9 27 4 27-40v-127H5v-23h24l9-43h21v43h35v23H59v120" id="ad"/><path d="M30-248c118-7 216 8 213 122C240-48 200 0 122 0H30v-248zM63-27c89 8 146-16 146-99s-60-101-146-95v194" id="ae"/><path d="M101-234c-31-9-42 10-38 44h38v23H63V0H32v-167H5v-23h27c-7-52 17-82 69-68v24" id="af"/><path d="M141-36C126-15 110 5 73 4 37 3 15-17 15-53c-1-64 63-63 125-63 3-35-9-54-41-54-24 1-41 7-42 31l-33-3c5-37 33-52 76-52 45 0 72 20 72 64v82c-1 20 7 32 28 27v20c-31 9-61-2-59-35zM48-53c0 20 12 33 32 33 41-3 63-29 60-74-43 2-92-5-92 41" id="ag"/><path d="M84 4C-5 8 30-112 23-190h32v120c0 31 7 50 39 49 72-2 45-101 50-169h31l1 190h-30c-1-10 1-25-2-33-11 22-28 36-60 37" id="ah"/><path d="M24 0v-261h32V0H24" id="ai"/><path d="M30-248c87 1 191-15 191 75 0 78-77 80-158 76V0H30v-248zm33 125c57 0 124 11 124-50 0-59-68-47-124-48v98" id="aj"/><path d="M206 0h-36l-40-164L89 0H53L-1-190h32L70-26l43-164h34l41 164 42-164h31" id="ak"/><path d="M100-194c62-1 85 37 85 99 1 63-27 99-86 99S16-35 15-95c0-66 28-99 85-99zM99-20c44 1 53-31 53-75 0-43-8-75-51-75s-53 32-53 75 10 74 51 75" id="al"/><path d="M114-163C36-179 61-72 57 0H25l-1-190h30c1 12-1 29 2 39 6-27 23-49 58-41v29" id="am"/><path d="M85-194c31 0 48 13 60 33l-1-100h32l1 261h-30c-2-10 0-23-3-31C134-8 116 4 85 4 32 4 16-35 15-94c0-66 23-100 70-100zm9 24c-40 0-46 34-46 75 0 40 6 74 45 74 42 0 51-32 51-76 0-42-9-74-50-73" id="an"/><path d="M30 0v-248h187v28H63v79h144v27H63v87h162V0H30" id="ao"/><path d="M117-194c89-4 53 116 60 194h-32v-121c0-31-8-49-39-48C34-167 62-67 57 0H25l-1-190h30c1 10-1 24 2 32 11-22 29-35 61-36" id="ap"/><path d="M96-169c-40 0-48 33-48 73s9 75 48 75c24 0 41-14 43-38l32 2c-6 37-31 61-74 61-59 0-76-41-82-99-10-93 101-131 147-64 4 7 5 14 7 22l-32 3c-4-21-16-35-41-35" id="aq"/><path d="M63-220v92h138v28H63V0H30v-248h175v28H63" id="ar"/><path d="M240 0l2-218c-23 76-54 145-80 218h-23L58-218 59 0H30v-248h44l77 211c21-75 51-140 76-211h43V0h-30" id="as"/><path d="M106-169C34-169 62-67 57 0H25v-261h32l-1 103c12-21 28-36 61-36 89 0 53 116 60 194h-32v-121c2-32-8-49-39-48" id="at"/><path d="M87 75C49 33 22-17 22-94c0-76 28-126 65-167h31c-38 41-64 92-64 168S80 34 118 75H87" id="au"/><path d="M33-261c38 41 65 92 65 168S71 34 33 75H2C39 34 66-17 66-93S39-220 2-261h31" id="av"/><g id="k"><use transform="matrix(0.05,0,0,0.05,0,0)" xlink:href="#ab"/><use transform="matrix(0.05,0,0,0.05,9,0)" xlink:href="#ac"/><use transform="matrix(0.05,0,0,0.05,19,0)" xlink:href="#ad"/><use transform="matrix(0.05,0,0,0.05,24,0)" xlink:href="#ae"/><use transform="matrix(0.05,0,0,0.05,36.95,0)" xlink:href="#ac"/><use transform="matrix(0.05,0,0,0.05,46.95,0)" xlink:href="#af"/><use transform="matrix(0.05,0,0,0.05,51.95,0)" xlink:href="#ag"/><use transform="matrix(0.05,0,0,0.05,61.95,0)" xlink:href="#ah"/><use transform="matrix(0.05,0,0,0.05,71.95,0)" xlink:href="#ai"/><use transform="matrix(0.05,0,0,0.05,75.9,0)" xlink:href="#ad"/><use transform="matrix(0.05,0,0,0.05,80.9,0)" xlink:href="#aj"/><use transform="matrix(0.05,0,0,0.05,92.9,0)" xlink:href="#ag"/><use transform="matrix(0.05,0,0,0.05,102.9,0)" xlink:href="#ab"/><use transform="matrix(0.05,0,0,0.05,111.9,0)" xlink:href="#ab"/><use transform="matrix(0.05,0,0,0.05,120.9,0)" xlink:href="#ak"/><use transform="matrix(0.05,0,0,0.05,133.85,0)" xlink:href="#al"/><use transform="matrix(0.05,0,0,0.05,143.85,0)" xlink:href="#am"/><use transform="matrix(0.05,0,0,0.05,149.79999999999998,0)" xlink:href="#an"/><use transform="matrix(0.05,0,0,0.05,159.79999999999998,0)" xlink:href="#ao"/><use transform="matrix(0.05,0,0,0.05,171.79999999999998,0)" xlink:href="#ap"/><use transform="matrix(0.05,0,0,0.05,181.79999999999998,0)" xlink:href="#aq"/><use transform="matrix(0.05,0,0,0.05,190.79999999999998,0)" xlink:href="#al"/><use transform="matrix(0.05,0,0,0.05,200.79999999999998,0)" xlink:href="#an"/><use transform="matrix(0.05,0,0,0.05,210.79999999999995,0)" xlink:href="#ac"/><use transform="matrix(0.05,0,0,0.05,220.79999999999995,0)" xlink:href="#am"/><use transform="matrix(0.05,0,0,0.05,226.74999999999997,0)" xlink:href="#ar"/><use transform="matrix(0.05,0,0,0.05,237.69999999999996,0)" xlink:href="#al"/><use transform="matrix(0.05,0,0,0.05,247.69999999999996,0)" xlink:href="#am"/><use transform="matrix(0.05,0,0,0.05,253.64999999999998,0)" xlink:href="#as"/><use transform="matrix(0.05,0,0,0.05,268.59999999999997,0)" xlink:href="#ag"/><use transform="matrix(0.05,0,0,0.05,278.59999999999997,0)" xlink:href="#ad"/><use transform="matrix(0.05,0,0,0.05,283.59999999999997,0)" xlink:href="#aq"/><use transform="matrix(0.05,0,0,0.05,292.59999999999997,0)" xlink:href="#at"/><use transform="matrix(0.05,0,0,0.05,302.59999999999997,0)" xlink:href="#ac"/><use transform="matrix(0.05,0,0,0.05,312.59999999999997,0)" xlink:href="#ab"/><use transform="matrix(0.05,0,0,0.05,321.59999999999997,0)" xlink:href="#au"/><use transform="matrix(0.05,0,0,0.05,327.54999999999995,0)" xlink:href="#aj"/><use transform="matrix(0.05,0,0,0.05,339.54999999999995,0)" xlink:href="#ag"/><use transform="matrix(0.05,0,0,0.05,349.54999999999995,0)" xlink:href="#ab"/><use transform="matrix(0.05,0,0,0.05,358.54999999999995,0)" xlink:href="#ab"/><use transform="matrix(0.05,0,0,0.05,367.54999999999995,0)" xlink:href="#ak"/><use transform="matrix(0.05,0,0,0.05,380.49999999999994,0)" xlink:href="#al"/><use transform="matrix(0.05,0,0,0.05,390.49999999999994,0)" xlink:href="#am"/><use transform="matrix(0.05,0,0,0.05,396.44999999999993,0)" xlink:href="#an"/><use transform="matrix(0.05,0,0,0.05,406.44999999999993,0)" xlink:href="#ao"/><use transform="matrix(0.05,0,0,0.05,418.44999999999993,0)" xlink:href="#ap"/><use transform="matrix(0.05,0,0,0.05,428.44999999999993,0)" xlink:href="#aq"/><use transform="matrix(0.05,0,0,0.05,437.44999999999993,0)" xlink:href="#al"/><use transform="matrix(0.05,0,0,0.05,447.44999999999993,0)" xlink:href="#an"/><use transform="matrix(0.05,0,0,0.05,457.44999999999993,0)" xlink:href="#ac"/><use transform="matrix(0.05,0,0,0.05,467.44999999999993,0)" xlink:href="#am"/><use transform="matrix(0.05,0,0,0.05,473.3999999999999,0)" xlink:href="#av"/></g><path d="M212-179c-10-28-35-45-73-45-59 0-87 40-87 99 0 60 29 101 89 101 43 0 62-24 78-52l27 14C228-24 195 4 139 4 59 4 22-46 18-125c-6-104 99-153 187-111 19 9 31 26 39 46" id="aw"/><path d="M185-189c-5-48-123-54-124 2 14 75 158 14 163 119 3 78-121 87-175 55-17-10-28-26-33-46l33-7c5 56 141 63 141-1 0-78-155-14-162-118-5-82 145-84 179-34 5 7 8 16 11 25" id="ax"/><path d="M145-31C134-9 116 4 85 4 32 4 16-35 15-94c0-59 17-99 70-100 32-1 48 14 60 33 0-11-1-24 2-32h30l-1 268h-32zM93-21c41 0 51-33 51-76s-8-73-50-73c-40 0-46 35-46 75s5 74 45 74" id="ay"/><path d="M33-154v-36h34v36H33zM33 0v-36h34V0H33" id="az"/><g id="l"><use transform="matrix(0.05,0,0,0.05,0,0)" xlink:href="#ac"/><use transform="matrix(0.05,0,0,0.05,10,0)" xlink:href="#ap"/><use transform="matrix(0.05,0,0,0.05,20,0)" xlink:href="#aq"/><use transform="matrix(0.05,0,0,0.05,29,0)" xlink:href="#al"/><use transform="matrix(0.05,0,0,0.05,39,0)" xlink:href="#an"/><use transform="matrix(0.05,0,0,0.05,49,0)" xlink:href="#ac"/><use transform="matrix(0.05,0,0,0.05,59,0)" xlink:href="#au"/><use transform="matrix(0.05,0,0,0.05,64.95,0)" xlink:href="#aw"/><use transform="matrix(0.05,0,0,0.05,77.9,0)" xlink:href="#at"/><use transform="matrix(0.05,0,0,0.05,87.9,0)" xlink:href="#ag"/><use transform="matrix(0.05,0,0,0.05,97.9,0)" xlink:href="#am"/><use transform="matrix(0.05,0,0,0.05,103.85000000000001,0)" xlink:href="#ax"/><use transform="matrix(0.05,0,0,0.05,115.85000000000001,0)" xlink:href="#ac"/><use transform="matrix(0.05,0,0,0.05,125.85000000000001,0)" xlink:href="#ay"/><use transform="matrix(0.05,0,0,0.05,135.85000000000002,0)" xlink:href="#ah"/><use transform="matrix(0.05,0,0,0.05,145.85000000000002,0)" xlink:href="#ac"/><use transform="matrix(0.05,0,0,0.05,155.85000000000002,0)" xlink:href="#ap"/><use transform="matrix(0.05,0,0,0.05,165.85000000000002,0)" xlink:href="#aq"/><use transform="matrix(0.05,0,0,0.05,174.85000000000002,0)" xlink:href="#ac"/><use transform="matrix(0.05,0,0,0.05,184.85000000000002,0)" xlink:href="#av"/><use transform="matrix(0.05,0,0,0.05,190.8,0)" xlink:href="#az"/></g><path d="M24-231v-30h32v30H24zM24 0v-190h32V0H24" id="aA"/><path d="M177-190C167-65 218 103 67 71c-23-6-38-20-44-43l32-5c15 47 100 32 89-28v-30C133-14 115 1 83 1 29 1 15-40 15-95c0-56 16-97 71-98 29-1 48 16 59 35 1-10 0-23 2-32h30zM94-22c36 0 50-32 50-73 0-42-14-75-50-75-39 0-46 34-46 75s6 73 46 73" id="aB"/><g id="m"><use transform="matrix(0.05,0,0,0.05,0,0)" xlink:href="#ax"/><use transform="matrix(0.05,0,0,0.05,12,0)" xlink:href="#ad"/><use transform="matrix(0.05,0,0,0.05,17,0)" xlink:href="#am"/><use transform="matrix(0.05,0,0,0.05,22.95,0)" xlink:href="#aA"/><use transform="matrix(0.05,0,0,0.05,26.899999999999995,0)" xlink:href="#ap"/><use transform="matrix(0.05,0,0,0.05,36.9,0)" xlink:href="#aB"/></g><path d="M210-169c-67 3-38 105-44 169h-31v-121c0-29-5-50-35-48C34-165 62-65 56 0H25l-1-190h30c1 10-1 24 2 32 10-44 99-50 107 0 11-21 27-35 58-36 85-2 47 119 55 194h-31v-121c0-29-5-49-35-48" id="aC"/><path d="M68-38c1 34 0 65-14 84H32c9-13 17-26 17-46H33v-38h35" id="aD"/><g id="n"><use transform="matrix(0.05,0,0,0.05,0,0)" xlink:href="#aC"/><use transform="matrix(0.05,0,0,0.05,14.950000000000001,0)" xlink:href="#ag"/><use transform="matrix(0.05,0,0,0.05,24.950000000000003,0)" xlink:href="#ad"/><use transform="matrix(0.05,0,0,0.05,29.950000000000003,0)" xlink:href="#aq"/><use transform="matrix(0.05,0,0,0.05,38.95,0)" xlink:href="#at"/><use transform="matrix(0.05,0,0,0.05,48.95,0)" xlink:href="#ac"/><use transform="matrix(0.05,0,0,0.05,58.95,0)" xlink:href="#ab"/><use transform="matrix(0.05,0,0,0.05,67.95,0)" xlink:href="#au"/><use transform="matrix(0.05,0,0,0.05,73.9,0)" xlink:href="#aw"/><use transform="matrix(0.05,0,0,0.05,86.85000000000001,0)" xlink:href="#at"/><use transform="matrix(0.05,0,0,0.05,96.85000000000001,0)" xlink:href="#ag"/><use transform="matrix(0.05,0,0,0.05,106.85000000000001,0)" xlink:href="#am"/><use transform="matrix(0.05,0,0,0.05,112.80000000000001,0)" xlink:href="#ax"/><use transform="matrix(0.05,0,0,0.05,124.80000000000001,0)" xlink:href="#ac"/><use transform="matrix(0.05,0,0,0.05,134.8,0)" xlink:href="#ay"/><use transform="matrix(0.05,0,0,0.05,144.8,0)" xlink:href="#ah"/><use transform="matrix(0.05,0,0,0.05,154.8,0)" xlink:href="#ac"/><use transform="matrix(0.05,0,0,0.05,164.8,0)" xlink:href="#aq"/><use transform="matrix(0.05,0,0,0.05,173.8,0)" xlink:href="#ac"/><use transform="matrix(0.05,0,0,0.05,183.8,0)" xlink:href="#aD"/></g><g id="o"><use transform="matrix(0.05,0,0,0.05,0,0)" xlink:href="#ax"/><use transform="matrix(0.05,0,0,0.05,12,0)" xlink:href="#ad"/><use transform="matrix(0.05,0,0,0.05,17,0)" xlink:href="#am"/><use transform="matrix(0.05,0,0,0.05,22.95,0)" xlink:href="#aA"/><use transform="matrix(0.05,0,0,0.05,26.899999999999995,0)" xlink:href="#ap"/><use transform="matrix(0.05,0,0,0.05,36.9,0)" xlink:href="#aB"/><use transform="matrix(0.05,0,0,0.05,46.9,0)" xlink:href="#av"/><use transform="matrix(0.05,0,0,0.05,52.85,0)" xlink:href="#az"/></g><path d="M115-194c53 0 69 39 70 98 0 66-23 100-70 100C84 3 66-7 56-30L54 0H23l1-261h32v101c10-23 28-34 59-34zm-8 174c40 0 45-34 45-75 0-40-5-75-45-74-42 0-51 32-51 76 0 43 10 73 51 73" id="aE"/><g id="p"><use transform="matrix(0.05,0,0,0.05,0,0)" xlink:href="#aE"/><use transform="matrix(0.05,0,0,0.05,10,0)" xlink:href="#al"/><use transform="matrix(0.05,0,0,0.05,20,0)" xlink:href="#al"/><use transform="matrix(0.05,0,0,0.05,30,0)" xlink:href="#ai"/><use transform="matrix(0.05,0,0,0.05,33.95,0)" xlink:href="#ac"/><use transform="matrix(0.05,0,0,0.05,43.95,0)" xlink:href="#ag"/><use transform="matrix(0.05,0,0,0.05,53.95,0)" xlink:href="#ap"/></g><path d="M115-194c55 1 70 41 70 98S169 2 115 4C84 4 66-9 55-30l1 105H24l-1-265h31l2 30c10-21 28-34 59-34zm-8 174c40 0 45-34 45-75s-6-73-45-74c-42 0-51 32-51 76 0 43 10 73 51 73" id="aF"/><g id="q"><use transform="matrix(0.05,0,0,0.05,0,0)" xlink:href="#ah"/><use transform="matrix(0.05,0,0,0.05,10,0)" xlink:href="#aF"/><use transform="matrix(0.05,0,0,0.05,20,0)" xlink:href="#aB"/><use transform="matrix(0.05,0,0,0.05,30,0)" xlink:href="#am"/><use transform="matrix(0.05,0,0,0.05,35.95,0)" xlink:href="#ag"/><use transform="matrix(0.05,0,0,0.05,45.95,0)" xlink:href="#an"/><use transform="matrix(0.05,0,0,0.05,55.95,0)" xlink:href="#ac"/><use transform="matrix(0.05,0,0,0.05,65.95,0)" xlink:href="#ao"/><use transform="matrix(0.05,0,0,0.05,77.95,0)" xlink:href="#ap"/><use transform="matrix(0.05,0,0,0.05,87.95,0)" xlink:href="#aq"/><use transform="matrix(0.05,0,0,0.05,96.95,0)" xlink:href="#al"/><use transform="matrix(0.05,0,0,0.05,106.95,0)" xlink:href="#an"/><use transform="matrix(0.05,0,0,0.05,116.95,0)" xlink:href="#aA"/><use transform="matrix(0.05,0,0,0.05,120.9,0)" xlink:href="#ap"/><use transform="matrix(0.05,0,0,0.05,130.9,0)" xlink:href="#aB"/><use transform="matrix(0.05,0,0,0.05,140.9,0)" xlink:href="#au"/><use transform="matrix(0.05,0,0,0.05,146.85,0)" xlink:href="#ax"/><use transform="matrix(0.05,0,0,0.05,158.85,0)" xlink:href="#ad"/><use transform="matrix(0.05,0,0,0.05,163.85,0)" xlink:href="#am"/><use transform="matrix(0.05,0,0,0.05,169.79999999999998,0)" xlink:href="#aA"/><use transform="matrix(0.05,0,0,0.05,173.74999999999997,0)" xlink:href="#ap"/><use transform="matrix(0.05,0,0,0.05,183.74999999999997,0)" xlink:href="#aB"/><use transform="matrix(0.05,0,0,0.05,193.74999999999997,0)" xlink:href="#av"/><use transform="matrix(0.05,0,0,0.05,199.69999999999996,0)" xlink:href="#az"/></g><g id="r"><use transform="matrix(0.05,0,0,0.05,0,0)" xlink:href="#aE"/><use transform="matrix(0.05,0,0,0.05,10,0)" xlink:href="#al"/><use transform="matrix(0.05,0,0,0.05,20,0)" xlink:href="#al"/><use transform="matrix(0.05,0,0,0.05,30,0)" xlink:href="#ai"/><use transform="matrix(0.05,0,0,0.05,33.95,0)" xlink:href="#ac"/><use transform="matrix(0.05,0,0,0.05,43.95,0)" xlink:href="#ag"/><use transform="matrix(0.05,0,0,0.05,53.95,0)" xlink:href="#ap"/></g><g id="s"><use transform="matrix(0.05,0,0,0.05,0,0)" xlink:href="#T"/><use transform="matrix(0.05,0,0,0.05,10.5,0)" xlink:href="#T"/><use transform="matrix(0.05,0,0,0.05,21,0)" xlink:href="#H"/><use transform="matrix(0.05,0,0,0.05,26,0)" xlink:href="#I"/><use transform="matrix(0.05,0,0,0.05,36.95,0)" xlink:href="#G"/><use transform="matrix(0.05,0,0,0.05,42.900000000000006,0)" xlink:href="#A"/><use transform="matrix(0.05,0,0,0.05,52.900000000000006,0)" xlink:href="#B"/><use transform="matrix(0.05,0,0,0.05,59.900000000000006,0)" xlink:href="#X"/><use transform="matrix(0.05,0,0,0.05,65.85000000000001,0)" xlink:href="#F"/><use transform="matrix(0.05,0,0,0.05,75.85000000000001,0)" xlink:href="#O"/><use transform="matrix(0.05,0,0,0.05,85.85000000000001,0)" xlink:href="#A"/><use transform="matrix(0.05,0,0,0.05,95.85000000000001,0)" xlink:href="#W"/><use transform="matrix(0.05,0,0,0.05,106.35000000000001,0)" xlink:href="#W"/></g><g id="t"><use transform="matrix(0.05,0,0,0.05,0,0)" xlink:href="#J"/><use transform="matrix(0.05,0,0,0.05,12,0)" xlink:href="#F"/><use transform="matrix(0.05,0,0,0.05,22,0)" xlink:href="#z"/><use transform="matrix(0.05,0,0,0.05,32,0)" xlink:href="#z"/><use transform="matrix(0.05,0,0,0.05,42,0)" xlink:href="#K"/><use transform="matrix(0.05,0,0,0.05,56,0)" xlink:href="#L"/><use transform="matrix(0.05,0,0,0.05,66.95,0)" xlink:href="#B"/><use transform="matrix(0.05,0,0,0.05,73.95,0)" xlink:href="#M"/><use transform="matrix(0.05,0,0,0.05,84.9,0)" xlink:href="#N"/><use transform="matrix(0.05,0,0,0.05,96.9,0)" xlink:href="#I"/><use transform="matrix(0.05,0,0,0.05,107.85000000000001,0)" xlink:href="#O"/><use transform="matrix(0.05,0,0,0.05,117.85000000000001,0)" xlink:href="#L"/><use transform="matrix(0.05,0,0,0.05,128.8,0)" xlink:href="#M"/><use transform="matrix(0.05,0,0,0.05,139.75,0)" xlink:href="#A"/><use transform="matrix(0.05,0,0,0.05,149.75,0)" xlink:href="#B"/></g><path d="M182-130c37 4 62 22 62 59C244 23 116-4 24 0v-248c84 5 203-23 205 63 0 31-19 50-47 55zM76-148c40-3 101 13 101-30 0-44-60-28-101-31v61zm0 110c48-3 116 14 116-37 0-48-69-32-116-35v72" id="aG"/><path d="M67-125c0 53 21 87 73 88 37 1 54-22 65-47l45 17C233-25 199 4 140 4 58 4 20-42 15-125 8-235 124-281 211-232c18 10 29 29 36 50l-46 12c-8-25-30-41-62-41-52 0-71 34-72 86" id="aH"/><path d="M123 10C108 53 80 86 19 72V37c35 8 53-11 59-39L3-190h52l48 148c12-52 28-100 44-148h51" id="aI"/><g id="u"><use transform="matrix(0.05,0,0,0.05,0,0)" xlink:href="#aG"/><use transform="matrix(0.05,0,0,0.05,12.950000000000001,0)" xlink:href="#aH"/><use transform="matrix(0.05,0,0,0.05,25.900000000000002,0)" xlink:href="#B"/><use transform="matrix(0.05,0,0,0.05,32.900000000000006,0)" xlink:href="#aI"/><use transform="matrix(0.05,0,0,0.05,42.900000000000006,0)" xlink:href="#P"/><use transform="matrix(0.05,0,0,0.05,53.85,0)" xlink:href="#G"/><use transform="matrix(0.05,0,0,0.05,59.80000000000001,0)" xlink:href="#J"/><use transform="matrix(0.05,0,0,0.05,71.80000000000001,0)" xlink:href="#F"/><use transform="matrix(0.05,0,0,0.05,81.80000000000001,0)" xlink:href="#z"/><use transform="matrix(0.05,0,0,0.05,91.80000000000001,0)" xlink:href="#z"/><use transform="matrix(0.05,0,0,0.05,101.80000000000001,0)" xlink:href="#K"/><use transform="matrix(0.05,0,0,0.05,115.80000000000001,0)" xlink:href="#L"/><use transform="matrix(0.05,0,0,0.05,126.75,0)" xlink:href="#B"/><use transform="matrix(0.05,0,0,0.05,133.75,0)" xlink:href="#M"/><use transform="matrix(0.05,0,0,0.05,144.7,0)" xlink:href="#N"/><use transform="matrix(0.05,0,0,0.05,156.7,0)" xlink:href="#I"/><use transform="matrix(0.05,0,0,0.05,167.64999999999998,0)" xlink:href="#O"/><use transform="matrix(0.05,0,0,0.05,177.64999999999998,0)" xlink:href="#L"/><use transform="matrix(0.05,0,0,0.05,188.59999999999997,0)" xlink:href="#M"/><use transform="matrix(0.05,0,0,0.05,199.54999999999995,0)" xlink:href="#A"/><use transform="matrix(0.05,0,0,0.05,209.54999999999995,0)" xlink:href="#B"/></g><path d="M199 0l-22-63H83L61 0H9l90-248h61L250 0h-51zm-33-102l-36-108c-10 38-24 72-36 108h72" id="aJ"/><path d="M182-182c0 78-84 86-111 141h115V0H12c-6-101 99-100 120-180 1-22-12-31-33-32-23 0-32 14-35 34l-49-3c5-45 32-70 84-70 51 0 83 22 83 69" id="aK"/><g id="v"><use transform="matrix(0.05,0,0,0.05,0,0)" xlink:href="#aJ"/><use transform="matrix(0.05,0,0,0.05,12.950000000000001,0)" xlink:href="#B"/><use transform="matrix(0.05,0,0,0.05,19.950000000000003,0)" xlink:href="#E"/><use transform="matrix(0.05,0,0,0.05,30.900000000000006,0)" xlink:href="#L"/><use transform="matrix(0.05,0,0,0.05,41.85000000000001,0)" xlink:href="#I"/><use transform="matrix(0.05,0,0,0.05,52.80000000000001,0)" xlink:href="#aK"/><use transform="matrix(0.05,0,0,0.05,62.80000000000001,0)" xlink:href="#J"/><use transform="matrix(0.05,0,0,0.05,74.80000000000001,0)" xlink:href="#F"/><use transform="matrix(0.05,0,0,0.05,84.80000000000001,0)" xlink:href="#z"/><use transform="matrix(0.05,0,0,0.05,94.80000000000001,0)" xlink:href="#z"/><use transform="matrix(0.05,0,0,0.05,104.80000000000001,0)" xlink:href="#K"/><use transform="matrix(0.05,0,0,0.05,118.80000000000001,0)" xlink:href="#L"/><use transform="matrix(0.05,0,0,0.05,129.75,0)" xlink:href="#B"/><use transform="matrix(0.05,0,0,0.05,136.75,0)" xlink:href="#M"/><use transform="matrix(0.05,0,0,0.05,147.7,0)" xlink:href="#N"/><use transform="matrix(0.05,0,0,0.05,159.7,0)" xlink:href="#I"/><use transform="matrix(0.05,0,0,0.05,170.64999999999998,0)" xlink:href="#O"/><use transform="matrix(0.05,0,0,0.05,180.64999999999998,0)" xlink:href="#L"/><use transform="matrix(0.05,0,0,0.05,191.59999999999997,0)" xlink:href="#M"/><use transform="matrix(0.05,0,0,0.05,202.54999999999995,0)" xlink:href="#A"/><use transform="matrix(0.05,0,0,0.05,212.54999999999995,0)" xlink:href="#B"/></g><use transform="matrix(0.05,0,0,0.05,0,0)" xlink:href="#aa" id="w"/><g id="x"><use transform="matrix(0.05,0,0,0.05,0,0)" xlink:href="#ag"/><use transform="matrix(0.05,0,0,0.05,10,0)" xlink:href="#ai"/><use transform="matrix(0.05,0,0,0.05,13.949999999999998,0)" xlink:href="#aB"/><use transform="matrix(0.05,0,0,0.05,23.95,0)" xlink:href="#al"/><use transform="matrix(0.05,0,0,0.05,33.95,0)" xlink:href="#am"/><use transform="matrix(0.05,0,0,0.05,39.900000000000006,0)" xlink:href="#aA"/><use transform="matrix(0.05,0,0,0.05,43.85000000000001,0)" xlink:href="#ad"/><use transform="matrix(0.05,0,0,0.05,48.85000000000001,0)" xlink:href="#at"/><use transform="matrix(0.05,0,0,0.05,58.85,0)" xlink:href="#aC"/><use transform="matrix(0.05,0,0,0.05,73.80000000000001,0)" xlink:href="#au"/><use transform="matrix(0.05,0,0,0.05,79.75000000000001,0)" xlink:href="#av"/></g></defs></g></svg>