<svg xmlns="http://www.w3.org/2000/svg" xmlns:xlink="http://www.w3.org/1999/xlink" xmlns:lucid="lucid" width="1740" height="520"><g transform="translate(-20 0)" lucid:page-tab-id="0_0"><path d="M200 186a6 6 0 0 1 6-6h448a6 6 0 0 1 6 6v108a6 6 0 0 1-6 6H206a6 6 0 0 1-6-6z" fill="#fff"/><path d="M215.04 180.07H225m5 0h9.98m5 0h9.96m5 0h9.97m5 0h9.97m5 0h9.97m5 0h9.96m5 0l9.97-.02m4.98 0h9.98m5 0h9.97m4.98 0h9.98m5 0h9.97m4.98 0h10m4.98 0h9.97m5 0h9.97m5 0l9.96-.02m5 0h9.97m5 0h9.96m5 0h9.98m5 0h9.96m5 0h9.97m5 0h9.97m5 0h9.97m4.98 0l9.98-.02m5 0h9.97m4.98 0h9.98m5 0h9.96m4.98 0h9.98m5 0H644m5 0H654l.94.07.9.22.88.35.8.5.72.6.6.72.5.8.37.88.23.9v5.2m0 5.2v10.36m0 5.2l.02 10.37m0 5.2v10.37m0 5.18l.02 10.38m0 5.2v10.36m.02 5.2v10.36m0 5.2V294l-.07.94-.22.9-.35.88-.5.8-.6.72-.72.6-.8.5-.88.37-.9.23h-5m-5 0H635m-5 0h-9.98m-5 0h-9.96m-5 0h-9.97m-5 0h-9.97m-5 0h-9.97m-5 0h-9.96m-5 0l-9.97.02m-4.98 0h-9.98m-5 0h-9.97m-4.98 0h-9.98m-5 0h-9.97m-4.98 0h-10m-4.98 0h-9.97m-5 0h-9.97m-5 0l-9.96.02m-5 0h-9.97m-5 0h-9.96m-5 0h-9.98m-5 0h-9.96m-5 0h-9.97m-5 0h-9.97m-5 0h-9.97m-4.98 0l-9.98.02m-5 0h-9.97m-4.98 0h-9.98m-5 0h-9.96m-4.98 0h-9.98m-5 0H216m-5 0H206l-.94-.07-.9-.22-.88-.35-.8-.5-.72-.6-.6-.72-.5-.8-.37-.88-.23-.9v-5.2m0-5.2V274.2m0-5.2l-.02-10.37m0-5.2v-10.37m0-5.18l-.02-10.38m0-5.2v-10.36m-.02-5.2V196.4m0-5.2V186l.07-.94.22-.9.35-.88.5-.8.6-.72.72-.6.8-.5.88-.37.9-.23h5" stroke="#3a414a" fill="none"/><use xlink:href="#a" transform="matrix(1,0,0,1,211.99999999999997,192) translate(107.48148148148148 17.77777777777778)"/><use xlink:href="#b" transform="matrix(1,0,0,1,211.99999999999997,192) translate(221 17.77777777777778)"/><path d="M44.44 366a6 6 0 0 1 6-6H194a6 6 0 0 1 6 6v52.62a6 6 0 0 1-6 6H50.44a6 6 0 0 1-6-6z" stroke="#3a414a" stroke-width="2" fill="#fcfcca"/><use xlink:href="#c" transform="matrix(1,0,0,1,56.44444444444443,372) translate(17.91358024691359 25.46527777777778)"/><use xlink:href="#d" transform="matrix(1,0,0,1,56.44444444444443,372) translate(89.39506172839506 25.46527777777778)"/><path d="M44.44 441.38a6 6 0 0 1 6-6H194a6 6 0 0 1 6 6V494a6 6 0 0 1-6 6H50.44a6 6 0 0 1-6-6z" stroke="#3a414a" stroke-width="2" fill="#e3fae3"/><use xlink:href="#e" transform="matrix(1,0,0,1,56.44444444444443,447.38461538461536) translate(11.987654320987659 25.46527777777778)"/><use xlink:href="#f" transform="matrix(1,0,0,1,56.44444444444443,447.38461538461536) translate(70.62962962962963 25.46527777777778)"/><path d="M40 326a6 6 0 0 1 6-6h1688a6 6 0 0 1 6 6v8a6 6 0 0 1-6 6H46a6 6 0 0 1-6-6z" stroke="#3a414a" stroke-width="2" fill="#f2f3f5"/><path d="M220 240h178.82v40H220z" stroke="#3a414a" fill="#f2f3f5"/><use xlink:href="#g" transform="matrix(1,0,0,1,231.99999999999997,252) translate(4.1547309027777715 17.7734375)"/><use xlink:href="#h" transform="matrix(1,0,0,1,231.99999999999997,252) translate(84.16775173611111 17.7734375)"/><use xlink:href="#i" transform="matrix(1,0,0,1,231.99999999999997,252) translate(124.17426215277777 17.7734375)"/><path d="M460 240h178.82v40H460z" stroke="#3a414a" fill="#f2f3f5"/><use xlink:href="#j" transform="matrix(1,0,0,1,472,252) translate(17.490234375000007 17.7734375)"/><use xlink:href="#k" transform="matrix(1,0,0,1,472,252) translate(70.83224826388889 17.7734375)"/><use xlink:href="#i" transform="matrix(1,0,0,1,472,252) translate(110.83875868055554 17.7734375)"/><path d="M101.33 241.06H74.5l-.7.2-.74.3-.66.4-.6.5-.5.6-.42.67-.3.73-.18.76-.07.82v72.53h-2v-72.6l.1-1.07.24-1.06.42-1.02.57-.94.7-.83.85-.72.93-.57 1.02-.42 1.1-.27h27.06zm79.7-.06h-13.02v-2h13.03z" stroke="#3a414a" stroke-width=".05" fill="#3a414a"/><path d="M70.33 319.07h-2v-.52h2z" fill="#3a414a"/><path d="M70.36 319.1H68.3v-.58h2.06zm-2-.53v.48h1.95v-.48z" stroke="#3a414a" stroke-width=".05" fill="#3a414a"/><path d="M196.3 240l-14.27 4.64v-9.28z" fill="#3a414a"/><path d="M199.54 240l-18.5 6v-12zm-16.5 3.26l10.02-3.26-10.03-3.26z" stroke="#3a414a" stroke-width=".05" fill="#3a414a"/><use xlink:href="#l" transform="matrix(1,0,0,1,101.32790798611113,228.88888888888889) translate(0 17.7734375)"/><path d="M803.1 239.08l1.06.26 1.02.42.94.57.83.72.72.83.57.94.42 1.02.27 1.1.07 55.6h-2l-.07-55.36-.18-.72-.3-.73-.4-.67-.52-.6-.6-.5-.66-.4-.73-.3-.76-.2-.82-.06h-29.1v-2h29.18zM661.46 241v-2h31.4v2z" stroke="#3a414a" stroke-width=".05" fill="#3a414a"/><path d="M661.5 241h-1.04v-2h1.03z" fill="#3a414a"/><path d="M661.5 241.03h-1.06v-2.06h1.07zm-1-2v1.94h.96v-1.94z" stroke="#3a414a" stroke-width=".05" fill="#3a414a"/><path d="M808 315.8l-4.64-14.26h9.28z" fill="#3a414a"/><path d="M808 319.04l-6-18.5h12zm-3.26-16.5l3.26 10.03 3.26-10.03z" stroke="#3a414a" stroke-width=".05" fill="#3a414a"/><use xlink:href="#m" transform="matrix(1,0,0,1,692.8510328567163,228.88888888888889) translate(0 17.7734375)"/><path d="M760 366a6 6 0 0 1 6-6h143.56a6 6 0 0 1 6 6v52.62a6 6 0 0 1-6 6H766a6 6 0 0 1-6-6z" stroke="#3a414a" stroke-width="2" fill="#fcfcca"/><use xlink:href="#c" transform="matrix(1,0,0,1,772,372) translate(11.740740740740748 25.46527777777778)"/><use xlink:href="#n" transform="matrix(1,0,0,1,772,372) translate(83.22222222222221 25.46527777777778)"/><path d="M760 441.38a6 6 0 0 1 6-6h143.56a6 6 0 0 1 6 6V494a6 6 0 0 1-6 6H766a6 6 0 0 1-6-6z" stroke="#3a414a" stroke-width="2" fill="#e3fae3"/><use xlink:href="#e" transform="matrix(1,0,0,1,772,447.38461538461536) translate(18.160493827160494 25.46527777777778)"/><use xlink:href="#n" transform="matrix(1,0,0,1,772,447.38461538461536) translate(76.80246913580247 25.46527777777778)"/><path d="M231.63 26a6 6 0 0 1 6-6H381.2a6 6 0 0 1 6 6v52.62a6 6 0 0 1-6 6H237.62a6 6 0 0 1-6-6z" fill="#fcfcca"/><path d="M246.33 20.07h9.63m4.82 0h9.63m4.83-.02h9.63m4.82 0h9.63m4.83 0l9.63-.02m4.82 0h9.63m4.82 0h9.64m4.8 0l9.65-.02m4.82 0h9.64m4.8 0h4.83l.93.07.9.22.88.35.82.5.7.6.62.72.5.8.36.88.22.9v4.47m0 4.47l.02 8.9m0 4.48l.02 8.92m0 4.46l.02 8.93m0 4.45v4.47l-.06.93-.22.92-.36.87-.5.8-.6.72-.72.6-.8.5-.88.36-.9.22h-4.83m-4.8 0h-9.64m-4.8 0l-9.65.02m-4.8 0h-9.64m-4.8 0h-9.65m-4.8.02h-9.64m-4.8 0h-9.64m-4.82 0l-9.63.02m-4.82 0h-9.63m-4.82 0h-9.63m-4.82 0l-4.82.02-.93-.08-.92-.22-.87-.36-.8-.5-.7-.6-.62-.72-.5-.8-.35-.87-.22-.92V75.1m0-4.47l-.02-8.93m0-4.46l-.02-8.93m0-4.45v-8.92m-.02-4.47V26l.07-.94.23-.9.36-.88.48-.8.6-.72.73-.6.8-.5.88-.37.92-.23h4.8" stroke="#3a414a" fill="none"/><use xlink:href="#o" transform="matrix(1,0,0,1,243.6339869281045,32.000000000000014) translate(14.24074074074074 25.46527777777778)"/><use xlink:href="#p" transform="matrix(1,0,0,1,243.6339869281045,32.000000000000014) translate(80.72222222222223 25.46527777777778)"/><path d="M231.63 101.38a6 6 0 0 1 6-6H381.2a6 6 0 0 1 6 6V154a6 6 0 0 1-6 6H237.62a6 6 0 0 1-6-6z" fill="#e3fae3"/><path d="M246.33 95.45h9.63m4.82 0h9.63m4.83 0l9.63-.02m4.82 0h9.63m4.83 0h9.63m4.82 0l9.63-.02m4.82 0h9.64m4.8 0h9.65m4.82 0h9.64m4.8 0l4.83-.02.93.08.9.22.88.36.82.5.7.6.62.72.5.8.36.87.22.92v4.46m0 4.47l.02 8.93m0 4.46l.02 8.93m0 4.45l.02 8.92m0 4.47V154l-.06.94-.22.9-.36.88-.5.8-.6.72-.72.6-.8.5-.88.37-.9.23h-4.83m-4.8 0h-9.64m-4.8 0h-9.65m-4.8.02h-9.64m-4.8 0h-9.65m-4.8 0l-9.64.02m-4.8 0h-9.64m-4.82 0h-9.63m-4.82 0l-9.63.02m-4.82 0h-9.63m-4.82 0h-4.82l-.93-.07-.92-.22-.87-.35-.8-.5-.7-.6-.62-.72-.5-.8-.35-.88-.22-.9v-4.47m0-4.47l-.02-8.9m0-4.48l-.02-8.92m0-4.46v-8.93m-.02-4.45v-4.47l.07-.93.23-.92.36-.87.48-.8.6-.72.73-.6.8-.5.88-.36.92-.22h4.8" stroke="#3a414a" fill="none"/><use xlink:href="#q" transform="matrix(1,0,0,1,243.6339869281045,107.38461538461537) translate(14.209876543209873 25.46527777777778)"/><use xlink:href="#r" transform="matrix(1,0,0,1,243.6339869281045,107.38461538461537) translate(68.4074074074074 25.46527777777778)"/><path d="M471.63 26a6 6 0 0 1 6-6H621.2a6 6 0 0 1 6 6v52.62a6 6 0 0 1-6 6H477.62a6 6 0 0 1-6-6z" fill="#fcfcca"/><path d="M486.33 20.07h9.63m4.82 0h9.63m4.83-.02h9.63m4.82 0h9.63m4.83 0l9.63-.02m4.82 0h9.63m4.82 0h9.64m4.8 0l9.65-.02m4.82 0h9.64m4.8 0h4.83l.93.07.9.22.88.35.82.5.7.6.62.72.5.8.36.88.22.9v4.47m0 4.47l.02 8.9m0 4.48l.02 8.92m0 4.46l.02 8.93m0 4.45v4.47l-.06.93-.22.92-.36.87-.5.8-.6.72-.72.6-.8.5-.88.36-.9.22h-4.83m-4.8 0h-9.64m-4.8 0l-9.65.02m-4.8 0h-9.64m-4.8 0h-9.65m-4.8.02h-9.64m-4.8 0h-9.64m-4.82 0l-9.63.02m-4.82 0h-9.63m-4.82 0h-9.63m-4.82 0l-4.82.02-.93-.08-.92-.22-.87-.36-.8-.5-.7-.6-.62-.72-.5-.8-.35-.87-.22-.92V75.1m0-4.47l-.02-8.93m0-4.46l-.02-8.93m0-4.45v-8.92m-.02-4.47V26l.07-.94.23-.9.36-.88.48-.8.6-.72.73-.6.8-.5.88-.37.92-.23h4.8" stroke="#3a414a" fill="none"/><use xlink:href="#o" transform="matrix(1,0,0,1,483.63398692810443,32) translate(14.24074074074074 25.46527777777778)"/><use xlink:href="#p" transform="matrix(1,0,0,1,483.63398692810443,32) translate(80.72222222222223 25.46527777777778)"/><path d="M471.63 101.38a6 6 0 0 1 6-6H621.2a6 6 0 0 1 6 6V154a6 6 0 0 1-6 6H477.62a6 6 0 0 1-6-6z" fill="#e3fae3"/><path d="M486.33 95.45h9.63m4.82 0h9.63m4.83 0l9.63-.02m4.82 0h9.63m4.83 0h9.63m4.82 0l9.63-.02m4.82 0h9.64m4.8 0h9.65m4.82 0h9.64m4.8 0l4.83-.02.93.08.9.22.88.36.82.5.7.6.62.72.5.8.36.87.22.92v4.46m0 4.47l.02 8.93m0 4.46l.02 8.93m0 4.45l.02 8.92m0 4.47V154l-.06.94-.22.9-.36.88-.5.8-.6.72-.72.6-.8.5-.88.37-.9.23h-4.83m-4.8 0h-9.64m-4.8 0h-9.65m-4.8.02h-9.64m-4.8 0h-9.65m-4.8 0l-9.64.02m-4.8 0h-9.64m-4.82 0h-9.63m-4.82 0l-9.63.02m-4.82 0h-9.63m-4.82 0h-4.82l-.93-.07-.92-.22-.87-.35-.8-.5-.7-.6-.62-.72-.5-.8-.35-.88-.22-.9v-4.47m0-4.47l-.02-8.9m0-4.48l-.02-8.92m0-4.46v-8.93m-.02-4.45v-4.47l.07-.93.23-.92.36-.87.48-.8.6-.72.73-.6.8-.5.88-.36.92-.22h4.8" stroke="#3a414a" fill="none"/><use xlink:href="#q" transform="matrix(1,0,0,1,483.63398692810443,107.38461538461536) translate(20.382716049382715 25.46527777777778)"/><use xlink:href="#p" transform="matrix(1,0,0,1,483.63398692810443,107.38461538461536) translate(74.58024691358025 25.46527777777778)"/><path d="M399.82 260h43.3" stroke="#3a414a" fill="none"/><path d="M399.84 260.5h-.52v-1h.52z" stroke="#3a414a" stroke-width=".05" fill="#3a414a"/><path d="M457.88 260l-14.26 4.64v-9.28z" stroke="#3a414a" fill="#3a414a"/><path d="M950.67 186a6 6 0 0 1 6-6h448a6 6 0 0 1 6 6v108a6 6 0 0 1-6 6h-448a6 6 0 0 1-6-6z" fill="#fff"/><path d="M965.7 180.07h9.98m5 0h9.97m4.98 0h9.98m5 0h9.97m5 0h9.97m5 0h9.96m5 0h9.97m5 0l9.96-.02m5 0h9.97m5 0h9.96m5 0h9.97m5 0h9.96m4.98 0h9.98m4.98 0h9.98m5 0h9.97m4.97 0l9.98-.02m5 0h9.96m5 0h9.98m5 0h9.96m5 0h9.97m5 0h9.97m5 0h9.97m5 0h9.96m5 0l9.97-.02m5 0h9.96m5 0h9.97m4.98 0h9.98m5 0h9.97m4.98 0h10m4.98 0h5l.93.07.92.22.87.35.8.5.7.6.62.72.5.8.35.88.22.9v5.2m0 5.2v10.36m0 5.2l.02 10.37m0 5.2v10.37m0 5.18l.02 10.38m0 5.2v10.36m0 5.2l.02 10.36m0 5.2V294l-.07.94-.23.9-.36.88-.48.8-.6.72-.73.6-.8.5-.88.37-.9.23h-5m-5 0h-9.97m-5 0h-9.96m-5 0h-9.98m-5 0h-9.96m-5 0h-9.97m-5 0h-9.97m-5 0h-9.97m-4.98 0l-9.98.02m-5 0h-9.96m-5 0h-9.97m-5 0h-9.96m-4.98 0h-9.98m-5 0h-9.96m-5 0h-9.97m-4.98 0h-9.97m-5 0l-9.97.02m-5 0h-9.96m-5 0h-9.97m-4.98 0h-9.98m-5 0h-9.98m-4.98 0h-9.98m-5 0h-9.96m-5 0h-9.97m-5 0l-9.96.02m-5 0h-9.97m-5 0h-9.96m-5 0h-9.97m-5 0h-9.96m-4.98 0h-9.98m-5 0h-4.97l-.94-.07-.92-.22-.86-.35-.8-.5-.72-.6-.6-.72-.5-.8-.36-.88-.22-.9v-5.2m0-5.2V274.2m-.02-5.2v-10.37m0-5.2v-10.37m-.02-5.18V227.5m0-5.2l-.02-10.36m0-5.2V196.4m0-5.2V186l.06-.94.22-.9.36-.88.5-.8.6-.72.72-.6.8-.5.87-.37.93-.23h5" stroke="#3a414a" fill="none"/><use xlink:href="#s" transform="matrix(1,0,0,1,962.6666269849943,192) translate(128.56172839506172 17.77777777777778)"/><use xlink:href="#b" transform="matrix(1,0,0,1,962.6666269849943,192) translate(199.91975308641975 17.77777777777778)"/><path d="M970.67 240h178.82v40H970.66z" stroke="#3a414a" fill="#f2f3f5"/><use xlink:href="#g" transform="matrix(1,0,0,1,982.6666269849944,252) translate(4.1547309027777715 17.7734375)"/><use xlink:href="#h" transform="matrix(1,0,0,1,982.6666269849944,252) translate(84.16775173611111 17.7734375)"/><use xlink:href="#t" transform="matrix(1,0,0,1,982.6666269849944,252) translate(124.17426215277777 17.7734375)"/><path d="M1210.67 240h178.82v40h-178.83z" stroke="#3a414a" fill="#f2f3f5"/><use xlink:href="#j" transform="matrix(1,0,0,1,1222.6666269849943,252) translate(17.490234375000007 17.7734375)"/><use xlink:href="#k" transform="matrix(1,0,0,1,1222.6666269849943,252) translate(70.83224826388889 17.7734375)"/><use xlink:href="#t" transform="matrix(1,0,0,1,1222.6666269849943,252) translate(110.83875868055554 17.7734375)"/><path d="M860.82 241.07h-7.64l-.72.18-.73.3-.67.4-.6.52-.5.6-.4.66-.3.73-.2.76-.06.82v72h-2v-72.08l.08-1.06.26-1.06.42-1.02.57-.94.72-.83.83-.72.94-.57 1.02-.42 1.1-.27h7.88zm70.88-.07h-4.2v-2h4.2z" stroke="#3a414a" stroke-width=".05" fill="#3a414a"/><path d="M849 319.04h-2V318h2z" fill="#3a414a"/><path d="M849.03 319.06h-2.05V318h2.05zm-2-1.02v.97h1.95v-.96z" stroke="#3a414a" stroke-width=".05" fill="#3a414a"/><path d="M946.97 240l-14.27 4.64v-9.28z" fill="#3a414a"/><path d="M950.2 240l-18.5 6v-12zm-16.5 3.26l10.03-3.26-10.03-3.26z" stroke="#3a414a" stroke-width=".05" fill="#3a414a"/><use xlink:href="#l" transform="matrix(1,0,0,1,860.8182977176244,228.88888888888889) translate(0 17.7734375)"/><path d="M1612.43 239.08l1.07.26 1 .42.95.57.84.72.7.83.57.94.42 1.02.26 1.1.07 55.56h-2l-.07-55.32-.17-.72-.3-.73-.42-.67-.5-.6-.6-.5-.68-.4-.72-.3-.77-.2-.8-.06h-55.7v-2h55.77zm-200.3 1.92v-2h36.8v2z" stroke="#3a414a" stroke-width=".05" fill="#3a414a"/><path d="M1412.16 241h-1.03v-2h1.03z" fill="#3a414a"/><path d="M1412.18 241.03h-1.07v-2.06h1.08zm-1.03-2v1.94h.98v-1.94z" stroke="#3a414a" stroke-width=".05" fill="#3a414a"/><path d="M1617.33 315.77l-4.63-14.27h9.27z" fill="#3a414a"/><path d="M1617.33 319l-6-18.5h12zm-3.26-16.5l3.26 10.03 3.26-10.03z" stroke="#3a414a" stroke-width=".05" fill="#3a414a"/><use xlink:href="#u" transform="matrix(1,0,0,1,1448.9155698532588,228.88888888888889) translate(0 17.7734375)"/><path d="M982.3 26a6 6 0 0 1 6-6h143.56a6 6 0 0 1 6 6v52.62a6 6 0 0 1-6 6H988.3a6 6 0 0 1-6-6z" fill="#fcfcca"/><path d="M997 20.07h9.63m4.8 0h9.65m4.8-.02h9.65m4.8 0h9.65m4.8 0l9.65-.02m4.8 0h9.64m4.82 0h9.62m4.82 0l9.63-.02m4.82 0h9.62m4.82 0h4.82l.93.07.9.22.88.35.8.5.72.6.6.72.5.8.36.88.22.9v4.47m0 4.47l.03 8.9m0 4.48l.03 8.92m0 4.46v8.93m.02 4.45v4.47l-.07.93-.22.92-.36.87-.5.8-.6.72-.72.6-.8.5-.87.36-.9.22h-4.82m-4.82 0h-9.63m-4.82 0l-9.62.02m-4.82 0h-9.63m-4.82 0h-9.62m-4.82.02h-9.63m-4.82 0h-9.62m-4.8 0l-9.65.02m-4.8 0h-9.65m-4.8 0h-9.65m-4.8 0l-4.83.02-.94-.08-.9-.22-.88-.36-.8-.5-.72-.6-.6-.72-.5-.8-.37-.87-.23-.92V75.1m0-4.47l-.02-8.93m0-4.46l-.02-8.93m0-4.45l-.02-8.92m0-4.47V26l.07-.94.22-.9.35-.88.5-.8.6-.72.72-.6.8-.5.88-.37.9-.23h4.83" stroke="#3a414a" fill="none"/><use xlink:href="#o" transform="matrix(1,0,0,1,994.3006139130989,32.000000000000014) translate(8.901234567901241 25.46527777777778)"/><use xlink:href="#v" transform="matrix(1,0,0,1,994.3006139130989,32.000000000000014) translate(75.38271604938272 25.46527777777778)"/><path d="M982.3 101.38a6 6 0 0 1 6-6h143.56a6 6 0 0 1 6 6V154a6 6 0 0 1-6 6H988.3a6 6 0 0 1-6-6z" fill="#e3fae3"/><path d="M997 95.45h9.63m4.8 0h9.65m4.8 0l9.65-.02m4.8 0h9.65m4.8 0h9.65m4.8 0l9.64-.02m4.82 0h9.62m4.82 0h9.63m4.82 0h9.62m4.82 0l4.82-.02.93.08.9.22.88.36.8.5.72.6.6.72.5.8.36.87.22.92v4.46m0 4.47l.03 8.93m0 4.46l.03 8.93m0 4.45v8.92m.02 4.47V154l-.07.94-.22.9-.36.88-.5.8-.6.72-.72.6-.8.5-.87.37-.9.23h-4.82m-4.82 0h-9.63m-4.82 0h-9.62m-4.82.02h-9.63m-4.82 0h-9.62m-4.82 0l-9.63.02m-4.82 0h-9.62m-4.8 0h-9.65m-4.8 0l-9.65.02m-4.8 0h-9.65m-4.8 0h-4.83l-.94-.07-.9-.22-.88-.35-.8-.5-.72-.6-.6-.72-.5-.8-.37-.88-.23-.9v-4.47m0-4.47l-.02-8.9m0-4.48l-.02-8.92m0-4.46l-.02-8.93m0-4.45v-4.47l.07-.93.22-.92.35-.87.5-.8.6-.72.72-.6.8-.5.88-.36.9-.22h4.83" stroke="#3a414a" fill="none"/><use xlink:href="#q" transform="matrix(1,0,0,1,994.3006139130989,107.38461538461537) translate(20.382716049382715 25.46527777777778)"/><use xlink:href="#p" transform="matrix(1,0,0,1,994.3006139130989,107.38461538461537) translate(74.58024691358025 25.46527777777778)"/><path d="M1222.3 26a6 6 0 0 1 6-6h143.56a6 6 0 0 1 6 6v52.62a6 6 0 0 1-6 6H1228.3a6 6 0 0 1-6-6z" fill="#fcfcca"/><path d="M1237 20.07h9.63m4.8 0h9.65m4.8-.02h9.65m4.8 0h9.65m4.8 0l9.65-.02m4.8 0h9.64m4.82 0h9.62m4.82 0l9.63-.02m4.82 0h9.62m4.82 0h4.82l.93.07.9.22.88.35.8.5.72.6.6.72.5.8.36.88.22.9v4.47m0 4.47l.03 8.9m0 4.48l.03 8.92m0 4.46v8.93m.02 4.45v4.47l-.07.93-.22.92-.36.87-.5.8-.6.72-.72.6-.8.5-.87.36-.9.22h-4.82m-4.82 0h-9.63m-4.82 0l-9.62.02m-4.82 0h-9.63m-4.82 0h-9.62m-4.82.02h-9.63m-4.82 0h-9.62m-4.8 0l-9.65.02m-4.8 0h-9.65m-4.8 0h-9.65m-4.8 0l-4.83.02-.94-.08-.9-.22-.88-.36-.8-.5-.72-.6-.6-.72-.5-.8-.37-.87-.23-.92V75.1m0-4.47l-.02-8.93m0-4.46l-.02-8.93m0-4.45l-.02-8.92m0-4.47V26l.07-.94.22-.9.35-.88.5-.8.6-.72.72-.6.8-.5.88-.37.9-.23h4.83" stroke="#3a414a" fill="none"/><g><use xlink:href="#o" transform="matrix(1,0,0,1,1234.300613913099,32) translate(8.901234567901241 25.46527777777778)"/><use xlink:href="#v" transform="matrix(1,0,0,1,1234.300613913099,32) translate(75.38271604938272 25.46527777777778)"/></g><path d="M1222.3 101.38a6 6 0 0 1 6-6h143.56a6 6 0 0 1 6 6V154a6 6 0 0 1-6 6H1228.3a6 6 0 0 1-6-6z" fill="#e3fae3"/><path d="M1237 95.45h9.63m4.8 0h9.65m4.8 0l9.65-.02m4.8 0h9.65m4.8 0h9.65m4.8 0l9.64-.02m4.82 0h9.62m4.82 0h9.63m4.82 0h9.62m4.82 0l4.82-.02.93.08.9.22.88.36.8.5.72.6.6.72.5.8.36.87.22.92v4.46m0 4.47l.03 8.93m0 4.46l.03 8.93m0 4.45v8.92m.02 4.47V154l-.07.94-.22.9-.36.88-.5.8-.6.72-.72.6-.8.5-.87.37-.9.23h-4.82m-4.82 0h-9.63m-4.82 0h-9.62m-4.82.02h-9.63m-4.82 0h-9.62m-4.82 0l-9.63.02m-4.82 0h-9.62m-4.8 0h-9.65m-4.8 0l-9.65.02m-4.8 0h-9.65m-4.8 0h-4.83l-.94-.07-.9-.22-.88-.35-.8-.5-.72-.6-.6-.72-.5-.8-.37-.88-.23-.9v-4.47m0-4.47l-.02-8.9m0-4.48l-.02-8.92m0-4.46l-.02-8.93m0-4.45v-4.47l.07-.93.22-.92.35-.87.5-.8.6-.72.72-.6.8-.5.88-.36.9-.22h4.83" stroke="#e81313" fill="none"/><g><use xlink:href="#w" transform="matrix(1,0,0,1,1234.300613913099,107.38461538461536) translate(16.709876543209873 25.46527777777778)"/><use xlink:href="#x" transform="matrix(1,0,0,1,1234.300613913099,107.38461538461536) translate(70.9074074074074 25.46527777777778)"/></g><path d="M1150.5 260h43.28" stroke="#3a414a" fill="none"/><path d="M1150.5 260.5h-.5v-1h.5z" stroke="#3a414a" stroke-width=".05" fill="#3a414a"/><path d="M1208.55 260l-14.27 4.64v-9.28z" stroke="#3a414a" fill="#3a414a"/><path d="M1520 366a6 6 0 0 1 6-6h143.56a6 6 0 0 1 6 6v52.62a6 6 0 0 1-6 6H1526a6 6 0 0 1-6-6z" stroke="#3a414a" stroke-width="2" fill="#fcfcca"/><g><use xlink:href="#c" transform="matrix(1,0,0,1,1532,372.00000000000006) translate(11.740740740740748 25.46527777777778)"/><use xlink:href="#n" transform="matrix(1,0,0,1,1532,372.00000000000006) translate(83.22222222222221 25.46527777777778)"/></g><path d="M1520 441.38a6 6 0 0 1 6-6h143.56a6 6 0 0 1 6 6V494a6 6 0 0 1-6 6H1526a6 6 0 0 1-6-6z" stroke="#3a414a" stroke-width="2" fill="#e3fae3"/><g><use xlink:href="#e" transform="matrix(1,0,0,1,1532,447.3846153846154) translate(18.160493827160494 25.46527777777778)"/><use xlink:href="#n" transform="matrix(1,0,0,1,1532,447.3846153846154) translate(76.80246913580247 25.46527777777778)"/></g><path d="M267.33 400h413.34l12 12v48H267.33z" stroke="#3a414a" fill="#f2f3f5"/><path d="M680.67 400.48V412h11.52" stroke="#3a414a" fill="#f2f3f5"/><g><use xlink:href="#y" transform="matrix(1,0,0,1,272.33333333333326,405) translate(0 30.708333333333332)"/><use xlink:href="#z" transform="matrix(1,0,0,1,272.33333333333326,405) translate(104.44444444444441 30.708333333333332)"/><use xlink:href="#A" transform="matrix(1,0,0,1,272.33333333333326,405) translate(156.29629629629625 30.708333333333332)"/><use xlink:href="#B" transform="matrix(1,0,0,1,272.33333333333326,405) translate(216.88888888888883 30.708333333333332)"/><use xlink:href="#C" transform="matrix(1,0,0,1,272.33333333333326,405) translate(275.03703703703695 30.708333333333332)"/><use xlink:href="#D" transform="matrix(1,0,0,1,272.33333333333326,405) translate(304.6666666666666 30.708333333333332)"/></g><path d="M1005.1 400h413.34l12 12v48H1005.1z" stroke="#3a414a" fill="#f2f3f5"/><path d="M1418.44 400.48V412h11.53" stroke="#3a414a" fill="#f2f3f5"/><g><use xlink:href="#y" transform="matrix(1,0,0,1,1010.1111111111111,405) translate(0 30.708333333333332)"/><use xlink:href="#z" transform="matrix(1,0,0,1,1010.1111111111111,405) translate(104.44444444444441 30.708333333333332)"/><use xlink:href="#A" transform="matrix(1,0,0,1,1010.1111111111111,405) translate(156.29629629629625 30.708333333333332)"/><use xlink:href="#B" transform="matrix(1,0,0,1,1010.1111111111111,405) translate(216.88888888888883 30.708333333333332)"/><use xlink:href="#C" transform="matrix(1,0,0,1,1010.1111111111111,405) translate(275.03703703703695 30.708333333333332)"/><use xlink:href="#D" transform="matrix(1,0,0,1,1010.1111111111111,405) translate(304.6666666666666 30.708333333333332)"/></g><defs><path fill="#3a414a" d="M185-189c-5-48-123-54-124 2 14 75 158 14 163 119 3 78-121 87-175 55-17-10-28-26-33-46l33-7c5 56 141 63 141-1 0-78-155-14-162-118-5-82 145-84 179-34 5 7 8 16 11 25" id="E"/><path fill="#3a414a" d="M84 4C-5 8 30-112 23-190h32v120c0 31 7 50 39 49 72-2 45-101 50-169h31l1 190h-30c-1-10 1-25-2-33-11 22-28 36-60 37" id="F"/><path fill="#3a414a" d="M96-169c-40 0-48 33-48 73s9 75 48 75c24 0 41-14 43-38l32 2c-6 37-31 61-74 61-59 0-76-41-82-99-10-93 101-131 147-64 4 7 5 14 7 22l-32 3c-4-21-16-35-41-35" id="G"/><path fill="#3a414a" d="M100-194c63 0 86 42 84 106H49c0 40 14 67 53 68 26 1 43-12 49-29l28 8c-11 28-37 45-77 45C44 4 14-33 15-96c1-61 26-98 85-98zm52 81c6-60-76-77-97-28-3 7-6 17-6 28h103" id="H"/><path fill="#3a414a" d="M135-143c-3-34-86-38-87 0 15 53 115 12 119 90S17 21 10-45l28-5c4 36 97 45 98 0-10-56-113-15-118-90-4-57 82-63 122-42 12 7 21 19 24 35" id="I"/><path fill="#3a414a" d="M101-234c-31-9-42 10-38 44h38v23H63V0H32v-167H5v-23h27c-7-52 17-82 69-68v24" id="J"/><path fill="#3a414a" d="M24 0v-261h32V0H24" id="K"/><g id="a"><use transform="matrix(0.06172839506172839,0,0,0.06172839506172839,0,0)" xlink:href="#E"/><use transform="matrix(0.06172839506172839,0,0,0.06172839506172839,14.814814814814813,0)" xlink:href="#F"/><use transform="matrix(0.06172839506172839,0,0,0.06172839506172839,27.160493827160494,0)" xlink:href="#G"/><use transform="matrix(0.06172839506172839,0,0,0.06172839506172839,38.27160493827161,0)" xlink:href="#G"/><use transform="matrix(0.06172839506172839,0,0,0.06172839506172839,49.38271604938272,0)" xlink:href="#H"/><use transform="matrix(0.06172839506172839,0,0,0.06172839506172839,61.7283950617284,0)" xlink:href="#I"/><use transform="matrix(0.06172839506172839,0,0,0.06172839506172839,72.8395061728395,0)" xlink:href="#I"/><use transform="matrix(0.06172839506172839,0,0,0.06172839506172839,83.95061728395062,0)" xlink:href="#J"/><use transform="matrix(0.06172839506172839,0,0,0.06172839506172839,90.12345679012346,0)" xlink:href="#F"/><use transform="matrix(0.06172839506172839,0,0,0.06172839506172839,102.46913580246914,0)" xlink:href="#K"/></g><path fill="#3a414a" d="M59-47c-2 24 18 29 38 22v24C64 9 27 4 27-40v-127H5v-23h24l9-43h21v43h35v23H59v120" id="L"/><path fill="#3a414a" d="M114-163C36-179 61-72 57 0H25l-1-190h30c1 12-1 29 2 39 6-27 23-49 58-41v29" id="M"/><path fill="#3a414a" d="M141-36C126-15 110 5 73 4 37 3 15-17 15-53c-1-64 63-63 125-63 3-35-9-54-41-54-24 1-41 7-42 31l-33-3c5-37 33-52 76-52 45 0 72 20 72 64v82c-1 20 7 32 28 27v20c-31 9-61-2-59-35zM48-53c0 20 12 33 32 33 41-3 63-29 60-74-43 2-92-5-92 41" id="N"/><path fill="#3a414a" d="M117-194c89-4 53 116 60 194h-32v-121c0-31-8-49-39-48C34-167 62-67 57 0H25l-1-190h30c1 10-1 24 2 32 11-22 29-35 61-36" id="O"/><path fill="#3a414a" d="M24-231v-30h32v30H24zM24 0v-190h32V0H24" id="P"/><path fill="#3a414a" d="M100-194c62-1 85 37 85 99 1 63-27 99-86 99S16-35 15-95c0-66 28-99 85-99zM99-20c44 1 53-31 53-75 0-43-8-75-51-75s-53 32-53 75 10 74 51 75" id="Q"/><g id="b"><use transform="matrix(0.06172839506172839,0,0,0.06172839506172839,0,0)" xlink:href="#L"/><use transform="matrix(0.06172839506172839,0,0,0.06172839506172839,6.172839506172839,0)" xlink:href="#M"/><use transform="matrix(0.06172839506172839,0,0,0.06172839506172839,13.518518518518519,0)" xlink:href="#N"/><use transform="matrix(0.06172839506172839,0,0,0.06172839506172839,25.864197530864196,0)" xlink:href="#O"/><use transform="matrix(0.06172839506172839,0,0,0.06172839506172839,38.20987654320987,0)" xlink:href="#I"/><use transform="matrix(0.06172839506172839,0,0,0.06172839506172839,49.32098765432099,0)" xlink:href="#N"/><use transform="matrix(0.06172839506172839,0,0,0.06172839506172839,61.666666666666664,0)" xlink:href="#G"/><use transform="matrix(0.06172839506172839,0,0,0.06172839506172839,72.77777777777777,0)" xlink:href="#L"/><use transform="matrix(0.06172839506172839,0,0,0.06172839506172839,78.9506172839506,0)" xlink:href="#P"/><use transform="matrix(0.06172839506172839,0,0,0.06172839506172839,83.82716049382715,0)" xlink:href="#Q"/><use transform="matrix(0.06172839506172839,0,0,0.06172839506172839,96.17283950617283,0)" xlink:href="#O"/></g><path fill="#3a414a" d="M186 0v-106H76V0H24v-248h52v99h110v-99h50V0h-50" id="R"/><path fill="#3a414a" d="M133-34C117-15 103 5 69 4 32 3 11-16 11-54c-1-60 55-63 116-61 1-26-3-47-28-47-18 1-26 9-28 27l-52-2c7-38 36-58 82-57s74 22 75 68l1 82c-1 14 12 18 25 15v27c-30 8-71 5-69-32zm-48 3c29 0 43-24 42-57-32 0-66-3-65 30 0 17 8 27 23 27" id="S"/><path fill="#3a414a" d="M135-150c-39-12-60 13-60 57V0H25l-1-190h47c2 13-1 29 3 40 6-28 27-53 61-41v41" id="T"/><path fill="#3a414a" d="M123 10C108 53 80 86 19 72V37c35 8 53-11 59-39L3-190h52l48 148c12-52 28-100 44-148h51" id="U"/><path fill="#3a414a" d="M35-132v-50h50v50H35zM35 0v-49h50V0H35" id="V"/><g id="c"><use transform="matrix(0.06172839506172839,0,0,0.06172839506172839,0,0)" xlink:href="#R"/><use transform="matrix(0.06172839506172839,0,0,0.06172839506172839,15.987654320987653,0)" xlink:href="#S"/><use transform="matrix(0.06172839506172839,0,0,0.06172839506172839,28.333333333333332,0)" xlink:href="#T"/><use transform="matrix(0.06172839506172839,0,0,0.06172839506172839,36.9753086419753,0)" xlink:href="#T"/><use transform="matrix(0.06172839506172839,0,0,0.06172839506172839,45.61728395061728,0)" xlink:href="#U"/><use transform="matrix(0.06172839506172839,0,0,0.06172839506172839,57.962962962962955,0)" xlink:href="#V"/></g><path fill="#3a414a" d="M101-251c68 0 84 54 84 127C185-50 166 4 99 4S15-52 14-124c-1-75 17-127 87-127zm-1 216c37-5 36-46 36-89s4-89-36-89c-39 0-36 45-36 89 0 43-3 85 36 89" id="W"/><path fill="#3a414a" d="M111-147c44 9 85 22 84 75-1 49-35 65-84 68v31H91V-4C40-5 12-27 5-72l45-8c4 24 15 38 41 40-2-22 4-51-2-69-39-10-76-22-76-72 0-47 35-60 78-63v-23h20v23c47 1 70 23 78 62l-46 7c-4-18-12-32-32-34v62zm-20-63c-33-4-45 46-13 54 4 1 8 2 13 4v-58zm20 170c39 5 53-51 15-60-7-2-7-2-15-4v64" id="X"/><g id="d"><use transform="matrix(0.06172839506172839,0,0,0.06172839506172839,0,0)" xlink:href="#W"/><use transform="matrix(0.06172839506172839,0,0,0.06172839506172839,12.345679012345679,0)" xlink:href="#X"/></g><path fill="#3a414a" d="M136-208V0H84v-208H4v-40h212v40h-80" id="Y"/><path fill="#3a414a" d="M110-194c64 0 96 36 96 99 0 64-35 99-97 99-61 0-95-36-95-99 0-62 34-99 96-99zm-1 164c35 0 45-28 45-65 0-40-10-65-43-65-34 0-45 26-45 65 0 36 10 65 43 65" id="Z"/><path fill="#3a414a" d="M220-157c-53 9-28 100-34 157h-49v-107c1-27-5-49-29-50C55-147 81-57 75 0H25l-1-190h47c2 12-1 28 3 38 10-53 101-56 108 0 13-22 24-43 59-42 82 1 51 116 57 194h-49v-107c-1-25-5-48-29-50" id="aa"/><g id="e"><use transform="matrix(0.06172839506172839,0,0,0.06172839506172839,0,0)" xlink:href="#Y"/><use transform="matrix(0.06172839506172839,0,0,0.06172839506172839,11.851851851851851,0)" xlink:href="#Z"/><use transform="matrix(0.06172839506172839,0,0,0.06172839506172839,25.370370370370367,0)" xlink:href="#aa"/><use transform="matrix(0.06172839506172839,0,0,0.06172839506172839,45.123456790123456,0)" xlink:href="#V"/></g><path fill="#3a414a" d="M23 0v-37h61v-169l-59 37v-38l62-41h46v211h57V0H23" id="ab"/><g id="f"><use transform="matrix(0.06172839506172839,0,0,0.06172839506172839,0,0)" xlink:href="#ab"/><use transform="matrix(0.06172839506172839,0,0,0.06172839506172839,12.345679012345679,0)" xlink:href="#W"/><use transform="matrix(0.06172839506172839,0,0,0.06172839506172839,24.691358024691358,0)" xlink:href="#W"/><use transform="matrix(0.06172839506172839,0,0,0.06172839506172839,37.03703703703704,0)" xlink:href="#X"/></g><path fill="#3a414a" d="M875 0v-623H353V0H162v-1349h191v566h522v-566h191V0H875" id="ac"/><path fill="#3a414a" d="M1000-272c3 95 12 159 101 161 21 0 41-3 59-7V-6c-44 10-86 16-139 16-141 2-191-84-197-217h-6C748-76 648 20 446 20c-207 0-318-120-318-322 0-266 194-348 454-354l236-4c12-191-40-305-222-305-140 0-220 47-232 172l-188-17c33-204 181-292 423-292 255 0 401 118 401 364v466zm-683-27c0 109 63 184 175 182 166-3 259-96 306-217 24-65 20-120 20-200-232 7-501-28-501 235" id="ad"/><path fill="#3a414a" d="M839-1102c70 0 148 7 206 17v167c-112-18-268-36-363 15-129 69-208 203-208 395V0H294c-10-367 32-789-52-1082h171c21 75 41 161 48 250h5c67-152 152-270 373-270" id="ae"/><path fill="#3a414a" d="M168 279c222 39 310-114 368-290L66-1082h192c120 299 249 590 362 896 115-301 235-597 351-896h190L705 0c-65 164-130 320-275 396-67 36-177 35-262 18V279" id="af"/><g id="g"><use transform="matrix(0.010850694444444444,0,0,0.010850694444444444,0,0)" xlink:href="#ac"/><use transform="matrix(0.010850694444444444,0,0,0.010850694444444444,13.335503472222221,0)" xlink:href="#ad"/><use transform="matrix(0.010850694444444444,0,0,0.010850694444444444,26.671006944444443,0)" xlink:href="#ae"/><use transform="matrix(0.010850694444444444,0,0,0.010850694444444444,40.006510416666664,0)" xlink:href="#ae"/><use transform="matrix(0.010850694444444444,0,0,0.010850694444444444,53.342013888888886,0)" xlink:href="#af"/></g><path fill="#3a414a" d="M687-608v428H540v-428H116v-146h424v-428h147v428h424v146H687" id="ag"/><path fill="#3a414a" d="M116-856v-148h995v148H116zm0 512v-148h995v148H116" id="ah"/><g id="h"><use transform="matrix(0.010850694444444444,0,0,0.010850694444444444,0,0)" xlink:href="#ag"/><use transform="matrix(0.010850694444444444,0,0,0.010850694444444444,13.335503472222221,0)" xlink:href="#ah"/></g><path fill="#3a414a" d="M353-779c69-51 166-92 291-90 218 3 357 100 423 255 21 52 32 109 32 170 0 305-189 464-500 464-268 0-424-116-471-335l182-21c35 130 124 212 293 209 198-4 309-114 309-313 0-182-118-282-305-282-120 0-198 45-262 101H169l47-728h801v145H382" id="ai"/><path fill="#3a414a" d="M1065-1013c47 164 49 500-1 665C999-130 875 20 611 20c-377 0-484-300-487-695-2-245 41-425 141-551 77-98 191-144 352-144 261 0 386 140 448 357zM741-155c199-92 203-504 159-785-26-168-96-284-283-284-281 0-308 256-311 549-2 181 18 324 80 428 46 77 115 118 227 120 47 0 90-10 128-28" id="aj"/><g id="i"><use transform="matrix(0.010850694444444444,0,0,0.010850694444444444,0,0)" xlink:href="#ai"/><use transform="matrix(0.010850694444444444,0,0,0.010850694444444444,13.335503472222221,0)" xlink:href="#aj"/></g><path fill="#3a414a" d="M709-1193V0H519v-1193H76v-156h1076v156H709" id="ak"/><path fill="#3a414a" d="M615-1102c343 0 484 203 482 560-1 347-147 562-488 562-336 0-475-219-479-562-4-349 156-560 485-560zm-8 989c240 0 301-180 301-429 0-245-55-427-290-427-236 0-299 181-299 427 0 243 61 429 288 429" id="al"/><path fill="#3a414a" d="M904-1102c199 0 220 177 220 381V0H956v-686c-3-114 0-215-60-264-70-33-125-4-158 71-26 56-39 140-39 252V0H531v-686c-3-114-1-215-61-264-78-41-136 24-157 84-24 69-39 159-39 259V0H105c-3-360 6-732-6-1082h149c6 50 3 123 8 175 36-100 83-195 216-195 135 0 166 79 196 196 42-105 93-196 236-196" id="am"/><g id="j"><use transform="matrix(0.010850694444444444,0,0,0.010850694444444444,0,0)" xlink:href="#ak"/><use transform="matrix(0.010850694444444444,0,0,0.010850694444444444,13.335503472222221,0)" xlink:href="#al"/><use transform="matrix(0.010850694444444444,0,0,0.010850694444444444,26.671006944444443,0)" xlink:href="#am"/></g><path fill="#3a414a" d="M334-464v-160h560v160H334" id="an"/><g id="k"><use transform="matrix(0.010850694444444444,0,0,0.010850694444444444,0,0)" xlink:href="#an"/><use transform="matrix(0.010850694444444444,0,0,0.010850694444444444,13.335503472222221,0)" xlink:href="#ah"/></g><path fill="#333" d="M836-709c204 20 350 118 350 324C1186-112 992 0 719 0H137v-1349h525c258 3 443 87 443 339 0 176-107 269-269 301zM643-811c107 0 165-53 165-159 0-113-61-160-167-160H432v319h211zm46 592c128-1 201-59 200-191-1-128-80-183-207-183H432v374h257" id="ao"/><path fill="#333" d="M137 0v-1349h968v228H432v324h612v228H432v341h714V0H137" id="ap"/><path fill="#333" d="M650-216c90 0 157-35 208-74v-235H584v-218h544v558C1004-84 858 20 635 20 235 20 80-276 80-681c0-416 146-689 558-689 277 0 398 160 462 375l-274 54c-31-108-73-197-185-197-231 0-262 217-262 457 0 149 22 263 67 344s113 121 204 121" id="aq"/><path fill="#333" d="M157-1349h916v228H757v893h316V0H157v-228h316v-893H157v-228" id="ar"/><path fill="#333" d="M865-312c-44-312-23-686-28-1037h257V0H748L364-1010c44 304 24 668 28 1010H135v-1349h337" id="as"/><g id="l"><use transform="matrix(0.010850694444444444,0,0,0.010850694444444444,0,0)" xlink:href="#ao"/><use transform="matrix(0.010850694444444444,0,0,0.010850694444444444,13.335503472222221,0)" xlink:href="#ap"/><use transform="matrix(0.010850694444444444,0,0,0.010850694444444444,26.671006944444443,0)" xlink:href="#aq"/><use transform="matrix(0.010850694444444444,0,0,0.010850694444444444,40.006510416666664,0)" xlink:href="#ar"/><use transform="matrix(0.010850694444444444,0,0,0.010850694444444444,53.342013888888886,0)" xlink:href="#as"/></g><path fill="#333" d="M872-915c-35-112-84-223-220-223-91 0-156 41-204 116-89 137-87 550 2 688 51 79 116 122 209 122 150 0 197-126 240-244l273 52C1094-168 961 20 656 20 239 20 80-262 80-681c0-418 154-689 568-689 289 0 425 167 496 389" id="at"/><path fill="#333" d="M615-1370c385 0 542 273 542 691 0 230-47 404-140 522S790 20 615 20C231 20 72-262 72-679c0-419 158-691 543-691zM797-330c77-133 78-564 0-695-44-73-101-113-182-113s-139 40-183 114c-79 133-78 560 0 694 45 77 102 118 183 118s138-41 182-118" id="au"/><path fill="#333" d="M305-1169c27 366 9 780 14 1169H99v-1349h347c49 189 108 371 150 564 12 56 15 107 23 166 33-270 117-487 176-730h335V0H908c5-390-13-801 16-1169-52 285-130 541-199 809H507c-70-267-148-525-202-809" id="av"/><path fill="#333" d="M762-1121V0H467v-1121H61v-228h1107v228H762" id="aw"/><g id="m"><use transform="matrix(0.010850694444444444,0,0,0.010850694444444444,0,0)" xlink:href="#at"/><use transform="matrix(0.010850694444444444,0,0,0.010850694444444444,13.335503472222221,0)" xlink:href="#au"/><use transform="matrix(0.010850694444444444,0,0,0.010850694444444444,26.671006944444443,0)" xlink:href="#av"/><use transform="matrix(0.010850694444444444,0,0,0.010850694444444444,40.006510416666664,0)" xlink:href="#av"/><use transform="matrix(0.010850694444444444,0,0,0.010850694444444444,53.342013888888886,0)" xlink:href="#ar"/><use transform="matrix(0.010850694444444444,0,0,0.010850694444444444,66.67751736111111,0)" xlink:href="#aw"/></g><path fill="#3a414a" d="M139-81c0-46-55-55-73-27H18l9-140h149v37H72l-4 63c44-38 133-4 122 66C201 21 21 35 11-62l49-4c5 18 15 30 39 30 26 0 40-18 40-45" id="ax"/><g id="n"><use transform="matrix(0.06172839506172839,0,0,0.06172839506172839,0,0)" xlink:href="#ax"/><use transform="matrix(0.06172839506172839,0,0,0.06172839506172839,12.345679012345679,0)" xlink:href="#W"/><use transform="matrix(0.06172839506172839,0,0,0.06172839506172839,24.691358024691358,0)" xlink:href="#X"/></g><path fill="#3a414a" d="M197 0v-115H63V0H30v-248h33v105h134v-105h34V0h-34" id="ay"/><path fill="#3a414a" d="M179-190L93 31C79 59 56 82 12 73V49c39 6 53-20 64-50L1-190h34L92-34l54-156h33" id="az"/><path fill="#3a414a" d="M33-154v-36h34v36H33zM33 0v-36h34V0H33" id="aA"/><g id="o"><use transform="matrix(0.06172839506172839,0,0,0.06172839506172839,0,0)" xlink:href="#ay"/><use transform="matrix(0.06172839506172839,0,0,0.06172839506172839,15.987654320987653,0)" xlink:href="#N"/><use transform="matrix(0.06172839506172839,0,0,0.06172839506172839,28.333333333333332,0)" xlink:href="#M"/><use transform="matrix(0.06172839506172839,0,0,0.06172839506172839,35.67901234567901,0)" xlink:href="#M"/><use transform="matrix(0.06172839506172839,0,0,0.06172839506172839,43.02469135802469,0)" xlink:href="#az"/><use transform="matrix(0.06172839506172839,0,0,0.06172839506172839,54.1358024691358,0)" xlink:href="#aA"/></g><path fill="#3a414a" d="M54-142c48-35 137-8 131 61C196 18 31 33 14-55l32-4c7 23 22 37 52 37 35-1 51-22 54-58 4-55-73-65-99-34H22l8-134h141v27H59" id="aB"/><path fill="#3a414a" d="M101-251c68 0 85 55 85 127S166 4 100 4C33 4 14-52 14-124c0-73 17-127 87-127zm-1 229c47 0 54-49 54-102s-4-102-53-102c-51 0-55 48-55 102 0 53 5 102 54 102" id="aC"/><path fill="#3a414a" d="M194-70c0 46-34 64-81 66v29H91V-4C42-5 12-27 4-67l30-6c5 28 25 41 57 43v-87c-38-9-76-20-76-67 1-42 33-58 76-59v-23h22v23c45 0 67 20 76 56l-31 6c-5-23-18-35-45-37v78c41 10 81 20 81 70zm-81 41c51 7 71-66 19-77-6-2-12-4-19-6v83zM91-219c-47-6-63 57-18 69 6 2 12 3 18 5v-74" id="aD"/><g id="p"><use transform="matrix(0.06172839506172839,0,0,0.06172839506172839,0,0)" xlink:href="#aB"/><use transform="matrix(0.06172839506172839,0,0,0.06172839506172839,12.345679012345679,0)" xlink:href="#aC"/><use transform="matrix(0.06172839506172839,0,0,0.06172839506172839,24.691358024691358,0)" xlink:href="#aD"/></g><path fill="#3a414a" d="M127-220V0H93v-220H8v-28h204v28h-85" id="aE"/><path fill="#3a414a" d="M210-169c-67 3-38 105-44 169h-31v-121c0-29-5-50-35-48C34-165 62-65 56 0H25l-1-190h30c1 10-1 24 2 32 10-44 99-50 107 0 11-21 27-35 58-36 85-2 47 119 55 194h-31v-121c0-29-5-49-35-48" id="aF"/><g id="q"><use transform="matrix(0.06172839506172839,0,0,0.06172839506172839,0,0)" xlink:href="#aE"/><use transform="matrix(0.06172839506172839,0,0,0.06172839506172839,11.049382716049381,0)" xlink:href="#Q"/><use transform="matrix(0.06172839506172839,0,0,0.06172839506172839,23.39506172839506,0)" xlink:href="#aF"/><use transform="matrix(0.06172839506172839,0,0,0.06172839506172839,41.85185185185185,0)" xlink:href="#aA"/></g><path fill="#3a414a" d="M27 0v-27h64v-190l-56 39v-29l58-41h29v221h61V0H27" id="aG"/><g id="r"><use transform="matrix(0.06172839506172839,0,0,0.06172839506172839,0,0)" xlink:href="#aG"/><use transform="matrix(0.06172839506172839,0,0,0.06172839506172839,12.345679012345679,0)" xlink:href="#aC"/><use transform="matrix(0.06172839506172839,0,0,0.06172839506172839,24.691358024691358,0)" xlink:href="#aC"/><use transform="matrix(0.06172839506172839,0,0,0.06172839506172839,37.03703703703704,0)" xlink:href="#aD"/></g><path fill="#3a414a" d="M63-220v92h138v28H63V0H30v-248h175v28H63" id="aH"/><path fill="#3a414a" d="M177-190C167-65 218 103 67 71c-23-6-38-20-44-43l32-5c15 47 100 32 89-28v-30C133-14 115 1 83 1 29 1 15-40 15-95c0-56 16-97 71-98 29-1 48 16 59 35 1-10 0-23 2-32h30zM94-22c36 0 50-32 50-73 0-42-14-75-50-75-39 0-46 34-46 75s6 73 46 73" id="aI"/><g id="s"><use transform="matrix(0.06172839506172839,0,0,0.06172839506172839,0,0)" xlink:href="#aH"/><use transform="matrix(0.06172839506172839,0,0,0.06172839506172839,13.518518518518517,0)" xlink:href="#N"/><use transform="matrix(0.06172839506172839,0,0,0.06172839506172839,25.864197530864196,0)" xlink:href="#P"/><use transform="matrix(0.06172839506172839,0,0,0.06172839506172839,30.74074074074074,0)" xlink:href="#K"/><use transform="matrix(0.06172839506172839,0,0,0.06172839506172839,35.617283950617285,0)" xlink:href="#P"/><use transform="matrix(0.06172839506172839,0,0,0.06172839506172839,40.49382716049383,0)" xlink:href="#O"/><use transform="matrix(0.06172839506172839,0,0,0.06172839506172839,52.839506172839506,0)" xlink:href="#aI"/></g><path fill="#3a414a" d="M672-881c271 0 424 163 424 435 0 291-160 466-455 466-367 0-490-287-490-662 0-324 85-568 293-680 129-70 351-59 460 16 73 50 125 123 153 223l-172 31c-31-108-107-172-232-172-259 0-316 252-323 529 59-113 178-186 342-186zm-37 756c186 0 278-124 278-313s-96-304-284-304c-163 0-281 93-281 261 0 157 65 270 168 327 35 19 75 29 119 29" id="aJ"/><g id="t"><use transform="matrix(0.010850694444444444,0,0,0.010850694444444444,0,0)" xlink:href="#aJ"/><use transform="matrix(0.010850694444444444,0,0,0.010850694444444444,13.335503472222221,0)" xlink:href="#aj"/></g><path fill="#333" d="M1157-949c0 209-118 316-279 368L1227 0H895L605-515H432V0H137v-1349h494c317-2 526 111 526 400zM608-744c158 1 248-51 252-193 5-207-223-184-428-183v376h176" id="aK"/><path fill="#333" d="M211 0v-1349h295v1121h616V0H211" id="aL"/><path fill="#333" d="M1229 0H935l-92-330H387L295 0H0l443-1349h344zM615-1167c-46 213-110 412-166 615h332c-56-204-119-401-166-615" id="aM"/><path fill="#333" d="M881 0L558-557 431-415V0H136v-1349h295v599l436-599h343L750-770 1229 0H881" id="aN"/><g id="u"><use transform="matrix(0.010850694444444444,0,0,0.010850694444444444,0,0)" xlink:href="#aK"/><use transform="matrix(0.010850694444444444,0,0,0.010850694444444444,13.335503472222221,0)" xlink:href="#au"/><use transform="matrix(0.010850694444444444,0,0,0.010850694444444444,26.671006944444443,0)" xlink:href="#aL"/><use transform="matrix(0.010850694444444444,0,0,0.010850694444444444,40.006510416666664,0)" xlink:href="#aL"/><use transform="matrix(0.010850694444444444,0,0,0.010850694444444444,53.342013888888886,0)" xlink:href="#ao"/><use transform="matrix(0.010850694444444444,0,0,0.010850694444444444,66.67751736111111,0)" xlink:href="#aM"/><use transform="matrix(0.010850694444444444,0,0,0.010850694444444444,80.01302083333334,0)" xlink:href="#at"/><use transform="matrix(0.010850694444444444,0,0,0.010850694444444444,93.34852430555557,0)" xlink:href="#aN"/></g><g id="v"><use transform="matrix(0.06172839506172839,0,0,0.06172839506172839,0,0)" xlink:href="#aG"/><use transform="matrix(0.06172839506172839,0,0,0.06172839506172839,10.679012345679013,0)" xlink:href="#aG"/><use transform="matrix(0.06172839506172839,0,0,0.06172839506172839,23.02469135802469,0)" xlink:href="#aC"/><use transform="matrix(0.06172839506172839,0,0,0.06172839506172839,35.37037037037037,0)" xlink:href="#aD"/></g><path fill="#e81313" d="M127-220V0H93v-220H8v-28h204v28h-85" id="aO"/><path fill="#e81313" d="M100-194c62-1 85 37 85 99 1 63-27 99-86 99S16-35 15-95c0-66 28-99 85-99zM99-20c44 1 53-31 53-75 0-43-8-75-51-75s-53 32-53 75 10 74 51 75" id="aP"/><path fill="#e81313" d="M210-169c-67 3-38 105-44 169h-31v-121c0-29-5-50-35-48C34-165 62-65 56 0H25l-1-190h30c1 10-1 24 2 32 10-44 99-50 107 0 11-21 27-35 58-36 85-2 47 119 55 194h-31v-121c0-29-5-49-35-48" id="aQ"/><path fill="#e81313" d="M33-154v-36h34v36H33zM33 0v-36h34V0H33" id="aR"/><g id="w"><use transform="matrix(0.06172839506172839,0,0,0.06172839506172839,0,0)" xlink:href="#aO"/><use transform="matrix(0.06172839506172839,0,0,0.06172839506172839,11.049382716049381,0)" xlink:href="#aP"/><use transform="matrix(0.06172839506172839,0,0,0.06172839506172839,23.39506172839506,0)" xlink:href="#aQ"/><use transform="matrix(0.06172839506172839,0,0,0.06172839506172839,41.85185185185185,0)" xlink:href="#aR"/></g><path fill="#e81313" d="M16-82v-28h88v28H16" id="aS"/><path fill="#e81313" d="M27 0v-27h64v-190l-56 39v-29l58-41h29v221h61V0H27" id="aT"/><path fill="#e81313" d="M101-251c68 0 85 55 85 127S166 4 100 4C33 4 14-52 14-124c0-73 17-127 87-127zm-1 229c47 0 54-49 54-102s-4-102-53-102c-51 0-55 48-55 102 0 53 5 102 54 102" id="aU"/><path fill="#e81313" d="M194-70c0 46-34 64-81 66v29H91V-4C42-5 12-27 4-67l30-6c5 28 25 41 57 43v-87c-38-9-76-20-76-67 1-42 33-58 76-59v-23h22v23c45 0 67 20 76 56l-31 6c-5-23-18-35-45-37v78c41 10 81 20 81 70zm-81 41c51 7 71-66 19-77-6-2-12-4-19-6v83zM91-219c-47-6-63 57-18 69 6 2 12 3 18 5v-74" id="aV"/><g id="x"><use transform="matrix(0.06172839506172839,0,0,0.06172839506172839,0,0)" xlink:href="#aS"/><use transform="matrix(0.06172839506172839,0,0,0.06172839506172839,7.345679012345679,0)" xlink:href="#aT"/><use transform="matrix(0.06172839506172839,0,0,0.06172839506172839,19.691358024691358,0)" xlink:href="#aU"/><use transform="matrix(0.06172839506172839,0,0,0.06172839506172839,32.03703703703704,0)" xlink:href="#aV"/></g><path fill="#3a414a" d="M151-220L108 0H75l42-220H32l6-28h203l-5 28h-85" id="aW"/><path fill="#3a414a" d="M66-151c12-25 30-51 66-40l-6 26C45-176 58-65 38 0H6l36-190h30" id="aX"/><path fill="#3a414a" d="M165-48c-4 18 1 34 23 27l-3 20c-29 8-62 0-52-35h-2C116-14 99 4 63 4 30 4 8-16 8-49c0-68 71-67 138-67 10-26 0-56-31-54-26 1-42 9-47 31l-32-5c8-67 160-71 144 15-5 28-9 54-15 81zM42-50c3 52 80 24 89-6 7-12 7-24 11-38-47 1-103-4-100 44" id="aY"/><path fill="#3a414a" d="M67-158c22-48 132-52 116 29L158 0h-32l25-140c3-38-53-32-70-12C52-117 51-52 38 0H6l36-190h30" id="aZ"/><path fill="#3a414a" d="M55-144c13 50 104 24 104 88C159 21 15 23 1-39l26-10c6 40 102 42 102-4-13-50-104-23-104-87 0-71 143-71 148-8l-29 4c-5-35-85-37-89 0" id="ba"/><path fill="#3a414a" d="M76-167L44 0H12l33-167H18l4-23h27c3-47 25-81 82-69l-4 24c-35-8-44 15-46 45h37l-5 23H76" id="bb"/><path fill="#3a414a" d="M111-194c62-3 86 47 72 106H45c-7 38 6 69 45 68 27-1 43-14 53-32l24 11C152-15 129 4 87 4 38 3 12-23 12-71c0-70 32-119 99-123zm44 81c14-66-71-72-95-28-4 8-8 17-11 28h106" id="bc"/><g id="y"><use transform="matrix(0.07407407407407407,0,0,0.07407407407407407,0,0)" xlink:href="#aW"/><use transform="matrix(0.07407407407407407,0,0,0.07407407407407407,14.222222222222221,0)" xlink:href="#aX"/><use transform="matrix(0.07407407407407407,0,0,0.07407407407407407,23.03703703703704,0)" xlink:href="#aY"/><use transform="matrix(0.07407407407407407,0,0,0.07407407407407407,37.85185185185185,0)" xlink:href="#aZ"/><use transform="matrix(0.07407407407407407,0,0,0.07407407407407407,52.66666666666666,0)" xlink:href="#ba"/><use transform="matrix(0.07407407407407407,0,0,0.07407407407407407,65.99999999999999,0)" xlink:href="#bb"/><use transform="matrix(0.07407407407407407,0,0,0.07407407407407407,73.40740740740739,0)" xlink:href="#bc"/><use transform="matrix(0.07407407407407407,0,0,0.07407407407407407,88.2222222222222,0)" xlink:href="#aX"/></g><path fill="#3a414a" d="M151-85c6-55-69-56-94-29H26l34-134h141l-5 27H84l-20 79c41-34 127-11 121 53C199 13 30 38 8-54l29-8C52 0 159-13 151-85" id="bd"/><path fill="#3a414a" d="M16-82c0-90 25-169 113-169 48 0 68 33 68 82C197-79 170 4 84 4 37 4 16-31 16-82zm30 5c0 32 11 55 40 55 69 0 76-79 80-149 2-32-10-55-39-55-69 0-81 81-81 149" id="be"/><path fill="#3a414a" d="M121-140c32 11 67 22 67 65 0 52-40 70-93 71-4 15 0 35-26 29l6-29C29-7 5-27-2-66l29-7c4 27 23 41 53 43l17-87c-33-9-65-20-65-62 0-47 42-62 89-64l5-23h20l-5 24c35 4 58 20 65 51l-28 8c-6-19-19-31-42-34zM100-30c50 8 78-55 32-75-5-2-10-4-16-6zm17-188c-44-7-75 49-31 67 5 2 10 4 16 6" id="bf"/><g id="z"><use transform="matrix(0.07407407407407407,0,0,0.07407407407407407,0,0)" xlink:href="#bd"/><use transform="matrix(0.07407407407407407,0,0,0.07407407407407407,14.814814814814813,0)" xlink:href="#be"/><use transform="matrix(0.07407407407407407,0,0,0.07407407407407407,29.629629629629626,0)" xlink:href="#bf"/></g><path fill="#3a414a" d="M30-147c31-64 166-65 159 27C183-49 158 1 86 4 9 8 1-88 30-147zM88-20c53 0 68-48 68-100 0-31-11-51-44-50-52 1-68 46-68 97 0 32 13 53 44 53" id="bg"/><path fill="#3a414a" d="M248-111c6-24 9-61-24-58-72 9-57 108-77 169h-31l26-142c3-37-50-30-64-10C52-115 50-51 37 0H6l36-190h30c-1 10-6 24-4 32 13-43 101-52 105 5 13-22 29-41 61-41 90 0 28 129 23 194h-31" id="bh"/><g id="A"><use transform="matrix(0.07407407407407407,0,0,0.07407407407407407,0,0)" xlink:href="#bb"/><use transform="matrix(0.07407407407407407,0,0,0.07407407407407407,7.4074074074074066,0)" xlink:href="#aX"/><use transform="matrix(0.07407407407407407,0,0,0.07407407407407407,16.22222222222222,0)" xlink:href="#bg"/><use transform="matrix(0.07407407407407407,0,0,0.07407407407407407,31.037037037037035,0)" xlink:href="#bh"/></g><g id="B"><use transform="matrix(0.07407407407407407,0,0,0.07407407407407407,0,0)" xlink:href="#aW"/><use transform="matrix(0.07407407407407407,0,0,0.07407407407407407,13.777777777777777,0)" xlink:href="#bg"/><use transform="matrix(0.07407407407407407,0,0,0.07407407407407407,28.592592592592588,0)" xlink:href="#bh"/></g><path fill="#3a414a" d="M51-54c-9 22 5 41 31 30L79-1C43 14 10-4 19-52l22-115H19l5-23h22l19-43h21l-9 43h35l-4 23H73" id="bi"/><g id="C"><use transform="matrix(0.07407407407407407,0,0,0.07407407407407407,0,0)" xlink:href="#bi"/><use transform="matrix(0.07407407407407407,0,0,0.07407407407407407,7.4074074074074066,0)" xlink:href="#bg"/></g><path fill="#3a414a" d="M179 0l23-115H67L45 0H11l48-248h34L72-143h135l21-105h32L212 0h-33" id="bj"/><path fill="#3a414a" d="M198-190L69 30C53 58 25 83-20 72c4-11-1-27 19-22 33-1 43-29 59-52L20-190h32L79-34l84-156h35" id="bk"/><path fill="#3a414a" d="M14 0l8-38h34L48 0H14" id="bl"/><g id="D"><use transform="matrix(0.07407407407407407,0,0,0.07407407407407407,0,0)" xlink:href="#bj"/><use transform="matrix(0.07407407407407407,0,0,0.07407407407407407,19.185185185185183,0)" xlink:href="#aY"/><use transform="matrix(0.07407407407407407,0,0,0.07407407407407407,34,0)" xlink:href="#aX"/><use transform="matrix(0.07407407407407407,0,0,0.07407407407407407,42.814814814814824,0)" xlink:href="#aX"/><use transform="matrix(0.07407407407407407,0,0,0.07407407407407407,51.62962962962963,0)" xlink:href="#bk"/><use transform="matrix(0.07407407407407407,0,0,0.07407407407407407,62.96296296296296,0)" xlink:href="#bl"/></g></defs></g></svg>