<svg xmlns="http://www.w3.org/2000/svg" xmlns:xlink="http://www.w3.org/1999/xlink" xmlns:lucid="lucid" width="980.5" height="645.6"><g transform="translate(-139.5 -35.40000000000004)" lucid:page-tab-id="0_0"><path d="M238.32 220h-76.64c-.88 0-1.68-.76-1.68-1.7v-5.12c0-18.18 11.92-33.43 29.52-37.7.48-.1.88-.05 1.28.17 5.92 3.2 12.48 3.2 18.4 0 .4-.22.8-.26 1.2-.18 17.68 4.28 29.6 19.53 29.6 37.7v5.14c0 .94-.8 1.7-1.68 1.7zm-74.88-3.43h73.12v-3.4c.08-16.35-10.56-30.07-26.32-34.17-3.36 1.65-6.48 2.4-10.24 2.4s-6.88-.7-10.24-2.4c-15.76 4.1-26.4 17.82-26.32 34.18z" stroke="#fff" stroke-opacity="0" fill="#232f3e"/><path d="M200 181.3c-3.67 0-6.8-.8-10.03-2.56-9.95-5.58-13.5-18.2-7.93-28.17 5.58-9.95 18.17-13.5 28.1-7.93 6.72 3.76 10.56 10.33 10.56 18.05 0 7.76-3.92 14.36-10.74 18.04-3.22 1.73-6.32 2.56-9.95 2.56zm0-37.83c-6.6-.17-12.26 3.18-15.44 8.96-4.5 8.38-1.4 18.8 6.94 23.34 5.4 2.93 11.36 2.93 16.77 0 5.7-3.1 9-8.68 8.96-15.2-.04-9.5-7.76-17.14-17.22-17.1z" stroke="#fff" stroke-opacity="0" fill="#232f3e"/><use xlink:href="#a" transform="matrix(1,0,0,1,130,229) translate(54 14.4)"/><path d="M280.5 180.5h819v1h-819z" fill="none"/><path d="M300.72 180.5h20.22m10.12 0h20.22m10.1 0h20.23m10.12 0h20.22m10.12 0h20.22m10.1 0h20.23m10.12 0h20.22m10.12 0h20.22m10.1 0h20.23m10.12 0h20.22m10.12 0h20.22m10.1 0h20.23m10.12 0h20.22m10.12 0h20.22m10.1 0h20.23m10.12 0h20.22m10.12 0h20.22m10.1 0h20.23m10.12 0h20.22m10.12 0h20.22m10.1 0h20.23m10.12 0h20.22m10.12 0h20.22m10.1 0h20.23m10.12 0h20.22m10.12 0h20.22m10.1 0h10.12v1h-10.1m-10.12 0h-20.22m-10.12 0h-20.22m-10.1 0h-20.23m-10.12 0h-20.22m-10.12 0h-20.22m-10.1 0h-20.23m-10.12 0h-20.22m-10.12 0h-20.22m-10.1 0h-20.23m-10.12 0h-20.22m-10.12 0h-20.22m-10.1 0h-20.23m-10.12 0h-20.22m-10.12 0h-20.22m-10.1 0h-20.23m-10.12 0h-20.22m-10.12 0h-20.22m-10.1 0h-20.23m-10.12 0h-20.22m-10.12 0h-20.22m-10.1 0h-20.23m-10.12 0h-20.22m-10.12 0h-20.22m-10.1 0h-20.23m-10.12 0h-20.22m-10.12 0h-20.22m-10.1 0H280.5v-1h10.1" stroke="#000" fill="none"/><path d="M280.5 380.5h819v1h-819z" fill="none"/><path d="M300.72 380.5h20.22m10.12 0h20.22m10.1 0h20.23m10.12 0h20.22m10.12 0h20.22m10.1 0h20.23m10.12 0h20.22m10.12 0h20.22m10.1 0h20.23m10.12 0h20.22m10.12 0h20.22m10.1 0h20.23m10.12 0h20.22m10.12 0h20.22m10.1 0h20.23m10.12 0h20.22m10.12 0h20.22m10.1 0h20.23m10.12 0h20.22m10.12 0h20.22m10.1 0h20.23m10.12 0h20.22m10.12 0h20.22m10.1 0h20.23m10.12 0h20.22m10.12 0h20.22m10.1 0h10.12v1h-10.1m-10.12 0h-20.22m-10.12 0h-20.22m-10.1 0h-20.23m-10.12 0h-20.22m-10.12 0h-20.22m-10.1 0h-20.23m-10.12 0h-20.22m-10.12 0h-20.22m-10.1 0h-20.23m-10.12 0h-20.22m-10.12 0h-20.22m-10.1 0h-20.23m-10.12 0h-20.22m-10.12 0h-20.22m-10.1 0h-20.23m-10.12 0h-20.22m-10.12 0h-20.22m-10.1 0h-20.23m-10.12 0h-20.22m-10.12 0h-20.22m-10.1 0h-20.23m-10.12 0h-20.22m-10.12 0h-20.22m-10.1 0h-20.23m-10.12 0h-20.22m-10.12 0h-20.22m-10.1 0H280.5v-1h10.1" stroke="#000" fill="none"/><path d="M238.32 607h-76.64c-.88 0-1.68-.76-1.68-1.7v-5.12c0-18.18 11.92-33.43 29.52-37.7.48-.1.88-.05 1.28.17 5.92 3.2 12.48 3.2 18.4 0 .4-.22.8-.26 1.2-.17 17.68 4.27 29.6 19.52 29.6 37.7v5.13c0 .94-.8 1.7-1.68 1.7zm-74.88-3.43h73.12v-3.4c.08-16.35-10.56-30.07-26.32-34.17-3.36 1.64-6.48 2.4-10.24 2.4s-6.88-.7-10.24-2.4c-15.76 4.1-26.4 17.82-26.32 34.18z" stroke="#fff" stroke-opacity="0" fill="#232f3e"/><path d="M200 568.3c-3.67 0-6.8-.78-10.03-2.56-9.95-5.58-13.5-18.2-7.93-28.17 5.58-9.95 18.17-13.5 28.1-7.93 6.72 3.76 10.56 10.33 10.56 18.05 0 7.76-3.92 14.36-10.74 18.04-3.22 1.73-6.32 2.56-9.95 2.56zm0-37.83c-6.6-.17-12.26 3.18-15.44 8.96-4.5 8.4-1.4 18.8 6.94 23.34 5.4 2.93 11.36 2.93 16.77 0 5.7-3.1 9-8.68 8.96-15.2-.04-9.5-7.76-17.14-17.22-17.1z" stroke="#fff" stroke-opacity="0" fill="#232f3e"/><use xlink:href="#b" transform="matrix(1,0,0,1,130,616) translate(50.55 14.4)"/><path d="M280.5 540.5h819v1h-819z" fill="none"/><path d="M300.72 540.5h20.22m10.12 0h20.22m10.1 0h20.23m10.12 0h20.22m10.12 0h20.22m10.1 0h20.23m10.12 0h20.22m10.12 0h20.22m10.1 0h20.23m10.12 0h20.22m10.12 0h20.22m10.1 0h20.23m10.12 0h20.22m10.12 0h20.22m10.1 0h20.23m10.12 0h20.22m10.12 0h20.22m10.1 0h20.23m10.12 0h20.22m10.12 0h20.22m10.1 0h20.23m10.12 0h20.22m10.12 0h20.22m10.1 0h20.23m10.12 0h20.22m10.12 0h20.22m10.1 0h10.12v1h-10.1m-10.12 0h-20.22m-10.12 0h-20.22m-10.1 0h-20.23m-10.12 0h-20.22m-10.12 0h-20.22m-10.1 0h-20.23m-10.12 0h-20.22m-10.12 0h-20.22m-10.1 0h-20.23m-10.12 0h-20.22m-10.12 0h-20.22m-10.1 0h-20.23m-10.12 0h-20.22m-10.12 0h-20.22m-10.1 0h-20.23m-10.12 0h-20.22m-10.12 0h-20.22m-10.1 0h-20.23m-10.12 0h-20.22m-10.12 0h-20.22m-10.1 0h-20.23m-10.12 0h-20.22m-10.12 0h-20.22m-10.1 0h-20.23m-10.12 0h-20.22m-10.12 0h-20.22m-10.1 0H280.5v-1h10.1" stroke="#000" fill="none"/><path d="M340 80h120v96.4H340z" stroke="#000" stroke-opacity="0" stroke-width="2" fill="#fff" fill-opacity="0"/><use xlink:href="#c" transform="matrix(1,0,0,1,345,85.00000000000001) translate(0 64.5816)"/><use xlink:href="#d" transform="matrix(1,0,0,1,345,85.00000000000001) translate(51.95 64.5816)"/><use xlink:href="#e" transform="matrix(1,0,0,1,345,85.00000000000001) translate(0 86.1816)"/><use xlink:href="#f" transform="matrix(1,0,0,1,345,85.00000000000001) translate(40.9 86.1816)"/><path d="M352.8 183.5V380h76.86V202.62" stroke="#000" stroke-width="3" fill="none"/><path d="M354.3 183.54h-3V182h3zm0-3.54h-3v-1h3z" stroke="#000" stroke-width=".05"/><path d="M429.66 186.85l4.64 14.27h-9.28z" stroke="#000" stroke-width="3"/><use xlink:href="#g" transform="matrix(1,0,0,1,437.6607764058856,251.69018247926158) translate(0 14.4)"/><path d="M440 542h255.2v118H440z" stroke="#000" stroke-opacity="0" stroke-width="2" fill="#fff" fill-opacity="0"/><use xlink:href="#c" transform="matrix(1,0,0,1,445,547) translate(0 14.4)"/><use xlink:href="#d" transform="matrix(1,0,0,1,445,547) translate(51.95 14.4)"/><use xlink:href="#e" transform="matrix(1,0,0,1,445,547) translate(0 36)"/><use xlink:href="#f" transform="matrix(1,0,0,1,445,547) translate(40.9 36)"/><path d="M451.34 538.5V380h63.07v139.38" stroke="#000" stroke-width="3" fill="none"/><path d="M452.84 543h-3v-1h3zm0-3h-3v-1.54h3z" stroke="#000" stroke-width=".05"/><path d="M514.4 535.15l-4.63-14.27h9.28z" stroke="#000" stroke-width="3"/><path d="M520 400h175.2v118H520z" stroke="#000" stroke-opacity="0" stroke-width="2" fill="#fff" fill-opacity="0"/><use xlink:href="#g" transform="matrix(1,0,0,1,525,405) translate(0 58.68125)"/><path d="M640 56.4h300v118H640z" stroke="#000" stroke-opacity="0" stroke-width="2" fill="#fff" fill-opacity="0"/><use xlink:href="#h" transform="matrix(1,0,0,1,645,61.40000000000004) translate(0 86.6888)"/><use xlink:href="#i" transform="matrix(1,0,0,1,645,61.40000000000004) translate(60 86.6888)"/><use xlink:href="#j" transform="matrix(1,0,0,1,645,61.40000000000004) translate(0 108.28880000000001)"/><use xlink:href="#k" transform="matrix(1,0,0,1,645,61.40000000000004) translate(29 108.28880000000001)"/><use xlink:href="#l" transform="matrix(1,0,0,1,645,61.40000000000004) translate(76.95 108.28880000000001)"/><use xlink:href="#m" transform="matrix(1,0,0,1,645,61.40000000000004) translate(92.45 108.28880000000001)"/><path d="M649.68 183.5v20.12h.32V378h70V214.4h-.24v-11.78" stroke="#000" stroke-width="3" fill="none"/><path d="M651.18 183.54h-3V182h3zm0-3.54h-3v-1h3z" stroke="#000" stroke-width=".05"/><path d="M719.76 186.85l4.63 14.27h-9.28z" stroke="#000" stroke-width="3"/><use xlink:href="#n" transform="matrix(1,0,0,1,728,250.84821975185565) translate(0 14.4)"/><path d="M200 413.5c-14.75 0-30.35-4.08-30.35-11.6v-56.8c0-7.52 15.6-11.6 30.35-11.6 14.7 0 30.35 4.08 30.35 11.6v56.8c0 7.52-15.66 11.6-30.35 11.6zm0-76.56c-16.7 0-26.95 4.72-26.95 8.16v56.8c0 3.36 10.2 8.16 26.95 8.16s26.95-4.72 26.95-8.16v-56.8c0-3.44-10.26-8.16-26.95-8.16z" stroke="#fff" stroke-opacity="0" fill="#232f3e"/><path d="M200 355.03c-14.75 0-30.35-4.07-30.35-11.62h3.4c0 3.4 10.2 8.23 26.95 8.23s26.95-4.78 26.95-8.22h3.4c0 7.56-15.66 11.63-30.35 11.63z" stroke="#fff" stroke-opacity="0" fill="#232f3e"/><use xlink:href="#o" transform="matrix(1,0,0,1,139.65,422.5) translate(23.5 14.4)"/><path d="M480 78h120v96.4H480z" stroke="#000" stroke-opacity="0" stroke-width="2" fill="#fff" fill-opacity="0"/><g><use xlink:href="#p" transform="matrix(1,0,0,1,485,83.00000000000003) translate(0 85.979424)"/><use xlink:href="#q" transform="matrix(1,0,0,1,485,83.00000000000003) translate(25 85.979424)"/><use xlink:href="#r" transform="matrix(1,0,0,1,485,83.00000000000003) translate(40.5 85.979424)"/><use xlink:href="#l" transform="matrix(1,0,0,1,485,83.00000000000003) translate(55.5 85.979424)"/><use xlink:href="#m" transform="matrix(1,0,0,1,485,83.00000000000003) translate(71 85.979424)"/></g><path d="M600 542h255.2v118H600z" stroke="#000" stroke-opacity="0" stroke-width="2" fill="#fff" fill-opacity="0"/><g><use xlink:href="#p" transform="matrix(1,0,0,1,605,547) translate(0 14.4)"/><use xlink:href="#q" transform="matrix(1,0,0,1,605,547) translate(25 14.4)"/><use xlink:href="#r" transform="matrix(1,0,0,1,605,547) translate(40.5 14.4)"/><use xlink:href="#l" transform="matrix(1,0,0,1,605,547) translate(55.5 14.4)"/><use xlink:href="#m" transform="matrix(1,0,0,1,605,547) translate(71 14.4)"/></g><path d="M798.23 538.5V379h64.84v139.38" stroke="#000" stroke-width="3" fill="none"/><path d="M799.73 543h-3v-1h3zm0-3h-3v-1.54h3z" stroke="#000" stroke-width=".05"/><path d="M863.07 534.15l-4.64-14.27h9.28z" stroke="#000" stroke-width="3"/><path d="M800 542h255.2v118H800z" stroke="#000" stroke-opacity="0" stroke-width="2" fill="#fff" fill-opacity="0"/><g><use xlink:href="#h" transform="matrix(1,0,0,1,805,547) translate(0 14.4)"/><use xlink:href="#i" transform="matrix(1,0,0,1,805,547) translate(60 14.4)"/><use xlink:href="#j" transform="matrix(1,0,0,1,805,547) translate(0 36)"/><use xlink:href="#k" transform="matrix(1,0,0,1,805,547) translate(29 36)"/><use xlink:href="#s" transform="matrix(1,0,0,1,805,547) translate(76.95 36)"/></g><path d="M880 400h175.2v118H880z" stroke="#000" stroke-opacity="0" stroke-width="2" fill="#fff" fill-opacity="0"/><g><use xlink:href="#n" transform="matrix(1,0,0,1,884.9999999999999,405) translate(0 58.68125)"/></g><defs><path d="M160-131c35 5 61 23 61 61C221 17 115-2 30 0v-248c76 3 177-17 177 60 0 33-19 50-47 57zm-97-11c50-1 110 9 110-42 0-47-63-36-110-37v79zm0 115c55-2 124 14 124-45 0-56-70-42-124-44v89" id="t"/><path d="M100-194c62-1 85 37 85 99 1 63-27 99-86 99S16-35 15-95c0-66 28-99 85-99zM99-20c44 1 53-31 53-75 0-43-8-75-51-75s-53 32-53 75 10 74 51 75" id="u"/><path d="M115-194c53 0 69 39 70 98 0 66-23 100-70 100C84 3 66-7 56-30L54 0H23l1-261h32v101c10-23 28-34 59-34zm-8 174c40 0 45-34 45-75 0-40-5-75-45-74-42 0-51 32-51 76 0 43 10 73 51 73" id="v"/><g id="a"><use transform="matrix(0.05,0,0,0.05,0,0)" xlink:href="#t"/><use transform="matrix(0.05,0,0,0.05,12,0)" xlink:href="#u"/><use transform="matrix(0.05,0,0,0.05,22,0)" xlink:href="#v"/></g><path d="M205 0l-28-72H64L36 0H1l101-248h38L239 0h-34zm-38-99l-47-123c-12 45-31 82-46 123h93" id="w"/><path d="M24 0v-261h32V0H24" id="x"/><path d="M24-231v-30h32v30H24zM24 0v-190h32V0H24" id="y"/><path d="M96-169c-40 0-48 33-48 73s9 75 48 75c24 0 41-14 43-38l32 2c-6 37-31 61-74 61-59 0-76-41-82-99-10-93 101-131 147-64 4 7 5 14 7 22l-32 3c-4-21-16-35-41-35" id="z"/><path d="M100-194c63 0 86 42 84 106H49c0 40 14 67 53 68 26 1 43-12 49-29l28 8c-11 28-37 45-77 45C44 4 14-33 15-96c1-61 26-98 85-98zm52 81c6-60-76-77-97-28-3 7-6 17-6 28h103" id="A"/><g id="b"><use transform="matrix(0.05,0,0,0.05,0,0)" xlink:href="#w"/><use transform="matrix(0.05,0,0,0.05,12,0)" xlink:href="#x"/><use transform="matrix(0.05,0,0,0.05,15.949999999999998,0)" xlink:href="#y"/><use transform="matrix(0.05,0,0,0.05,19.9,0)" xlink:href="#z"/><use transform="matrix(0.05,0,0,0.05,28.899999999999995,0)" xlink:href="#A"/></g><path d="M135-143c-3-34-86-38-87 0 15 53 115 12 119 90S17 21 10-45l28-5c4 36 97 45 98 0-10-56-113-15-118-90-4-57 82-63 122-42 12 7 21 19 24 35" id="B"/><path d="M59-47c-2 24 18 29 38 22v24C64 9 27 4 27-40v-127H5v-23h24l9-43h21v43h35v23H59v120" id="C"/><g id="c"><use transform="matrix(0.05,0,0,0.05,0,0)" xlink:href="#B"/><use transform="matrix(0.05,0,0,0.05,9,0)" xlink:href="#A"/><use transform="matrix(0.05,0,0,0.05,19,0)" xlink:href="#x"/><use transform="matrix(0.05,0,0,0.05,22.95,0)" xlink:href="#A"/><use transform="matrix(0.05,0,0,0.05,32.95,0)" xlink:href="#z"/><use transform="matrix(0.05,0,0,0.05,41.95,0)" xlink:href="#C"/></g><path d="M108 0H70L1-190h34L89-25l56-165h34" id="D"/><path d="M141-36C126-15 110 5 73 4 37 3 15-17 15-53c-1-64 63-63 125-63 3-35-9-54-41-54-24 1-41 7-42 31l-33-3c5-37 33-52 76-52 45 0 72 20 72 64v82c-1 20 7 32 28 27v20c-31 9-61-2-59-35zM48-53c0 20 12 33 32 33 41-3 63-29 60-74-43 2-92-5-92 41" id="E"/><path d="M84 4C-5 8 30-112 23-190h32v120c0 31 7 50 39 49 72-2 45-101 50-169h31l1 190h-30c-1-10 1-25-2-33-11 22-28 36-60 37" id="F"/><g id="d"><use transform="matrix(0.05,0,0,0.05,0,0)" xlink:href="#D"/><use transform="matrix(0.05,0,0,0.05,9,0)" xlink:href="#E"/><use transform="matrix(0.05,0,0,0.05,19,0)" xlink:href="#x"/><use transform="matrix(0.05,0,0,0.05,22.95,0)" xlink:href="#F"/><use transform="matrix(0.05,0,0,0.05,32.95,0)" xlink:href="#A"/></g><path d="M101-234c-31-9-42 10-38 44h38v23H63V0H32v-167H5v-23h27c-7-52 17-82 69-68v24" id="G"/><path d="M114-163C36-179 61-72 57 0H25l-1-190h30c1 12-1 29 2 39 6-27 23-49 58-41v29" id="H"/><path d="M210-169c-67 3-38 105-44 169h-31v-121c0-29-5-50-35-48C34-165 62-65 56 0H25l-1-190h30c1 10-1 24 2 32 10-44 99-50 107 0 11-21 27-35 58-36 85-2 47 119 55 194h-31v-121c0-29-5-49-35-48" id="I"/><g id="e"><use transform="matrix(0.05,0,0,0.05,0,0)" xlink:href="#G"/><use transform="matrix(0.05,0,0,0.05,5,0)" xlink:href="#H"/><use transform="matrix(0.05,0,0,0.05,10.95,0)" xlink:href="#u"/><use transform="matrix(0.05,0,0,0.05,20.95,0)" xlink:href="#I"/></g><path d="M117-194c89-4 53 116 60 194h-32v-121c0-31-8-49-39-48C34-167 62-67 57 0H25l-1-190h30c1 10-1 24 2 32 11-22 29-35 61-36" id="J"/><g id="f"><use transform="matrix(0.05,0,0,0.05,0,0)" xlink:href="#z"/><use transform="matrix(0.05,0,0,0.05,9,0)" xlink:href="#u"/><use transform="matrix(0.05,0,0,0.05,19,0)" xlink:href="#F"/><use transform="matrix(0.05,0,0,0.05,29,0)" xlink:href="#J"/><use transform="matrix(0.05,0,0,0.05,39,0)" xlink:href="#C"/><use transform="matrix(0.05,0,0,0.05,44,0)" xlink:href="#A"/><use transform="matrix(0.05,0,0,0.05,54,0)" xlink:href="#H"/></g><path d="M165-50V0h-47v-50H5v-38l105-160h55v161h33v37h-33zm-47-37l2-116L46-87h72" id="K"/><path d="M23 0v-37h61v-169l-59 37v-38l62-41h46v211h57V0H23" id="L"/><g id="g"><use transform="matrix(0.05,0,0,0.05,0,0)" xlink:href="#K"/><use transform="matrix(0.05,0,0,0.05,10,0)" xlink:href="#L"/></g><path d="M115-194c55 1 70 41 70 98S169 2 115 4C84 4 66-9 55-30l1 105H24l-1-265h31l2 30c10-21 28-34 59-34zm-8 174c40 0 45-34 45-75s-6-73-45-74c-42 0-51 32-51 76 0 43 10 73 51 73" id="M"/><path d="M85-194c31 0 48 13 60 33l-1-100h32l1 261h-30c-2-10 0-23-3-31C134-8 116 4 85 4 32 4 16-35 15-94c0-66 23-100 70-100zm9 24c-40 0-46 34-46 75 0 40 6 74 45 74 42 0 51-32 51-76 0-42-9-74-50-73" id="N"/><g id="h"><use transform="matrix(0.05,0,0,0.05,0,0)" xlink:href="#F"/><use transform="matrix(0.05,0,0,0.05,10,0)" xlink:href="#M"/><use transform="matrix(0.05,0,0,0.05,20,0)" xlink:href="#N"/><use transform="matrix(0.05,0,0,0.05,30,0)" xlink:href="#E"/><use transform="matrix(0.05,0,0,0.05,40,0)" xlink:href="#C"/><use transform="matrix(0.05,0,0,0.05,45,0)" xlink:href="#A"/></g><g id="i"><use transform="matrix(0.05,0,0,0.05,0,0)" xlink:href="#z"/><use transform="matrix(0.05,0,0,0.05,9,0)" xlink:href="#u"/><use transform="matrix(0.05,0,0,0.05,19,0)" xlink:href="#F"/><use transform="matrix(0.05,0,0,0.05,29,0)" xlink:href="#J"/><use transform="matrix(0.05,0,0,0.05,39,0)" xlink:href="#C"/><use transform="matrix(0.05,0,0,0.05,44,0)" xlink:href="#A"/><use transform="matrix(0.05,0,0,0.05,54,0)" xlink:href="#H"/></g><g id="j"><use transform="matrix(0.05,0,0,0.05,0,0)" xlink:href="#B"/><use transform="matrix(0.05,0,0,0.05,9,0)" xlink:href="#A"/><use transform="matrix(0.05,0,0,0.05,19,0)" xlink:href="#C"/></g><g id="k"><use transform="matrix(0.05,0,0,0.05,0,0)" xlink:href="#D"/><use transform="matrix(0.05,0,0,0.05,9,0)" xlink:href="#E"/><use transform="matrix(0.05,0,0,0.05,19,0)" xlink:href="#x"/><use transform="matrix(0.05,0,0,0.05,22.95,0)" xlink:href="#F"/><use transform="matrix(0.05,0,0,0.05,32.95,0)" xlink:href="#A"/></g><path d="M18-150v-26h174v26H18zm0 90v-26h174v26H18" id="O"/><use transform="matrix(0.05,0,0,0.05,0,0)" xlink:href="#O" id="l"/><path d="M155-56V0h-30v-56H8v-25l114-167h33v167h35v25h-35zm-30-156c-27 46-58 90-88 131h88v-131" id="P"/><path d="M101-251c82-7 93 87 43 132L82-64C71-53 59-42 53-27h129V0H18c2-99 128-94 128-182 0-28-16-43-45-43s-46 15-49 41l-32-3c6-41 34-60 81-64" id="Q"/><g id="m"><use transform="matrix(0.05,0,0,0.05,0,0)" xlink:href="#P"/><use transform="matrix(0.05,0,0,0.05,10,0)" xlink:href="#Q"/></g><path d="M140-251c80 0 125 45 125 126S219 4 139 4C58 4 15-44 15-125s44-126 125-126zm-1 214c52 0 73-35 73-88 0-50-21-86-72-86-52 0-73 35-73 86s22 88 72 88" id="R"/><path d="M195 0l-88-114-31 24V0H24v-248h52v113l112-113h60L142-143 257 0h-62" id="S"/><g id="n"><use transform="matrix(0.05,0,0,0.05,0,0)" xlink:href="#R"/><use transform="matrix(0.05,0,0,0.05,14,0)" xlink:href="#S"/></g><g id="o"><use transform="matrix(0.05,0,0,0.05,0,0)" xlink:href="#N"/><use transform="matrix(0.05,0,0,0.05,10,0)" xlink:href="#E"/><use transform="matrix(0.05,0,0,0.05,20,0)" xlink:href="#C"/><use transform="matrix(0.05,0,0,0.05,25,0)" xlink:href="#E"/><use transform="matrix(0.05,0,0,0.05,35,0)" xlink:href="#v"/><use transform="matrix(0.05,0,0,0.05,45,0)" xlink:href="#E"/><use transform="matrix(0.05,0,0,0.05,55,0)" xlink:href="#B"/><use transform="matrix(0.05,0,0,0.05,64,0)" xlink:href="#A"/></g><path d="M27 0v-27h64v-190l-56 39v-29l58-41h29v221h61V0H27" id="T"/><g id="p"><use transform="matrix(0.05,0,0,0.05,0,0)" xlink:href="#P"/><use transform="matrix(0.05,0,0,0.05,10,0)" xlink:href="#T"/></g><path d="M118-107v75H92v-75H18v-26h74v-75h26v75h74v26h-74" id="U"/><use transform="matrix(0.05,0,0,0.05,0,0)" xlink:href="#U" id="q"/><use transform="matrix(0.05,0,0,0.05,0,0)" xlink:href="#T" id="r"/><use transform="matrix(0.05,0,0,0.05,0,0)" xlink:href="#O" id="s"/></defs></g></svg>
