<svg xmlns="http://www.w3.org/2000/svg" xmlns:xlink="http://www.w3.org/1999/xlink" xmlns:lucid="lucid" width="970" height="402"><g transform="translate(-47 -493)" lucid:page-tab-id="0_0"><path d="M80 550h502v-10l18 20-18 20v-10H80z" stroke="#000" stroke-width="2" fill="#e5e5e5"/><path d="M180 660h80v60h-80z" stroke="#000" stroke-width="2" fill="#fff"/><use xlink:href="#a" transform="matrix(1,0,0,1,185,665) translate(19.916666666666664 29.118055555555557)"/><path d="M220 808v-85.18" stroke="#000" stroke-width="2" fill="none"/><path d="M221 809h-2v-1.03h2z"/><path d="M230.18 740.18L220 722.96l-10.18 17.22" stroke="#000" stroke-width="2" fill="none"/><path d="M120 740h100v60H120z" stroke="#000" stroke-opacity="0" stroke-width="2" fill="#fff" fill-opacity="0"/><use xlink:href="#b" transform="matrix(1,0,0,1,125,745) translate(0 16)"/><use xlink:href="#c" transform="matrix(1,0,0,1,125,745) translate(0 40)"/><path d="M220 520h240v40H220z" stroke="#000" stroke-opacity="0" stroke-width="2" fill="#fff" fill-opacity="0"/><use xlink:href="#d" transform="matrix(1,0,0,1,225,525) translate(32.47222222222224 16)"/><use xlink:href="#e" transform="matrix(1,0,0,1,225,525) translate(183.13888888888886 16)"/><path d="M80 810h502v-10l18 20-18 20v-10H80z" stroke="#000" stroke-width="2" fill="#e5e5e5"/><path d="M405 660h80v60h-80z" stroke="#000" stroke-width="2" fill="#fff"/><use xlink:href="#a" transform="matrix(1,0,0,1,410,665) translate(19.916666666666664 29.118055555555557)"/><path d="M447 572v85.18" stroke="#000" stroke-width="2" fill="none"/><path d="M448 571v1.03h-2V571z"/><path d="M436.82 639.82L447 657.04l10.18-17.22" stroke="#000" stroke-width="2" fill="none"/><path d="M360 580h100v60H360z" stroke="#000" stroke-opacity="0" stroke-width="2" fill="#fff" fill-opacity="0"/><use xlink:href="#f" transform="matrix(1,0,0,1,365,585) translate(0 16)"/><use xlink:href="#g" transform="matrix(1,0,0,1,365,585) translate(0 40)"/><path d="M220 840h240v40H220z" stroke="#000" stroke-opacity="0" stroke-width="2" fill="#fff" fill-opacity="0"/><use xlink:href="#d" transform="matrix(1,0,0,1,225,845) translate(32.47222222222224 16)"/><use xlink:href="#h" transform="matrix(1,0,0,1,225,845) translate(183.13888888888886 16)"/><path d="M620 530h100v60H620z" stroke="#000" stroke-opacity="0" stroke-width="2" fill="#fff" fill-opacity="0"/><use xlink:href="#i" transform="matrix(1,0,0,1,625,535) translate(0 16)"/><use xlink:href="#j" transform="matrix(1,0,0,1,625,535) translate(0 40)"/><path d="M620 790h140v60H620z" stroke="#000" stroke-opacity="0" stroke-width="2" fill="#fff" fill-opacity="0"/><use xlink:href="#k" transform="matrix(1,0,0,1,625,795) translate(0 16)"/><use xlink:href="#l" transform="matrix(1,0,0,1,625,795) translate(0 40)"/><path d="M820 680h164v129.33H820z" stroke="#000" stroke-opacity="0" stroke-width="2" fill="#fff" fill-opacity="0"/><use xlink:href="#m" transform="matrix(1,0,0,1,825,685) translate(2.4111111111111114 40.27777777777778)"/><use xlink:href="#n" transform="matrix(1,0,0,1,825,685) translate(96.3 40.27777777777778)"/><use xlink:href="#o" transform="matrix(1,0,0,1,825,685) translate(17.144444444444446 64.14444444444445)"/><use xlink:href="#p" transform="matrix(1,0,0,1,825,685) translate(108.65555555555555 64.14444444444445)"/><use xlink:href="#q" transform="matrix(1,0,0,1,825,685) translate(17.21111111111111 88.01111111111112)"/><path d="M819 744.67l-277.2.75-45.06 2.7-21.7 2.24-12.1 1.77-7.42 1.4-4.9 1.14-3.38.94-1.24.4-2.1.63-2.14.55-2.17.46-2.24.37-2.3.3-2.38.2-2.47.1h-2.57l-2.72-.13-2.87-.25-3.08-.4-3.3-.56-3.6-.77-3.97-1.03-4.4-1.34-5.03-1.76-5.85-2.33-7.1-3.2-9.33-4.64-15.2-8.44-46.87-27.18-9.38-4.7-7.18-3.2-5.92-2.36-5.08-1.78-4.47-1.36-2.97-.77" fill="none"/><path d="M819 744.67l-9.76.03m-9.75.02l-19.53.06m-9.75.02l-19.52.05m-9.75.03l-19.5.05m-9.77.03l-19.5.05m-9.77.04l-19.5.05m-9.76.02l-19.5.05m-9.77.03l-19.5.05m-9.77.03l-19.5.05m-9.76.03l-19.52.05m-9.74.37l-19.48 1.17m-9.74.58l-10.12.6-9.32.97m-9.7 1l-2.68.26-12.1 1.77-4.52.85m-9.5 2.17l-1.68.46-1.24.4-2.1.63-2.14.55-2.17.46-2.24.37-2.3.3-2.38.2-2.47.1h-.4m-9.74-.63l-1.1-.14-3.32-.57-3.6-.77-3.96-1.03-4.4-1.34-2.5-.88m-9.1-3.54l-6.4-2.85-9.3-4.65-1.84-1.02m-8.53-4.74l-4.82-2.68-12.1-7m-8.44-4.9l-16.88-9.8m-8.44-4.9l-1.02-.58-9.38-4.7-7.17-3.2m-9.1-3.47l-1.9-.66-4.48-1.36-2.97-.77" stroke="#999" stroke-width="2" fill="none"/><path d="M820 745.67h-1.02v-2H820z" fill="#999"/><path d="M264.2 690.42l14.76-2.73-1.2 9.18z" stroke="#999" stroke-width="2" fill="#999"/><path d="M819 744.66h-.74l-2.45-.14-3.6-.35-5.66-.78-9.93-1.82-20.84-4.72L623.33 696l-9.16-1.66-11.27-1.56-14.34-1.38-19.5-1.03-35-.33-29.56.1" fill="none"/><path d="M819 744.66h-.74l-2.45-.14-3.6-.35-2.88-.4m-9.6-1.62l-3.1-.57-15.9-3.6m-9.43-2.32l-18.8-5.04m-9.4-2.52l-18.8-5.03m-9.4-2.52l-18.78-5.04m-9.4-2.5l-18.8-5.04m-9.38-2.52l-18.8-5.04m-9.4-2.52l-7-1.88-9.17-1.66-2.85-.4m-9.64-1.28l-13.12-1.26-6.26-.33m-9.72-.52l-3.52-.18-15.93-.15m-9.72-.1l-9.33-.08-10.12.04m-9.73.03l-9.72.04" stroke="#999" stroke-width="2" fill="none"/><path d="M820 743.67v2h-1.04l.02-2z" fill="#999"/><path d="M489.24 690.02l14.3-4.52-.07 9.27z" stroke="#999" stroke-width="2" fill="#999"/><defs><path d="M24-248c120-7 223 5 221 122C244-46 201 0 124 0H24v-248zM76-40c74 7 117-18 117-86 0-67-45-88-117-82v168" id="r"/><path d="M23 0v-37h61v-169l-59 37v-38l62-41h46v211h57V0H23" id="s"/><g id="a"><use transform="matrix(0.06790123456790124,0,0,0.06790123456790124,0,0)" xlink:href="#r"/><use transform="matrix(0.06790123456790124,0,0,0.06790123456790124,17.58641975308642,0)" xlink:href="#s"/></g><path d="M24 0v-54h51V0H24" id="t"/><g id="b"><use transform="matrix(0.05555555555555555,0,0,0.05555555555555555,0,0)" xlink:href="#s"/><use transform="matrix(0.05555555555555555,0,0,0.05555555555555555,11.11111111111111,0)" xlink:href="#t"/></g><path d="M232-93c-1 65-40 97-104 97C67 4 28-28 28-90v-158h33c8 89-33 224 67 224 102 0 64-133 71-224h33v155" id="u"/><path d="M30-248c87 1 191-15 191 75 0 78-77 80-158 76V0H30v-248zm33 125c57 0 124 11 124-50 0-59-68-47-124-48v98" id="v"/><path d="M30-248c118-7 216 8 213 122C240-48 200 0 122 0H30v-248zM63-27c89 8 146-16 146-99s-60-101-146-95v194" id="w"/><path d="M205 0l-28-72H64L36 0H1l101-248h38L239 0h-34zm-38-99l-47-123c-12 45-31 82-46 123h93" id="x"/><path d="M127-220V0H93v-220H8v-28h204v28h-85" id="y"/><path d="M30 0v-248h187v28H63v79h144v27H63v87h162V0H30" id="z"/><g id="c"><use transform="matrix(0.05555555555555555,0,0,0.05555555555555555,0,0)" xlink:href="#u"/><use transform="matrix(0.05555555555555555,0,0,0.05555555555555555,14.388888888888888,0)" xlink:href="#v"/><use transform="matrix(0.05555555555555555,0,0,0.05555555555555555,27.72222222222222,0)" xlink:href="#w"/><use transform="matrix(0.05555555555555555,0,0,0.05555555555555555,42.11111111111111,0)" xlink:href="#x"/><use transform="matrix(0.05555555555555555,0,0,0.05555555555555555,53.94444444444444,0)" xlink:href="#y"/><use transform="matrix(0.05555555555555555,0,0,0.05555555555555555,66.11111111111111,0)" xlink:href="#z"/></g><path d="M136-208V0H84v-208H4v-40h212v40h-80" id="A"/><path d="M240-174c0 40-23 61-54 70L253 0h-59l-57-94H76V0H24v-248c93 4 217-23 216 74zM76-134c48-2 112 12 112-38 0-48-66-32-112-35v73" id="B"/><path d="M199 0l-22-63H83L61 0H9l90-248h61L250 0h-51zm-33-102l-36-108c-10 38-24 72-36 108h72" id="C"/><path d="M175 0L67-191c6 58 2 128 3 191H24v-248h59L193-55c-6-58-2-129-3-193h46V0h-61" id="D"/><path d="M169-182c-1-43-94-46-97-3 18 66 151 10 154 114 3 95-165 93-204 36-6-8-10-19-12-30l50-8c3 46 112 56 116 5-17-69-150-10-154-114-4-87 153-88 188-35 5 8 8 18 10 28" id="E"/><path d="M67-125c0 53 21 87 73 88 37 1 54-22 65-47l45 17C233-25 199 4 140 4 58 4 20-42 15-125 8-235 124-281 211-232c18 10 29 29 36 50l-46 12c-8-25-30-41-62-41-52 0-71 34-72 86" id="F"/><path d="M24 0v-248h52V0H24" id="G"/><path d="M140-251c80 0 125 45 125 126S219 4 139 4C58 4 15-44 15-125s44-126 125-126zm-1 214c52 0 73-35 73-88 0-50-21-86-72-86-52 0-73 35-73 86s22 88 72 88" id="H"/><g id="d"><use transform="matrix(0.05555555555555555,0,0,0.05555555555555555,0,0)" xlink:href="#A"/><use transform="matrix(0.05555555555555555,0,0,0.05555555555555555,12.166666666666666,0)" xlink:href="#B"/><use transform="matrix(0.05555555555555555,0,0,0.05555555555555555,26.555555555555554,0)" xlink:href="#C"/><use transform="matrix(0.05555555555555555,0,0,0.05555555555555555,40.94444444444444,0)" xlink:href="#D"/><use transform="matrix(0.05555555555555555,0,0,0.05555555555555555,55.33333333333333,0)" xlink:href="#E"/><use transform="matrix(0.05555555555555555,0,0,0.05555555555555555,68.66666666666666,0)" xlink:href="#C"/><use transform="matrix(0.05555555555555555,0,0,0.05555555555555555,83.05555555555554,0)" xlink:href="#F"/><use transform="matrix(0.05555555555555555,0,0,0.05555555555555555,97.44444444444443,0)" xlink:href="#A"/><use transform="matrix(0.05555555555555555,0,0,0.05555555555555555,109.6111111111111,0)" xlink:href="#G"/><use transform="matrix(0.05555555555555555,0,0,0.05555555555555555,115.16666666666666,0)" xlink:href="#H"/><use transform="matrix(0.05555555555555555,0,0,0.05555555555555555,130.7222222222222,0)" xlink:href="#D"/></g><use transform="matrix(0.05555555555555555,0,0,0.05555555555555555,0,0)" xlink:href="#C" id="e"/><path d="M182-182c0 78-84 86-111 141h115V0H12c-6-101 99-100 120-180 1-22-12-31-33-32-23 0-32 14-35 34l-49-3c5-45 32-70 84-70 51 0 83 22 83 69" id="I"/><g id="f"><use transform="matrix(0.05555555555555555,0,0,0.05555555555555555,0,0)" xlink:href="#I"/><use transform="matrix(0.05555555555555555,0,0,0.05555555555555555,11.11111111111111,0)" xlink:href="#t"/></g><path d="M185-189c-5-48-123-54-124 2 14 75 158 14 163 119 3 78-121 87-175 55-17-10-28-26-33-46l33-7c5 56 141 63 141-1 0-78-155-14-162-118-5-82 145-84 179-34 5 7 8 16 11 25" id="J"/><path d="M30 0v-248h33v221h125V0H30" id="K"/><path d="M212-179c-10-28-35-45-73-45-59 0-87 40-87 99 0 60 29 101 89 101 43 0 62-24 78-52l27 14C228-24 195 4 139 4 59 4 22-46 18-125c-6-104 99-153 187-111 19 9 31 26 39 46" id="L"/><g id="g"><use transform="matrix(0.05555555555555555,0,0,0.05555555555555555,0,0)" xlink:href="#J"/><use transform="matrix(0.05555555555555555,0,0,0.05555555555555555,13.333333333333332,0)" xlink:href="#z"/><use transform="matrix(0.05555555555555555,0,0,0.05555555555555555,26.666666666666664,0)" xlink:href="#K"/><use transform="matrix(0.05555555555555555,0,0,0.05555555555555555,37.77777777777777,0)" xlink:href="#z"/><use transform="matrix(0.05555555555555555,0,0,0.05555555555555555,51.1111111111111,0)" xlink:href="#L"/><use transform="matrix(0.05555555555555555,0,0,0.05555555555555555,65.49999999999999,0)" xlink:href="#y"/></g><path d="M182-130c37 4 62 22 62 59C244 23 116-4 24 0v-248c84 5 203-23 205 63 0 31-19 50-47 55zM76-148c40-3 101 13 101-30 0-44-60-28-101-31v61zm0 110c48-3 116 14 116-37 0-48-69-32-116-35v72" id="M"/><use transform="matrix(0.05555555555555555,0,0,0.05555555555555555,0,0)" xlink:href="#M" id="h"/><path d="M165-50V0h-47v-50H5v-38l105-160h55v161h33v37h-33zm-47-37l2-116L46-87h72" id="N"/><g id="i"><use transform="matrix(0.05555555555555555,0,0,0.05555555555555555,0,0)" xlink:href="#N"/><use transform="matrix(0.05555555555555555,0,0,0.05555555555555555,11.11111111111111,0)" xlink:href="#t"/></g><path d="M140-251c81 0 123 46 123 126C263-46 219 4 140 4 59 4 17-45 17-125s42-126 123-126zm0 227c63 0 89-41 89-101s-29-99-89-99c-61 0-89 39-89 99S79-25 140-24" id="O"/><path d="M240 0l2-218c-23 76-54 145-80 218h-23L58-218 59 0H30v-248h44l77 211c21-75 51-140 76-211h43V0h-30" id="P"/><path d="M33 0v-248h34V0H33" id="Q"/><g id="j"><use transform="matrix(0.05555555555555555,0,0,0.05555555555555555,0,0)" xlink:href="#L"/><use transform="matrix(0.05555555555555555,0,0,0.05555555555555555,14.388888888888888,0)" xlink:href="#O"/><use transform="matrix(0.05555555555555555,0,0,0.05555555555555555,29.944444444444443,0)" xlink:href="#P"/><use transform="matrix(0.05555555555555555,0,0,0.05555555555555555,46.55555555555556,0)" xlink:href="#P"/><use transform="matrix(0.05555555555555555,0,0,0.05555555555555555,63.16666666666668,0)" xlink:href="#Q"/><use transform="matrix(0.05555555555555555,0,0,0.05555555555555555,68.72222222222223,0)" xlink:href="#y"/></g><path d="M128-127c34 4 56 21 59 58 7 91-148 94-172 28-4-9-6-17-7-26l51-5c1 24 16 35 40 36 23 0 39-12 38-36-1-31-31-36-65-34v-40c32 2 59-3 59-33 0-20-13-33-34-33s-33 13-35 32l-50-3c6-44 37-68 86-68 50 0 83 20 83 66 0 35-22 52-53 58" id="R"/><g id="k"><use transform="matrix(0.05555555555555555,0,0,0.05555555555555555,0,0)" xlink:href="#R"/><use transform="matrix(0.05555555555555555,0,0,0.05555555555555555,11.11111111111111,0)" xlink:href="#t"/></g><path d="M233-177c-1 41-23 64-60 70L243 0h-38l-65-103H63V0H30v-248c88 3 205-21 203 71zM63-129c60-2 137 13 137-47 0-61-80-42-137-45v92" id="S"/><path d="M160-131c35 5 61 23 61 61C221 17 115-2 30 0v-248c76 3 177-17 177 60 0 33-19 50-47 57zm-97-11c50-1 110 9 110-42 0-47-63-36-110-37v79zm0 115c55-2 124 14 124-45 0-56-70-42-124-44v89" id="T"/><path d="M194 0L95-120 63-95V0H30v-248h33v124l119-124h40L117-140 236 0h-42" id="U"/><g id="l"><use transform="matrix(0.05555555555555555,0,0,0.05555555555555555,0,0)" xlink:href="#S"/><use transform="matrix(0.05555555555555555,0,0,0.05555555555555555,14.388888888888888,0)" xlink:href="#O"/><use transform="matrix(0.05555555555555555,0,0,0.05555555555555555,29.944444444444443,0)" xlink:href="#K"/><use transform="matrix(0.05555555555555555,0,0,0.05555555555555555,41.05555555555556,0)" xlink:href="#K"/><use transform="matrix(0.05555555555555555,0,0,0.05555555555555555,52.16666666666667,0)" xlink:href="#T"/><use transform="matrix(0.05555555555555555,0,0,0.05555555555555555,65.5,0)" xlink:href="#x"/><use transform="matrix(0.05555555555555555,0,0,0.05555555555555555,78.83333333333333,0)" xlink:href="#L"/><use transform="matrix(0.05555555555555555,0,0,0.05555555555555555,93.22222222222221,0)" xlink:href="#U"/></g><path fill="#666" d="M173-13c102-20 79-163 100-261 0-7 2-19 3-27-8-47 57-27 68-2 40 53 67 131 101 192l-1-1c19 54 59 97 104 92 43-5 70-16 73-58 13-23 7-37-3-71-6-23-15-54-34-88-35-66-68-105-104-161 56-50 105-104 147-170 6-29 17-55 20-85 6-72-103-151-170-159l2 1c-139-21-303 2-392 48-38 20-46 85-18 123 36 48 34 126 35 220 2 188-7 191-22 334-6 57 41 80 92 72zm83-631c46-6 199-69 222 5-8 54-52 92-132 119-94 31-95 61-95-72 0-28 2-45 5-52zm67 321l-3-1c1 1 2 1 3 1" id="V"/><path fill="#666" d="M776-292c25-58 39-113 39-189 0-186-105-335-289-347-115-8-264 80-335 176-54 72-128 174-130 306-17 72 19 171 60 209C155-80 284-35 371-30c125 8 185-36 261-79 69-40 112-103 145-184zM507-656c91 0 151 106 151 197 0 107-87 221-167 253-29 11-88 21-133 13l1 1c-87-19-148-53-141-159 8-119 91-193 166-254 44-35 86-51 123-51" id="W"/><path fill="#666" d="M50-194C40-28 200 0 338-54c94-37 183-73 272-114 29-13 41-37 41-62 0-44-32-91-71-89-30 3-148 61-190 76l1-1c-45 16-110 45-165 45 1 0 0-5-3-15l1 1-3-11c27-168 60-333 82-502 10-75-103-138-147-64-8 14-17 32-20 54l1-1c-6 17-8 35-12 54l1-2C92-532 60-361 50-194" id="X"/><path fill="#666" d="M562-231c-119 0-201 32-308 40-14 1-42-3-40-14 7-43 5-108 16-155 15-24 58-17 92-28 55-18 122-10 191-10 29 0 63-18 62-50l-1 1c9-54-30-90-85-89l2 1c-79-20-172-1-247 10 3-27 1-57 6-86 80-35 193-36 303-41 17-1 37-7 58-16 38-58-8-126-51-147l1 1c-50-22-116-3-173 4-55 6-120 24-173 38l1-1c-58 17-141 13-134 97 6 67 3 142 3 213 0 107-34 195-34 299 0 91 55 147 155 140 120-8 214-45 346-45 28 0 55-3 82-5h-6c53-8 92-74 55-130-9-16-23-28-41-35-26 5-52 8-80 8zM242-525v-1 1" id="Y"/><path fill="#666" d="M80-334C68-194 2 14 192-26c62-30 136-63 191-92 174-92 259-210 259-347 0-142-33-193-97-253-69-64-182-82-292-104-16-3-35-3-56-3-90 0-82 55-82 133 0 95-9 196-26 279l1-1c-6 25-8 57-10 80zm133 125c17-153 24-313 53-452 153-5 243 55 220 201l-1-2c-24 127-149 211-272 253zm48-441v3-3zm-8 53c0-1 0-1 1-2" id="Z"/><g id="m"><use transform="matrix(0.022222222222222223,0,0,0.022222222222222223,0,0)" xlink:href="#V"/><use transform="matrix(0.022222222222222223,0,0,0.022222222222222223,13.755555555555556,0)" xlink:href="#W"/><use transform="matrix(0.022222222222222223,0,0,0.022222222222222223,31.6,0)" xlink:href="#X"/><use transform="matrix(0.022222222222222223,0,0,0.022222222222222223,45.31111111111112,0)" xlink:href="#X"/><use transform="matrix(0.022222222222222223,0,0,0.022222222222222223,59.022222222222226,0)" xlink:href="#Y"/><use transform="matrix(0.022222222222222223,0,0,0.022222222222222223,73.84444444444445,0)" xlink:href="#Z"/></g><path fill="#666" d="M58-120c0 66 127 98 195 96 131-3 240-41 324-94 105-67 138-161 78-271-25-45-59-78-90-108 15-16 29-31 39-48 16-58 22-147-13-187-60-68-156-89-270-89-121 0-219 3-230 109-2 17 7 29 12 41-8 149-1 314 1 467 0 16-5 27-15 33-21 13-31 30-31 51zm202-60c-10-53-9-118-10-178 63-23 141-33 195-65-7-7 96 83 88 114-25 93-160 123-273 129zm3-494c24-10 55-12 83-12 84 0 126 16 126 47 0 24-82 99-136 108-28 5-50 14-82 14-4-50-7-126 9-157" id="aa"/><path fill="#666" d="M70-181C36-106 39-36 121-28c46 4 59-41 69-68 14-40 27-86 43-123 28-31 91-34 132-52 22-9 42-12 57-14 23 70 34 146 54 220 8 29 38 43 83 43 40 0 60-20 60-60 0-87-40-149-50-230 28-18 51-84 14-113-11-9-44-19-50-27-27-105-52-214-82-316-19-65-108-61-136-9-73 134-133 295-189 435-24 59-31 107-56 161zm286-369c8 39 19 86 26 125-22 9-48 16-78 17 14-39 32-102 52-142" id="ab"/><path fill="#666" d="M603-651c0-97-31-172-120-170-102 1-164 75-214 132-81 91-127 171-181 277-30 59-52 189-20 259C104-74 204-5 336-32c36-8 99-21 126-45 137-73 206-137 206-191 0-71-82-87-131-48-77 62-149 135-266 145-97 8-92-125-54-190 41-69 89-162 136-217 46-53 83-81 115-81 30 22 11 105 74 105 41 0 61-32 61-97" id="ac"/><path fill="#666" d="M228-184c4-60-38-165 28-174 34 12 167 186 208 236 51 61 92 92 123 92 40 0 60-19 60-58 0-84-87-199-129-255-28-38-57-75-87-104-44-42 20-56 39-81 64-50 116-99 165-158 38-71-45-178-113-110-88 89-171 159-275 236-15 11-25 17-30 17-3 0-5-3-5-9-8-82 51-190-11-240-27-36-95-50-112-7-50 127-31 330-31 502 0 110-9 254 96 267 67-13 87-66 74-154" id="ad"/><g id="n"><use transform="matrix(0.022222222222222223,0,0,0.022222222222222223,0,0)" xlink:href="#aa"/><use transform="matrix(0.022222222222222223,0,0,0.022222222222222223,14.311111111111112,0)" xlink:href="#ab"/><use transform="matrix(0.022222222222222223,0,0,0.022222222222222223,27.400000000000002,0)" xlink:href="#ac"/><use transform="matrix(0.022222222222222223,0,0,0.022222222222222223,41.51111111111111,0)" xlink:href="#ad"/></g><path fill="#666" d="M629-24c59-2 63-70 49-127 24-178 57-368 57-559 0-65-24-97-72-97-73 0-104 46-96 125-15 110-16 275-41 389-4 15-11 26-22 31l1-1c-82 36-169 76-259 76-20 0-30-14-30-43 1-122 26-238 45-343 11-60 55-153-4-195l2 1c-40-47-109-37-123 31-33 162-66 339-84 524C31 4 269 4 431-58c31-12 67-21 97-31 15 15 29 29 42 47 25 12 44 18 59 18" id="ae"/><path fill="#666" d="M87-602c4 38-4 75-5 110-3 126-9 252-9 379 0 59 26 89 77 89 58 0 63-72 63-132 0-35 7-82 12-117 65-30 152-55 206-93 88-62 186-166 161-313-4-21-15-39-29-55l2 2c-23-34-68-58-137-73l1 1c-46-11-95-14-151-15-81-1-238 33-230 104 5 47 47 56 39 113zm257-56c102-1 127 34 86 93-43 62-125 108-204 136-5-100 2-207 8-214 10-10 47-15 110-15zm-110 16l-1 1c0-1 0-1 1-1" id="af"/><path fill="#666" d="M645-678c57 15 88-19 85-70-3-57-39-101-102-93l2-1c-127 12-234 44-370 51-66 3-119 20-167 43-33 16-52 54-53 100-1 32 26 35 43 50 76 5 134-24 207-28-5 193-25 387-24 590 22 32 100 56 129 11 46-29 23-117 23-184 0-132 20-247 22-379 0-21 2-47 13-59 60-18 127-20 192-31zm-189 28l-2 2c1-1 1-2 2-2" id="ag"/><g id="o"><use transform="matrix(0.022222222222222223,0,0,0.022222222222222223,0,0)" xlink:href="#ae"/><use transform="matrix(0.022222222222222223,0,0,0.022222222222222223,15.68888888888889,0)" xlink:href="#af"/><use transform="matrix(0.022222222222222223,0,0,0.022222222222222223,28.26666666666667,0)" xlink:href="#Z"/><use transform="matrix(0.022222222222222223,0,0,0.022222222222222223,41.71111111111111,0)" xlink:href="#ab"/><use transform="matrix(0.022222222222222223,0,0,0.022222222222222223,54.800000000000004,0)" xlink:href="#ag"/><use transform="matrix(0.022222222222222223,0,0,0.022222222222222223,70.08888888888889,0)" xlink:href="#Y"/></g><path fill="#666" d="M42-70c0 87 115 70 183 54l-1 1c168-29 298-46 412-66 37-61 31-107-28-144-59 12-120 13-178 22 6-108 31-217 31-327 0-55 4-92 13-111 33-5 63-9 97-17 108 2 116-84 54-143-115-14-235 13-335 17-9 1-17 2-25 5l1-1c-26 5-56 8-80 15l1-1c-64 12-112 20-118 81-8 89 119 84 199 63-6 0 1-1 3-1 14-2 24 0 41-3 2 126-16 240-31 354-4 28-1 78-21 91-30 19-88 18-126 30l1-1c-53 5-93 24-93 82" id="ah"/><path fill="#666" d="M57-191C48-107 192-27 280-27c97 0 254-99 310-169 39-50 65-83 62-166-5-159-71-204-245-204-43 0-128 16-175 9 33-54 156-102 224-125 50-17 39 63 85 49 7-1 26-9 26-8 27 1 48-28 46-55-5-57-86-138-163-130-107 11-177 44-249 89-64 40-151 103-160 192 11 108 88 147 219 147 67 0 156-12 208 7 20 7 30 17 30 30 0 34-38 77-114 130 1-1 0-1 1-1-43 46-146 46-193 1-15-15-43-32-65-30-41 4-67 29-70 70" id="ai"/><g id="p"><use transform="matrix(0.022222222222222223,0,0,0.022222222222222223,0,0)" xlink:href="#ah"/><use transform="matrix(0.022222222222222223,0,0,0.022222222222222223,14.155555555555557,0)" xlink:href="#ai"/></g><path fill="#666" d="M633-32c99 0 53-140 53-231 0-160 17-350-41-466-13-25-59-60-90-60-48-2-72 81-86 122-47 132-74 199-82 202-15-90-57-183-81-259-17-55-61-93-116-93-21 0-40 12-48 39-59 200-67 431-92 658C43-58 89 6 151-27c16-9 25-11 33-23 14-128 27-256 35-392 34 77 71 239 153 252 64-12 80-94 111-139 24-35 42-76 62-112 2 86 2 175 2 264 0 97 29 145 86 145" id="aj"/><g id="q"><use transform="matrix(0.022222222222222223,0,0,0.022222222222222223,0,0)" xlink:href="#ac"/><use transform="matrix(0.022222222222222223,0,0,0.022222222222222223,14.111111111111112,0)" xlink:href="#W"/><use transform="matrix(0.022222222222222223,0,0,0.022222222222222223,31.955555555555556,0)" xlink:href="#aj"/><use transform="matrix(0.022222222222222223,0,0,0.022222222222222223,46.91111111111111,0)" xlink:href="#aj"/><use transform="matrix(0.022222222222222223,0,0,0.022222222222222223,61.86666666666667,0)" xlink:href="#ah"/><use transform="matrix(0.022222222222222223,0,0,0.022222222222222223,76.02222222222223,0)" xlink:href="#ag"/><use transform="matrix(0.022222222222222223,0,0,0.022222222222222223,91.31111111111112,0)" xlink:href="#Y"/><use transform="matrix(0.022222222222222223,0,0,0.022222222222222223,106.13333333333334,0)" xlink:href="#Z"/></g></defs></g></svg>