<svg xmlns="http://www.w3.org/2000/svg" xmlns:xlink="http://www.w3.org/1999/xlink" xmlns:lucid="lucid" width="952" height="407"><g transform="translate(-42 -49)" lucid:page-tab-id="0_0"><path d="M80 110h502v-10l18 20-18 20v-10H80z" stroke="#000" stroke-width="2" fill="#e5e5e5"/><path d="M180 220h80v60h-80z" stroke="#000" stroke-width="2" fill="#fff"/><use xlink:href="#a" transform="matrix(1,0,0,1,185,225) translate(19.916666666666664 29.118055555555557)"/><path d="M215.33 132v85.18" stroke="#000" stroke-width="2" fill="none"/><path d="M216.33 131v1.03h-2V131z"/><path d="M205.15 199.82l10.18 17.22 10.18-17.22" stroke="#000" stroke-width="2" fill="none"/><path d="M120 140h100v60H120z" stroke="#000" stroke-opacity="0" stroke-width="2" fill="#fff" fill-opacity="0"/><use xlink:href="#b" transform="matrix(1,0,0,1,125,145) translate(0 16)"/><use xlink:href="#c" transform="matrix(1,0,0,1,125,145) translate(0 40)"/><path d="M220 80h240v40H220z" stroke="#000" stroke-opacity="0" stroke-width="2" fill="#fff" fill-opacity="0"/><use xlink:href="#d" transform="matrix(1,0,0,1,225,85) translate(32.47222222222224 16)"/><use xlink:href="#e" transform="matrix(1,0,0,1,225,85) translate(183.13888888888886 16)"/><path d="M80 370h502v-10l18 20-18 20v-10H80z" stroke="#000" stroke-width="2" fill="#e5e5e5"/><path d="M405 220h80v60h-80z" stroke="#000" stroke-width="2" fill="#fff"/><use xlink:href="#a" transform="matrix(1,0,0,1,410,225) translate(19.916666666666664 29.118055555555557)"/><path d="M447 368v-85.18" stroke="#000" stroke-width="2" fill="none"/><path d="M448 369h-2v-1.03h2z"/><path d="M457.18 300.18L447 282.96l-10.18 17.22" stroke="#000" stroke-width="2" fill="none"/><path d="M340 300h100v60H340z" stroke="#000" stroke-opacity="0" stroke-width="2" fill="#fff" fill-opacity="0"/><use xlink:href="#f" transform="matrix(1,0,0,1,345,305) translate(0 16)"/><use xlink:href="#c" transform="matrix(1,0,0,1,345,305) translate(0 40)"/><path d="M220 400h240v40H220z" stroke="#000" stroke-opacity="0" stroke-width="2" fill="#fff" fill-opacity="0"/><use xlink:href="#d" transform="matrix(1,0,0,1,225,405) translate(32.47222222222224 16)"/><use xlink:href="#g" transform="matrix(1,0,0,1,225,405) translate(183.13888888888886 16)"/><path d="M620 90h100v60H620z" stroke="#000" stroke-opacity="0" stroke-width="2" fill="#fff" fill-opacity="0"/><use xlink:href="#h" transform="matrix(1,0,0,1,625,95) translate(0 16)"/><use xlink:href="#i" transform="matrix(1,0,0,1,625,95) translate(0 40)"/><path d="M620 350h140v60H620z" stroke="#000" stroke-opacity="0" stroke-width="2" fill="#fff" fill-opacity="0"/><use xlink:href="#j" transform="matrix(1,0,0,1,625,355) translate(0 16)"/><use xlink:href="#k" transform="matrix(1,0,0,1,625,355) translate(0 40)"/><path d="M866 160h104v60H866z" stroke="#000" stroke-opacity="0" stroke-width="2" fill="#fff" fill-opacity="0"/><use xlink:href="#l" transform="matrix(1,0,0,1,871,165) translate(16.555555555555554 30.27777777777778)"/><path d="M865 190l-390.54-2.2-37.6 2.25-17.15 1.76-9.23 1.36-5.54 1.04-3.58.84-2.46.68-.9.28-7.64 2.65-7.67 3.02-8 3.55-8.9 4.42-12.28 6.75-31.37 18.04-6.88 3.4-5.74 2.57-5.2 2.06-4.92 1.7-4.77 1.44-4.75 1.2-4.8 1.03-4.94.82-.7.1" fill="none"/><path d="M865 190l-9.97-.06m-9.97-.06l-19.93-.1m-9.97-.07l-19.94-.1m-9.96-.05l-19.94-.12m-9.97-.05l-19.93-.1m-9.97-.07l-19.94-.1m-9.95-.06l-19.94-.1m-9.96-.07l-19.93-.1m-9.96-.07l-19.94-.1m-9.96-.06l-19.94-.12m-9.97-.05l-19.93-.1m-9.97-.07l-19.93-.1m-9.97-.07l-19.94-.1m-9.98-.07l-11.76-.06-8.16.5m-9.95.58l-19.5 1.17-.4.04m-9.9 1l-6.84.7-9.23 1.36-3.67.7m-9.65 2.44l-6.8 2.35-7.66 3.02-4.13 1.83m-9 4.27l-3.78 1.87-12.28 6.75-1.5.85m-8.63 4.97l-17.3 9.94m-8.78 4.68l-2.05 1-5.74 2.57-5.2 2.06-4.92 1.7-.54.17m-9.6 2.62l-4.2.88-4.92.82-.7.1" stroke="#999" stroke-width="2" fill="none"/><path d="M866 189v2h-1.03v-2z" fill="#999"/><path d="M264.23 249.78l13.92-5.6.63 9.25z" stroke="#999" stroke-width="2" fill="#999"/><path d="M865 190.03l-87.7 2.38-44.3 3.22-31.16 3.58-23.4 3.7-18.2 3.65L654 208l-15.78 4.18-20.17 6.26-68.43 23.36-11.1 2.94-9.2 2.03-8.16 1.44-7.53 1-7.14.66-2 .1" fill="none"/><path d="M865 190.03l-10.22.28m-10.2.28l-20.44.56m-10.22.28l-20.43.55m-10.22.28l-6 .16-14.4 1.06m-10.2.73l-19.67 1.42-.7.08m-10.15 1.16l-20.3 2.34m-10.1 1.6l-13.3 2.1-6.83 1.36m-10.02 2.02l-1.36.27L654 208l-12.22 3.23m-9.8 2.88l-13.93 4.34-5.54 1.9m-9.66 3.3l-19.34 6.6m-9.68 3.3l-19.34 6.6m-9.77 2.96l-6.17 1.64-9.2 2.03-4.55.8m-10.1 1.5l-1.05.14-7.14.66-2 .1" stroke="#999" stroke-width="2" fill="none"/><path d="M866 191l-1 .03-.05-2L866 189z" fill="#999"/><path d="M489.24 250l14.25-4.67v9.27z" stroke="#999" stroke-width="2" fill="#999"/><defs><path d="M24-248c120-7 223 5 221 122C244-46 201 0 124 0H24v-248zM76-40c74 7 117-18 117-86 0-67-45-88-117-82v168" id="m"/><path d="M23 0v-37h61v-169l-59 37v-38l62-41h46v211h57V0H23" id="n"/><g id="a"><use transform="matrix(0.06790123456790124,0,0,0.06790123456790124,0,0)" xlink:href="#m"/><use transform="matrix(0.06790123456790124,0,0,0.06790123456790124,17.58641975308642,0)" xlink:href="#n"/></g><path d="M24 0v-54h51V0H24" id="o"/><g id="b"><use transform="matrix(0.05555555555555555,0,0,0.05555555555555555,0,0)" xlink:href="#n"/><use transform="matrix(0.05555555555555555,0,0,0.05555555555555555,11.11111111111111,0)" xlink:href="#o"/></g><path d="M232-93c-1 65-40 97-104 97C67 4 28-28 28-90v-158h33c8 89-33 224 67 224 102 0 64-133 71-224h33v155" id="p"/><path d="M30-248c87 1 191-15 191 75 0 78-77 80-158 76V0H30v-248zm33 125c57 0 124 11 124-50 0-59-68-47-124-48v98" id="q"/><path d="M30-248c118-7 216 8 213 122C240-48 200 0 122 0H30v-248zM63-27c89 8 146-16 146-99s-60-101-146-95v194" id="r"/><path d="M205 0l-28-72H64L36 0H1l101-248h38L239 0h-34zm-38-99l-47-123c-12 45-31 82-46 123h93" id="s"/><path d="M127-220V0H93v-220H8v-28h204v28h-85" id="t"/><path d="M30 0v-248h187v28H63v79h144v27H63v87h162V0H30" id="u"/><g id="c"><use transform="matrix(0.05555555555555555,0,0,0.05555555555555555,0,0)" xlink:href="#p"/><use transform="matrix(0.05555555555555555,0,0,0.05555555555555555,14.388888888888888,0)" xlink:href="#q"/><use transform="matrix(0.05555555555555555,0,0,0.05555555555555555,27.72222222222222,0)" xlink:href="#r"/><use transform="matrix(0.05555555555555555,0,0,0.05555555555555555,42.11111111111111,0)" xlink:href="#s"/><use transform="matrix(0.05555555555555555,0,0,0.05555555555555555,53.94444444444444,0)" xlink:href="#t"/><use transform="matrix(0.05555555555555555,0,0,0.05555555555555555,66.11111111111111,0)" xlink:href="#u"/></g><path d="M136-208V0H84v-208H4v-40h212v40h-80" id="v"/><path d="M240-174c0 40-23 61-54 70L253 0h-59l-57-94H76V0H24v-248c93 4 217-23 216 74zM76-134c48-2 112 12 112-38 0-48-66-32-112-35v73" id="w"/><path d="M199 0l-22-63H83L61 0H9l90-248h61L250 0h-51zm-33-102l-36-108c-10 38-24 72-36 108h72" id="x"/><path d="M175 0L67-191c6 58 2 128 3 191H24v-248h59L193-55c-6-58-2-129-3-193h46V0h-61" id="y"/><path d="M169-182c-1-43-94-46-97-3 18 66 151 10 154 114 3 95-165 93-204 36-6-8-10-19-12-30l50-8c3 46 112 56 116 5-17-69-150-10-154-114-4-87 153-88 188-35 5 8 8 18 10 28" id="z"/><path d="M67-125c0 53 21 87 73 88 37 1 54-22 65-47l45 17C233-25 199 4 140 4 58 4 20-42 15-125 8-235 124-281 211-232c18 10 29 29 36 50l-46 12c-8-25-30-41-62-41-52 0-71 34-72 86" id="A"/><path d="M24 0v-248h52V0H24" id="B"/><path d="M140-251c80 0 125 45 125 126S219 4 139 4C58 4 15-44 15-125s44-126 125-126zm-1 214c52 0 73-35 73-88 0-50-21-86-72-86-52 0-73 35-73 86s22 88 72 88" id="C"/><g id="d"><use transform="matrix(0.05555555555555555,0,0,0.05555555555555555,0,0)" xlink:href="#v"/><use transform="matrix(0.05555555555555555,0,0,0.05555555555555555,12.166666666666666,0)" xlink:href="#w"/><use transform="matrix(0.05555555555555555,0,0,0.05555555555555555,26.555555555555554,0)" xlink:href="#x"/><use transform="matrix(0.05555555555555555,0,0,0.05555555555555555,40.94444444444444,0)" xlink:href="#y"/><use transform="matrix(0.05555555555555555,0,0,0.05555555555555555,55.33333333333333,0)" xlink:href="#z"/><use transform="matrix(0.05555555555555555,0,0,0.05555555555555555,68.66666666666666,0)" xlink:href="#x"/><use transform="matrix(0.05555555555555555,0,0,0.05555555555555555,83.05555555555554,0)" xlink:href="#A"/><use transform="matrix(0.05555555555555555,0,0,0.05555555555555555,97.44444444444443,0)" xlink:href="#v"/><use transform="matrix(0.05555555555555555,0,0,0.05555555555555555,109.6111111111111,0)" xlink:href="#B"/><use transform="matrix(0.05555555555555555,0,0,0.05555555555555555,115.16666666666666,0)" xlink:href="#C"/><use transform="matrix(0.05555555555555555,0,0,0.05555555555555555,130.7222222222222,0)" xlink:href="#y"/></g><use transform="matrix(0.05555555555555555,0,0,0.05555555555555555,0,0)" xlink:href="#x" id="e"/><path d="M182-182c0 78-84 86-111 141h115V0H12c-6-101 99-100 120-180 1-22-12-31-33-32-23 0-32 14-35 34l-49-3c5-45 32-70 84-70 51 0 83 22 83 69" id="D"/><g id="f"><use transform="matrix(0.05555555555555555,0,0,0.05555555555555555,0,0)" xlink:href="#D"/><use transform="matrix(0.05555555555555555,0,0,0.05555555555555555,11.11111111111111,0)" xlink:href="#o"/></g><path d="M182-130c37 4 62 22 62 59C244 23 116-4 24 0v-248c84 5 203-23 205 63 0 31-19 50-47 55zM76-148c40-3 101 13 101-30 0-44-60-28-101-31v61zm0 110c48-3 116 14 116-37 0-48-69-32-116-35v72" id="E"/><use transform="matrix(0.05555555555555555,0,0,0.05555555555555555,0,0)" xlink:href="#E" id="g"/><path d="M128-127c34 4 56 21 59 58 7 91-148 94-172 28-4-9-6-17-7-26l51-5c1 24 16 35 40 36 23 0 39-12 38-36-1-31-31-36-65-34v-40c32 2 59-3 59-33 0-20-13-33-34-33s-33 13-35 32l-50-3c6-44 37-68 86-68 50 0 83 20 83 66 0 35-22 52-53 58" id="F"/><g id="h"><use transform="matrix(0.05555555555555555,0,0,0.05555555555555555,0,0)" xlink:href="#F"/><use transform="matrix(0.05555555555555555,0,0,0.05555555555555555,11.11111111111111,0)" xlink:href="#o"/></g><path d="M212-179c-10-28-35-45-73-45-59 0-87 40-87 99 0 60 29 101 89 101 43 0 62-24 78-52l27 14C228-24 195 4 139 4 59 4 22-46 18-125c-6-104 99-153 187-111 19 9 31 26 39 46" id="G"/><path d="M140-251c81 0 123 46 123 126C263-46 219 4 140 4 59 4 17-45 17-125s42-126 123-126zm0 227c63 0 89-41 89-101s-29-99-89-99c-61 0-89 39-89 99S79-25 140-24" id="H"/><path d="M240 0l2-218c-23 76-54 145-80 218h-23L58-218 59 0H30v-248h44l77 211c21-75 51-140 76-211h43V0h-30" id="I"/><path d="M33 0v-248h34V0H33" id="J"/><g id="i"><use transform="matrix(0.05555555555555555,0,0,0.05555555555555555,0,0)" xlink:href="#G"/><use transform="matrix(0.05555555555555555,0,0,0.05555555555555555,14.388888888888888,0)" xlink:href="#H"/><use transform="matrix(0.05555555555555555,0,0,0.05555555555555555,29.944444444444443,0)" xlink:href="#I"/><use transform="matrix(0.05555555555555555,0,0,0.05555555555555555,46.55555555555556,0)" xlink:href="#I"/><use transform="matrix(0.05555555555555555,0,0,0.05555555555555555,63.16666666666668,0)" xlink:href="#J"/><use transform="matrix(0.05555555555555555,0,0,0.05555555555555555,68.72222222222223,0)" xlink:href="#t"/></g><path d="M165-50V0h-47v-50H5v-38l105-160h55v161h33v37h-33zm-47-37l2-116L46-87h72" id="K"/><g id="j"><use transform="matrix(0.05555555555555555,0,0,0.05555555555555555,0,0)" xlink:href="#K"/><use transform="matrix(0.05555555555555555,0,0,0.05555555555555555,11.11111111111111,0)" xlink:href="#o"/></g><path d="M233-177c-1 41-23 64-60 70L243 0h-38l-65-103H63V0H30v-248c88 3 205-21 203 71zM63-129c60-2 137 13 137-47 0-61-80-42-137-45v92" id="L"/><path d="M30 0v-248h33v221h125V0H30" id="M"/><path d="M160-131c35 5 61 23 61 61C221 17 115-2 30 0v-248c76 3 177-17 177 60 0 33-19 50-47 57zm-97-11c50-1 110 9 110-42 0-47-63-36-110-37v79zm0 115c55-2 124 14 124-45 0-56-70-42-124-44v89" id="N"/><path d="M194 0L95-120 63-95V0H30v-248h33v124l119-124h40L117-140 236 0h-42" id="O"/><g id="k"><use transform="matrix(0.05555555555555555,0,0,0.05555555555555555,0,0)" xlink:href="#L"/><use transform="matrix(0.05555555555555555,0,0,0.05555555555555555,14.388888888888888,0)" xlink:href="#H"/><use transform="matrix(0.05555555555555555,0,0,0.05555555555555555,29.944444444444443,0)" xlink:href="#M"/><use transform="matrix(0.05555555555555555,0,0,0.05555555555555555,41.05555555555556,0)" xlink:href="#M"/><use transform="matrix(0.05555555555555555,0,0,0.05555555555555555,52.16666666666667,0)" xlink:href="#N"/><use transform="matrix(0.05555555555555555,0,0,0.05555555555555555,65.5,0)" xlink:href="#s"/><use transform="matrix(0.05555555555555555,0,0,0.05555555555555555,78.83333333333333,0)" xlink:href="#G"/><use transform="matrix(0.05555555555555555,0,0,0.05555555555555555,93.22222222222221,0)" xlink:href="#O"/></g><path fill="#666" d="M50-194C40-28 200 0 338-54c94-37 183-73 272-114 29-13 41-37 41-62 0-44-32-91-71-89-30 3-148 61-190 76l1-1c-45 16-110 45-165 45 1 0 0-5-3-15l1 1-3-11c27-168 60-333 82-502 10-75-103-138-147-64-8 14-17 32-20 54l1-1c-6 17-8 35-12 54l1-2C92-532 60-361 50-194" id="P"/><path fill="#666" d="M776-292c25-58 39-113 39-189 0-186-105-335-289-347-115-8-264 80-335 176-54 72-128 174-130 306-17 72 19 171 60 209C155-80 284-35 371-30c125 8 185-36 261-79 69-40 112-103 145-184zM507-656c91 0 151 106 151 197 0 107-87 221-167 253-29 11-88 21-133 13l1 1c-87-19-148-53-141-159 8-119 91-193 166-254 44-35 86-51 123-51" id="Q"/><path fill="#666" d="M57-191C48-107 192-27 280-27c97 0 254-99 310-169 39-50 65-83 62-166-5-159-71-204-245-204-43 0-128 16-175 9 33-54 156-102 224-125 50-17 39 63 85 49 7-1 26-9 26-8 27 1 48-28 46-55-5-57-86-138-163-130-107 11-177 44-249 89-64 40-151 103-160 192 11 108 88 147 219 147 67 0 156-12 208 7 20 7 30 17 30 30 0 34-38 77-114 130 1-1 0-1 1-1-43 46-146 46-193 1-15-15-43-32-65-30-41 4-67 29-70 70" id="R"/><path fill="#666" d="M645-678c57 15 88-19 85-70-3-57-39-101-102-93l2-1c-127 12-234 44-370 51-66 3-119 20-167 43-33 16-52 54-53 100-1 32 26 35 43 50 76 5 134-24 207-28-5 193-25 387-24 590 22 32 100 56 129 11 46-29 23-117 23-184 0-132 20-247 22-379 0-21 2-47 13-59 60-18 127-20 192-31zm-189 28l-2 2c1-1 1-2 2-2" id="S"/><g id="l"><use transform="matrix(0.022222222222222223,0,0,0.022222222222222223,0,0)" xlink:href="#P"/><use transform="matrix(0.022222222222222223,0,0,0.022222222222222223,13.711111111111112,0)" xlink:href="#Q"/><use transform="matrix(0.022222222222222223,0,0,0.022222222222222223,31.555555555555557,0)" xlink:href="#R"/><use transform="matrix(0.022222222222222223,0,0,0.022222222222222223,45.6,0)" xlink:href="#S"/></g></defs></g></svg>