<svg xmlns="http://www.w3.org/2000/svg" xmlns:xlink="http://www.w3.org/1999/xlink" xmlns:lucid="lucid" width="1351" height="695"><g transform="translate(-90 -729)" lucid:page-tab-id="0_0"><path d="M228.67 923.6h-76.64c-.88 0-1.68-.76-1.68-1.7v-5.12c0-18.18 11.92-33.43 29.52-37.7.48-.1.88-.05 1.28.17 5.92 3.2 12.48 3.2 18.4 0 .4-.22.8-.26 1.2-.17 17.68 4.27 29.6 19.52 29.6 37.7v5.13c0 .94-.8 1.7-1.68 1.7zm-74.88-3.43h73.1v-3.4c.1-16.35-10.55-30.07-26.3-34.17-3.37 1.64-6.5 2.4-10.25 2.4-3.76 0-6.88-.7-10.24-2.4-15.75 4.1-26.4 17.82-26.3 34.18z" stroke="#fff" stroke-opacity="0" fill="#232f3e"/><path d="M190.36 884.9c-3.68 0-6.82-.78-10.04-2.56-9.95-5.58-13.5-18.2-7.93-28.17 5.57-9.95 18.16-13.5 28.08-7.93 6.73 3.76 10.57 10.33 10.57 18.05 0 7.76-3.93 14.36-10.74 18.04-3.2 1.73-6.3 2.56-9.94 2.56zm0-37.83c-6.6-.17-12.27 3.18-15.45 8.96-4.5 8.38-1.4 18.8 6.95 23.34 5.4 2.93 11.36 2.93 16.77 0 5.7-3.1 9-8.68 8.96-15.2-.04-9.5-7.77-17.14-17.22-17.1z" stroke="#fff" stroke-opacity="0" fill="#232f3e"/><use xlink:href="#a" transform="matrix(1,0,0,1,120.35000000000002,932.6) translate(54 14.4)"/><path d="M280.5 884.1h819v1h-819z" fill="none"/><path d="M300.72 884.1h20.22m10.12 0h20.22m10.1 0h20.23m10.12 0h20.22m10.12 0h20.22m10.1 0h20.23m10.12 0h20.22m10.12 0h20.22m10.1 0h20.23m10.12 0h20.22m10.12 0h20.22m10.1 0h20.23m10.12 0h20.22m10.12 0h20.22m10.1 0h20.23m10.12 0h20.22m10.12 0h20.22m10.1 0h20.23m10.12 0h20.22m10.12 0h20.22m10.1 0h20.23m10.12 0h20.22m10.12 0h20.22m10.1 0h20.23m10.12 0h20.22m10.12 0h20.22m10.1 0h10.12v1h-10.1m-10.12 0h-20.22m-10.12 0h-20.22m-10.1 0h-20.23m-10.12 0h-20.22m-10.12 0h-20.22m-10.1 0h-20.23m-10.12 0h-20.22m-10.12 0h-20.22m-10.1 0h-20.23m-10.12 0h-20.22m-10.12 0h-20.22m-10.1 0h-20.23m-10.12 0h-20.22m-10.12 0h-20.22m-10.1 0h-20.23m-10.12 0h-20.22m-10.12 0h-20.22m-10.1 0h-20.23m-10.12 0h-20.22m-10.12 0h-20.22m-10.1 0h-20.23m-10.12 0h-20.22m-10.12 0h-20.22m-10.1 0h-20.23m-10.12 0h-20.22m-10.12 0h-20.22m-10.1 0H280.5v-1h10.1" stroke="#000" fill="none"/><path d="M280.5 1084.1h819v1h-819z" fill="none"/><path d="M300.72 1084.1h20.22m10.12 0h20.22m10.1 0h20.23m10.12 0h20.22m10.12 0h20.22m10.1 0h20.23m10.12 0h20.22m10.12 0h20.22m10.1 0h20.23m10.12 0h20.22m10.12 0h20.22m10.1 0h20.23m10.12 0h20.22m10.12 0h20.22m10.1 0h20.23m10.12 0h20.22m10.12 0h20.22m10.1 0h20.23m10.12 0h20.22m10.12 0h20.22m10.1 0h20.23m10.12 0h20.22m10.12 0h20.22m10.1 0h20.23m10.12 0h20.22m10.12 0h20.22m10.1 0h10.12v1h-10.1m-10.12 0h-20.22m-10.12 0h-20.22m-10.1 0h-20.23m-10.12 0h-20.22m-10.12 0h-20.22m-10.1 0h-20.23m-10.12 0h-20.22m-10.12 0h-20.22m-10.1 0h-20.23m-10.12 0h-20.22m-10.12 0h-20.22m-10.1 0h-20.23m-10.12 0h-20.22m-10.12 0h-20.22m-10.1 0h-20.23m-10.12 0h-20.22m-10.12 0h-20.22m-10.1 0h-20.23m-10.12 0h-20.22m-10.12 0h-20.22m-10.1 0h-20.23m-10.12 0h-20.22m-10.12 0h-20.22m-10.1 0h-20.23m-10.12 0h-20.22m-10.12 0h-20.22m-10.1 0H280.5v-1h10.1" stroke="#000" fill="none"/><path d="M228.67 1310.6h-76.64c-.88 0-1.68-.76-1.68-1.7v-5.12c0-18.18 11.92-33.43 29.52-37.7.48-.1.88-.05 1.28.17 5.92 3.2 12.48 3.2 18.4 0 .4-.22.8-.26 1.2-.17 17.68 4.27 29.6 19.52 29.6 37.7v5.13c0 .94-.8 1.7-1.68 1.7zm-74.88-3.43h73.1v-3.4c.1-16.35-10.55-30.07-26.3-34.17-3.37 1.64-6.5 2.4-10.25 2.4-3.76 0-6.88-.7-10.24-2.4-15.75 4.1-26.4 17.82-26.3 34.18z" stroke="#fff" stroke-opacity="0" fill="#232f3e"/><path d="M190.36 1271.9c-3.68 0-6.82-.8-10.04-2.56-9.95-5.58-13.5-18.2-7.93-28.17 5.57-9.95 18.16-13.5 28.08-7.93 6.73 3.76 10.57 10.33 10.57 18.05 0 7.76-3.93 14.36-10.74 18.04-3.2 1.73-6.3 2.56-9.94 2.56zm0-37.83c-6.6-.17-12.27 3.18-15.45 8.96-4.5 8.38-1.4 18.8 6.95 23.34 5.4 2.93 11.36 2.93 16.77 0 5.7-3.1 9-8.68 8.96-15.2-.04-9.5-7.77-17.14-17.22-17.1z" stroke="#fff" stroke-opacity="0" fill="#232f3e"/><use xlink:href="#b" transform="matrix(1,0,0,1,120.35000000000002,1319.6) translate(50.55 14.4)"/><path d="M280.5 1244.1h819v1h-819z" fill="none"/><path d="M300.72 1244.1h20.22m10.12 0h20.22m10.1 0h20.23m10.12 0h20.22m10.12 0h20.22m10.1 0h20.23m10.12 0h20.22m10.12 0h20.22m10.1 0h20.23m10.12 0h20.22m10.12 0h20.22m10.1 0h20.23m10.12 0h20.22m10.12 0h20.22m10.1 0h20.23m10.12 0h20.22m10.12 0h20.22m10.1 0h20.23m10.12 0h20.22m10.12 0h20.22m10.1 0h20.23m10.12 0h20.22m10.12 0h20.22m10.1 0h20.23m10.12 0h20.22m10.12 0h20.22m10.1 0h10.12v1h-10.1m-10.12 0h-20.22m-10.12 0h-20.22m-10.1 0h-20.23m-10.12 0h-20.22m-10.12 0h-20.22m-10.1 0h-20.23m-10.12 0h-20.22m-10.12 0h-20.22m-10.1 0h-20.23m-10.12 0h-20.22m-10.12 0h-20.22m-10.1 0h-20.23m-10.12 0h-20.22m-10.12 0h-20.22m-10.1 0h-20.23m-10.12 0h-20.22m-10.12 0h-20.22m-10.1 0h-20.23m-10.12 0h-20.22m-10.12 0h-20.22m-10.1 0h-20.23m-10.12 0h-20.22m-10.12 0h-20.22m-10.1 0h-20.23m-10.12 0h-20.22m-10.12 0h-20.22m-10.1 0H280.5v-1h10.1" stroke="#000" fill="none"/><path d="M340 762h220v118H340z" stroke="#000" stroke-opacity="0" stroke-width="2" fill="#fff" fill-opacity="0"/><use xlink:href="#c" transform="matrix(1,0,0,1,345,766.9999999999999) translate(0 44.048)"/><use xlink:href="#d" transform="matrix(1,0,0,1,345,766.9999999999999) translate(51.95 44.048)"/><use xlink:href="#e" transform="matrix(1,0,0,1,345,766.9999999999999) translate(119.85000000000001 44.048)"/><use xlink:href="#f" transform="matrix(1,0,0,1,345,766.9999999999999) translate(143.85000000000002 44.048)"/><use xlink:href="#g" transform="matrix(1,0,0,1,345,766.9999999999999) translate(0 65.64800000000001)"/><use xlink:href="#h" transform="matrix(1,0,0,1,345,766.9999999999999) translate(40.9 65.64800000000001)"/><use xlink:href="#i" transform="matrix(1,0,0,1,345,766.9999999999999) translate(0 87.24800000000002)"/><use xlink:href="#j" transform="matrix(1,0,0,1,345,766.9999999999999) translate(53.900000000000006 87.24800000000002)"/><use xlink:href="#k" transform="matrix(1,0,0,1,345,766.9999999999999) translate(115.80000000000001 87.24800000000002)"/><use xlink:href="#l" transform="matrix(1,0,0,1,345,766.9999999999999) translate(131.3 87.24800000000002)"/><use xlink:href="#m" transform="matrix(1,0,0,1,345,766.9999999999999) translate(0 108.84800000000001)"/><use xlink:href="#n" transform="matrix(1,0,0,1,345,766.9999999999999) translate(15 108.84800000000001)"/><use xlink:href="#o" transform="matrix(1,0,0,1,345,766.9999999999999) translate(50 108.84800000000001)"/><use xlink:href="#k" transform="matrix(1,0,0,1,345,766.9999999999999) translate(111.9 108.84800000000001)"/><use xlink:href="#p" transform="matrix(1,0,0,1,345,766.9999999999999) translate(127.4 108.84800000000001)"/><path d="M352.8 887.1v196.5h76.86V906.22" stroke="#000" stroke-width="3" fill="none"/><path d="M354.3 887.14h-3v-1.54h3zm0-3.54h-3v-1h3z" stroke="#000" stroke-width=".05"/><path d="M429.66 890.45l4.64 14.27h-9.28z" stroke="#000" stroke-width="3"/><use xlink:href="#q" transform="matrix(1,0,0,1,437.66077640588554,954.101139544988) translate(0 14.4)"/><path d="M451.34 1242.1v-158.5h63.07v139.38" stroke="#000" stroke-width="3" fill="none"/><path d="M452.84 1246.6h-3v-1h3zm0-3h-3v-1.54h3z" stroke="#000" stroke-width=".05"/><path d="M514.4 1238.75l-4.63-14.27h9.28z" stroke="#000" stroke-width="3"/><path d="M520 1103.6h175.2v118H520z" stroke="#000" stroke-opacity="0" stroke-width="2" fill="#fff" fill-opacity="0"/><use xlink:href="#q" transform="matrix(1,0,0,1,525,1108.6) translate(0 58.68125)"/><path d="M760 765.6h300v118H760z" stroke="#000" stroke-opacity="0" stroke-width="2" fill="#fff" fill-opacity="0"/><use xlink:href="#r" transform="matrix(1,0,0,1,765,770.6) translate(0 44.048)"/><use xlink:href="#h" transform="matrix(1,0,0,1,765,770.6) translate(60 44.048)"/><use xlink:href="#s" transform="matrix(1,0,0,1,765,770.6) translate(0 65.64800000000001)"/><use xlink:href="#j" transform="matrix(1,0,0,1,765,770.6) translate(29 65.64800000000001)"/><use xlink:href="#k" transform="matrix(1,0,0,1,765,770.6) translate(90.9 65.64800000000001)"/><use xlink:href="#t" transform="matrix(1,0,0,1,765,770.6) translate(106.4 65.64800000000001)"/><use xlink:href="#i" transform="matrix(1,0,0,1,765,770.6) translate(0 87.24800000000002)"/><use xlink:href="#u" transform="matrix(1,0,0,1,765,770.6) translate(53.900000000000006 87.24800000000002)"/><use xlink:href="#k" transform="matrix(1,0,0,1,765,770.6) translate(103.85000000000001 87.24800000000002)"/><use xlink:href="#v" transform="matrix(1,0,0,1,765,770.6) translate(119.35000000000001 87.24800000000002)"/><use xlink:href="#w" transform="matrix(1,0,0,1,765,770.6) translate(0 108.84800000000001)"/><use xlink:href="#n" transform="matrix(1,0,0,1,765,770.6) translate(20 108.84800000000001)"/><use xlink:href="#o" transform="matrix(1,0,0,1,765,770.6) translate(55 108.84800000000001)"/><use xlink:href="#k" transform="matrix(1,0,0,1,765,770.6) translate(116.9 108.84800000000001)"/><use xlink:href="#p" transform="matrix(1,0,0,1,765,770.6) translate(132.4 108.84800000000001)"/><path d="M841.4 885.1v196.5H937V904.22" stroke="#000" stroke-width="3" fill="none"/><path d="M842.9 885.14h-3v-1.54h3z" stroke="#000" stroke-width=".05"/><path d="M936.98 888.45l4.64 14.27h-9.27z" stroke="#000" stroke-width="3"/><g><use xlink:href="#x" transform="matrix(1,0,0,1,944.9836633037839,957.0415084326669) translate(0 14.4)"/></g><path d="M190.35 1117.1c-14.75 0-30.35-4.08-30.35-11.6v-56.8c0-7.52 15.6-11.6 30.35-11.6 14.7 0 30.35 4.08 30.35 11.6v56.8c0 7.52-15.66 11.6-30.35 11.6zm0-76.56c-16.7 0-26.95 4.72-26.95 8.16v56.8c0 3.36 10.2 8.16 26.95 8.16s26.95-4.72 26.95-8.16v-56.8c0-3.44-10.26-8.16-26.95-8.16z" stroke="#fff" stroke-opacity="0" fill="#232f3e"/><path d="M190.35 1058.63c-14.75 0-30.35-4.07-30.35-11.62h3.4c0 3.4 10.2 8.23 26.95 8.23s26.95-4.78 26.95-8.22h3.4c0 7.56-15.66 11.63-30.35 11.63z" stroke="#fff" stroke-opacity="0" fill="#232f3e"/><g><use xlink:href="#y" transform="matrix(1,0,0,1,130,1126.1) translate(23.5 14.4)"/></g><path d="M953.32 1242.1v-159.5H1050v141.62" stroke="#000" stroke-width="3" fill="none"/><path d="M954.82 1246.6h-3v-1h3zm0-3h-3v-1.54h3z" stroke="#000" stroke-width=".05"/><path d="M1050.93 1238.76l-5.54-13.95 9.24-.58z" stroke="#000" stroke-width="3"/><path d="M1055.2 1105.6h175.2v118h-175.2z" stroke="#000" stroke-opacity="0" stroke-width="2" fill="#fff" fill-opacity="0"/><g><use xlink:href="#x" transform="matrix(1,0,0,1,1060.1999999999998,1110.6) translate(0 58.68125)"/></g><path d="M550 783.6h180V880H550z" stroke="#000" stroke-opacity="0" stroke-width="2" fill="#fff" fill-opacity="0"/><g><use xlink:href="#z" transform="matrix(1,0,0,1,555,788.5999999999999) translate(0 85.979424)"/><use xlink:href="#A" transform="matrix(1,0,0,1,555,788.5999999999999) translate(13.95 85.979424)"/><use xlink:href="#B" transform="matrix(1,0,0,1,555,788.5999999999999) translate(81.80000000000001 85.979424)"/><use xlink:href="#C" transform="matrix(1,0,0,1,555,788.5999999999999) translate(97.30000000000001 85.979424)"/><use xlink:href="#D" transform="matrix(1,0,0,1,555,788.5999999999999) translate(118.25000000000001 85.979424)"/></g><path d="M380 1243.6h220v118H380z" stroke="#000" stroke-opacity="0" stroke-width="2" fill="#fff" fill-opacity="0"/><g><use xlink:href="#c" transform="matrix(1,0,0,1,385,1248.6) translate(0 14.4)"/><use xlink:href="#d" transform="matrix(1,0,0,1,385,1248.6) translate(51.95 14.4)"/><use xlink:href="#e" transform="matrix(1,0,0,1,385,1248.6) translate(119.85000000000001 14.4)"/><use xlink:href="#f" transform="matrix(1,0,0,1,385,1248.6) translate(143.85000000000002 14.4)"/><use xlink:href="#g" transform="matrix(1,0,0,1,385,1248.6) translate(0 36)"/><use xlink:href="#h" transform="matrix(1,0,0,1,385,1248.6) translate(40.9 36)"/><use xlink:href="#i" transform="matrix(1,0,0,1,385,1248.6) translate(0 57.6)"/><use xlink:href="#j" transform="matrix(1,0,0,1,385,1248.6) translate(53.900000000000006 57.6)"/><use xlink:href="#k" transform="matrix(1,0,0,1,385,1248.6) translate(115.80000000000001 57.6)"/><use xlink:href="#l" transform="matrix(1,0,0,1,385,1248.6) translate(131.3 57.6)"/><use xlink:href="#m" transform="matrix(1,0,0,1,385,1248.6) translate(0 79.20000000000002)"/><use xlink:href="#n" transform="matrix(1,0,0,1,385,1248.6) translate(15 79.20000000000002)"/><use xlink:href="#o" transform="matrix(1,0,0,1,385,1248.6) translate(50 79.20000000000002)"/><use xlink:href="#k" transform="matrix(1,0,0,1,385,1248.6) translate(111.9 79.20000000000002)"/><use xlink:href="#p" transform="matrix(1,0,0,1,385,1248.6) translate(127.4 79.20000000000002)"/></g><path d="M980 783.6h180V880H980z" stroke="#000" stroke-opacity="0" stroke-width="2" fill="#fff" fill-opacity="0"/><g><use xlink:href="#E" transform="matrix(1,0,0,1,985,788.5999999999999) translate(0 85.979424)"/></g><path d="M660 1245.6h180v96.4H660z" stroke="#000" stroke-opacity="0" stroke-width="2" fill="#fff" fill-opacity="0"/><g><use xlink:href="#z" transform="matrix(1,0,0,1,665,1250.6) translate(0 14.4)"/><use xlink:href="#A" transform="matrix(1,0,0,1,665,1250.6) translate(13.95 14.4)"/><use xlink:href="#B" transform="matrix(1,0,0,1,665,1250.6) translate(81.80000000000001 14.4)"/><use xlink:href="#C" transform="matrix(1,0,0,1,665,1250.6) translate(97.30000000000001 14.4)"/><use xlink:href="#D" transform="matrix(1,0,0,1,665,1250.6) translate(118.25000000000001 14.4)"/></g><path d="M900 1245.6h300v118H900z" stroke="#000" stroke-opacity="0" stroke-width="2" fill="#fff" fill-opacity="0"/><g><use xlink:href="#r" transform="matrix(1,0,0,1,905,1250.6) translate(0 14.4)"/><use xlink:href="#h" transform="matrix(1,0,0,1,905,1250.6) translate(60 14.4)"/><use xlink:href="#s" transform="matrix(1,0,0,1,905,1250.6) translate(0 36)"/><use xlink:href="#j" transform="matrix(1,0,0,1,905,1250.6) translate(29 36)"/><use xlink:href="#k" transform="matrix(1,0,0,1,905,1250.6) translate(90.9 36)"/><use xlink:href="#t" transform="matrix(1,0,0,1,905,1250.6) translate(106.4 36)"/><use xlink:href="#i" transform="matrix(1,0,0,1,905,1250.6) translate(0 57.6)"/><use xlink:href="#u" transform="matrix(1,0,0,1,905,1250.6) translate(53.900000000000006 57.6)"/><use xlink:href="#k" transform="matrix(1,0,0,1,905,1250.6) translate(103.85000000000001 57.6)"/><use xlink:href="#F" transform="matrix(1,0,0,1,905,1250.6) translate(119.35000000000001 57.6)"/><use xlink:href="#w" transform="matrix(1,0,0,1,905,1250.6) translate(0 79.20000000000002)"/><use xlink:href="#n" transform="matrix(1,0,0,1,905,1250.6) translate(20 79.20000000000002)"/><use xlink:href="#o" transform="matrix(1,0,0,1,905,1250.6) translate(55 79.20000000000002)"/><use xlink:href="#k" transform="matrix(1,0,0,1,905,1250.6) translate(116.9 79.20000000000002)"/><use xlink:href="#p" transform="matrix(1,0,0,1,905,1250.6) translate(132.4 79.20000000000002)"/></g><path d="M1080 1149.2h180v96.4h-180z" stroke="#000" stroke-opacity="0" stroke-width="2" fill="#fff" fill-opacity="0"/><g><use xlink:href="#E" transform="matrix(1,0,0,1,1085,1154.1999999999998) translate(0 85.979424)"/></g><path d="M240 783.6h180V880H240z" stroke="#000" stroke-opacity="0" stroke-width="2" fill="#fff" fill-opacity="0"/><g><use xlink:href="#G" transform="matrix(1,0,0,1,245,788.5999999999999) translate(0 85.979424)"/></g><path d="M240 1243.6h180v96.4H240z" stroke="#000" stroke-opacity="0" stroke-width="2" fill="#fff" fill-opacity="0"/><g><use xlink:href="#G" transform="matrix(1,0,0,1,245,1248.6) translate(0 14.4)"/></g><path d="M1140 1016.9h240v113.4h-240z" stroke="#000" stroke-opacity="0" stroke-width="2" fill="#fff" fill-opacity="0"/><g><use xlink:href="#H" transform="matrix(1,0,0,1,1145,1021.9039999999999) translate(4.111000000000018 24.472)"/><use xlink:href="#I" transform="matrix(1,0,0,1,1145,1021.9039999999999) translate(72.56500000000001 24.472)"/><use xlink:href="#J" transform="matrix(1,0,0,1,1145,1021.9039999999999) translate(129.589 24.472)"/><use xlink:href="#K" transform="matrix(1,0,0,1,1145,1021.9039999999999) translate(203.785 24.472)"/><use xlink:href="#L" transform="matrix(1,0,0,1,1145,1021.9039999999999) translate(30.516999999999996 50.32000000000001)"/><use xlink:href="#M" transform="matrix(1,0,0,1,1145,1021.9039999999999) translate(161.575 50.32000000000001)"/><use xlink:href="#N" transform="matrix(1,0,0,1,1145,1021.9039999999999) translate(115 76.168)"/><use xlink:href="#O" transform="matrix(1,0,0,1,1145,1021.9039999999999) translate(19.89699999999999 102.01600000000002)"/><use xlink:href="#P" transform="matrix(1,0,0,1,1145,1021.9039999999999) translate(100.249 102.01600000000002)"/><use xlink:href="#Q" transform="matrix(1,0,0,1,1145,1021.9039999999999) translate(128.38299999999998 102.01600000000002)"/><use xlink:href="#R" transform="matrix(1,0,0,1,1145,1021.9039999999999) translate(159.721 102.01600000000002)"/></g><defs><path d="M160-131c35 5 61 23 61 61C221 17 115-2 30 0v-248c76 3 177-17 177 60 0 33-19 50-47 57zm-97-11c50-1 110 9 110-42 0-47-63-36-110-37v79zm0 115c55-2 124 14 124-45 0-56-70-42-124-44v89" id="S"/><path d="M100-194c62-1 85 37 85 99 1 63-27 99-86 99S16-35 15-95c0-66 28-99 85-99zM99-20c44 1 53-31 53-75 0-43-8-75-51-75s-53 32-53 75 10 74 51 75" id="T"/><path d="M115-194c53 0 69 39 70 98 0 66-23 100-70 100C84 3 66-7 56-30L54 0H23l1-261h32v101c10-23 28-34 59-34zm-8 174c40 0 45-34 45-75 0-40-5-75-45-74-42 0-51 32-51 76 0 43 10 73 51 73" id="U"/><g id="a"><use transform="matrix(0.05,0,0,0.05,0,0)" xlink:href="#S"/><use transform="matrix(0.05,0,0,0.05,12,0)" xlink:href="#T"/><use transform="matrix(0.05,0,0,0.05,22,0)" xlink:href="#U"/></g><path d="M205 0l-28-72H64L36 0H1l101-248h38L239 0h-34zm-38-99l-47-123c-12 45-31 82-46 123h93" id="V"/><path d="M24 0v-261h32V0H24" id="W"/><path d="M24-231v-30h32v30H24zM24 0v-190h32V0H24" id="X"/><path d="M96-169c-40 0-48 33-48 73s9 75 48 75c24 0 41-14 43-38l32 2c-6 37-31 61-74 61-59 0-76-41-82-99-10-93 101-131 147-64 4 7 5 14 7 22l-32 3c-4-21-16-35-41-35" id="Y"/><path d="M100-194c63 0 86 42 84 106H49c0 40 14 67 53 68 26 1 43-12 49-29l28 8c-11 28-37 45-77 45C44 4 14-33 15-96c1-61 26-98 85-98zm52 81c6-60-76-77-97-28-3 7-6 17-6 28h103" id="Z"/><g id="b"><use transform="matrix(0.05,0,0,0.05,0,0)" xlink:href="#V"/><use transform="matrix(0.05,0,0,0.05,12,0)" xlink:href="#W"/><use transform="matrix(0.05,0,0,0.05,15.949999999999998,0)" xlink:href="#X"/><use transform="matrix(0.05,0,0,0.05,19.9,0)" xlink:href="#Y"/><use transform="matrix(0.05,0,0,0.05,28.899999999999995,0)" xlink:href="#Z"/></g><path d="M135-143c-3-34-86-38-87 0 15 53 115 12 119 90S17 21 10-45l28-5c4 36 97 45 98 0-10-56-113-15-118-90-4-57 82-63 122-42 12 7 21 19 24 35" id="aa"/><path d="M59-47c-2 24 18 29 38 22v24C64 9 27 4 27-40v-127H5v-23h24l9-43h21v43h35v23H59v120" id="ab"/><g id="c"><use transform="matrix(0.05,0,0,0.05,0,0)" xlink:href="#aa"/><use transform="matrix(0.05,0,0,0.05,9,0)" xlink:href="#Z"/><use transform="matrix(0.05,0,0,0.05,19,0)" xlink:href="#W"/><use transform="matrix(0.05,0,0,0.05,22.95,0)" xlink:href="#Z"/><use transform="matrix(0.05,0,0,0.05,32.95,0)" xlink:href="#Y"/><use transform="matrix(0.05,0,0,0.05,41.95,0)" xlink:href="#ab"/></g><path d="M84 4C-5 8 30-112 23-190h32v120c0 31 7 50 39 49 72-2 45-101 50-169h31l1 190h-30c-1-10 1-25-2-33-11 22-28 36-60 37" id="ac"/><path d="M117-194c89-4 53 116 60 194h-32v-121c0-31-8-49-39-48C34-167 62-67 57 0H25l-1-190h30c1 10-1 24 2 32 11-22 29-35 61-36" id="ad"/><path d="M87 75C49 33 22-17 22-94c0-76 28-126 65-167h31c-38 41-64 92-64 168S80 34 118 75H87" id="ae"/><path d="M80-196l47-18 7 23-49 13 32 44-20 13-27-46-27 45-21-12 33-44-49-13 8-23 47 19-2-53h23" id="af"/><path d="M33-261c38 41 65 92 65 168S71 34 33 75H2C39 34 66-17 66-93S39-220 2-261h31" id="ag"/><g id="d"><use transform="matrix(0.05,0,0,0.05,0,0)" xlink:href="#Y"/><use transform="matrix(0.05,0,0,0.05,9,0)" xlink:href="#T"/><use transform="matrix(0.05,0,0,0.05,19,0)" xlink:href="#ac"/><use transform="matrix(0.05,0,0,0.05,29,0)" xlink:href="#ad"/><use transform="matrix(0.05,0,0,0.05,39,0)" xlink:href="#ab"/><use transform="matrix(0.05,0,0,0.05,44,0)" xlink:href="#ae"/><use transform="matrix(0.05,0,0,0.05,49.95,0)" xlink:href="#af"/><use transform="matrix(0.05,0,0,0.05,56.95,0)" xlink:href="#ag"/></g><path d="M141-36C126-15 110 5 73 4 37 3 15-17 15-53c-1-64 63-63 125-63 3-35-9-54-41-54-24 1-41 7-42 31l-33-3c5-37 33-52 76-52 45 0 72 20 72 64v82c-1 20 7 32 28 27v20c-31 9-61-2-59-35zM48-53c0 20 12 33 32 33 41-3 63-29 60-74-43 2-92-5-92 41" id="ah"/><g id="e"><use transform="matrix(0.05,0,0,0.05,0,0)" xlink:href="#ah"/><use transform="matrix(0.05,0,0,0.05,10,0)" xlink:href="#aa"/></g><path d="M-5 72V49h209v23H-5" id="ai"/><g id="f"><use transform="matrix(0.05,0,0,0.05,0,0)" xlink:href="#T"/><use transform="matrix(0.05,0,0,0.05,10,0)" xlink:href="#ad"/><use transform="matrix(0.05,0,0,0.05,20,0)" xlink:href="#ai"/><use transform="matrix(0.05,0,0,0.05,30,0)" xlink:href="#Y"/><use transform="matrix(0.05,0,0,0.05,39,0)" xlink:href="#ah"/><use transform="matrix(0.05,0,0,0.05,49,0)" xlink:href="#W"/><use transform="matrix(0.05,0,0,0.05,52.95,0)" xlink:href="#W"/></g><path d="M101-234c-31-9-42 10-38 44h38v23H63V0H32v-167H5v-23h27c-7-52 17-82 69-68v24" id="aj"/><path d="M114-163C36-179 61-72 57 0H25l-1-190h30c1 12-1 29 2 39 6-27 23-49 58-41v29" id="ak"/><path d="M210-169c-67 3-38 105-44 169h-31v-121c0-29-5-50-35-48C34-165 62-65 56 0H25l-1-190h30c1 10-1 24 2 32 10-44 99-50 107 0 11-21 27-35 58-36 85-2 47 119 55 194h-31v-121c0-29-5-49-35-48" id="al"/><g id="g"><use transform="matrix(0.05,0,0,0.05,0,0)" xlink:href="#aj"/><use transform="matrix(0.05,0,0,0.05,5,0)" xlink:href="#ak"/><use transform="matrix(0.05,0,0,0.05,10.95,0)" xlink:href="#T"/><use transform="matrix(0.05,0,0,0.05,20.95,0)" xlink:href="#al"/></g><path d="M85-194c31 0 48 13 60 33l-1-100h32l1 261h-30c-2-10 0-23-3-31C134-8 116 4 85 4 32 4 16-35 15-94c0-66 23-100 70-100zm9 24c-40 0-46 34-46 75 0 40 6 74 45 74 42 0 51-32 51-76 0-42-9-74-50-73" id="am"/><g id="h"><use transform="matrix(0.05,0,0,0.05,0,0)" xlink:href="#am"/><use transform="matrix(0.05,0,0,0.05,10,0)" xlink:href="#T"/><use transform="matrix(0.05,0,0,0.05,20,0)" xlink:href="#Y"/><use transform="matrix(0.05,0,0,0.05,29,0)" xlink:href="#ab"/><use transform="matrix(0.05,0,0,0.05,34,0)" xlink:href="#T"/><use transform="matrix(0.05,0,0,0.05,44,0)" xlink:href="#ak"/><use transform="matrix(0.05,0,0,0.05,49.95,0)" xlink:href="#aa"/></g><path d="M206 0h-36l-40-164L89 0H53L-1-190h32L70-26l43-164h34l41 164 42-164h31" id="an"/><path d="M106-169C34-169 62-67 57 0H25v-261h32l-1 103c12-21 28-36 61-36 89 0 53 116 60 194h-32v-121c2-32-8-49-39-48" id="ao"/><g id="i"><use transform="matrix(0.05,0,0,0.05,0,0)" xlink:href="#an"/><use transform="matrix(0.05,0,0,0.05,12.950000000000001,0)" xlink:href="#ao"/><use transform="matrix(0.05,0,0,0.05,22.950000000000003,0)" xlink:href="#Z"/><use transform="matrix(0.05,0,0,0.05,32.95,0)" xlink:href="#ak"/><use transform="matrix(0.05,0,0,0.05,38.900000000000006,0)" xlink:href="#Z"/></g><g id="j"><use transform="matrix(0.05,0,0,0.05,0,0)" xlink:href="#T"/><use transform="matrix(0.05,0,0,0.05,10,0)" xlink:href="#ad"/><use transform="matrix(0.05,0,0,0.05,20,0)" xlink:href="#ai"/><use transform="matrix(0.05,0,0,0.05,30,0)" xlink:href="#Y"/><use transform="matrix(0.05,0,0,0.05,39,0)" xlink:href="#ah"/><use transform="matrix(0.05,0,0,0.05,49,0)" xlink:href="#W"/><use transform="matrix(0.05,0,0,0.05,52.95,0)" xlink:href="#W"/></g><path d="M18-150v-26h174v26H18zm0 90v-26h174v26H18" id="ap"/><use transform="matrix(0.05,0,0,0.05,0,0)" xlink:href="#ap" id="k"/><g id="l"><use transform="matrix(0.05,0,0,0.05,0,0)" xlink:href="#ab"/><use transform="matrix(0.05,0,0,0.05,5,0)" xlink:href="#ak"/><use transform="matrix(0.05,0,0,0.05,10.95,0)" xlink:href="#ac"/><use transform="matrix(0.05,0,0,0.05,20.95,0)" xlink:href="#Z"/></g><g id="n"><use transform="matrix(0.05,0,0,0.05,0,0)" xlink:href="#ah"/><use transform="matrix(0.05,0,0,0.05,10,0)" xlink:href="#ad"/><use transform="matrix(0.05,0,0,0.05,20,0)" xlink:href="#am"/></g><g id="o"><use transform="matrix(0.05,0,0,0.05,0,0)" xlink:href="#aa"/><use transform="matrix(0.05,0,0,0.05,9,0)" xlink:href="#ao"/><use transform="matrix(0.05,0,0,0.05,19,0)" xlink:href="#X"/><use transform="matrix(0.05,0,0,0.05,22.95,0)" xlink:href="#aj"/><use transform="matrix(0.05,0,0,0.05,27.950000000000003,0)" xlink:href="#ab"/><use transform="matrix(0.05,0,0,0.05,32.95,0)" xlink:href="#ai"/><use transform="matrix(0.05,0,0,0.05,42.95,0)" xlink:href="#X"/><use transform="matrix(0.05,0,0,0.05,46.900000000000006,0)" xlink:href="#am"/></g><path d="M27 0v-27h64v-190l-56 39v-29l58-41h29v221h61V0H27" id="aq"/><path d="M101-251c82-7 93 87 43 132L82-64C71-53 59-42 53-27h129V0H18c2-99 128-94 128-182 0-28-16-43-45-43s-46 15-49 41l-32-3c6-41 34-60 81-64" id="ar"/><path d="M126-127c33 6 58 20 58 59 0 88-139 92-164 29-3-8-5-16-6-25l32-3c6 27 21 44 54 44 32 0 52-15 52-46 0-38-36-46-79-43v-28c39 1 72-4 72-42 0-27-17-43-46-43-28 0-47 15-49 41l-32-3c6-42 35-63 81-64 48-1 79 21 79 65 0 36-21 52-52 59" id="as"/><path d="M155-56V0h-30v-56H8v-25l114-167h33v167h35v25h-35zm-30-156c-27 46-58 90-88 131h88v-131" id="at"/><g id="p"><use transform="matrix(0.05,0,0,0.05,0,0)" xlink:href="#aq"/><use transform="matrix(0.05,0,0,0.05,10,0)" xlink:href="#ar"/><use transform="matrix(0.05,0,0,0.05,20,0)" xlink:href="#as"/><use transform="matrix(0.05,0,0,0.05,30,0)" xlink:href="#at"/></g><path d="M182-182c0 78-84 86-111 141h115V0H12c-6-101 99-100 120-180 1-22-12-31-33-32-23 0-32 14-35 34l-49-3c5-45 32-70 84-70 51 0 83 22 83 69" id="au"/><use transform="matrix(0.05,0,0,0.05,0,0)" xlink:href="#au" id="q"/><path d="M115-194c55 1 70 41 70 98S169 2 115 4C84 4 66-9 55-30l1 105H24l-1-265h31l2 30c10-21 28-34 59-34zm-8 174c40 0 45-34 45-75s-6-73-45-74c-42 0-51 32-51 76 0 43 10 73 51 73" id="av"/><g id="r"><use transform="matrix(0.05,0,0,0.05,0,0)" xlink:href="#ac"/><use transform="matrix(0.05,0,0,0.05,10,0)" xlink:href="#av"/><use transform="matrix(0.05,0,0,0.05,20,0)" xlink:href="#am"/><use transform="matrix(0.05,0,0,0.05,30,0)" xlink:href="#ah"/><use transform="matrix(0.05,0,0,0.05,40,0)" xlink:href="#ab"/><use transform="matrix(0.05,0,0,0.05,45,0)" xlink:href="#Z"/></g><g id="s"><use transform="matrix(0.05,0,0,0.05,0,0)" xlink:href="#aa"/><use transform="matrix(0.05,0,0,0.05,9,0)" xlink:href="#Z"/><use transform="matrix(0.05,0,0,0.05,19,0)" xlink:href="#ab"/></g><g id="t"><use transform="matrix(0.05,0,0,0.05,0,0)" xlink:href="#aj"/><use transform="matrix(0.05,0,0,0.05,5,0)" xlink:href="#ah"/><use transform="matrix(0.05,0,0,0.05,15,0)" xlink:href="#W"/><use transform="matrix(0.05,0,0,0.05,18.95,0)" xlink:href="#aa"/><use transform="matrix(0.05,0,0,0.05,27.950000000000003,0)" xlink:href="#Z"/></g><g id="u"><use transform="matrix(0.05,0,0,0.05,0,0)" xlink:href="#ad"/><use transform="matrix(0.05,0,0,0.05,10,0)" xlink:href="#ah"/><use transform="matrix(0.05,0,0,0.05,20,0)" xlink:href="#al"/><use transform="matrix(0.05,0,0,0.05,34.95,0)" xlink:href="#Z"/></g><path d="M47-170H22l-4-78h33" id="aw"/><g id="v"><use transform="matrix(0.05,0,0,0.05,0,0)" xlink:href="#aw"/><use transform="matrix(0.05,0,0,0.05,3.4000000000000004,0)" xlink:href="#S"/><use transform="matrix(0.05,0,0,0.05,15.4,0)" xlink:href="#T"/><use transform="matrix(0.05,0,0,0.05,25.4,0)" xlink:href="#U"/><use transform="matrix(0.05,0,0,0.05,35.4,0)" xlink:href="#aw"/></g><path d="M140-251c80 0 125 45 125 126S219 4 139 4C58 4 15-44 15-125s44-126 125-126zm-1 214c52 0 73-35 73-88 0-50-21-86-72-86-52 0-73 35-73 86s22 88 72 88" id="ax"/><path d="M195 0l-88-114-31 24V0H24v-248h52v113l112-113h60L142-143 257 0h-62" id="ay"/><g id="x"><use transform="matrix(0.05,0,0,0.05,0,0)" xlink:href="#ax"/><use transform="matrix(0.05,0,0,0.05,14,0)" xlink:href="#ay"/></g><g id="y"><use transform="matrix(0.05,0,0,0.05,0,0)" xlink:href="#am"/><use transform="matrix(0.05,0,0,0.05,10,0)" xlink:href="#ah"/><use transform="matrix(0.05,0,0,0.05,20,0)" xlink:href="#ab"/><use transform="matrix(0.05,0,0,0.05,25,0)" xlink:href="#ah"/><use transform="matrix(0.05,0,0,0.05,35,0)" xlink:href="#U"/><use transform="matrix(0.05,0,0,0.05,45,0)" xlink:href="#ah"/><use transform="matrix(0.05,0,0,0.05,55,0)" xlink:href="#aa"/><use transform="matrix(0.05,0,0,0.05,64,0)" xlink:href="#Z"/></g><g id="z"><use transform="matrix(0.05,0,0,0.05,0,0)" xlink:href="#X"/><use transform="matrix(0.05,0,0,0.05,3.95,0)" xlink:href="#aj"/></g><g id="A"><use transform="matrix(0.05,0,0,0.05,0,0)" xlink:href="#ae"/><use transform="matrix(0.05,0,0,0.05,5.95,0)" xlink:href="#T"/><use transform="matrix(0.05,0,0,0.05,15.949999999999998,0)" xlink:href="#ad"/><use transform="matrix(0.05,0,0,0.05,25.950000000000003,0)" xlink:href="#ai"/><use transform="matrix(0.05,0,0,0.05,35.95,0)" xlink:href="#Y"/><use transform="matrix(0.05,0,0,0.05,44.95,0)" xlink:href="#ah"/><use transform="matrix(0.05,0,0,0.05,54.95,0)" xlink:href="#W"/><use transform="matrix(0.05,0,0,0.05,58.900000000000006,0)" xlink:href="#W"/></g><path d="M18-27v-27l151-64-151-65v-27l175 74v36" id="az"/><use transform="matrix(0.05,0,0,0.05,0,0)" xlink:href="#az" id="B"/><g id="C"><use transform="matrix(0.05,0,0,0.05,0,0)" xlink:href="#ar"/><use transform="matrix(0.05,0,0,0.05,10,0)" xlink:href="#ag"/></g><g id="D"><use transform="matrix(0.05,0,0,0.05,0,0)" xlink:href="#ab"/><use transform="matrix(0.05,0,0,0.05,5,0)" xlink:href="#ao"/><use transform="matrix(0.05,0,0,0.05,15,0)" xlink:href="#Z"/><use transform="matrix(0.05,0,0,0.05,25,0)" xlink:href="#ad"/></g><g id="E"><use transform="matrix(0.05,0,0,0.05,0,0)" xlink:href="#Y"/><use transform="matrix(0.05,0,0,0.05,9,0)" xlink:href="#T"/><use transform="matrix(0.05,0,0,0.05,19,0)" xlink:href="#al"/><use transform="matrix(0.05,0,0,0.05,33.95,0)" xlink:href="#al"/><use transform="matrix(0.05,0,0,0.05,48.900000000000006,0)" xlink:href="#X"/><use transform="matrix(0.05,0,0,0.05,52.85,0)" xlink:href="#ab"/></g><g id="F"><use transform="matrix(0.05,0,0,0.05,0,0)" xlink:href="#aw"/><use transform="matrix(0.05,0,0,0.05,3.4000000000000004,0)" xlink:href="#V"/><use transform="matrix(0.05,0,0,0.05,15.4,0)" xlink:href="#W"/><use transform="matrix(0.05,0,0,0.05,19.35,0)" xlink:href="#X"/><use transform="matrix(0.05,0,0,0.05,23.3,0)" xlink:href="#Y"/><use transform="matrix(0.05,0,0,0.05,32.3,0)" xlink:href="#Z"/><use transform="matrix(0.05,0,0,0.05,42.3,0)" xlink:href="#aw"/></g><path d="M177-190C167-65 218 103 67 71c-23-6-38-20-44-43l32-5c15 47 100 32 89-28v-30C133-14 115 1 83 1 29 1 15-40 15-95c0-56 16-97 71-98 29-1 48 16 59 35 1-10 0-23 2-32h30zM94-22c36 0 50-32 50-73 0-42-14-75-50-75-39 0-46 34-46 75s6 73 46 73" id="aA"/><g id="G"><use transform="matrix(0.05,0,0,0.05,0,0)" xlink:href="#U"/><use transform="matrix(0.05,0,0,0.05,10,0)" xlink:href="#Z"/><use transform="matrix(0.05,0,0,0.05,20,0)" xlink:href="#aA"/><use transform="matrix(0.05,0,0,0.05,30,0)" xlink:href="#X"/><use transform="matrix(0.05,0,0,0.05,33.95,0)" xlink:href="#ad"/></g><path fill="#4c535d" d="M722-498c18-70 6-160 6-241 0-38 16-57 49-57 55 0 82 64 82 193 1 204-63 347-126 491-54 125-124 110-196 9-30-42-54-91-82-146-27-53-43-79-49-79-8-17-88 136-114 182C269-106 193 9 170-1 96-15 86-47 66-129 33-267 17-480 18-657c0-70 18-105 54-105 39 0 66 36 68 87 4 137-4 277 12 406 12 100 67-12 84-47 47-96 102-197 139-285 18-41 78-38 96-4 52 97 51 251 110 344 50 78 71 31 104-70 17-53 22-108 37-167" id="aB"/><path fill="#4c535d" d="M608-642l-20 77c-36 56-69 94-113 138-49 48-58 40-29 81 33 46 69 89 97 147 44 89 52 141 40 147-3 38-20 49-63 52-68 5-97-106-129-160-40-68-56-162-144-164-53-1-27 78-45 121-7 56-12 123-28 170C157-4 113 24 66-1 46-11 40-39 49-87c19-111 19-139 19-313 0-144 1-187-40-242-27-37-13-94 26-108 103-36 250-59 389-41 63 8 182 85 165 149zm-140 11c-10-39-42-58-96-57-53 12-154 21-179 43-5 9-8 31-8 65 0 151 19 135 127 94 94-36 148-79 156-145" id="aC"/><path fill="#4c535d" d="M292-638c-67 2-113 14-176 21-81 9-112-68-58-103 132-46 304-52 470-66l65 5c50 52 43 111-50 111-45 0-75 15-112 18-18 16-19 83-24 152-7 108-21 214-33 322-5 46 36 20 67 20 54 0 81-10 139-16 43 25 50 62 23 110-151 29-311 50-490 79C58 24-8 22 3-44c14-83 161-45 224-90 22-16 24-69 29-107 17-126 33-258 36-397" id="aD"/><path fill="#4c535d" d="M593-790c58 0 99 54 77 117-5 13-15 16-35 14-70-7-152-3-229 7-31 20-24 81-26 127-4 138-16 277-16 422 0 32 4 70-21 83-26 36-88 7-103-20 1-182 10-346 21-521 2-27 11-81-18-84-73-7-138 11-206 3-20-18-39-18-32-51-3-78 74-91 145-91 129 0 251 6 369-8 25-3 49 2 74 2" id="aE"/><path fill="#4c535d" d="M330-158c82-22 193-18 286-31 38 11 58 81 24 113-25 24-71 25-116 25-135 0-238 34-358 47C61 7 4-52 15-159c12-113 37-213 32-340-2-59 2-121-2-178-2-44 35-62 81-61 104-31 222-52 345-64 68-7 103 34 111 94 2 12-3 22-9 31-33 14-62 15-103 16-100 2-196 10-270 40h-8c-18 23-11 79-15 106-1 13 5 22 16 25 82-10 176-25 264-12 44 7 78 26 71 72-7 49-76 30-125 30-78 0-138 22-210 29-24 1-35 28-36 52-2 41-10 83-8 126-19 84 122 51 181 35" id="aF"/><g id="H"><use transform="matrix(0.018,0,0,0.018,0,0)" xlink:href="#aB"/><use transform="matrix(0.018,0,0,0.018,15.623999999999999,0)" xlink:href="#aC"/><use transform="matrix(0.018,0,0,0.018,26.747999999999998,0)" xlink:href="#aD"/><use transform="matrix(0.018,0,0,0.018,38.178,0)" xlink:href="#aE"/><use transform="matrix(0.018,0,0,0.018,51.12,0)" xlink:href="#aF"/></g><path fill="#4c535d" d="M371-533c189 0 256 55 239 237-9 91-67 138-157 205C374-33 301-7 236-7 155-7 13-82 18-160c3-44 62-73 96-38 43 44 152 73 218 29 77-51 166-125 156-169 2-44-67-63-119-62-47 1-108 1-155 3C87-393 13-429 1-531c11-87 101-150 165-187 90-52 160-96 290-87 34 2 118 78 115 115-3 35-23 38-55 45-15 4-26-4-33-24-37-64-116-1-164 12-41 11-154 77-154 113 0 15 14 22 41 22 45 0 127-11 165-11" id="aG"/><path fill="#4c535d" d="M583 1c26 5 52-17 51-41 24-60-22-103-43-144-74-69-132-138-184-228-37-64 44-88 81-120 65-56 138-104 195-168 35-39 5-108-40-113-66 17-104 68-150 105-81 65-158 127-245 187-18 12-48 33-70 13-6-6-8-14-7-23 3-63 18-122 28-181-3-53-39-88-92-91-82 12-51 140-71 216 1 133-13 257-20 381-3 58-27 167 27 193 35 29 78-2 98-20 30-59 16-164 24-251 3-31 38-61 73-59 78 41 118 121 174 184 38 44 71 96 112 139 15 15 32 34 59 21" id="aH"/><path fill="#4c535d" d="M722-498c18-70 6-160 6-241 0-38 16-57 49-57 55 0 82 64 82 193 1 204-63 347-126 491-54 125-124 110-196 9-30-42-54-91-82-146-27-53-43-79-49-79-8-17-88 136-114 182C269-106 193 9 170-1 96-15 86-47 66-129 33-267 17-480 18-657c0-70 18-105 54-105 39 0 66 36 68 87 4 137-4 277 12 406 12 100 67-12 84-47 47-96 102-197 139-285 18-41 78-38 96-4 52 97 51 251 110 344 50 78 71 31 104-70 17-53 22-108 37-167" id="aI"/><g id="I"><use transform="matrix(0.018,0,0,0.018,0,0)" xlink:href="#aG"/><use transform="matrix(0.018,0,0,0.018,11.357999999999999,0)" xlink:href="#aH"/><use transform="matrix(0.018,0,0,0.018,24.065999999999995,0)" xlink:href="#aF"/><use transform="matrix(0.018,0,0,0.018,36.053999999999995,0)" xlink:href="#aI"/></g><path fill="#4c535d" d="M521-275c40-33 108-24 108 34 0 49-75 103-210 183-80 47-247 72-323 10-66-54-95-101-82-218 12-106 41-136 91-224 55-96 145-209 240-278 32-23 68-33 107-33 86 2 108 61 107 158 0 55-15 82-44 82-55 1-25-116-79-110-132 15-229 223-291 334-48 86-31 226 81 218 122-9 217-92 295-156" id="aJ"/><path fill="#4c535d" d="M103-24C79 10-2-14 8-59c42-186 129-353 193-524 23-62 63-135 99-197 39-38 106-10 109 47 27 100 51 209 81 307 8 25 72 24 72 63 0 44-26 46-37 75 12 83 46 156 55 243 7 63-106 47-114 11-13-58-36-170-57-231-3-4-7-8-9-14-69 4-134 40-198 52-53 21-53 108-81 160-4 16-8 29-18 43zm215-551c-16 18-92 195-73 208 46 2 100-12 123-31-5-30-32-162-38-171-2-3-6-5-12-6" id="aK"/><path fill="#4c535d" d="M106-737c41-53 131 12 108 86-42 139-71 285-71 455 0 88 72 66 143 48 49-12 128-35 183-63 38-19 36-69 44-119 17-114 31-247 31-354 0-57 26-85 79-85 37 0 55 27 55 81 0 190-34 397-59 573 4 31 20 93-13 105-8 10-30 7-65-8-16-20-33-38-51-54C397-48 305 0 205 0 79 0 5-43 13-176c13-196 50-391 93-561" id="aL"/><path fill="#4c535d" d="M19-91c0-222 71-428 58-668-3-62 121-44 170-33 118 27 229 50 293 128 44 53 63 97 63 217 0 165-189 328-383 400-36 13-62 45-108 45-66 0-93-23-93-89zm185-582c-30 151-43 322-58 489 5 39 27 28 60 14 129-54 276-147 276-304 0-155-106-203-278-199" id="aM"/><g id="J"><use transform="matrix(0.018,0,0,0.018,0,0)" xlink:href="#aJ"/><use transform="matrix(0.018,0,0,0.018,11.411999999999999,0)" xlink:href="#aK"/><use transform="matrix(0.018,0,0,0.018,21.977999999999998,0)" xlink:href="#aL"/><use transform="matrix(0.018,0,0,0.018,34.632,0)" xlink:href="#aG"/><use transform="matrix(0.018,0,0,0.018,45.989999999999995,0)" xlink:href="#aF"/><use transform="matrix(0.018,0,0,0.018,57.977999999999994,0)" xlink:href="#aM"/></g><path fill="#4c535d" d="M24-128c0-158-18-313-5-472 6-74-11-192 62-191 78 1 88 68 113 130 59 143 102 191 174 297 50 73 81 109 92 109 8 0 12-3 13-9 24-163 3-322-12-477-6-63 62-76 101-37 65 64 45 212 54 340 10 141 7 304-15 413-8 15-20 23-37 23-76 0-203-132-244-200-33-54-79-109-116-169l4 4c-9-20-41-55-54-51-14 102-5 244 6 344 3 30-15 69-41 68-9 0-28-1-56-3-44-28-39-45-39-119" id="aN"/><g id="K"><use transform="matrix(0.018,0,0,0.018,0,0)" xlink:href="#aK"/><use transform="matrix(0.018,0,0,0.018,10.565999999999999,0)" xlink:href="#aN"/></g><path fill="#4c535d" d="M23-677c-68-88 127-122 212-122 113 0 253 24 291 82 92 144-48 310-153 365-52 27-102 48-161 69-56 20-53 15-58 80-4 49-8 103-13 153-3 31-19 46-43 46-44 0-65-28-63-81 5-162 8-330 16-486 3-53-4-75-28-106zm415 73c0-44-44-66-132-66-78 0-124 8-135 26-10 16-14 89-14 218 0 44 22 39 57 25 83-34 224-115 224-203" id="aO"/><path fill="#4c535d" d="M21-302C-7-136 9 24 196-12c147-28 263-93 386-142 57-23 26-120-26-120-111 32-240 115-378 126-13 1-22-26-25-45 30-174 59-350 88-524 10-62-86-124-120-61-39 73-49 196-69 277-19 77-22 145-31 199" id="aP"/><path fill="#4c535d" d="M44-443c79-191 208-366 448-366 141 0 239 118 267 253 46 222-61 413-213 490-83 42-221 78-338 30-55-23-106-43-129-82-26-14-80-140-57-202 2-41 8-89 22-123zm103 115c1 136 75 191 208 191 130 0 180-50 241-135 38-53 55-111 55-169 0-109-73-236-179-227-143 12-260 151-311 271-9 24-14 47-14 69" id="aQ"/><g id="L"><use transform="matrix(0.018,0,0,0.018,0,0)" xlink:href="#aK"/><use transform="matrix(0.018,0,0,0.018,10.565999999999999,0)" xlink:href="#aO"/><use transform="matrix(0.018,0,0,0.018,20.718,0)" xlink:href="#aO"/><use transform="matrix(0.018,0,0,0.018,30.869999999999997,0)" xlink:href="#aP"/><use transform="matrix(0.018,0,0,0.018,41.94,0)" xlink:href="#aD"/><use transform="matrix(0.018,0,0,0.018,53.37,0)" xlink:href="#aJ"/><use transform="matrix(0.018,0,0,0.018,64.782,0)" xlink:href="#aK"/><use transform="matrix(0.018,0,0,0.018,75.348,0)" xlink:href="#aE"/><use transform="matrix(0.018,0,0,0.018,88.28999999999999,0)" xlink:href="#aD"/><use transform="matrix(0.018,0,0,0.018,99.72,0)" xlink:href="#aQ"/><use transform="matrix(0.018,0,0,0.018,114.17399999999999,0)" xlink:href="#aN"/></g><path fill="#4c535d" d="M68-174c-8-157-1-333-1-488 0-23-21-28-12-60 24-87 141-85 256-77 161 12 317 42 251 258-5 17-40 45-44 60 15 30 85 80 98 123 62 108 25 192-76 258C455-45 341-9 207-4 145-2 19-30 19-85c0-36 51-41 49-89zm137-510c-18 6-26 137-16 192 30 22 66 2 112-6 70-13 158-95 159-132 17-68-169-82-255-54zm-15 330c-15 57-2 155 5 215 6 4 6 12 18 11 101-5 211-32 267-82 52-46 58-91 12-140s-73-73-81-73c-39 14-121 48-173 54-15 2-34 14-48 15" id="aR"/><path fill="#4c535d" d="M590-683c0-95-64-132-148-103-62 21-113 58-161 92-97 69-165 165-223 275C-45-222 51 11 277-12c154-16 257-81 343-160 63-58 100-126 109-243 12-155-158-93-246-67-61 18-178 69-168 115-2 30 28 68 54 64 69-10 133-52 201-67 9-2 20 9 20 17 0 11-18 38-57 79-85 91-188 136-306 136-55 0-99-68-99-127 0-30 16-69 37-123 25-64 237-288 318-281 25-8 66 40 79 44 19 0 28-19 28-58" id="aS"/><g id="M"><use transform="matrix(0.018,0,0,0.018,0,0)" xlink:href="#aR"/><use transform="matrix(0.018,0,0,0.018,11.574,0)" xlink:href="#aL"/><use transform="matrix(0.018,0,0,0.018,24.228,0)" xlink:href="#aS"/></g><path fill="#4c535d" d="M24-128c0-158-18-313-5-472 6-74-11-192 62-191 78 1 88 68 113 130 59 143 102 191 174 297 50 73 81 109 92 109 8 0 12-3 13-9 24-163 3-322-12-477-6-63 62-76 101-37 65 64 45 212 54 340 10 141 7 304-15 413-8 15-20 23-37 23-76 0-203-132-244-200-33-54-79-109-116-169l4 4c-9-20-41-55-54-51-14 102-5 244 6 344 3 30-15 69-41 68-9 0-28-1-56-3-44-28-39-45-39-119" id="aT"/><path fill="#4c535d" d="M192-85c-3 48 46 100 89 72 52-75 73-232 102-321 46-139 146-233 278-374 22-37 2-105-46-93-81 20-199 174-252 246-53 73-46 65-110 7-63-57-96-136-132-220-11-25-31-37-54-37-36-1-56 32-56 68 32 142 118 264 224 332 15 16 24 24 21 38" id="aU"/><g id="O"><use transform="matrix(0.018,0,0,0.018,0,0)" xlink:href="#aT"/><use transform="matrix(0.018,0,0,0.018,11.537999999999998,0)" xlink:href="#aQ"/><use transform="matrix(0.018,0,0,0.018,25.991999999999997,0)" xlink:href="#aR"/><use transform="matrix(0.018,0,0,0.018,37.565999999999995,0)" xlink:href="#aQ"/><use transform="matrix(0.018,0,0,0.018,52.019999999999996,0)" xlink:href="#aM"/><use transform="matrix(0.018,0,0,0.018,62.891999999999996,0)" xlink:href="#aU"/></g><g id="P"><use transform="matrix(0.018,0,0,0.018,0,0)" xlink:href="#aD"/><use transform="matrix(0.018,0,0,0.018,11.43,0)" xlink:href="#aG"/></g><g id="Q"><use transform="matrix(0.018,0,0,0.018,0,0)" xlink:href="#aQ"/><use transform="matrix(0.018,0,0,0.018,14.453999999999999,0)" xlink:href="#aN"/></g><path fill="#4c535d" d="M240-769c30-42 90-2 90 39 7 13-101 274-95 267-16 57-28 116-51 179-19 53-19 71-63 74-26 2-43-19-43-45 41-145 89-343 142-478 8-21 17-31 20-36zM5-58c0-49 54-79 102-79 46 0 69 22 69 66 0 49-57 84-104 84C39 13 5-26 5-58" id="aV"/><g id="R"><use transform="matrix(0.018,0,0,0.018,0,0)" xlink:href="#aJ"/><use transform="matrix(0.018,0,0,0.018,11.411999999999999,0)" xlink:href="#aK"/><use transform="matrix(0.018,0,0,0.018,21.977999999999998,0)" xlink:href="#aP"/><use transform="matrix(0.018,0,0,0.018,33.047999999999995,0)" xlink:href="#aP"/><use transform="matrix(0.018,0,0,0.018,44.117999999999995,0)" xlink:href="#aV"/></g></defs></g></svg>