<svg xmlns="http://www.w3.org/2000/svg" xmlns:xlink="http://www.w3.org/1999/xlink" xmlns:lucid="lucid" width="1301.5" height="622"><g transform="translate(-139.5 -59.000000000000014)" lucid:page-tab-id="0_0"><path d="M238.32 220h-76.64c-.88 0-1.68-.76-1.68-1.7v-5.12c0-18.18 11.92-33.43 29.52-37.7.48-.1.88-.05 1.28.17 5.92 3.2 12.48 3.2 18.4 0 .4-.22.8-.26 1.2-.18 17.68 4.28 29.6 19.53 29.6 37.7v5.14c0 .94-.8 1.7-1.68 1.7zm-74.88-3.43h73.12v-3.4c.08-16.35-10.56-30.07-26.32-34.17-3.36 1.65-6.48 2.4-10.24 2.4s-6.88-.7-10.24-2.4c-15.76 4.1-26.4 17.82-26.32 34.18z" stroke="#fff" stroke-opacity="0" fill="#232f3e"/><path d="M200 181.3c-3.67 0-6.8-.8-10.03-2.56-9.95-5.58-13.5-18.2-7.93-28.17 5.58-9.95 18.17-13.5 28.1-7.93 6.72 3.76 10.56 10.33 10.56 18.05 0 7.76-3.92 14.36-10.74 18.04-3.22 1.73-6.32 2.56-9.95 2.56zm0-37.83c-6.6-.17-12.26 3.18-15.44 8.96-4.5 8.38-1.4 18.8 6.94 23.34 5.4 2.93 11.36 2.93 16.77 0 5.7-3.1 9-8.68 8.96-15.2-.04-9.5-7.76-17.14-17.22-17.1z" stroke="#fff" stroke-opacity="0" fill="#232f3e"/><use xlink:href="#a" transform="matrix(1,0,0,1,130,229) translate(54 14.4)"/><path d="M280.5 180.5h819v1h-819z" fill="none"/><path d="M300.72 180.5h20.22m10.12 0h20.22m10.1 0h20.23m10.12 0h20.22m10.12 0h20.22m10.1 0h20.23m10.12 0h20.22m10.12 0h20.22m10.1 0h20.23m10.12 0h20.22m10.12 0h20.22m10.1 0h20.23m10.12 0h20.22m10.12 0h20.22m10.1 0h20.23m10.12 0h20.22m10.12 0h20.22m10.1 0h20.23m10.12 0h20.22m10.12 0h20.22m10.1 0h20.23m10.12 0h20.22m10.12 0h20.22m10.1 0h20.23m10.12 0h20.22m10.12 0h20.22m10.1 0h10.12v1h-10.1m-10.12 0h-20.22m-10.12 0h-20.22m-10.1 0h-20.23m-10.12 0h-20.22m-10.12 0h-20.22m-10.1 0h-20.23m-10.12 0h-20.22m-10.12 0h-20.22m-10.1 0h-20.23m-10.12 0h-20.22m-10.12 0h-20.22m-10.1 0h-20.23m-10.12 0h-20.22m-10.12 0h-20.22m-10.1 0h-20.23m-10.12 0h-20.22m-10.12 0h-20.22m-10.1 0h-20.23m-10.12 0h-20.22m-10.12 0h-20.22m-10.1 0h-20.23m-10.12 0h-20.22m-10.12 0h-20.22m-10.1 0h-20.23m-10.12 0h-20.22m-10.12 0h-20.22m-10.1 0H280.5v-1h10.1" stroke="#000" fill="none"/><path d="M200 349c-14.75 0-30.35-4.08-30.35-11.6v-56.8c0-7.52 15.6-11.6 30.35-11.6 14.7 0 30.35 4.08 30.35 11.6v56.8c0 7.52-15.66 11.6-30.35 11.6zm0-76.56c-16.7 0-26.95 4.72-26.95 8.16v56.8c0 3.36 10.2 8.16 26.95 8.16s26.95-4.72 26.95-8.16v-56.8c0-3.44-10.26-8.16-26.95-8.16z" stroke="#fff" stroke-opacity="0" fill="#232f3e"/><path d="M200 290.53c-14.75 0-30.35-4.07-30.35-11.62h3.4c0 3.4 10.2 8.23 26.95 8.23s26.95-4.78 26.95-8.22h3.4c0 7.56-15.66 11.63-30.35 11.63z" stroke="#fff" stroke-opacity="0" fill="#232f3e"/><use xlink:href="#b" transform="matrix(1,0,0,1,139.65,358) translate(43.525 14.4)"/><path d="M280.5 318.5h819v1h-819z" fill="none"/><path d="M300.72 318.5h20.22m10.12 0h20.22m10.1 0h20.23m10.12 0h20.22m10.12 0h20.22m10.1 0h20.23m10.12 0h20.22m10.12 0h20.22m10.1 0h20.23m10.12 0h20.22m10.12 0h20.22m10.1 0h20.23m10.12 0h20.22m10.12 0h20.22m10.1 0h20.23m10.12 0h20.22m10.12 0h20.22m10.1 0h20.23m10.12 0h20.22m10.12 0h20.22m10.1 0h20.23m10.12 0h20.22m10.12 0h20.22m10.1 0h20.23m10.12 0h20.22m10.12 0h20.22m10.1 0h10.12v1h-10.1m-10.12 0h-20.22m-10.12 0h-20.22m-10.1 0h-20.23m-10.12 0h-20.22m-10.12 0h-20.22m-10.1 0h-20.23m-10.12 0h-20.22m-10.12 0h-20.22m-10.1 0h-20.23m-10.12 0h-20.22m-10.12 0h-20.22m-10.1 0h-20.23m-10.12 0h-20.22m-10.12 0h-20.22m-10.1 0h-20.23m-10.12 0h-20.22m-10.12 0h-20.22m-10.1 0h-20.23m-10.12 0h-20.22m-10.12 0h-20.22m-10.1 0h-20.23m-10.12 0h-20.22m-10.12 0h-20.22m-10.1 0h-20.23m-10.12 0h-20.22m-10.12 0h-20.22m-10.1 0H280.5v-1h10.1" stroke="#000" fill="none"/><path d="M238.32 607h-76.64c-.88 0-1.68-.76-1.68-1.7v-5.12c0-18.18 11.92-33.43 29.52-37.7.48-.1.88-.05 1.28.17 5.92 3.2 12.48 3.2 18.4 0 .4-.22.8-.26 1.2-.17 17.68 4.27 29.6 19.52 29.6 37.7v5.13c0 .94-.8 1.7-1.68 1.7zm-74.88-3.43h73.12v-3.4c.08-16.35-10.56-30.07-26.32-34.17-3.36 1.64-6.48 2.4-10.24 2.4s-6.88-.7-10.24-2.4c-15.76 4.1-26.4 17.82-26.32 34.18z" stroke="#fff" stroke-opacity="0" fill="#232f3e"/><path d="M200 568.3c-3.67 0-6.8-.78-10.03-2.56-9.95-5.58-13.5-18.2-7.93-28.17 5.58-9.95 18.17-13.5 28.1-7.93 6.72 3.76 10.56 10.33 10.56 18.05 0 7.76-3.92 14.36-10.74 18.04-3.22 1.73-6.32 2.56-9.95 2.56zm0-37.83c-6.6-.17-12.26 3.18-15.44 8.96-4.5 8.4-1.4 18.8 6.94 23.34 5.4 2.93 11.36 2.93 16.77 0 5.7-3.1 9-8.68 8.96-15.2-.04-9.5-7.76-17.14-17.22-17.1z" stroke="#fff" stroke-opacity="0" fill="#232f3e"/><use xlink:href="#c" transform="matrix(1,0,0,1,130,616) translate(50.55 14.4)"/><path d="M280.5 540.5h819v1h-819z" fill="none"/><path d="M300.72 540.5h20.22m10.12 0h20.22m10.1 0h20.23m10.12 0h20.22m10.12 0h20.22m10.1 0h20.23m10.12 0h20.22m10.12 0h20.22m10.1 0h20.23m10.12 0h20.22m10.12 0h20.22m10.1 0h20.23m10.12 0h20.22m10.12 0h20.22m10.1 0h20.23m10.12 0h20.22m10.12 0h20.22m10.1 0h20.23m10.12 0h20.22m10.12 0h20.22m10.1 0h20.23m10.12 0h20.22m10.12 0h20.22m10.1 0h20.23m10.12 0h20.22m10.12 0h20.22m10.1 0h10.12v1h-10.1m-10.12 0h-20.22m-10.12 0h-20.22m-10.1 0h-20.23m-10.12 0h-20.22m-10.12 0h-20.22m-10.1 0h-20.23m-10.12 0h-20.22m-10.12 0h-20.22m-10.1 0h-20.23m-10.12 0h-20.22m-10.12 0h-20.22m-10.1 0h-20.23m-10.12 0h-20.22m-10.12 0h-20.22m-10.1 0h-20.23m-10.12 0h-20.22m-10.12 0h-20.22m-10.1 0h-20.23m-10.12 0h-20.22m-10.12 0h-20.22m-10.1 0h-20.23m-10.12 0h-20.22m-10.12 0h-20.22m-10.1 0h-20.23m-10.12 0h-20.22m-10.12 0h-20.22m-10.1 0H280.5v-1h10.1" stroke="#000" fill="none"/><path d="M340 101.6h300v74.8H340z" stroke="#000" stroke-opacity="0" stroke-width="2" fill="#fff" fill-opacity="0"/><use xlink:href="#d" transform="matrix(1,0,0,1,345,106.60000000000002) translate(0 21.0352)"/><use xlink:href="#e" transform="matrix(1,0,0,1,345,106.60000000000002) translate(60 21.0352)"/><use xlink:href="#f" transform="matrix(1,0,0,1,345,106.60000000000002) translate(0 42.635200000000005)"/><use xlink:href="#g" transform="matrix(1,0,0,1,345,106.60000000000002) translate(29 42.635200000000005)"/><use xlink:href="#h" transform="matrix(1,0,0,1,345,106.60000000000002) translate(82.9 42.635200000000005)"/><use xlink:href="#i" transform="matrix(1,0,0,1,345,106.60000000000002) translate(98.4 42.635200000000005)"/><use xlink:href="#j" transform="matrix(1,0,0,1,345,106.60000000000002) translate(0 64.2352)"/><use xlink:href="#k" transform="matrix(1,0,0,1,345,106.60000000000002) translate(53.900000000000006 64.2352)"/><use xlink:href="#h" transform="matrix(1,0,0,1,345,106.60000000000002) translate(72.85000000000001 64.2352)"/><use xlink:href="#l" transform="matrix(1,0,0,1,345,106.60000000000002) translate(88.35000000000001 64.2352)"/><path d="M352.8 183.5V320h76.86V202.62" stroke="#000" stroke-width="3" fill="none"/><path d="M354.3 183.54h-3V182h3zm0-3.54h-3v-1h3z" stroke="#000" stroke-width=".05"/><path d="M429.66 186.85l4.64 14.27h-9.28z" stroke="#000" stroke-width="3"/><use xlink:href="#m" transform="matrix(1,0,0,1,437.6607764058856,234.10204073154313) translate(0 14.4)"/><path d="M440 542h220v118H440z" stroke="#000" stroke-opacity="0" stroke-width="2" fill="#fff" fill-opacity="0"/><use xlink:href="#d" transform="matrix(1,0,0,1,445,547) translate(0 14.4)"/><use xlink:href="#e" transform="matrix(1,0,0,1,445,547) translate(60 14.4)"/><use xlink:href="#f" transform="matrix(1,0,0,1,445,547) translate(0 36)"/><use xlink:href="#g" transform="matrix(1,0,0,1,445,547) translate(29 36)"/><use xlink:href="#h" transform="matrix(1,0,0,1,445,547) translate(82.9 36)"/><use xlink:href="#n" transform="matrix(1,0,0,1,445,547) translate(98.4 36)"/><use xlink:href="#j" transform="matrix(1,0,0,1,445,547) translate(0 57.6)"/><use xlink:href="#k" transform="matrix(1,0,0,1,445,547) translate(53.900000000000006 57.6)"/><use xlink:href="#h" transform="matrix(1,0,0,1,445,547) translate(72.85000000000001 57.6)"/><use xlink:href="#l" transform="matrix(1,0,0,1,445,547) translate(88.35000000000001 57.6)"/><path d="M451.34 538.5V320h63.07v199.38" stroke="#000" stroke-width="3" fill="none"/><path d="M452.84 543h-3v-1h3zm0-3h-3v-1.54h3z" stroke="#000" stroke-width=".05"/><path d="M514.4 535.15l-4.63-14.27h9.28z" stroke="#000" stroke-width="3"/><path d="M520 360h40v118h-40z" stroke="#000" stroke-opacity="0" stroke-width="2" fill="#fff" fill-opacity="0"/><use xlink:href="#m" transform="matrix(1,0,0,1,525,365) translate(0 58.68125)"/><path d="M695.2 542h300v118h-300z" stroke="#000" stroke-opacity="0" stroke-width="2" fill="#fff" fill-opacity="0"/><use xlink:href="#d" transform="matrix(1,0,0,1,700.1999999999999,547) translate(0 14.4)"/><use xlink:href="#o" transform="matrix(1,0,0,1,700.1999999999999,547) translate(60 14.4)"/><use xlink:href="#f" transform="matrix(1,0,0,1,700.1999999999999,547) translate(0 36)"/><use xlink:href="#p" transform="matrix(1,0,0,1,700.1999999999999,547) translate(29 36)"/><use xlink:href="#h" transform="matrix(1,0,0,1,700.1999999999999,547) translate(101.85 36)"/><use xlink:href="#n" transform="matrix(1,0,0,1,700.1999999999999,547) translate(117.35 36)"/><use xlink:href="#j" transform="matrix(1,0,0,1,700.1999999999999,547) translate(0 57.6)"/><use xlink:href="#q" transform="matrix(1,0,0,1,700.1999999999999,547) translate(53.900000000000006 57.6)"/><use xlink:href="#h" transform="matrix(1,0,0,1,700.1999999999999,547) translate(107.80000000000001 57.6)"/><use xlink:href="#l" transform="matrix(1,0,0,1,700.1999999999999,547) translate(123.30000000000001 57.6)"/><path d="M700.25 538.5V440h60.26v79.38" stroke="#000" stroke-width="3" fill="none"/><path d="M701.75 543h-3v-1h3zm0-3h-3v-1.54h3z" stroke="#000" stroke-width=".05"/><path d="M760.5 535.15l-4.62-14.27h9.27z" stroke="#000" stroke-width="3"/><path d="M760 440h40v118h-40z" stroke="#000" stroke-opacity="0" stroke-width="2" fill="#fff" fill-opacity="0"/><g><use xlink:href="#m" transform="matrix(1,0,0,1,765,445) translate(0 58.68125)"/></g><path d="M820 80h300v96.4H820z" stroke="#000" stroke-opacity="0" stroke-width="2" fill="#fff" fill-opacity="0"/><g><use xlink:href="#d" transform="matrix(1,0,0,1,825,85) translate(0 43.7016)"/><use xlink:href="#o" transform="matrix(1,0,0,1,825,85) translate(60 43.7016)"/><use xlink:href="#f" transform="matrix(1,0,0,1,825,85) translate(0 65.30160000000001)"/><use xlink:href="#p" transform="matrix(1,0,0,1,825,85) translate(29 65.30160000000001)"/><use xlink:href="#h" transform="matrix(1,0,0,1,825,85) translate(101.85 65.30160000000001)"/><use xlink:href="#i" transform="matrix(1,0,0,1,825,85) translate(117.35 65.30160000000001)"/><use xlink:href="#j" transform="matrix(1,0,0,1,825,85) translate(0 86.9016)"/><use xlink:href="#q" transform="matrix(1,0,0,1,825,85) translate(53.900000000000006 86.9016)"/><use xlink:href="#h" transform="matrix(1,0,0,1,825,85) translate(107.80000000000001 86.9016)"/><use xlink:href="#l" transform="matrix(1,0,0,1,825,85) translate(123.30000000000001 86.9016)"/></g><path d="M832.26 183.5V440h91.84V202.62" stroke="#000" stroke-width="3" fill="none"/><path d="M833.76 183.54h-3V182h3zm0-3.54h-3v-1h3z" stroke="#000" stroke-width=".05"/><path d="M924.1 186.85l4.63 14.27h-9.27z" stroke="#000" stroke-width="3"/><g><use xlink:href="#m" transform="matrix(1,0,0,1,932.0948856625994,273.32751497985146) translate(0 14.4)"/></g><path d="M1180 239.38h240v139.24h-240z" stroke="#000" stroke-opacity="0" stroke-width="2" fill="#fff" fill-opacity="0"/><g><use xlink:href="#r" transform="matrix(1,0,0,1,1185,244.38) translate(0 21.222)"/><use xlink:href="#s" transform="matrix(1,0,0,1,1185,244.38) translate(133.416 21.222)"/><use xlink:href="#t" transform="matrix(1,0,0,1,1185,244.38) translate(0 47.07000000000001)"/><use xlink:href="#u" transform="matrix(1,0,0,1,1185,244.38) translate(52.99199999999999 47.07000000000001)"/><use xlink:href="#v" transform="matrix(1,0,0,1,1185,244.38) translate(0 72.918)"/><use xlink:href="#w" transform="matrix(1,0,0,1,1185,244.38) translate(144.162 72.918)"/><use xlink:href="#x" transform="matrix(1,0,0,1,1185,244.38) translate(0 98.76600000000002)"/><use xlink:href="#y" transform="matrix(1,0,0,1,1185,244.38) translate(63.89999999999999 98.76600000000002)"/></g><path d="M1179 309.02l-3.15.07-4.15.25-4.17.44-4.2.6-4.28.82-4.34 1.02-4.43 1.24-4.57 1.5-4.72 1.74-4.9 2.07-5.13 2.4-5.4 2.83-5.76 3.32-6.18 3.92-6.72 4.68-7.44 5.65-8.46 7-10.1 9.1-13.4 13.2-50.33 52.8-5.58 5.06-4.2 3.47-3.38 2.56-2.8 1.95-2.43 1.54-2.13 1.22-1.9 1-1.7.8-1.54.64-12.33 5.23-62.43 27.98-16.2 6.05-14.26 4.66-13.24 3.7-12.63 2.97-12.25 2.35-12.04 1.8-11.94 1.26-5.7.36" stroke="#979ea8" stroke-width="2" stroke-linejoin="round" fill="none"/><path d="M1180 310l-1 .02-.05-2 1.05-.02z" stroke="#979ea8" stroke-width=".05" fill="#979ea8"/><path d="M803.23 498.9l14.1-5.15.33 9.26z" stroke="#979ea8" stroke-width="2" fill="#979ea8"/><path d="M200 478c-14.75 0-30.35-4.08-30.35-11.6v-56.8c0-7.52 15.6-11.6 30.35-11.6 14.7 0 30.35 4.08 30.35 11.6v56.8c0 7.52-15.66 11.6-30.35 11.6zm0-76.56c-16.7 0-26.95 4.72-26.95 8.16v56.8c0 3.36 10.2 8.16 26.95 8.16s26.95-4.72 26.95-8.16v-56.8c0-3.44-10.26-8.16-26.95-8.16z" stroke="#fff" stroke-opacity="0" fill="#232f3e"/><path d="M200 419.53c-14.75 0-30.35-4.07-30.35-11.62h3.4c0 3.4 10.2 8.23 26.95 8.23s26.95-4.78 26.95-8.22h3.4c0 7.56-15.66 11.63-30.35 11.63z" stroke="#fff" stroke-opacity="0" fill="#232f3e"/><g><use xlink:href="#z" transform="matrix(1,0,0,1,139.65000000000003,487) translate(28.049999999999997 14.4)"/></g><path d="M280.5 440.5h819v1h-819z" fill="none"/><path d="M300.72 440.5h20.22m10.12 0h20.22m10.1 0h20.23m10.12 0h20.22m10.12 0h20.22m10.1 0h20.23m10.12 0h20.22m10.12 0h20.22m10.1 0h20.23m10.12 0h20.22m10.12 0h20.22m10.1 0h20.23m10.12 0h20.22m10.12 0h20.22m10.1 0h20.23m10.12 0h20.22m10.12 0h20.22m10.1 0h20.23m10.12 0h20.22m10.12 0h20.22m10.1 0h20.23m10.12 0h20.22m10.12 0h20.22m10.1 0h20.23m10.12 0h20.22m10.12 0h20.22m10.1 0h10.12v1h-10.1m-10.12 0h-20.22m-10.12 0h-20.22m-10.1 0h-20.23m-10.12 0h-20.22m-10.12 0h-20.22m-10.1 0h-20.23m-10.12 0h-20.22m-10.12 0h-20.22m-10.1 0h-20.23m-10.12 0h-20.22m-10.12 0h-20.22m-10.1 0h-20.23m-10.12 0h-20.22m-10.12 0h-20.22m-10.1 0h-20.23m-10.12 0h-20.22m-10.12 0h-20.22m-10.1 0h-20.23m-10.12 0h-20.22m-10.12 0h-20.22m-10.1 0h-20.23m-10.12 0h-20.22m-10.12 0h-20.22m-10.1 0h-20.23m-10.12 0h-20.22m-10.12 0h-20.22m-10.1 0H280.5v-1h10.1" stroke="#000" fill="none"/><path d="M1179 308.98l-25.3-.52-23.67-1.48-23.7-2.5-29.55-4.4-98.54-16.95" stroke="#6f7681" stroke-width="2" stroke-linejoin="round" fill="none"/><path d="M1180 308v2l-1.05-.02.04-2z" stroke="#6f7681" stroke-width=".05" fill="#6f7681"/><path d="M963.2 280.55l14.83-2.15-1.57 9.13z" stroke="#6f7681" stroke-width="2" fill="#6f7681"/><defs><path d="M160-131c35 5 61 23 61 61C221 17 115-2 30 0v-248c76 3 177-17 177 60 0 33-19 50-47 57zm-97-11c50-1 110 9 110-42 0-47-63-36-110-37v79zm0 115c55-2 124 14 124-45 0-56-70-42-124-44v89" id="A"/><path d="M100-194c62-1 85 37 85 99 1 63-27 99-86 99S16-35 15-95c0-66 28-99 85-99zM99-20c44 1 53-31 53-75 0-43-8-75-51-75s-53 32-53 75 10 74 51 75" id="B"/><path d="M115-194c53 0 69 39 70 98 0 66-23 100-70 100C84 3 66-7 56-30L54 0H23l1-261h32v101c10-23 28-34 59-34zm-8 174c40 0 45-34 45-75 0-40-5-75-45-74-42 0-51 32-51 76 0 43 10 73 51 73" id="C"/><g id="a"><use transform="matrix(0.05,0,0,0.05,0,0)" xlink:href="#A"/><use transform="matrix(0.05,0,0,0.05,12,0)" xlink:href="#B"/><use transform="matrix(0.05,0,0,0.05,22,0)" xlink:href="#C"/></g><path d="M96-169c-40 0-48 33-48 73s9 75 48 75c24 0 41-14 43-38l32 2c-6 37-31 61-74 61-59 0-76-41-82-99-10-93 101-131 147-64 4 7 5 14 7 22l-32 3c-4-21-16-35-41-35" id="D"/><path d="M141-36C126-15 110 5 73 4 37 3 15-17 15-53c-1-64 63-63 125-63 3-35-9-54-41-54-24 1-41 7-42 31l-33-3c5-37 33-52 76-52 45 0 72 20 72 64v82c-1 20 7 32 28 27v20c-31 9-61-2-59-35zM48-53c0 20 12 33 32 33 41-3 63-29 60-74-43 2-92-5-92 41" id="E"/><path d="M114-163C36-179 61-72 57 0H25l-1-190h30c1 12-1 29 2 39 6-27 23-49 58-41v29" id="F"/><path d="M135-143c-3-34-86-38-87 0 15 53 115 12 119 90S17 21 10-45l28-5c4 36 97 45 98 0-10-56-113-15-118-90-4-57 82-63 122-42 12 7 21 19 24 35" id="G"/><g id="b"><use transform="matrix(0.05,0,0,0.05,0,0)" xlink:href="#D"/><use transform="matrix(0.05,0,0,0.05,9,0)" xlink:href="#E"/><use transform="matrix(0.05,0,0,0.05,19,0)" xlink:href="#F"/><use transform="matrix(0.05,0,0,0.05,24.95,0)" xlink:href="#G"/></g><path d="M205 0l-28-72H64L36 0H1l101-248h38L239 0h-34zm-38-99l-47-123c-12 45-31 82-46 123h93" id="H"/><path d="M24 0v-261h32V0H24" id="I"/><path d="M24-231v-30h32v30H24zM24 0v-190h32V0H24" id="J"/><path d="M100-194c63 0 86 42 84 106H49c0 40 14 67 53 68 26 1 43-12 49-29l28 8c-11 28-37 45-77 45C44 4 14-33 15-96c1-61 26-98 85-98zm52 81c6-60-76-77-97-28-3 7-6 17-6 28h103" id="K"/><g id="c"><use transform="matrix(0.05,0,0,0.05,0,0)" xlink:href="#H"/><use transform="matrix(0.05,0,0,0.05,12,0)" xlink:href="#I"/><use transform="matrix(0.05,0,0,0.05,15.949999999999998,0)" xlink:href="#J"/><use transform="matrix(0.05,0,0,0.05,19.9,0)" xlink:href="#D"/><use transform="matrix(0.05,0,0,0.05,28.899999999999995,0)" xlink:href="#K"/></g><path d="M84 4C-5 8 30-112 23-190h32v120c0 31 7 50 39 49 72-2 45-101 50-169h31l1 190h-30c-1-10 1-25-2-33-11 22-28 36-60 37" id="L"/><path d="M115-194c55 1 70 41 70 98S169 2 115 4C84 4 66-9 55-30l1 105H24l-1-265h31l2 30c10-21 28-34 59-34zm-8 174c40 0 45-34 45-75s-6-73-45-74c-42 0-51 32-51 76 0 43 10 73 51 73" id="M"/><path d="M85-194c31 0 48 13 60 33l-1-100h32l1 261h-30c-2-10 0-23-3-31C134-8 116 4 85 4 32 4 16-35 15-94c0-66 23-100 70-100zm9 24c-40 0-46 34-46 75 0 40 6 74 45 74 42 0 51-32 51-76 0-42-9-74-50-73" id="N"/><path d="M59-47c-2 24 18 29 38 22v24C64 9 27 4 27-40v-127H5v-23h24l9-43h21v43h35v23H59v120" id="O"/><g id="d"><use transform="matrix(0.05,0,0,0.05,0,0)" xlink:href="#L"/><use transform="matrix(0.05,0,0,0.05,10,0)" xlink:href="#M"/><use transform="matrix(0.05,0,0,0.05,20,0)" xlink:href="#N"/><use transform="matrix(0.05,0,0,0.05,30,0)" xlink:href="#E"/><use transform="matrix(0.05,0,0,0.05,40,0)" xlink:href="#O"/><use transform="matrix(0.05,0,0,0.05,45,0)" xlink:href="#K"/></g><g id="e"><use transform="matrix(0.05,0,0,0.05,0,0)" xlink:href="#D"/><use transform="matrix(0.05,0,0,0.05,9,0)" xlink:href="#E"/><use transform="matrix(0.05,0,0,0.05,19,0)" xlink:href="#F"/><use transform="matrix(0.05,0,0,0.05,24.95,0)" xlink:href="#G"/></g><g id="f"><use transform="matrix(0.05,0,0,0.05,0,0)" xlink:href="#G"/><use transform="matrix(0.05,0,0,0.05,9,0)" xlink:href="#K"/><use transform="matrix(0.05,0,0,0.05,19,0)" xlink:href="#O"/></g><path d="M206 0h-36l-40-164L89 0H53L-1-190h32L70-26l43-164h34l41 164 42-164h31" id="P"/><path d="M117-194c89-4 53 116 60 194h-32v-121c0-31-8-49-39-48C34-167 62-67 57 0H25l-1-190h30c1 10-1 24 2 32 11-22 29-35 61-36" id="Q"/><g id="g"><use transform="matrix(0.05,0,0,0.05,0,0)" xlink:href="#B"/><use transform="matrix(0.05,0,0,0.05,10,0)" xlink:href="#P"/><use transform="matrix(0.05,0,0,0.05,22.950000000000003,0)" xlink:href="#Q"/><use transform="matrix(0.05,0,0,0.05,32.95,0)" xlink:href="#K"/><use transform="matrix(0.05,0,0,0.05,42.95,0)" xlink:href="#F"/></g><path d="M18-150v-26h174v26H18zm0 90v-26h174v26H18" id="R"/><use transform="matrix(0.05,0,0,0.05,0,0)" xlink:href="#R" id="h"/><path d="M47-170H22l-4-78h33" id="S"/><g id="i"><use transform="matrix(0.05,0,0,0.05,0,0)" xlink:href="#S"/><use transform="matrix(0.05,0,0,0.05,3.4000000000000004,0)" xlink:href="#A"/><use transform="matrix(0.05,0,0,0.05,15.4,0)" xlink:href="#B"/><use transform="matrix(0.05,0,0,0.05,25.4,0)" xlink:href="#C"/><use transform="matrix(0.05,0,0,0.05,35.4,0)" xlink:href="#S"/></g><path d="M106-169C34-169 62-67 57 0H25v-261h32l-1 103c12-21 28-36 61-36 89 0 53 116 60 194h-32v-121c2-32-8-49-39-48" id="T"/><g id="j"><use transform="matrix(0.05,0,0,0.05,0,0)" xlink:href="#P"/><use transform="matrix(0.05,0,0,0.05,12.950000000000001,0)" xlink:href="#T"/><use transform="matrix(0.05,0,0,0.05,22.950000000000003,0)" xlink:href="#K"/><use transform="matrix(0.05,0,0,0.05,32.95,0)" xlink:href="#F"/><use transform="matrix(0.05,0,0,0.05,38.900000000000006,0)" xlink:href="#K"/></g><g id="k"><use transform="matrix(0.05,0,0,0.05,0,0)" xlink:href="#J"/><use transform="matrix(0.05,0,0,0.05,3.95,0)" xlink:href="#N"/></g><path d="M27 0v-27h64v-190l-56 39v-29l58-41h29v221h61V0H27" id="U"/><path d="M101-251c82-7 93 87 43 132L82-64C71-53 59-42 53-27h129V0H18c2-99 128-94 128-182 0-28-16-43-45-43s-46 15-49 41l-32-3c6-41 34-60 81-64" id="V"/><path d="M126-127c33 6 58 20 58 59 0 88-139 92-164 29-3-8-5-16-6-25l32-3c6 27 21 44 54 44 32 0 52-15 52-46 0-38-36-46-79-43v-28c39 1 72-4 72-42 0-27-17-43-46-43-28 0-47 15-49 41l-32-3c6-42 35-63 81-64 48-1 79 21 79 65 0 36-21 52-52 59" id="W"/><path d="M155-56V0h-30v-56H8v-25l114-167h33v167h35v25h-35zm-30-156c-27 46-58 90-88 131h88v-131" id="X"/><g id="l"><use transform="matrix(0.05,0,0,0.05,0,0)" xlink:href="#U"/><use transform="matrix(0.05,0,0,0.05,10,0)" xlink:href="#V"/><use transform="matrix(0.05,0,0,0.05,20,0)" xlink:href="#W"/><use transform="matrix(0.05,0,0,0.05,30,0)" xlink:href="#X"/></g><path d="M140-251c80 0 125 45 125 126S219 4 139 4C58 4 15-44 15-125s44-126 125-126zm-1 214c52 0 73-35 73-88 0-50-21-86-72-86-52 0-73 35-73 86s22 88 72 88" id="Y"/><path d="M195 0l-88-114-31 24V0H24v-248h52v113l112-113h60L142-143 257 0h-62" id="Z"/><g id="m"><use transform="matrix(0.05,0,0,0.05,0,0)" xlink:href="#Y"/><use transform="matrix(0.05,0,0,0.05,14,0)" xlink:href="#Z"/></g><g id="n"><use transform="matrix(0.05,0,0,0.05,0,0)" xlink:href="#S"/><use transform="matrix(0.05,0,0,0.05,3.4000000000000004,0)" xlink:href="#H"/><use transform="matrix(0.05,0,0,0.05,15.4,0)" xlink:href="#I"/><use transform="matrix(0.05,0,0,0.05,19.35,0)" xlink:href="#J"/><use transform="matrix(0.05,0,0,0.05,23.3,0)" xlink:href="#D"/><use transform="matrix(0.05,0,0,0.05,32.3,0)" xlink:href="#K"/><use transform="matrix(0.05,0,0,0.05,42.3,0)" xlink:href="#S"/></g><path d="M108 0H70L1-190h34L89-25l56-165h34" id="aa"/><g id="o"><use transform="matrix(0.05,0,0,0.05,0,0)" xlink:href="#J"/><use transform="matrix(0.05,0,0,0.05,3.95,0)" xlink:href="#Q"/><use transform="matrix(0.05,0,0,0.05,13.949999999999998,0)" xlink:href="#aa"/><use transform="matrix(0.05,0,0,0.05,22.95,0)" xlink:href="#B"/><use transform="matrix(0.05,0,0,0.05,32.95,0)" xlink:href="#J"/><use transform="matrix(0.05,0,0,0.05,36.900000000000006,0)" xlink:href="#D"/><use transform="matrix(0.05,0,0,0.05,45.900000000000006,0)" xlink:href="#K"/><use transform="matrix(0.05,0,0,0.05,55.900000000000006,0)" xlink:href="#G"/></g><g id="p"><use transform="matrix(0.05,0,0,0.05,0,0)" xlink:href="#F"/><use transform="matrix(0.05,0,0,0.05,5.95,0)" xlink:href="#K"/><use transform="matrix(0.05,0,0,0.05,15.949999999999998,0)" xlink:href="#D"/><use transform="matrix(0.05,0,0,0.05,24.95,0)" xlink:href="#J"/><use transform="matrix(0.05,0,0,0.05,28.899999999999995,0)" xlink:href="#M"/><use transform="matrix(0.05,0,0,0.05,38.9,0)" xlink:href="#J"/><use transform="matrix(0.05,0,0,0.05,42.85,0)" xlink:href="#K"/><use transform="matrix(0.05,0,0,0.05,52.85,0)" xlink:href="#Q"/><use transform="matrix(0.05,0,0,0.05,62.85,0)" xlink:href="#O"/></g><path d="M-5 72V49h209v23H-5" id="ab"/><g id="q"><use transform="matrix(0.05,0,0,0.05,0,0)" xlink:href="#D"/><use transform="matrix(0.05,0,0,0.05,9,0)" xlink:href="#E"/><use transform="matrix(0.05,0,0,0.05,19,0)" xlink:href="#F"/><use transform="matrix(0.05,0,0,0.05,24.95,0)" xlink:href="#ab"/><use transform="matrix(0.05,0,0,0.05,34.95,0)" xlink:href="#J"/><use transform="matrix(0.05,0,0,0.05,38.900000000000006,0)" xlink:href="#N"/></g><path fill="#6f7681" d="M521-275c40-33 108-24 108 34 0 49-75 103-210 183-80 47-247 72-323 10-66-54-95-101-82-218 12-106 41-136 91-224 55-96 145-209 240-278 32-23 68-33 107-33 86 2 108 61 107 158 0 55-15 82-44 82-55 1-25-116-79-110-132 15-229 223-291 334-48 86-31 226 81 218 122-9 217-92 295-156" id="ac"/><path fill="#6f7681" d="M44-443c79-191 208-366 448-366 141 0 239 118 267 253 46 222-61 413-213 490-83 42-221 78-338 30-55-23-106-43-129-82-26-14-80-140-57-202 2-41 8-89 22-123zm103 115c1 136 75 191 208 191 130 0 180-50 241-135 38-53 55-111 55-169 0-109-73-236-179-227-143 12-260 151-311 271-9 24-14 47-14 69" id="ad"/><path fill="#6f7681" d="M24-128c0-158-18-313-5-472 6-74-11-192 62-191 78 1 88 68 113 130 59 143 102 191 174 297 50 73 81 109 92 109 8 0 12-3 13-9 24-163 3-322-12-477-6-63 62-76 101-37 65 64 45 212 54 340 10 141 7 304-15 413-8 15-20 23-37 23-76 0-203-132-244-200-33-54-79-109-116-169l4 4c-9-20-41-55-54-51-14 102-5 244 6 344 3 30-15 69-41 68-9 0-28-1-56-3-44-28-39-45-39-119" id="ae"/><path fill="#6f7681" d="M39-49c-7-93 9-204-6-289-18-30-12-41 1-77 37-27 19-97 25-162 2-23-27-37-49-40-11-18-14-56 0-71 17-39 273-99 376-109 72-7 163-32 165 45 1 65-62 51-115 66-63 18-176 24-229 55-41 23-20 107-25 176 83-2 166-25 259-33 74-6 91 70 44 97-80 23-228 35-304 57-18 6-27 18-27 35-9 45 6 274-42 299-35 2-92-5-73-49" id="af"/><path fill="#6f7681" d="M21-302C-7-136 9 24 196-12c147-28 263-93 386-142 57-23 26-120-26-120-111 32-240 115-378 126-13 1-22-26-25-45 30-174 59-350 88-524 10-62-86-124-120-61-39 73-49 196-69 277-19 77-22 145-31 199" id="ag"/><path fill="#6f7681" d="M292-638c-67 2-113 14-176 21-81 9-112-68-58-103 132-46 304-52 470-66l65 5c50 52 43 111-50 111-45 0-75 15-112 18-18 16-19 83-24 152-7 108-21 214-33 322-5 46 36 20 67 20 54 0 81-10 139-16 43 25 50 62 23 110-151 29-311 50-490 79C58 24-8 22 3-44c14-83 161-45 224-90 22-16 24-69 29-107 17-126 33-258 36-397" id="ah"/><path fill="#6f7681" d="M382-556c-3 158-18 304-18 470 0 31 6 72-21 86-20 35-87 21-104-6-1-188 14-367 23-549 1-24 13-80-17-80-77 0-131 31-210 31-15-10-43-18-33-45 0-82 83-94 148-109 103-23 215-12 315-40 43-12 91-17 142-23 62-8 95 53 77 116-8 28-47 14-75 18-68 9-134 10-195 30-32 11-31 60-32 101" id="ai"/><path fill="#6f7681" d="M590-683c0-95-64-132-148-103-62 21-113 58-161 92-97 69-165 165-223 275C-45-222 51 11 277-12c154-16 257-81 343-160 63-58 100-126 109-243 12-155-158-93-246-67-61 18-178 69-168 115-2 30 28 68 54 64 69-10 133-52 201-67 9-2 20 9 20 17 0 11-18 38-57 79-85 91-188 136-306 136-55 0-99-68-99-127 0-30 16-69 37-123 25-64 237-288 318-281 25-8 66 40 79 44 19 0 28-19 28-58" id="aj"/><g id="r"><use transform="matrix(0.018,0,0,0.018,0,0)" xlink:href="#ac"/><use transform="matrix(0.018,0,0,0.018,11.411999999999999,0)" xlink:href="#ad"/><use transform="matrix(0.018,0,0,0.018,26.477999999999998,0)" xlink:href="#ae"/><use transform="matrix(0.018,0,0,0.018,38.016,0)" xlink:href="#af"/><use transform="matrix(0.018,0,0,0.018,47.97,0)" xlink:href="#ag"/><use transform="matrix(0.018,0,0,0.018,56.862,0)" xlink:href="#ah"/><use transform="matrix(0.018,0,0,0.018,68.292,0)" xlink:href="#ac"/><use transform="matrix(0.018,0,0,0.018,78.31800000000001,0)" xlink:href="#ai"/><use transform="matrix(0.018,0,0,0.018,90.66600000000001,0)" xlink:href="#ah"/><use transform="matrix(0.018,0,0,0.018,102.852,0)" xlink:href="#ae"/><use transform="matrix(0.018,0,0,0.018,114.39000000000001,0)" xlink:href="#aj"/></g><path fill="#6f7681" d="M722-498c18-70 6-160 6-241 0-38 16-57 49-57 55 0 82 64 82 193 1 204-63 347-126 491-54 125-124 110-196 9-30-42-54-91-82-146-27-53-43-79-49-79-8-17-88 136-114 182C269-106 193 9 170-1 96-15 86-47 66-129 33-267 17-480 18-657c0-70 18-105 54-105 39 0 66 36 68 87 4 137-4 277 12 406 12 100 67-12 84-47 47-96 102-197 139-285 18-41 78-38 96-4 52 97 51 251 110 344 50 78 71 31 104-70 17-53 22-108 37-167" id="ak"/><path fill="#6f7681" d="M608-642l-20 77c-36 56-69 94-113 138-49 48-58 40-29 81 33 46 69 89 97 147 44 89 52 141 40 147-3 38-20 49-63 52-68 5-97-106-129-160-40-68-56-162-144-164-53-1-27 78-45 121-7 56-12 123-28 170C157-4 113 24 66-1 46-11 40-39 49-87c19-111 19-139 19-313 0-144 1-187-40-242-27-37-13-94 26-108 103-36 250-59 389-41 63 8 182 85 165 149zm-140 11c-10-39-42-58-96-57-53 12-154 21-179 43-5 9-8 31-8 65 0 151 19 135 127 94 94-36 148-79 156-145" id="al"/><path fill="#6f7681" d="M330-158c82-22 193-18 286-31 38 11 58 81 24 113-25 24-71 25-116 25-135 0-238 34-358 47C61 7 4-52 15-159c12-113 37-213 32-340-2-59 2-121-2-178-2-44 35-62 81-61 104-31 222-52 345-64 68-7 103 34 111 94 2 12-3 22-9 31-33 14-62 15-103 16-100 2-196 10-270 40h-8c-18 23-11 79-15 106-1 13 5 22 16 25 82-10 176-25 264-12 44 7 78 26 71 72-7 49-76 30-125 30-78 0-138 22-210 29-24 1-35 28-36 52-2 41-10 83-8 126-19 84 122 51 181 35" id="am"/><path fill="#6f7681" d="M371-533c189 0 256 55 239 237-9 91-67 138-157 205C374-33 301-7 236-7 155-7 13-82 18-160c3-44 62-73 96-38 43 44 152 73 218 29 77-51 166-125 156-169 2-44-67-63-119-62-47 1-108 1-155 3C87-393 13-429 1-531c11-87 101-150 165-187 90-52 160-96 290-87 34 2 118 78 115 115-3 35-23 38-55 45-15 4-26-4-33-24-37-64-116-1-164 12-41 11-154 77-154 113 0 15 14 22 41 22 45 0 127-11 165-11" id="an"/><g id="s"><use transform="matrix(0.018,0,0,0.018,0,0)" xlink:href="#ak"/><use transform="matrix(0.018,0,0,0.018,16.235999999999997,0)" xlink:href="#al"/><use transform="matrix(0.018,0,0,0.018,27.359999999999992,0)" xlink:href="#ah"/><use transform="matrix(0.018,0,0,0.018,38.339999999999996,0)" xlink:href="#ai"/><use transform="matrix(0.018,0,0,0.018,50.687999999999995,0)" xlink:href="#am"/><use transform="matrix(0.018,0,0,0.018,61.775999999999996,0)" xlink:href="#an"/></g><path fill="#6f7681" d="M629-645c28 177 9 401 28 582 3 29-18 50-47 50-97 0-67-194-71-306-1-24-4-66-3-92 1-39-15-57-30-33-49 79-88 161-139 243-9 15-21 23-34 23-33 0-70-69-89-115-10-23-57-152-73-152-28 0-27 119-31 162-9 93-16 174-27 265-2 3-35 21-48 20-71-3-50-117-43-176 24-211 38-410 84-595 39-67 121 2 138 59 22 73 63 167 84 249 7 23 13 34 20 34 17 0 54-75 107-225 17-48 42-155 115-96 31 25 52 57 59 103" id="ao"/><g id="t"><use transform="matrix(0.018,0,0,0.018,0,0)" xlink:href="#af"/><use transform="matrix(0.018,0,0,0.018,10.674,0)" xlink:href="#al"/><use transform="matrix(0.018,0,0,0.018,21.096,0)" xlink:href="#ad"/><use transform="matrix(0.018,0,0,0.018,35.55,0)" xlink:href="#ao"/></g><path fill="#6f7681" d="M19-91c0-222 71-428 58-668-3-62 121-44 170-33 118 27 229 50 293 128 44 53 63 97 63 217 0 165-189 328-383 400-36 13-62 45-108 45-66 0-93-23-93-89zm185-582c-30 151-43 322-58 489 5 39 27 28 60 14 129-54 276-147 276-304 0-155-106-203-278-199" id="ap"/><g id="u"><use transform="matrix(0.018,0,0,0.018,0,0)" xlink:href="#ap"/><use transform="matrix(0.018,0,0,0.018,9.684,0)" xlink:href="#ah"/><use transform="matrix(0.018,0,0,0.018,21.528,0)" xlink:href="#af"/><use transform="matrix(0.018,0,0,0.018,31.482,0)" xlink:href="#af"/><use transform="matrix(0.018,0,0,0.018,41.436,0)" xlink:href="#am"/><use transform="matrix(0.018,0,0,0.018,52.88400000000001,0)" xlink:href="#al"/><use transform="matrix(0.018,0,0,0.018,64.368,0)" xlink:href="#am"/><use transform="matrix(0.018,0,0,0.018,76.356,0)" xlink:href="#ae"/><use transform="matrix(0.018,0,0,0.018,87.47999999999999,0)" xlink:href="#ai"/></g><path fill="#6f7681" d="M103-24C79 10-2-14 8-59c42-186 129-353 193-524 23-62 63-135 99-197 39-38 106-10 109 47 27 100 51 209 81 307 8 25 72 24 72 63 0 44-26 46-37 75 12 83 46 156 55 243 7 63-106 47-114 11-13-58-36-170-57-231-3-4-7-8-9-14-69 4-134 40-198 52-53 21-53 108-81 160-4 16-8 29-18 43zm215-551c-16 18-92 195-73 208 46 2 100-12 123-31-5-30-32-162-38-171-2-3-6-5-12-6" id="aq"/><g id="v"><use transform="matrix(0.018,0,0,0.018,0,0)" xlink:href="#ai"/><use transform="matrix(0.018,0,0,0.018,13.031999999999998,0)" xlink:href="#al"/><use transform="matrix(0.018,0,0,0.018,24.156,0)" xlink:href="#aq"/><use transform="matrix(0.018,0,0,0.018,35.046,0)" xlink:href="#ae"/><use transform="matrix(0.018,0,0,0.018,46.583999999999996,0)" xlink:href="#an"/><use transform="matrix(0.018,0,0,0.018,56.879999999999995,0)" xlink:href="#aq"/><use transform="matrix(0.018,0,0,0.018,67.446,0)" xlink:href="#ac"/><use transform="matrix(0.018,0,0,0.018,77.47200000000001,0)" xlink:href="#ai"/><use transform="matrix(0.018,0,0,0.018,89.82000000000001,0)" xlink:href="#ah"/><use transform="matrix(0.018,0,0,0.018,100.85400000000001,0)" xlink:href="#ad"/><use transform="matrix(0.018,0,0,0.018,115.92,0)" xlink:href="#ae"/><use transform="matrix(0.018,0,0,0.018,127.45799999999998,0)" xlink:href="#an"/></g><g id="w"><use transform="matrix(0.018,0,0,0.018,0,0)" xlink:href="#aq"/><use transform="matrix(0.018,0,0,0.018,10.565999999999999,0)" xlink:href="#al"/><use transform="matrix(0.018,0,0,0.018,22.049999999999997,0)" xlink:href="#am"/></g><path fill="#6f7681" d="M635-31c28-53 7-115-31-143-7-19-67-63-88-82-39-36-80-78-117-115 1-16 41-65 118-148l-10 11c30-36 53-67 85-95 54-48 78-89 78-117s-20-70-52-70c-36 0-116 78-245 230-22 26-38 59-67 71-30 12-85-104-102-151-13-36-72-158-75-157-34-47-96-35-89 35 8 88 69 162 101 236 14 20 74 122 77 140-20 61-139 209-182 265-18 23-24 44-24 60C11-36 45 1 69 0c45-2 96-97 124-134 67-89 109-132 124-131 48 2 103 85 141 115 20 16 39 33 56 52 49 58 88 82 121 67" id="ar"/><g id="x"><use transform="matrix(0.018,0,0,0.018,0,0)" xlink:href="#ao"/><use transform="matrix(0.018,0,0,0.018,12.095999999999998,0)" xlink:href="#ah"/><use transform="matrix(0.018,0,0,0.018,23.526,0)" xlink:href="#ar"/><use transform="matrix(0.018,0,0,0.018,35.693999999999996,0)" xlink:href="#am"/><use transform="matrix(0.018,0,0,0.018,47.681999999999995,0)" xlink:href="#ap"/></g><path fill="#6f7681" d="M109-754c29-56 120 5 113 55-24 164-73 311-76 498 0 44 17 66 52 66 44 0 193-39 283-82 16-8 27-24 32-45 27-114 44-316 44-439 0-57 27-86 82-86 38 0 57 27 57 82 0 195-35 406-61 587 5 33 20 94-14 106-8 12-30 10-67-7-15-20-33-39-52-56C437-54 255 2 210 0 80-5 5-44 13-182c11-186 48-366 83-531 3-12 5-27 13-41" id="as"/><path fill="#6f7681" d="M23-677c-68-88 127-122 212-122 113 0 253 24 291 82 92 144-48 310-153 365-52 27-102 48-161 69-56 20-53 15-58 80-4 49-8 103-13 153-3 31-19 46-43 46-44 0-65-28-63-81 5-162 8-330 16-486 3-53-4-75-28-106zm415 73c0-44-44-66-132-66-78 0-124 8-135 26-10 16-14 89-14 218 0 44 22 39 57 25 83-34 224-115 224-203" id="at"/><g id="y"><use transform="matrix(0.018,0,0,0.018,0,0)" xlink:href="#as"/><use transform="matrix(0.018,0,0,0.018,13.446,0)" xlink:href="#at"/></g><g id="z"><use transform="matrix(0.05,0,0,0.05,0,0)" xlink:href="#J"/><use transform="matrix(0.05,0,0,0.05,3.95,0)" xlink:href="#Q"/><use transform="matrix(0.05,0,0,0.05,13.949999999999998,0)" xlink:href="#aa"/><use transform="matrix(0.05,0,0,0.05,22.95,0)" xlink:href="#B"/><use transform="matrix(0.05,0,0,0.05,32.95,0)" xlink:href="#J"/><use transform="matrix(0.05,0,0,0.05,36.900000000000006,0)" xlink:href="#D"/><use transform="matrix(0.05,0,0,0.05,45.900000000000006,0)" xlink:href="#K"/><use transform="matrix(0.05,0,0,0.05,55.900000000000006,0)" xlink:href="#G"/></g></defs></g></svg>
