<svg xmlns="http://www.w3.org/2000/svg" xmlns:xlink="http://www.w3.org/1999/xlink" xmlns:lucid="lucid" width="1315.3" height="643.6"><g transform="translate(-125.69999999999999 -37.40000000000002)" lucid:page-tab-id="0_0"><path d="M238.32 220h-76.64c-.88 0-1.68-.76-1.68-1.7v-5.12c0-18.18 11.92-33.43 29.52-37.7.48-.1.88-.05 1.28.17 5.92 3.2 12.48 3.2 18.4 0 .4-.22.8-.26 1.2-.18 17.68 4.28 29.6 19.53 29.6 37.7v5.14c0 .94-.8 1.7-1.68 1.7zm-74.88-3.43h73.12v-3.4c.08-16.35-10.56-30.07-26.32-34.17-3.36 1.65-6.48 2.4-10.24 2.4s-6.88-.7-10.24-2.4c-15.76 4.1-26.4 17.82-26.32 34.18z" stroke="#fff" stroke-opacity="0" fill="#232f3e"/><path d="M200 181.3c-3.67 0-6.8-.8-10.03-2.56-9.95-5.58-13.5-18.2-7.93-28.17 5.58-9.95 18.17-13.5 28.1-7.93 6.72 3.76 10.56 10.33 10.56 18.05 0 7.76-3.92 14.36-10.74 18.04-3.22 1.73-6.32 2.56-9.95 2.56zm0-37.83c-6.6-.17-12.26 3.18-15.44 8.96-4.5 8.38-1.4 18.8 6.94 23.34 5.4 2.93 11.36 2.93 16.77 0 5.7-3.1 9-8.68 8.96-15.2-.04-9.5-7.76-17.14-17.22-17.1z" stroke="#fff" stroke-opacity="0" fill="#232f3e"/><use xlink:href="#a" transform="matrix(1,0,0,1,130,229) translate(54 14.4)"/><path d="M280.5 180.5h819v1h-819z" fill="none"/><path d="M300.72 180.5h20.22m10.12 0h20.22m10.1 0h20.23m10.12 0h20.22m10.12 0h20.22m10.1 0h20.23m10.12 0h20.22m10.12 0h20.22m10.1 0h20.23m10.12 0h20.22m10.12 0h20.22m10.1 0h20.23m10.12 0h20.22m10.12 0h20.22m10.1 0h20.23m10.12 0h20.22m10.12 0h20.22m10.1 0h20.23m10.12 0h20.22m10.12 0h20.22m10.1 0h20.23m10.12 0h20.22m10.12 0h20.22m10.1 0h20.23m10.12 0h20.22m10.12 0h20.22m10.1 0h10.12v1h-10.1m-10.12 0h-20.22m-10.12 0h-20.22m-10.1 0h-20.23m-10.12 0h-20.22m-10.12 0h-20.22m-10.1 0h-20.23m-10.12 0h-20.22m-10.12 0h-20.22m-10.1 0h-20.23m-10.12 0h-20.22m-10.12 0h-20.22m-10.1 0h-20.23m-10.12 0h-20.22m-10.12 0h-20.22m-10.1 0h-20.23m-10.12 0h-20.22m-10.12 0h-20.22m-10.1 0h-20.23m-10.12 0h-20.22m-10.12 0h-20.22m-10.1 0h-20.23m-10.12 0h-20.22m-10.12 0h-20.22m-10.1 0h-20.23m-10.12 0h-20.22m-10.12 0h-20.22m-10.1 0H280.5v-1h10.1" stroke="#000" fill="none"/><path d="M200 349c-14.75 0-30.35-4.08-30.35-11.6v-56.8c0-7.52 15.6-11.6 30.35-11.6 14.7 0 30.35 4.08 30.35 11.6v56.8c0 7.52-15.66 11.6-30.35 11.6zm0-76.56c-16.7 0-26.95 4.72-26.95 8.16v56.8c0 3.36 10.2 8.16 26.95 8.16s26.95-4.72 26.95-8.16v-56.8c0-3.44-10.26-8.16-26.95-8.16z" stroke="#fff" stroke-opacity="0" fill="#232f3e"/><path d="M200 290.53c-14.75 0-30.35-4.07-30.35-11.62h3.4c0 3.4 10.2 8.23 26.95 8.23s26.95-4.78 26.95-8.22h3.4c0 7.56-15.66 11.63-30.35 11.63z" stroke="#fff" stroke-opacity="0" fill="#232f3e"/><use xlink:href="#b" transform="matrix(1,0,0,1,139.65,358) translate(7.049999999999997 14.4)"/><use xlink:href="#c" transform="matrix(1,0,0,1,139.65,358) translate(50.95 14.4)"/><path d="M280.5 318.5h819v1h-819z" fill="none"/><path d="M300.72 318.5h20.22m10.12 0h20.22m10.1 0h20.23m10.12 0h20.22m10.12 0h20.22m10.1 0h20.23m10.12 0h20.22m10.12 0h20.22m10.1 0h20.23m10.12 0h20.22m10.12 0h20.22m10.1 0h20.23m10.12 0h20.22m10.12 0h20.22m10.1 0h20.23m10.12 0h20.22m10.12 0h20.22m10.1 0h20.23m10.12 0h20.22m10.12 0h20.22m10.1 0h20.23m10.12 0h20.22m10.12 0h20.22m10.1 0h20.23m10.12 0h20.22m10.12 0h20.22m10.1 0h10.12v1h-10.1m-10.12 0h-20.22m-10.12 0h-20.22m-10.1 0h-20.23m-10.12 0h-20.22m-10.12 0h-20.22m-10.1 0h-20.23m-10.12 0h-20.22m-10.12 0h-20.22m-10.1 0h-20.23m-10.12 0h-20.22m-10.12 0h-20.22m-10.1 0h-20.23m-10.12 0h-20.22m-10.12 0h-20.22m-10.1 0h-20.23m-10.12 0h-20.22m-10.12 0h-20.22m-10.1 0h-20.23m-10.12 0h-20.22m-10.12 0h-20.22m-10.1 0h-20.23m-10.12 0h-20.22m-10.12 0h-20.22m-10.1 0h-20.23m-10.12 0h-20.22m-10.12 0h-20.22m-10.1 0H280.5v-1h10.1" stroke="#000" fill="none"/><path d="M238.32 607h-76.64c-.88 0-1.68-.76-1.68-1.7v-5.12c0-18.18 11.92-33.43 29.52-37.7.48-.1.88-.05 1.28.17 5.92 3.2 12.48 3.2 18.4 0 .4-.22.8-.26 1.2-.17 17.68 4.27 29.6 19.52 29.6 37.7v5.13c0 .94-.8 1.7-1.68 1.7zm-74.88-3.43h73.12v-3.4c.08-16.35-10.56-30.07-26.32-34.17-3.36 1.64-6.48 2.4-10.24 2.4s-6.88-.7-10.24-2.4c-15.76 4.1-26.4 17.82-26.32 34.18z" stroke="#fff" stroke-opacity="0" fill="#232f3e"/><path d="M200 568.3c-3.67 0-6.8-.78-10.03-2.56-9.95-5.58-13.5-18.2-7.93-28.17 5.58-9.95 18.17-13.5 28.1-7.93 6.72 3.76 10.56 10.33 10.56 18.05 0 7.76-3.92 14.36-10.74 18.04-3.22 1.73-6.32 2.56-9.95 2.56zm0-37.83c-6.6-.17-12.26 3.18-15.44 8.96-4.5 8.4-1.4 18.8 6.94 23.34 5.4 2.93 11.36 2.93 16.77 0 5.7-3.1 9-8.68 8.96-15.2-.04-9.5-7.76-17.14-17.22-17.1z" stroke="#fff" stroke-opacity="0" fill="#232f3e"/><use xlink:href="#d" transform="matrix(1,0,0,1,130,616) translate(49.5 14.4)"/><path d="M280.5 540.5h819v1h-819z" fill="none"/><path d="M300.72 540.5h20.22m10.12 0h20.22m10.1 0h20.23m10.12 0h20.22m10.12 0h20.22m10.1 0h20.23m10.12 0h20.22m10.12 0h20.22m10.1 0h20.23m10.12 0h20.22m10.12 0h20.22m10.1 0h20.23m10.12 0h20.22m10.12 0h20.22m10.1 0h20.23m10.12 0h20.22m10.12 0h20.22m10.1 0h20.23m10.12 0h20.22m10.12 0h20.22m10.1 0h20.23m10.12 0h20.22m10.12 0h20.22m10.1 0h20.23m10.12 0h20.22m10.12 0h20.22m10.1 0h10.12v1h-10.1m-10.12 0h-20.22m-10.12 0h-20.22m-10.1 0h-20.23m-10.12 0h-20.22m-10.12 0h-20.22m-10.1 0h-20.23m-10.12 0h-20.22m-10.12 0h-20.22m-10.1 0h-20.23m-10.12 0h-20.22m-10.12 0h-20.22m-10.1 0h-20.23m-10.12 0h-20.22m-10.12 0h-20.22m-10.1 0h-20.23m-10.12 0h-20.22m-10.12 0h-20.22m-10.1 0h-20.23m-10.12 0h-20.22m-10.12 0h-20.22m-10.1 0h-20.23m-10.12 0h-20.22m-10.12 0h-20.22m-10.1 0h-20.23m-10.12 0h-20.22m-10.12 0h-20.22m-10.1 0H280.5v-1h10.1" stroke="#000" fill="none"/><path d="M340 80h300v96.4H340z" stroke="#000" stroke-opacity="0" stroke-width="2" fill="#fff" fill-opacity="0"/><use xlink:href="#e" transform="matrix(1,0,0,1,345,85.00000000000001) translate(0 21.251424)"/><use xlink:href="#f" transform="matrix(1,0,0,1,345,85.00000000000001) translate(51.95 21.251424)"/><use xlink:href="#g" transform="matrix(1,0,0,1,345,85.00000000000001) translate(0 42.851424)"/><use xlink:href="#h" transform="matrix(1,0,0,1,345,85.00000000000001) translate(40.9 42.851424)"/><use xlink:href="#i" transform="matrix(1,0,0,1,345,85.00000000000001) translate(0 64.451424)"/><use xlink:href="#j" transform="matrix(1,0,0,1,345,85.00000000000001) translate(53.900000000000006 64.451424)"/><use xlink:href="#k" transform="matrix(1,0,0,1,345,85.00000000000001) translate(107.80000000000001 64.451424)"/><use xlink:href="#l" transform="matrix(1,0,0,1,345,85.00000000000001) translate(123.30000000000001 64.451424)"/><use xlink:href="#m" transform="matrix(1,0,0,1,345,85.00000000000001) translate(0 86.05142400000001)"/><use xlink:href="#n" transform="matrix(1,0,0,1,345,85.00000000000001) translate(20 86.05142400000001)"/><use xlink:href="#o" transform="matrix(1,0,0,1,345,85.00000000000001) translate(55 86.05142400000001)"/><use xlink:href="#k" transform="matrix(1,0,0,1,345,85.00000000000001) translate(104.95 86.05142400000001)"/><use xlink:href="#p" transform="matrix(1,0,0,1,345,85.00000000000001) translate(120.45 86.05142400000001)"/><path d="M352.8 183.5V320h76.86V202.62" stroke="#000" stroke-width="3" fill="none"/><path d="M354.3 183.54h-3V182h3zm0-3.54h-3v-1h3z" stroke="#000" stroke-width=".05"/><path d="M429.66 186.85l4.64 14.27h-9.28z" stroke="#000" stroke-width="3"/><use xlink:href="#q" transform="matrix(1,0,0,1,437.6607764058856,234.49449754893914) translate(0 14.4)"/><path d="M440 542h255.2v118H440z" stroke="#000" stroke-opacity="0" stroke-width="2" fill="#fff" fill-opacity="0"/><use xlink:href="#r" transform="matrix(1,0,0,1,445,547) translate(0 14.4)"/><use xlink:href="#h" transform="matrix(1,0,0,1,445,547) translate(60 14.4)"/><use xlink:href="#s" transform="matrix(1,0,0,1,445,547) translate(0 36)"/><use xlink:href="#t" transform="matrix(1,0,0,1,445,547) translate(29 36)"/><use xlink:href="#k" transform="matrix(1,0,0,1,445,547) translate(96.95 36)"/><use xlink:href="#t" transform="matrix(1,0,0,1,445,547) translate(112.45 36)"/><use xlink:href="#u" transform="matrix(1,0,0,1,445,547) translate(180.4 36)"/><use xlink:href="#v" transform="matrix(1,0,0,1,445,547) translate(195.9 36)"/><use xlink:href="#i" transform="matrix(1,0,0,1,445,547) translate(0 57.6)"/><use xlink:href="#j" transform="matrix(1,0,0,1,445,547) translate(53.900000000000006 57.6)"/><use xlink:href="#k" transform="matrix(1,0,0,1,445,547) translate(107.80000000000001 57.6)"/><use xlink:href="#l" transform="matrix(1,0,0,1,445,547) translate(123.30000000000001 57.6)"/><use xlink:href="#w" transform="matrix(1,0,0,1,445,547) translate(0 79.20000000000002)"/><use xlink:href="#n" transform="matrix(1,0,0,1,445,547) translate(15 79.20000000000002)"/><use xlink:href="#o" transform="matrix(1,0,0,1,445,547) translate(50 79.20000000000002)"/><use xlink:href="#k" transform="matrix(1,0,0,1,445,547) translate(99.95 79.20000000000002)"/><use xlink:href="#p" transform="matrix(1,0,0,1,445,547) translate(115.45 79.20000000000002)"/><path d="M451.34 538.5V320h63.07v199.38" stroke="#000" stroke-width="3" fill="none"/><path d="M452.84 543h-3v-1h3zm0-3h-3v-1.54h3z" stroke="#000" stroke-width=".05"/><path d="M514.4 535.15l-4.63-14.27h9.28z" stroke="#000" stroke-width="3"/><path d="M520 324h175.2v118H520z" stroke="#000" stroke-opacity="0" stroke-width="2" fill="#fff" fill-opacity="0"/><g><use xlink:href="#x" transform="matrix(1,0,0,1,525,329) translate(0 58.68125)"/><use xlink:href="#y" transform="matrix(1,0,0,1,525,329) translate(46.95 58.68125)"/><use xlink:href="#z" transform="matrix(1,0,0,1,525,329) translate(118.85000000000001 58.68125)"/><use xlink:href="#A" transform="matrix(1,0,0,1,525,329) translate(134.35000000000002 58.68125)"/></g><path d="M695.2 542h300v118h-300z" stroke="#000" stroke-opacity="0" stroke-width="2" fill="#fff" fill-opacity="0"/><g><use xlink:href="#r" transform="matrix(1,0,0,1,700.1999999999999,547) translate(0 14.4)"/><use xlink:href="#h" transform="matrix(1,0,0,1,700.1999999999999,547) translate(60 14.4)"/><use xlink:href="#s" transform="matrix(1,0,0,1,700.1999999999999,547) translate(0 36)"/><use xlink:href="#t" transform="matrix(1,0,0,1,700.1999999999999,547) translate(29 36)"/><use xlink:href="#k" transform="matrix(1,0,0,1,700.1999999999999,547) translate(96.95 36)"/><use xlink:href="#t" transform="matrix(1,0,0,1,700.1999999999999,547) translate(112.45 36)"/><use xlink:href="#B" transform="matrix(1,0,0,1,700.1999999999999,547) translate(180.4 36)"/><use xlink:href="#v" transform="matrix(1,0,0,1,700.1999999999999,547) translate(191.35 36)"/><use xlink:href="#i" transform="matrix(1,0,0,1,700.1999999999999,547) translate(0 57.6)"/><use xlink:href="#j" transform="matrix(1,0,0,1,700.1999999999999,547) translate(53.900000000000006 57.6)"/><use xlink:href="#k" transform="matrix(1,0,0,1,700.1999999999999,547) translate(107.80000000000001 57.6)"/><use xlink:href="#l" transform="matrix(1,0,0,1,700.1999999999999,547) translate(123.30000000000001 57.6)"/><use xlink:href="#w" transform="matrix(1,0,0,1,700.1999999999999,547) translate(0 79.20000000000002)"/><use xlink:href="#n" transform="matrix(1,0,0,1,700.1999999999999,547) translate(15 79.20000000000002)"/><use xlink:href="#o" transform="matrix(1,0,0,1,700.1999999999999,547) translate(50 79.20000000000002)"/><use xlink:href="#k" transform="matrix(1,0,0,1,700.1999999999999,547) translate(99.95 79.20000000000002)"/><use xlink:href="#C" transform="matrix(1,0,0,1,700.1999999999999,547) translate(115.45 79.20000000000002)"/></g><path d="M700.25 538.5V440h60.26v79.38" stroke="#000" stroke-width="3" fill="none"/><path d="M701.75 543h-3v-1h3zm0-3h-3v-1.54h3z" stroke="#000" stroke-width=".05"/><path d="M760.5 535.15l-4.62-14.27h9.27z" stroke="#000" stroke-width="3"/><path d="M760 420h200v118H760z" stroke="#000" stroke-opacity="0" stroke-width="2" fill="#fff" fill-opacity="0"/><g><use xlink:href="#D" transform="matrix(1,0,0,1,765,425) translate(0 58.68125)"/><use xlink:href="#y" transform="matrix(1,0,0,1,765,425) translate(71.9 58.68125)"/><use xlink:href="#z" transform="matrix(1,0,0,1,765,425) translate(143.8 58.68125)"/><use xlink:href="#E" transform="matrix(1,0,0,1,765,425) translate(159.3 58.68125)"/></g><path d="M820 58.4h300v118H820z" stroke="#000" stroke-opacity="0" stroke-width="2" fill="#fff" fill-opacity="0"/><g><use xlink:href="#e" transform="matrix(1,0,0,1,825,63.40000000000002) translate(0 44.048)"/><use xlink:href="#f" transform="matrix(1,0,0,1,825,63.40000000000002) translate(51.95 44.048)"/><use xlink:href="#g" transform="matrix(1,0,0,1,825,63.40000000000002) translate(0 65.64800000000001)"/><use xlink:href="#h" transform="matrix(1,0,0,1,825,63.40000000000002) translate(40.9 65.64800000000001)"/><use xlink:href="#i" transform="matrix(1,0,0,1,825,63.40000000000002) translate(0 87.24800000000002)"/><use xlink:href="#j" transform="matrix(1,0,0,1,825,63.40000000000002) translate(53.900000000000006 87.24800000000002)"/><use xlink:href="#k" transform="matrix(1,0,0,1,825,63.40000000000002) translate(107.80000000000001 87.24800000000002)"/><use xlink:href="#l" transform="matrix(1,0,0,1,825,63.40000000000002) translate(123.30000000000001 87.24800000000002)"/><use xlink:href="#m" transform="matrix(1,0,0,1,825,63.40000000000002) translate(0 108.84800000000001)"/><use xlink:href="#n" transform="matrix(1,0,0,1,825,63.40000000000002) translate(20 108.84800000000001)"/><use xlink:href="#o" transform="matrix(1,0,0,1,825,63.40000000000002) translate(55 108.84800000000001)"/><use xlink:href="#k" transform="matrix(1,0,0,1,825,63.40000000000002) translate(104.95 108.84800000000001)"/><use xlink:href="#C" transform="matrix(1,0,0,1,825,63.40000000000002) translate(120.45 108.84800000000001)"/></g><path d="M832.26 183.5V440h91.84V202.62" stroke="#000" stroke-width="3" fill="none"/><path d="M833.76 183.54h-3V182h3zm0-3.54h-3v-1h3z" stroke="#000" stroke-width=".05"/><path d="M924.1 186.85l4.63 14.27h-9.27z" stroke="#000" stroke-width="3"/><g><use xlink:href="#F" transform="matrix(1,0,0,1,932.0948856625994,273.7199717972475) translate(0 14.4)"/></g><path d="M1180 239.38h240v139.24h-240z" stroke="#000" stroke-opacity="0" stroke-width="2" fill="#fff" fill-opacity="0"/><g><use xlink:href="#G" transform="matrix(1,0,0,1,1185,244.38) translate(0 21.222)"/><use xlink:href="#H" transform="matrix(1,0,0,1,1185,244.38) translate(59.09399999999999 21.222)"/><use xlink:href="#I" transform="matrix(1,0,0,1,1185,244.38) translate(119.66399999999999 21.222)"/><use xlink:href="#J" transform="matrix(1,0,0,1,1185,244.38) translate(0 47.07000000000001)"/><use xlink:href="#K" transform="matrix(1,0,0,1,1185,244.38) translate(65.42999999999999 47.07000000000001)"/><use xlink:href="#L" transform="matrix(1,0,0,1,1185,244.38) translate(110.26799999999999 47.07000000000001)"/><use xlink:href="#M" transform="matrix(1,0,0,1,1185,244.38) translate(140.166 47.07000000000001)"/><use xlink:href="#N" transform="matrix(1,0,0,1,1185,244.38) translate(169.07399999999998 47.07000000000001)"/><use xlink:href="#O" transform="matrix(1,0,0,1,1185,244.38) translate(0 72.918)"/><use xlink:href="#P" transform="matrix(1,0,0,1,1185,244.38) translate(84.762 72.918)"/><use xlink:href="#Q" transform="matrix(1,0,0,1,1185,244.38) translate(114.51599999999999 72.918)"/></g><path d="M200 478c-14.75 0-30.35-4.08-30.35-11.6v-56.8c0-7.52 15.6-11.6 30.35-11.6 14.7 0 30.35 4.08 30.35 11.6v56.8c0 7.52-15.66 11.6-30.35 11.6zm0-76.56c-16.7 0-26.95 4.72-26.95 8.16v56.8c0 3.36 10.2 8.16 26.95 8.16s26.95-4.72 26.95-8.16v-56.8c0-3.44-10.26-8.16-26.95-8.16z" stroke="#fff" stroke-opacity="0" fill="#232f3e"/><path d="M200 419.53c-14.75 0-30.35-4.07-30.35-11.62h3.4c0 3.4 10.2 8.23 26.95 8.23s26.95-4.78 26.95-8.22h3.4c0 7.56-15.66 11.63-30.35 11.63z" stroke="#fff" stroke-opacity="0" fill="#232f3e"/><g><use xlink:href="#R" transform="matrix(1,0,0,1,139.65000000000003,487) translate(30.025 14.4)"/><use xlink:href="#c" transform="matrix(1,0,0,1,139.65000000000003,487) translate(29 36)"/></g><path d="M280.5 440.5h819v1h-819z" fill="none"/><path d="M300.72 440.5h20.22m10.12 0h20.22m10.1 0h20.23m10.12 0h20.22m10.12 0h20.22m10.1 0h20.23m10.12 0h20.22m10.12 0h20.22m10.1 0h20.23m10.12 0h20.22m10.12 0h20.22m10.1 0h20.23m10.12 0h20.22m10.12 0h20.22m10.1 0h20.23m10.12 0h20.22m10.12 0h20.22m10.1 0h20.23m10.12 0h20.22m10.12 0h20.22m10.1 0h20.23m10.12 0h20.22m10.12 0h20.22m10.1 0h20.23m10.12 0h20.22m10.12 0h20.22m10.1 0h10.12v1h-10.1m-10.12 0h-20.22m-10.12 0h-20.22m-10.1 0h-20.23m-10.12 0h-20.22m-10.12 0h-20.22m-10.1 0h-20.23m-10.12 0h-20.22m-10.12 0h-20.22m-10.1 0h-20.23m-10.12 0h-20.22m-10.12 0h-20.22m-10.1 0h-20.23m-10.12 0h-20.22m-10.12 0h-20.22m-10.1 0h-20.23m-10.12 0h-20.22m-10.12 0h-20.22m-10.1 0h-20.23m-10.12 0h-20.22m-10.12 0h-20.22m-10.1 0h-20.23m-10.12 0h-20.22m-10.12 0h-20.22m-10.1 0h-20.23m-10.12 0h-20.22m-10.12 0h-20.22m-10.1 0H280.5v-1h10.1" stroke="#000" fill="none"/><path d="M1179 308.98l-20.92-.43-19.77-1.24-19.35-2.03-21.8-3.23-98.97-18.62" stroke="#6f7681" stroke-width="2" stroke-linejoin="round" fill="none"/><path d="M1180 308v2l-1.05-.02.04-2z" stroke="#6f7681" stroke-width=".05" fill="#6f7681"/><path d="M983.18 280.6l14.88-1.92-1.72 9.1z" stroke="#6f7681" stroke-width="2" fill="#6f7681"/><defs><path d="M160-131c35 5 61 23 61 61C221 17 115-2 30 0v-248c76 3 177-17 177 60 0 33-19 50-47 57zm-97-11c50-1 110 9 110-42 0-47-63-36-110-37v79zm0 115c55-2 124 14 124-45 0-56-70-42-124-44v89" id="S"/><path d="M100-194c62-1 85 37 85 99 1 63-27 99-86 99S16-35 15-95c0-66 28-99 85-99zM99-20c44 1 53-31 53-75 0-43-8-75-51-75s-53 32-53 75 10 74 51 75" id="T"/><path d="M115-194c53 0 69 39 70 98 0 66-23 100-70 100C84 3 66-7 56-30L54 0H23l1-261h32v101c10-23 28-34 59-34zm-8 174c40 0 45-34 45-75 0-40-5-75-45-74-42 0-51 32-51 76 0 43 10 73 51 73" id="U"/><g id="a"><use transform="matrix(0.05,0,0,0.05,0,0)" xlink:href="#S"/><use transform="matrix(0.05,0,0,0.05,12,0)" xlink:href="#T"/><use transform="matrix(0.05,0,0,0.05,22,0)" xlink:href="#U"/></g><path d="M210-169c-67 3-38 105-44 169h-31v-121c0-29-5-50-35-48C34-165 62-65 56 0H25l-1-190h30c1 10-1 24 2 32 10-44 99-50 107 0 11-21 27-35 58-36 85-2 47 119 55 194h-31v-121c0-29-5-49-35-48" id="V"/><path d="M141-36C126-15 110 5 73 4 37 3 15-17 15-53c-1-64 63-63 125-63 3-35-9-54-41-54-24 1-41 7-42 31l-33-3c5-37 33-52 76-52 45 0 72 20 72 64v82c-1 20 7 32 28 27v20c-31 9-61-2-59-35zM48-53c0 20 12 33 32 33 41-3 63-29 60-74-43 2-92-5-92 41" id="W"/><path d="M24-231v-30h32v30H24zM24 0v-190h32V0H24" id="X"/><path d="M117-194c89-4 53 116 60 194h-32v-121c0-31-8-49-39-48C34-167 62-67 57 0H25l-1-190h30c1 10-1 24 2 32 11-22 29-35 61-36" id="Y"/><g id="b"><use transform="matrix(0.05,0,0,0.05,0,0)" xlink:href="#V"/><use transform="matrix(0.05,0,0,0.05,14.950000000000001,0)" xlink:href="#W"/><use transform="matrix(0.05,0,0,0.05,24.950000000000003,0)" xlink:href="#X"/><use transform="matrix(0.05,0,0,0.05,28.900000000000002,0)" xlink:href="#Y"/></g><path d="M96-169c-40 0-48 33-48 73s9 75 48 75c24 0 41-14 43-38l32 2c-6 37-31 61-74 61-59 0-76-41-82-99-10-93 101-131 147-64 4 7 5 14 7 22l-32 3c-4-21-16-35-41-35" id="Z"/><path d="M84 4C-5 8 30-112 23-190h32v120c0 31 7 50 39 49 72-2 45-101 50-169h31l1 190h-30c-1-10 1-25-2-33-11 22-28 36-60 37" id="aa"/><path d="M59-47c-2 24 18 29 38 22v24C64 9 27 4 27-40v-127H5v-23h24l9-43h21v43h35v23H59v120" id="ab"/><g id="c"><use transform="matrix(0.05,0,0,0.05,0,0)" xlink:href="#W"/><use transform="matrix(0.05,0,0,0.05,10,0)" xlink:href="#Z"/><use transform="matrix(0.05,0,0,0.05,19,0)" xlink:href="#Z"/><use transform="matrix(0.05,0,0,0.05,28,0)" xlink:href="#T"/><use transform="matrix(0.05,0,0,0.05,38,0)" xlink:href="#aa"/><use transform="matrix(0.05,0,0,0.05,48,0)" xlink:href="#Y"/><use transform="matrix(0.05,0,0,0.05,58,0)" xlink:href="#ab"/></g><path d="M143 0L79-87 56-68V0H24v-261h32v163l83-92h37l-77 82L181 0h-38" id="ac"/><g id="d"><use transform="matrix(0.05,0,0,0.05,0,0)" xlink:href="#S"/><use transform="matrix(0.05,0,0,0.05,12,0)" xlink:href="#W"/><use transform="matrix(0.05,0,0,0.05,22,0)" xlink:href="#Y"/><use transform="matrix(0.05,0,0,0.05,32,0)" xlink:href="#ac"/></g><path d="M135-143c-3-34-86-38-87 0 15 53 115 12 119 90S17 21 10-45l28-5c4 36 97 45 98 0-10-56-113-15-118-90-4-57 82-63 122-42 12 7 21 19 24 35" id="ad"/><path d="M100-194c63 0 86 42 84 106H49c0 40 14 67 53 68 26 1 43-12 49-29l28 8c-11 28-37 45-77 45C44 4 14-33 15-96c1-61 26-98 85-98zm52 81c6-60-76-77-97-28-3 7-6 17-6 28h103" id="ae"/><path d="M24 0v-261h32V0H24" id="af"/><g id="e"><use transform="matrix(0.05,0,0,0.05,0,0)" xlink:href="#ad"/><use transform="matrix(0.05,0,0,0.05,9,0)" xlink:href="#ae"/><use transform="matrix(0.05,0,0,0.05,19,0)" xlink:href="#af"/><use transform="matrix(0.05,0,0,0.05,22.95,0)" xlink:href="#ae"/><use transform="matrix(0.05,0,0,0.05,32.95,0)" xlink:href="#Z"/><use transform="matrix(0.05,0,0,0.05,41.95,0)" xlink:href="#ab"/></g><g id="f"><use transform="matrix(0.05,0,0,0.05,0,0)" xlink:href="#U"/><use transform="matrix(0.05,0,0,0.05,10,0)" xlink:href="#W"/><use transform="matrix(0.05,0,0,0.05,20,0)" xlink:href="#af"/><use transform="matrix(0.05,0,0,0.05,23.95,0)" xlink:href="#W"/><use transform="matrix(0.05,0,0,0.05,33.95,0)" xlink:href="#Y"/><use transform="matrix(0.05,0,0,0.05,43.95,0)" xlink:href="#Z"/><use transform="matrix(0.05,0,0,0.05,52.95,0)" xlink:href="#ae"/></g><path d="M101-234c-31-9-42 10-38 44h38v23H63V0H32v-167H5v-23h27c-7-52 17-82 69-68v24" id="ag"/><path d="M114-163C36-179 61-72 57 0H25l-1-190h30c1 12-1 29 2 39 6-27 23-49 58-41v29" id="ah"/><g id="g"><use transform="matrix(0.05,0,0,0.05,0,0)" xlink:href="#ag"/><use transform="matrix(0.05,0,0,0.05,5,0)" xlink:href="#ah"/><use transform="matrix(0.05,0,0,0.05,10.95,0)" xlink:href="#T"/><use transform="matrix(0.05,0,0,0.05,20.95,0)" xlink:href="#V"/></g><g id="h"><use transform="matrix(0.05,0,0,0.05,0,0)" xlink:href="#W"/><use transform="matrix(0.05,0,0,0.05,10,0)" xlink:href="#Z"/><use transform="matrix(0.05,0,0,0.05,19,0)" xlink:href="#Z"/><use transform="matrix(0.05,0,0,0.05,28,0)" xlink:href="#T"/><use transform="matrix(0.05,0,0,0.05,38,0)" xlink:href="#aa"/><use transform="matrix(0.05,0,0,0.05,48,0)" xlink:href="#Y"/><use transform="matrix(0.05,0,0,0.05,58,0)" xlink:href="#ab"/><use transform="matrix(0.05,0,0,0.05,63,0)" xlink:href="#ad"/></g><path d="M206 0h-36l-40-164L89 0H53L-1-190h32L70-26l43-164h34l41 164 42-164h31" id="ai"/><path d="M106-169C34-169 62-67 57 0H25v-261h32l-1 103c12-21 28-36 61-36 89 0 53 116 60 194h-32v-121c2-32-8-49-39-48" id="aj"/><g id="i"><use transform="matrix(0.05,0,0,0.05,0,0)" xlink:href="#ai"/><use transform="matrix(0.05,0,0,0.05,12.950000000000001,0)" xlink:href="#aj"/><use transform="matrix(0.05,0,0,0.05,22.950000000000003,0)" xlink:href="#ae"/><use transform="matrix(0.05,0,0,0.05,32.95,0)" xlink:href="#ah"/><use transform="matrix(0.05,0,0,0.05,38.900000000000006,0)" xlink:href="#ae"/></g><g id="j"><use transform="matrix(0.05,0,0,0.05,0,0)" xlink:href="#T"/><use transform="matrix(0.05,0,0,0.05,10,0)" xlink:href="#ai"/><use transform="matrix(0.05,0,0,0.05,22.950000000000003,0)" xlink:href="#Y"/><use transform="matrix(0.05,0,0,0.05,32.95,0)" xlink:href="#ae"/><use transform="matrix(0.05,0,0,0.05,42.95,0)" xlink:href="#ah"/></g><path d="M18-150v-26h174v26H18zm0 90v-26h174v26H18" id="ak"/><use transform="matrix(0.05,0,0,0.05,0,0)" xlink:href="#ak" id="k"/><path d="M47-170H22l-4-78h33" id="al"/><g id="l"><use transform="matrix(0.05,0,0,0.05,0,0)" xlink:href="#al"/><use transform="matrix(0.05,0,0,0.05,3.4000000000000004,0)" xlink:href="#S"/><use transform="matrix(0.05,0,0,0.05,15.4,0)" xlink:href="#T"/><use transform="matrix(0.05,0,0,0.05,25.4,0)" xlink:href="#U"/><use transform="matrix(0.05,0,0,0.05,35.4,0)" xlink:href="#al"/></g><path d="M85-194c31 0 48 13 60 33l-1-100h32l1 261h-30c-2-10 0-23-3-31C134-8 116 4 85 4 32 4 16-35 15-94c0-66 23-100 70-100zm9 24c-40 0-46 34-46 75 0 40 6 74 45 74 42 0 51-32 51-76 0-42-9-74-50-73" id="am"/><g id="n"><use transform="matrix(0.05,0,0,0.05,0,0)" xlink:href="#W"/><use transform="matrix(0.05,0,0,0.05,10,0)" xlink:href="#Y"/><use transform="matrix(0.05,0,0,0.05,20,0)" xlink:href="#am"/></g><g id="o"><use transform="matrix(0.05,0,0,0.05,0,0)" xlink:href="#Y"/><use transform="matrix(0.05,0,0,0.05,10,0)" xlink:href="#W"/><use transform="matrix(0.05,0,0,0.05,20,0)" xlink:href="#V"/><use transform="matrix(0.05,0,0,0.05,34.95,0)" xlink:href="#ae"/></g><g id="p"><use transform="matrix(0.05,0,0,0.05,0,0)" xlink:href="#al"/><use transform="matrix(0.05,0,0,0.05,3.4000000000000004,0)" xlink:href="#V"/><use transform="matrix(0.05,0,0,0.05,18.35,0)" xlink:href="#W"/><use transform="matrix(0.05,0,0,0.05,28.35,0)" xlink:href="#X"/><use transform="matrix(0.05,0,0,0.05,32.300000000000004,0)" xlink:href="#Y"/><use transform="matrix(0.05,0,0,0.05,42.300000000000004,0)" xlink:href="#al"/></g><path d="M139-81c0-46-55-55-73-27H18l9-140h149v37H72l-4 63c44-38 133-4 122 66C201 21 21 35 11-62l49-4c5 18 15 30 39 30 26 0 40-18 40-45" id="an"/><path d="M101-251c68 0 84 54 84 127C185-50 166 4 99 4S15-52 14-124c-1-75 17-127 87-127zm-1 216c37-5 36-46 36-89s4-89-36-89c-39 0-36 45-36 89 0 43-3 85 36 89" id="ao"/><g id="q"><use transform="matrix(0.05,0,0,0.05,0,0)" xlink:href="#an"/><use transform="matrix(0.05,0,0,0.05,10,0)" xlink:href="#ao"/><use transform="matrix(0.05,0,0,0.05,20,0)" xlink:href="#ao"/></g><path d="M115-194c55 1 70 41 70 98S169 2 115 4C84 4 66-9 55-30l1 105H24l-1-265h31l2 30c10-21 28-34 59-34zm-8 174c40 0 45-34 45-75s-6-73-45-74c-42 0-51 32-51 76 0 43 10 73 51 73" id="ap"/><g id="r"><use transform="matrix(0.05,0,0,0.05,0,0)" xlink:href="#aa"/><use transform="matrix(0.05,0,0,0.05,10,0)" xlink:href="#ap"/><use transform="matrix(0.05,0,0,0.05,20,0)" xlink:href="#am"/><use transform="matrix(0.05,0,0,0.05,30,0)" xlink:href="#W"/><use transform="matrix(0.05,0,0,0.05,40,0)" xlink:href="#ab"/><use transform="matrix(0.05,0,0,0.05,45,0)" xlink:href="#ae"/></g><g id="s"><use transform="matrix(0.05,0,0,0.05,0,0)" xlink:href="#ad"/><use transform="matrix(0.05,0,0,0.05,9,0)" xlink:href="#ae"/><use transform="matrix(0.05,0,0,0.05,19,0)" xlink:href="#ab"/></g><g id="t"><use transform="matrix(0.05,0,0,0.05,0,0)" xlink:href="#U"/><use transform="matrix(0.05,0,0,0.05,10,0)" xlink:href="#W"/><use transform="matrix(0.05,0,0,0.05,20,0)" xlink:href="#af"/><use transform="matrix(0.05,0,0,0.05,23.95,0)" xlink:href="#W"/><use transform="matrix(0.05,0,0,0.05,33.95,0)" xlink:href="#Y"/><use transform="matrix(0.05,0,0,0.05,43.95,0)" xlink:href="#Z"/><use transform="matrix(0.05,0,0,0.05,52.95,0)" xlink:href="#ae"/></g><path d="M118-107v75H92v-75H18v-26h74v-75h26v75h74v26h-74" id="aq"/><use transform="matrix(0.05,0,0,0.05,0,0)" xlink:href="#aq" id="u"/><path d="M27 0v-27h64v-190l-56 39v-29l58-41h29v221h61V0H27" id="ar"/><path d="M101-251c68 0 85 55 85 127S166 4 100 4C33 4 14-52 14-124c0-73 17-127 87-127zm-1 229c47 0 54-49 54-102s-4-102-53-102c-51 0-55 48-55 102 0 53 5 102 54 102" id="as"/><g id="v"><use transform="matrix(0.05,0,0,0.05,0,0)" xlink:href="#ar"/><use transform="matrix(0.05,0,0,0.05,10,0)" xlink:href="#as"/><use transform="matrix(0.05,0,0,0.05,20,0)" xlink:href="#as"/></g><path d="M220-157c-53 9-28 100-34 157h-49v-107c1-27-5-49-29-50C55-147 81-57 75 0H25l-1-190h47c2 12-1 28 3 38 10-53 101-56 108 0 13-22 24-43 59-42 82 1 51 116 57 194h-49v-107c-1-25-5-48-29-50" id="at"/><path d="M133-34C117-15 103 5 69 4 32 3 11-16 11-54c-1-60 55-63 116-61 1-26-3-47-28-47-18 1-26 9-28 27l-52-2c7-38 36-58 82-57s74 22 75 68l1 82c-1 14 12 18 25 15v27c-30 8-71 5-69-32zm-48 3c29 0 43-24 42-57-32 0-66-3-65 30 0 17 8 27 23 27" id="au"/><path d="M25-224v-37h50v37H25zM25 0v-190h50V0H25" id="av"/><path d="M135-194c87-1 58 113 63 194h-50c-7-57 23-157-34-157-59 0-34 97-39 157H25l-1-190h47c2 12-1 28 3 38 12-26 28-41 61-42" id="aw"/><g id="x"><use transform="matrix(0.05,0,0,0.05,0,0)" xlink:href="#at"/><use transform="matrix(0.05,0,0,0.05,16,0)" xlink:href="#au"/><use transform="matrix(0.05,0,0,0.05,26,0)" xlink:href="#av"/><use transform="matrix(0.05,0,0,0.05,31,0)" xlink:href="#aw"/></g><path d="M135-194c52 0 70 43 70 98 0 56-19 99-73 100-30 1-46-15-58-35L72 0H24l1-261h50v104c11-23 29-37 60-37zM114-30c31 0 40-27 40-66 0-37-7-63-39-63s-41 28-41 65c0 36 8 64 40 64" id="ax"/><path d="M25 0v-261h50V0H25" id="ay"/><path d="M190-63c-7 42-38 67-86 67-59 0-84-38-90-98-12-110 154-137 174-36l-49 2c-2-19-15-32-35-32-30 0-35 28-38 64-6 74 65 87 74 30" id="az"/><path d="M185-48c-13 30-37 53-82 52C43 2 14-33 14-96s30-98 90-98c62 0 83 45 84 108H66c0 31 8 55 39 56 18 0 30-7 34-22zm-45-69c5-46-57-63-70-21-2 6-4 13-4 21h74" id="aA"/><g id="y"><use transform="matrix(0.05,0,0,0.05,0,0)" xlink:href="#ax"/><use transform="matrix(0.05,0,0,0.05,10.950000000000001,0)" xlink:href="#au"/><use transform="matrix(0.05,0,0,0.05,20.950000000000003,0)" xlink:href="#ay"/><use transform="matrix(0.05,0,0,0.05,25.950000000000003,0)" xlink:href="#au"/><use transform="matrix(0.05,0,0,0.05,35.95,0)" xlink:href="#aw"/><use transform="matrix(0.05,0,0,0.05,46.900000000000006,0)" xlink:href="#az"/><use transform="matrix(0.05,0,0,0.05,56.900000000000006,0)" xlink:href="#aA"/></g><path d="M15-148v-39h180v39H15zm0 97v-39h180v39H15" id="aB"/><use transform="matrix(0.05,0,0,0.05,0,0)" xlink:href="#aB" id="z"/><path d="M115-159c48 0 72 30 72 78 0 54-30 85-83 85-64 0-91-50-91-122 0-98 58-163 141-120 15 8 21 24 27 44l-47 6c-5-31-48-31-61-4-7 14-11 33-11 60 9-17 28-27 53-27zM102-35c24 0 36-20 36-45s-11-43-37-43c-23 0-36 14-36 38 0 27 11 50 37 50" id="aC"/><g id="A"><use transform="matrix(0.05,0,0,0.05,0,0)" xlink:href="#aC"/><use transform="matrix(0.05,0,0,0.05,10,0)" xlink:href="#ao"/><use transform="matrix(0.05,0,0,0.05,20,0)" xlink:href="#ao"/></g><path d="M16-82v-28h88v28H16" id="aD"/><use transform="matrix(0.05,0,0,0.05,0,0)" xlink:href="#aD" id="B"/><path d="M108 0H70L1-190h34L89-25l56-165h34" id="aE"/><path d="M177-190C167-65 218 103 67 71c-23-6-38-20-44-43l32-5c15 47 100 32 89-28v-30C133-14 115 1 83 1 29 1 15-40 15-95c0-56 16-97 71-98 29-1 48 16 59 35 1-10 0-23 2-32h30zM94-22c36 0 50-32 50-73 0-42-14-75-50-75-39 0-46 34-46 75s6 73 46 73" id="aF"/><g id="C"><use transform="matrix(0.05,0,0,0.05,0,0)" xlink:href="#al"/><use transform="matrix(0.05,0,0,0.05,3.4000000000000004,0)" xlink:href="#ad"/><use transform="matrix(0.05,0,0,0.05,12.4,0)" xlink:href="#W"/><use transform="matrix(0.05,0,0,0.05,22.4,0)" xlink:href="#aE"/><use transform="matrix(0.05,0,0,0.05,31.399999999999995,0)" xlink:href="#X"/><use transform="matrix(0.05,0,0,0.05,35.35,0)" xlink:href="#Y"/><use transform="matrix(0.05,0,0,0.05,45.35,0)" xlink:href="#aF"/><use transform="matrix(0.05,0,0,0.05,55.35,0)" xlink:href="#ad"/><use transform="matrix(0.05,0,0,0.05,64.35,0)" xlink:href="#al"/></g><path d="M137-138c1-29-70-34-71-4 15 46 118 7 119 86 1 83-164 76-172 9l43-7c4 19 20 25 44 25 33 8 57-30 24-41C81-84 22-81 20-136c-2-80 154-74 161-7" id="aG"/><path d="M128 0H69L1-190h53L99-40l48-150h52" id="aH"/><path d="M195-6C206 82 75 100 31 46c-4-6-6-13-8-21l49-6c3 16 16 24 34 25 40 0 42-37 40-79-11 22-30 35-61 35-53 0-70-43-70-97 0-56 18-96 73-97 30 0 46 14 59 34l2-30h47zm-90-29c32 0 41-27 41-63 0-35-9-62-40-62-32 0-39 29-40 63 0 36 9 62 39 62" id="aI"/><g id="D"><use transform="matrix(0.05,0,0,0.05,0,0)" xlink:href="#aG"/><use transform="matrix(0.05,0,0,0.05,10,0)" xlink:href="#au"/><use transform="matrix(0.05,0,0,0.05,20,0)" xlink:href="#aH"/><use transform="matrix(0.05,0,0,0.05,30,0)" xlink:href="#av"/><use transform="matrix(0.05,0,0,0.05,35,0)" xlink:href="#aw"/><use transform="matrix(0.05,0,0,0.05,45.95,0)" xlink:href="#aI"/><use transform="matrix(0.05,0,0,0.05,56.900000000000006,0)" xlink:href="#aG"/></g><path d="M165-50V0h-47v-50H5v-38l105-160h55v161h33v37h-33zm-47-37l2-116L46-87h72" id="aJ"/><g id="E"><use transform="matrix(0.05,0,0,0.05,0,0)" xlink:href="#aJ"/><use transform="matrix(0.05,0,0,0.05,10,0)" xlink:href="#ao"/><use transform="matrix(0.05,0,0,0.05,20,0)" xlink:href="#ao"/></g><g id="F"><use transform="matrix(0.05,0,0,0.05,0,0)" xlink:href="#aJ"/><use transform="matrix(0.05,0,0,0.05,10,0)" xlink:href="#ao"/><use transform="matrix(0.05,0,0,0.05,20,0)" xlink:href="#ao"/></g><path fill="#6f7681" d="M68-174c-8-157-1-333-1-488 0-23-21-28-12-60 24-87 141-85 256-77 161 12 317 42 251 258-5 17-40 45-44 60 15 30 85 80 98 123 62 108 25 192-76 258C455-45 341-9 207-4 145-2 19-30 19-85c0-36 51-41 49-89zm137-510c-18 6-26 137-16 192 30 22 66 2 112-6 70-13 158-95 159-132 17-68-169-82-255-54zm-15 330c-15 57-2 155 5 215 6 4 6 12 18 11 101-5 211-32 267-82 52-46 58-91 12-140s-73-73-81-73c-39 14-121 48-173 54-15 2-34 14-48 15" id="aK"/><path fill="#6f7681" d="M44-443c79-191 208-366 448-366 141 0 239 118 267 253 46 222-61 413-213 490-83 42-221 78-338 30-55-23-106-43-129-82-26-14-80-140-57-202 2-41 8-89 22-123zm103 115c1 136 75 191 208 191 130 0 180-50 241-135 38-53 55-111 55-169 0-109-73-236-179-227-143 12-260 151-311 271-9 24-14 47-14 69" id="aL"/><path fill="#6f7681" d="M215-523c83-14 105-142 116-233 8-66-60-76-90-37-17 69-24 133-58 181-22 31-10 96 32 89zM22-636c-19 34-6 79 29 83 59 8 101-98 113-220 4-43-10-85-54-86-60-2-41 78-53 130-11 48-11 51-35 93" id="aM"/><path fill="#6f7681" d="M371-533c189 0 256 55 239 237-9 91-67 138-157 205C374-33 301-7 236-7 155-7 13-82 18-160c3-44 62-73 96-38 43 44 152 73 218 29 77-51 166-125 156-169 2-44-67-63-119-62-47 1-108 1-155 3C87-393 13-429 1-531c11-87 101-150 165-187 90-52 160-96 290-87 34 2 118 78 115 115-3 35-23 38-55 45-15 4-26-4-33-24-37-64-116-1-164 12-41 11-154 77-154 113 0 15 14 22 41 22 45 0 127-11 165-11" id="aN"/><g id="G"><use transform="matrix(0.018,0,0,0.018,0,0)" xlink:href="#aK"/><use transform="matrix(0.018,0,0,0.018,11.574,0)" xlink:href="#aL"/><use transform="matrix(0.018,0,0,0.018,26.028,0)" xlink:href="#aK"/><use transform="matrix(0.018,0,0,0.018,36.269999999999996,0)" xlink:href="#aM"/><use transform="matrix(0.018,0,0,0.018,42.38999999999999,0)" xlink:href="#aN"/></g><path fill="#6f7681" d="M382-556c-3 158-18 304-18 470 0 31 6 72-21 86-20 35-87 21-104-6-1-188 14-367 23-549 1-24 13-80-17-80-77 0-131 31-210 31-15-10-43-18-33-45 0-82 83-94 148-109 103-23 215-12 315-40 43-12 91-17 142-23 62-8 95 53 77 116-8 28-47 14-75 18-68 9-134 10-195 30-32 11-31 60-32 101" id="aO"/><path fill="#6f7681" d="M103-24C79 10-2-14 8-59c42-186 129-353 193-524 23-62 63-135 99-197 39-38 106-10 109 47 27 100 51 209 81 307 8 25 72 24 72 63 0 44-26 46-37 75 12 83 46 156 55 243 7 63-106 47-114 11-13-58-36-170-57-231-3-4-7-8-9-14-69 4-134 40-198 52-53 21-53 108-81 160-4 16-8 29-18 43zm215-551c-16 18-92 195-73 208 46 2 100-12 123-31-5-30-32-162-38-171-2-3-6-5-12-6" id="aP"/><path fill="#6f7681" d="M21-302C-7-136 9 24 196-12c147-28 263-93 386-142 57-23 26-120-26-120-111 32-240 115-378 126-13 1-22-26-25-45 30-174 59-350 88-524 10-62-86-124-120-61-39 73-49 196-69 277-19 77-22 145-31 199" id="aQ"/><g id="H"><use transform="matrix(0.018,0,0,0.018,0,0)" xlink:href="#aO"/><use transform="matrix(0.018,0,0,0.018,10.097999999999999,0)" xlink:href="#aL"/><use transform="matrix(0.018,0,0,0.018,24.029999999999998,0)" xlink:href="#aO"/><use transform="matrix(0.018,0,0,0.018,33.263999999999996,0)" xlink:href="#aP"/><use transform="matrix(0.018,0,0,0.018,44.153999999999996,0)" xlink:href="#aQ"/></g><path fill="#6f7681" d="M24-128c0-158-18-313-5-472 6-74-11-192 62-191 78 1 88 68 113 130 59 143 102 191 174 297 50 73 81 109 92 109 8 0 12-3 13-9 24-163 3-322-12-477-6-63 62-76 101-37 65 64 45 212 54 340 10 141 7 304-15 413-8 15-20 23-37 23-76 0-203-132-244-200-33-54-79-109-116-169l4 4c-9-20-41-55-54-51-14 102-5 244 6 344 3 30-15 69-41 68-9 0-28-1-56-3-44-28-39-45-39-119" id="aR"/><path fill="#6f7681" d="M521-275c40-33 108-24 108 34 0 49-75 103-210 183-80 47-247 72-323 10-66-54-95-101-82-218 12-106 41-136 91-224 55-96 145-209 240-278 32-23 68-33 107-33 86 2 108 61 107 158 0 55-15 82-44 82-55 1-25-116-79-110-132 15-229 223-291 334-48 86-31 226 81 218 122-9 217-92 295-156" id="aS"/><path fill="#6f7681" d="M330-158c82-22 193-18 286-31 38 11 58 81 24 113-25 24-71 25-116 25-135 0-238 34-358 47C61 7 4-52 15-159c12-113 37-213 32-340-2-59 2-121-2-178-2-44 35-62 81-61 104-31 222-52 345-64 68-7 103 34 111 94 2 12-3 22-9 31-33 14-62 15-103 16-100 2-196 10-270 40h-8c-18 23-11 79-15 106-1 13 5 22 16 25 82-10 176-25 264-12 44 7 78 26 71 72-7 49-76 30-125 30-78 0-138 22-210 29-24 1-35 28-36 52-2 41-10 83-8 126-19 84 122 51 181 35" id="aT"/><g id="I"><use transform="matrix(0.018,0,0,0.018,0,0)" xlink:href="#aK"/><use transform="matrix(0.018,0,0,0.018,10.728,0)" xlink:href="#aP"/><use transform="matrix(0.018,0,0,0.018,21.618,0)" xlink:href="#aQ"/><use transform="matrix(0.018,0,0,0.018,32.129999999999995,0)" xlink:href="#aP"/><use transform="matrix(0.018,0,0,0.018,43.019999999999996,0)" xlink:href="#aR"/><use transform="matrix(0.018,0,0,0.018,54.55799999999999,0)" xlink:href="#aS"/><use transform="matrix(0.018,0,0,0.018,65.97,0)" xlink:href="#aT"/></g><path fill="#6f7681" d="M109-754c29-56 120 5 113 55-24 164-73 311-76 498 0 44 17 66 52 66 44 0 193-39 283-82 16-8 27-24 32-45 27-114 44-316 44-439 0-57 27-86 82-86 38 0 57 27 57 82 0 195-35 406-61 587 5 33 20 94-14 106-8 12-30 10-67-7-15-20-33-39-52-56C437-54 255 2 210 0 80-5 5-44 13-182c11-186 48-366 83-531 3-12 5-27 13-41" id="aU"/><path fill="#6f7681" d="M608-642l-20 77c-36 56-69 94-113 138-49 48-58 40-29 81 33 46 69 89 97 147 44 89 52 141 40 147-3 38-20 49-63 52-68 5-97-106-129-160-40-68-56-162-144-164-53-1-27 78-45 121-7 56-12 123-28 170C157-4 113 24 66-1 46-11 40-39 49-87c19-111 19-139 19-313 0-144 1-187-40-242-27-37-13-94 26-108 103-36 250-59 389-41 63 8 182 85 165 149zm-140 11c-10-39-42-58-96-57-53 12-154 21-179 43-5 9-8 31-8 65 0 151 19 135 127 94 94-36 148-79 156-145" id="aV"/><path fill="#6f7681" d="M371-533c189 0 256 55 239 237-9 91-67 138-157 205C374-33 301-7 236-7 155-7 13-82 18-160c3-44 62-73 96-38 43 44 152 73 218 29 77-51 166-125 156-169 2-44-67-63-119-62-47 1-108 1-155 3C87-393 13-429 1-531c11-87 101-150 165-187 90-52 160-96 290-87 34 2 118 78 115 115-3 35-23 38-55 45-15 4-26-4-33-24-37-64-116-1-164 12-41 11-154 77-154 113 0 15 14 22 41 22 45 0 127-11 165-11" id="aW"/><g id="J"><use transform="matrix(0.018,0,0,0.018,0,0)" xlink:href="#aO"/><use transform="matrix(0.018,0,0,0.018,11.915999999999999,0)" xlink:href="#aU"/><use transform="matrix(0.018,0,0,0.018,25.272,0)" xlink:href="#aV"/><use transform="matrix(0.018,0,0,0.018,37.188,0)" xlink:href="#aR"/><use transform="matrix(0.018,0,0,0.018,48.726,0)" xlink:href="#aW"/></g><g id="K"><use transform="matrix(0.018,0,0,0.018,0,0)" xlink:href="#aL"/><use transform="matrix(0.018,0,0,0.018,14.453999999999999,0)" xlink:href="#aU"/><use transform="matrix(0.018,0,0,0.018,27.144,0)" xlink:href="#aO"/></g><g id="L"><use transform="matrix(0.018,0,0,0.018,0,0)" xlink:href="#aO"/><use transform="matrix(0.018,0,0,0.018,10.097999999999999,0)" xlink:href="#aL"/></g><g id="M"><use transform="matrix(0.018,0,0,0.018,0,0)" xlink:href="#aK"/><use transform="matrix(0.018,0,0,0.018,11.574,0)" xlink:href="#aT"/></g><path fill="#6f7681" d="M238-772c95-37 360-101 350 62-21 51-20 120-36 173-42 138-53 313-53 481 0 50-81 63-119 34-46-74 13-195-9-290-67 18-157 40-230 12C51-334-11-406 4-542c6-50 23-95 54-121 41-56 113-83 180-109zm-39 356c170 32 257-85 257-236 0-47-79-41-122-29-75 21-145 51-195 99-34 32-30 107 6 133 16 11 30 28 54 33" id="aX"/><path fill="#6f7681" d="M760-689c54 66 114 194 89 305-22 96-60 182-130 233C644-96 571-43 466-22 362-1 196 2 130-53 83-92 15-170 14-243c-3-132 48-208 100-291 87-138 222-257 433-251 99 3 168 41 213 96zM147-248c0 125 211 119 317 79 118-45 205-117 253-230 30-71-7-171-46-201-79-58-137-52-237-20-103 33-177 98-233 203-36 66-54 122-54 169" id="aY"/><g id="N"><use transform="matrix(0.018,0,0,0.018,0,0)" xlink:href="#aX"/><use transform="matrix(0.018,0,0,0.018,10.764,0)" xlink:href="#aY"/><use transform="matrix(0.018,0,0,0.018,26.387999999999998,0)" xlink:href="#aY"/></g><path fill="#6f7681" d="M292-638c-67 2-113 14-176 21-81 9-112-68-58-103 132-46 304-52 470-66l65 5c50 52 43 111-50 111-45 0-75 15-112 18-18 16-19 83-24 152-7 108-21 214-33 322-5 46 36 20 67 20 54 0 81-10 139-16 43 25 50 62 23 110-151 29-311 50-490 79C58 24-8 22 3-44c14-83 161-45 224-90 22-16 24-69 29-107 17-126 33-258 36-397" id="aZ"/><path fill="#6f7681" d="M19-91c0-222 71-428 58-668-3-62 121-44 170-33 118 27 229 50 293 128 44 53 63 97 63 217 0 165-189 328-383 400-36 13-62 45-108 45-66 0-93-23-93-89zm185-582c-30 151-43 322-58 489 5 39 27 28 60 14 129-54 276-147 276-304 0-155-106-203-278-199" id="ba"/><g id="O"><use transform="matrix(0.018,0,0,0.018,0,0)" xlink:href="#aZ"/><use transform="matrix(0.018,0,0,0.018,12.186,0)" xlink:href="#aR"/><use transform="matrix(0.018,0,0,0.018,23.723999999999997,0)" xlink:href="#aW"/><use transform="matrix(0.018,0,0,0.018,33.983999999999995,0)" xlink:href="#aO"/><use transform="matrix(0.018,0,0,0.018,46.331999999999994,0)" xlink:href="#aT"/><use transform="matrix(0.018,0,0,0.018,57.50999999999999,0)" xlink:href="#aP"/><use transform="matrix(0.018,0,0,0.018,68.544,0)" xlink:href="#ba"/></g><path fill="#6f7681" d="M39-49c-7-93 9-204-6-289-18-30-12-41 1-77 37-27 19-97 25-162 2-23-27-37-49-40-11-18-14-56 0-71 17-39 273-99 376-109 72-7 163-32 165 45 1 65-62 51-115 66-63 18-176 24-229 55-41 23-20 107-25 176 83-2 166-25 259-33 74-6 91 70 44 97-80 23-228 35-304 57-18 6-27 18-27 35-9 45 6 274-42 299-35 2-92-5-73-49" id="bb"/><g id="P"><use transform="matrix(0.018,0,0,0.018,0,0)" xlink:href="#aL"/><use transform="matrix(0.018,0,0,0.018,14.453999999999999,0)" xlink:href="#bb"/></g><path fill="#6f7681" d="M49-77C44-40 70-4 106-4c52 0 58-115 69-176 33-185 88-339 106-531 5-55-37-120-88-84-58 41-108 94-156 139-9 8-27 43-27 58-1 28 35 54 60 54 15-1 48-23 43 15" id="bc"/><g id="Q"><use transform="matrix(0.018,0,0,0.018,0,0)" xlink:href="#bc"/><use transform="matrix(0.018,0,0,0.018,5.093999999999999,0)" xlink:href="#aY"/><use transform="matrix(0.018,0,0,0.018,20.718,0)" xlink:href="#aY"/><use transform="matrix(0.018,0,0,0.018,36.342,0)" xlink:href="#aY"/></g><g id="R"><use transform="matrix(0.05,0,0,0.05,0,0)" xlink:href="#ad"/><use transform="matrix(0.05,0,0,0.05,9,0)" xlink:href="#W"/><use transform="matrix(0.05,0,0,0.05,19,0)" xlink:href="#aE"/><use transform="matrix(0.05,0,0,0.05,28,0)" xlink:href="#X"/><use transform="matrix(0.05,0,0,0.05,31.950000000000003,0)" xlink:href="#Y"/><use transform="matrix(0.05,0,0,0.05,41.95,0)" xlink:href="#aF"/><use transform="matrix(0.05,0,0,0.05,51.95,0)" xlink:href="#ad"/></g></defs></g></svg>
