<svg xmlns="http://www.w3.org/2000/svg" xmlns:xlink="http://www.w3.org/1999/xlink" xmlns:lucid="lucid" width="963" height="390"><g transform="translate(-30 -921)" lucid:page-tab-id="0_0"><path d="M60 970h562v-10l18 20-18 20v-10H60z" stroke="#000" stroke-width="2" fill="#e5e5e5"/><path d="M160 1080h80v60h-80z" stroke="#000" stroke-width="2" fill="#fff"/><use xlink:href="#a" transform="matrix(1,0,0,1,165,1085) translate(19.916666666666664 29.118055555555557)"/><path d="M195.33 992v85.18" stroke="#000" stroke-width="2" fill="none"/><path d="M196.33 991v1.03h-2V991z"/><path d="M185.15 1059.82l10.18 17.22 10.18-17.22" stroke="#000" stroke-width="2" fill="none"/><path d="M100 1000h100v60H100z" stroke="#000" stroke-opacity="0" stroke-width="2" fill="#fff" fill-opacity="0"/><use xlink:href="#b" transform="matrix(1,0,0,1,105,1005) translate(0 16)"/><use xlink:href="#c" transform="matrix(1,0,0,1,105,1005) translate(0 40)"/><path d="M240 940h240v40H240z" stroke="#000" stroke-opacity="0" stroke-width="2" fill="#fff" fill-opacity="0"/><use xlink:href="#d" transform="matrix(1,0,0,1,245,945) translate(32.47222222222224 16)"/><use xlink:href="#e" transform="matrix(1,0,0,1,245,945) translate(183.13888888888886 16)"/><path d="M240 1230h232v-10l18 20-18 20v-10H240z" stroke="#000" stroke-width="2" fill="#e5e5e5"/><path d="M330 1080h80v60h-80z" stroke="#000" stroke-width="2" fill="#fff"/><use xlink:href="#f" transform="matrix(1,0,0,1,335,1085) translate(19.916666666666664 29.118055555555557)"/><path d="M372 1228v-85.18" stroke="#000" stroke-width="2" fill="none"/><path d="M373 1229h-2v-1.03h2z"/><path d="M382.18 1160.18L372 1142.96l-10.18 17.22" stroke="#000" stroke-width="2" fill="none"/><path d="M270 1160h100v60H270z" stroke="#000" stroke-opacity="0" stroke-width="2" fill="#fff" fill-opacity="0"/><use xlink:href="#g" transform="matrix(1,0,0,1,275,1165) translate(0 16)"/><use xlink:href="#h" transform="matrix(1,0,0,1,275,1165) translate(0 40)"/><path d="M240 1260h240v40H240z" stroke="#000" stroke-opacity="0" stroke-width="2" fill="#fff" fill-opacity="0"/><use xlink:href="#d" transform="matrix(1,0,0,1,245,1265) translate(32.47222222222224 16)"/><use xlink:href="#i" transform="matrix(1,0,0,1,245,1265) translate(183.13888888888886 16)"/><path d="M760 1100h224v110.47H760z" stroke="#000" stroke-opacity="0" stroke-width="2" fill="#fff" fill-opacity="0"/><use xlink:href="#j" transform="matrix(1,0,0,1,765,1105) translate(16.27777777777777 17.77777777777778)"/><use xlink:href="#k" transform="matrix(1,0,0,1,765,1105) translate(111.4111111111111 17.77777777777778)"/><use xlink:href="#l" transform="matrix(1,0,0,1,765,1105) translate(19.622222222222234 41.644444444444446)"/><use xlink:href="#m" transform="matrix(1,0,0,1,765,1105) translate(140.46666666666667 41.644444444444446)"/><use xlink:href="#n" transform="matrix(1,0,0,1,765,1105) translate(26.088888888888874 65.51111111111112)"/><use xlink:href="#o" transform="matrix(1,0,0,1,765,1105) translate(88.46666666666665 65.51111111111112)"/><use xlink:href="#p" transform="matrix(1,0,0,1,765,1105) translate(141.51111111111112 65.51111111111112)"/><use xlink:href="#q" transform="matrix(1,0,0,1,765,1105) translate(58.05555555555555 89.37777777777777)"/><path d="M540 992v85.18" stroke="#000" stroke-width="2" fill="none"/><path d="M541 991v1.03h-2V991z"/><path d="M529.82 1059.82l10.18 17.22 10.18-17.22" stroke="#000" stroke-width="2" fill="none"/><path d="M440 1000h100v60H440z" stroke="#000" stroke-opacity="0" stroke-width="2" fill="#fff" fill-opacity="0"/><g><use xlink:href="#r" transform="matrix(1,0,0,1,445,1005) translate(0 16)"/><use xlink:href="#s" transform="matrix(1,0,0,1,445,1005) translate(0 40)"/></g><path d="M500 1080h80v60h-80z" stroke="#000" stroke-width="2" fill="#fff"/><g><use xlink:href="#t" transform="matrix(1,0,0,1,505,1085) translate(19.916666666666664 19.555555555555557)"/><use xlink:href="#u" transform="matrix(1,0,0,1,505,1085) translate(19.916666666666664 48.88888888888889)"/></g><path d="M500 1210h140v60H500z" stroke="#000" stroke-opacity="0" stroke-width="2" fill="#fff" fill-opacity="0"/><g><use xlink:href="#v" transform="matrix(1,0,0,1,505,1215) translate(0 16)"/><use xlink:href="#w" transform="matrix(1,0,0,1,505,1215) translate(0 40)"/></g><path d="M759 1155.2l-9.3-.18-8.9-.55-7.9-.83-7.13-1.05-6.57-1.26-6.2-1.45-5.97-1.68-5.96-1.94-6.23-2.32-7.1-3-10.86-5.14-23.62-11.56-7.1-3-6.23-2.3-5.96-1.94-5.98-1.67-6.2-1.45-6.57-1.26-7.13-1.05-7.9-.83-.72-.05" fill="none"/><path d="M759 1155.2l-9.3-.18m-9.27-.6l-7.53-.78-7.13-1.05-3.74-.72m-9.08-2l-5.92-1.66-5.96-1.94-5.78-2.15m-8.57-3.64l-9.85-4.68-6.9-3.38m-8.35-4.08l-8.37-4.1-7.1-3-1.47-.53m-8.78-3.08l-1.95-.63-5.98-1.67-6.2-1.45-3.9-.75m-9.17-1.46l-.63-.1-7.9-.83-.72-.05" stroke="#999" stroke-width="2" fill="none"/><path d="M760 1154.23v2l-1.05-.02.04-2z" fill="#999"/><path d="M584.23 1110.13l14.44-4.08-.36 9.26z" stroke="#999" stroke-width="2" fill="#999"/><defs><path d="M24-248c120-7 223 5 221 122C244-46 201 0 124 0H24v-248zM76-40c74 7 117-18 117-86 0-67-45-88-117-82v168" id="x"/><path d="M23 0v-37h61v-169l-59 37v-38l62-41h46v211h57V0H23" id="y"/><g id="a"><use transform="matrix(0.06790123456790124,0,0,0.06790123456790124,0,0)" xlink:href="#x"/><use transform="matrix(0.06790123456790124,0,0,0.06790123456790124,17.58641975308642,0)" xlink:href="#y"/></g><path d="M24 0v-54h51V0H24" id="z"/><g id="b"><use transform="matrix(0.05555555555555555,0,0,0.05555555555555555,0,0)" xlink:href="#y"/><use transform="matrix(0.05555555555555555,0,0,0.05555555555555555,11.11111111111111,0)" xlink:href="#z"/></g><path d="M185-189c-5-48-123-54-124 2 14 75 158 14 163 119 3 78-121 87-175 55-17-10-28-26-33-46l33-7c5 56 141 63 141-1 0-78-155-14-162-118-5-82 145-84 179-34 5 7 8 16 11 25" id="A"/><path d="M30 0v-248h187v28H63v79h144v27H63v87h162V0H30" id="B"/><path d="M30 0v-248h33v221h125V0H30" id="C"/><path d="M212-179c-10-28-35-45-73-45-59 0-87 40-87 99 0 60 29 101 89 101 43 0 62-24 78-52l27 14C228-24 195 4 139 4 59 4 22-46 18-125c-6-104 99-153 187-111 19 9 31 26 39 46" id="D"/><path d="M127-220V0H93v-220H8v-28h204v28h-85" id="E"/><g id="c"><use transform="matrix(0.05555555555555555,0,0,0.05555555555555555,0,0)" xlink:href="#A"/><use transform="matrix(0.05555555555555555,0,0,0.05555555555555555,13.333333333333332,0)" xlink:href="#B"/><use transform="matrix(0.05555555555555555,0,0,0.05555555555555555,26.666666666666664,0)" xlink:href="#C"/><use transform="matrix(0.05555555555555555,0,0,0.05555555555555555,37.77777777777777,0)" xlink:href="#B"/><use transform="matrix(0.05555555555555555,0,0,0.05555555555555555,51.1111111111111,0)" xlink:href="#D"/><use transform="matrix(0.05555555555555555,0,0,0.05555555555555555,65.49999999999999,0)" xlink:href="#E"/></g><path d="M136-208V0H84v-208H4v-40h212v40h-80" id="F"/><path d="M240-174c0 40-23 61-54 70L253 0h-59l-57-94H76V0H24v-248c93 4 217-23 216 74zM76-134c48-2 112 12 112-38 0-48-66-32-112-35v73" id="G"/><path d="M199 0l-22-63H83L61 0H9l90-248h61L250 0h-51zm-33-102l-36-108c-10 38-24 72-36 108h72" id="H"/><path d="M175 0L67-191c6 58 2 128 3 191H24v-248h59L193-55c-6-58-2-129-3-193h46V0h-61" id="I"/><path d="M169-182c-1-43-94-46-97-3 18 66 151 10 154 114 3 95-165 93-204 36-6-8-10-19-12-30l50-8c3 46 112 56 116 5-17-69-150-10-154-114-4-87 153-88 188-35 5 8 8 18 10 28" id="J"/><path d="M67-125c0 53 21 87 73 88 37 1 54-22 65-47l45 17C233-25 199 4 140 4 58 4 20-42 15-125 8-235 124-281 211-232c18 10 29 29 36 50l-46 12c-8-25-30-41-62-41-52 0-71 34-72 86" id="K"/><path d="M24 0v-248h52V0H24" id="L"/><path d="M140-251c80 0 125 45 125 126S219 4 139 4C58 4 15-44 15-125s44-126 125-126zm-1 214c52 0 73-35 73-88 0-50-21-86-72-86-52 0-73 35-73 86s22 88 72 88" id="M"/><g id="d"><use transform="matrix(0.05555555555555555,0,0,0.05555555555555555,0,0)" xlink:href="#F"/><use transform="matrix(0.05555555555555555,0,0,0.05555555555555555,12.166666666666666,0)" xlink:href="#G"/><use transform="matrix(0.05555555555555555,0,0,0.05555555555555555,26.555555555555554,0)" xlink:href="#H"/><use transform="matrix(0.05555555555555555,0,0,0.05555555555555555,40.94444444444444,0)" xlink:href="#I"/><use transform="matrix(0.05555555555555555,0,0,0.05555555555555555,55.33333333333333,0)" xlink:href="#J"/><use transform="matrix(0.05555555555555555,0,0,0.05555555555555555,68.66666666666666,0)" xlink:href="#H"/><use transform="matrix(0.05555555555555555,0,0,0.05555555555555555,83.05555555555554,0)" xlink:href="#K"/><use transform="matrix(0.05555555555555555,0,0,0.05555555555555555,97.44444444444443,0)" xlink:href="#F"/><use transform="matrix(0.05555555555555555,0,0,0.05555555555555555,109.6111111111111,0)" xlink:href="#L"/><use transform="matrix(0.05555555555555555,0,0,0.05555555555555555,115.16666666666666,0)" xlink:href="#M"/><use transform="matrix(0.05555555555555555,0,0,0.05555555555555555,130.7222222222222,0)" xlink:href="#I"/></g><use transform="matrix(0.05555555555555555,0,0,0.05555555555555555,0,0)" xlink:href="#H" id="e"/><path d="M182-182c0 78-84 86-111 141h115V0H12c-6-101 99-100 120-180 1-22-12-31-33-32-23 0-32 14-35 34l-49-3c5-45 32-70 84-70 51 0 83 22 83 69" id="N"/><g id="f"><use transform="matrix(0.06790123456790124,0,0,0.06790123456790124,0,0)" xlink:href="#x"/><use transform="matrix(0.06790123456790124,0,0,0.06790123456790124,17.58641975308642,0)" xlink:href="#N"/></g><g id="g"><use transform="matrix(0.05555555555555555,0,0,0.05555555555555555,0,0)" xlink:href="#N"/><use transform="matrix(0.05555555555555555,0,0,0.05555555555555555,11.11111111111111,0)" xlink:href="#z"/></g><path d="M33 0v-248h34V0H33" id="O"/><path d="M190 0L58-211 59 0H30v-248h39L202-35l-2-213h31V0h-41" id="P"/><path d="M233-177c-1 41-23 64-60 70L243 0h-38l-65-103H63V0H30v-248c88 3 205-21 203 71zM63-129c60-2 137 13 137-47 0-61-80-42-137-45v92" id="Q"/><g id="h"><use transform="matrix(0.05555555555555555,0,0,0.05555555555555555,0,0)" xlink:href="#O"/><use transform="matrix(0.05555555555555555,0,0,0.05555555555555555,5.555555555555555,0)" xlink:href="#P"/><use transform="matrix(0.05555555555555555,0,0,0.05555555555555555,19.944444444444443,0)" xlink:href="#A"/><use transform="matrix(0.05555555555555555,0,0,0.05555555555555555,33.27777777777777,0)" xlink:href="#B"/><use transform="matrix(0.05555555555555555,0,0,0.05555555555555555,46.6111111111111,0)" xlink:href="#Q"/><use transform="matrix(0.05555555555555555,0,0,0.05555555555555555,60.61111111111109,0)" xlink:href="#E"/></g><path d="M182-130c37 4 62 22 62 59C244 23 116-4 24 0v-248c84 5 203-23 205 63 0 31-19 50-47 55zM76-148c40-3 101 13 101-30 0-44-60-28-101-31v61zm0 110c48-3 116 14 116-37 0-48-69-32-116-35v72" id="R"/><use transform="matrix(0.05555555555555555,0,0,0.05555555555555555,0,0)" xlink:href="#R" id="i"/><path fill="#666" d="M57-191C48-107 192-27 280-27c97 0 254-99 310-169 39-50 65-83 62-166-5-159-71-204-245-204-43 0-128 16-175 9 33-54 156-102 224-125 50-17 39 63 85 49 7-1 26-9 26-8 27 1 48-28 46-55-5-57-86-138-163-130-107 11-177 44-249 89-64 40-151 103-160 192 11 108 88 147 219 147 67 0 156-12 208 7 20 7 30 17 30 30 0 34-38 77-114 130 1-1 0-1 1-1-43 46-146 46-193 1-15-15-43-32-65-30-41 4-67 29-70 70" id="S"/><path fill="#666" d="M562-231c-119 0-201 32-308 40-14 1-42-3-40-14 7-43 5-108 16-155 15-24 58-17 92-28 55-18 122-10 191-10 29 0 63-18 62-50l-1 1c9-54-30-90-85-89l2 1c-79-20-172-1-247 10 3-27 1-57 6-86 80-35 193-36 303-41 17-1 37-7 58-16 38-58-8-126-51-147l1 1c-50-22-116-3-173 4-55 6-120 24-173 38l1-1c-58 17-141 13-134 97 6 67 3 142 3 213 0 107-34 195-34 299 0 91 55 147 155 140 120-8 214-45 346-45 28 0 55-3 82-5h-6c53-8 92-74 55-130-9-16-23-28-41-35-26 5-52 8-80 8zM242-525v-1 1" id="T"/><path fill="#666" d="M603-651c0-97-31-172-120-170-102 1-164 75-214 132-81 91-127 171-181 277-30 59-52 189-20 259C104-74 204-5 336-32c36-8 99-21 126-45 137-73 206-137 206-191 0-71-82-87-131-48-77 62-149 135-266 145-97 8-92-125-54-190 41-69 89-162 136-217 46-53 83-81 115-81 30 22 11 105 74 105 41 0 61-32 61-97" id="U"/><path fill="#666" d="M776-292c25-58 39-113 39-189 0-186-105-335-289-347-115-8-264 80-335 176-54 72-128 174-130 306-17 72 19 171 60 209C155-80 284-35 371-30c125 8 185-36 261-79 69-40 112-103 145-184zM507-656c91 0 151 106 151 197 0 107-87 221-167 253-29 11-88 21-133 13l1 1c-87-19-148-53-141-159 8-119 91-193 166-254 44-35 86-51 123-51" id="V"/><path fill="#666" d="M216-409c9 8 16 19 19 30-1 9 8 9 10 13 37 63 77 111 116 172 37 57 163 169 227 172 23 0 40-11 52-32 33-170 13-434 6-619-3-83-39-143-107-149-45-4-69 31-66 79 10 146 31 283 13 439-51-61-104-153-152-217-31-42-51-96-76-155l1 1c-28-66-40-134-124-136-97-1-69 150-80 250-17 150 12 295 5 444-2 50 15 62 51 88 19 2 42 3 59 3 35 2 66-46 57-86l1 1c-10-94-14-194-12-298zm39 2c4 1 2 2 0 3v-3zm229 115c0-2 0-3 1-4-1 1-1 3-1 4" id="W"/><path fill="#666" d="M80-334C68-194 2 14 192-26c62-30 136-63 191-92 174-92 259-210 259-347 0-142-33-193-97-253-69-64-182-82-292-104-16-3-35-3-56-3-90 0-82 55-82 133 0 95-9 196-26 279l1-1c-6 25-8 57-10 80zm133 125c17-153 24-313 53-452 153-5 243 55 220 201l-1-2c-24 127-149 211-272 253zm48-441v3-3zm-8 53c0-1 0-1 1-2" id="X"/><g id="j"><use transform="matrix(0.022222222222222223,0,0,0.022222222222222223,0,0)" xlink:href="#S"/><use transform="matrix(0.022222222222222223,0,0,0.022222222222222223,14.044444444444444,0)" xlink:href="#T"/><use transform="matrix(0.022222222222222223,0,0,0.022222222222222223,28.866666666666667,0)" xlink:href="#U"/><use transform="matrix(0.022222222222222223,0,0,0.022222222222222223,42.97777777777778,0)" xlink:href="#V"/><use transform="matrix(0.022222222222222223,0,0,0.022222222222222223,60.82222222222222,0)" xlink:href="#W"/><use transform="matrix(0.022222222222222223,0,0,0.022222222222222223,75.08888888888889,0)" xlink:href="#X"/></g><path fill="#666" d="M173-13c102-20 79-163 100-261 0-7 2-19 3-27-8-47 57-27 68-2 40 53 67 131 101 192l-1-1c19 54 59 97 104 92 43-5 70-16 73-58 13-23 7-37-3-71-6-23-15-54-34-88-35-66-68-105-104-161 56-50 105-104 147-170 6-29 17-55 20-85 6-72-103-151-170-159l2 1c-139-21-303 2-392 48-38 20-46 85-18 123 36 48 34 126 35 220 2 188-7 191-22 334-6 57 41 80 92 72zm83-631c46-6 199-69 222 5-8 54-52 92-132 119-94 31-95 61-95-72 0-28 2-45 5-52zm67 321l-3-1c1 1 2 1 3 1" id="Y"/><path fill="#666" d="M562-231c-119 0-201 32-308 40-14 1-42-3-40-14 7-43 5-108 16-155 15-24 58-17 92-28 55-18 122-10 191-10 29 0 63-18 62-50l-1 1c9-54-30-90-85-89l2 1c-79-20-172-1-247 10 3-27 1-57 6-86 80-35 193-36 303-41 17-1 37-7 58-16 38-58-8-126-51-147l1 1c-50-22-116-3-173 4-55 6-120 24-173 38l1-1c-58 17-141 13-134 97 6 67 3 142 3 213 0 107-34 195-34 299 0 91 55 147 155 140 120-8 214-45 346-45 28 0 55-3 82-5h-6c53-8 92-74 55-130-9-16-23-28-41-35-26 5-52 8-80 8zM242-525v-1 1" id="Z"/><path fill="#666" d="M57-191C48-107 192-27 280-27c97 0 254-99 310-169 39-50 65-83 62-166-5-159-71-204-245-204-43 0-128 16-175 9 33-54 156-102 224-125 50-17 39 63 85 49 7-1 26-9 26-8 27 1 48-28 46-55-5-57-86-138-163-130-107 11-177 44-249 89-64 40-151 103-160 192 11 108 88 147 219 147 67 0 156-12 208 7 20 7 30 17 30 30 0 34-38 77-114 130 1-1 0-1 1-1-43 46-146 46-193 1-15-15-43-32-65-30-41 4-67 29-70 70" id="aa"/><path fill="#666" d="M629-24c59-2 63-70 49-127 24-178 57-368 57-559 0-65-24-97-72-97-73 0-104 46-96 125-15 110-16 275-41 389-4 15-11 26-22 31l1-1c-82 36-169 76-259 76-20 0-30-14-30-43 1-122 26-238 45-343 11-60 55-153-4-195l2 1c-40-47-109-37-123 31-33 162-66 339-84 524C31 4 269 4 431-58c31-12 67-21 97-31 15 15 29 29 42 47 25 12 44 18 59 18" id="ab"/><path fill="#666" d="M50-194C40-28 200 0 338-54c94-37 183-73 272-114 29-13 41-37 41-62 0-44-32-91-71-89-30 3-148 61-190 76l1-1c-45 16-110 45-165 45 1 0 0-5-3-15l1 1-3-11c27-168 60-333 82-502 10-75-103-138-147-64-8 14-17 32-20 54l1-1c-6 17-8 35-12 54l1-2C92-532 60-361 50-194" id="ac"/><path fill="#666" d="M645-678c57 15 88-19 85-70-3-57-39-101-102-93l2-1c-127 12-234 44-370 51-66 3-119 20-167 43-33 16-52 54-53 100-1 32 26 35 43 50 76 5 134-24 207-28-5 193-25 387-24 590 22 32 100 56 129 11 46-29 23-117 23-184 0-132 20-247 22-379 0-21 2-47 13-59 60-18 127-20 192-31zm-189 28l-2 2c1-1 1-2 2-2" id="ad"/><g id="k"><use transform="matrix(0.022222222222222223,0,0,0.022222222222222223,0,0)" xlink:href="#Y"/><use transform="matrix(0.022222222222222223,0,0,0.022222222222222223,13.755555555555556,0)" xlink:href="#Z"/><use transform="matrix(0.022222222222222223,0,0,0.022222222222222223,28.57777777777778,0)" xlink:href="#aa"/><use transform="matrix(0.022222222222222223,0,0,0.022222222222222223,42.62222222222222,0)" xlink:href="#ab"/><use transform="matrix(0.022222222222222223,0,0,0.022222222222222223,58.31111111111111,0)" xlink:href="#ac"/><use transform="matrix(0.022222222222222223,0,0,0.022222222222222223,72.02222222222223,0)" xlink:href="#ad"/></g><path fill="#666" d="M42-70c0 87 115 70 183 54l-1 1c168-29 298-46 412-66 37-61 31-107-28-144-59 12-120 13-178 22 6-108 31-217 31-327 0-55 4-92 13-111 33-5 63-9 97-17 108 2 116-84 54-143-115-14-235 13-335 17-9 1-17 2-25 5l1-1c-26 5-56 8-80 15l1-1c-64 12-112 20-118 81-8 89 119 84 199 63-6 0 1-1 3-1 14-2 24 0 41-3 2 126-16 240-31 354-4 28-1 78-21 91-30 19-88 18-126 30l1-1c-53 5-93 24-93 82" id="ae"/><g id="l"><use transform="matrix(0.022222222222222223,0,0,0.022222222222222223,0,0)" xlink:href="#ae"/><use transform="matrix(0.022222222222222223,0,0,0.022222222222222223,14.155555555555557,0)" xlink:href="#W"/><use transform="matrix(0.022222222222222223,0,0,0.022222222222222223,28.422222222222224,0)" xlink:href="#U"/><use transform="matrix(0.022222222222222223,0,0,0.022222222222222223,42.53333333333334,0)" xlink:href="#ac"/><use transform="matrix(0.022222222222222223,0,0,0.022222222222222223,56.244444444444454,0)" xlink:href="#ab"/><use transform="matrix(0.022222222222222223,0,0,0.022222222222222223,71.93333333333334,0)" xlink:href="#X"/><use transform="matrix(0.022222222222222223,0,0,0.022222222222222223,85.37777777777778,0)" xlink:href="#Z"/><use transform="matrix(0.022222222222222223,0,0,0.022222222222222223,100.2,0)" xlink:href="#aa"/></g><path fill="#666" d="M70-181C36-106 39-36 121-28c46 4 59-41 69-68 14-40 27-86 43-123 28-31 91-34 132-52 22-9 42-12 57-14 23 70 34 146 54 220 8 29 38 43 83 43 40 0 60-20 60-60 0-87-40-149-50-230 28-18 51-84 14-113-11-9-44-19-50-27-27-105-52-214-82-316-19-65-108-61-136-9-73 134-133 295-189 435-24 59-31 107-56 161zm286-369c8 39 19 86 26 125-22 9-48 16-78 17 14-39 32-102 52-142" id="af"/><g id="m"><use transform="matrix(0.022222222222222223,0,0,0.022222222222222223,0,0)" xlink:href="#X"/><use transform="matrix(0.022222222222222223,0,0,0.022222222222222223,13.444444444444445,0)" xlink:href="#af"/><use transform="matrix(0.022222222222222223,0,0,0.022222222222222223,26.533333333333328,0)" xlink:href="#ad"/><use transform="matrix(0.022222222222222223,0,0,0.022222222222222223,41.82222222222222,0)" xlink:href="#af"/></g><path fill="#666" d="M420-344c-1 90-16 190-5 279 8 59 121 78 140 12 3-9 4-17 9-25 11-212 26-423 34-636 3-83-42-118-114-102-21 15-45 36-54 61-3 63-6 126-6 189 0 45 2 31-54 38-40 5-81 12-122 10-2-80 24-181-9-241 2 3-1-2 0 0-13-28-34-42-62-42-99 0-92 204-92 330 0 123-18 235-3 348-17 55 42 97 84 97 94 0 79-189 74-301-2-55 38-27 76-40l98-9c4 5 6 16 6 32zM245-520c1 1 2 2 3 2-2-1-3-1-3-2" id="ag"/><g id="n"><use transform="matrix(0.022222222222222223,0,0,0.022222222222222223,0,0)" xlink:href="#ad"/><use transform="matrix(0.022222222222222223,0,0,0.022222222222222223,15.28888888888889,0)" xlink:href="#ag"/><use transform="matrix(0.022222222222222223,0,0,0.022222222222222223,27.400000000000002,0)" xlink:href="#af"/><use transform="matrix(0.022222222222222223,0,0,0.022222222222222223,40.48888888888889,0)" xlink:href="#ad"/></g><path fill="#666" d="M801-816c-117 0-37 170-64 263l1-1c-15 67-25 131-43 194-17 60-32 90-42 90-80-84-72-255-129-356-25-43-100-46-123 6-3 9-10 16-13 25l1-1c-8 20-18 38-27 56h3c-37 81-75 146-113 224-14 27-22 40-25 40-20-121-1-292-18-429-7-54-40-79-81-79-96 0-69 186-67 280 4 147 38 414 86 451 74 56 110 33 172-59 29-43 113-203 127-220 48 94 116 279 229 289 100-11 151-212 184-307 29-83 39-155 39-263 0-135-32-203-97-203" id="ah"/><g id="o"><use transform="matrix(0.022222222222222223,0,0,0.022222222222222223,0,0)" xlink:href="#ah"/><use transform="matrix(0.022222222222222223,0,0,0.022222222222222223,19.311111111111114,0)" xlink:href="#af"/><use transform="matrix(0.022222222222222223,0,0,0.022222222222222223,32.400000000000006,0)" xlink:href="#aa"/></g><g id="p"><use transform="matrix(0.022222222222222223,0,0,0.022222222222222223,0,0)" xlink:href="#W"/><use transform="matrix(0.022222222222222223,0,0,0.022222222222222223,14.266666666666667,0)" xlink:href="#V"/><use transform="matrix(0.022222222222222223,0,0,0.022222222222222223,32.111111111111114,0)" xlink:href="#ad"/></g><path fill="#666" d="M173-760c-47-53-124-8-124 56 35 130 84 269 116 396 17 67 41 127 68 184 43 96 91 124 167 76 102-105 142-279 200-428 31-80 47-165 47-255 0-62-20-93-61-93-46 0-73 38-88 112-32 153-82 289-137 426-12 30-22 44-23 44-63-154-99-377-167-518 1 1 2 1 2 0" id="ai"/><path fill="#666" d="M58-120c0 66 127 98 195 96 131-3 240-41 324-94 105-67 138-161 78-271-25-45-59-78-90-108 15-16 29-31 39-48 16-58 22-147-13-187-60-68-156-89-270-89-121 0-219 3-230 109-2 17 7 29 12 41-8 149-1 314 1 467 0 16-5 27-15 33-21 13-31 30-31 51zm202-60c-10-53-9-118-10-178 63-23 141-33 195-65-7-7 96 83 88 114-25 93-160 123-273 129zm3-494c24-10 55-12 83-12 84 0 126 16 126 47 0 24-82 99-136 108-28 5-50 14-82 14-4-50-7-126 9-157" id="aj"/><g id="q"><use transform="matrix(0.022222222222222223,0,0,0.022222222222222223,0,0)" xlink:href="#ai"/><use transform="matrix(0.022222222222222223,0,0,0.022222222222222223,13.68888888888889,0)" xlink:href="#ae"/><use transform="matrix(0.022222222222222223,0,0,0.022222222222222223,27.844444444444452,0)" xlink:href="#aa"/><use transform="matrix(0.022222222222222223,0,0,0.022222222222222223,41.88888888888889,0)" xlink:href="#ae"/><use transform="matrix(0.022222222222222223,0,0,0.022222222222222223,56.044444444444444,0)" xlink:href="#aj"/><use transform="matrix(0.022222222222222223,0,0,0.022222222222222223,70.35555555555557,0)" xlink:href="#ac"/><use transform="matrix(0.022222222222222223,0,0,0.022222222222222223,84.06666666666668,0)" xlink:href="#Z"/></g><path d="M165-50V0h-47v-50H5v-38l105-160h55v161h33v37h-33zm-47-37l2-116L46-87h72" id="ak"/><g id="r"><use transform="matrix(0.05555555555555555,0,0,0.05555555555555555,0,0)" xlink:href="#ak"/><use transform="matrix(0.05555555555555555,0,0,0.05555555555555555,11.11111111111111,0)" xlink:href="#z"/></g><g id="s"><use transform="matrix(0.05555555555555555,0,0,0.05555555555555555,0,0)" xlink:href="#A"/><use transform="matrix(0.05555555555555555,0,0,0.05555555555555555,13.333333333333332,0)" xlink:href="#B"/><use transform="matrix(0.05555555555555555,0,0,0.05555555555555555,26.666666666666664,0)" xlink:href="#C"/><use transform="matrix(0.05555555555555555,0,0,0.05555555555555555,37.77777777777777,0)" xlink:href="#B"/><use transform="matrix(0.05555555555555555,0,0,0.05555555555555555,51.1111111111111,0)" xlink:href="#D"/><use transform="matrix(0.05555555555555555,0,0,0.05555555555555555,65.49999999999999,0)" xlink:href="#E"/></g><g id="t"><use transform="matrix(0.06790123456790124,0,0,0.06790123456790124,0,0)" xlink:href="#x"/><use transform="matrix(0.06790123456790124,0,0,0.06790123456790124,17.58641975308642,0)" xlink:href="#y"/></g><g id="u"><use transform="matrix(0.06790123456790124,0,0,0.06790123456790124,0,0)" xlink:href="#x"/><use transform="matrix(0.06790123456790124,0,0,0.06790123456790124,17.58641975308642,0)" xlink:href="#N"/></g><path d="M128-127c34 4 56 21 59 58 7 91-148 94-172 28-4-9-6-17-7-26l51-5c1 24 16 35 40 36 23 0 39-12 38-36-1-31-31-36-65-34v-40c32 2 59-3 59-33 0-20-13-33-34-33s-33 13-35 32l-50-3c6-44 37-68 86-68 50 0 83 20 83 66 0 35-22 52-53 58" id="al"/><g id="v"><use transform="matrix(0.05555555555555555,0,0,0.05555555555555555,0,0)" xlink:href="#al"/><use transform="matrix(0.05555555555555555,0,0,0.05555555555555555,11.11111111111111,0)" xlink:href="#z"/></g><path d="M140-251c81 0 123 46 123 126C263-46 219 4 140 4 59 4 17-45 17-125s42-126 123-126zm0 227c63 0 89-41 89-101s-29-99-89-99c-61 0-89 39-89 99S79-25 140-24" id="am"/><path d="M240 0l2-218c-23 76-54 145-80 218h-23L58-218 59 0H30v-248h44l77 211c21-75 51-140 76-211h43V0h-30" id="an"/><g id="w"><use transform="matrix(0.05555555555555555,0,0,0.05555555555555555,0,0)" xlink:href="#D"/><use transform="matrix(0.05555555555555555,0,0,0.05555555555555555,14.388888888888888,0)" xlink:href="#am"/><use transform="matrix(0.05555555555555555,0,0,0.05555555555555555,29.944444444444443,0)" xlink:href="#an"/><use transform="matrix(0.05555555555555555,0,0,0.05555555555555555,46.55555555555556,0)" xlink:href="#an"/><use transform="matrix(0.05555555555555555,0,0,0.05555555555555555,63.16666666666668,0)" xlink:href="#O"/><use transform="matrix(0.05555555555555555,0,0,0.05555555555555555,68.72222222222223,0)" xlink:href="#E"/></g></defs></g></svg>