<svg xmlns="http://www.w3.org/2000/svg" xmlns:xlink="http://www.w3.org/1999/xlink" xmlns:lucid="lucid" width="1281.5" height="622"><g transform="translate(-139.5 -59)" lucid:page-tab-id="0_0"><path d="M238.32 220h-76.64c-.88 0-1.68-.76-1.68-1.7v-5.12c0-18.18 11.92-33.43 29.52-37.7.48-.1.88-.05 1.28.17 5.92 3.2 12.48 3.2 18.4 0 .4-.22.8-.26 1.2-.18 17.68 4.28 29.6 19.53 29.6 37.7v5.14c0 .94-.8 1.7-1.68 1.7zm-74.88-3.43h73.12v-3.4c.08-16.35-10.56-30.07-26.32-34.17-3.36 1.65-6.48 2.4-10.24 2.4s-6.88-.7-10.24-2.4c-15.76 4.1-26.4 17.82-26.32 34.18z" stroke="#fff" stroke-opacity="0" fill="#232f3e"/><path d="M200 181.3c-3.67 0-6.8-.8-10.03-2.56-9.95-5.58-13.5-18.2-7.93-28.17 5.58-9.95 18.17-13.5 28.1-7.93 6.72 3.76 10.56 10.33 10.56 18.05 0 7.76-3.92 14.36-10.74 18.04-3.22 1.73-6.32 2.56-9.95 2.56zm0-37.83c-6.6-.17-12.26 3.18-15.44 8.96-4.5 8.38-1.4 18.8 6.94 23.34 5.4 2.93 11.36 2.93 16.77 0 5.7-3.1 9-8.68 8.96-15.2-.04-9.5-7.76-17.14-17.22-17.1z" stroke="#fff" stroke-opacity="0" fill="#232f3e"/><use xlink:href="#a" transform="matrix(1,0,0,1,130,229) translate(43.55 14.4)"/><use xlink:href="#b" transform="matrix(1,0,0,1,130,229) translate(86.45 14.4)"/><path d="M280.5 180.5h819v1h-819z" fill="none"/><path d="M300.72 180.5h20.22m10.12 0h20.22m10.1 0h20.23m10.12 0h20.22m10.12 0h20.22m10.1 0h20.23m10.12 0h20.22m10.12 0h20.22m10.1 0h20.23m10.12 0h20.22m10.12 0h20.22m10.1 0h20.23m10.12 0h20.22m10.12 0h20.22m10.1 0h20.23m10.12 0h20.22m10.12 0h20.22m10.1 0h20.23m10.12 0h20.22m10.12 0h20.22m10.1 0h20.23m10.12 0h20.22m10.12 0h20.22m10.1 0h20.23m10.12 0h20.22m10.12 0h20.22m10.1 0h10.12v1h-10.1m-10.12 0h-20.22m-10.12 0h-20.22m-10.1 0h-20.23m-10.12 0h-20.22m-10.12 0h-20.22m-10.1 0h-20.23m-10.12 0h-20.22m-10.12 0h-20.22m-10.1 0h-20.23m-10.12 0h-20.22m-10.12 0h-20.22m-10.1 0h-20.23m-10.12 0h-20.22m-10.12 0h-20.22m-10.1 0h-20.23m-10.12 0h-20.22m-10.12 0h-20.22m-10.1 0h-20.23m-10.12 0h-20.22m-10.12 0h-20.22m-10.1 0h-20.23m-10.12 0h-20.22m-10.12 0h-20.22m-10.1 0h-20.23m-10.12 0h-20.22m-10.12 0h-20.22m-10.1 0H280.5v-1h10.1" stroke="#000" fill="none"/><path d="M200 400c-14.75 0-30.35-4.08-30.35-11.6v-56.8c0-7.52 15.6-11.6 30.35-11.6 14.7 0 30.35 4.08 30.35 11.6v56.8c0 7.52-15.66 11.6-30.35 11.6zm0-76.56c-16.7 0-26.95 4.72-26.95 8.16v56.8c0 3.36 10.2 8.16 26.95 8.16s26.95-4.72 26.95-8.16v-56.8c0-3.44-10.26-8.16-26.95-8.16z" stroke="#fff" stroke-opacity="0" fill="#232f3e"/><path d="M200 341.53c-14.75 0-30.35-4.07-30.35-11.62h3.4c0 3.4 10.2 8.23 26.95 8.23s26.95-4.78 26.95-8.22h3.4c0 7.56-15.66 11.63-30.35 11.63z" stroke="#fff" stroke-opacity="0" fill="#232f3e"/><use xlink:href="#c" transform="matrix(1,0,0,1,139.64999999999998,409) translate(22.025 14.4)"/><path d="M280.5 360.5h819v1h-819z" fill="none"/><path d="M300.72 360.5h20.22m10.12 0h20.22m10.1 0h20.23m10.12 0h20.22m10.12 0h20.22m10.1 0h20.23m10.12 0h20.22m10.12 0h20.22m10.1 0h20.23m10.12 0h20.22m10.12 0h20.22m10.1 0h20.23m10.12 0h20.22m10.12 0h20.22m10.1 0h20.23m10.12 0h20.22m10.12 0h20.22m10.1 0h20.23m10.12 0h20.22m10.12 0h20.22m10.1 0h20.23m10.12 0h20.22m10.12 0h20.22m10.1 0h20.23m10.12 0h20.22m10.12 0h20.22m10.1 0h10.12v1h-10.1m-10.12 0h-20.22m-10.12 0h-20.22m-10.1 0h-20.23m-10.12 0h-20.22m-10.12 0h-20.22m-10.1 0h-20.23m-10.12 0h-20.22m-10.12 0h-20.22m-10.1 0h-20.23m-10.12 0h-20.22m-10.12 0h-20.22m-10.1 0h-20.23m-10.12 0h-20.22m-10.12 0h-20.22m-10.1 0h-20.23m-10.12 0h-20.22m-10.12 0h-20.22m-10.1 0h-20.23m-10.12 0h-20.22m-10.12 0h-20.22m-10.1 0h-20.23m-10.12 0h-20.22m-10.12 0h-20.22m-10.1 0h-20.23m-10.12 0h-20.22m-10.12 0h-20.22m-10.1 0H280.5v-1h10.1" stroke="#000" fill="none"/><path d="M238.32 580h-76.64c-.88 0-1.68-.76-1.68-1.7v-5.12c0-18.18 11.92-33.43 29.52-37.7.48-.1.88-.05 1.28.17 5.92 3.2 12.48 3.2 18.4 0 .4-.22.8-.26 1.2-.17 17.68 4.27 29.6 19.52 29.6 37.7v5.13c0 .94-.8 1.7-1.68 1.7zm-74.88-3.43h73.12v-3.4c.08-16.35-10.56-30.07-26.32-34.17-3.36 1.64-6.48 2.4-10.24 2.4s-6.88-.7-10.24-2.4c-15.76 4.1-26.4 17.82-26.32 34.18z" stroke="#fff" stroke-opacity="0" fill="#232f3e"/><path d="M200 541.3c-3.67 0-6.8-.78-10.03-2.56-9.95-5.58-13.5-18.2-7.93-28.17 5.58-9.95 18.17-13.5 28.1-7.93 6.72 3.76 10.56 10.33 10.56 18.05 0 7.76-3.92 14.36-10.74 18.04-3.22 1.73-6.32 2.56-9.95 2.56zm0-37.83c-6.6-.17-12.26 3.18-15.44 8.96-4.5 8.4-1.4 18.8 6.94 23.34 5.4 2.93 11.36 2.93 16.77 0 5.7-3.1 9-8.68 8.96-15.2-.04-9.5-7.76-17.14-17.22-17.1z" stroke="#fff" stroke-opacity="0" fill="#232f3e"/><use xlink:href="#a" transform="matrix(1,0,0,1,130,589) translate(43.55 14.4)"/><use xlink:href="#d" transform="matrix(1,0,0,1,130,589) translate(86.45 14.4)"/><path d="M280.5 540.5h819v1h-819z" fill="none"/><path d="M300.72 540.5h20.22m10.12 0h20.22m10.1 0h20.23m10.12 0h20.22m10.12 0h20.22m10.1 0h20.23m10.12 0h20.22m10.12 0h20.22m10.1 0h20.23m10.12 0h20.22m10.12 0h20.22m10.1 0h20.23m10.12 0h20.22m10.12 0h20.22m10.1 0h20.23m10.12 0h20.22m10.12 0h20.22m10.1 0h20.23m10.12 0h20.22m10.12 0h20.22m10.1 0h20.23m10.12 0h20.22m10.12 0h20.22m10.1 0h20.23m10.12 0h20.22m10.12 0h20.22m10.1 0h10.12v1h-10.1m-10.12 0h-20.22m-10.12 0h-20.22m-10.1 0h-20.23m-10.12 0h-20.22m-10.12 0h-20.22m-10.1 0h-20.23m-10.12 0h-20.22m-10.12 0h-20.22m-10.1 0h-20.23m-10.12 0h-20.22m-10.12 0h-20.22m-10.1 0h-20.23m-10.12 0h-20.22m-10.12 0h-20.22m-10.1 0h-20.23m-10.12 0h-20.22m-10.12 0h-20.22m-10.1 0h-20.23m-10.12 0h-20.22m-10.12 0h-20.22m-10.1 0h-20.23m-10.12 0h-20.22m-10.12 0h-20.22m-10.1 0h-20.23m-10.12 0h-20.22m-10.12 0h-20.22m-10.1 0H280.5v-1h10.1" stroke="#000" fill="none"/><path d="M340 101.6h300v74.8H340z" stroke="#000" stroke-opacity="0" stroke-width="2" fill="#fff" fill-opacity="0"/><use xlink:href="#e" transform="matrix(1,0,0,1,345,106.60000000000002) translate(0 21.0352)"/><use xlink:href="#f" transform="matrix(1,0,0,1,345,106.60000000000002) translate(48.900000000000006 21.0352)"/><use xlink:href="#g" transform="matrix(1,0,0,1,345,106.60000000000002) translate(82.85000000000001 21.0352)"/><use xlink:href="#h" transform="matrix(1,0,0,1,345,106.60000000000002) translate(0 42.635200000000005)"/><use xlink:href="#i" transform="matrix(1,0,0,1,345,106.60000000000002) translate(107.75000000000001 42.635200000000005)"/><use xlink:href="#j" transform="matrix(1,0,0,1,345,106.60000000000002) translate(155.4 42.635200000000005)"/><use xlink:href="#k" transform="matrix(1,0,0,1,345,106.60000000000002) translate(0 64.2352)"/><use xlink:href="#l" transform="matrix(1,0,0,1,345,106.60000000000002) translate(56.95 64.2352)"/><use xlink:href="#m" transform="matrix(1,0,0,1,345,106.60000000000002) translate(82.9 64.2352)"/><use xlink:href="#n" transform="matrix(1,0,0,1,345,106.60000000000002) translate(140.55 64.2352)"/><path d="M352.8 183.5V360h76.86V202.62" stroke="#000" stroke-width="3" fill="none"/><path d="M354.3 183.54h-3V182h3zm0-3.54h-3v-1h3z" stroke="#000" stroke-width=".05"/><path d="M429.66 186.85l4.64 14.27h-9.28z" stroke="#000" stroke-width="3"/><use xlink:href="#o" transform="matrix(1,0,0,1,437.6607764058856,246.40954780641437) translate(0 14.4)"/><path d="M440 542h220v118H440z" stroke="#000" stroke-opacity="0" stroke-width="2" fill="#fff" fill-opacity="0"/><use xlink:href="#p" transform="matrix(1,0,0,1,445,547) translate(0 14.4)"/><use xlink:href="#i" transform="matrix(1,0,0,1,445,547) translate(51.95 14.4)"/><use xlink:href="#q" transform="matrix(1,0,0,1,445,547) translate(99.6 14.4)"/><use xlink:href="#r" transform="matrix(1,0,0,1,445,547) translate(0 36)"/><use xlink:href="#g" transform="matrix(1,0,0,1,445,547) translate(40.9 36)"/><use xlink:href="#s" transform="matrix(1,0,0,1,445,547) translate(0 57.6)"/><use xlink:href="#t" transform="matrix(1,0,0,1,445,547) translate(53.900000000000006 57.6)"/><use xlink:href="#u" transform="matrix(1,0,0,1,445,547) translate(150.7 57.6)"/><use xlink:href="#v" transform="matrix(1,0,0,1,445,547) translate(166.2 57.6)"/><use xlink:href="#w" transform="matrix(1,0,0,1,445,547) translate(0 79.20000000000002)"/><use xlink:href="#x" transform="matrix(1,0,0,1,445,547) translate(36.8 79.20000000000002)"/><path d="M451.34 538.5V360h63.07v159.38" stroke="#000" stroke-width="3" fill="none"/><path d="M452.84 543h-3v-1h3zm0-3h-3v-1.54h3z" stroke="#000" stroke-width=".05"/><path d="M514.4 535.15l-4.63-14.27h9.28z" stroke="#000" stroke-width="3"/><path d="M520 360h120v118H520z" stroke="#000" stroke-opacity="0" stroke-width="2" fill="#fff" fill-opacity="0"/><g><use xlink:href="#y" transform="matrix(1,0,0,1,525,365) translate(0 58.68125)"/><use xlink:href="#z" transform="matrix(1,0,0,1,525,365) translate(68.35 58.68125)"/></g><path d="M695.2 540h300v118h-300z" stroke="#000" stroke-opacity="0" stroke-width="2" fill="#fff" fill-opacity="0"/><g><use xlink:href="#p" transform="matrix(1,0,0,1,700.1999999999999,545) translate(0 14.4)"/><use xlink:href="#A" transform="matrix(1,0,0,1,700.1999999999999,545) translate(51.95 14.4)"/><use xlink:href="#r" transform="matrix(1,0,0,1,700.1999999999999,545) translate(0 36)"/><use xlink:href="#B" transform="matrix(1,0,0,1,700.1999999999999,545) translate(40.9 36)"/><use xlink:href="#s" transform="matrix(1,0,0,1,700.1999999999999,545) translate(0 57.6)"/><use xlink:href="#t" transform="matrix(1,0,0,1,700.1999999999999,545) translate(53.900000000000006 57.6)"/><use xlink:href="#u" transform="matrix(1,0,0,1,700.1999999999999,545) translate(150.7 57.6)"/><use xlink:href="#d" transform="matrix(1,0,0,1,700.1999999999999,545) translate(166.2 57.6)"/></g><path d="M700.25 538.5V360h60.26v159.38" stroke="#000" stroke-width="3" fill="none"/><path d="M701.75 543h-3v-1h3zm0-3h-3v-1.54h3z" stroke="#000" stroke-width=".05"/><path d="M760.5 535.15l-4.62-14.27h9.27z" stroke="#000" stroke-width="3"/><path d="M760 360h40v118h-40z" stroke="#000" stroke-opacity="0" stroke-width="2" fill="#fff" fill-opacity="0"/><g><use xlink:href="#C" transform="matrix(1,0,0,1,765,365) translate(0 58.68125)"/></g><path d="M820 80h300v96.4H820z" stroke="#000" stroke-opacity="0" stroke-width="2" fill="#fff" fill-opacity="0"/><g><use xlink:href="#D" transform="matrix(1,0,0,1,825,85) translate(0 43.7016)"/><use xlink:href="#E" transform="matrix(1,0,0,1,825,85) translate(60 43.7016)"/><use xlink:href="#F" transform="matrix(1,0,0,1,825,85) translate(0 65.30160000000001)"/><use xlink:href="#G" transform="matrix(1,0,0,1,825,85) translate(29 65.30160000000001)"/><use xlink:href="#u" transform="matrix(1,0,0,1,825,85) translate(89.95 65.30160000000001)"/><use xlink:href="#G" transform="matrix(1,0,0,1,825,85) translate(105.45 65.30160000000001)"/><use xlink:href="#H" transform="matrix(1,0,0,1,825,85) translate(166.4 65.30160000000001)"/><use xlink:href="#I" transform="matrix(1,0,0,1,825,85) translate(181.9 65.30160000000001)"/><use xlink:href="#J" transform="matrix(1,0,0,1,825,85) translate(0 86.9016)"/><use xlink:href="#t" transform="matrix(1,0,0,1,825,85) translate(53.900000000000006 86.9016)"/><use xlink:href="#u" transform="matrix(1,0,0,1,825,85) translate(150.7 86.9016)"/><use xlink:href="#d" transform="matrix(1,0,0,1,825,85) translate(166.2 86.9016)"/></g><path d="M832.26 183.5V362h91.84V202.62" stroke="#000" stroke-width="3" fill="none"/><path d="M833.76 183.54h-3V182h3zm0-3.54h-3v-1h3z" stroke="#000" stroke-width=".05"/><path d="M924.1 186.85l4.63 14.27h-9.27z" stroke="#000" stroke-width="3"/><g><use xlink:href="#o" transform="matrix(1,0,0,1,932.0948856625994,249.3278761838526) translate(0 14.4)"/></g><path d="M1160 320h240v139.24h-240z" stroke="#000" stroke-opacity="0" stroke-width="2" fill="#fff" fill-opacity="0"/><g><use xlink:href="#K" transform="matrix(1,0,0,1,1165,325) translate(0 21.222)"/><use xlink:href="#L" transform="matrix(1,0,0,1,1165,325) translate(68.094 21.222)"/><use xlink:href="#M" transform="matrix(1,0,0,1,1165,325) translate(0 47.07000000000001)"/><use xlink:href="#N" transform="matrix(1,0,0,1,1165,325) translate(150.03 47.07000000000001)"/><use xlink:href="#O" transform="matrix(1,0,0,1,1165,325) translate(0 72.918)"/><use xlink:href="#P" transform="matrix(1,0,0,1,1165,325) translate(73.854 72.918)"/><use xlink:href="#Q" transform="matrix(1,0,0,1,1165,325) translate(140.32799999999997 72.918)"/><use xlink:href="#R" transform="matrix(1,0,0,1,1165,325) translate(0 98.76600000000002)"/><use xlink:href="#S" transform="matrix(1,0,0,1,1165,325) translate(27.45 98.76600000000002)"/><use xlink:href="#T" transform="matrix(1,0,0,1,1165,325) translate(0 124.614)"/><use xlink:href="#U" transform="matrix(1,0,0,1,1165,325) translate(74.268 124.614)"/><use xlink:href="#V" transform="matrix(1,0,0,1,1165,325) translate(111.276 124.614)"/><use xlink:href="#W" transform="matrix(1,0,0,1,1165,325) translate(163.70999999999998 124.614)"/></g><path d="M1159 389.64l-12.08.25-11.96.74-11.08 1.16-10.4 1.53-9.87 1.9-9.52 2.22-9.37 2.62-9.4 3.06-9.82 3.65-10.87 4.58-14.27 6.75-41.24 20.67-7.57 3.2-2.2.8-2.26.75-2.37.66-2.5.58-2.62.5-2.8.43-3.04.3-3.3.2-3.68.1-4.14-.1-4.8-.3-5.74-.6-7.3-1.08-10.52-2-81.33-18.57-14.97-2.2-13.47-1.42-6-.37" stroke="#979ea8" stroke-width="2" stroke-linejoin="round" fill="none"/><path d="M1160 390.62l-1 .02-.05-2 1.05-.02z" stroke="#979ea8" stroke-width=".05" fill="#979ea8"/><path d="M803.23 419.1l14.43-4.1-.33 9.25z" stroke="#979ea8" stroke-width="2" fill="#979ea8"/><defs><path d="M232-93c-1 65-40 97-104 97C67 4 28-28 28-90v-158h33c8 89-33 224 67 224 102 0 64-133 71-224h33v155" id="X"/><path d="M135-143c-3-34-86-38-87 0 15 53 115 12 119 90S17 21 10-45l28-5c4 36 97 45 98 0-10-56-113-15-118-90-4-57 82-63 122-42 12 7 21 19 24 35" id="Y"/><path d="M100-194c63 0 86 42 84 106H49c0 40 14 67 53 68 26 1 43-12 49-29l28 8c-11 28-37 45-77 45C44 4 14-33 15-96c1-61 26-98 85-98zm52 81c6-60-76-77-97-28-3 7-6 17-6 28h103" id="Z"/><path d="M114-163C36-179 61-72 57 0H25l-1-190h30c1 12-1 29 2 39 6-27 23-49 58-41v29" id="aa"/><g id="a"><use transform="matrix(0.05,0,0,0.05,0,0)" xlink:href="#X"/><use transform="matrix(0.05,0,0,0.05,12.950000000000001,0)" xlink:href="#Y"/><use transform="matrix(0.05,0,0,0.05,21.950000000000003,0)" xlink:href="#Z"/><use transform="matrix(0.05,0,0,0.05,31.950000000000003,0)" xlink:href="#aa"/></g><path d="M27 0v-27h64v-190l-56 39v-29l58-41h29v221h61V0H27" id="ab"/><use transform="matrix(0.05,0,0,0.05,0,0)" xlink:href="#ab" id="b"/><path d="M30-248c118-7 216 8 213 122C240-48 200 0 122 0H30v-248zM63-27c89 8 146-16 146-99s-60-101-146-95v194" id="ac"/><path d="M141-36C126-15 110 5 73 4 37 3 15-17 15-53c-1-64 63-63 125-63 3-35-9-54-41-54-24 1-41 7-42 31l-33-3c5-37 33-52 76-52 45 0 72 20 72 64v82c-1 20 7 32 28 27v20c-31 9-61-2-59-35zM48-53c0 20 12 33 32 33 41-3 63-29 60-74-43 2-92-5-92 41" id="ad"/><path d="M59-47c-2 24 18 29 38 22v24C64 9 27 4 27-40v-127H5v-23h24l9-43h21v43h35v23H59v120" id="ae"/><path d="M115-194c53 0 69 39 70 98 0 66-23 100-70 100C84 3 66-7 56-30L54 0H23l1-261h32v101c10-23 28-34 59-34zm-8 174c40 0 45-34 45-75 0-40-5-75-45-74-42 0-51 32-51 76 0 43 10 73 51 73" id="af"/><g id="c"><use transform="matrix(0.05,0,0,0.05,0,0)" xlink:href="#ac"/><use transform="matrix(0.05,0,0,0.05,12.950000000000001,0)" xlink:href="#ad"/><use transform="matrix(0.05,0,0,0.05,22.950000000000003,0)" xlink:href="#ae"/><use transform="matrix(0.05,0,0,0.05,27.950000000000003,0)" xlink:href="#ad"/><use transform="matrix(0.05,0,0,0.05,37.95,0)" xlink:href="#af"/><use transform="matrix(0.05,0,0,0.05,47.95,0)" xlink:href="#ad"/><use transform="matrix(0.05,0,0,0.05,57.95,0)" xlink:href="#Y"/><use transform="matrix(0.05,0,0,0.05,66.95,0)" xlink:href="#Z"/></g><path d="M101-251c82-7 93 87 43 132L82-64C71-53 59-42 53-27h129V0H18c2-99 128-94 128-182 0-28-16-43-45-43s-46 15-49 41l-32-3c6-41 34-60 81-64" id="ag"/><use transform="matrix(0.05,0,0,0.05,0,0)" xlink:href="#ag" id="d"/><path d="M24-231v-30h32v30H24zM24 0v-190h32V0H24" id="ah"/><path d="M117-194c89-4 53 116 60 194h-32v-121c0-31-8-49-39-48C34-167 62-67 57 0H25l-1-190h30c1 10-1 24 2 32 11-22 29-35 61-36" id="ai"/><g id="e"><use transform="matrix(0.05,0,0,0.05,0,0)" xlink:href="#ah"/><use transform="matrix(0.05,0,0,0.05,3.95,0)" xlink:href="#ai"/><use transform="matrix(0.05,0,0,0.05,13.949999999999998,0)" xlink:href="#Y"/><use transform="matrix(0.05,0,0,0.05,22.95,0)" xlink:href="#Z"/><use transform="matrix(0.05,0,0,0.05,32.95,0)" xlink:href="#aa"/><use transform="matrix(0.05,0,0,0.05,38.900000000000006,0)" xlink:href="#ae"/></g><path d="M100-194c62-1 85 37 85 99 1 63-27 99-86 99S16-35 15-95c0-66 28-99 85-99zM99-20c44 1 53-31 53-75 0-43-8-75-51-75s-53 32-53 75 10 74 51 75" id="aj"/><g id="f"><use transform="matrix(0.05,0,0,0.05,0,0)" xlink:href="#ah"/><use transform="matrix(0.05,0,0,0.05,3.95,0)" xlink:href="#ai"/><use transform="matrix(0.05,0,0,0.05,13.949999999999998,0)" xlink:href="#ae"/><use transform="matrix(0.05,0,0,0.05,18.95,0)" xlink:href="#aj"/></g><path d="M210-169c-67 3-38 105-44 169h-31v-121c0-29-5-50-35-48C34-165 62-65 56 0H25l-1-190h30c1 10-1 24 2 32 10-44 99-50 107 0 11-21 27-35 58-36 85-2 47 119 55 194h-31v-121c0-29-5-49-35-48" id="ak"/><path d="M24 0v-261h32V0H24" id="al"/><g id="g"><use transform="matrix(0.05,0,0,0.05,0,0)" xlink:href="#Z"/><use transform="matrix(0.05,0,0,0.05,10,0)" xlink:href="#ak"/><use transform="matrix(0.05,0,0,0.05,24.950000000000003,0)" xlink:href="#ad"/><use transform="matrix(0.05,0,0,0.05,34.95,0)" xlink:href="#ah"/><use transform="matrix(0.05,0,0,0.05,38.900000000000006,0)" xlink:href="#al"/><use transform="matrix(0.05,0,0,0.05,42.85000000000001,0)" xlink:href="#Y"/></g><path d="M87 75C49 33 22-17 22-94c0-76 28-126 65-167h31c-38 41-64 92-64 168S80 34 118 75H87" id="am"/><path d="M96-169c-40 0-48 33-48 73s9 75 48 75c24 0 41-14 43-38l32 2c-6 37-31 61-74 61-59 0-76-41-82-99-10-93 101-131 147-64 4 7 5 14 7 22l-32 3c-4-21-16-35-41-35" id="an"/><path d="M115-194c55 1 70 41 70 98S169 2 115 4C84 4 66-9 55-30l1 105H24l-1-265h31l2 30c10-21 28-34 59-34zm-8 174c40 0 45-34 45-75s-6-73-45-74c-42 0-51 32-51 76 0 43 10 73 51 73" id="ao"/><path d="M-5 72V49h209v23H-5" id="ap"/><path d="M85-194c31 0 48 13 60 33l-1-100h32l1 261h-30c-2-10 0-23-3-31C134-8 116 4 85 4 32 4 16-35 15-94c0-66 23-100 70-100zm9 24c-40 0-46 34-46 75 0 40 6 74 45 74 42 0 51-32 51-76 0-42-9-74-50-73" id="aq"/><path d="M68-38c1 34 0 65-14 84H32c9-13 17-26 17-46H33v-38h35" id="ar"/><g id="h"><use transform="matrix(0.05,0,0,0.05,0,0)" xlink:href="#am"/><use transform="matrix(0.05,0,0,0.05,5.95,0)" xlink:href="#aa"/><use transform="matrix(0.05,0,0,0.05,11.9,0)" xlink:href="#Z"/><use transform="matrix(0.05,0,0,0.05,21.9,0)" xlink:href="#an"/><use transform="matrix(0.05,0,0,0.05,30.899999999999995,0)" xlink:href="#ah"/><use transform="matrix(0.05,0,0,0.05,34.85,0)" xlink:href="#ao"/><use transform="matrix(0.05,0,0,0.05,44.85,0)" xlink:href="#ah"/><use transform="matrix(0.05,0,0,0.05,48.800000000000004,0)" xlink:href="#Z"/><use transform="matrix(0.05,0,0,0.05,58.800000000000004,0)" xlink:href="#ai"/><use transform="matrix(0.05,0,0,0.05,68.80000000000001,0)" xlink:href="#ae"/><use transform="matrix(0.05,0,0,0.05,73.80000000000001,0)" xlink:href="#ap"/><use transform="matrix(0.05,0,0,0.05,83.80000000000001,0)" xlink:href="#ah"/><use transform="matrix(0.05,0,0,0.05,87.75000000000001,0)" xlink:href="#aq"/><use transform="matrix(0.05,0,0,0.05,97.75000000000001,0)" xlink:href="#ar"/></g><path d="M179-190L93 31C79 59 56 82 12 73V49c39 6 53-20 64-50L1-190h34L92-34l54-156h33" id="as"/><g id="i"><use transform="matrix(0.05,0,0,0.05,0,0)" xlink:href="#af"/><use transform="matrix(0.05,0,0,0.05,10,0)" xlink:href="#aj"/><use transform="matrix(0.05,0,0,0.05,20,0)" xlink:href="#aq"/><use transform="matrix(0.05,0,0,0.05,30,0)" xlink:href="#as"/><use transform="matrix(0.05,0,0,0.05,37.65,0)" xlink:href="#ar"/></g><path d="M84 4C-5 8 30-112 23-190h32v120c0 31 7 50 39 49 72-2 45-101 50-169h31l1 190h-30c-1-10 1-25-2-33-11 22-28 36-60 37" id="at"/><path d="M101-234c-31-9-42 10-38 44h38v23H63V0H32v-167H5v-23h27c-7-52 17-82 69-68v24" id="au"/><path d="M177-190C167-65 218 103 67 71c-23-6-38-20-44-43l32-5c15 47 100 32 89-28v-30C133-14 115 1 83 1 29 1 15-40 15-95c0-56 16-97 71-98 29-1 48 16 59 35 1-10 0-23 2-32h30zM94-22c36 0 50-32 50-73 0-42-14-75-50-75-39 0-46 34-46 75s6 73 46 73" id="av"/><path d="M33-261c38 41 65 92 65 168S71 34 33 75H2C39 34 66-17 66-93S39-220 2-261h31" id="aw"/><g id="j"><use transform="matrix(0.05,0,0,0.05,0,0)" xlink:href="#at"/><use transform="matrix(0.05,0,0,0.05,10,0)" xlink:href="#ai"/><use transform="matrix(0.05,0,0,0.05,20,0)" xlink:href="#aa"/><use transform="matrix(0.05,0,0,0.05,25.950000000000003,0)" xlink:href="#Z"/><use transform="matrix(0.05,0,0,0.05,35.95,0)" xlink:href="#ad"/><use transform="matrix(0.05,0,0,0.05,45.95,0)" xlink:href="#aq"/><use transform="matrix(0.05,0,0,0.05,55.95,0)" xlink:href="#ap"/><use transform="matrix(0.05,0,0,0.05,65.95,0)" xlink:href="#au"/><use transform="matrix(0.05,0,0,0.05,70.95,0)" xlink:href="#al"/><use transform="matrix(0.05,0,0,0.05,74.9,0)" xlink:href="#ad"/><use transform="matrix(0.05,0,0,0.05,84.9,0)" xlink:href="#av"/><use transform="matrix(0.05,0,0,0.05,94.9,0)" xlink:href="#aw"/></g><path d="M108 0H70L1-190h34L89-25l56-165h34" id="ax"/><g id="k"><use transform="matrix(0.05,0,0,0.05,0,0)" xlink:href="#ax"/><use transform="matrix(0.05,0,0,0.05,9,0)" xlink:href="#ad"/><use transform="matrix(0.05,0,0,0.05,19,0)" xlink:href="#al"/><use transform="matrix(0.05,0,0,0.05,22.95,0)" xlink:href="#at"/><use transform="matrix(0.05,0,0,0.05,32.95,0)" xlink:href="#Z"/><use transform="matrix(0.05,0,0,0.05,42.95,0)" xlink:href="#Y"/></g><g id="l"><use transform="matrix(0.05,0,0,0.05,0,0)" xlink:href="#am"/><use transform="matrix(0.05,0,0,0.05,5.95,0)" xlink:href="#ag"/><use transform="matrix(0.05,0,0,0.05,15.949999999999998,0)" xlink:href="#ar"/></g><path d="M47-170H22l-4-78h33" id="ay"/><path d="M197 0v-115H63V0H30v-248h33v105h134v-105h34V0h-34" id="az"/><g id="m"><use transform="matrix(0.05,0,0,0.05,0,0)" xlink:href="#ay"/><use transform="matrix(0.05,0,0,0.05,3.4000000000000004,0)" xlink:href="#az"/><use transform="matrix(0.05,0,0,0.05,16.35,0)" xlink:href="#Z"/><use transform="matrix(0.05,0,0,0.05,26.35,0)" xlink:href="#al"/><use transform="matrix(0.05,0,0,0.05,30.3,0)" xlink:href="#al"/><use transform="matrix(0.05,0,0,0.05,34.25,0)" xlink:href="#aj"/><use transform="matrix(0.05,0,0,0.05,44.25,0)" xlink:href="#ay"/><use transform="matrix(0.05,0,0,0.05,47.65,0)" xlink:href="#ar"/></g><g id="n"><use transform="matrix(0.05,0,0,0.05,0,0)" xlink:href="#ae"/><use transform="matrix(0.05,0,0,0.05,5,0)" xlink:href="#aa"/><use transform="matrix(0.05,0,0,0.05,10.95,0)" xlink:href="#at"/><use transform="matrix(0.05,0,0,0.05,20.95,0)" xlink:href="#Z"/><use transform="matrix(0.05,0,0,0.05,30.950000000000003,0)" xlink:href="#aw"/></g><path d="M140-251c80 0 125 45 125 126S219 4 139 4C58 4 15-44 15-125s44-126 125-126zm-1 214c52 0 73-35 73-88 0-50-21-86-72-86-52 0-73 35-73 86s22 88 72 88" id="aA"/><path d="M195 0l-88-114-31 24V0H24v-248h52v113l112-113h60L142-143 257 0h-62" id="aB"/><g id="o"><use transform="matrix(0.05,0,0,0.05,0,0)" xlink:href="#aA"/><use transform="matrix(0.05,0,0,0.05,14,0)" xlink:href="#aB"/></g><g id="p"><use transform="matrix(0.05,0,0,0.05,0,0)" xlink:href="#Y"/><use transform="matrix(0.05,0,0,0.05,9,0)" xlink:href="#Z"/><use transform="matrix(0.05,0,0,0.05,19,0)" xlink:href="#al"/><use transform="matrix(0.05,0,0,0.05,22.95,0)" xlink:href="#Z"/><use transform="matrix(0.05,0,0,0.05,32.95,0)" xlink:href="#an"/><use transform="matrix(0.05,0,0,0.05,41.95,0)" xlink:href="#ae"/></g><g id="q"><use transform="matrix(0.05,0,0,0.05,0,0)" xlink:href="#at"/><use transform="matrix(0.05,0,0,0.05,10,0)" xlink:href="#ai"/><use transform="matrix(0.05,0,0,0.05,20,0)" xlink:href="#aa"/><use transform="matrix(0.05,0,0,0.05,25.950000000000003,0)" xlink:href="#Z"/><use transform="matrix(0.05,0,0,0.05,35.95,0)" xlink:href="#ad"/><use transform="matrix(0.05,0,0,0.05,45.95,0)" xlink:href="#aq"/><use transform="matrix(0.05,0,0,0.05,55.95,0)" xlink:href="#ap"/><use transform="matrix(0.05,0,0,0.05,65.95,0)" xlink:href="#au"/><use transform="matrix(0.05,0,0,0.05,70.95,0)" xlink:href="#al"/><use transform="matrix(0.05,0,0,0.05,74.9,0)" xlink:href="#ad"/><use transform="matrix(0.05,0,0,0.05,84.9,0)" xlink:href="#av"/></g><g id="r"><use transform="matrix(0.05,0,0,0.05,0,0)" xlink:href="#au"/><use transform="matrix(0.05,0,0,0.05,5,0)" xlink:href="#aa"/><use transform="matrix(0.05,0,0,0.05,10.95,0)" xlink:href="#aj"/><use transform="matrix(0.05,0,0,0.05,20.95,0)" xlink:href="#ak"/></g><path d="M206 0h-36l-40-164L89 0H53L-1-190h32L70-26l43-164h34l41 164 42-164h31" id="aC"/><path d="M106-169C34-169 62-67 57 0H25v-261h32l-1 103c12-21 28-36 61-36 89 0 53 116 60 194h-32v-121c2-32-8-49-39-48" id="aD"/><g id="s"><use transform="matrix(0.05,0,0,0.05,0,0)" xlink:href="#aC"/><use transform="matrix(0.05,0,0,0.05,12.950000000000001,0)" xlink:href="#aD"/><use transform="matrix(0.05,0,0,0.05,22.950000000000003,0)" xlink:href="#Z"/><use transform="matrix(0.05,0,0,0.05,32.95,0)" xlink:href="#aa"/><use transform="matrix(0.05,0,0,0.05,38.900000000000006,0)" xlink:href="#Z"/></g><g id="t"><use transform="matrix(0.05,0,0,0.05,0,0)" xlink:href="#aa"/><use transform="matrix(0.05,0,0,0.05,5.95,0)" xlink:href="#Z"/><use transform="matrix(0.05,0,0,0.05,15.949999999999998,0)" xlink:href="#an"/><use transform="matrix(0.05,0,0,0.05,24.95,0)" xlink:href="#ah"/><use transform="matrix(0.05,0,0,0.05,28.899999999999995,0)" xlink:href="#ao"/><use transform="matrix(0.05,0,0,0.05,38.9,0)" xlink:href="#ah"/><use transform="matrix(0.05,0,0,0.05,42.85,0)" xlink:href="#Z"/><use transform="matrix(0.05,0,0,0.05,52.85,0)" xlink:href="#ai"/><use transform="matrix(0.05,0,0,0.05,62.85,0)" xlink:href="#ae"/><use transform="matrix(0.05,0,0,0.05,67.85,0)" xlink:href="#ap"/><use transform="matrix(0.05,0,0,0.05,77.85,0)" xlink:href="#ah"/><use transform="matrix(0.05,0,0,0.05,81.8,0)" xlink:href="#aq"/></g><path d="M18-150v-26h174v26H18zm0 90v-26h174v26H18" id="aE"/><use transform="matrix(0.05,0,0,0.05,0,0)" xlink:href="#aE" id="u"/><use transform="matrix(0.05,0,0,0.05,0,0)" xlink:href="#ag" id="v"/><g id="w"><use transform="matrix(0.05,0,0,0.05,0,0)" xlink:href="#al"/><use transform="matrix(0.05,0,0,0.05,3.95,0)" xlink:href="#ah"/><use transform="matrix(0.05,0,0,0.05,7.9,0)" xlink:href="#ak"/><use transform="matrix(0.05,0,0,0.05,22.85,0)" xlink:href="#ah"/><use transform="matrix(0.05,0,0,0.05,26.8,0)" xlink:href="#ae"/></g><path d="M54-142c48-35 137-8 131 61C196 18 31 33 14-55l32-4c7 23 22 37 52 37 35-1 51-22 54-58 4-55-73-65-99-34H22l8-134h141v27H59" id="aF"/><path d="M101-251c68 0 85 55 85 127S166 4 100 4C33 4 14-52 14-124c0-73 17-127 87-127zm-1 229c47 0 54-49 54-102s-4-102-53-102c-51 0-55 48-55 102 0 53 5 102 54 102" id="aG"/><g id="x"><use transform="matrix(0.05,0,0,0.05,0,0)" xlink:href="#aF"/><use transform="matrix(0.05,0,0,0.05,10,0)" xlink:href="#aG"/></g><path d="M67-93c0 74 22 123 53 168H70C40 30 18-18 18-93s22-123 52-168h50c-32 44-53 94-53 168" id="aH"/><path d="M62-158H24l-5-90h48" id="aI"/><path d="M186 0v-106H76V0H24v-248h52v99h110v-99h50V0h-50" id="aJ"/><path d="M185-48c-13 30-37 53-82 52C43 2 14-33 14-96s30-98 90-98c62 0 83 45 84 108H66c0 31 8 55 39 56 18 0 30-7 34-22zm-45-69c5-46-57-63-70-21-2 6-4 13-4 21h74" id="aK"/><path d="M25 0v-261h50V0H25" id="aL"/><path d="M110-194c64 0 96 36 96 99 0 64-35 99-97 99-61 0-95-36-95-99 0-62 34-99 96-99zm-1 164c35 0 45-28 45-65 0-40-10-65-43-65-34 0-45 26-45 65 0 36 10 65 43 65" id="aM"/><path d="M76-54c-1 42 2 86-19 110H24C36 42 46 24 48 0H25v-54h51" id="aN"/><g id="y"><use transform="matrix(0.05,0,0,0.05,0,0)" xlink:href="#aH"/><use transform="matrix(0.05,0,0,0.05,5.95,0)" xlink:href="#aI"/><use transform="matrix(0.05,0,0,0.05,10.2,0)" xlink:href="#aJ"/><use transform="matrix(0.05,0,0,0.05,23.15,0)" xlink:href="#aK"/><use transform="matrix(0.05,0,0,0.05,33.15,0)" xlink:href="#aL"/><use transform="matrix(0.05,0,0,0.05,38.15,0)" xlink:href="#aL"/><use transform="matrix(0.05,0,0,0.05,43.15,0)" xlink:href="#aM"/><use transform="matrix(0.05,0,0,0.05,54.1,0)" xlink:href="#aI"/><use transform="matrix(0.05,0,0,0.05,58.35,0)" xlink:href="#aN"/></g><path d="M115-3C79 11 28 4 28-45v-112H4v-33h27l15-45h31v45h36v33H77v99c-1 23 16 31 38 25v30" id="aO"/><path d="M135-150c-39-12-60 13-60 57V0H25l-1-190h47c2 13-1 29 3 40 6-28 27-53 61-41v41" id="aP"/><path d="M85 4C-2 5 27-109 22-190h50c7 57-23 150 33 157 60-5 35-97 40-157h50l1 190h-47c-2-12 1-28-3-38-12 25-28 42-61 42" id="aQ"/><path d="M102-93c0 74-22 123-52 168H0C30 29 54-18 53-93c0-74-22-123-53-168h50c30 45 52 94 52 168" id="aR"/><g id="z"><use transform="matrix(0.05,0,0,0.05,0,0)" xlink:href="#aO"/><use transform="matrix(0.05,0,0,0.05,5.95,0)" xlink:href="#aP"/><use transform="matrix(0.05,0,0,0.05,12.949999999999998,0)" xlink:href="#aQ"/><use transform="matrix(0.05,0,0,0.05,23.9,0)" xlink:href="#aK"/><use transform="matrix(0.05,0,0,0.05,33.9,0)" xlink:href="#aR"/></g><g id="A"><use transform="matrix(0.05,0,0,0.05,0,0)" xlink:href="#at"/><use transform="matrix(0.05,0,0,0.05,10,0)" xlink:href="#aa"/><use transform="matrix(0.05,0,0,0.05,15.949999999999998,0)" xlink:href="#Z"/><use transform="matrix(0.05,0,0,0.05,25.950000000000003,0)" xlink:href="#ad"/><use transform="matrix(0.05,0,0,0.05,35.95,0)" xlink:href="#aq"/><use transform="matrix(0.05,0,0,0.05,45.95,0)" xlink:href="#ap"/><use transform="matrix(0.05,0,0,0.05,55.95,0)" xlink:href="#an"/><use transform="matrix(0.05,0,0,0.05,64.95,0)" xlink:href="#aj"/><use transform="matrix(0.05,0,0,0.05,74.95,0)" xlink:href="#at"/><use transform="matrix(0.05,0,0,0.05,84.95,0)" xlink:href="#ai"/><use transform="matrix(0.05,0,0,0.05,94.95,0)" xlink:href="#ae"/></g><path d="M141 0L90-78 38 0H4l68-98-65-92h35l48 74 47-74h35l-64 92 68 98h-35" id="aS"/><g id="B"><use transform="matrix(0.05,0,0,0.05,0,0)" xlink:href="#ak"/><use transform="matrix(0.05,0,0,0.05,14.950000000000001,0)" xlink:href="#ad"/><use transform="matrix(0.05,0,0,0.05,24.950000000000003,0)" xlink:href="#ah"/><use transform="matrix(0.05,0,0,0.05,28.900000000000002,0)" xlink:href="#al"/><use transform="matrix(0.05,0,0,0.05,32.85,0)" xlink:href="#af"/><use transform="matrix(0.05,0,0,0.05,42.85,0)" xlink:href="#aj"/><use transform="matrix(0.05,0,0,0.05,52.85,0)" xlink:href="#aS"/><use transform="matrix(0.05,0,0,0.05,61.85,0)" xlink:href="#Z"/><use transform="matrix(0.05,0,0,0.05,71.85,0)" xlink:href="#Y"/></g><path d="M101-251c68 0 84 54 84 127C185-50 166 4 99 4S15-52 14-124c-1-75 17-127 87-127zm-1 216c37-5 36-46 36-89s4-89-36-89c-39 0-36 45-36 89 0 43-3 85 36 89" id="aT"/><use transform="matrix(0.05,0,0,0.05,0,0)" xlink:href="#aT" id="C"/><g id="D"><use transform="matrix(0.05,0,0,0.05,0,0)" xlink:href="#at"/><use transform="matrix(0.05,0,0,0.05,10,0)" xlink:href="#ao"/><use transform="matrix(0.05,0,0,0.05,20,0)" xlink:href="#aq"/><use transform="matrix(0.05,0,0,0.05,30,0)" xlink:href="#ad"/><use transform="matrix(0.05,0,0,0.05,40,0)" xlink:href="#ae"/><use transform="matrix(0.05,0,0,0.05,45,0)" xlink:href="#Z"/></g><g id="E"><use transform="matrix(0.05,0,0,0.05,0,0)" xlink:href="#ak"/><use transform="matrix(0.05,0,0,0.05,14.950000000000001,0)" xlink:href="#ad"/><use transform="matrix(0.05,0,0,0.05,24.950000000000003,0)" xlink:href="#ah"/><use transform="matrix(0.05,0,0,0.05,28.900000000000002,0)" xlink:href="#al"/><use transform="matrix(0.05,0,0,0.05,32.85,0)" xlink:href="#af"/><use transform="matrix(0.05,0,0,0.05,42.85,0)" xlink:href="#aj"/><use transform="matrix(0.05,0,0,0.05,52.85,0)" xlink:href="#aS"/><use transform="matrix(0.05,0,0,0.05,61.85,0)" xlink:href="#Z"/><use transform="matrix(0.05,0,0,0.05,71.85,0)" xlink:href="#Y"/></g><g id="F"><use transform="matrix(0.05,0,0,0.05,0,0)" xlink:href="#Y"/><use transform="matrix(0.05,0,0,0.05,9,0)" xlink:href="#Z"/><use transform="matrix(0.05,0,0,0.05,19,0)" xlink:href="#ae"/></g><g id="G"><use transform="matrix(0.05,0,0,0.05,0,0)" xlink:href="#at"/><use transform="matrix(0.05,0,0,0.05,10,0)" xlink:href="#ai"/><use transform="matrix(0.05,0,0,0.05,20,0)" xlink:href="#aa"/><use transform="matrix(0.05,0,0,0.05,25.950000000000003,0)" xlink:href="#Z"/><use transform="matrix(0.05,0,0,0.05,35.95,0)" xlink:href="#ad"/><use transform="matrix(0.05,0,0,0.05,45.95,0)" xlink:href="#aq"/></g><path d="M118-107v75H92v-75H18v-26h74v-75h26v75h74v26h-74" id="aU"/><use transform="matrix(0.05,0,0,0.05,0,0)" xlink:href="#aU" id="H"/><use transform="matrix(0.05,0,0,0.05,0,0)" xlink:href="#ab" id="I"/><g id="J"><use transform="matrix(0.05,0,0,0.05,0,0)" xlink:href="#aC"/><use transform="matrix(0.05,0,0,0.05,12.950000000000001,0)" xlink:href="#aD"/><use transform="matrix(0.05,0,0,0.05,22.950000000000003,0)" xlink:href="#Z"/><use transform="matrix(0.05,0,0,0.05,32.95,0)" xlink:href="#aa"/><use transform="matrix(0.05,0,0,0.05,38.900000000000006,0)" xlink:href="#Z"/></g><path fill="#6f7681" d="M521-275c40-33 108-24 108 34 0 49-75 103-210 183-80 47-247 72-323 10-66-54-95-101-82-218 12-106 41-136 91-224 55-96 145-209 240-278 32-23 68-33 107-33 86 2 108 61 107 158 0 55-15 82-44 82-55 1-25-116-79-110-132 15-229 223-291 334-48 86-31 226 81 218 122-9 217-92 295-156" id="aV"/><path fill="#6f7681" d="M44-443c79-191 208-366 448-366 141 0 239 118 267 253 46 222-61 413-213 490-83 42-221 78-338 30-55-23-106-43-129-82-26-14-80-140-57-202 2-41 8-89 22-123zm103 115c1 136 75 191 208 191 130 0 180-50 241-135 38-53 55-111 55-169 0-109-73-236-179-227-143 12-260 151-311 271-9 24-14 47-14 69" id="aW"/><path fill="#6f7681" d="M109-754c29-56 120 5 113 55-24 164-73 311-76 498 0 44 17 66 52 66 44 0 193-39 283-82 16-8 27-24 32-45 27-114 44-316 44-439 0-57 27-86 82-86 38 0 57 27 57 82 0 195-35 406-61 587 5 33 20 94-14 106-8 12-30 10-67-7-15-20-33-39-52-56C437-54 255 2 210 0 80-5 5-44 13-182c11-186 48-366 83-531 3-12 5-27 13-41" id="aX"/><path fill="#6f7681" d="M24-128c0-158-18-313-5-472 6-74-11-192 62-191 78 1 88 68 113 130 59 143 102 191 174 297 50 73 81 109 92 109 8 0 12-3 13-9 24-163 3-322-12-477-6-63 62-76 101-37 65 64 45 212 54 340 10 141 7 304-15 413-8 15-20 23-37 23-76 0-203-132-244-200-33-54-79-109-116-169l4 4c-9-20-41-55-54-51-14 102-5 244 6 344 3 30-15 69-41 68-9 0-28-1-56-3-44-28-39-45-39-119" id="aY"/><path fill="#6f7681" d="M382-556c-3 158-18 304-18 470 0 31 6 72-21 86-20 35-87 21-104-6-1-188 14-367 23-549 1-24 13-80-17-80-77 0-131 31-210 31-15-10-43-18-33-45 0-82 83-94 148-109 103-23 215-12 315-40 43-12 91-17 142-23 62-8 95 53 77 116-8 28-47 14-75 18-68 9-134 10-195 30-32 11-31 60-32 101" id="aZ"/><g id="K"><use transform="matrix(0.018,0,0,0.018,0,0)" xlink:href="#aV"/><use transform="matrix(0.018,0,0,0.018,11.411999999999999,0)" xlink:href="#aW"/><use transform="matrix(0.018,0,0,0.018,25.866,0)" xlink:href="#aX"/><use transform="matrix(0.018,0,0,0.018,39.275999999999996,0)" xlink:href="#aY"/><use transform="matrix(0.018,0,0,0.018,50.39999999999999,0)" xlink:href="#aZ"/></g><path fill="#6f7681" d="M292-638c-67 2-113 14-176 21-81 9-112-68-58-103 132-46 304-52 470-66l65 5c50 52 43 111-50 111-45 0-75 15-112 18-18 16-19 83-24 152-7 108-21 214-33 322-5 46 36 20 67 20 54 0 81-10 139-16 43 25 50 62 23 110-151 29-311 50-490 79C58 24-8 22 3-44c14-83 161-45 224-90 22-16 24-69 29-107 17-126 33-258 36-397" id="ba"/><path fill="#6f7681" d="M371-533c189 0 256 55 239 237-9 91-67 138-157 205C374-33 301-7 236-7 155-7 13-82 18-160c3-44 62-73 96-38 43 44 152 73 218 29 77-51 166-125 156-169 2-44-67-63-119-62-47 1-108 1-155 3C87-393 13-429 1-531c11-87 101-150 165-187 90-52 160-96 290-87 34 2 118 78 115 115-3 35-23 38-55 45-15 4-26-4-33-24-37-64-116-1-164 12-41 11-154 77-154 113 0 15 14 22 41 22 45 0 127-11 165-11" id="bb"/><g id="L"><use transform="matrix(0.018,0,0,0.018,0,0)" xlink:href="#ba"/><use transform="matrix(0.018,0,0,0.018,11.43,0)" xlink:href="#bb"/></g><path fill="#6f7681" d="M292-638c-67 2-113 14-176 21-81 9-112-68-58-103 132-46 304-52 470-66l65 5c50 52 43 111-50 111-45 0-75 15-112 18-18 16-19 83-24 152-7 108-21 214-33 322-5 46 36 20 67 20 54 0 81-10 139-16 43 25 50 62 23 110-151 29-311 50-490 79C58 24-8 22 3-44c14-83 161-45 224-90 22-16 24-69 29-107 17-126 33-258 36-397" id="bc"/><path fill="#6f7681" d="M521-275c40-33 108-24 108 34 0 49-75 103-210 183-80 47-247 72-323 10-66-54-95-101-82-218 12-106 41-136 91-224 55-96 145-209 240-278 32-23 68-33 107-33 86 2 108 61 107 158 0 55-15 82-44 82-55 1-25-116-79-110-132 15-229 223-291 334-48 86-31 226 81 218 122-9 217-92 295-156" id="bd"/><path fill="#6f7681" d="M44-443c79-191 208-366 448-366 141 0 239 118 267 253 46 222-61 413-213 490-83 42-221 78-338 30-55-23-106-43-129-82-26-14-80-140-57-202 2-41 8-89 22-123zm103 115c1 136 75 191 208 191 130 0 180-50 241-135 38-53 55-111 55-169 0-109-73-236-179-227-143 12-260 151-311 271-9 24-14 47-14 69" id="be"/><path fill="#6f7681" d="M24-128c0-158-18-313-5-472 6-74-11-192 62-191 78 1 88 68 113 130 59 143 102 191 174 297 50 73 81 109 92 109 8 0 12-3 13-9 24-163 3-322-12-477-6-63 62-76 101-37 65 64 45 212 54 340 10 141 7 304-15 413-8 15-20 23-37 23-76 0-203-132-244-200-33-54-79-109-116-169l4 4c-9-20-41-55-54-51-14 102-5 244 6 344 3 30-15 69-41 68-9 0-28-1-56-3-44-28-39-45-39-119" id="bf"/><path fill="#6f7681" d="M593-790c58 0 99 54 77 117-5 13-15 16-35 14-70-7-152-3-229 7-31 20-24 81-26 127-4 138-16 277-16 422 0 32 4 70-21 83-26 36-88 7-103-20 1-182 10-346 21-521 2-27 11-81-18-84-73-7-138 11-206 3-20-18-39-18-32-51-3-78 74-91 145-91 129 0 251 6 369-8 25-3 49 2 74 2" id="bg"/><path fill="#6f7681" d="M330-158c82-22 193-18 286-31 38 11 58 81 24 113-25 24-71 25-116 25-135 0-238 34-358 47C61 7 4-52 15-159c12-113 37-213 32-340-2-59 2-121-2-178-2-44 35-62 81-61 104-31 222-52 345-64 68-7 103 34 111 94 2 12-3 22-9 31-33 14-62 15-103 16-100 2-196 10-270 40h-8c-18 23-11 79-15 106-1 13 5 22 16 25 82-10 176-25 264-12 44 7 78 26 71 72-7 49-76 30-125 30-78 0-138 22-210 29-24 1-35 28-36 52-2 41-10 83-8 126-19 84 122 51 181 35" id="bh"/><g id="M"><use transform="matrix(0.018,0,0,0.018,0,0)" xlink:href="#bc"/><use transform="matrix(0.018,0,0,0.018,12.186,0)" xlink:href="#aY"/><use transform="matrix(0.018,0,0,0.018,23.723999999999997,0)" xlink:href="#bd"/><use transform="matrix(0.018,0,0,0.018,35.135999999999996,0)" xlink:href="#be"/><use transform="matrix(0.018,0,0,0.018,49.589999999999996,0)" xlink:href="#bf"/><use transform="matrix(0.018,0,0,0.018,61.12799999999999,0)" xlink:href="#bb"/><use transform="matrix(0.018,0,0,0.018,72.48599999999999,0)" xlink:href="#ba"/><use transform="matrix(0.018,0,0,0.018,83.916,0)" xlink:href="#bb"/><use transform="matrix(0.018,0,0,0.018,95.27399999999999,0)" xlink:href="#bg"/><use transform="matrix(0.018,0,0,0.018,108.216,0)" xlink:href="#bh"/><use transform="matrix(0.018,0,0,0.018,120.204,0)" xlink:href="#bf"/><use transform="matrix(0.018,0,0,0.018,131.742,0)" xlink:href="#bg"/></g><path fill="#6f7681" d="M722-498c18-70 6-160 6-241 0-38 16-57 49-57 55 0 82 64 82 193 1 204-63 347-126 491-54 125-124 110-196 9-30-42-54-91-82-146-27-53-43-79-49-79-8-17-88 136-114 182C269-106 193 9 170-1 96-15 86-47 66-129 33-267 17-480 18-657c0-70 18-105 54-105 39 0 66 36 68 87 4 137-4 277 12 406 12 100 67-12 84-47 47-96 102-197 139-285 18-41 78-38 96-4 52 97 51 251 110 344 50 78 71 31 104-70 17-53 22-108 37-167" id="bi"/><path fill="#6f7681" d="M107-780c100 15 51 176 51 272 0 29 23 25 56 24 33-11 175 4 171-42 9-67 4-153 14-224 12-14 39-57 70-50 51 0 74 34 69 103L490-47c-6 28-25 57-57 56-118-5-54-182-54-299 0-34 3-75-15-85-65 6-127 12-191 19-52 29-23 162-29 239C135-7 87 19 22-30 10-48 7-67 13-88c-16-100 8-215 8-322 0-127-9-364 86-370" id="bj"/><g id="N"><use transform="matrix(0.018,0,0,0.018,0,0)" xlink:href="#bi"/><use transform="matrix(0.018,0,0,0.018,15.623999999999999,0)" xlink:href="#ba"/><use transform="matrix(0.018,0,0,0.018,27.054,0)" xlink:href="#bg"/><use transform="matrix(0.018,0,0,0.018,39.995999999999995,0)" xlink:href="#bj"/></g><path fill="#6f7681" d="M629-645c28 177 9 401 28 582 3 29-18 50-47 50-97 0-67-194-71-306-1-24-4-66-3-92 1-39-15-57-30-33-49 79-88 161-139 243-9 15-21 23-34 23-33 0-70-69-89-115-10-23-57-152-73-152-28 0-27 119-31 162-9 93-16 174-27 265-2 3-35 21-48 20-71-3-50-117-43-176 24-211 38-410 84-595 39-67 121 2 138 59 22 73 63 167 84 249 7 23 13 34 20 34 17 0 54-75 107-225 17-48 42-155 115-96 31 25 52 57 59 103" id="bk"/><path fill="#6f7681" d="M103-24C79 10-2-14 8-59c42-186 129-353 193-524 23-62 63-135 99-197 39-38 106-10 109 47 27 100 51 209 81 307 8 25 72 24 72 63 0 44-26 46-37 75 12 83 46 156 55 243 7 63-106 47-114 11-13-58-36-170-57-231-3-4-7-8-9-14-69 4-134 40-198 52-53 21-53 108-81 160-4 16-8 29-18 43zm215-551c-16 18-92 195-73 208 46 2 100-12 123-31-5-30-32-162-38-171-2-3-6-5-12-6" id="bl"/><path fill="#6f7681" d="M21-302C-7-136 9 24 196-12c147-28 263-93 386-142 57-23 26-120-26-120-111 32-240 115-378 126-13 1-22-26-25-45 30-174 59-350 88-524 10-62-86-124-120-61-39 73-49 196-69 277-19 77-22 145-31 199" id="bm"/><g id="O"><use transform="matrix(0.018,0,0,0.018,0,0)" xlink:href="#bh"/><use transform="matrix(0.018,0,0,0.018,11.988,0)" xlink:href="#bk"/><use transform="matrix(0.018,0,0,0.018,24.083999999999993,0)" xlink:href="#bl"/><use transform="matrix(0.018,0,0,0.018,34.64999999999999,0)" xlink:href="#ba"/><use transform="matrix(0.018,0,0,0.018,46.07999999999999,0)" xlink:href="#bm"/><use transform="matrix(0.018,0,0,0.018,57.149999999999984,0)" xlink:href="#bb"/></g><path fill="#6f7681" d="M68-174c-8-157-1-333-1-488 0-23-21-28-12-60 24-87 141-85 256-77 161 12 317 42 251 258-5 17-40 45-44 60 15 30 85 80 98 123 62 108 25 192-76 258C455-45 341-9 207-4 145-2 19-30 19-85c0-36 51-41 49-89zm137-510c-18 6-26 137-16 192 30 22 66 2 112-6 70-13 158-95 159-132 17-68-169-82-255-54zm-15 330c-15 57-2 155 5 215 6 4 6 12 18 11 101-5 211-32 267-82 52-46 58-91 12-140s-73-73-81-73c-39 14-121 48-173 54-15 2-34 14-48 15" id="bn"/><path fill="#6f7681" d="M39 59C84 43 157-10 157-69c0-34-42-63-77-61-70 4-68 99-68 162 0 18 9 27 27 27" id="bo"/><g id="P"><use transform="matrix(0.018,0,0,0.018,0,0)" xlink:href="#bg"/><use transform="matrix(0.018,0,0,0.018,12.941999999999998,0)" xlink:href="#bl"/><use transform="matrix(0.018,0,0,0.018,23.507999999999996,0)" xlink:href="#bn"/><use transform="matrix(0.018,0,0,0.018,35.081999999999994,0)" xlink:href="#bm"/><use transform="matrix(0.018,0,0,0.018,46.151999999999994,0)" xlink:href="#bh"/><use transform="matrix(0.018,0,0,0.018,58.13999999999999,0)" xlink:href="#bo"/></g><path fill="#6f7681" d="M106-737c41-53 131 12 108 86-42 139-71 285-71 455 0 88 72 66 143 48 49-12 128-35 183-63 38-19 36-69 44-119 17-114 31-247 31-354 0-57 26-85 79-85 37 0 55 27 55 81 0 190-34 397-59 573 4 31 20 93-13 105-8 10-30 7-65-8-16-20-33-38-51-54C397-48 305 0 205 0 79 0 5-43 13-176c13-196 50-391 93-561" id="bp"/><g id="Q"><use transform="matrix(0.018,0,0,0.018,0,0)" xlink:href="#bn"/><use transform="matrix(0.018,0,0,0.018,11.574,0)" xlink:href="#bh"/><use transform="matrix(0.018,0,0,0.018,23.561999999999998,0)" xlink:href="#bd"/><use transform="matrix(0.018,0,0,0.018,34.974,0)" xlink:href="#bl"/><use transform="matrix(0.018,0,0,0.018,45.539999999999985,0)" xlink:href="#bp"/><use transform="matrix(0.018,0,0,0.018,58.19399999999999,0)" xlink:href="#bb"/><use transform="matrix(0.018,0,0,0.018,69.55199999999999,0)" xlink:href="#bh"/></g><g id="R"><use transform="matrix(0.018,0,0,0.018,0,0)" xlink:href="#bl"/><use transform="matrix(0.018,0,0,0.018,10.565999999999999,0)" xlink:href="#bf"/></g><path fill="#6f7681" d="M19-91c0-222 71-428 58-668-3-62 121-44 170-33 118 27 229 50 293 128 44 53 63 97 63 217 0 165-189 328-383 400-36 13-62 45-108 45-66 0-93-23-93-89zm185-582c-30 151-43 322-58 489 5 39 27 28 60 14 129-54 276-147 276-304 0-155-106-203-278-199" id="bq"/><g id="S"><use transform="matrix(0.018,0,0,0.018,0,0)" xlink:href="#bp"/><use transform="matrix(0.018,0,0,0.018,12.654,0)" xlink:href="#bf"/><use transform="matrix(0.018,0,0,0.018,24.191999999999997,0)" xlink:href="#bd"/><use transform="matrix(0.018,0,0,0.018,35.604,0)" xlink:href="#be"/><use transform="matrix(0.018,0,0,0.018,50.05799999999999,0)" xlink:href="#bk"/><use transform="matrix(0.018,0,0,0.018,62.153999999999996,0)" xlink:href="#bk"/><use transform="matrix(0.018,0,0,0.018,74.25,0)" xlink:href="#ba"/><use transform="matrix(0.018,0,0,0.018,85.68,0)" xlink:href="#bg"/><use transform="matrix(0.018,0,0,0.018,98.62199999999999,0)" xlink:href="#bg"/><use transform="matrix(0.018,0,0,0.018,111.564,0)" xlink:href="#bh"/><use transform="matrix(0.018,0,0,0.018,123.55199999999999,0)" xlink:href="#bq"/></g><path fill="#6f7681" d="M590-683c0-95-64-132-148-103-62 21-113 58-161 92-97 69-165 165-223 275C-45-222 51 11 277-12c154-16 257-81 343-160 63-58 100-126 109-243 12-155-158-93-246-67-61 18-178 69-168 115-2 30 28 68 54 64 69-10 133-52 201-67 9-2 20 9 20 17 0 11-18 38-57 79-85 91-188 136-306 136-55 0-99-68-99-127 0-30 16-69 37-123 25-64 237-288 318-281 25-8 66 40 79 44 19 0 28-19 28-58" id="br"/><g id="T"><use transform="matrix(0.018,0,0,0.018,0,0)" xlink:href="#bd"/><use transform="matrix(0.018,0,0,0.018,11.411999999999999,0)" xlink:href="#bj"/><use transform="matrix(0.018,0,0,0.018,21.15,0)" xlink:href="#bl"/><use transform="matrix(0.018,0,0,0.018,31.715999999999998,0)" xlink:href="#bf"/><use transform="matrix(0.018,0,0,0.018,43.254,0)" xlink:href="#br"/><use transform="matrix(0.018,0,0,0.018,56.934,0)" xlink:href="#bh"/></g><g id="U"><use transform="matrix(0.018,0,0,0.018,0,0)" xlink:href="#bj"/><use transform="matrix(0.018,0,0,0.018,9.738,0)" xlink:href="#bl"/><use transform="matrix(0.018,0,0,0.018,20.304,0)" xlink:href="#bb"/></g><g id="V"><use transform="matrix(0.018,0,0,0.018,0,0)" xlink:href="#bn"/><use transform="matrix(0.018,0,0,0.018,11.574,0)" xlink:href="#bh"/><use transform="matrix(0.018,0,0,0.018,23.561999999999998,0)" xlink:href="#bh"/><use transform="matrix(0.018,0,0,0.018,35.55,0)" xlink:href="#bf"/></g><path fill="#6f7681" d="M608-642l-20 77c-36 56-69 94-113 138-49 48-58 40-29 81 33 46 69 89 97 147 44 89 52 141 40 147-3 38-20 49-63 52-68 5-97-106-129-160-40-68-56-162-144-164-53-1-27 78-45 121-7 56-12 123-28 170C157-4 113 24 66-1 46-11 40-39 49-87c19-111 19-139 19-313 0-144 1-187-40-242-27-37-13-94 26-108 103-36 250-59 389-41 63 8 182 85 165 149zm-140 11c-10-39-42-58-96-57-53 12-154 21-179 43-5 9-8 31-8 65 0 151 19 135 127 94 94-36 148-79 156-145" id="bs"/><path fill="#6f7681" d="M81-140c34 0 77 28 77 61 0 38-43 81-82 81C34 2 7-30 9-72c2-44 21-68 72-68" id="bt"/><g id="W"><use transform="matrix(0.018,0,0,0.018,0,0)" xlink:href="#bs"/><use transform="matrix(0.018,0,0,0.018,11.123999999999999,0)" xlink:href="#bh"/><use transform="matrix(0.018,0,0,0.018,23.112,0)" xlink:href="#bl"/><use transform="matrix(0.018,0,0,0.018,33.678,0)" xlink:href="#bq"/><use transform="matrix(0.018,0,0,0.018,44.55,0)" xlink:href="#bt"/></g></defs></g></svg>
